<svg width="512" height="512" viewBox="0 0 512 512" fill="none" xmlns="http://www.w3.org/2000/svg">
<g clip-path="url(#clip0_29_13)">
<path d="M12.1281 86.6124C13.0738 86.607 14.0195 86.6016 14.9939 86.596C18.1768 86.5817 21.3594 86.5889 24.5423 86.596C26.8187 86.5903 29.0951 86.5833 31.3715 86.5752C37.5658 86.5572 43.7599 86.5584 49.9542 86.5641C55.1208 86.5672 60.2874 86.5611 65.454 86.5551C78.3395 86.5402 91.2249 86.5439 104.11 86.556C115.3 86.5659 126.489 86.553 137.678 86.529C149.166 86.5046 160.654 86.4954 172.142 86.5017C178.592 86.505 185.042 86.5026 191.492 86.4854C197.558 86.47 203.625 86.4739 209.691 86.4927C211.919 86.4964 214.146 86.4933 216.374 86.4828C219.413 86.4697 222.452 86.4811 225.491 86.4988C226.374 86.4892 227.257 86.4796 228.167 86.4697C233.6 86.5349 236.678 87.4036 241 91C242.857 93.0718 242.857 93.0718 244.524 95.461C245.204 96.4352 245.884 97.4094 246.585 98.4131C247.393 99.6069 248.198 100.803 249 102C249.476 102.71 249.952 103.42 250.442 104.151C253.904 109.335 257.329 114.542 260.745 119.756C263.945 124.64 267.155 129.519 270.363 134.398C271.006 135.376 271.648 136.354 272.31 137.361C278.441 146.682 284.617 155.972 290.813 165.25C291.288 165.962 291.764 166.675 292.254 167.409C294.834 171.273 297.416 175.137 300 179C304.097 175.345 306.825 170.96 309.785 166.391C310.35 165.527 310.916 164.664 311.498 163.774C312.719 161.909 313.938 160.042 315.156 158.174C318.396 153.206 321.659 148.252 324.918 143.297C326.269 141.242 327.62 139.186 328.97 137.131C329.638 136.114 330.307 135.098 330.995 134.051C332.318 132.038 333.64 130.025 334.962 128.012C338.667 122.372 342.386 116.743 346.128 111.129C347.287 109.385 348.44 107.639 349.587 105.888C351.187 103.447 352.806 101.019 354.43 98.5938C355.123 97.5218 355.123 97.5218 355.831 96.4281C356.279 95.768 356.726 95.1079 357.187 94.4278C357.564 93.8588 357.94 93.2898 358.328 92.7035C362.913 88.0321 366.789 86.7642 373.213 86.4988C375.736 86.4782 378.259 86.4795 380.782 86.4983C382.177 86.4945 383.573 86.489 384.968 86.482C388.74 86.468 392.512 86.4791 396.285 86.4957C400.237 86.5096 404.188 86.5031 408.14 86.4995C414.771 86.4968 421.402 86.5103 428.032 86.5335C435.7 86.5601 443.368 86.5618 451.036 86.5501C458.417 86.5393 465.798 86.5455 473.178 86.5597C476.318 86.5654 479.459 86.5653 482.599 86.5606C486.293 86.5558 489.986 86.5659 493.68 86.5875C495.684 86.5958 497.689 86.5893 499.693 86.5823C500.882 86.5922 502.071 86.6022 503.296 86.6124C504.331 86.6148 505.366 86.6172 506.433 86.6197C509 87 509 87 510.828 88.3233C512.865 91.2371 512.42 93.5517 512 97C510.833 99.7256 509.278 102.108 507.625 104.563C507.232 105.177 506.839 105.791 506.434 106.424C503.994 110.181 501.412 113.825 498.784 117.452C491.285 127.824 484.321 138.544 477.313 149.25C475.384 152.192 473.455 155.134 471.525 158.075C470.334 159.888 469.145 161.702 467.958 163.518C467.41 164.353 466.863 165.188 466.298 166.048C465.795 166.837 465.292 167.626 464.774 168.439C463 171 463 171 461.175 172.87C453.341 181.493 455.071 192.902 455.193 203.796C455.193 206.123 455.19 208.449 455.185 210.776C455.179 215.773 455.195 220.769 455.228 225.765C455.275 232.996 455.281 240.226 455.274 247.457C455.264 259.199 455.281 270.94 455.319 282.682C455.322 283.384 455.324 284.085 455.326 284.808C455.336 287.651 455.345 290.494 455.354 293.336C455.38 301.171 455.401 309.005 455.42 316.839C455.422 317.541 455.423 318.243 455.425 318.966C455.452 330.671 455.46 342.376 455.455 354.081C455.453 361.936 455.477 369.79 455.522 377.645C455.545 382.526 455.547 387.406 455.544 392.287C455.547 394.552 455.558 396.817 455.579 399.081C455.607 402.171 455.603 405.259 455.592 408.348C455.608 409.246 455.623 410.144 455.639 411.069C455.592 415.356 455.332 418.139 452.588 421.541C448.771 425.168 446.951 425.127 441.774 425.137C441.125 425.14 440.476 425.142 439.807 425.145C437.612 425.153 435.417 425.153 433.222 425.154C431.64 425.158 430.059 425.162 428.478 425.167C424.116 425.179 419.754 425.185 415.391 425.189C410.693 425.195 405.995 425.207 401.297 425.218C389.943 425.242 378.589 425.257 367.235 425.27C364.029 425.273 360.824 425.277 357.619 425.282C337.727 425.307 317.836 425.329 297.945 425.341C293.335 425.344 288.726 425.347 284.116 425.35C282.971 425.351 281.825 425.352 280.645 425.352C262.077 425.365 243.509 425.398 224.941 425.44C205.892 425.482 186.842 425.506 167.792 425.511C157.091 425.515 146.39 425.526 135.689 425.559C126.577 425.587 117.465 425.598 108.353 425.587C103.702 425.582 99.0514 425.585 94.4006 425.61C90.1441 425.632 85.8884 425.631 81.6319 425.612C80.0908 425.61 78.5497 425.615 77.0087 425.63C64.0513 425.748 64.0513 425.748 60.1072 422.65C56.397 417.984 56.9156 413.654 57.037 407.969C57.0525 407.033 57.068 406.097 57.084 405.133C57.1185 403.075 57.1552 401.018 57.1938 398.961C57.3005 393.234 57.3887 387.508 57.4782 381.781C57.4976 380.557 57.5171 379.333 57.5371 378.072C57.7911 361.632 57.9034 345.191 58.0151 328.75C58.039 325.268 58.0643 321.787 58.0904 318.306C58.0956 317.613 58.1008 316.92 58.1061 316.206C58.1923 305.085 58.3779 293.968 58.6016 282.849C58.83 271.371 58.9409 259.896 58.957 248.416C58.9697 241.993 59.0305 235.581 59.2209 229.161C60.2502 192.887 53.7305 170.862 30.6813 142.645C25.2354 135.907 20.5586 128.65 15.8505 121.388C14.0716 118.654 12.2609 115.943 10.4471 113.232C8.61858 110.497 6.80976 107.748 5.00008 105C4.44642 104.167 3.89277 103.334 3.32234 102.475C0.463076 98.0741 -0.834201 95.3185 7.56681e-05 90C3.17881 85.8482 7.29824 86.5797 12.1281 86.6124Z" fill="#DB8E53"/>
<path d="M56.9999 182C122.67 182 188.34 182 256 182C256 262.19 256 342.38 256 425C224.444 425.103 192.887 425.206 160.375 425.312C150.406 425.358 140.437 425.404 130.165 425.45C118.005 425.473 118.005 425.473 112.315 425.477C108.335 425.482 104.355 425.501 100.376 425.528C95.3002 425.562 90.2252 425.572 85.1497 425.565C83.2864 425.567 81.423 425.577 79.5598 425.596C77.0427 425.621 74.5276 425.615 72.0105 425.601C70.9165 425.623 70.9165 425.623 69.8003 425.645C65.9752 425.589 63.519 424.99 60.5618 422.65C57.4339 419.415 56.8746 417.289 56.8769 412.961C56.8739 411.724 56.8739 411.724 56.8708 410.462C56.8738 409.556 56.8767 408.651 56.8797 407.718C56.8788 406.756 56.878 405.793 56.8771 404.802C56.8754 401.564 56.881 398.325 56.8864 395.087C56.8867 392.771 56.8865 390.456 56.886 388.14C56.8857 381.841 56.8916 375.542 56.8985 369.242C56.9048 362.664 56.9054 356.086 56.9066 349.507C56.9092 338.462 56.9156 327.416 56.9245 316.371C56.9337 304.993 56.9407 293.616 56.945 282.238C56.9453 281.53 56.9455 280.821 56.9458 280.092C56.9481 273.931 56.9503 267.769 56.9524 261.608C56.9618 235.072 56.9817 208.536 56.9999 182Z" fill="#F8B271"/>
<path d="M301 182C351.82 182 402.64 182 455 182C455.202 240.941 455.202 240.941 455.244 265.598C455.254 271.232 455.264 276.866 455.275 282.5C455.277 283.56 455.277 283.56 455.279 284.64C455.3 296.041 455.34 307.442 455.386 318.843C455.433 330.543 455.46 342.243 455.47 353.944C455.477 360.516 455.492 367.087 455.529 373.659C455.563 379.843 455.573 386.027 455.566 392.211C455.567 394.482 455.577 396.753 455.596 399.024C455.621 402.123 455.615 405.22 455.601 408.319C455.623 409.67 455.623 409.67 455.645 411.049C455.594 415.341 455.336 418.135 452.587 421.543C448.875 425.068 447.194 425.125 442.179 425.12C440.942 425.122 439.705 425.123 438.43 425.124C437.046 425.121 435.663 425.117 434.279 425.114C432.807 425.113 431.335 425.113 429.863 425.114C425.912 425.114 421.961 425.108 418.01 425.101C414.306 425.096 410.602 425.095 406.898 425.095C396.057 425.089 385.216 425.075 374.375 425.062C350.161 425.042 325.948 425.021 301 425C301 344.81 301 264.62 301 182Z" fill="#C1692A"/>
<path d="M171.656 302.602C172.926 302.598 174.196 302.594 175.504 302.59C176.823 302.601 178.141 302.613 179.5 302.625C180.819 302.613 182.138 302.602 183.496 302.59C185.401 302.596 185.401 302.596 187.344 302.602C189.079 302.607 189.079 302.607 190.85 302.612C195.268 303.156 197.756 304.524 200.621 307.922C202.706 312.575 202.393 316.99 202.341 322.032C202.341 323.701 202.341 323.701 202.342 325.404C202.34 329.078 202.317 332.752 202.293 336.426C202.287 338.975 202.283 341.523 202.28 344.072C202.27 350.093 202.246 356.113 202.216 362.134C202.183 368.99 202.166 375.846 202.151 382.702C202.12 396.801 202.065 410.901 202 425C186.82 425 171.64 425 156 425C155.91 410.37 155.836 395.741 155.793 381.111C155.772 374.318 155.744 367.525 155.698 360.731C155.654 354.176 155.631 347.621 155.621 341.066C155.613 338.564 155.599 336.063 155.577 333.562C155.548 330.059 155.544 326.557 155.546 323.054C155.532 322.019 155.517 320.984 155.502 319.918C155.537 313.95 156.028 310.548 160 306C163.844 302.953 166.815 302.616 171.656 302.602Z" fill="#DB8E53"/>
<path d="M256 115C261.625 120.625 261.625 120.625 264.055 124.353C264.6 125.182 265.145 126.011 265.706 126.865C266.28 127.751 266.854 128.637 267.445 129.551C268.056 130.482 268.666 131.414 269.295 132.374C271.244 135.35 273.185 138.331 275.125 141.312C277.667 145.206 280.212 149.097 282.758 152.988C283.373 153.93 283.988 154.872 284.621 155.843C288.917 162.405 293.309 168.892 297.846 175.29C301 179.788 301 179.788 301 182C286.15 182 271.3 182 256 182C256 159.89 256 137.78 256 115Z" fill="#C16A2B"/>
<path d="M364 88C364.66 88.33 365.32 88.66 366 89C363.36 91.64 360.72 94.28 358 97C358 94 358 94 360.438 91.375C361.283 90.5913 362.129 89.8075 363 89C363.33 88.67 363.66 88.34 364 88Z" fill="#E39D56"/>
</g>
<defs>
<clipPath id="clip0_29_13">
<rect width="512" height="512" fill="white"/>
</clipPath>
</defs>
</svg>
