<?xml version="1.0" encoding="UTF-8"?>
<svg width="1200" height="680" viewBox="0 0 1200 680" fill="none" xmlns="http://www.w3.org/2000/svg">
  <defs>
<linearGradient id="cover3-bg" gradientUnits="userSpaceOnUse" x1="0" y1="0" x2="1200" y2="680">
  <stop offset="0%" stop-color="#0b1310" />
  <stop offset="100%" stop-color="#123025" />
</linearGradient>
<linearGradient id="cover3-stroke" gradientUnits="userSpaceOnUse" x1="0" y1="0" x2="1200" y2="0">
  <stop offset="0%" stop-color="#8de3c3" />
  <stop offset="100%" stop-color="#c6ffe2" />
</linearGradient>
<filter id="cover3-blur" x="-30%" y="-30%" width="160%" height="160%" color-interpolation-filters="sRGB">
  <feGaussianBlur stdDeviation="90" />
</filter>
  </defs>
  <rect width="1200" height="680" fill="url(#cover3-bg)" />
  <g><circle cx="310" cy="220" r="240" fill="#3ad89f" opacity="0.32" filter="url(#cover3-blur)" />
    <circle cx="860" cy="470" r="250" fill="#5bc6ff" opacity="0.28" filter="url(#cover3-blur)" /></g>
  <g transform="translate(509.8 252.99) scale(0.22)">
    <path d="M407.29 679.732C401.284 685.738 381.974 697.84 354.102 711.79C337.034 720.332 323.026 717.35 309.121 713.738C290.319 708.853 278.109 696.748 270.547 689.796C261.736 681.695 250.846 665.281 238.124 644.697C227.431 627.395 221.69 604.039 216.23 575.903C210.744 547.633 218.578 519.702 226.749 497.289C232.939 480.313 247.042 464.466 263.995 447.804C277.116 434.909 292.559 428.613 307.383 421.952C322.308 415.245 340.461 412.215 369.435 409.485C388.736 407.666 417.628 408.557 439.986 410.058C477.545 412.58 501.237 421.861 516.379 430.032C538.386 441.908 550.995 463.046 557.428 487.916C562.413 507.185 554.125 526.181 545.981 542.197C534.192 565.38 516.543 580.798 505.05 590.18C493.092 599.941 477.741 606.897 461.407 613.558C444.401 620.493 424.38 622.694 400.201 624.214C368.877 626.182 341.262 620.31 322.498 613.658C304.365 607.229 289.065 596.068 275.443 585.175C262.888 575.137 252.047 560.305 240.845 543.362C230.159 527.198 224.11 508.145 218.66 488.48C213.129 468.527 211.953 447.486 211.343 426.911C210.734 406.337 214.956 386.808 222.2 364.75C232.247 334.153 247.078 307.949 261.575 287.083C279.981 260.588 304.68 245.415 321.624 236.934C337.722 228.876 354.438 227.779 369.262 227.47C384.755 227.146 399.337 232.602 412.65 238.044C426.422 243.673 439.376 254.405 454.491 270.712C463.573 280.511 473.209 295.427 481.472 311.862C489.735 328.296 495.741 346.314 499.735 361.001C503.73 375.688 505.532 386.499 506.76 402.578C509.59 439.615 508.007 470.344 504.986 488.499C501.926 506.884 494.685 524.343 483.519 543.989C467.992 571.311 444.982 588.078 428.948 597.16C412.932 606.231 394.041 610.555 368.67 612.684C352.961 614.003 331.288 611.81 313.844 609.39C296.4 606.969 283.787 603.366 266.479 596.404C249.171 589.443 227.55 579.233 211.307 570.37C184.137 555.544 166.527 539.667 151.093 524.543C135.34 509.105 123.43 489.345 113.739 468.77C104.437 449.023 102.154 428.667 100.935 409.312C99.5651 387.565 106.359 366.188 113.611 346.823C121.2 326.56 135.442 309.15 153.559 290.705C164.262 279.809 181.287 269.256 198.349 260.375C215.411 251.493 232.828 245.488 252.011 241.493C271.193 237.498 291.613 235.696 307.838 235.368C335.482 234.81 357.441 240.483 378.016 247.435C399.199 254.593 419.921 268.947 440.505 284.68C459.607 299.282 474.556 318.668 487.878 338.943C500.235 357.748 506.751 380.529 512.202 410.741C515.463 428.812 516.452 452.964 516.479 471.646C516.506 490.328 514.705 502.94 510.173 520.548C505.641 538.156 498.434 560.378 487.815 582.937C477.195 605.495 463.382 627.717 452.962 643.369C436.629 667.904 420.722 682.698 403.778 695.11C387.65 706.925 369.762 713.674 352.819 718.524C336.36 723.236 317.602 720.39 298.538 716.768C279.458 713.143 263.586 702.226 249.062 691.343C233.311 679.539 221.108 662.824 207.503 640.184C198.92 625.899 190.896 603.73 185.054 573.373C179.212 543.016 176.81 504.578 176.773 478.17C176.737 451.763 179.139 438.55 182.178 425.737C185.218 412.924 188.821 400.913 196.083 383.314C203.345 365.715 214.155 342.892 223.928 326.03C240.281 297.816 259.181 281.832 276.726 269.12C294.539 256.213 315.582 248.436 336.757 242.375C358.556 236.137 388.308 238.681 421.904 242.903C438.235 244.956 452.498 250.729 471.335 259.811C490.171 268.892 512.994 282.105 530.757 293.717C548.52 305.328 560.531 314.937 572.725 326.494C584.919 338.051 596.931 351.264 607.923 364.677C618.916 378.09 628.525 391.303 637.68 405.918C646.834 420.532 655.242 436.147 661.976 450.798C674.571 478.2 680.868 505.488 684.808 532.414C688.805 559.733 686.364 585.585 682.742 608.58C679.044 632.062 667.6 652.341 656.407 669.294C646.088 684.925 629.417 695.456 610.062 704.237C589.253 713.678 565.736 714.912 541.849 714.62C528.744 714.461 513.758 711.326 497.915 707.686C482.073 704.046 465.857 699.242 442.188 689.559C418.519 679.877 387.889 665.463 364.903 653.533C341.917 641.603 327.503 632.594 312.87 622.248C298.238 611.901 283.824 600.49 271.293 589.507C258.763 578.523 248.553 568.313 234.584 548.94C220.616 529.566 203.199 501.338 192.425 480.19C175.516 447.002 172.533 420.204 170.103 395.698C167.626 370.715 174.298 346.787 182.461 325.602C190.489 304.766 207.003 286.71 225.758 269.757C244.079 253.195 267.644 244.195 290.94 236.925C314.219 229.659 339.824 229.599 365.84 229.59C393.163 229.581 421.704 238.644 449.85 248.927C476.843 258.789 499.999 273.806 521.184 288.93C542.185 303.923 561.278 328.332 579.15 357.079C595.403 383.221 598.369 413.27 600.798 440.506C603.111 466.438 596.603 490.946 588.441 513.641C580.238 536.449 565.7 555.282 549.675 571.926C532.413 589.855 507.516 601.418 483.001 611.11C460.817 619.879 434.135 622.694 403.878 624.214C388.651 624.978 373.621 623.931 357.778 622.421C341.935 620.91 325.719 618.508 309.558 614.868C293.397 611.228 277.781 606.423 261.629 600.345C245.477 594.266 229.261 587.059 214.301 579.442C185.678 564.87 162.304 547.566 142.33 529.421C121.729 510.706 109.471 486.924 100.99 465.139C92.7846 444.063 91.8353 418.403 91.8262 391.767C91.8179 367.417 102.682 341.964 115.995 316.53C127.381 294.778 146.325 277.61 168.401 260.357C191.611 242.218 219.106 232.675 245.113 223.894C258.898 219.239 274.724 216.914 291.176 214.766C307.629 212.619 324.445 211.418 339.715 211.099C354.984 210.781 368.197 211.381 389.418 215.895C410.639 220.408 439.467 228.817 462.126 237.352C484.784 245.888 500.4 254.296 513.549 262.531C537.565 277.573 557.037 296.829 575.501 318.004C593.835 339.032 605.011 364.75 613.793 389.565C622.007 412.779 625.067 438.149 626.587 463.874C627.998 487.758 622.083 510.966 613.32 533.661C604.303 557.013 585.738 575.302 564.581 591.645C539.97 610.656 508.135 616.615 479.698 620.555C450.264 624.634 421.377 622.111 393.85 618.49C379.456 616.596 364.521 612.466 349.579 607.907C334.637 603.348 320.223 597.942 306.191 591.554C292.159 585.166 278.946 577.959 265.533 568.841C252.12 559.723 238.907 548.912 227.596 537.938C206.215 517.193 191.387 493.604 179.276 469.707C173.107 457.537 169.566 444.01 166.8 423.69C164.033 403.37 162.832 376.343 164.015 355.514C165.198 334.684 168.802 320.871 174.562 306.848C186.328 278.203 205.183 255.17 223.938 236.706C242.464 218.468 265.824 206.595 290.321 196.303C303.199 190.892 317.821 187.212 340.561 185.046C363.302 182.881 393.932 182.881 417.218 184.983C440.505 187.085 455.519 191.289 470.762 196.458C501.308 206.816 527.299 220.427 548.784 234.941C571.054 249.986 589.196 273.151 605.248 297.056C619.822 318.761 624.449 343.529 628.089 367.726C632.05 394.057 626.924 419.968 620.881 443.263C614.518 467.796 597.277 492.748 574.9 516.972C552.891 540.798 525.078 548.057 497.306 553.208C479.323 556.543 452.717 556.556 432.497 555.674C412.277 554.791 399.064 551.788 385.05 546.938C356.086 536.913 330.36 521.467 307.365 505.442C282.877 488.378 264.204 464.484 248.161 441.189C240.15 429.555 233.92 417.292 227.814 402.396C221.708 387.5 216.303 370.082 212.617 353.302C205.569 321.21 205.274 292.807 206.475 268C207.745 241.775 217.358 219.371 227.341 202.418C236.47 186.914 250.7 176.256 266.425 167.775C283.252 158.699 305.263 158.62 327.048 158.912C349.079 159.206 370.782 169.486 392.266 180.069C414.047 190.798 435.081 209.47 456.875 230.345C477.771 250.36 491.555 272.569 503.057 292.534C514.808 312.931 520.71 336.249 524.651 358.043C528.122 377.241 526.207 394.525 522.285 409.958C518.253 425.823 502.62 437.021 486.277 444.601C472.203 451.129 445.691 446.193 411.185 440.151C394.552 437.239 380.282 431.707 363.547 424.727C346.813 417.747 328.194 408.739 311.396 399.593C294.598 390.448 280.184 381.439 266.152 371.093C252.12 360.746 238.907 349.335 227.896 338.351C216.885 327.368 208.477 317.158 201.743 296.883C195.009 276.609 190.205 246.579 191.633 225.704C193.887 192.777 218.523 176.274 238.188 164.463C257.131 153.085 283.987 149.539 313.043 145.899C339.518 142.582 365.904 147.664 394.032 155.217C409.091 159.261 425.162 165.773 446.429 177.275C467.695 188.777 493.52 205.594 511.629 219.362C529.738 233.13 539.347 243.34 548.501 254.906C567.048 278.338 580.132 304.09 590.124 329.497C595.306 342.673 598.314 357.306 599.57 374.942C600.825 392.577 599.624 412.997 596.303 429.523C592.981 446.048 587.576 458.06 578.786 471.455C569.995 484.85 557.983 499.264 546.69 509.692C535.398 520.121 525.188 526.126 511.219 531.623C497.251 537.119 479.834 541.924 457.048 544.399C434.262 546.874 406.635 546.874 376.487 542.67C346.339 538.466 314.508 530.058 289.702 521.822C264.896 513.587 248.079 505.779 231.308 496.352C214.537 486.924 198.322 476.114 183.061 463.338C167.801 450.561 153.987 436.147 143.868 423.617C126.354 401.928 117.351 376.543 110.681 349.908C104.747 326.214 108.797 302.507 114.53 279.211C120.715 254.081 137.862 234.531 154.488 218.188C172.852 200.135 197.885 192.017 227.177 185.356C245.444 181.202 271.484 179.896 291.395 179.559C311.305 179.223 324.518 181.024 347.841 187.958C371.164 194.892 404.196 206.904 427.219 216.996C450.241 227.088 462.253 234.895 474.447 244.022C499.25 262.587 518.235 283.488 532.458 304.354C547.938 327.063 556.491 353.83 562.251 379.847C565.186 393.102 565.008 407.064 563.816 423.189C562.624 439.314 559.621 457.332 555.372 472.92C547.532 501.678 532.34 525.526 513.303 550.023C502.723 563.638 487.66 577.522 473.328 588.852C458.995 600.181 445.182 607.989 430.859 614.713C416.536 621.438 402.121 626.843 385.987 631.129C369.853 635.415 352.436 638.418 335.056 639.965C317.675 641.512 300.858 641.512 284.988 640.011C269.118 638.509 254.704 635.506 240.072 631.257C225.439 627.007 211.025 621.602 196.993 614.914C169.135 601.635 145.324 583.364 124.14 563.108C113.081 552.534 104.156 538.648 95.9029 524.934C87.6494 511.221 81.0429 497.407 75.8378 482.183C70.6327 466.959 67.0291 450.743 65.1728 434.582C63.3164 418.421 63.3164 402.805 64.5176 386.653C65.7188 370.501 68.1211 354.285 71.7611 339.625C75.401 324.965 80.2057 312.353 87.1853 298.949C94.1648 285.545 103.174 271.731 113.22 259.21C123.266 246.689 134.077 235.878 146.553 226.105C159.028 216.332 172.842 207.923 186.865 200.889C200.888 193.855 214.701 188.45 230.226 184.164C245.75 179.878 262.566 176.875 279.938 175.328C297.31 173.781 314.727 173.781 330.906 175.282C347.086 176.784 361.5 179.787 376.132 184.036C390.765 188.286 405.179 193.691 418.911 200.68C432.642 207.669 445.255 216.077 458.058 227.015C470.862 237.953 483.474 251.166 494.175 265.48C504.877 279.794 513.285 294.809 520.319 309.45C527.353 324.092 532.759 337.905 537.345 354.931C541.931 371.957 545.535 391.776 547.692 410.094C549.848 428.412 550.449 444.628 550.158 461.69C549.866 478.753 548.665 496.17 546.245 513.25C543.824 530.331 540.221 546.546 534.761 564.209C529.301 581.872 522.094 600.49 514.777 616.388C501.401 645.453 484.42 666.901 465.975 684.454C446.437 703.048 423.16 711.854 403.195 716.704C382.49 721.734 358.278 717.369 333.463 711.026C308.858 704.737 285.48 686.502 261.866 666.537C250.328 656.782 241.855 645.371 232.71 631.994C223.564 618.617 214.556 603.002 206.311 582.946C198.067 562.89 190.86 538.866 185.946 518.082C181.032 497.298 178.63 480.482 177.092 462.209C175.554 443.937 174.953 424.718 175.845 405.808C176.737 386.899 179.139 368.881 183.38 351.191C187.62 333.501 193.626 316.685 201.224 300.514C216.25 268.537 236.122 246.052 256.679 231.219C279.801 214.535 308.284 210.799 332.189 209.279C355.449 207.801 379.263 213.784 404.369 222.847C417.714 227.664 431.277 235.514 444.399 243.431C457.521 251.348 469.533 259.756 482.327 270.694C495.122 281.632 508.335 294.845 519.946 309.159C531.557 323.473 541.167 338.488 550.021 354.631C558.875 370.774 566.683 387.591 572.507 402.86C583.199 430.892 587.449 461.172 590.179 491.447C592.468 516.831 586.903 542.488 577.83 567.622C570.278 588.544 554.18 602.62 536.945 614.732C518.579 627.638 493.557 630.574 467.549 633.004C453.6 634.307 437.938 633.031 420.585 630.32C403.232 627.608 384.613 622.803 367.214 617.325C349.816 611.847 334.2 605.841 318.348 598.543C302.496 591.245 286.881 582.837 265.624 567.694C244.367 552.552 217.941 530.931 198.021 511.985C178.102 493.039 165.489 477.424 154.788 461.872C144.087 446.321 135.678 431.306 128.644 416.664C121.61 402.023 116.205 388.209 111.919 373.286C103.252 343.109 102.136 313.445 105.148 287.72C108.035 263.067 123.303 243.631 138.426 227.888C153.032 212.685 176.027 204.757 202.644 198.996C231.135 192.831 261.547 198.023 292.696 204.666C309.58 208.266 328.049 214.912 350.853 224.913C373.657 234.913 400.083 248.727 422.105 261.549C444.126 274.37 460.943 285.782 476.813 298.567C492.683 311.352 507.097 325.166 521.129 340.089C535.161 355.013 548.374 370.628 559.685 386.48C570.996 402.332 580.005 417.948 587.349 433.499C601.49 463.447 607.468 493.349 609.598 520.885C611.675 547.754 601.481 573.446 588.177 595.549C575.896 615.952 554.198 626.297 531.23 635.98C518.126 641.504 501.055 645.662 482.782 648.437C464.51 651.213 445.291 651.813 425.481 651.222C405.67 650.63 385.851 648.829 365.131 645.198C344.41 641.567 323.39 636.162 294.543 625.569C265.697 614.977 229.661 599.362 202.389 585.312C175.117 571.262 157.7 559.25 142.421 547.056C127.143 534.862 114.53 522.85 102.628 508.555C90.7251 494.259 79.9145 478.043 71.6428 462.782C63.371 447.522 57.9657 433.708 54.2803 418.785C46.8413 388.662 48.1379 358.344 52.9608 331.108C57.8008 303.775 77.7851 281.869 97.7411 262.795C118.357 243.091 148.709 234.495 178.357 226.014C193.423 221.704 209.205 219.935 224.757 218.698C240.308 217.46 255.323 217.46 270.265 218.961C285.207 220.463 299.621 223.466 315.455 227.716C331.288 231.965 348.105 237.37 365.176 244.96C382.247 252.549 399.064 262.158 413.733 272.214C428.402 282.269 440.414 292.479 452.607 304.946C464.801 317.413 476.813 331.827 486.905 347.66C496.996 363.494 504.804 380.311 509.727 395.28C518.596 422.248 517.107 448.468 512.885 473.884C508.526 500.118 492.901 522.505 476.877 542.179C460.39 562.419 435.918 575.32 411.421 587.432C398.695 593.724 383.922 597.141 365.686 599.307C347.45 601.473 325.828 601.473 308.384 599.972C290.94 598.47 278.327 595.467 264.623 590.617C250.919 585.767 236.504 579.16 222.172 571.553C207.84 563.945 194.026 555.537 181.805 546.701C169.584 537.865 159.374 528.856 149.01 517.909C138.645 506.962 128.435 494.35 119.872 480.345C102.79 452.408 95.4934 422.643 91.5532 395.717C87.5555 368.398 91.1983 337.742 97.2406 305.665C100.253 289.673 105.685 274.789 112.365 260.448C119.044 246.106 127.452 232.893 137.489 220.681C147.526 208.469 158.937 197.659 171.422 188.486C183.907 179.314 197.12 172.106 211.434 165.991C240.214 153.697 269.446 148.92 298.174 147.701C313.675 147.043 331.106 148.884 346.986 151.004C362.865 153.124 376.678 156.127 400.911 165.782C425.144 175.437 459.378 191.653 484.22 205.712C509.063 219.771 523.477 231.183 536.608 243.367C549.739 255.552 561.15 268.164 571.833 282.469C582.517 296.774 592.126 312.389 600.079 327.941C608.032 343.493 614.038 358.507 618.634 374.951C623.229 391.394 626.232 408.811 627.779 426.192C629.326 443.573 629.326 460.389 627.224 476.56C623.123 508.11 610.58 535.226 596.976 558.831C583.051 582.993 559.075 601.382 533.969 618.035C521.333 626.416 507.061 631.684 491.837 636.28C476.613 640.875 460.397 643.878 443.935 645.425C427.474 646.972 411.258 646.972 394.496 645.17C377.734 643.369 360.917 639.765 344.146 634.606C327.375 629.446 311.159 622.839 296.199 615.232C281.239 607.625 268.026 599.216 256.115 590.08C233.107 572.433 214.465 548.821 197.512 521.303C188.652 506.923 182.961 489.581 178.357 474.012C169.79 445.045 168.874 414.781 170.676 384.214C171.562 369.181 176.082 355.45 180.941 341.427C185.8 327.404 191.806 313.591 200.906 298.367C210.006 283.143 222.018 266.927 234.211 254.069C246.405 241.211 258.417 232.202 271.512 224.258C297.665 208.391 327.066 199.297 355.512 193.537C369.426 190.719 382.757 190.779 397.972 191.371C413.187 191.962 430.003 193.764 446.174 196.794C462.344 199.825 477.359 204.029 493.502 209.798C509.645 215.567 526.462 222.774 541.731 230.691C557.001 238.608 570.214 247.016 583.026 256.453C608.517 275.227 629.235 297.429 646.188 320.115C663.239 342.932 671.149 372.612 676.309 402.269C678.832 416.775 677.264 430.724 673.651 445.647C670.039 460.571 663.432 476.187 654.023 489.636C635.471 516.155 607.614 531.04 581.898 541.341C556.689 551.439 525.151 551.115 491.864 550.823C475.37 550.679 459.778 547.529 444.827 543.589C415.581 535.881 389.218 520.867 365.604 505.133C344.42 491.019 327.903 468.743 312.461 443.327C297.767 419.144 292.05 392.905 288.11 367.798C283.925 341.132 288.355 310.442 296.208 278.966C300.085 263.429 307.665 249.892 315.873 236.47C332.332 209.555 352.6 190.233 372.256 176.311C393.461 161.29 419.903 153.798 447.721 147.737C462.771 144.458 480.344 144.079 498.625 144.361C516.907 144.643 535.525 146.445 552.924 149.175C570.323 151.905 585.938 155.508 602.691 160.668C619.444 165.828 636.861 172.434 653.341 179.741C669.82 187.048 684.835 194.856 698.876 203.082C712.917 211.309 725.53 219.717 738.033 229.754C763.434 250.145 782.731 274.37 797.264 297.966C811.74 321.471 814.963 351.373 812.56 379.837C810.577 403.34 791.394 420.004 771.739 434.236C761.667 441.529 749.08 445.465 734.184 449.442C719.287 453.419 701.87 456.422 683.288 457.969C664.706 459.516 645.487 459.516 625.977 458.314C606.467 457.113 587.248 454.711 558.429 447.167C529.61 439.623 491.773 427.011 463.873 415.709C435.973 404.407 419.156 394.798 401.785 382.941C384.413 371.083 366.996 357.27 352.318 343.547C337.64 329.825 326.229 316.612 317.047 304.4C300.271 282.087 288.446 255.224 278.746 224.967C269.388 195.78 273.814 165.427 279.538 137.29C285.771 106.647 310.122 83.4923 331.297 64.7193C351.526 46.7856 379.845 37.9385 411.294 29.1571C428.142 24.4527 447.548 22.1776 467.358 20.9309C487.168 19.6842 506.988 20.2848 525.006 21.7954C543.023 23.3059 558.639 25.7083 574.791 29.6485C590.943 33.5888 607.159 38.9941 622.72 45.0819C638.28 51.1696 652.694 57.7761 666.126 65.9842C692.63 82.1812 712.954 103.312 730.207 124.778C748.977 148.132 756.087 177.894 760.937 204.22C765.619 229.633 760.4 254.951 751.937 278.256C743.714 300.901 725.875 320.488 703.817 340.763C691.684 351.915 673.952 360.437 657.481 367.489C641.01 374.541 625.395 378.745 607.741 381.812C590.088 384.879 570.869 386.681 551.359 387.008C531.849 387.336 512.63 386.135 492.819 383.113C473.009 380.092 453.19 375.288 432.77 368.608C412.35 361.929 391.93 353.521 374.203 344.685C356.477 335.849 342.063 326.84 329.832 317.695C307.088 300.687 290.885 279.448 278.164 255.861C264.55 230.62 265.933 200.007 269.246 173.071C272.448 147.034 288.919 125.952 304.944 107.489C321.522 88.3877 347.104 76.7766 372.82 66.1753C385.658 60.8828 399.137 58.5769 415.553 56.7296C431.969 54.8824 451.188 54.2818 469.797 54.8733C488.406 55.4648 505.823 57.2665 529.81 64.5009C553.797 71.7353 583.827 84.3476 605.603 95.3493C627.379 106.351 639.991 115.36 652.494 126.307C664.997 137.254 677.009 149.866 686.5 162.37C704.233 185.729 714.209 213.074 721.79 240.61C728.994 266.783 723.382 294.972 716.739 321.908C710.24 348.26 689.494 371.429 666.808 394.133C655.514 405.437 642.321 413.834 628.016 421.779C613.711 429.723 598.096 436.329 580.742 441.534C563.389 446.739 544.77 450.343 525.87 452.8C506.97 455.257 488.351 456.458 468.25 456.176C448.148 455.894 427.128 454.092 406.99 450.762C386.852 447.431 368.234 442.626 349.634 436.548C331.034 430.469 313.016 423.262 296.227 415.045C279.437 406.828 264.423 397.819 250.081 387.472C235.74 377.126 222.527 365.715 210.315 352.629C185.845 326.409 172.551 298.867 166.49 275.572C160.404 252.176 163.396 226.087 169.43 199.761C175.665 172.551 195.482 151.432 215.429 133.268C226.049 123.598 241.382 117.507 256.315 111.993C271.248 106.478 286.262 102.875 301.505 100.718C316.747 98.5616 331.762 97.961 348.205 98.5525C364.648 99.144 382.065 100.946 399.446 104.276C416.827 107.607 433.643 112.412 451.615 118.791C469.588 125.169 488.206 132.977 504.103 141.203C520.001 149.43 532.613 157.838 546.017 167.875C559.421 177.912 573.235 189.323 586.657 204.511C600.079 219.699 612.692 238.317 621.591 253.914C636.867 280.685 642.048 309.514 644.177 340.381C646.22 369.989 637.261 397.509 625.477 422.625C613.045 449.121 589.396 467.924 566.71 483.667C555.243 491.624 542.222 497.007 526.416 501.602C510.61 506.198 491.991 509.201 474.593 510.748C457.194 512.295 441.578 512.295 426.027 510.193C410.475 508.091 395.46 503.886 380.518 498.417C365.577 492.948 351.162 486.342 335.929 477.834C320.696 469.325 305.081 459.115 290.13 447.249C275.179 435.383 261.365 422.17 248.844 406.955C236.322 391.74 225.512 374.924 216.339 356.651C207.167 338.379 199.96 319.16 195.046 299.95C190.132 280.74 187.729 262.122 187.393 245.023C187.056 227.925 188.858 212.91 193.089 197.968C201.616 167.859 218.541 145.353 237.578 128.709C260.35 108.8 291.285 102.22 317.912 98.2795C344.336 94.3691 373.766 97.9246 404.633 103.967C420.021 106.979 434.298 112.412 448.631 118.19C462.963 123.968 476.776 130.575 492.001 139.684C507.225 148.793 523.44 160.204 537.199 171.488C550.958 182.771 561.769 193.582 571.242 205.157C580.715 216.732 588.522 228.744 595.848 242.139C603.173 255.534 609.78 269.948 614.685 284.881C624.35 314.308 625.086 345.313 621.773 374.368C618.637 401.883 599.697 426.629 579.732 449.943C570.046 461.253 558.566 469.052 545.189 476.987C531.812 484.922 516.197 492.129 498.844 497.344C481.49 502.558 462.872 505.561 443.671 507.408C424.471 509.255 405.252 509.856 386.042 508.964C366.832 508.072 348.214 505.67 328.112 501.129C308.011 496.588 286.99 489.982 268.354 482.374C249.717 474.767 234.102 466.359 218.55 455.721C202.999 445.083 187.984 432.471 175.445 417.866C162.905 403.26 153.296 387.045 146.243 371.184C139.191 355.323 134.987 340.308 132.521 324.465C130.055 308.622 129.454 292.406 131.847 275.044C134.241 257.681 139.646 239.664 146.334 223.775C153.023 207.887 160.83 194.674 170.558 182.462C180.286 170.25 191.697 159.439 205.083 149.366C218.469 139.292 233.483 130.284 249.326 122.94C265.169 115.596 281.385 110.191 300.249 105.905C319.113 101.619 340.133 98.6162 360.572 97.3695C381.01 96.1228 400.229 96.7234 419.438 99.1349C438.648 101.546 457.266 105.75 476.167 111.52C495.067 117.289 513.685 124.496 531.985 133.014C550.285 141.531 567.702 151.14 584.482 162.697C601.262 174.254 616.878 187.467 630.627 201.18C644.377 214.894 655.788 228.707 665.871 243.631C675.954 258.555 684.362 274.17 690.495 289.722C696.628 305.273 700.232 320.288 702.088 335.831C705.79 366.823 700.341 396.29 691.578 422.015C687.214 434.827 679.812 445.939 669.802 458.123C659.792 470.308 646.579 482.92 633.767 492.421C610.256 509.854 581.552 518.319 550.995 524.989C535.62 528.345 519.837 528.056 503.084 527.164C486.331 526.272 468.914 523.87 449.732 518.728C430.549 513.587 410.129 505.779 391.802 497.553C373.475 489.327 357.86 480.918 343.209 472.082C328.558 463.247 315.345 454.238 301.932 443.591C288.519 432.944 275.306 420.932 263.995 409.039C252.684 397.145 243.675 385.734 234.83 371.748C225.985 357.761 217.577 341.545 211.744 325.384C205.911 309.223 202.908 293.607 201.961 278.056C200.105 247.545 208.859 220.609 221.854 198.814C235.128 176.552 260.965 165.336 286.672 156.855C314.541 147.661 345.266 148.301 375.814 150.103C392.02 151.059 409.365 155.508 427.346 160.668C445.327 165.828 463.345 172.434 481.336 180.942C499.326 189.451 516.743 199.661 532.922 211.227C549.102 222.793 563.516 235.405 574.545 247.007C594.133 267.614 605.612 293.152 614.402 319.788C622.132 343.208 617.824 368.39 610.881 392.605C604.129 416.151 584.519 432.744 566.073 447.577C546.516 463.304 519.655 469.798 490.326 474.649C474.322 477.295 455.592 477.096 437.292 476.505C418.993 475.914 401.575 474.112 385.096 470.781C368.616 467.451 353.601 462.646 337.758 456.567C321.916 450.489 305.7 443.282 289.538 434.464C273.377 425.646 257.762 415.436 243.411 403.57C229.061 391.704 216.448 378.491 206.047 365.978C186.828 342.859 175.59 317.686 168.319 291.669C160.877 265.04 163.396 235.205 168.829 205.849C174.106 177.335 193.044 152.669 212.708 131.166C230.174 112.068 257.307 103.457 285.744 95.2765C300.167 91.1273 315.382 90.0987 333.026 89.1705C350.671 88.2424 370.49 88.2424 388.508 89.7438C406.526 91.2453 422.141 94.2483 441.296 99.3988C460.451 104.549 482.673 111.756 501.628 119.073C520.583 126.389 535.598 133.596 550.239 142.113C564.881 150.631 578.695 160.24 592.417 171.497C606.14 182.753 619.353 195.366 629.763 207.869C640.173 220.372 647.38 232.384 653.195 246.98C665.398 277.61 666.945 307.73 663.332 332.236C659.47 358.433 640.937 380.547 621.591 400.521C611.39 411.053 597.44 419.294 581.925 427.839C566.41 436.384 548.993 444.191 529.21 450.316C509.427 456.44 487.805 460.644 455.947 462.509C424.088 464.375 382.648 463.774 350.789 461.063C318.931 458.351 297.91 453.546 277.772 447.467C257.634 441.389 239.016 434.182 217.113 423.562C195.209 412.943 170.585 399.129 151.294 386.007C132.002 372.885 118.789 360.873 108.379 349.28C89.3366 328.074 79.7325 304.928 74.2726 282.842C68.8099 260.746 76.6204 233.985 87.1944 206.14C97.6399 178.633 119.644 160.513 141.402 145.38C153.473 136.985 170.367 131.448 187.429 126.544C204.491 121.639 221.908 118.636 241.691 117.389C261.474 116.142 283.096 116.743 306.546 119.455C329.996 122.167 354.62 126.971 376.014 132.75C397.408 138.528 414.825 145.135 433.407 153.643C451.989 162.151 471.207 172.361 488.916 183.627C506.624 194.892 522.239 206.904 536.289 220.9C550.34 234.895 562.351 250.511 570.641 264.26C585.146 288.318 588.668 312.59 589.287 336.786C589.971 363.543 576.62 389.028 558.793 412.024C549.165 424.444 534.36 435.019 520.337 443.9C506.315 452.782 492.501 458.788 475.776 463.683C459.05 468.579 439.831 472.183 421.222 474.039C402.613 475.895 385.196 475.895 367.815 474.394C350.434 472.892 333.618 469.889 314.745 463.838C295.872 457.787 275.452 448.778 258.626 440.233C241.801 431.688 229.188 423.881 216.985 414.153C204.782 404.425 193.371 393.014 182.688 379.928C172.005 366.843 162.395 352.429 155.043 338.397C147.69 324.365 142.885 311.152 139.209 295.336C135.533 279.521 133.13 261.503 132.493 243.513C131.856 225.522 133.058 208.105 135.778 192.526C140.873 163.355 152.44 139.911 165.134 119.937C178.469 98.9554 201.525 86.477 226.012 77.6866C239.274 72.9261 255.905 73.1002 272.667 73.3823C289.429 73.6644 306.246 75.4662 323.617 79.097C340.989 82.7279 358.406 88.1332 385.096 99.6263C411.785 111.119 447.22 128.536 474.183 144.115C501.146 159.694 518.563 172.907 536.244 189.023C553.925 205.139 571.342 223.757 585.72 243.258C600.097 262.759 610.908 282.578 618.88 300.296C626.851 318.013 631.656 333.028 634.431 348.871C637.207 364.714 637.807 380.929 636.615 397.391C635.423 413.853 632.42 430.069 626.969 445.029C621.518 459.989 613.711 473.202 603.082 486.315C592.454 499.427 579.241 512.04 563.425 523.042C547.61 534.043 529.592 543.052 511.602 549.495C493.611 555.937 476.194 559.541 456.711 561.998C437.229 564.455 416.208 565.656 395.469 565.674C374.731 565.692 354.912 564.491 334.491 561.47C314.071 558.449 293.651 553.644 273.222 547.265C252.793 540.886 232.974 533.079 213.154 523.651C193.335 514.224 174.116 503.413 157.309 491.538C140.501 479.663 126.688 467.05 115.067 454.547C93.2551 431.078 80.3513 406.245 71.8703 381.148C67.3334 367.722 65.7916 351.846 66.0555 335.994C66.5821 304.363 79.6233 277.028 96.8493 254.032C106.032 241.774 119.481 231.037 132.284 222.456C145.088 213.875 157.7 208.469 172.906 204.183C188.112 199.897 205.529 196.894 223.21 195.047C240.891 193.2 258.308 192.599 277.19 194.092C296.072 195.584 315.891 199.188 337.212 204.647C358.533 210.107 380.755 217.314 403.314 226.432C425.872 235.55 448.094 246.361 468.55 258.537C489.007 270.712 507.024 283.925 524.114 299.14C541.203 314.355 556.819 331.172 569.968 348.543C583.117 365.915 593.327 383.332 600.989 403.415C608.651 423.498 613.456 445.72 615.331 466.477C617.205 487.234 616.004 505.852 612.682 522.65C606.396 554.444 590.579 578.924 573.044 598.898C554.392 620.144 528.737 631.757 503.039 640.539C489.005 645.334 471.935 647.518 455.465 649.065C438.994 650.612 423.379 650.612 408.127 648.51C378.083 644.369 349.797 631.866 323.162 619.163C310.106 612.936 298.929 605.259 287.045 595.24C275.161 585.221 263.149 572.608 253.357 558.604C234.087 531.041 227.132 502.103 224.702 478.198C222.345 455.012 228.897 432.926 237.66 412.952C246.561 392.663 267.644 378.29 290.339 367.079C311.121 356.814 335.583 358.198 359.188 360.61C381.985 362.938 404.142 375.124 427.737 390.239C453.899 406.997 473.937 429.686 488.779 449.961C501.99 468.008 506.751 490.346 511.301 512.731C516.009 535.895 511.046 558.904 505.314 579.178C499.316 600.388 477.777 620.164 454.782 641.057C443.703 651.124 431.787 657.746 417.8 664.162C403.814 670.577 387.598 675.982 371.437 680.268C355.275 684.555 339.66 687.557 312.097 688.804C284.533 690.051 245.495 689.45 216.976 687.039C188.457 684.627 171.641 680.423 155.771 675.555C125.197 666.176 99.2244 652.505 78.0308 637.381C58.4964 623.441 49.3937 603.985 44.5434 586.14C39.3506 567.035 46.8821 544.563 59.2761 521.868C72.1835 498.232 95.3478 479.026 121.355 460.562C134.859 450.975 150.966 443.9 168.319 437.476C185.673 431.051 204.291 426.247 226.495 422.871C248.698 419.495 273.923 417.693 295.326 417.365C316.729 417.038 333.545 418.239 352.118 420.659C370.691 423.08 390.51 426.683 410.329 431.843C430.149 437.003 449.368 443.609 466.175 450.616C482.983 457.623 496.796 464.83 510.218 473.347C537.004 490.345 555.854 509.783 567.966 529.73C574.601 540.658 577.675 555.683 578.039 572.117C578.403 588.551 574.8 606.569 569.04 621.256C563.28 635.943 555.472 646.754 545.144 657.728C534.815 668.703 522.203 679.513 505.195 690.187C488.188 700.861 467.167 711.071 445.528 718.433C423.888 725.795 402.267 729.999 382.42 732.165C362.574 734.331 345.156 734.331 324.473 731.928C303.789 729.526 280.366 724.721 260.191 718.643C240.017 712.564 223.801 705.357 206.739 696.239C189.677 687.121 172.26 676.31 156.08 663.534C139.901 650.758 125.486 636.344 113.857 622.312C102.227 608.28 93.819 595.067 86.1843 579.852C78.5495 564.637 71.9431 547.82 67.3385 531.049C62.734 514.278 60.3317 498.063 59.6947 481C59.0577 463.938 60.2589 446.521 64.1809 427.339C68.1029 408.156 74.7094 387.736 82.9174 370.61C91.1255 353.484 100.735 340.271 111.391 328.66C122.047 317.049 133.458 307.439 147.144 298.585C160.83 289.731 176.446 281.923 191.697 275.799C206.948 269.675 221.362 265.471 237.496 262.404C253.63 259.337 271.047 257.536 291.731 257.208C312.415 256.881 335.838 258.082 355.412 260.803C374.986 263.523 390 267.728 405.543 273.197C421.086 278.666 436.701 285.272 450.451 292.579C476.37 306.354 497.579 327.149 516.652 351.646C536.22 376.778 541.949 405.408 543.779 429.604C545.788 456.187 534.742 481.246 521.748 503.031C514.913 514.49 504.549 524.816 492.392 535.49C480.234 546.164 465.82 556.374 451.488 564.637C437.156 572.9 423.342 578.905 404.515 584.101C385.687 589.297 362.264 593.502 341.489 595.667C320.714 597.833 303.297 597.833 283.214 596.031C263.131 594.23 240.909 590.626 220.452 585.166C199.996 579.706 181.978 572.499 164.288 563.381C146.598 554.263 129.782 543.452 114.212 531.277C98.642 519.101 84.8284 505.888 73.2079 491.574C61.5874 477.26 52.5786 462.246 45.5353 447.003C38.4921 431.761 33.6873 416.746 30.9119 401.804C28.1364 386.863 27.5359 372.448 28.4276 356.314C29.3194 340.18 31.7218 322.763 38.3647 302.079C45.0075 281.395 55.8181 257.972 69.7955 237.798C83.7728 217.624 100.589 201.408 117.36 189.451C134.131 177.494 150.347 170.286 167.109 164.472C183.871 158.657 200.688 154.453 218.96 151.686C237.232 148.92 256.451 147.719 275.961 148.001C295.471 148.283 314.69 150.085 336.903 154.016C359.116 157.947 383.74 163.953 405.434 170.951C427.128 177.949 445.145 185.756 462.836 195.184C480.526 204.611 497.342 215.422 511.711 226.396C526.079 237.37 537.491 248.181 547.873 260.357C558.256 272.532 567.265 285.745 574.309 299.759C588.139 327.277 592.308 357.452 592.326 386.198C592.344 414.748 574.818 441.189 554.562 465.103C544.256 477.27 530.102 486.014 515.787 493.067C501.473 500.119 486.459 504.323 467.012 506.789C447.566 509.255 424.143 509.856 402.467 507.763C380.791 505.67 361.573 500.865 341.162 494.186C320.751 487.507 299.73 479.098 279.292 469.061C258.854 459.024 239.635 447.613 221.927 435.729C204.218 423.844 188.603 411.832 174.853 398.438C161.103 385.043 149.692 370.628 141.111 357.497C125.658 333.851 120.354 308.586 120.036 284.071C119.736 261.03 133.021 242.412 148.427 226.978C167.18 208.193 194.845 201.717 219.342 197.167C246.422 192.138 276.708 197.422 307.565 202.855C323.572 205.673 339.624 211.891 355.185 217.979C370.745 224.067 385.159 230.673 400.092 238.881C415.025 247.089 430.04 256.698 444.381 268.255C458.722 279.812 471.935 293.025 483.246 306.438C504.839 332.043 517.052 358.689 524.023 383.195C530.977 407.644 526.225 433.909 517.471 459.325C507.996 486.832 483.838 506.143 458.449 522.787C444.447 531.966 425.854 538.83 410.566 543.753C383.804 552.371 357.678 551.733 332.253 549.322C308.838 547.101 285.48 533.606 262.166 516.972C240.551 501.549 228.387 476.623 217.486 451.517C206.247 425.633 204.673 395.962 204.364 364.213C204.195 346.876 205.856 327.058 208.577 310.542C213.444 281 226.44 256.407 240.954 233.403C255.179 210.858 277.963 196.894 299.148 186.593C318.101 177.377 345.247 176.82 374.622 177.412C397.768 177.878 418.701 190.707 441.997 204.611C454.25 211.925 465.893 222.119 477.186 232.775C488.479 243.431 498.689 254.842 508.153 268.228C517.617 281.614 526.025 296.629 532.458 311.27C538.892 325.912 543.096 339.725 545.862 356.451C548.629 373.176 549.83 392.395 548.647 409.503C547.464 426.611 543.86 441.025 538.401 455.357C532.941 469.689 525.734 483.503 515.414 497.225C493.918 525.812 470.461 543.78 449.623 555.883C437.182 563.108 418.574 567.986 401.484 571.38C384.395 574.774 368.78 575.375 341.817 562.771C314.854 550.168 277.017 524.343 254.222 501.429C231.427 478.516 224.82 459.297 220.816 440.388C216.812 421.478 215.611 403.461 216.194 385.771C216.776 368.08 219.178 351.264 224.019 332.992C228.861 314.719 236.068 295.5 243.684 278.993C257.713 248.589 275.561 226.05 291.904 208.187C306.225 192.535 324.682 179.914 345.857 167.502C367.222 154.979 392.603 151.941 414.716 153.443C430.826 154.537 443.016 167.047 456.93 184.255C465.339 194.655 472.045 211.673 477.868 228.134C489.212 260.197 491.009 290.131 490.108 315.847C489.182 342.286 481.945 368.39 473.482 393.505C464.92 418.916 449.823 440.006 430.804 462.974C419.174 477.018 400.374 493.149 386.888 504.214C365.984 521.367 344.319 528.638 321.315 534.698C301.081 540.029 283.005 538.994 267.872 535.982C252.746 532.971 242.328 519.629 232.646 506.635C220.854 490.808 216.212 469.926 213.482 449.66C210.533 427.772 214.355 405.026 218.587 383.541C222.757 362.369 232.519 341.327 244.913 318.941C258.556 294.299 276.78 275.171 293.115 260.338C309.288 245.651 336.148 233.913 366.723 222.692C391.856 213.47 413.878 219.262 429.621 223.794C443.812 227.879 455.756 239.846 468.168 252.849C480.745 266.025 487.332 284.708 493.393 304.063C499.985 325.118 497.688 351.391 493.174 383.132C490.591 401.298 482.054 422.679 474.138 439.824C466.221 456.968 457.812 468.979 446.874 481.774C435.936 494.568 422.723 507.781 410.211 518.792C387.08 539.148 363.72 552.88 341.635 563.481C320.066 573.834 298.784 574.774 282.14 573.282C264.747 571.722 254.449 556.028 248.389 544.235C234.211 516.646 245.295 482.684 252.229 454.283C256.438 437.042 265.77 415.072 272.804 398.519C284.346 371.358 297.419 352.229 314.636 331.372C337.729 303.396 362.919 285.454 378.662 276.973C391.568 270.02 408.4 267.819 425.972 268.41C438.268 268.824 446.074 282.305 453.645 295.618C460.817 308.231 463.09 322.945 464.91 343.174C467.746 374.693 463.727 404.207 457.394 430.187C448.247 467.706 433.425 496.443 423.142 511.576C403.795 540.049 377.079 554.081 359.725 557.503C350.284 559.364 345.429 543.289 342.099 531.495C338.33 518.151 338.131 496.061 340.233 462.81C341.429 443.894 346.54 421.151 353.21 398.883C359.88 376.616 368.889 355.595 377.434 339.662C392.007 312.486 408.437 296.392 421.75 284.58C433.691 273.986 448.476 269.657 461.489 266.017C473.501 262.657 486.095 267.182 498.498 274.125C528.098 290.695 535.252 319.287 544.024 343.748C549.464 358.914 553.397 380.82 555.272 406.673C557.146 432.526 555.945 461.954 553.524 483.121C551.104 504.287 547.5 516.299 541.74 529.393C529.606 556.978 511.72 579.542 492.374 597.396C470.562 617.526 443.198 625.715 420.803 629.055C399.839 632.181 380.082 625.77 361.327 617.916C340.102 609.029 323.644 591.245 310.022 573.4C296.109 555.175 289.029 531.823 282.968 502.822C279.335 485.437 279.31 461.809 280.193 443.136C281.709 411.05 291.376 388.027 300.749 369.564C309.83 351.675 325.319 339.452 341.644 329.16C360.173 317.479 386.524 315.138 414.06 315.129C441.102 315.12 466.621 322.381 491.427 329.634C518.054 337.419 543.66 352.065 571.178 368.99C586.335 378.313 602.9 390.721 618.47 403.515C634.04 416.31 647.853 429.523 658.573 441.134C677.416 461.545 689.33 483.066 698.721 503.95C706.974 522.303 708.185 541.323 707.294 560.678C706.265 583.001 692.479 600.8 678.875 613.212C664.316 626.495 642.776 631.775 613.492 636.926C594.589 640.251 566.792 640.275 538.146 637.59C509.499 634.906 480.671 628.299 460.715 622.193C429.841 612.746 411.021 598.506 394.669 584.893C379.994 572.677 373.348 554.846 368.798 537.902C364.385 521.469 370.854 503.886 379.317 487.843C387.675 472 402.376 461.991 415.98 452.909C431.269 442.703 455.082 438.914 480.507 435.274C503.331 432.006 524.878 436.438 545.453 442.18C566.56 448.071 585.556 459.461 604.01 471.855C624.348 485.513 639.573 505.524 651.384 524.589C662.158 541.979 666.908 566.147 671.458 592.783C675.547 616.718 668.801 644.988 657.627 676.765C651.97 692.85 641.047 706.74 630.991 718.97C612.07 741.984 589.997 756.716 569.122 767.618C548.649 778.309 522.694 781.632 496.96 784.061C475.525 786.085 455.92 780.467 438.057 773.815C422.306 767.949 409.183 752.621 397.362 735.068C387.551 720.498 389.09 700.461 390.592 680.787C391.994 662.41 404.196 645.243 417.2 628.29C429.834 611.819 450.26 602.128 472.936 593.047C498.941 582.632 527.281 580.853 552.997 580.543C579.354 580.226 604.338 586.877 626.733 595.34C649.011 603.759 667.454 621.402 683.206 639.256C696.724 654.578 700.887 672.98 704.527 688.413C707.944 702.9 703.963 718.479 697.93 734.513C690.938 753.094 673.078 763.414 656.753 770.075C647.849 773.708 636.824 775.535 616.841 776.772C596.858 778.01 568.03 778.01 541.167 775.007C514.304 772.004 490.281 765.998 461.989 756.298C433.698 746.597 401.867 733.384 379.463 722.373C357.059 711.363 345.047 702.954 334.055 694.118C312.811 677.043 292.741 653.178 274.26 626.843C259.22 605.414 257.452 582.163 257.443 561.588C257.434 540.875 267.098 522.086 279.792 505.743C293.439 488.174 319.186 477.77 346.722 468.679C372.825 460.062 401.084 461.336 428.92 462.837C457.078 464.356 483.601 474.64 509.318 484.613C536.674 495.223 558.256 512.822 574.609 529.157C589.947 544.478 596.53 565.583 602.291 586.149C608.53 608.425 602.664 631.102 593.609 650.767C583.049 673.701 557.856 688.158 534.56 699.669C511.995 710.82 483.874 712.473 450.323 714.302C431.215 715.344 407.763 712.527 386.688 709.197C365.613 705.866 347.595 701.062 331.407 695.884C315.218 690.706 301.404 685.301 286.18 678.312C270.956 671.323 254.741 662.915 240.982 654.379C215.62 638.646 196.866 619.163 180.222 597.697C161.674 573.773 152.531 545.782 147.071 522.477C142.148 501.463 148.818 481.446 157.281 463.893C165.807 446.208 182.743 434.091 200.287 424.399C209.121 419.52 219.033 417.11 236.295 415.563C253.558 414.016 278.182 414.016 297.473 415.818C330.282 418.882 355.003 429.741 378.598 441.525C404.994 454.708 423.597 475.204 436.919 493.048C450.366 511.06 454.591 534.626 457.021 557.02C459.307 578.09 451.625 601.946 440.441 626.771C429.956 650.044 409.201 665.7 388.945 680.833C366.394 697.68 337.658 705.175 309.531 711.536C294.737 714.881 278.4 716.095 260.137 717.023C241.873 717.951 222.054 717.951 202.234 716.149C182.415 714.347 163.196 710.744 146.089 706.185C114.144 697.672 88.3046 684.045 66.8107 669.831C46.4063 656.337 31.8492 632.54 18.8182 608.325C7.86827 587.978 8.11681 562.781 8.7083 536.154C9.30694 509.207 22.0032 486.306 35.9077 467.241C50.9016 446.684 72.9258 434.091 93.4915 423.799C104.22 418.43 116.459 414.708 135.86 411.341C155.261 407.974 181.687 405.572 204.009 405.235C226.331 404.898 243.748 406.7 259.327 409.73C288.468 415.399 311.942 426.101 331.916 436.684C351.789 447.214 365.977 463.083 377.479 478.507C389.478 494.597 393.932 516.426 394.55 537.92C395.089 556.642 383.085 572.281 368.88 586.203C352.899 601.867 321.333 608.716 283.814 614.176C265.021 616.911 246.296 616.033 227.396 613.931C208.495 611.829 189.877 607.625 171.277 602.156C152.677 596.687 134.659 590.08 119.371 583.373C104.084 576.667 92.0719 570.06 78.9772 560.051C65.8826 550.041 52.069 536.828 41.95 524.616C24.0161 502.973 15.4331 477.242 8.7629 450.316C5.41259 436.791 5.69625 422.789 6.58804 407.565C7.47982 392.341 9.88218 376.125 15.6242 357.861C21.3662 339.598 30.375 319.779 39.22 304.464C54.6284 277.784 75.3464 260.011 97.7229 244.268C121.609 227.464 151.148 222.338 177.774 218.397C191.13 216.421 204.4 216.259 223.219 217.151C242.037 218.042 266.061 220.445 293.151 226.787C320.241 233.13 349.67 243.34 370.536 251.903C403.53 265.443 424.179 281.086 442.943 298.312C464.046 317.685 470.37 341.746 471.59 357.779C472.854 374.408 463.764 389.683 449.268 402.997C440.947 410.638 427.565 416.31 411.158 420.914C394.751 425.519 374.931 427.921 357.814 428.558C340.698 429.195 326.884 427.994 311.66 425.273C296.436 422.552 280.22 418.348 254.75 408.074C229.279 397.801 195.046 381.585 167.2 365.123C139.355 348.661 118.935 332.446 101.809 316.585C84.6828 300.723 71.4699 285.709 61.3599 271.968C43.1647 247.238 34.2333 220.627 28.1728 193.1C21.8178 164.235 26.2801 135.088 35.6347 107.862C46.2284 77.0286 71.7065 56.7751 94.0829 41.6421C105.847 33.6863 120.063 27.7103 134.686 22.5052C149.31 17.3001 164.325 13.6965 180.167 10.9393C196.01 8.18202 212.226 6.38025 231.691 6.05266C251.155 5.72507 273.377 6.92624 294.134 9.64709C314.89 12.3679 333.509 16.5721 350.007 21.1402C366.505 25.7083 380.318 30.513 394.341 37.1923C408.364 43.8716 422.177 52.2798 434.999 61.4161C447.821 70.5523 459.232 80.1617 470.216 92.3191C493 117.539 506.133 143.952 512.803 164.526C519.218 184.314 512.885 207.032 501.419 229.426C488.178 255.288 455.355 265.944 424.816 273.824C408.35 278.074 388.872 278.101 368.161 277.519C347.45 276.937 325.828 274.534 303.88 269.993C281.931 265.453 260.31 258.846 236.259 249.737C212.208 240.628 186.383 229.217 167.073 219.134C134.831 202.299 114.366 182.972 98.915 165.118C85.8498 150.021 84.5554 130.193 86.6484 109.636C89.3642 82.9622 109.944 62.8356 129.29 49.5135C139.611 42.4063 153.441 38.5937 175.563 36.1185C197.685 33.6434 228.315 33.6434 259.709 38.1478C291.103 42.6522 322.334 51.661 354.038 63.8093C385.742 75.9576 416.972 90.9723 439.067 104.112C461.161 117.253 473.173 128.063 484.166 139.939C495.158 151.814 504.768 164.426 513.622 180.533C522.476 196.64 530.284 215.858 534.906 232.666C543.172 262.72 540.767 291.933 536.544 320.379C534.437 334.577 528.718 347.624 522.339 361.037C515.96 374.45 508.153 387.663 496.623 401.977C485.094 416.291 470.079 431.306 455.738 442.645C441.396 453.983 428.183 461.19 413.869 467.605C399.555 474.021 384.541 479.426 369.599 483.412C354.657 487.398 340.243 489.8 325.31 491.037C310.377 492.275 295.362 492.275 277.417 490.774C259.472 489.272 239.052 486.269 222.227 482.02C192.189 474.433 171.386 459.588 156.244 444.765C142.479 431.29 139.154 413.489 140.347 395.653C141.87 372.863 158.482 354.631 175.417 342.219C193.207 329.18 220.289 324.256 250.546 320.616C265.728 318.789 280.802 319.378 298.147 321.48C315.491 323.582 334.71 327.786 355.721 334.156C376.733 340.526 398.955 348.934 417.309 357.17C435.663 365.405 449.477 373.213 462.599 381.739C488.297 398.437 509.117 419.367 526.371 441.753C543.584 464.086 552.251 491.529 556.2 518.164C559.754 542.136 548.101 563.163 531.785 581.017C522.925 590.712 509.463 598.27 491.254 606.205C473.046 614.14 449.623 621.347 419.539 626.561C389.454 631.775 353.419 634.778 326.147 635.725C298.875 636.671 281.458 635.47 267.38 632.749C253.303 630.028 243.093 625.824 235.431 619.755C227.769 613.685 222.964 605.877 221.39 598.552C219.815 591.227 221.617 584.62 224.047 579.715C226.476 574.811 229.479 571.808 232.573 568.714" fill="none" stroke="url(#cover3-stroke)" stroke-width="12" stroke-linecap="round" stroke-linejoin="round" />
  </g>
</svg>