<svg width="512" height="512" viewBox="0 0 512 512" fill="none" xmlns="http://www.w3.org/2000/svg">
<g clip-path="url(#clip0_29_2)">
<path d="M255.25 -0.375015C256.262 -0.374471 257.274 -0.373927 258.317 -0.373367C274.845 -0.332634 290.779 0.570743 307 3.99999C308.042 4.21961 309.084 4.43923 310.157 4.66551C356.45 14.7631 398.864 37.1223 433 70C433.989 70.9482 433.989 70.9482 434.998 71.9155C444.486 81.06 453.226 90.3573 461 101C461.858 102.151 462.716 103.302 463.574 104.453C469.612 112.643 474.994 121.145 480 130C480.402 130.707 480.804 131.414 481.219 132.143C495.971 158.346 505.506 187.286 510 217C510.176 218.122 510.353 219.245 510.535 220.401C512.192 232.014 512.399 243.532 512.375 255.25C512.374 256.768 512.374 256.768 512.373 258.317C512.332 274.845 511.429 290.779 508 307C507.78 308.042 507.561 309.084 507.334 310.157C498.336 351.409 479.616 389.986 452 422C451.366 422.745 450.731 423.49 450.078 424.258C438.267 437.763 425.516 450.434 411 461C409.85 461.856 408.7 462.713 407.551 463.57C399.361 469.61 390.856 474.994 382 480C381.293 480.402 380.585 480.804 379.857 481.219C353.652 495.972 324.714 505.501 295 510C293.882 510.177 292.764 510.355 291.612 510.537C280.85 512.082 270.21 512.34 259.348 512.316C256.4 512.313 253.452 512.336 250.504 512.361C237.114 512.406 224.202 511.204 211 509C209.863 508.812 208.726 508.624 207.555 508.43C164.287 500.659 123.237 480.671 89.9999 452C89.2548 451.366 88.5097 450.732 87.7421 450.078C74.2371 438.267 61.5657 425.516 50.9999 411C50.1434 409.85 49.2866 408.7 48.4296 407.551C42.3895 399.361 37.0062 390.856 31.9999 382C31.5977 381.293 31.1955 380.586 30.7811 379.857C17.7557 356.722 9.00688 331.55 3.68739 305.562C3.54003 304.844 3.39268 304.125 3.24086 303.384C0.266999 287.738 -0.373114 272.264 -0.31261 256.375C-0.310455 255.357 -0.3083 254.339 -0.306079 253.29C-0.256409 238.681 -0.00551176 224.349 2.99989 210C3.19857 209.025 3.39724 208.05 3.60194 207.046C13.7226 158.664 35.6391 114.676 69.9999 79C70.632 78.3406 71.2641 77.6813 71.9154 77.0019C81.0599 67.5137 90.3572 58.7738 101 51C102.151 50.1419 103.302 49.2839 104.453 48.4258C112.644 42.3876 121.158 37.029 130 32C130.632 31.6355 131.263 31.271 131.914 30.8955C158 15.9653 187.336 6.48613 217 1.99998C218.122 1.82338 219.245 1.64678 220.401 1.46483C232.014 -0.192073 243.532 -0.39875 255.25 -0.375015Z" fill="#55D37B"/>
<path d="M89.9999 60C92.7032 63.2314 94.0602 66.4558 95.5624 70.375C101.97 86.069 113.394 97.3862 126.414 107.871C138.291 117.649 138.291 117.649 139.277 125.094C139.507 130.471 138.93 135.407 136 140C132.902 143.307 129.532 146.168 126 149C125.232 149.616 124.463 150.232 123.672 150.867C120.76 153.121 118.518 154.827 115 156C113.941 157.846 113.941 157.846 113 160C112.062 161.369 111.093 162.717 110.101 164.047C109.539 164.81 108.977 165.573 108.398 166.359C107.226 167.939 106.052 169.517 104.875 171.094C96.8811 181.971 93.3385 191.377 94.9999 205C96.6565 213.627 98.9309 222.118 101.141 230.617C101.886 233.55 102.574 236.484 103.215 239.441C103.384 240.218 103.553 240.994 103.727 241.793C104.151 243.766 104.566 245.74 104.98 247.715C106.485 252.562 108.539 256.004 112.75 258.875C116.93 260.322 119.578 260.421 124 260C126.818 258.611 126.818 258.611 129 257C129.66 257 130.32 257 131 257C132.863 252.405 134.14 248.936 133.879 243.949C133.83 242.947 133.781 241.944 133.731 240.912C133.675 239.848 133.62 238.784 133.562 237.688C133.464 235.507 133.368 233.326 133.273 231.145C133.084 226.872 133.084 226.872 132.884 222.599C132.366 211.202 132.366 211.202 134.625 207.312C138.099 203.93 141.097 202.331 145.875 201.5C150.603 202.257 153.556 203.638 157 207C158.417 209.654 158.417 209.654 159.742 212.898C159.991 213.501 160.239 214.104 160.495 214.725C164.561 224.681 168.362 234.751 172.192 244.799C173.228 247.515 174.273 250.226 175.32 252.938C175.631 253.759 175.941 254.581 176.261 255.428C178.066 260.081 180.166 263.903 183 268C183 268.66 183 269.32 183 270C187.796 272.473 192.804 274.379 197.812 276.375C198.892 276.808 199.971 277.242 201.083 277.688C207.498 280.252 213.934 282.737 220.406 285.152C222.517 285.946 224.627 286.741 226.737 287.536C228.114 288.051 229.493 288.561 230.874 289.064C232.824 289.776 234.766 290.505 236.707 291.238C237.826 291.651 238.944 292.064 240.097 292.49C243.412 294.214 244.996 295.866 247 299C247.1 303.889 245.425 307.383 243.437 311.812C240.362 318.953 239.729 324.922 242.312 332.312C243.038 334.149 243.038 334.149 244 336C244.398 336.811 244.797 337.622 245.207 338.457C247.436 341.619 250.155 343.358 253.375 345.375C261.458 350.709 265.384 355.783 267.533 365.381C272.426 389.731 271.878 408.817 260.091 430.949C258.231 434.447 256.423 437.97 254.625 441.5C254.125 442.451 254.125 442.451 253.614 443.422C249.469 451.533 248.676 458.945 248.75 467.938C248.742 468.875 248.734 469.813 248.726 470.779C248.764 484.343 252.776 497.314 260.863 508.293C262 510 262 510 262 512C244.722 512.356 228.048 512.148 211 509C210.097 508.839 209.194 508.678 208.263 508.512C164.65 500.546 123.565 480.954 89.9999 452C89.2548 451.366 88.5097 450.732 87.7421 450.078C74.2371 438.267 61.5657 425.516 50.9999 411C50.1434 409.85 49.2866 408.7 48.4296 407.551C42.3895 399.361 37.0062 390.856 31.9999 382C31.5977 381.293 31.1955 380.586 30.7811 379.857C17.7557 356.722 9.00688 331.55 3.68739 305.562C3.54003 304.844 3.39268 304.125 3.24086 303.384C0.266999 287.738 -0.373114 272.264 -0.31261 256.375C-0.310455 255.357 -0.3083 254.339 -0.306079 253.29C-0.256409 238.681 -0.00551176 224.349 2.99989 210C3.19857 209.025 3.39724 208.05 3.60194 207.046C14.853 153.26 40.4944 108.587 78.9999 69.875C79.7426 69.1276 80.4852 68.3802 81.2504 67.6101C81.9515 66.9112 82.6526 66.2123 83.3749 65.4922C84.0014 64.8668 84.6279 64.2415 85.2733 63.5972C86.9999 62 86.9999 62 89.9999 60Z" fill="#A6DFF4"/>
<path d="M453 93C453.66 93 454.32 93 455 93C456.889 95.23 458.643 97.4644 460.375 99.8125C460.907 100.53 461.438 101.248 461.986 101.988C486.946 136.155 503.66 175.08 510 217C510.177 218.122 510.353 219.245 510.535 220.401C512.192 232.014 512.399 243.532 512.375 255.25C512.374 256.768 512.374 256.768 512.373 258.317C512.333 274.845 511.429 290.779 508 307C507.78 308.042 507.561 309.084 507.334 310.157C499.31 346.945 483.538 380.879 461 411C460.558 411.594 460.116 412.189 459.661 412.801C454.523 419.645 454.523 419.645 452 422C448 422 448 422 445.519 419.762C444.605 418.748 443.703 417.722 442.812 416.688C442.33 416.145 441.849 415.602 441.352 415.043C437.507 410.682 433.838 406.179 430.176 401.664C418.836 387.78 407.542 379.982 390.437 374.562C374.368 369.397 362.567 358.957 354.461 344.198C352.991 341.311 351.555 338.408 350.125 335.5C343.352 322.158 335.76 313.186 322.812 305.5C317.818 302.449 314.276 298.454 312 293C310.892 285.003 312.803 278.68 316 271.438C319.031 264.54 321.036 258.621 320 251C318.122 246.87 316.673 245.388 312.75 243.125C307.742 241.623 303.758 240.708 298.949 242.961C293.396 246.474 288.447 250.889 283.517 255.216C276.879 261 276.879 261 271.562 261C267.124 259.754 265.474 257.695 263 254C260.829 250.113 258.877 246.131 256.937 242.125C256.421 241.074 255.905 240.024 255.373 238.941C254.368 236.897 253.368 234.85 252.371 232.802C251.163 230.334 249.933 227.88 248.691 225.43C245.494 218.947 245.177 213.147 246 206C247.484 201.979 249.69 198.596 252 195C252.691 193.781 253.374 192.559 254.051 191.332C261.806 177.454 271.964 166.224 287.676 161.59C312.25 155.353 329.57 162.487 351 174C352.285 174.767 353.568 175.539 354.848 176.316C360.366 179.263 365.494 178.743 371.375 177C375.025 174.219 376.755 171.409 378 167C378.604 160.067 375.798 155.526 372 150C369.566 145.48 369.336 141.028 370 136C371.879 129.813 375.677 125.569 381 122C384.848 120.717 388.497 120.845 392.508 120.824C394.234 120.801 395.961 120.777 397.687 120.752C400.399 120.717 403.111 120.688 405.823 120.674C408.448 120.658 411.071 120.618 413.695 120.574C414.492 120.576 415.29 120.578 416.111 120.58C424.279 120.405 431.153 117.41 437.18 111.902C441.067 107.84 444.518 103.409 448 99C449.625 96.942 451.253 94.9583 453 93Z" fill="#A6DFF4"/>
<path d="M89.9999 60C92.7656 63.3042 94.2201 66.7001 95.8124 70.6875C98.2451 76.6182 101.166 81.8605 105 87C101.749 91.449 98.3818 95.739 94.8124 99.9375C64.5217 136.795 48.1711 184.128 42.9999 231C42.8574 232.165 42.8574 232.165 42.712 233.354C40.6145 251.683 41.2981 270.765 43.9999 289C44.1341 289.937 44.2683 290.873 44.4066 291.838C46.3538 305.181 48.8709 318.155 52.9999 331C53.2564 331.799 53.5129 332.597 53.7772 333.42C69.2274 380.768 97.8959 425.715 138 456C138.651 456.506 139.302 457.011 139.973 457.532C175.527 485.12 216.735 501.861 261 509C261.33 509.99 261.66 510.98 262 512C244.722 512.356 228.048 512.148 211 509C210.097 508.839 209.194 508.678 208.263 508.512C164.65 500.546 123.565 480.954 89.9999 452C89.2548 451.366 88.5097 450.732 87.7421 450.078C74.2371 438.267 61.5657 425.516 50.9999 411C50.1434 409.85 49.2866 408.7 48.4296 407.551C42.3895 399.361 37.0062 390.856 31.9999 382C31.5977 381.293 31.1955 380.586 30.7811 379.857C17.7557 356.722 9.00688 331.55 3.68739 305.562C3.54003 304.844 3.39268 304.125 3.24086 303.384C0.266999 287.738 -0.373114 272.264 -0.31261 256.375C-0.310455 255.357 -0.3083 254.339 -0.306079 253.29C-0.256409 238.681 -0.00551176 224.349 2.99989 210C3.19857 209.025 3.39724 208.05 3.60194 207.046C14.853 153.26 40.4944 108.587 78.9999 69.875C79.7426 69.1276 80.4852 68.3802 81.2504 67.6101C81.9515 66.9112 82.6526 66.2123 83.3749 65.4922C84.0014 64.8668 84.6279 64.2415 85.2733 63.5972C86.9999 62 86.9999 62 89.9999 60Z" fill="#5AC2E7"/>
<path d="M255.5 -0.124943C257.499 -0.114883 259.497 -0.105762 261.496 -0.0975991C266.331 -0.0758481 271.165 -0.0414884 276 5.71758e-05C276 0.330057 276 0.660057 276 1.00006C275.277 1.08981 274.555 1.17956 273.81 1.27203C231.121 6.6857 188.223 19.3192 153 45.0001C152.399 45.434 151.798 45.8679 151.179 46.315C125.451 63.8168 125.451 63.8168 106 87.0001C105.34 87.0001 104.68 87.0001 104 87.0001C90.2029 68.1167 90.2029 68.1167 91.2585 60.0159C92.1543 57.5802 93.0968 56.7534 95.1483 55.1876C96.1468 54.4196 96.1468 54.4196 97.1654 53.636C97.8946 53.0962 98.6237 52.5563 99.3749 52.0001C100.513 51.1467 100.513 51.1467 101.674 50.2762C135.742 25.107 175.066 8.35858 217 2.00006C218.119 1.82056 219.239 1.64105 220.392 1.45611C232.106 -0.239041 243.683 -0.229619 255.5 -0.124943Z" fill="#02A62E"/>
<path d="M239 72C241.2 73.3485 243.134 74.8298 245.105 76.4922C248.926 79.5327 251.904 80.3971 256.852 80.25C262.056 79.6444 266.236 77.8851 270.062 74.3125C273 72 273 72 276.625 71.4375C280 72 280 72 282.438 73.5625C284.69 77.0757 284.766 78.893 284 83C280.236 88.4352 274.996 91.5193 269 94C268.254 94.3571 267.507 94.7141 266.738 95.082C258.799 97.7435 247.856 97.0712 240.328 93.4609C234.522 89.8176 228.713 86.1059 227.125 79.1875C228.942 72.57 232.285 70.8808 239 72Z" fill="#42404F"/>
<path d="M176 58C178.188 59.3438 178.188 59.3438 180 62C180.602 65.6738 180.558 69.2852 180.5 73C180.515 73.9978 180.531 74.9955 180.547 76.0235C180.508 83.2565 180.508 83.2565 178.188 86.6524C174.918 88.6668 172.753 88.6033 169 88C166.446 85.8106 165.171 84.0384 164.619 80.6853C164.461 77.9249 164.455 75.2019 164.5 72.4375C164.485 71.492 164.469 70.5465 164.453 69.5723C164.492 62.735 164.492 62.735 166.812 59.3789C170.046 57.3405 172.262 57.4661 176 58Z" fill="#423F4F"/>
<path d="M343 58C345.184 59.3789 345.184 59.3789 347 62C347.624 65.4865 347.603 68.9037 347.562 72.4375C347.586 73.3792 347.61 74.3208 347.635 75.291C347.625 79.9866 347.54 82.2801 344.656 86.125C342 88 342 88 338.938 88.5625C335.126 87.8326 334.23 87.2008 332 84C331.395 80.327 331.442 76.7145 331.5 73C331.485 72.0023 331.469 71.0045 331.453 69.9766C331.492 62.7446 331.492 62.7446 333.812 59.3438C337.052 57.3535 339.28 57.4686 343 58Z" fill="#423F4F"/>
<path d="M98 53C98.66 53.33 99.32 53.66 100 54C97.36 56.64 94.72 59.28 92 62C91.67 61.01 91.34 60.02 91 59C93.31 57.02 95.62 55.04 98 53Z" fill="#14B141"/>
</g>
<defs>
<clipPath id="clip0_29_2">
<rect width="512" height="512" fill="white"/>
</clipPath>
</defs>
</svg>
