<?xml version="1.0" encoding="UTF-8"?>
<svg xmlns="http://www.w3.org/2000/svg" width="512" height="512" viewBox="0 0 512 512">
  <rect width="100%" height="100%" fill="#000"/>
  <g>
    <path d="M 256.00 256.00 C 254.02 257.43 249.34 262.80 244.14 264.59 C 238.95 266.37 230.58 266.64 224.82 266.73 C 219.05 266.81 213.89 266.32 209.56 265.09 C 205.22 263.85 202.56 261.92 198.81 259.31 C 195.06 256.70 189.84 253.61 187.05 249.43 C 184.26 245.25 183.36 239.18 182.04 234.21 C 180.73 229.24 179.90 224.68 179.16 219.59 C 178.42 214.50 177.78 209.01 177.61 203.68 C 177.44 198.34 176.81 193.12 178.14 187.57 C 179.47 182.03 183.72 175.15 185.59 170.38 C 187.47 165.62 186.97 163.07 189.40 158.99 C 191.83 154.91 197.22 150.01 200.16 145.89 C 203.11 141.78 204.90 137.58 207.07 134.29 C 209.24 130.99 210.86 129.29 213.19 126.14 C 215.53 122.98 217.81 118.92 221.08 115.37 C 224.34 111.82 229.21 107.26 232.79 104.83 C 236.37 102.41 238.43 102.53 242.55 100.82 C 246.68 99.11 252.59 95.97 257.53 94.58 C 262.47 93.20 266.86 92.02 272.21 92.52 C 277.55 93.01 284.38 95.27 289.58 97.57 C 294.78 99.87 298.67 102.19 303.42 106.32 C 308.17 110.45 313.60 116.41 318.08 122.36 C 322.56 128.31 327.65 135.62 330.29 142.03 C 332.94 148.44 333.59 154.06 333.95 160.82 C 334.31 167.58 334.18 175.30 332.45 182.58 C 330.71 189.86 326.69 197.98 323.54 204.50 C 320.39 211.02 318.00 216.81 313.55 221.70 C 309.10 226.59 303.14 230.77 296.83 233.83 C 290.52 236.88 282.46 238.22 275.70 240.04 C 268.95 241.86 262.40 243.94 256.30 244.72 C 250.21 245.50 244.54 246.09 239.13 244.70 C 233.73 243.31 227.98 240.25 223.89 236.37 C 219.80 232.50 216.88 225.83 214.59 221.46 C 212.29 217.09 210.50 214.98 210.12 210.17 C 209.73 205.36 211.17 198.01 212.27 192.62 C 213.38 187.23 214.62 181.98 216.74 177.82 C 218.86 173.67 221.06 170.90 224.98 167.70 C 228.90 164.51 235.07 160.15 240.25 158.65 C 245.42 157.16 250.23 157.76 256.03 158.75 C 261.83 159.74 269.25 162.10 275.05 164.60 C 280.86 167.11 285.85 169.48 290.86 173.77 C 295.87 178.05 301.62 184.11 305.11 190.33 C 308.61 196.54 310.74 204.57 311.82 211.06 C 312.91 217.56 312.64 222.68 311.62 229.30 C 310.59 235.92 309.02 244.75 305.66 250.78 C 302.31 256.82 296.58 261.77 291.49 265.51 C 286.41 269.24 281.72 271.49 275.13 273.20 C 268.54 274.92 258.95 276.29 251.93 275.80 C 244.92 275.31 238.58 273.73 233.04 270.28 C 227.51 266.84 222.38 259.78 218.73 255.13 C 215.07 250.48 212.36 247.37 211.10 242.38 C 209.83 237.38 210.30 230.70 211.11 225.14 C 211.93 219.58 214.20 213.70 215.96 209.04 C 217.72 204.39 217.91 200.70 221.66 197.22 C 225.41 193.73 232.52 190.33 238.48 188.15 C 244.44 185.96 251.69 183.86 257.43 184.12 C 263.17 184.38 267.62 187.10 272.91 189.70 C 278.19 192.30 284.29 195.37 289.16 199.73 C 294.02 204.09 299.09 210.15 302.09 215.84 C 305.09 221.53 306.55 228.00 307.15 233.85 C 307.75 239.69 307.11 244.76 305.71 250.92 C 304.31 257.09 302.86 264.75 298.74 270.85 C 294.62 276.94 286.62 284.07 280.99 287.49 C 275.36 290.91 270.63 290.42 264.96 291.36 C 259.29 292.29 252.91 293.19 246.97 293.11 C 241.02 293.04 234.30 292.13 229.30 290.93 C 224.29 289.73 221.52 288.17 216.94 285.92 C 212.36 283.68 206.73 280.90 201.80 277.46 C 196.88 274.01 192.05 268.73 187.38 265.25 C 182.71 261.78 177.85 259.23 173.80 256.61 C 169.74 253.99 166.89 252.36 163.04 249.53 C 159.19 246.71 154.66 242.31 150.69 239.66 C 146.72 237.00 142.64 235.66 139.21 233.62 C 135.78 231.59 132.74 229.79 130.13 227.43 C 127.51 225.07 126.05 222.87 123.53 219.45 C 121.01 216.03 117.34 210.10 114.99 206.92 C 112.64 203.75 111.76 203.49 109.43 200.39 C 107.09 197.30 102.53 192.35 100.99 188.34 C 99.44 184.33 101.02 180.01 100.15 176.34 C 99.28 172.67 97.09 169.00 95.78 166.33 C 94.47 163.67 92.92 162.70 92.27 160.35 C 91.62 158.00 92.96 154.86 91.88 152.23 C 90.81 149.60 87.25 146.64 85.85 144.58 C 84.45 142.52 84.67 141.21 83.49 139.87 C 82.30 138.54 80.49 137.79 78.74 136.57 C 76.99 135.34 74.22 133.81 72.97 132.53 C 71.72 131.25 72.29 129.92 71.25 128.87 C 70.21 127.83 67.90 127.78 66.76 126.29 C 65.62 124.79 65.08 122.52 64.39 119.93 C 63.70 117.34 63.27 113.03 62.61 110.72 C 61.96 108.41 60.78 107.66 60.46 106.06 C 60.13 104.45 60.43 103.18 60.67 101.09 C 60.90 98.99 61.65 95.90 61.87 93.50 C 62.08 91.11 61.85 89.12 61.98 86.72 C 62.10 84.32 62.34 81.00 62.62 79.11 C 62.91 77.23 63.37 76.33 63.70 75.42 C 64.04 74.52 64.95 74.27 64.63 73.66 C 64.32 73.05 63.40 72.08 61.81 71.78 C 60.23 71.49 57.50 70.89 55.14 71.87 C 52.78 72.86 49.83 75.07 47.64 77.69 C 45.45 80.31 44.00 83.87 42.00 87.58 C 39.99 91.29 37.37 94.78 35.62 99.95 C 33.86 105.11 32.43 112.73 31.45 118.56 C 30.47 124.39 30.76 128.73 29.74 134.93 C 28.72 141.13 26.22 149.59 25.32 155.78 C 24.42 161.98 24.55 166.68 24.35 172.11 C 24.15 177.54 24.24 183.28 24.15 188.37 C 24.05 193.45 23.91 198.12 23.78 202.60 C 23.66 207.09 24.18 211.73 23.39 215.27 C 22.60 218.80 20.27 221.29 19.03 223.81 C 17.78 226.32 16.48 227.57 15.91 230.34 C 15.35 233.12 16.28 236.57 15.64 240.47 C 15.00 244.36 12.86 250.19 12.08 253.69 C 11.30 257.19 10.49 257.26 10.98 261.46 C 11.47 265.67 13.68 273.69 15.00 278.91 C 16.31 284.14 17.08 288.41 18.87 292.81 C 20.65 297.21 22.59 300.31 25.69 305.31 C 28.80 310.31 33.11 317.21 37.51 322.81 C 41.92 328.42 46.66 334.15 52.13 338.95 C 57.59 343.76 64.70 347.75 70.32 351.65 C 75.94 355.55 80.07 359.23 85.84 362.36 C 91.61 365.49 98.42 367.47 104.93 370.41 C 111.44 373.34 118.85 377.38 124.90 379.97 C 130.95 382.56 135.16 384.09 141.21 385.97 C 147.26 387.85 154.32 389.94 161.18 391.25 C 168.03 392.55 176.19 392.93 182.32 393.82 C 188.46 394.70 192.61 395.06 197.97 396.55 C 203.32 398.03 208.95 400.87 214.46 402.75 C 219.96 404.63 226.07 405.58 231.00 407.83 C 235.93 410.09 240.31 413.99 244.05 416.30 C 247.78 418.60 250.60 419.65 253.42 421.66 C 256.24 423.66 258.71 425.68 260.97 428.34 C 263.23 430.99 265.40 434.86 267.01 437.60 C 268.61 440.35 269.92 442.09 270.60 444.79 C 271.27 447.49 270.85 451.30 271.04 453.82 C 271.23 456.34 272.30 458.26 271.74 459.93 C 271.18 461.61 269.66 462.42 267.69 463.89 C 265.72 465.36 261.86 467.32 259.92 468.74 C 257.99 470.16 257.19 471.34 256.10 472.40 C 255.02 473.46 254.35 473.80 253.41 475.11 C 252.47 476.42 251.20 478.24 250.47 480.24 C 249.74 482.24 248.54 485.64 249.04 487.11 C 249.53 488.58 252.00 488.35 253.43 489.04 C 254.87 489.73 255.23 490.53 257.65 491.24 C 260.06 491.96 263.79 493.63 267.91 493.33 C 272.04 493.03 277.96 491.29 282.40 489.42 C 286.84 487.56 289.57 485.34 294.56 482.13 C 299.54 478.93 307.02 474.53 312.30 470.17 C 317.58 465.81 321.66 461.58 326.25 455.98 C 330.84 450.37 335.93 443.04 339.84 436.55 C 343.75 430.06 346.89 424.69 349.72 417.05 C 352.55 409.41 355.65 399.06 356.82 390.72 C 358.00 382.37 357.06 374.51 356.77 366.96 C 356.47 359.41 356.58 353.26 355.07 345.42 C 353.57 337.57 351.02 328.01 347.73 319.90 C 344.44 311.80 339.97 302.91 335.35 296.78 C 330.73 290.65 326.16 287.46 320.00 283.12 C 313.84 278.77 305.22 274.01 298.39 270.71 C 291.57 267.41 285.65 264.13 279.04 263.33 C 272.43 262.52 264.52 263.92 258.74 265.88 C 252.96 267.84 248.36 270.47 244.38 275.07 C 240.40 279.67 236.71 288.00 234.87 293.48 C 233.02 298.95 233.09 303.40 233.31 307.93 C 233.54 312.46 233.78 316.98 236.21 320.66 C 238.64 324.35 243.33 327.21 247.88 330.04 C 252.44 332.88 258.59 336.38 263.54 337.69 C 268.48 339.00 272.05 338.10 277.56 337.91 C 283.06 337.72 290.79 338.16 296.58 336.54 C 302.38 334.93 307.34 331.19 312.32 328.24 C 317.30 325.29 322.04 322.40 326.49 318.85 C 330.93 315.30 335.02 310.57 338.98 306.96 C 342.94 303.36 346.59 299.85 350.24 297.24 C 353.90 294.62 357.82 293.10 360.91 291.29 C 364.00 289.48 365.47 287.44 368.81 286.36 C 372.15 285.28 376.71 285.75 380.95 284.80 C 385.18 283.85 390.91 281.16 394.23 280.66 C 397.55 280.16 398.34 280.49 400.88 281.79 C 403.42 283.09 407.18 285.22 409.46 288.47 C 411.74 291.72 413.57 296.58 414.57 301.31 C 415.56 306.04 415.71 312.78 415.46 316.87 C 415.21 320.96 414.82 322.33 413.08 325.87 C 411.34 329.41 407.30 333.82 405.03 338.11 C 402.75 342.40 401.20 347.38 399.41 351.62 C 397.62 355.86 396.32 359.29 394.29 363.56 C 392.25 367.82 389.17 373.20 387.22 377.21 C 385.27 381.21 383.86 384.38 382.58 387.58 C 381.31 390.79 380.47 393.07 379.58 396.45 C 378.70 399.82 378.56 404.31 377.26 407.84 C 375.96 411.37 374.06 414.57 371.77 417.64 C 369.49 420.71 365.64 423.52 363.53 426.29 C 361.42 429.05 361.47 431.59 359.11 434.23 C 356.76 436.87 353.02 439.77 349.42 442.12 C 345.81 444.47 341.55 446.74 337.49 448.31 C 333.42 449.87 328.79 450.28 325.04 451.50 C 321.30 452.73 317.89 453.60 315.04 455.65 C 312.19 457.70 309.89 461.65 307.95 463.79 C 306.02 465.92 305.04 466.66 303.45 468.45 C 301.86 470.23 299.19 472.41 298.42 474.49 C 297.64 476.56 297.72 478.85 298.83 480.88 C 299.93 482.92 303.04 485.26 305.02 486.69 C 307.00 488.12 308.05 488.94 310.71 489.46 C 313.37 489.97 317.53 490.42 320.97 489.77 C 324.41 489.12 327.57 486.76 331.36 485.56 C 335.15 484.36 339.36 484.76 343.72 482.57 C 348.07 480.38 352.85 476.62 357.49 472.44 C 362.13 468.27 367.85 462.72 371.55 457.54 C 375.25 452.37 377.02 447.36 379.70 441.39 C 382.39 435.42 384.77 428.80 387.66 421.73 C 390.54 414.66 394.83 407.42 396.99 398.98 C 399.15 390.55 400.48 379.22 400.61 371.12 C 400.74 363.01 400.08 357.82 397.78 350.38 C 395.48 342.93 390.52 334.36 386.82 326.45 C 383.11 318.53 379.50 309.95 375.56 302.89 C 371.62 295.83 367.15 290.64 363.18 284.07 C 359.21 277.50 355.17 270.23 351.75 263.49 C 348.32 256.74 345.45 249.25 342.63 243.62 C 339.82 238.00 336.86 234.67 334.86 229.74 C 332.86 224.81 331.17 219.61 330.63 214.06 C 330.10 208.51 332.03 202.05 331.63 196.45 C 331.23 190.85 329.08 185.38 328.24 180.44 C 327.39 175.51 327.61 171.23 326.59 166.85 C 325.58 162.48 323.81 158.33 322.15 154.21 C 320.49 150.10 318.65 145.63 316.64 142.17 C 314.62 138.71 313.07 137.12 310.05 133.45 C 307.03 129.79 302.88 123.38 298.52 120.18 C 294.15 116.98 288.72 115.90 283.85 114.28 C 278.98 112.66 275.01 110.20 269.30 110.47 C 263.58 110.74 255.71 113.54 249.57 115.89 C 243.43 118.24 237.96 121.05 232.46 124.56 C 226.96 128.08 220.71 132.00 216.57 136.99 C 212.43 141.98 210.30 148.20 207.65 154.48 C 205.00 160.76 202.84 167.45 200.68 174.66 C 198.52 181.87 196.32 190.56 194.70 197.75 C 193.08 204.94 192.17 211.17 190.97 217.80 C 189.78 224.42 188.51 230.59 187.53 237.49 C 186.54 244.39 185.86 253.36 185.09 259.18 C 184.31 264.99 184.58 267.52 182.86 272.40 C 181.15 277.29 177.06 283.74 174.80 288.48 C 172.54 293.21 172.04 297.29 169.30 300.82 C 166.57 304.34 161.79 307.94 158.42 309.60 C 155.04 311.26 152.57 311.33 149.05 310.78 C 145.53 310.23 141.32 308.47 137.32 306.30 C 133.32 304.14 128.14 300.82 125.04 297.78 C 121.94 294.74 120.75 292.26 118.74 288.06 C 116.73 283.87 114.82 277.68 112.99 272.61 C 111.16 267.55 109.19 261.99 107.78 257.69 C 106.36 253.39 105.37 250.92 104.50 246.82 C 103.63 242.71 103.69 237.53 102.57 233.09 C 101.45 228.64 99.19 223.84 97.79 220.15 C 96.38 216.46 95.14 213.98 94.13 210.95 C 93.12 207.91 92.47 206.11 91.70 201.94 C 90.92 197.76 89.95 190.59 89.48 185.92 C 89.00 181.24 88.52 177.47 88.86 173.88 C 89.19 170.28 90.42 168.27 91.47 164.34 C 92.51 160.40 93.51 154.46 95.11 150.26 C 96.71 146.06 98.65 142.53 101.05 139.13 C 103.46 135.73 106.26 133.53 109.55 129.86 C 112.85 126.19 118.02 120.55 120.82 117.12 C 123.63 113.70 124.15 112.15 126.41 109.31 C 128.67 106.48 132.31 103.04 134.37 100.11 C 136.42 97.18 137.22 94.25 138.75 91.75 C 140.28 89.25 141.80 87.63 143.53 85.12 C 145.26 82.60 147.81 79.19 149.14 76.67 C 150.46 74.15 150.26 72.66 151.48 69.98 C 152.69 67.31 154.83 63.28 156.43 60.60 C 158.04 57.93 159.67 55.97 161.12 53.93 C 162.57 51.89 163.21 50.54 165.15 48.35 C 167.08 46.16 170.27 43.23 172.74 40.78 C 175.21 38.34 177.65 36.34 179.96 33.66 C 182.26 30.99 184.66 27.10 186.57 24.73 C 188.49 22.36 189.73 21.27 191.47 19.44 C 193.20 17.61 195.17 15.09 197.00 13.72 C 198.83 12.35 201.47 11.98 202.46 11.22 C 203.44 10.46 202.79 10.94 202.91 9.15 C 203.04 7.35 204.02 -1.71 203.22 0.45 C 202.41 2.61 199.39 13.63 198.08 22.12 C 196.77 30.61 195.77 41.49 195.37 51.39 C 194.97 61.29 195.48 71.20 195.67 81.51 C 195.86 91.82 196.06 103.08 196.50 113.26 C 196.94 123.43 197.84 133.94 198.29 142.53 C 198.74 151.13 198.83 156.82 199.22 164.82 C 199.60 172.81 200.75 182.51 200.58 190.48 C 200.41 198.45 199.30 206.32 198.20 212.64 C 197.10 218.96 196.43 222.51 193.98 228.40 C 191.54 234.28 187.24 242.28 183.51 247.92 C 179.77 253.56 175.20 258.69 171.56 262.23 C 167.92 265.77 165.56 267.88 161.69 269.15 C 157.82 270.41 152.72 270.29 148.35 269.84 C 143.99 269.38 139.56 267.92 135.49 266.39 C 131.42 264.87 127.49 262.78 123.92 260.70 C 120.35 258.62 117.06 256.18 114.05 253.93 C 111.04 251.68 108.91 249.17 105.85 247.19 C 102.79 245.22 98.60 242.56 95.70 242.10 C 92.79 241.64 90.97 243.56 88.42 244.42 C 85.88 245.27 82.70 246.29 80.43 247.24 C 78.15 248.18 77.18 249.20 74.77 250.08 C 72.36 250.95 68.54 250.92 65.96 252.49 C 63.37 254.07 61.42 258.60 59.26 259.53 C 57.11 260.47 55.27 258.02 53.01 258.11 C 50.75 258.21 47.65 259.85 45.73 260.09 C 43.80 260.34 42.70 260.81 41.47 259.61 C 40.23 258.40 39.61 255.22 38.32 252.89 C 37.03 250.56 34.48 248.53 33.73 245.63 C 32.97 242.73 33.44 239.06 33.77 235.46 C 34.11 231.86 34.25 228.02 35.72 224.01 C 37.20 220.00 40.60 215.89 42.63 211.38 C 44.66 206.87 45.62 202.24 47.89 196.94 C 50.17 191.65 53.73 185.11 56.30 179.63 C 58.88 174.15 61.39 168.93 63.35 164.07 C 65.31 159.21 66.71 154.43 68.08 150.48 C 69.45 146.54 70.43 143.50 71.57 140.39 C 72.71 137.27 74.38 135.19 74.90 131.82 C 75.43 128.46 75.34 123.02 74.72 120.19 C 74.10 117.36 72.85 115.91 71.18 114.85 C 69.52 113.79 66.23 114.24 64.74 113.83 C 63.25 113.43 63.36 113.14 62.24 112.42 C 61.12 111.70 59.65 110.13 58.04 109.52 C 56.43 108.90 53.74 109.30 52.59 108.74 C 51.44 108.19 51.27 107.52 51.13 106.19 C 50.99 104.86 51.43 102.58 51.74 100.75 C 52.05 98.91 52.47 97.22 53.01 95.16 C 53.54 93.10 53.24 90.31 54.97 88.39 C 56.70 86.47 60.73 85.68 63.38 83.64 C 66.03 81.60 67.43 78.77 70.87 76.17 C 74.30 73.56 78.93 70.09 84.00 68.00 C 89.07 65.92 95.58 64.80 101.28 63.67 C 106.98 62.54 112.17 62.67 118.21 61.22 C 124.26 59.77 131.82 56.78 137.55 54.98 C 143.28 53.18 147.18 51.91 152.61 50.41 C 158.04 48.91 164.99 47.19 170.13 46.00 C 175.26 44.81 179.15 43.82 183.42 43.29 C 187.70 42.75 192.08 44.21 195.76 42.78 C 199.44 41.36 202.50 36.39 205.49 34.72 C 208.48 33.06 211.77 34.18 213.70 32.81 C 215.62 31.44 216.76 28.31 217.04 26.51 C 217.32 24.70 216.64 23.01 215.40 21.98 C 214.16 20.94 212.87 20.38 209.60 20.30 C 206.33 20.21 200.33 20.28 195.78 21.47 C 191.24 22.67 186.51 25.02 182.30 27.46 C 178.09 29.91 174.34 33.19 170.52 36.16 C 166.71 39.14 163.32 40.80 159.40 45.34 C 155.49 49.88 151.03 57.42 147.02 63.41 C 143.02 69.40 138.49 75.73 135.37 81.28 C 132.24 86.84 130.39 90.58 128.26 96.74 C 126.12 102.89 124.50 110.60 122.57 118.20 C 120.63 125.79 117.55 134.73 116.65 142.32 C 115.75 149.90 117.15 156.19 117.17 163.70 C 117.19 171.22 117.00 180.12 116.78 187.42 C 116.55 194.71 116.39 200.58 115.82 207.46 C 115.24 214.34 114.09 223.06 113.33 228.69 C 112.58 234.31 112.18 237.24 111.28 241.22 C 110.38 245.19 109.00 248.21 107.94 252.56 C 106.89 256.90 106.00 263.73 104.95 267.29 C 103.90 270.86 102.82 270.91 101.67 273.94 C 100.52 276.97 99.20 280.49 98.07 285.47 C 96.93 290.46 95.46 299.08 94.85 303.84 C 94.24 308.61 93.73 309.71 94.41 314.06 C 95.08 318.41 96.86 325.10 98.91 329.94 C 100.96 334.78 104.46 339.10 106.72 343.10 C 108.98 347.10 110.82 350.39 112.46 353.94 C 114.10 357.50 115.22 360.63 116.55 364.43 C 117.88 368.24 118.95 372.93 120.43 376.78 C 121.91 380.63 124.11 384.12 125.45 387.54 C 126.78 390.96 127.75 394.74 128.44 397.29 C 129.14 399.84 129.49 400.37 129.61 402.83 C 129.74 405.30 130.03 409.62 129.19 412.09 C 128.34 414.56 125.69 416.10 124.54 417.67 C 123.38 419.24 124.11 421.29 122.24 421.51 C 120.38 421.73 116.40 420.19 113.36 419.02 C 110.32 417.84 106.92 416.49 103.98 414.43 C 101.05 412.37 98.85 410.71 95.73 406.64 C 92.61 402.57 88.59 395.32 85.29 390.01 C 82.00 384.70 78.41 379.54 75.96 374.78 C 73.50 370.01 72.41 365.94 70.56 361.44 C 68.72 356.95 66.73 352.19 64.90 347.80 C 63.07 343.42 60.94 339.14 59.59 335.13 C 58.23 331.12 58.05 327.80 56.77 323.76 C 55.48 319.73 53.95 314.22 51.88 310.90 C 49.81 307.58 46.46 306.04 44.37 303.87 C 42.27 301.70 40.89 299.58 39.32 297.88 C 37.76 296.18 36.74 294.05 34.96 293.67 C 33.18 293.30 30.37 293.94 28.63 295.64 C 26.89 297.34 25.74 301.36 24.54 303.88 C 23.35 306.39 21.28 307.61 21.47 310.75 C 21.65 313.90 23.77 318.66 25.65 322.73 C 27.54 326.80 30.39 331.37 32.76 335.18 C 35.13 338.99 35.92 341.78 39.87 345.58 C 43.82 349.38 50.43 354.04 56.44 357.97 C 62.45 361.90 68.24 366.16 75.94 369.17 C 83.64 372.18 94.55 374.33 102.64 376.05 C 110.73 377.76 116.89 379.08 124.51 379.47 C 132.12 379.86 140.40 378.75 148.33 378.41 C 156.27 378.08 164.95 378.37 172.11 377.47 C 179.26 376.57 184.44 374.20 191.26 373.01 C 198.08 371.82 206.17 371.00 213.05 370.32 C 219.92 369.64 226.48 368.93 232.51 368.90 C 238.54 368.87 243.22 369.71 249.23 370.14 C 255.25 370.58 262.36 371.30 268.61 371.51 C 274.85 371.73 281.12 371.86 286.71 371.43 C 292.30 371.00 297.31 370.47 302.16 368.94 C 307.01 367.41 311.00 364.98 315.81 362.24 C 320.61 359.49 326.21 355.47 330.99 352.48 C 335.77 349.48 340.66 347.35 344.47 344.29 C 348.29 341.22 350.73 338.64 353.90 334.09 C 357.07 329.54 360.20 323.11 363.48 317.00 C 366.77 310.88 371.94 303.50 373.62 297.42 C 375.29 291.33 373.66 286.64 373.53 280.47 C 373.40 274.31 373.46 266.97 372.85 260.42 C 372.25 253.88 371.71 247.44 369.92 241.22 C 368.13 235.00 364.97 228.49 362.13 223.11 C 359.28 217.73 356.09 213.78 352.84 208.97 C 349.58 204.15 345.33 198.68 342.61 194.24 C 339.88 189.80 338.16 186.57 336.48 182.33 C 334.81 178.08 333.84 173.37 332.54 168.75 C 331.24 164.14 329.27 159.06 328.68 154.65 C 328.10 150.25 328.05 145.78 329.04 142.34 C 330.03 138.89 332.05 136.30 334.60 133.99 C 337.15 131.68 340.98 130.20 344.32 128.50 C 347.67 126.80 350.89 124.50 354.66 123.80 C 358.44 123.11 363.41 124.08 366.97 124.33 C 370.52 124.58 372.25 124.15 376.01 125.30 C 379.76 126.44 385.08 128.18 389.48 131.20 C 393.89 134.21 398.91 139.36 402.42 143.38 C 405.93 147.39 408.41 150.28 410.52 155.30 C 412.63 160.31 414.51 166.76 415.08 173.47 C 415.66 180.17 414.45 188.83 413.97 195.53 C 413.49 202.23 413.96 206.95 412.21 213.64 C 410.45 220.32 407.58 228.76 403.44 235.64 C 399.30 242.52 392.87 248.62 387.38 254.92 C 381.89 261.21 376.24 268.17 370.49 273.40 C 364.74 278.63 359.21 282.08 352.87 286.28 C 346.53 290.49 339.22 294.60 332.46 298.64 C 325.70 302.68 317.43 307.00 312.31 310.52 C 307.19 314.04 305.88 316.62 301.75 319.76 C 297.61 322.91 291.89 325.52 287.53 329.39 C 283.17 333.27 279.19 339.51 275.57 343.00 C 271.95 346.49 269.68 347.88 265.82 350.31 C 261.95 352.73 256.34 354.82 252.39 357.55 C 248.43 360.29 246.21 364.75 242.09 366.73 C 237.98 368.71 232.29 368.75 227.69 369.43 C 223.09 370.12 219.33 371.70 214.48 370.84 C 209.62 369.98 203.86 367.13 198.58 364.26 C 193.31 361.38 186.58 357.69 182.80 353.57 C 179.02 349.46 178.46 345.29 175.91 339.55 C 173.36 333.81 168.93 326.15 167.49 319.13 C 166.05 312.11 166.92 303.94 167.27 297.42 C 167.61 290.91 167.44 286.77 169.57 280.05 C 171.71 273.33 176.00 263.46 180.10 257.11 C 184.19 250.75 189.13 246.62 194.15 241.90 C 199.18 237.18 205.22 232.06 210.22 228.79 C 215.21 225.51 218.20 223.96 224.13 222.25 C 230.06 220.55 238.90 219.21 245.81 218.55 C 252.73 217.89 259.91 217.94 265.64 218.28 C 271.37 218.63 275.00 219.03 280.18 220.62 C 285.35 222.20 291.32 225.00 296.67 227.79 C 302.01 230.59 307.86 234.20 312.25 237.39 C 316.64 240.59 320.12 242.43 323.02 246.98 C 325.91 251.53 328.01 259.13 329.63 264.70 C 331.26 270.27 332.27 274.55 332.76 280.40 C 333.25 286.24 332.87 294.32 332.58 299.77 C 332.28 305.23 332.13 308.28 330.99 313.12 C 329.85 317.96 327.28 323.58 325.73 328.81 C 324.18 334.05 323.15 339.95 321.71 344.53 C 320.27 349.10 318.40 352.27 317.08 356.27 C 315.77 360.27 314.44 364.68 313.81 368.54 C 313.18 372.40 313.48 376.60 313.29 379.44 C 313.10 382.27 311.94 382.91 312.67 385.55 C 313.41 388.20 315.45 392.62 317.68 395.29 C 319.92 397.96 322.92 399.65 326.09 401.56 C 329.27 403.47 333.60 405.79 336.72 406.75 C 339.83 407.71 341.82 407.96 344.80 407.31 C 347.77 406.67 350.93 405.19 354.55 402.88 C 358.17 400.56 363.22 396.18 366.53 393.42 C 369.83 390.65 370.83 389.27 374.36 386.29 C 377.90 383.31 383.63 379.23 387.75 375.55 C 391.88 371.86 396.05 367.55 399.13 364.18 C 402.22 360.82 403.45 358.06 406.25 355.38 C 409.05 352.71 412.69 350.03 415.93 348.11 C 419.17 346.20 422.63 345.69 425.69 343.89 C 428.76 342.09 431.73 339.20 434.32 337.34 C 436.90 335.48 438.70 334.02 441.23 332.74 C 443.75 331.45 447.41 329.93 449.49 329.65 C 451.57 329.37 452.37 330.28 453.71 331.05 C 455.06 331.82 456.63 332.69 457.56 334.28 C 458.50 335.87 459.41 337.63 459.31 340.60 C 459.21 343.58 457.94 349.07 456.96 352.11 C 455.97 355.16 455.02 355.79 453.42 358.87 C 451.83 361.95 449.01 366.87 447.38 370.62 C 445.76 374.36 444.80 377.55 443.67 381.35 C 442.54 385.15 441.30 390.05 440.59 393.42 C 439.88 396.79 439.89 399.10 439.42 401.55 C 438.95 404.00 438.04 406.21 437.77 408.13 C 437.50 410.06 437.20 412.42 437.79 413.11 C 438.38 413.81 439.16 412.92 441.32 412.29 C 443.49 411.67 447.58 410.49 450.77 409.38 C 453.96 408.28 457.94 407.60 460.44 405.67 C 462.95 403.74 463.57 400.27 465.81 397.80 C 468.05 395.34 471.67 394.39 473.87 390.88 C 476.08 387.37 477.97 381.83 479.03 376.73 C 480.10 371.64 479.88 365.99 480.28 360.29 C 480.68 354.59 481.98 349.24 481.43 342.53 C 480.87 335.82 478.41 327.40 476.93 320.02 C 475.45 312.65 474.76 305.11 472.54 298.28 C 470.33 291.44 467.37 285.31 463.62 279.00 C 459.86 272.68 455.74 266.24 450.00 260.39 C 444.25 254.54 435.93 248.76 429.14 243.91 C 422.35 239.06 417.03 234.51 409.25 231.28 C 401.46 228.05 391.11 226.16 382.44 224.53 C 373.77 222.90 365.81 222.10 357.23 221.50 C 348.66 220.91 338.27 219.81 331.01 220.96 C 323.74 222.11 319.68 224.81 313.65 228.41 C 307.63 232.01 300.23 237.55 294.86 242.57 C 289.48 247.60 284.24 253.50 281.41 258.57 C 278.58 263.64 278.93 267.55 277.88 273.00 C 276.83 278.45 274.50 285.45 275.11 291.25 C 275.72 297.04 279.48 303.76 281.55 307.77 C 283.61 311.78 284.53 312.62 287.53 315.32 C 290.52 318.02 294.46 322.27 299.50 323.96 C 304.53 325.65 311.93 325.99 317.74 325.47 C 323.55 324.96 330.28 323.71 334.36 320.87 C 338.45 318.02 340.01 313.44 342.23 308.42 C 344.45 303.41 347.27 297.23 347.70 290.78 C 348.13 284.33 346.26 276.10 344.79 269.72 C 343.32 263.35 342.61 257.61 338.87 252.53 C 335.14 247.44 328.46 242.96 322.37 239.23 C 316.27 235.50 308.92 232.08 302.33 230.15 C 295.73 228.23 289.75 227.06 282.78 227.66 C 275.81 228.27 266.20 230.55 260.50 233.77 C 254.79 237.00 252.46 242.21 248.56 246.99 C 244.67 251.77 239.14 257.61 237.14 262.46 C 235.14 267.31 235.74 270.93 236.56 276.09 C 237.37 281.24 239.04 288.34 242.03 293.42 C 245.03 298.50 250.80 302.40 254.52 306.57 C 258.25 310.74 260.65 314.62 264.39 318.45 C 268.13 322.28 273.16 326.36 276.97 329.57 C 280.78 332.78 283.68 336.10 287.22 337.72 C 290.76 339.34 294.33 338.73 298.20 339.28 C 302.08 339.84 306.23 340.27 310.47 341.06 C 314.71 341.84 319.05 343.40 323.63 344.01 C 328.21 344.61 333.72 344.78 337.95 344.68 C 342.18 344.58 344.97 343.77 349.01 343.42 C 353.04 343.06 358.60 343.79 362.16 342.54 C 365.72 341.28 367.19 338.34 370.36 335.88 C 373.53 333.43 377.90 330.77 381.15 327.81 C 384.40 324.86 386.76 320.96 389.86 318.17 C 392.95 315.38 396.75 313.60 399.72 311.06 C 402.69 308.52 404.41 305.75 407.69 302.94 C 410.97 300.13 415.92 295.90 419.42 294.21 C 422.92 292.51 425.99 293.20 428.68 292.78 C 431.37 292.36 433.22 292.35 435.57 291.69 C 437.92 291.02 440.09 289.60 442.78 288.77 C 445.46 287.95 449.32 288.35 451.68 286.73 C 454.04 285.11 455.26 281.45 456.96 279.06 C 458.66 276.67 460.00 275.54 461.90 272.41 C 463.80 269.28 466.73 264.51 468.37 260.28 C 470.02 256.06 471.09 251.41 471.78 247.07 C 472.47 242.74 473.28 239.20 472.53 234.26 C 471.77 229.32 469.67 223.01 467.27 217.43 C 464.86 211.86 462.29 205.94 458.09 200.79 C 453.88 195.64 446.97 190.63 442.03 186.53 C 437.10 182.44 434.71 179.09 428.45 176.22 C 422.20 173.36 413.04 171.29 404.51 169.36 C 395.99 167.43 385.04 165.68 377.33 164.62 C 369.62 163.57 365.49 163.85 358.25 163.03 C 351.01 162.21 341.94 159.92 333.89 159.72 C 325.84 159.51 316.64 161.18 309.96 161.79 C 303.28 162.41 299.39 163.57 293.80 163.39 C 288.20 163.20 282.12 160.92 276.39 160.69 C 270.65 160.46 265.34 162.21 259.38 162.00 C 253.42 161.79 245.65 160.01 240.63 159.42 C 235.60 158.83 233.88 158.32 229.23 158.45 C 224.58 158.58 218.30 159.93 212.75 160.18 C 207.20 160.43 200.84 160.16 195.93 159.93 C 191.02 159.71 187.85 158.86 183.30 158.83 C 178.75 158.79 173.35 158.84 168.63 159.73 C 163.91 160.61 159.24 163.13 154.96 164.13 C 150.69 165.13 146.87 164.93 142.97 165.74 C 139.06 166.55 135.20 168.44 131.54 169.00 C 127.89 169.56 124.46 169.89 121.03 169.10 C 117.59 168.30 113.53 165.52 110.94 164.23 C 108.34 162.94 106.79 163.30 105.44 161.36 C 104.10 159.43 103.22 155.60 102.86 152.61 C 102.50 149.62 103.50 145.98 103.28 143.43 C 103.05 140.89 101.83 139.98 101.53 137.35 C 101.23 134.72 101.77 129.90 101.48 127.65 C 101.20 125.40 100.18 125.17 99.83 123.86 C 99.48 122.55 100.26 121.64 99.39 119.82 C 98.52 118.00 95.81 114.60 94.59 112.95 C 93.36 111.30 93.18 111.59 92.04 109.91 C 90.91 108.22 88.29 104.65 87.79 102.82 C 87.29 100.98 88.74 100.80 89.05 98.88 C 89.36 96.97 88.39 94.33 89.66 91.33 C 90.92 88.33 94.51 83.96 96.63 80.87 C 98.75 77.78 99.50 74.83 102.38 72.77 C 105.27 70.71 110.45 70.85 113.92 68.53 C 117.39 66.20 120.17 61.35 123.19 58.81 C 126.21 56.27 128.50 55.12 132.05 53.30 C 135.60 51.48 140.41 49.85 144.49 47.87 C 148.57 45.89 153.62 43.56 156.52 41.42 C 159.42 39.29 160.41 36.83 161.88 35.06 C 163.36 33.29 164.65 32.13 165.37 30.82 C 166.09 29.51 165.78 28.82 166.22 27.22 C 166.66 25.63 168.95 22.10 168.02 21.26 C 167.08 20.41 163.23 21.55 160.61 22.16 C 158.00 22.76 155.38 22.98 152.33 24.87 C 149.28 26.75 145.07 30.62 142.30 33.47 C 139.53 36.31 139.27 38.20 135.73 41.95 C 132.19 45.69 124.85 51.43 121.07 55.91 C 117.29 60.40 116.58 64.58 113.05 68.86 C 109.51 73.14 103.99 77.65 99.84 81.58 C 95.69 85.50 91.48 88.57 88.16 92.40 C 84.84 96.24 82.92 101.12 79.91 104.57 C 76.89 108.02 72.88 110.84 70.06 113.12 C 67.24 115.40 65.48 116.40 63.00 118.27 C 60.52 120.13 57.90 122.96 55.17 124.30 C 52.43 125.64 48.64 125.14 46.59 126.31 C 44.53 127.48 44.72 130.09 42.83 131.30 C 40.95 132.51 37.20 131.99 35.29 133.57 C 33.37 135.15 33.02 138.62 31.32 140.76 C 29.63 142.90 26.53 144.04 25.13 146.41 C 23.72 148.77 23.79 151.43 22.87 154.95 C 21.95 158.48 20.55 163.06 19.60 167.56 C 18.65 172.06 17.64 177.06 17.17 181.96 C 16.69 186.86 16.64 191.77 16.75 196.97 C 16.86 202.17 16.52 207.60 17.83 213.18 C 19.14 218.77 23.12 225.09 24.61 230.47 C 26.10 235.85 25.41 240.37 26.76 245.49 C 28.11 250.61 31.32 255.51 32.72 261.17 C 34.11 266.83 34.69 273.66 35.13 279.45 C 35.57 285.24 35.54 291.97 35.36 295.90 C 35.17 299.83 34.59 299.59 34.01 303.00 C 33.43 306.41 32.84 312.67 31.88 316.36 C 30.91 320.05 29.37 323.13 28.22 325.14 C 27.07 327.16 26.03 328.01 24.97 328.44 C 23.90 328.88 23.23 328.73 21.82 327.75 C 20.41 326.78 18.36 324.83 16.50 322.59 C 14.64 320.35 12.00 317.65 10.67 314.32 C 9.34 311.00 8.74 307.28 8.51 302.64 C 8.28 298.01 8.35 292.75 9.28 286.51 C 10.22 280.27 12.27 270.81 14.13 265.19 C 15.99 259.58 17.02 257.80 20.44 252.83 C 23.86 247.85 29.58 241.33 34.66 235.35 C 39.75 229.37 44.72 221.66 50.93 216.96 C 57.15 212.26 63.79 210.04 71.93 207.15 C 80.06 204.26 91.00 201.85 99.73 199.61 C 108.46 197.36 116.73 194.67 124.31 193.69 C 131.88 192.70 137.60 193.89 145.17 193.68 C 152.73 193.47 161.44 191.97 169.67 192.45 C 177.90 192.92 186.27 195.24 194.55 196.51 C 202.82 197.78 212.22 199.24 219.33 200.08 C 226.44 200.92 231.24 200.67 237.22 201.54 C 243.21 202.41 249.30 204.45 255.22 205.29 C 261.14 206.14 267.16 206.02 272.75 206.60 C 278.35 207.17 283.27 207.93 288.79 208.76 C 294.30 209.58 300.30 210.24 305.85 211.53 C 311.40 212.81 317.20 214.86 322.07 216.47 C 326.95 218.07 331.03 218.60 335.09 221.16 C 339.15 223.73 342.69 228.05 346.44 231.85 C 350.19 235.65 354.70 239.63 357.60 243.94 C 360.50 248.25 362.54 253.18 363.85 257.72 C 365.16 262.25 365.55 265.57 365.47 271.15 C 365.38 276.73 365.23 285.37 363.34 291.19 C 361.46 297.01 357.45 301.69 354.16 306.07 C 350.87 310.46 347.83 313.83 343.61 317.48 C 339.39 321.14 334.46 325.00 328.85 328.01 C 323.24 331.02 316.02 334.03 309.96 335.55 C 303.89 337.06 298.79 336.23 292.48 337.10 C 286.17 337.98 278.88 340.13 272.09 340.80 C 265.30 341.47 258.09 341.18 251.73 341.11 C 245.36 341.04 239.73 340.75 233.91 340.37 C 228.09 339.98 222.48 339.52 216.79 338.81 C 211.11 338.11 205.41 336.87 199.82 336.13 C 194.24 335.39 187.60 334.11 183.29 334.37 C 178.98 334.63 177.32 336.72 173.97 337.67 C 170.63 338.63 166.81 338.40 163.22 340.11 C 159.62 341.82 155.00 345.44 152.40 347.93 C 149.79 350.42 149.44 352.89 147.58 355.03 C 145.71 357.18 142.46 358.14 141.20 360.80 C 139.95 363.46 140.60 367.85 140.06 370.98 C 139.52 374.12 138.56 376.96 137.96 379.62 C 137.36 382.27 136.42 383.86 136.47 386.91 C 136.52 389.97 138.11 394.58 138.25 397.95 C 138.39 401.32 137.86 404.54 137.32 407.11 C 136.78 409.68 135.75 410.89 135.01 413.36 C 134.27 415.84 133.93 419.90 132.87 421.99 C 131.81 424.08 129.97 424.80 128.66 425.92 C 127.36 427.03 126.63 427.91 125.05 428.69 C 123.46 429.48 121.12 430.61 119.15 430.63 C 117.18 430.64 116.06 429.95 113.23 428.79 C 110.40 427.64 105.65 425.98 102.16 423.72 C 98.66 421.45 95.85 418.89 92.24 415.20 C 88.64 411.51 83.71 406.62 80.53 401.58 C 77.35 396.54 74.71 390.35 73.18 384.97 C 71.66 379.59 71.61 375.85 71.41 369.29 C 71.21 362.73 71.15 353.30 71.99 345.60 C 72.83 337.91 74.38 329.50 76.45 323.13 C 78.51 316.77 80.69 313.85 84.39 307.41 C 88.09 300.98 93.41 291.83 98.66 284.53 C 103.90 277.23 109.95 270.07 115.86 263.62 C 121.77 257.17 128.68 250.34 134.10 245.83 C 139.53 241.33 143.65 240.74 148.39 236.58 C 153.13 232.41 157.38 225.91 162.54 220.87 C 167.71 215.83 174.07 210.48 179.39 206.35 C 184.71 202.22 188.98 199.64 194.46 196.08 C 199.95 192.52 206.09 187.54 212.32 185.00 C 218.54 182.45 225.85 181.94 231.80 180.83 C 237.75 179.72 242.34 178.50 248.00 178.34 C 253.66 178.18 259.80 178.17 265.77 179.87 C 271.75 181.57 277.85 185.40 283.85 188.56 C 289.85 191.72 297.55 195.14 301.78 198.81 C 306.00 202.48 306.77 205.85 309.21 210.58 C 311.64 215.31 315.41 221.16 316.37 227.21 C 317.32 233.26 316.14 240.97 314.91 246.90 C 313.69 252.83 311.44 256.85 309.03 262.78 C 306.63 268.70 304.43 276.94 300.50 282.45 C 296.56 287.96 289.73 292.08 285.40 295.83 C 281.07 299.58 278.87 302.58 274.53 304.95 C 270.20 307.33 264.62 308.18 259.38 310.06 C 254.15 311.94 248.72 314.14 243.12 316.21 C 237.53 318.29 230.96 321.12 225.82 322.52 C 220.68 323.93 217.18 323.13 212.29 324.65 C 207.39 326.17 201.06 329.22 196.45 331.63 C 191.85 334.03 188.44 337.07 184.66 339.08 C 180.87 341.09 177.87 341.91 173.74 343.69 C 169.60 345.47 164.44 348.85 159.83 349.75 C 155.21 350.66 150.21 349.88 146.05 349.14 C 141.89 348.39 138.37 347.04 134.87 345.27 C 131.37 343.51 128.36 341.44 125.04 338.55 C 121.71 335.66 118.26 331.26 114.93 327.91 C 111.59 324.56 107.49 321.38 105.05 318.43 C 102.60 315.49 102.56 313.30 100.25 310.24 C 97.94 307.17 94.38 302.69 91.18 300.06 C 87.98 297.42 83.76 296.17 81.04 294.41 C 78.32 292.66 77.06 291.27 74.85 289.54 C 72.65 287.81 70.19 284.13 67.81 284.02 C 65.43 283.91 62.62 287.42 60.56 288.90 C 58.50 290.38 57.36 290.63 55.46 292.91 C 53.56 295.18 50.28 299.18 49.15 302.54 C 48.03 305.90 47.82 309.06 48.71 313.08 C 49.60 317.10 53.08 322.01 54.49 326.66 C 55.91 331.31 55.72 336.95 57.20 340.96 C 58.68 344.97 61.18 346.80 63.38 350.71 C 65.57 354.61 67.65 360.25 70.37 364.39 C 73.09 368.53 76.72 371.57 79.68 375.54 C 82.63 379.50 85.18 384.36 88.09 388.19 C 90.99 392.03 95.11 395.67 97.10 398.55 C 99.10 401.43 99.68 402.94 100.05 405.48 C 100.41 408.02 99.37 411.59 99.29 413.77 C 99.21 415.96 99.97 417.63 99.56 418.57 C 99.15 419.50 98.14 419.44 96.83 419.40 C 95.52 419.36 93.50 419.41 91.69 418.31 C 89.88 417.21 88.36 415.39 85.95 412.81 C 83.54 410.22 79.52 406.28 77.25 402.79 C 74.97 399.30 74.30 395.53 72.29 391.87 C 70.27 388.21 67.45 385.06 65.15 380.83 C 62.85 376.61 60.38 371.02 58.47 366.52 C 56.57 362.02 55.05 358.28 53.73 353.83 C 52.42 349.39 51.98 343.86 50.56 339.84 C 49.15 335.82 47.01 332.78 45.25 329.73 C 43.50 326.69 41.77 323.76 40.05 321.58 C 38.33 319.40 36.87 318.09 34.94 316.67 C 33.01 315.25 30.12 314.04 28.47 313.06 C 26.81 312.08 26.51 311.76 25.03 310.79 C 23.56 309.81 20.81 308.38 19.62 307.22 C 18.43 306.07 18.72 305.65 17.91 303.88 C 17.10 302.10 16.15 298.63 14.77 296.56 C 13.38 294.49 10.79 294.06 9.59 291.46 C 8.39 288.86 8.10 284.26 7.56 280.96 C 7.03 277.66 7.18 274.12 6.37 271.67 C 5.56 269.22 2.44 268.76 2.70 266.27 C 2.96 263.78 1.14 259.83 7.94 256.75 C 14.75 253.66 32.27 250.53 43.55 247.76 C 54.82 244.98 66.39 241.98 75.61 240.11 C 84.82 238.23 90.12 237.34 98.85 236.51 C 107.57 235.68 119.08 235.19 127.96 235.13 C 136.83 235.06 144.58 235.77 152.08 236.12 C 159.57 236.46 165.84 236.25 172.93 237.20 C 180.02 238.14 187.60 238.78 194.59 241.79 C 201.59 244.79 208.94 250.45 214.89 255.24 C 220.84 260.02 226.57 265.75 230.30 270.50 C 234.04 275.25 235.68 278.16 237.30 283.76 C 238.93 289.36 240.36 298.06 240.05 304.12 C 239.74 310.17 237.33 315.72 235.44 320.09 C 233.55 324.45 231.96 327.22 228.72 330.30 C 225.48 333.38 220.99 336.54 215.99 338.57 C 210.99 340.60 203.56 342.44 198.72 342.48 C 193.87 342.51 190.94 340.67 186.91 338.77 C 182.88 336.87 178.71 334.57 174.54 331.09 C 170.37 327.62 165.10 323.84 161.90 317.92 C 158.71 312.00 156.19 302.04 155.37 295.56 C 154.54 289.08 155.43 285.29 156.97 279.05 C 158.51 272.80 161.11 264.20 164.60 258.11 C 168.10 252.01 172.74 246.57 177.96 242.50 C 183.19 238.43 188.95 236.21 195.97 233.70 C 202.98 231.19 212.90 227.41 220.07 227.44 C 227.23 227.46 233.42 231.13 238.96 233.87 C 244.51 236.60 249.04 239.67 253.34 243.86 C 257.64 248.05 262.63 253.45 264.77 259.01 C 266.92 264.57 266.31 271.13 266.21 277.22 C 266.11 283.30 265.42 290.05 264.17 295.53 C 262.91 301.01 260.88 305.42 258.71 310.07 C 256.54 314.72 254.03 319.04 251.15 323.41 C 248.26 327.79 243.87 332.82 241.37 336.31 C 238.87 339.80 238.29 341.16 236.14 344.36 C 233.99 347.55 231.46 351.76 228.48 355.48 C 225.51 359.19 221.09 363.65 218.29 366.64 C 215.48 369.63 214.10 370.83 211.65 373.41 C 209.19 375.99 206.36 379.37 203.55 382.14 C 200.74 384.91 198.05 387.61 194.79 390.03 C 191.52 392.45 187.07 395.33 183.95 396.65 C 180.84 397.97 179.23 397.44 176.08 397.96 C 172.93 398.49 168.76 399.01 165.06 399.78 C 161.37 400.55 157.13 402.26 153.92 402.58 C 150.71 402.90 148.25 402.14 145.79 401.68 C 143.33 401.22 142.24 399.94 139.16 399.80 C 136.09 399.66 130.84 400.74 127.34 400.85 C 123.84 400.96 120.80 399.85 118.15 400.47 C 115.49 401.08 114.14 403.64 111.41 404.54 C 108.69 405.45 104.80 405.73 101.80 405.91 C 98.80 406.08 95.80 405.60 93.41 405.61 C 91.02 405.61 89.79 406.03 87.45 405.92 C 85.10 405.82 81.64 405.68 79.35 404.98 C 77.06 404.28 75.87 402.93 73.71 401.73 C 71.56 400.52 68.56 399.21 66.42 397.74 C 64.29 396.28 62.56 394.09 60.93 392.92 C 59.29 391.74 58.25 391.52 56.61 390.68 C 54.96 389.84 52.45 387.81 51.04 387.88 C 49.63 387.94 48.67 389.50 48.17 391.05 C 47.66 392.60 48.14 395.10 48.01 397.17 C 47.88 399.25 46.68 401.19 47.38 403.50 C 48.09 405.81 49.86 408.92 52.24 411.02 C 54.62 413.11 57.98 413.68 61.68 416.07 C 65.37 418.45 69.58 422.76 74.39 425.32 C 79.21 427.87 84.27 429.78 90.56 431.38 C 96.85 432.98 104.16 434.95 112.13 434.93 C 120.10 434.90 130.06 432.99 138.38 431.21 C 146.70 429.43 153.79 427.47 162.04 424.26 C 170.28 421.04 180.32 416.94 187.85 411.92 C 195.38 406.89 201.29 401.09 207.22 394.09 C 213.16 387.09 219.33 377.13 223.46 369.91 C 227.58 362.69 229.99 358.02 231.99 350.79 C 233.99 343.55 234.98 334.21 235.45 326.52 C 235.92 318.83 235.66 310.29 234.83 304.63 C 234.00 298.97 233.16 297.08 230.46 292.55 C 227.76 288.03 222.44 281.60 218.63 277.50 C 214.83 273.39 211.34 270.27 207.62 267.93 C 203.90 265.58 201.27 263.90 196.31 263.41 C 191.35 262.92 183.04 263.07 177.87 264.98 C 172.70 266.89 168.38 271.14 165.30 274.87 C 162.22 278.61 160.42 282.81 159.39 287.40 C 158.35 291.99 158.58 296.74 159.08 302.41 C 159.59 308.08 160.38 315.87 162.42 321.41 C 164.46 326.94 167.45 331.65 171.33 335.60 C 175.20 339.55 180.05 342.51 185.67 345.11 C 191.30 347.72 199.18 349.86 205.06 351.23 C 210.95 352.59 215.66 353.09 220.99 353.31 C 226.32 353.54 231.20 353.71 237.04 352.57 C 242.88 351.44 250.32 349.85 256.03 346.51 C 261.75 343.17 265.92 337.36 271.32 332.54 C 276.71 327.73 283.94 322.21 288.41 317.61 C 292.88 313.02 295.73 309.71 298.15 304.97 C 300.58 300.23 302.15 294.76 302.95 289.19 C 303.76 283.62 303.56 277.40 303.00 271.55 C 302.43 265.71 301.85 259.83 299.57 254.13 C 297.30 248.42 293.22 242.66 289.34 237.33 C 285.46 231.99 280.81 226.37 276.30 222.11 C 271.79 217.85 267.10 214.87 262.26 211.79 C 257.43 208.71 252.85 205.62 247.30 203.64 C 241.75 201.67 234.91 200.56 228.99 199.94 C 223.06 199.33 216.44 199.42 211.74 199.94 C 207.05 200.47 204.95 200.69 200.83 203.08 C 196.70 205.47 191.01 209.79 187.00 214.26 C 182.99 218.73 179.72 225.03 176.77 229.90 C 173.82 234.76 171.25 238.35 169.29 243.47 C 167.33 248.58 165.62 255.01 165.02 260.58 C 164.42 266.15 165.69 272.04 165.70 276.88 C 165.71 281.73 164.84 284.53 165.08 289.66 C 165.33 294.78 166.08 302.32 167.17 307.65 C 168.26 312.98 170.47 316.52 171.64 321.64 C 172.82 326.77 173.77 333.96 174.20 338.39 C 174.63 342.82 174.87 344.22 174.23 348.21 C 173.58 352.20 171.65 358.06 170.32 362.33 C 168.98 366.60 168.27 370.50 166.22 373.84 C 164.17 377.18 161.00 380.11 158.02 382.38 C 155.03 384.65 151.50 386.84 148.32 387.45 C 145.14 388.06 142.02 387.27 138.93 386.04 C 135.84 384.81 132.79 383.27 129.80 380.07 C 126.80 376.88 123.64 371.84 120.94 366.87 C 118.24 361.89 114.97 356.18 113.57 350.21 C 112.17 344.24 113.00 337.56 112.54 331.06 C 112.08 324.57 111.52 317.67 110.81 311.25 C 110.10 304.83 108.38 299.02 108.27 292.57 C 108.16 286.11 109.73 278.05 110.16 272.50 C 110.59 266.96 110.54 264.51 110.84 259.29 C 111.15 254.07 111.72 247.00 112.01 241.19 C 112.29 235.38 112.19 229.25 112.55 224.43 C 112.92 219.60 112.56 217.37 114.18 212.25 C 115.81 207.13 119.63 199.98 122.30 193.71 C 124.97 187.44 126.85 180.32 130.21 174.63 C 133.58 168.95 138.59 163.55 142.47 159.59 C 146.36 155.64 149.23 154.33 153.50 150.92 C 157.77 147.50 163.10 141.94 168.11 139.12 C 173.11 136.30 179.65 136.47 183.55 133.98 C 187.45 131.48 187.96 127.35 191.50 124.15 C 195.04 120.95 201.51 117.84 204.77 114.79 C 208.03 111.74 209.01 108.28 211.08 105.86 C 213.15 103.44 215.01 102.97 217.19 100.28 C 219.38 97.59 222.46 93.26 224.18 89.71 C 225.91 86.16 226.01 81.79 227.53 78.98 C 229.05 76.17 231.30 75.10 233.31 72.83 C 235.32 70.56 237.36 67.46 239.57 65.34 C 241.79 63.22 244.11 62.00 246.58 60.13 C 249.04 58.25 251.42 55.51 254.39 54.08 C 257.36 52.65 260.72 51.57 264.37 51.56 C 268.02 51.54 272.06 52.68 276.29 53.97 C 280.53 55.26 285.20 56.99 289.80 59.30 C 294.40 61.61 298.68 64.76 303.92 67.83 C 309.15 70.90 316.30 73.53 321.19 77.70 C 326.08 81.88 329.13 86.55 333.28 92.87 C 337.43 99.19 343.18 109.05 346.09 115.63 C 349.00 122.20 349.38 125.33 350.74 132.29 C 352.09 139.25 354.51 148.68 354.23 157.37 C 353.94 166.06 351.63 176.82 349.03 184.44 C 346.43 192.05 342.82 197.13 338.63 203.03 C 334.45 208.94 330.07 215.00 323.91 219.88 C 317.76 224.75 308.30 229.84 301.71 232.29 C 295.12 234.74 290.62 234.63 284.37 234.58 C 278.12 234.54 270.38 233.84 264.23 232.02 C 258.09 230.21 251.44 228.15 247.51 223.70 C 243.57 219.26 242.12 210.79 240.62 205.35 C 239.12 199.92 237.82 195.95 238.52 191.10 C 239.21 186.24 241.28 180.05 244.78 176.24 C 248.28 172.42 254.83 170.13 259.50 168.20 C 264.18 166.28 267.47 165.12 272.83 164.68 C 278.18 164.23 286.05 163.86 291.63 165.52 C 297.21 167.19 302.00 170.96 306.30 174.67 C 310.60 178.39 314.19 182.44 317.43 187.82 C 320.67 193.21 324.26 200.20 325.75 206.99 C 327.25 213.77 327.93 221.61 326.41 228.55 C 324.88 235.49 320.51 243.25 316.60 248.62 C 312.70 253.99 308.31 257.70 302.98 260.79 C 297.66 263.89 291.29 265.54 284.65 267.19 C 278.00 268.84 269.20 270.30 263.10 270.71 C 257.00 271.12 253.65 271.92 248.05 269.67 C 242.46 267.42 234.16 261.86 229.52 257.22 C 224.88 252.58 222.25 246.88 220.21 241.81 C 218.16 236.75 217.46 232.26 217.23 226.83 C 217.01 221.40 217.32 214.89 218.86 209.24 C 220.40 203.58 223.09 197.60 226.47 192.91 C 229.86 188.22 234.77 184.18 239.17 181.10 C 243.57 178.03 247.89 176.13 252.88 174.46 C 257.88 172.79 263.27 171.45 269.13 171.10 C 275.00 170.74 282.84 171.27 288.05 172.35 C 293.26 173.44 295.69 174.87 300.40 177.61 C 305.11 180.35 311.62 183.87 316.32 188.77 C 321.01 193.68 325.16 201.52 328.57 207.05 C 331.97 212.59 334.46 216.40 336.73 221.98 C 339.00 227.56 341.65 234.22 342.18 240.55 C 342.70 246.89 340.86 253.80 339.87 259.99 C 338.89 266.19 337.25 272.31 336.28 277.70 C 335.31 283.10 335.87 286.96 334.07 292.38 C 332.27 297.80 327.59 304.43 325.48 310.21 C 323.37 315.99 322.60 321.98 321.41 327.06 C 320.23 332.13 319.49 336.33 318.37 340.65 C 317.26 344.98 315.06 349.34 314.71 353.02 C 314.37 356.69 316.42 359.12 316.31 362.72 C 316.21 366.31 315.04 371.07 314.07 374.58 C 313.11 378.08 311.30 380.19 310.52 383.73 C 309.74 387.26 310.40 392.44 309.37 395.80 C 308.35 399.16 306.22 401.14 304.35 403.88 C 302.48 406.63 300.51 409.35 298.16 412.27 C 295.80 415.19 292.22 418.12 290.23 421.41 C 288.24 424.70 287.03 429.50 286.19 432.01 C 285.35 434.51 285.56 434.44 285.19 436.43 C 284.83 438.43 283.60 441.62 284.01 443.96 C 284.43 446.31 285.88 448.71 287.68 450.49 C 289.48 452.27 292.42 453.50 294.81 454.63 C 297.21 455.75 299.12 456.57 302.05 457.24 C 304.98 457.91 309.11 457.97 312.37 458.63 C 315.63 459.29 318.86 460.50 321.61 461.19 C 324.36 461.88 326.50 462.10 328.86 462.79 C 331.22 463.49 332.70 464.57 335.77 465.34 C 338.83 466.12 344.26 466.96 347.26 467.47 C 350.27 467.98 351.78 467.82 353.81 468.42 C 355.84 469.01 357.36 470.75 359.42 471.06 C 361.48 471.37 363.91 470.83 366.16 470.28 C 368.40 469.74 370.59 467.88 372.88 467.79 C 375.17 467.70 377.65 469.62 379.91 469.75 C 382.17 469.87 384.10 469.58 386.43 468.53 C 388.77 467.49 391.89 464.52 393.90 463.50 C 395.92 462.47 396.75 463.00 398.53 462.40 C 400.30 461.80 402.49 460.36 404.54 459.89 C 406.59 459.42 409.08 459.07 410.83 459.58 C 412.59 460.09 413.99 461.74 415.08 462.95 C 416.16 464.16 417.62 465.41 417.34 466.85 C 417.06 468.29 414.37 470.43 413.37 471.59 C 412.38 472.75 412.73 472.42 411.37 473.82 C 410.02 475.22 407.91 478.14 405.23 479.98 C 402.56 481.83 399.24 483.42 395.31 484.88 C 391.39 486.33 385.95 487.57 381.67 488.72 C 377.39 489.87 375.21 491.44 369.65 491.77 C 364.08 492.10 355.79 491.62 348.31 490.71 C 340.82 489.80 331.21 487.75 324.74 486.31 C 318.28 484.88 315.41 483.67 309.52 482.10 C 303.63 480.53 296.26 478.57 289.39 476.89 C 282.52 475.22 274.33 473.52 268.32 472.03 C 262.30 470.55 258.37 468.54 253.31 467.98 C 248.24 467.43 242.92 468.67 237.91 468.71 C 232.91 468.74 227.01 467.82 223.28 468.17 C 219.55 468.52 217.38 469.69 215.53 470.79 C 213.68 471.89 212.71 472.98 212.17 474.77 C 211.64 476.55 211.65 479.60 212.33 481.52 C 213.00 483.43 214.94 484.58 216.23 486.25 C 217.51 487.93 217.77 490.06 220.03 491.57 C 222.28 493.07 226.17 494.58 229.76 495.30 C 233.35 496.01 237.64 496.01 241.56 495.83 C 245.47 495.65 249.07 495.08 253.24 494.22 C 257.40 493.36 261.79 491.99 266.54 490.67 C 271.29 489.34 277.26 487.51 281.74 486.29 C 286.21 485.06 289.92 483.97 293.38 483.34 C 296.85 482.70 299.56 482.23 302.53 482.47 C 305.50 482.71 308.37 484.02 311.20 484.79 C 314.03 485.57 317.51 486.13 319.52 487.12 C 321.53 488.11 321.72 489.66 323.26 490.72 C 324.79 491.79 327.70 492.23 328.72 493.49 C 329.74 494.75 329.49 497.13 329.38 498.29 C 329.27 499.45 329.68 499.55 328.06 500.45 C 326.45 501.35 322.78 502.71 319.71 503.70 C 316.64 504.68 313.85 505.78 309.63 506.35 C 305.41 506.92 299.22 507.22 294.40 507.11 C 289.58 507.00 286.41 507.25 280.72 505.69 C 275.03 504.12 267.39 501.21 260.25 497.72 C 253.12 494.23 243.68 489.24 237.90 484.74 C 232.13 480.24 230.44 476.49 225.63 470.72 C 220.81 464.95 213.91 457.07 209.03 450.12 C 204.16 443.17 200.06 435.43 196.39 429.03 C 192.72 422.62 190.00 418.33 187.02 411.70 C 184.05 405.06 182.09 395.88 178.56 389.23 C 175.03 382.58 170.35 377.94 165.86 371.78 C 161.37 365.62 155.51 357.79 151.61 352.26 C 147.71 346.73 145.46 342.83 142.46 338.58 C 139.46 334.34 136.68 331.33 133.63 326.80 C 130.58 322.28 126.94 315.67 124.17 311.41 C 121.39 307.15 119.81 305.14 116.97 301.24 C 114.12 297.33 109.54 292.36 107.09 288.00 C 104.63 283.65 103.41 279.68 102.25 275.09 C 101.08 270.50 100.60 265.47 100.08 260.46 C 99.56 255.45 98.38 250.70 99.14 245.05 C 99.90 239.40 102.79 232.45 104.63 226.56 C 106.47 220.67 107.89 214.87 110.15 209.71 C 112.42 204.55 115.23 200.19 118.21 195.59 C 121.20 190.99 123.65 186.48 128.05 182.11 C 132.45 177.74 139.19 172.10 144.62 169.37 C 150.04 166.64 154.57 166.93 160.62 165.72 C 166.67 164.51 174.07 162.83 180.93 162.10 C 187.78 161.37 195.17 161.03 201.77 161.33 C 208.38 161.63 214.05 161.99 220.55 163.90 C 227.04 165.80 234.19 169.26 240.74 172.77 C 247.28 176.28 253.94 180.30 259.83 184.93 C 265.71 189.56 272.19 195.60 276.03 200.56 C 279.87 205.53 281.01 208.85 282.89 214.71 C 284.76 220.57 286.76 229.02 287.30 235.71 C 287.84 242.39 287.67 248.94 286.12 254.81 C 284.56 260.68 281.53 266.34 277.98 270.93 C 274.44 275.52 270.27 279.64 264.84 282.35 C 259.42 285.05 251.34 286.49 245.42 287.16 C 239.51 287.83 234.92 287.69 229.34 286.38 C 223.76 285.06 217.33 282.13 211.97 279.27 C 206.60 276.42 201.21 272.56 197.14 269.24 C 193.07 265.92 190.78 262.87 187.54 259.35 C 184.30 255.84 181.04 252.04 177.70 248.15 C 174.36 244.25 171.15 239.92 167.48 235.97 C 163.81 232.02 158.81 227.64 155.68 224.46 C 152.54 221.28 151.14 219.53 148.67 216.89 C 146.19 214.25 143.91 211.26 140.82 208.61 C 137.72 205.96 133.42 202.98 130.09 200.97 C 126.76 198.96 124.00 197.06 120.85 196.54 C 117.69 196.01 114.60 196.80 111.17 197.82 C 107.75 198.84 103.56 201.33 100.28 202.66 C 97.00 203.99 94.17 203.97 91.49 205.79 C 88.81 207.62 86.34 210.45 84.20 213.59 C 82.06 216.73 80.39 220.32 78.63 224.63 C 76.87 228.95 74.12 235.27 73.62 239.49 C 73.12 243.70 75.33 245.27 75.61 249.94 C 75.90 254.61 74.58 261.74 75.32 267.50 C 76.07 273.26 78.11 279.50 80.10 284.48 C 82.09 289.46 84.99 292.86 87.28 297.39 C 89.58 301.91 91.53 306.70 93.87 311.63 C 96.20 316.57 98.86 321.60 101.30 327.01 C 103.73 332.42 106.75 339.16 108.49 344.10 C 110.24 349.04 110.75 352.79 111.77 356.63 C 112.79 360.46 114.32 363.68 114.62 367.13 C 114.91 370.57 113.93 374.41 113.52 377.32 C 113.11 380.24 112.95 383.15 112.15 384.60 C 111.34 386.05 110.89 385.23 108.68 386.02 C 106.48 386.82 101.92 389.21 98.91 389.37 C 95.90 389.53 93.84 388.30 90.63 386.97 C 87.43 385.65 82.93 383.68 79.67 381.42 C 76.41 379.16 73.77 377.03 71.07 373.42 C 68.37 369.80 65.68 364.22 63.49 359.71 C 61.30 355.20 58.71 352.00 57.92 346.37 C 57.12 340.74 57.47 333.19 58.70 325.91 C 59.94 318.63 62.52 309.76 65.34 302.71 C 68.16 295.66 70.66 289.72 75.61 283.62 C 80.56 277.52 87.99 271.11 95.05 266.09 C 102.11 261.08 110.58 256.56 117.96 253.53 C 125.35 250.49 131.15 248.73 139.34 247.88 C 147.53 247.02 158.68 247.02 167.09 248.39 C 175.49 249.76 182.22 252.60 189.79 256.09 C 197.35 259.58 207.21 264.92 212.46 269.34 C 217.72 273.76 218.84 277.50 221.32 282.61 C 223.79 287.73 226.96 294.31 227.33 300.03 C 227.70 305.75 225.71 312.50 223.51 316.93 C 221.31 321.36 217.86 323.30 214.13 326.60 C 210.40 329.90 206.17 334.83 201.11 336.73 C 196.04 338.64 188.45 338.99 183.75 338.04 C 179.04 337.09 176.81 334.75 172.89 331.03 C 168.97 327.32 163.01 321.48 160.23 315.76 C 157.44 310.04 155.99 303.76 156.20 296.71 C 156.42 289.66 159.62 279.86 161.52 273.46 C 163.42 267.06 164.27 263.52 167.59 258.30 C 170.90 253.08 176.18 246.86 181.44 242.13 C 186.69 237.40 193.04 232.91 199.11 229.94 C 205.18 226.96 210.90 225.19 217.84 224.27 C 224.79 223.36 233.71 223.43 240.79 224.45 C 247.86 225.47 254.90 227.75 260.29 230.39 C 265.69 233.03 269.20 235.81 273.17 240.28 C 277.14 244.74 282.16 251.34 284.12 257.16 C 286.08 262.98 285.73 269.50 284.91 275.22 C 284.09 280.94 281.66 286.96 279.19 291.49 C 276.73 296.02 274.03 298.86 270.13 302.41 C 266.24 305.95 260.33 309.49 255.82 312.76 C 251.31 316.03 247.08 319.99 243.08 322.03 C 239.08 324.06 236.31 323.59 231.82 324.97 C 227.33 326.35 220.62 328.84 216.16 330.31 C 211.70 331.78 208.67 332.78 205.06 333.80 C 201.44 334.81 198.70 336.08 194.48 336.43 C 190.26 336.77 185.01 335.73 179.75 335.88 C 174.48 336.04 167.84 337.24 162.88 337.37 C 157.91 337.51 153.73 337.51 149.96 336.71 C 146.19 335.90 143.90 334.71 140.27 332.54 C 136.65 330.36 131.81 327.24 128.22 323.66 C 124.63 320.08 121.24 315.52 118.73 311.05 C 116.22 306.57 114.96 301.45 113.17 296.81 C 111.39 292.17 108.65 288.40 108.02 283.22 C 107.40 278.04 108.53 271.43 109.42 265.73 C 110.32 260.03 110.92 254.70 113.38 249.01 C 115.85 243.33 119.35 236.90 124.23 231.65 C 129.10 226.39 135.70 221.20 142.62 217.47 C 149.54 213.75 158.95 210.76 165.75 209.30 C 172.55 207.83 177.01 208.48 183.44 208.68 C 189.86 208.88 197.43 208.77 204.29 210.48 C 211.16 212.20 218.70 215.77 224.63 218.99 C 230.55 222.22 235.39 225.49 239.85 229.86 C 244.31 234.23 247.87 239.65 251.37 245.22 C 254.88 250.80 258.35 257.93 260.88 263.29 C 263.41 268.65 265.37 271.93 266.53 277.38 C 267.68 282.84 267.71 290.00 267.82 296.01 C 267.92 302.02 267.59 307.85 267.16 313.45 C 266.74 319.05 266.22 324.66 265.28 329.60 C 264.33 334.53 262.66 337.89 261.51 343.04 C 260.37 348.20 258.60 355.49 258.39 360.54 C 258.18 365.59 260.48 369.29 260.26 373.32 C 260.05 377.35 257.86 381.07 257.10 384.73 C 256.34 388.38 256.47 391.16 255.70 395.22 C 254.93 399.29 253.92 405.47 252.48 409.10 C 251.03 412.74 249.15 414.73 247.04 417.03 C 244.92 419.33 242.23 421.54 239.79 422.91 C 237.35 424.28 235.42 424.01 232.40 425.23 C 229.37 426.46 224.36 428.58 221.64 430.26 C 218.91 431.93 218.83 433.85 216.05 435.27 C 213.27 436.70 208.05 437.56 204.97 438.81 C 201.89 440.06 199.02 440.86 197.57 442.77 C 196.12 444.69 196.88 448.22 196.28 450.28 C 195.68 452.33 194.20 453.42 193.96 455.09 C 193.72 456.76 194.79 458.48 194.86 460.30 C 194.92 462.13 194.29 464.19 194.37 466.03 C 194.45 467.87 195.05 470.00 195.34 471.35 C 195.64 472.71 197.17 472.60 196.16 474.17 C 195.16 475.73 191.30 478.93 189.31 480.74 C 187.31 482.55 186.21 484.33 184.19 485.04 C 182.17 485.74 179.89 485.18 177.19 484.99 C 174.49 484.80 171.26 484.37 167.99 483.92 C 164.71 483.47 161.26 483.54 157.56 482.29 C 153.86 481.05 150.11 478.45 145.79 476.46 C 141.47 474.48 135.49 472.69 131.64 470.41 C 127.79 468.12 125.69 466.08 122.68 462.78 C 119.68 459.47 116.82 455.84 113.60 450.58 C 110.37 445.32 105.94 438.67 103.35 431.21 C 100.75 423.74 98.92 413.41 98.05 405.77 C 97.18 398.13 97.63 393.44 98.11 385.36 C 98.59 377.27 98.27 366.08 100.94 357.25 C 103.61 348.42 109.28 339.88 114.15 332.39 C 119.02 324.91 124.46 318.66 130.17 312.32 C 135.88 305.98 141.47 299.87 148.42 294.36 C 155.37 288.85 165.15 283.30 171.87 279.27 C 178.58 275.25 182.60 273.60 188.69 270.20 C 194.78 266.79 199.21 263.90 208.41 258.84 C 217.61 253.77 237.99 242.99 243.91 239.82" fill="none" stroke="#fff" stroke-width="4.48" stroke-opacity="1" stroke-linecap="round" stroke-linejoin="round"/>
  </g>
</svg>