<?xml version="1.0" encoding="UTF-8"?>
<svg xmlns="http://www.w3.org/2000/svg" width="512" height="512" viewBox="0 0 512 512">
  <rect width="100%" height="100%" fill="#000"/>
  <g>
    <path d="M 256.00 256.00 C 253.90 257.27 247.63 259.99 243.43 263.63 C 239.23 267.26 234.41 273.08 230.81 277.78 C 227.20 282.48 223.85 286.89 221.78 291.83 C 219.71 296.76 218.41 302.37 218.38 307.41 C 218.35 312.45 220.19 317.79 221.60 322.08 C 223.01 326.37 224.43 329.12 226.83 333.16 C 229.22 337.20 232.51 342.44 235.97 346.31 C 239.43 350.18 243.29 353.53 247.58 356.39 C 251.87 359.25 256.86 361.69 261.71 363.48 C 266.56 365.27 271.79 366.66 276.68 367.13 C 281.57 367.61 285.86 367.73 291.05 366.32 C 296.24 364.92 302.51 362.25 307.81 358.71 C 313.11 355.17 318.21 350.28 322.85 345.09 C 327.50 339.90 332.10 333.40 335.67 327.57 C 339.25 321.75 341.83 316.22 344.31 310.16 C 346.78 304.11 349.06 296.73 350.55 291.26 C 352.04 285.78 352.14 282.67 353.25 277.32 C 354.36 271.96 355.69 264.68 357.22 259.12 C 358.74 253.57 360.79 248.94 362.39 243.98 C 363.99 239.02 364.97 233.77 366.83 229.36 C 368.68 224.95 371.58 221.05 373.54 217.53 C 375.50 214.01 376.79 211.55 378.59 208.23 C 380.38 204.91 382.70 201.03 384.33 197.59 C 385.95 194.15 387.09 191.31 388.33 187.60 C 389.57 183.89 391.16 179.38 391.75 175.31 C 392.33 171.24 392.17 167.38 391.84 163.18 C 391.52 158.97 390.98 153.89 389.80 150.09 C 388.63 146.29 387.02 144.05 384.79 140.37 C 382.56 136.68 379.99 131.76 376.42 127.99 C 372.85 124.22 368.36 120.82 363.38 117.76 C 358.41 114.70 352.69 111.51 346.57 109.62 C 340.45 107.74 332.93 106.83 326.67 106.45 C 320.41 106.07 315.51 106.62 309.00 107.34 C 302.48 108.07 294.78 108.81 287.58 110.79 C 280.39 112.76 272.76 116.24 265.84 119.20 C 258.91 122.15 252.38 125.09 246.03 128.54 C 239.68 131.98 233.15 136.48 227.76 139.85 C 222.37 143.21 218.73 145.23 213.69 148.72 C 208.65 152.22 202.70 157.12 197.50 160.83 C 192.31 164.53 187.44 167.72 182.54 170.95 C 177.64 174.19 172.67 177.04 168.10 180.24 C 163.54 183.44 159.11 186.68 155.16 190.14 C 151.21 193.60 147.61 197.45 144.39 201.00 C 141.16 204.55 138.55 207.68 135.81 211.43 C 133.08 215.17 130.69 219.28 127.95 223.46 C 125.22 227.63 121.81 231.97 119.41 236.47 C 117.00 240.97 115.52 245.93 113.52 250.46 C 111.51 254.99 108.96 259.89 107.38 263.68 C 105.80 267.46 105.47 269.76 104.05 273.18 C 102.63 276.59 100.57 280.69 98.89 284.15 C 97.20 287.60 95.62 290.72 93.95 293.91 C 92.28 297.10 90.55 300.49 88.89 303.30 C 87.22 306.10 85.63 308.47 83.97 310.75 C 82.31 313.03 80.42 315.09 78.93 316.96 C 77.45 318.84 76.59 320.38 75.06 322.01 C 73.53 323.64 71.49 325.69 69.74 326.72 C 68.00 327.76 66.45 327.73 64.58 328.21 C 62.72 328.69 60.54 329.57 58.57 329.60 C 56.59 329.63 54.42 328.98 52.73 328.39 C 51.04 327.81 50.03 327.68 48.42 326.09 C 46.81 324.50 44.75 321.60 43.07 318.83 C 41.38 316.07 39.51 313.53 38.32 309.50 C 37.12 305.47 36.30 299.58 35.89 294.65 C 35.48 289.71 35.20 284.87 35.84 279.89 C 36.49 274.92 37.78 270.42 39.76 264.78 C 41.75 259.14 44.56 252.10 47.75 246.05 C 50.93 239.99 54.60 234.28 58.86 228.44 C 63.13 222.61 68.51 216.65 73.34 211.06 C 78.16 205.46 82.81 200.21 87.81 194.87 C 92.82 189.54 98.99 183.67 103.37 179.04 C 107.74 174.42 110.08 171.08 114.06 167.10 C 118.04 163.13 123.17 159.26 127.26 155.21 C 131.36 151.15 135.09 146.99 138.65 142.80 C 142.20 138.61 145.93 133.96 148.59 130.08 C 151.25 126.19 153.23 122.45 154.60 119.48 C 155.97 116.52 156.43 115.10 156.80 112.29 C 157.18 109.47 156.90 105.75 156.83 102.59 C 156.76 99.43 157.33 95.73 156.39 93.35 C 155.45 90.96 153.33 89.37 151.22 88.27 C 149.10 87.16 146.45 86.92 143.69 86.73 C 140.94 86.55 137.42 86.74 134.68 87.16 C 131.95 87.57 130.11 87.63 127.28 89.23 C 124.45 90.83 120.94 93.38 117.72 96.75 C 114.49 100.13 110.88 104.80 107.92 109.48 C 104.96 114.17 102.40 119.52 99.94 124.86 C 97.48 130.21 94.85 136.30 93.17 141.57 C 91.48 146.83 91.04 150.86 89.85 156.46 C 88.67 162.07 86.62 168.59 86.06 175.21 C 85.49 181.82 85.58 189.15 86.47 196.17 C 87.36 203.19 89.29 210.25 91.41 217.33 C 93.53 224.40 96.38 232.23 99.18 238.60 C 101.98 244.97 104.11 249.68 108.23 255.53 C 112.36 261.39 117.93 268.32 123.92 273.73 C 129.91 279.13 137.30 283.63 144.18 287.94 C 151.07 292.26 157.97 296.22 165.23 299.62 C 172.49 303.01 180.62 305.73 187.76 308.31 C 194.89 310.89 202.11 313.10 208.06 315.10 C 214.02 317.09 218.00 318.43 223.49 320.28 C 228.98 322.13 235.00 324.38 240.99 326.20 C 246.97 328.02 253.67 329.65 259.40 331.18 C 265.13 332.71 270.22 333.99 275.35 335.38 C 280.47 336.78 285.63 338.65 290.17 339.54 C 294.70 340.43 298.29 339.98 302.56 340.75 C 306.82 341.51 311.40 343.05 315.76 344.14 C 320.12 345.23 324.17 346.70 328.69 347.29 C 333.21 347.89 338.34 347.95 342.89 347.73 C 347.43 347.50 351.74 347.29 355.96 345.94 C 360.18 344.59 364.65 342.07 368.21 339.65 C 371.78 337.23 374.35 335.16 377.35 331.41 C 380.35 327.66 383.65 322.37 386.22 317.15 C 388.79 311.94 391.21 305.90 392.77 300.11 C 394.33 294.33 395.59 288.58 395.60 282.45 C 395.61 276.32 394.16 269.29 392.84 263.32 C 391.52 257.35 390.20 252.68 387.71 246.63 C 385.21 240.58 381.12 233.14 377.87 227.02 C 374.61 220.90 371.94 215.20 368.18 209.89 C 364.42 204.58 360.00 199.79 355.30 195.16 C 350.59 190.53 344.91 185.46 339.97 182.10 C 335.03 178.75 331.63 177.12 325.63 175.05 C 319.63 172.97 310.61 171.27 303.99 169.66 C 297.36 168.04 292.23 166.54 285.88 165.36 C 279.53 164.19 272.28 163.31 265.89 162.61 C 259.50 161.90 253.24 161.86 247.56 161.15 C 241.87 160.44 236.47 159.11 231.76 158.35 C 227.06 157.58 223.82 157.45 219.34 156.55 C 214.86 155.65 209.35 154.37 204.89 152.95 C 200.43 151.53 196.21 149.91 192.59 148.02 C 188.97 146.12 186.37 143.60 183.16 141.59 C 179.95 139.57 176.32 137.37 173.31 135.93 C 170.30 134.48 168.14 133.82 165.09 132.94 C 162.05 132.05 158.30 131.13 155.02 130.63 C 151.74 130.13 148.61 130.13 145.42 129.94 C 142.23 129.75 139.15 129.40 135.90 129.48 C 132.64 129.57 129.09 130.24 125.89 130.47 C 122.68 130.69 119.29 130.69 116.69 130.85 C 114.08 131.01 112.52 131.24 110.27 131.42 C 108.02 131.60 105.23 132.35 103.17 131.93 C 101.11 131.51 99.52 130.08 97.91 128.89 C 96.30 127.70 94.87 126.16 93.48 124.77 C 92.10 123.38 90.50 121.89 89.59 120.56 C 88.68 119.24 88.66 118.27 88.01 116.82 C 87.36 115.38 86.53 113.55 85.69 111.90 C 84.85 110.25 83.50 108.71 82.97 106.93 C 82.44 105.14 82.59 103.12 82.50 101.17 C 82.41 99.22 82.56 96.69 82.43 95.24 C 82.29 93.78 82.13 93.56 81.68 92.44 C 81.23 91.33 80.56 89.35 79.72 88.55 C 78.89 87.75 77.73 87.87 76.66 87.64 C 75.58 87.42 74.43 87.24 73.28 87.18 C 72.13 87.13 70.33 87.74 69.77 87.30 C 69.21 86.85 70.12 85.43 69.92 84.50 C 69.72 83.57 69.09 82.46 68.59 81.71 C 68.08 80.96 67.16 80.61 66.90 79.99 C 66.63 79.38 66.65 79.08 67.01 78.02 C 67.37 76.96 68.24 75.28 69.08 73.62 C 69.91 71.97 70.73 69.86 72.03 68.08 C 73.33 66.31 74.78 64.89 76.85 62.97 C 78.91 61.05 81.39 58.62 84.42 56.57 C 87.45 54.52 90.83 52.63 95.02 50.69 C 99.21 48.74 104.41 46.68 109.58 44.90 C 114.75 43.11 120.24 41.17 126.01 39.96 C 131.78 38.74 138.38 37.86 144.19 37.61 C 150.00 37.35 154.26 37.68 160.88 38.44 C 167.51 39.20 176.29 39.94 183.92 42.16 C 191.56 44.38 199.05 47.96 206.69 51.75 C 214.33 55.53 222.62 59.61 229.75 64.88 C 236.89 70.16 243.98 77.38 249.48 83.40 C 254.99 89.42 258.49 94.08 262.78 101.02 C 267.07 107.95 271.56 116.84 275.23 125.01 C 278.91 133.17 282.75 141.63 284.84 150.01 C 286.93 158.40 287.82 166.99 287.77 175.33 C 287.73 183.66 286.16 192.91 284.58 200.01 C 282.99 207.11 281.22 211.74 278.25 217.95 C 275.28 224.15 270.89 231.52 266.78 237.23 C 262.67 242.95 258.23 247.59 253.59 252.23 C 248.95 256.87 243.69 261.11 238.92 265.09 C 234.15 269.07 229.38 272.23 224.96 276.11 C 220.53 280.00 215.79 284.79 212.37 288.41 C 208.95 292.03 207.14 294.39 204.46 297.84 C 201.78 301.29 198.92 305.24 196.30 309.10 C 193.68 312.96 191.11 317.28 188.74 321.00 C 186.36 324.72 184.21 327.89 182.04 331.44 C 179.87 334.98 177.53 338.98 175.73 342.27 C 173.93 345.56 173.03 348.15 171.25 351.16 C 169.46 354.18 167.38 357.77 165.02 360.36 C 162.66 362.96 159.73 364.77 157.09 366.74 C 154.45 368.72 151.91 370.76 149.18 372.21 C 146.46 373.66 143.37 374.17 140.72 375.43 C 138.08 376.69 135.39 378.27 133.29 379.77 C 131.20 381.26 129.66 382.52 128.17 384.42 C 126.67 386.31 124.93 388.66 124.35 391.11 C 123.76 393.56 124.17 396.32 124.66 399.11 C 125.16 401.90 126.00 405.06 127.31 407.87 C 128.63 410.67 130.92 413.48 132.54 415.95 C 134.15 418.43 135.17 420.12 137.02 422.71 C 138.87 425.29 140.89 428.84 143.62 431.46 C 146.34 434.09 149.97 436.19 153.37 438.46 C 156.76 440.74 159.94 443.12 163.99 445.12 C 168.04 447.12 173.13 449.11 177.68 450.44 C 182.24 451.77 187.16 452.00 191.34 453.10 C 195.52 454.20 198.76 455.84 202.75 457.06 C 206.75 458.27 211.35 459.23 215.31 460.38 C 219.27 461.53 222.75 462.77 226.54 463.96 C 230.33 465.16 234.74 466.27 238.05 467.54 C 241.36 468.81 244.17 470.32 246.40 471.59 C 248.63 472.86 249.80 473.78 251.43 475.17 C 253.06 476.55 255.30 478.41 256.18 479.88 C 257.05 481.35 257.00 482.64 256.69 483.98 C 256.37 485.32 255.76 486.80 254.31 487.90 C 252.87 488.99 250.24 489.81 248.02 490.53 C 245.79 491.25 243.93 492.06 240.96 492.21 C 237.98 492.37 234.00 491.72 230.17 491.46 C 226.35 491.20 222.18 491.37 218.00 490.65 C 213.81 489.94 209.64 488.82 205.08 487.19 C 200.51 485.56 195.44 483.44 190.61 480.87 C 185.77 478.31 180.28 474.60 176.05 471.80 C 171.82 469.00 169.21 467.49 165.24 464.06 C 161.27 460.64 156.29 455.91 152.22 451.25 C 148.14 446.60 144.42 441.74 140.78 436.12 C 137.14 430.51 133.56 423.73 130.37 417.56 C 127.17 411.39 124.21 404.70 121.60 399.10 C 118.98 393.51 117.06 389.65 114.69 383.99 C 112.32 378.32 109.95 371.02 107.37 365.10 C 104.79 359.17 101.86 353.39 99.20 348.43 C 96.53 343.48 93.93 338.96 91.39 335.37 C 88.85 331.79 86.57 329.20 83.94 326.94 C 81.30 324.68 77.85 322.75 75.57 321.84 C 73.30 320.94 72.09 320.89 70.28 321.50 C 68.48 322.10 66.22 323.42 64.76 325.47 C 63.30 327.51 61.93 330.57 61.53 333.76 C 61.13 336.94 61.53 340.72 62.35 344.58 C 63.17 348.43 64.67 353.13 66.43 356.91 C 68.18 360.69 69.75 363.40 72.87 367.26 C 75.99 371.13 80.66 375.98 85.14 380.08 C 89.62 384.19 94.39 388.50 99.75 391.89 C 105.12 395.28 110.90 398.36 117.33 400.41 C 123.76 402.46 131.64 403.40 138.33 404.18 C 145.02 404.96 150.37 404.92 157.46 405.09 C 164.55 405.26 173.07 405.80 180.87 405.19 C 188.67 404.59 196.59 403.31 204.27 401.45 C 211.95 399.58 219.59 396.71 226.95 394.00 C 234.31 391.29 241.56 389.18 248.44 385.18 C 255.31 381.17 262.74 375.07 268.18 369.96 C 273.61 364.84 277.00 360.15 281.04 354.49 C 285.08 348.82 288.94 342.37 292.43 335.96 C 295.91 329.55 299.13 322.66 301.96 316.02 C 304.78 309.37 307.44 302.84 309.38 296.07 C 311.33 289.30 312.53 281.53 313.62 275.40 C 314.71 269.28 315.45 265.20 315.92 259.35 C 316.39 253.49 316.43 246.30 316.45 240.28 C 316.46 234.25 315.89 228.65 316.00 223.19 C 316.10 217.74 316.66 212.81 317.10 207.55 C 317.54 202.28 318.16 196.81 318.64 191.59 C 319.13 186.37 319.38 180.43 320.01 176.23 C 320.63 172.03 321.15 169.79 322.40 166.37 C 323.64 162.95 325.29 158.83 327.47 155.71 C 329.66 152.58 332.59 150.05 335.50 147.62 C 338.42 145.19 341.50 142.35 344.98 141.12 C 348.46 139.90 352.97 140.34 356.36 140.27 C 359.76 140.19 361.91 139.68 365.34 140.66 C 368.76 141.64 372.95 143.81 376.90 146.16 C 380.85 148.50 385.21 151.44 389.03 154.73 C 392.85 158.02 396.67 161.81 399.82 165.91 C 402.98 170.02 405.83 174.76 407.95 179.37 C 410.07 183.99 411.38 188.17 412.55 193.61 C 413.72 199.05 414.37 205.77 414.97 212.01 C 415.57 218.25 416.06 224.66 416.16 231.05 C 416.26 237.43 415.89 244.21 415.58 250.33 C 415.27 256.44 415.40 261.80 414.31 267.73 C 413.22 273.65 410.87 280.71 409.03 285.87 C 407.20 291.04 406.10 293.86 403.31 298.73 C 400.53 303.59 396.46 309.75 392.33 315.06 C 388.20 320.37 383.39 325.96 378.54 330.60 C 373.69 335.24 367.85 338.83 363.23 342.90 C 358.60 346.97 354.51 351.41 350.82 355.01 C 347.12 358.61 344.48 361.07 341.07 364.51 C 337.66 367.95 333.64 372.01 330.33 375.65 C 327.01 379.30 323.96 382.78 321.17 386.39 C 318.37 389.99 315.62 393.80 313.56 397.27 C 311.50 400.74 309.72 403.88 308.80 407.20 C 307.89 410.53 307.96 414.37 308.07 417.21 C 308.18 420.05 308.64 422.04 309.46 424.25 C 310.28 426.46 311.49 428.60 312.99 430.48 C 314.50 432.36 316.48 434.15 318.47 435.52 C 320.47 436.90 322.37 438.08 324.95 438.75 C 327.53 439.43 331.03 439.61 333.97 439.58 C 336.91 439.56 339.18 439.31 342.60 438.61 C 346.02 437.90 350.49 437.35 354.48 435.35 C 358.48 433.36 362.50 430.17 366.55 426.63 C 370.60 423.09 375.08 419.19 378.79 414.12 C 382.49 409.06 386.05 401.87 388.77 396.22 C 391.48 390.58 393.27 386.71 395.08 380.24 C 396.89 373.78 398.68 364.99 399.65 357.43 C 400.62 349.86 400.92 342.47 400.90 334.84 C 400.88 327.21 400.53 319.25 399.52 311.65 C 398.51 304.04 396.73 296.53 394.84 289.23 C 392.94 281.92 390.31 274.08 388.16 267.81 C 386.01 261.54 384.17 257.38 381.94 251.61 C 379.70 245.83 377.01 239.19 374.75 233.16 C 372.48 227.13 370.50 221.08 368.37 215.42 C 366.24 209.76 364.35 204.44 361.96 199.18 C 359.58 193.92 356.56 188.42 354.05 183.86 C 351.55 179.30 349.85 176.06 346.94 171.84 C 344.03 167.61 340.21 162.62 336.58 158.50 C 332.95 154.37 329.39 150.61 325.16 147.09 C 320.93 143.57 316.02 140.56 311.20 137.37 C 306.39 134.18 301.10 130.95 296.27 127.97 C 291.45 124.98 286.29 121.90 282.27 119.46 C 278.26 117.03 275.80 115.23 272.18 113.37 C 268.57 111.50 264.51 110.22 260.57 108.29 C 256.64 106.36 252.32 103.87 248.57 101.78 C 244.82 99.69 241.04 97.91 238.07 95.73 C 235.10 93.55 232.70 90.73 230.73 88.69 C 228.75 86.64 227.77 85.32 226.22 83.46 C 224.67 81.59 222.41 79.79 221.42 77.50 C 220.43 75.21 220.49 72.23 220.28 69.72 C 220.07 67.21 219.88 64.68 220.17 62.46 C 220.46 60.24 221.25 58.41 222.01 56.39 C 222.77 54.36 223.20 52.26 224.75 50.33 C 226.30 48.39 228.34 46.15 231.30 44.76 C 234.26 43.37 238.45 42.52 242.52 41.98 C 246.59 41.43 250.73 41.06 255.71 41.48 C 260.69 41.91 266.89 42.72 272.41 44.52 C 277.93 46.31 283.86 49.65 288.85 52.24 C 293.83 54.83 297.33 56.63 302.34 60.07 C 307.34 63.50 313.76 68.17 318.90 72.86 C 324.05 77.54 328.89 82.22 333.20 88.19 C 337.51 94.17 341.37 101.62 344.74 108.71 C 348.12 115.80 351.18 123.85 353.44 130.74 C 355.70 137.63 357.27 142.87 358.29 150.06 C 359.31 157.25 359.69 165.91 359.56 173.88 C 359.44 181.86 358.88 190.05 357.52 197.88 C 356.17 205.72 354.02 213.61 351.45 220.91 C 348.88 228.22 345.34 235.02 342.11 241.72 C 338.87 248.42 335.22 255.53 332.06 261.12 C 328.91 266.72 326.44 270.12 323.18 275.32 C 319.91 280.51 315.88 286.74 312.47 292.28 C 309.07 297.82 306.12 303.51 302.74 308.55 C 299.35 313.60 295.50 317.98 292.14 322.55 C 288.79 327.13 285.24 332.17 282.62 336.01 C 280.00 339.85 279.03 341.85 276.45 345.61 C 273.86 349.38 269.69 354.49 267.11 358.58 C 264.52 362.67 262.50 366.20 260.92 370.17 C 259.34 374.14 258.62 378.65 257.62 382.38 C 256.62 386.12 255.37 389.49 254.91 392.58 C 254.44 395.68 254.34 398.00 254.83 400.96 C 255.32 403.92 256.65 407.47 257.86 410.32 C 259.07 413.17 260.64 415.27 262.10 418.07 C 263.56 420.86 264.96 424.41 266.63 427.10 C 268.29 429.78 270.37 431.99 272.07 434.18 C 273.77 436.37 275.70 438.21 276.82 440.25 C 277.94 442.30 278.77 444.37 278.79 446.46 C 278.81 448.55 278.00 450.76 276.96 452.77 C 275.93 454.79 274.27 456.87 272.58 458.57 C 270.89 460.27 269.53 461.79 266.82 462.97 C 264.11 464.15 259.73 465.22 256.31 465.64 C 252.89 466.06 250.21 465.71 246.32 465.50 C 242.43 465.28 237.45 465.04 232.95 464.34 C 228.44 463.65 224.07 462.97 219.29 461.33 C 214.51 459.68 209.30 457.15 204.28 454.47 C 199.27 451.80 194.28 449.22 189.20 445.27 C 184.11 441.32 178.09 435.64 173.77 430.76 C 169.44 425.87 166.93 421.62 163.25 415.97 C 159.57 410.32 154.93 403.61 151.70 396.84 C 148.47 390.07 145.45 382.93 143.87 375.36 C 142.29 367.79 142.40 359.63 142.20 351.43 C 142.01 343.23 142.02 333.39 142.70 326.16 C 143.37 318.93 145.03 314.69 146.24 308.07 C 147.45 301.44 148.59 293.52 149.96 286.40 C 151.34 279.28 152.96 272.15 154.48 265.35 C 156.00 258.56 157.55 251.94 159.06 245.63 C 160.57 239.32 162.38 232.85 163.53 227.46 C 164.68 222.08 165.58 218.26 165.96 213.30 C 166.33 208.34 165.87 202.80 165.79 197.72 C 165.71 192.64 165.90 187.28 165.48 182.80 C 165.05 178.33 164.30 174.53 163.24 170.87 C 162.17 167.20 161.03 163.74 159.10 160.83 C 157.17 157.92 154.02 155.29 151.66 153.39 C 149.30 151.49 147.70 150.14 144.93 149.43 C 142.15 148.71 138.44 148.66 135.02 149.11 C 131.61 149.55 128.06 151.19 124.44 152.11 C 120.81 153.03 116.81 152.98 113.26 154.63 C 109.70 156.27 105.94 159.25 103.10 161.99 C 100.26 164.72 98.57 167.47 96.22 171.05 C 93.87 174.62 91.24 179.22 89.02 183.45 C 86.79 187.68 84.74 191.93 82.85 196.44 C 80.95 200.95 79.39 205.84 77.66 210.50 C 75.94 215.16 73.54 219.47 72.49 224.40 C 71.45 229.33 71.29 235.09 71.37 240.09 C 71.45 245.09 72.12 249.13 72.98 254.41 C 73.84 259.70 74.71 266.01 76.54 271.80 C 78.37 277.59 80.91 283.54 83.95 289.15 C 86.99 294.77 90.93 300.17 94.80 305.50 C 98.66 310.82 103.08 316.63 107.13 321.10 C 111.19 325.58 114.43 328.33 119.14 332.36 C 123.85 336.39 129.48 341.36 135.39 345.29 C 141.30 349.21 147.90 353.10 154.60 355.91 C 161.29 358.72 168.55 360.56 175.56 362.17 C 182.57 363.77 189.34 365.17 196.64 365.53 C 203.95 365.90 212.72 365.00 219.41 364.38 C 226.10 363.76 230.44 363.24 236.80 361.82 C 243.16 360.40 250.85 358.41 257.56 355.87 C 264.27 353.32 271.11 350.32 277.04 346.57 C 282.98 342.81 288.24 337.82 293.17 333.32 C 298.10 328.82 302.80 324.24 306.61 319.56 C 310.41 314.89 313.19 310.58 315.99 305.27 C 318.79 299.97 321.26 293.80 323.41 287.73 C 325.57 281.66 327.11 274.91 328.93 268.85 C 330.75 262.78 332.59 256.97 334.33 251.33 C 336.06 245.69 337.65 239.49 339.32 235.03 C 341.00 230.57 342.58 228.34 344.37 224.58 C 346.16 220.82 347.85 216.25 350.04 212.47 C 352.23 208.69 355.22 205.32 357.50 201.91 C 359.77 198.50 361.87 195.14 363.70 192.00 C 365.53 188.86 366.72 186.12 368.48 183.08 C 370.23 180.05 372.73 176.56 374.23 173.79 C 375.73 171.01 376.23 169.21 377.48 166.44 C 378.73 163.68 380.98 160.53 381.74 157.19 C 382.50 153.85 382.09 150.14 382.04 146.40 C 381.98 142.66 381.84 138.26 381.41 134.76 C 380.98 131.27 379.78 128.37 379.46 125.42 C 379.13 122.47 379.41 119.75 379.47 117.07 C 379.53 114.38 379.42 111.76 379.81 109.30 C 380.21 106.84 380.89 104.10 381.85 102.29 C 382.81 100.48 384.23 99.76 385.57 98.47 C 386.92 97.18 388.32 95.54 389.94 94.55 C 391.56 93.55 393.58 93.15 395.29 92.49 C 397.00 91.82 398.32 91.06 400.21 90.55 C 402.10 90.05 404.79 89.98 406.64 89.46 C 408.49 88.94 409.83 88.20 411.32 87.43 C 412.82 86.66 414.34 85.57 415.60 84.81 C 416.85 84.05 417.99 83.58 418.84 82.86 C 419.69 82.15 420.28 81.87 420.71 80.52 C 421.14 79.17 421.65 76.70 421.44 74.76 C 421.22 72.81 420.70 70.67 419.39 68.85 C 418.09 67.04 416.05 65.87 413.62 63.87 C 411.19 61.88 407.74 58.72 404.83 56.88 C 401.92 55.03 399.73 54.46 396.15 52.81 C 392.57 51.16 388.00 48.78 383.33 47.00 C 378.65 45.21 373.32 43.52 368.13 42.10 C 362.94 40.67 357.99 39.06 352.19 38.47 C 346.38 37.87 339.75 38.20 333.28 38.55 C 326.82 38.90 319.47 39.81 313.41 40.57 C 307.34 41.32 303.15 41.65 296.91 43.09 C 290.67 44.53 282.82 46.58 275.95 49.21 C 269.08 51.83 262.40 55.01 255.66 58.85 C 248.93 62.70 241.78 67.87 235.52 72.27 C 229.25 76.67 223.02 81.34 218.06 85.26 C 213.10 89.18 210.46 92.39 205.76 95.79 C 201.06 99.19 195.04 102.34 189.87 105.64 C 184.71 108.94 179.72 112.50 174.80 115.61 C 169.88 118.73 164.94 121.67 160.35 124.32 C 155.77 126.97 151.46 129.21 147.26 131.53 C 143.07 133.85 138.80 136.09 135.19 138.24 C 131.58 140.39 129.01 142.44 125.59 144.43 C 122.18 146.42 118.02 148.68 114.70 150.18 C 111.38 151.68 108.93 151.81 105.69 153.42 C 102.45 155.03 98.62 157.46 95.24 159.85 C 91.86 162.25 88.01 165.25 85.40 167.77 C 82.79 170.29 81.56 171.51 79.58 174.98 C 77.60 178.45 75.50 183.93 73.50 188.59 C 71.50 193.25 69.03 197.95 67.60 202.94 C 66.16 207.93 65.22 213.14 64.90 218.53 C 64.58 223.93 65.23 230.24 65.67 235.31 C 66.11 240.39 66.67 243.84 67.55 248.98 C 68.42 254.11 69.43 260.29 70.91 266.13 C 72.40 271.98 73.36 278.19 76.47 284.02 C 79.58 289.86 84.68 295.84 89.58 301.15 C 94.47 306.46 99.89 311.42 105.84 315.89 C 111.79 320.37 119.30 324.63 125.28 328.01 C 131.27 331.39 135.32 333.90 141.73 336.18 C 148.14 338.46 156.15 340.40 163.75 341.66 C 171.34 342.93 179.73 343.33 187.32 343.77 C 194.90 344.21 202.10 344.19 209.27 344.31 C 216.44 344.42 224.08 344.65 230.34 344.46 C 236.60 344.27 240.66 343.54 246.85 343.16 C 253.05 342.77 261.20 342.36 267.51 342.13 C 273.81 341.91 279.24 341.47 284.68 341.79 C 290.11 342.11 295.04 343.44 300.12 344.04 C 305.20 344.65 310.58 344.74 315.15 345.41 C 319.72 346.08 323.87 347.07 327.54 348.07 C 331.22 349.06 333.93 349.72 337.19 351.38 C 340.45 353.04 344.20 355.62 347.11 358.02 C 350.02 360.41 352.58 363.07 354.67 365.75 C 356.75 368.42 357.88 371.28 359.60 374.09 C 361.33 376.90 363.69 380.28 365.04 382.60 C 366.39 384.92 366.69 385.98 367.72 388.01 C 368.76 390.03 369.91 392.57 371.24 394.73 C 372.57 396.90 374.05 399.09 375.70 401.00 C 377.35 402.90 379.27 404.85 381.14 406.16 C 383.01 407.46 385.24 408.06 386.95 408.83 C 388.66 409.60 389.74 410.09 391.40 410.76 C 393.06 411.43 394.91 412.57 396.94 412.87 C 398.96 413.17 401.51 412.58 403.55 412.59 C 405.58 412.59 407.31 412.68 409.17 412.89 C 411.02 413.09 412.95 413.03 414.69 413.82 C 416.43 414.62 418.64 416.43 419.62 417.65 C 420.60 418.87 420.43 419.62 420.57 421.15 C 420.71 422.68 420.72 424.84 420.46 426.84 C 420.21 428.83 419.87 431.06 419.05 433.10 C 418.23 435.13 416.91 436.94 415.56 439.04 C 414.22 441.15 412.38 443.77 410.96 445.70 C 409.54 447.64 407.96 449.05 407.05 450.68 C 406.13 452.31 405.85 453.86 405.48 455.50 C 405.11 457.14 404.76 459.26 404.84 460.52 C 404.93 461.78 405.55 462.37 406.01 463.07 C 406.47 463.76 406.78 464.50 407.60 464.71 C 408.41 464.92 409.78 464.79 410.90 464.35 C 412.03 463.90 412.94 462.82 414.33 462.05 C 415.72 461.28 417.53 460.59 419.25 459.72 C 420.96 458.86 422.87 457.90 424.60 456.88 C 426.34 455.85 427.75 454.81 429.67 453.57 C 431.58 452.33 434.20 451.08 436.08 449.45 C 437.97 447.83 439.01 446.52 440.97 443.83 C 442.93 441.14 445.51 437.18 447.85 433.31 C 450.18 429.44 453.01 425.11 455.00 420.60 C 457.00 416.09 458.24 411.38 459.81 406.24 C 461.38 401.11 463.31 394.85 464.41 389.78 C 465.51 384.71 465.69 381.29 466.42 375.82 C 467.15 370.34 468.59 363.63 468.80 356.91 C 469.01 350.18 468.98 342.84 467.68 335.47 C 466.39 328.10 463.66 320.27 461.04 312.70 C 458.43 305.12 455.48 297.42 451.97 290.03 C 448.46 282.64 443.85 274.67 439.99 268.37 C 436.12 262.06 433.43 258.04 428.77 252.19 C 424.12 246.33 418.16 238.86 412.04 233.24 C 405.93 227.63 398.88 222.74 392.09 218.51 C 385.31 214.29 378.52 211.05 371.34 207.89 C 364.15 204.74 355.77 201.67 348.97 199.60 C 342.17 197.53 337.44 196.48 330.54 195.48 C 323.64 194.48 315.03 193.78 307.59 193.58 C 300.15 193.38 293.06 193.13 285.92 194.29 C 278.79 195.44 271.59 198.20 264.78 200.52 C 257.98 202.84 251.26 205.35 245.10 208.21 C 238.94 211.08 232.83 215.19 227.83 217.70 C 222.84 220.22 219.64 220.95 215.11 223.30 C 210.57 225.65 205.38 229.02 200.63 231.79 C 195.89 234.55 191.30 237.63 186.65 239.89 C 182.00 242.16 177.25 244.16 172.72 245.38 C 168.19 246.60 163.38 246.90 159.45 247.21 C 155.52 247.53 152.76 247.55 149.12 247.27 C 145.48 246.98 141.31 246.49 137.62 245.51 C 133.93 244.53 130.18 243.44 126.98 241.39 C 123.78 239.35 120.91 236.31 118.42 233.25 C 115.92 230.18 113.83 226.13 112.01 223.02 C 110.18 219.92 108.13 218.17 107.47 214.61 C 106.81 211.05 107.37 206.33 108.04 201.66 C 108.70 196.99 109.46 191.58 111.46 186.59 C 113.45 181.60 116.59 176.50 120.00 171.71 C 123.42 166.92 127.67 162.13 131.94 157.83 C 136.21 153.52 140.74 148.97 145.62 145.88 C 150.51 142.79 155.31 141.44 161.26 139.28 C 167.21 137.13 174.48 134.20 181.32 132.96 C 188.16 131.72 195.02 131.32 202.33 131.82 C 209.64 132.32 217.85 134.15 225.17 135.95 C 232.49 137.75 240.03 140.17 246.25 142.61 C 252.48 145.05 256.90 147.19 262.54 150.58 C 268.18 153.98 274.69 158.43 280.10 162.99 C 285.52 167.55 290.34 172.68 295.03 177.96 C 299.71 183.24 303.88 189.21 308.24 194.67 C 312.61 200.14 316.96 205.82 321.22 210.74 C 325.47 215.66 330.23 220.11 333.77 224.19 C 337.30 228.27 339.40 231.12 342.43 235.22 C 345.46 239.32 348.66 244.65 351.95 248.78 C 355.24 252.90 358.94 256.51 362.16 259.96 C 365.38 263.41 368.12 266.32 371.26 269.47 C 374.40 272.62 378.19 276.31 381.01 278.85 C 383.82 281.39 385.37 282.54 388.15 284.70 C 390.92 286.85 394.84 289.42 397.65 291.77 C 400.45 294.13 402.85 296.16 404.97 298.81 C 407.10 301.47 409.10 304.34 410.41 307.70 C 411.71 311.06 412.26 315.46 412.80 318.98 C 413.34 322.50 413.42 325.30 413.64 328.83 C 413.86 332.36 413.68 336.68 414.12 340.15 C 414.57 343.62 415.37 346.96 416.32 349.64 C 417.28 352.33 418.28 354.32 419.86 356.27 C 421.44 358.23 423.92 360.14 425.79 361.38 C 427.66 362.62 429.43 363.16 431.07 363.72 C 432.71 364.28 433.84 364.47 435.63 364.74 C 437.41 365.01 439.54 365.73 441.77 365.35 C 443.99 364.96 446.75 363.76 448.98 362.45 C 451.20 361.14 453.26 359.95 455.10 357.48 C 456.93 355.01 458.57 351.12 459.99 347.65 C 461.42 344.18 462.68 341.11 463.64 336.66 C 464.60 332.21 465.33 326.33 465.76 320.95 C 466.19 315.57 466.43 310.24 466.22 304.38 C 466.01 298.52 466.11 292.15 464.50 285.77 C 462.88 279.39 459.65 272.61 456.53 266.12 C 453.40 259.62 449.39 252.37 445.75 246.79 C 442.10 241.21 439.26 237.75 434.66 232.63 C 430.06 227.51 424.09 221.31 418.14 216.09 C 412.19 210.87 405.52 205.63 398.96 201.31 C 392.39 196.99 385.34 193.77 378.76 190.20 C 372.18 186.63 365.42 182.74 359.47 179.87 C 353.52 177.00 349.00 175.41 343.05 172.98 C 337.10 170.55 329.75 168.01 323.75 165.30 C 317.74 162.59 312.43 159.33 307.01 156.70 C 301.58 154.07 296.31 151.71 291.18 149.52 C 286.04 147.32 281.26 145.86 276.20 143.52 C 271.13 141.18 265.16 137.73 260.82 135.47 C 256.47 133.21 254.27 131.87 250.15 129.97 C 246.02 128.07 240.73 125.80 236.04 124.09 C 231.35 122.38 226.47 120.62 222.00 119.73 C 217.52 118.84 213.75 118.87 209.20 118.75 C 204.65 118.62 199.22 118.48 194.71 118.97 C 190.21 119.46 186.59 120.20 182.19 121.71 C 177.79 123.23 173.10 125.74 168.31 128.06 C 163.52 130.39 157.98 132.28 153.44 135.67 C 148.90 139.06 144.85 143.85 141.07 148.43 C 137.28 153.00 133.46 158.11 130.72 163.14 C 127.97 168.17 126.28 172.88 124.60 178.59 C 122.92 184.30 121.63 190.99 120.65 197.39 C 119.67 203.80 119.25 210.57 118.71 217.00 C 118.16 223.43 117.59 229.83 117.38 235.99 C 117.17 242.15 117.71 248.14 117.43 253.96 C 117.15 259.78 115.95 266.03 115.70 270.93 C 115.44 275.82 115.69 278.78 115.92 283.33 C 116.16 287.88 116.90 293.31 117.12 298.22 C 117.34 303.14 117.15 308.10 117.26 312.82 C 117.36 317.54 118.16 322.60 117.77 326.54 C 117.38 330.49 115.77 333.71 114.89 336.47 C 114.01 339.24 113.84 340.95 112.50 343.13 C 111.16 345.31 108.92 347.76 106.83 349.55 C 104.74 351.33 102.32 352.92 99.95 353.84 C 97.57 354.76 95.25 354.82 92.58 355.06 C 89.91 355.30 86.63 355.24 83.92 355.29 C 81.21 355.34 78.50 355.45 76.33 355.36 C 74.17 355.28 72.79 355.11 70.94 354.78 C 69.08 354.46 67.20 353.92 65.22 353.42 C 63.23 352.92 60.79 352.14 59.02 351.76 C 57.24 351.39 56.04 351.22 54.55 351.16 C 53.06 351.09 51.50 351.26 50.07 351.38 C 48.64 351.49 47.34 351.55 45.98 351.85 C 44.62 352.15 43.06 352.50 41.92 353.17 C 40.77 353.83 40.05 354.86 39.10 355.83 C 38.15 356.80 37.06 358.12 36.21 358.99 C 35.37 359.86 34.82 360.46 34.04 361.05 C 33.27 361.65 32.61 362.35 31.56 362.56 C 30.51 362.78 29.09 362.58 27.76 362.35 C 26.43 362.13 24.78 362.22 23.58 361.21 C 22.39 360.21 21.67 358.03 20.59 356.31 C 19.51 354.60 18.42 353.10 17.11 350.93 C 15.79 348.76 13.74 345.81 12.69 343.31 C 11.65 340.80 11.44 338.76 10.83 335.88 C 10.23 332.99 9.58 329.60 9.06 325.99 C 8.55 322.39 7.91 318.57 7.74 314.26 C 7.58 309.94 8.07 304.49 8.07 300.09 C 8.07 295.68 7.74 291.35 7.74 287.82 C 7.75 284.29 8.20 282.23 8.12 278.93 C 8.03 275.62 7.80 270.98 7.22 268.01 C 6.65 265.04 5.41 263.49 4.67 261.08 C 3.93 258.68 3.28 255.64 2.76 253.58 C 2.24 251.52 0.73 249.93 1.56 248.72 C 2.39 247.52 2.13 247.11 7.74 246.36 C 13.34 245.62 25.11 245.55 35.20 244.27 C 45.29 242.99 57.56 240.33 68.26 238.67 C 78.95 237.01 89.48 236.01 99.38 234.29 C 109.28 232.57 118.53 230.03 127.66 228.36 C 136.79 226.70 146.41 225.47 154.15 224.28 C 161.88 223.10 166.88 222.53 174.05 221.26 C 181.23 219.99 190.04 218.60 197.22 216.66 C 204.39 214.72 210.74 211.86 217.08 209.61 C 223.43 207.35 229.44 205.64 235.26 203.15 C 241.08 200.66 247.41 197.23 252.02 194.68 C 256.63 192.14 259.42 190.77 262.94 187.87 C 266.46 184.97 270.07 181.04 273.16 177.29 C 276.24 173.53 279.06 169.56 281.45 165.35 C 283.85 161.13 286.51 156.26 287.51 151.99 C 288.50 147.71 288.28 143.51 287.42 139.69 C 286.57 135.88 284.23 132.18 282.39 129.08 C 280.55 125.98 279.05 123.60 276.36 121.09 C 273.67 118.57 270.08 116.21 266.24 113.99 C 262.40 111.78 258.05 109.46 253.31 107.79 C 248.58 106.12 243.02 104.48 237.81 103.98 C 232.60 103.48 226.81 104.06 222.06 104.77 C 217.30 105.49 214.11 106.59 209.29 108.28 C 204.48 109.98 198.52 112.19 193.15 114.93 C 187.79 117.67 181.96 120.87 177.11 124.71 C 172.26 128.55 168.16 133.53 164.03 137.99 C 159.90 142.45 156.28 147.01 152.33 151.50 C 148.39 155.98 143.72 161.01 140.38 164.90 C 137.03 168.78 135.28 171.25 132.26 174.80 C 129.25 178.36 125.52 182.52 122.30 186.24 C 119.07 189.95 116.09 194.05 112.93 197.07 C 109.77 200.09 106.49 202.21 103.33 204.34 C 100.16 206.47 96.64 208.25 93.94 209.84 C 91.25 211.43 89.47 212.32 87.15 213.88 C 84.83 215.44 82.48 217.05 80.02 219.19 C 77.56 221.34 74.32 223.73 72.40 226.75 C 70.48 229.76 69.78 233.46 68.52 237.28 C 67.26 241.10 65.77 245.92 64.85 249.66 C 63.92 253.40 63.41 255.76 62.98 259.72 C 62.56 263.68 62.51 269.00 62.29 273.43 C 62.07 277.86 61.81 281.98 61.65 286.30 C 61.49 290.62 61.59 295.40 61.33 299.37 C 61.07 303.33 60.63 306.94 60.10 310.10 C 59.58 313.26 58.88 316.13 58.19 318.32 C 57.50 320.52 56.99 321.45 55.95 323.28 C 54.92 325.11 53.26 327.72 52.00 329.32 C 50.74 330.91 49.86 332.23 48.37 332.85 C 46.88 333.47 44.83 333.58 43.08 333.05 C 41.33 332.51 39.43 331.20 37.87 329.64 C 36.30 328.07 35.09 326.52 33.70 323.66 C 32.31 320.80 30.55 316.67 29.54 312.46 C 28.52 308.25 27.53 303.63 27.58 298.39 C 27.63 293.14 28.36 287.07 29.84 280.99 C 31.32 274.91 33.49 268.32 36.47 261.89 C 39.46 255.47 44.03 248.19 47.75 242.44 C 51.46 236.68 54.31 232.96 58.76 227.37 C 63.22 221.78 68.91 214.70 74.49 208.92 C 80.07 203.13 86.24 197.41 92.24 192.67 C 98.24 187.92 103.90 183.93 110.50 180.45 C 117.10 176.98 125.15 174.15 131.84 171.84 C 138.54 169.53 143.58 167.61 150.68 166.59 C 157.78 165.56 166.42 165.11 174.44 165.69 C 182.46 166.27 191.14 167.48 198.78 170.07 C 206.43 172.65 214.02 176.41 220.30 181.19 C 226.58 185.97 232.23 193.39 236.46 198.75 C 240.69 204.12 242.76 207.44 245.67 213.39 C 248.58 219.33 251.72 227.63 253.93 234.42 C 256.13 241.21 257.83 247.70 258.89 254.13 C 259.96 260.57 260.65 266.90 260.31 273.03 C 259.96 279.17 259.18 285.81 256.82 290.95 C 254.46 296.10 249.97 300.60 246.16 303.90 C 242.35 307.19 238.85 309.23 233.96 310.71 C 229.07 312.19 222.45 313.37 216.82 312.77 C 211.18 312.17 205.22 309.66 200.15 307.12 C 195.07 304.58 190.49 301.24 186.39 297.51 C 182.30 293.78 178.44 289.12 175.60 284.77 C 172.75 280.42 171.05 276.63 169.33 271.40 C 167.61 266.17 165.72 259.41 165.28 253.36 C 164.84 247.31 165.31 241.32 166.70 235.10 C 168.10 228.88 170.55 221.89 173.65 216.05 C 176.75 210.22 180.88 204.96 185.30 200.10 C 189.72 195.23 195.30 190.13 200.16 186.87 C 205.03 183.60 208.87 182.27 214.50 180.51 C 220.13 178.75 227.27 176.81 233.95 176.30 C 240.63 175.79 247.84 176.45 254.57 177.46 C 261.30 178.46 268.18 179.79 274.35 182.34 C 280.53 184.90 286.99 189.08 291.64 192.79 C 296.29 196.50 298.79 199.79 302.27 204.62 C 305.74 209.44 309.56 216.04 312.51 221.74 C 315.45 227.44 318.44 232.80 319.95 238.79 C 321.47 244.78 322.02 251.31 321.61 257.66 C 321.19 264.02 319.68 271.48 317.47 276.91 C 315.26 282.33 311.75 285.44 308.35 290.19 C 304.96 294.95 301.37 300.65 297.10 305.43 C 292.82 310.21 287.42 314.85 282.71 318.86 C 277.99 322.87 273.21 325.94 268.82 329.50 C 264.42 333.07 260.37 336.75 256.35 340.26 C 252.33 343.78 248.17 347.69 244.71 350.59 C 241.26 353.49 239.07 355.15 235.62 357.66 C 232.16 360.16 227.62 363.09 223.98 365.62 C 220.35 368.16 217.11 370.62 213.78 372.85 C 210.45 375.08 207.57 377.48 204.00 378.99 C 200.44 380.49 196.02 381.19 192.40 381.86 C 188.78 382.53 186.06 382.78 182.30 383.01 C 178.54 383.25 174.10 383.77 169.84 383.26 C 165.59 382.75 160.86 381.02 156.76 379.96 C 152.67 378.90 148.93 377.80 145.26 376.88 C 141.58 375.95 138.19 375.24 134.72 374.38 C 131.26 373.53 127.69 372.46 124.46 371.75 C 121.23 371.03 118.47 370.73 115.34 370.10 C 112.21 369.47 108.46 368.53 105.68 367.98 C 102.89 367.42 100.94 366.55 98.66 366.77 C 96.38 366.99 93.95 368.33 92.00 369.30 C 90.04 370.27 88.22 371.51 86.91 372.59 C 85.59 373.68 84.79 374.10 84.11 375.81 C 83.42 377.51 82.84 380.24 82.79 382.82 C 82.74 385.40 82.94 388.40 83.81 391.30 C 84.69 394.19 85.94 396.96 88.02 400.19 C 90.11 403.43 93.85 407.70 96.34 410.70 C 98.82 413.70 100.28 415.49 102.93 418.20 C 105.59 420.91 109.60 424.08 112.27 426.94 C 114.93 429.80 117.19 432.84 118.93 435.36 C 120.66 437.89 121.93 440.18 122.69 442.09 C 123.46 443.99 123.93 445.59 123.52 446.79 C 123.11 447.99 121.18 448.66 120.25 449.27 C 119.31 449.87 119.63 450.58 117.92 450.43 C 116.21 450.27 112.54 449.62 109.99 448.33 C 107.45 447.04 105.27 444.65 102.65 442.68 C 100.03 440.71 97.06 439.27 94.29 436.48 C 91.52 433.69 88.49 429.69 86.03 425.95 C 83.57 422.20 81.79 418.71 79.53 414.00 C 77.27 409.29 74.25 403.98 72.48 397.67 C 70.71 391.37 69.59 383.47 68.91 376.17 C 68.24 368.87 67.82 361.50 68.42 353.87 C 69.02 346.25 70.70 338.27 72.51 330.43 C 74.31 322.60 76.97 313.69 79.23 306.87 C 81.49 300.04 82.72 295.92 86.06 289.48 C 89.41 283.04 94.71 274.86 99.30 268.24 C 103.90 261.61 108.22 255.52 113.65 249.73 C 119.08 243.94 125.33 238.21 131.86 233.47 C 138.38 228.73 146.38 224.42 152.80 221.29 C 159.22 218.17 163.78 216.76 170.40 214.73 C 177.03 212.71 184.99 210.64 192.55 209.15 C 200.11 207.65 208.31 206.36 215.78 205.74 C 223.25 205.12 230.34 204.89 237.38 205.44 C 244.42 205.98 251.35 207.45 258.02 209.04 C 264.69 210.62 271.91 213.31 277.40 214.97 C 282.90 216.63 285.97 217.11 291.00 218.99 C 296.04 220.88 302.30 223.94 307.60 226.28 C 312.91 228.63 317.87 231.16 322.84 233.08 C 327.82 234.99 332.82 236.59 337.45 237.77 C 342.09 238.94 346.67 239.76 350.66 240.14 C 354.66 240.53 357.70 240.42 361.42 240.08 C 365.15 239.73 369.05 238.63 373.00 238.07 C 376.96 237.51 381.35 237.31 385.14 236.73 C 388.93 236.14 392.55 235.65 395.75 234.56 C 398.94 233.46 402.01 231.90 404.29 230.17 C 406.58 228.44 407.41 226.31 409.45 224.18 C 411.48 222.04 414.18 219.86 416.49 217.35 C 418.80 214.83 421.92 212.18 423.31 209.08 C 424.71 205.98 424.67 202.54 424.84 198.74 C 425.02 194.94 425.21 190.66 424.37 186.28 C 423.52 181.90 421.84 176.69 419.77 172.43 C 417.70 168.18 415.49 164.70 411.93 160.75 C 408.37 156.80 403.54 152.54 398.40 148.73 C 393.27 144.92 387.13 141.09 381.13 137.90 C 375.12 134.70 368.90 131.93 362.38 129.56 C 355.87 127.19 348.32 124.86 342.05 123.67 C 335.78 122.48 331.58 122.23 324.77 122.44 C 317.95 122.65 308.82 123.17 301.18 124.93 C 293.53 126.70 286.04 129.67 278.89 133.03 C 271.74 136.38 264.63 140.43 258.30 145.06 C 251.97 149.69 246.39 155.57 240.90 160.79 C 235.42 166.01 229.50 171.39 225.41 176.38 C 221.32 181.38 219.04 184.98 216.36 190.77 C 213.69 196.55 211.17 204.36 209.36 211.08 C 207.55 217.81 206.00 224.19 205.50 231.13 C 205.01 238.07 205.44 246.08 206.38 252.72 C 207.32 259.37 208.83 265.81 211.14 271.01 C 213.44 276.21 216.66 279.26 220.21 283.94 C 223.77 288.61 227.51 295.12 232.46 299.04 C 237.41 302.97 243.90 305.59 249.92 307.51 C 255.94 309.43 262.53 309.93 268.56 310.57 C 274.60 311.20 280.79 311.54 286.14 311.33 C 291.48 311.13 295.49 310.84 300.63 309.32 C 305.78 307.79 312.05 305.07 317.01 302.18 C 321.96 299.30 326.34 295.94 330.34 292.01 C 334.34 288.09 338.00 283.46 341.01 278.63 C 344.01 273.80 346.60 268.49 348.36 263.03 C 350.11 257.57 350.93 251.21 351.52 245.87 C 352.10 240.53 352.82 236.52 351.89 230.99 C 350.96 225.45 348.46 218.38 345.94 212.67 C 343.41 206.96 340.54 201.59 336.74 196.71 C 332.94 191.83 327.81 187.42 323.14 183.39 C 318.47 179.36 313.33 175.26 308.72 172.50 C 304.11 169.75 300.97 168.43 295.49 166.87 C 290.00 165.31 282.42 163.24 275.83 163.15 C 269.24 163.06 262.55 164.74 255.93 166.31 C 249.32 167.88 242.34 169.48 236.14 172.55 C 229.93 175.62 223.75 179.94 218.69 184.71 C 213.64 189.47 208.96 196.06 205.81 201.15 C 202.66 206.24 201.19 209.42 199.82 215.24 C 198.45 221.05 197.54 229.25 197.58 236.04 C 197.62 242.82 198.28 249.65 200.05 255.95 C 201.82 262.25 204.45 268.35 208.20 273.86 C 211.94 279.36 217.80 285.04 222.53 288.99 C 227.26 292.94 231.00 295.14 236.59 297.55 C 242.19 299.95 249.64 302.33 256.09 303.40 C 262.53 304.48 269.10 304.42 275.27 303.98 C 281.43 303.54 287.42 302.66 293.05 300.76 C 298.68 298.86 304.67 295.71 309.06 292.58 C 313.45 289.45 315.98 286.44 319.39 281.97 C 322.81 277.51 326.98 271.32 329.56 265.80 C 332.14 260.27 334.04 254.75 334.89 248.81 C 335.74 242.87 335.26 236.08 334.67 230.17 C 334.08 224.26 332.79 218.76 331.36 213.36 C 329.94 207.96 328.23 202.55 326.13 197.76 C 324.03 192.97 321.76 188.81 318.76 184.60 C 315.76 180.40 311.98 176.43 308.15 172.52 C 304.32 168.61 300.11 164.57 295.79 161.14 C 291.46 157.72 286.92 154.58 282.19 151.96 C 277.46 149.34 271.88 147.13 267.39 145.41 C 262.90 143.70 259.86 142.71 255.26 141.67 C 250.67 140.63 245.11 139.42 239.80 139.16 C 234.50 138.90 228.98 139.04 223.41 140.09 C 217.84 141.14 211.70 143.11 206.39 145.43 C 201.09 147.76 196.65 150.93 191.59 154.05 C 186.53 157.17 180.19 160.83 176.04 164.17 C 171.89 167.51 169.84 169.78 166.67 174.08 C 163.50 178.38 159.77 184.31 157.01 189.96 C 154.25 195.60 151.76 201.52 150.13 207.94 C 148.49 214.37 147.64 221.72 147.21 228.51 C 146.79 235.29 147.06 242.76 147.58 248.63 C 148.11 254.51 149.03 258.22 150.35 263.78 C 151.66 269.33 153.44 276.18 155.46 281.96 C 157.48 287.74 160.34 292.98 162.45 298.44 C 164.57 303.89 166.59 309.56 168.17 314.68 C 169.75 319.80 170.91 324.77 171.93 329.17 C 172.95 333.57 173.68 336.88 174.30 341.08 C 174.92 345.29 175.20 350.30 175.67 354.39 C 176.13 358.48 176.84 361.80 177.07 365.61 C 177.31 369.43 176.69 373.70 177.06 377.26 C 177.42 380.83 178.28 383.51 179.26 387.01 C 180.25 390.50 181.62 395.01 182.97 398.25 C 184.32 401.49 185.69 403.51 187.35 406.44 C 189.00 409.37 191.45 412.59 192.90 415.84 C 194.36 419.10 195.42 423.09 196.08 425.99 C 196.73 428.89 196.65 430.82 196.84 433.23 C 197.03 435.63 197.33 438.39 197.23 440.44 C 197.13 442.50 196.56 443.67 196.26 445.56 C 195.95 447.45 195.86 449.70 195.40 451.80 C 194.94 453.90 194.41 456.48 193.50 458.14 C 192.58 459.79 191.40 460.59 189.92 461.70 C 188.44 462.81 186.72 463.85 184.63 464.79 C 182.54 465.73 179.59 466.92 177.35 467.37 C 175.12 467.82 173.75 467.84 171.20 467.49 C 168.64 467.14 165.27 466.34 162.00 465.28 C 158.73 464.22 155.12 462.79 151.57 461.13 C 148.01 459.47 144.43 458.03 140.67 455.32 C 136.91 452.60 132.42 448.57 129.00 444.83 C 125.57 441.08 123.19 437.60 120.13 432.85 C 117.07 428.10 113.79 422.05 110.65 416.35 C 107.51 410.64 103.76 404.74 101.28 398.62 C 98.81 392.50 97.70 386.12 95.78 379.60 C 93.87 373.08 91.55 365.31 89.77 359.52 C 88.00 353.72 86.71 350.09 85.14 344.84 C 83.57 339.60 82.00 333.39 80.36 328.02 C 78.72 322.65 76.98 317.63 75.29 312.63 C 73.60 307.62 71.90 302.22 70.25 298.01 C 68.59 293.80 66.91 290.91 65.35 287.37 C 63.80 283.82 62.33 279.97 60.92 276.74 C 59.51 273.52 58.36 270.94 56.92 268.01 C 55.48 265.08 53.98 261.93 52.29 259.18 C 50.60 256.43 48.54 253.60 46.75 251.53 C 44.96 249.45 42.87 248.51 41.57 246.73 C 40.27 244.96 39.72 242.76 38.94 240.88 C 38.15 238.99 37.64 237.54 36.87 235.42 C 36.10 233.31 34.93 231.00 34.33 228.18 C 33.72 225.37 33.58 221.72 33.22 218.54 C 32.86 215.36 32.31 212.33 32.15 209.09 C 31.98 205.84 31.62 202.87 32.24 199.05 C 32.85 195.22 34.34 190.07 35.82 186.13 C 37.31 182.19 38.66 179.60 41.13 175.41 C 43.61 171.22 46.87 165.55 50.67 161.01 C 54.47 156.47 59.36 152.33 63.93 148.18 C 68.50 144.04 73.23 139.97 78.07 136.14 C 82.92 132.31 88.84 128.59 93.01 125.21 C 97.17 121.82 99.23 119.00 103.09 115.83 C 106.94 112.66 112.03 109.48 116.14 106.21 C 120.25 102.93 123.78 99.30 127.76 96.18 C 131.73 93.07 136.40 90.44 140.00 87.53 C 143.60 84.62 146.70 81.21 149.38 78.70 C 152.06 76.20 153.93 74.64 156.07 72.52 C 158.21 70.40 160.24 68.14 162.21 65.98 C 164.18 63.82 166.47 61.75 167.89 59.58 C 169.31 57.41 170.09 55.04 170.72 52.94 C 171.35 50.84 171.78 48.71 171.65 46.99 C 171.53 45.28 170.73 43.78 169.99 42.65 C 169.25 41.52 168.51 41.15 167.21 40.20 C 165.92 39.26 163.57 37.81 162.22 36.97 C 160.87 36.14 159.94 35.77 159.11 35.18 C 158.28 34.59 157.91 34.02 157.22 33.42 C 156.53 32.82 155.56 32.29 154.96 31.56 C 154.35 30.83 153.77 29.95 153.57 29.04 C 153.38 28.12 153.67 27.13 153.77 26.09 C 153.87 25.06 154.03 23.83 154.18 22.84 C 154.33 21.85 154.42 21.07 154.67 20.16 C 154.92 19.25 154.80 18.34 155.67 17.39 C 156.54 16.43 158.27 15.53 159.88 14.43 C 161.50 13.34 162.54 11.75 165.34 10.82 C 168.13 9.89 172.32 9.12 176.66 8.86 C 181.01 8.59 186.03 8.59 191.41 9.24 C 196.79 9.88 202.41 10.97 208.92 12.73 C 215.43 14.49 224.14 17.11 230.49 19.82 C 236.83 22.53 241.00 25.41 246.97 29.01 C 252.94 32.61 260.01 36.88 266.32 41.42 C 272.63 45.96 279.13 50.39 284.83 56.26 C 290.52 62.13 295.80 69.51 300.50 76.62 C 305.19 83.73 309.39 92.18 312.99 98.94 C 316.59 105.70 319.12 110.51 322.11 117.17 C 325.10 123.82 327.90 131.80 330.95 138.89 C 334.00 145.97 337.49 153.13 340.39 159.68 C 343.29 166.23 345.50 172.22 348.36 178.17 C 351.22 184.13 354.16 190.36 357.56 195.41 C 360.95 200.45 365.37 204.97 368.73 208.45 C 372.08 211.93 374.30 213.66 377.71 216.26 C 381.11 218.87 385.72 221.81 389.15 224.08 C 392.58 226.35 395.20 228.25 398.30 229.87 C 401.40 231.48 404.35 232.66 407.74 233.76 C 411.13 234.86 415.76 235.65 418.63 236.45 C 421.50 237.26 422.57 237.65 424.96 238.60 C 427.36 239.55 430.33 241.04 432.98 242.14 C 435.63 243.23 438.53 243.87 440.87 245.17 C 443.20 246.48 444.75 248.37 446.98 249.97 C 449.22 251.57 452.22 252.92 454.27 254.78 C 456.33 256.64 457.80 259.51 459.31 261.13 C 460.83 262.76 461.95 263.05 463.37 264.54 C 464.79 266.02 466.62 267.98 467.82 270.04 C 469.02 272.10 469.74 274.15 470.55 276.91 C 471.36 279.67 472.23 283.25 472.67 286.59 C 473.11 289.92 473.41 293.43 473.21 296.91 C 473.00 300.38 472.98 303.35 471.43 307.44 C 469.89 311.53 466.90 316.57 463.94 321.44 C 460.99 326.31 457.26 331.77 453.70 336.68 C 450.14 341.59 446.57 346.33 442.59 350.89 C 438.60 355.46 434.27 360.01 429.80 364.06 C 425.32 368.11 419.91 371.87 415.71 375.19 C 411.51 378.50 408.90 380.79 404.59 383.94 C 400.28 387.09 394.53 390.76 389.86 394.09 C 385.19 397.43 380.61 400.74 376.60 403.97 C 372.58 407.19 369.32 410.57 365.76 413.44 C 362.20 416.31 358.21 418.75 355.22 421.19 C 352.24 423.64 350.14 425.69 347.84 428.12 C 345.54 430.55 343.70 433.40 341.41 435.77 C 339.11 438.13 336.80 440.29 334.04 442.33 C 331.28 444.37 327.83 446.16 324.87 448.03 C 321.90 449.91 319.13 452.16 316.23 453.59 C 313.32 455.01 310.70 455.30 307.44 456.58 C 304.18 457.86 300.07 459.64 296.66 461.27 C 293.25 462.90 289.74 464.65 286.96 466.35 C 284.18 468.05 281.89 469.71 280.00 471.49 C 278.11 473.26 276.48 475.35 275.61 476.99 C 274.74 478.63 274.65 479.96 274.79 481.33 C 274.94 482.71 275.29 483.98 276.47 485.25 C 277.65 486.51 279.85 487.93 281.88 488.93 C 283.91 489.94 285.82 491.00 288.65 491.28 C 291.49 491.56 295.11 491.21 298.87 490.61 C 302.63 490.01 307.32 489.21 311.23 487.66 C 315.14 486.11 318.21 484.42 322.35 481.31 C 326.48 478.19 331.51 473.62 336.06 468.97 C 340.61 464.32 345.41 458.93 349.64 453.40 C 353.87 447.87 357.58 442.11 361.43 435.78 C 365.28 429.45 369.96 422.82 372.75 415.41 C 375.53 408.00 376.80 398.61 378.16 391.31 C 379.53 384.01 380.65 379.10 380.92 371.60 C 381.20 364.11 380.55 354.72 379.80 346.32 C 379.06 337.92 377.72 329.23 376.44 321.18 C 375.16 313.14 373.94 305.48 372.12 298.05 C 370.30 290.63 367.85 282.97 365.51 276.64 C 363.17 270.31 361.26 265.94 358.07 260.07 C 354.87 254.19 350.50 247.38 346.34 241.40 C 342.18 235.41 337.77 229.46 333.11 224.15 C 328.46 218.84 323.44 213.98 318.39 209.55 C 313.34 205.11 307.53 200.85 302.82 197.55 C 298.10 194.25 295.27 192.03 290.08 189.74 C 284.90 187.45 277.96 185.07 271.70 183.80 C 265.45 182.52 258.85 181.83 252.55 182.10 C 246.25 182.38 239.86 183.64 233.91 185.45 C 227.96 187.26 222.27 190.07 216.85 192.96 C 211.43 195.86 205.50 199.02 201.41 202.83 C 197.31 206.64 195.52 211.08 192.30 215.83 C 189.08 220.57 184.84 225.90 182.07 231.29 C 179.31 236.68 177.78 242.54 175.70 248.17 C 173.62 253.79 171.18 259.32 169.60 265.06 C 168.03 270.79 167.18 277.64 166.26 282.56 C 165.34 287.48 164.67 290.15 164.10 294.57 C 163.52 298.99 163.11 304.34 162.82 309.06 C 162.52 313.78 162.57 318.33 162.31 322.88 C 162.05 327.43 162.00 332.26 161.24 336.37 C 160.49 340.49 159.35 344.13 157.77 347.56 C 156.18 350.99 153.75 354.52 151.75 356.97 C 149.74 359.41 148.21 360.78 145.75 362.24 C 143.28 363.70 140.26 365.22 136.95 365.75 C 133.65 366.27 129.47 366.16 125.92 365.40 C 122.36 364.64 118.97 362.92 115.63 361.21 C 112.30 359.50 108.84 357.17 105.88 355.12 C 102.92 353.07 100.65 351.20 97.88 348.90 C 95.12 346.60 92.12 343.78 89.27 341.30 C 86.42 338.82 83.67 336.00 80.80 334.02 C 77.94 332.04 74.80 330.49 72.08 329.41 C 69.37 328.33 66.60 327.92 64.52 327.53 C 62.45 327.14 61.38 326.94 59.63 327.07 C 57.89 327.21 55.72 327.98 54.05 328.36 C 52.39 328.74 51.10 328.64 49.63 329.36 C 48.15 330.08 46.58 331.90 45.23 332.66 C 43.88 333.42 42.67 333.23 41.52 333.92 C 40.37 334.61 39.35 336.00 38.34 336.81 C 37.33 337.62 36.63 338.36 35.44 338.78 C 34.25 339.21 32.41 338.96 31.21 339.36 C 30.01 339.75 29.23 340.27 28.24 341.16 C 27.25 342.04 25.87 343.30 25.26 344.65 C 24.66 346.00 24.69 347.61 24.61 349.23 C 24.53 350.85 24.56 352.51 24.79 354.37 C 25.02 356.24 25.18 358.13 26.00 360.43 C 26.82 362.73 28.18 365.25 29.72 368.17 C 31.27 371.09 33.26 374.83 35.25 377.96 C 37.24 381.09 39.55 384.02 41.67 386.97 C 43.79 389.92 45.74 393.06 47.97 395.67 C 50.21 398.28 51.94 399.93 55.08 402.65 C 58.21 405.36 62.60 408.92 66.78 411.96 C 70.96 414.99 75.45 417.85 80.15 420.84 C 84.85 423.84 89.45 427.37 94.96 429.92 C 100.48 432.47 107.37 434.69 113.24 436.14 C 119.10 437.59 123.36 438.37 130.16 438.62 C 136.96 438.87 146.09 438.49 154.02 437.64 C 161.94 436.79 169.80 435.59 177.69 433.53 C 185.59 431.48 193.65 428.55 201.39 425.32 C 209.14 422.08 217.67 417.89 224.19 414.11 C 230.70 410.32 234.52 407.32 240.49 402.62 C 246.46 397.92 253.89 391.19 260.01 385.90 C 266.13 380.62 271.43 375.52 277.20 370.91 C 282.98 366.30 288.89 362.56 294.65 358.24 C 300.40 353.92 306.51 349.37 311.74 344.99 C 316.96 340.61 321.76 335.50 326.00 331.96 C 330.25 328.42 333.15 326.08 337.21 323.75 C 341.28 321.42 346.06 319.45 350.38 318.00 C 354.70 316.56 359.21 315.51 363.14 315.08 C 367.06 314.64 370.59 314.60 373.93 315.38 C 377.28 316.15 380.66 317.97 383.22 319.74 C 385.79 321.51 387.49 323.31 389.30 325.99 C 391.12 328.67 393.15 332.32 394.12 335.83 C 395.08 339.34 394.95 343.01 395.09 347.04 C 395.23 351.07 395.19 356.09 394.98 360.03 C 394.76 363.97 394.21 367.19 393.78 370.70 C 393.34 374.20 392.78 377.95 392.36 381.07 C 391.94 384.19 391.91 386.46 391.27 389.40 C 390.64 392.34 389.52 395.61 388.55 398.72 C 387.58 401.84 386.20 405.10 385.46 408.10 C 384.71 411.11 384.47 414.17 384.09 416.75 C 383.71 419.34 383.55 421.45 383.15 423.62 C 382.75 425.80 382.50 427.71 381.69 429.82 C 380.88 431.93 379.24 434.26 378.29 436.29 C 377.34 438.31 377.36 439.96 375.99 441.99 C 374.62 444.02 372.42 446.29 370.06 448.44 C 367.71 450.60 364.58 453.00 361.84 454.91 C 359.11 456.83 357.26 458.34 353.63 459.94 C 350.01 461.54 345.13 463.29 340.10 464.51 C 335.07 465.73 328.96 466.72 323.46 467.26 C 317.95 467.80 312.73 467.88 307.08 467.75 C 301.43 467.63 295.44 467.12 289.54 466.50 C 283.63 465.87 277.16 465.25 271.66 464.01 C 266.17 462.77 262.20 461.21 256.57 459.07 C 250.94 456.94 243.99 454.18 237.85 451.19 C 231.72 448.21 225.54 445.25 219.75 441.17 C 213.96 437.10 208.22 431.99 203.14 426.74 C 198.05 421.49 193.19 415.08 189.25 409.69 C 185.31 404.30 182.63 400.65 179.51 394.40 C 176.39 388.15 172.45 380.18 170.55 372.18 C 168.65 364.18 168.40 354.62 168.11 346.40 C 167.83 338.19 168.20 330.89 168.85 322.91 C 169.51 314.93 170.07 306.12 172.05 298.51 C 174.02 290.91 177.85 283.56 180.69 277.28 C 183.53 271.00 185.43 266.45 189.10 260.84 C 192.78 255.23 197.71 248.60 202.73 243.63 C 207.75 238.66 213.36 234.71 219.22 231.02 C 225.09 227.33 231.58 224.29 237.94 221.50 C 244.30 218.70 251.58 215.77 257.39 214.24 C 263.19 212.70 267.30 212.17 272.75 212.28 C 278.20 212.40 284.54 213.21 290.10 214.90 C 295.66 216.59 300.98 219.56 306.11 222.45 C 311.23 225.35 316.55 228.50 320.85 232.25 C 325.15 236.01 328.84 240.96 331.90 244.97 C 334.96 248.99 336.74 252.03 339.21 256.35 C 341.68 260.68 344.73 266.12 346.73 270.91 C 348.74 275.71 349.41 280.52 351.24 285.14 C 353.06 289.76 355.83 294.19 357.68 298.63 C 359.53 303.07 360.71 307.73 362.32 311.78 C 363.93 315.84 365.75 319.76 367.34 322.96 C 368.94 326.16 370.30 327.99 371.90 330.96 C 373.51 333.93 375.08 338.05 376.96 340.78 C 378.83 343.52 380.47 346.04 383.15 347.39 C 385.82 348.75 389.70 348.92 393.00 348.90 C 396.30 348.88 400.07 348.40 402.95 347.27 C 405.84 346.13 407.58 344.42 410.31 342.10 C 413.05 339.77 416.73 337.00 419.37 333.32 C 422.01 329.64 424.41 325.02 426.15 320.02 C 427.89 315.03 429.25 309.20 429.81 303.34 C 430.37 297.49 430.17 291.18 429.51 284.90 C 428.85 278.63 427.39 271.44 425.84 265.71 C 424.29 259.98 422.47 256.18 420.21 250.50 C 417.95 244.82 415.32 237.50 412.27 231.62 C 409.23 225.74 406.05 220.54 401.92 215.23 C 397.78 209.93 392.85 204.53 387.49 199.77 C 382.12 195.00 375.29 190.01 369.72 186.63 C 364.14 183.26 360.56 181.48 354.04 179.52 C 347.52 177.55 338.31 175.81 330.59 174.84 C 322.86 173.88 315.24 173.50 307.71 173.72 C 300.18 173.95 292.60 174.74 285.39 176.18 C 278.18 177.62 270.51 180.27 264.46 182.37 C 258.41 184.47 254.68 186.23 249.08 188.78 C 243.49 191.32 236.64 194.62 230.86 197.64 C 225.09 200.66 219.74 203.73 214.44 206.88 C 209.13 210.03 203.80 213.33 199.03 216.57 C 194.25 219.80 190.10 223.28 185.79 226.28 C 181.48 229.28 176.89 231.96 173.16 234.54 C 169.43 237.13 167.12 239.74 163.38 241.79 C 159.65 243.85 154.87 245.19 150.77 246.89 C 146.67 248.58 142.81 250.65 138.78 251.96 C 134.76 253.28 130.40 254.24 126.61 254.77 C 122.82 255.31 119.26 254.99 116.06 255.17 C 112.86 255.35 110.56 255.56 107.41 255.87 C 104.26 256.17 100.10 256.85 97.13 257.00 C 94.16 257.15 92.16 256.63 89.57 256.77 C 86.98 256.92 84.24 257.13 81.59 257.85 C 78.94 258.58 76.12 259.85 73.67 261.15 C 71.21 262.44 68.70 263.77 66.86 265.61 C 65.03 267.45 63.92 269.42 62.68 272.18 C 61.44 274.95 60.12 278.57 59.41 282.17 C 58.69 285.78 57.92 289.60 58.37 293.80 C 58.83 298.00 60.44 302.68 62.14 307.38 C 63.85 312.07 66.20 317.75 68.62 321.97 C 71.04 326.19 73.11 328.51 76.67 332.68 C 80.23 336.85 85.19 342.65 89.98 346.99 C 94.77 351.34 99.73 354.86 105.42 358.74 C 111.11 362.61 114.98 366.34 124.11 370.25 C 133.25 374.16 154.20 380.20 160.22 382.19" fill="none" stroke="#fff" stroke-width="4.48" stroke-opacity="1" stroke-linecap="round" stroke-linejoin="round"/>
  </g>
</svg>