<?xml version="1.0" encoding="UTF-8"?>
<svg xmlns="http://www.w3.org/2000/svg" width="512" height="512" viewBox="0 0 512 512">
  <rect width="100%" height="100%" fill="#000"/>
  <g>
    <path d="M 256.00 256.00 C 253.77 256.63 247.98 259.54 242.63 259.79 C 237.28 260.04 229.92 259.08 223.88 257.52 C 217.83 255.96 211.39 253.10 206.35 250.44 C 201.30 247.79 196.99 245.53 193.62 241.58 C 190.25 237.63 188.14 231.44 186.13 226.74 C 184.11 222.04 182.04 218.19 181.53 213.37 C 181.01 208.56 181.76 202.93 183.03 197.86 C 184.30 192.79 186.54 187.68 189.15 182.94 C 191.76 178.19 194.82 173.48 198.71 169.41 C 202.61 165.34 207.71 162.00 212.52 158.50 C 217.32 155.01 223.49 151.13 227.56 148.44 C 231.63 145.74 233.45 144.84 236.95 142.33 C 240.44 139.82 244.93 136.07 248.52 133.37 C 252.12 130.68 255.38 128.45 258.51 126.17 C 261.63 123.89 264.04 122.14 267.27 119.68 C 270.50 117.22 274.40 113.62 277.88 111.41 C 281.35 109.20 284.43 107.69 288.11 106.41 C 291.78 105.13 295.25 104.01 299.93 103.72 C 304.60 103.43 311.29 104.42 316.18 104.68 C 321.06 104.93 324.79 104.26 329.21 105.27 C 333.64 106.29 338.15 108.69 342.72 110.74 C 347.30 112.79 351.88 115.18 356.65 117.57 C 361.42 119.97 367.25 123.40 371.37 125.11 C 375.49 126.81 377.97 127.27 381.37 127.82 C 384.78 128.37 388.19 127.99 391.77 128.42 C 395.35 128.86 399.71 130.57 402.85 130.41 C 406.00 130.25 408.28 128.41 410.63 127.46 C 412.98 126.52 415.33 125.74 416.95 124.74 C 418.57 123.73 419.73 123.21 420.36 121.44 C 420.99 119.66 421.15 116.08 420.73 114.12 C 420.31 112.15 418.48 111.70 417.83 109.65 C 417.18 107.59 417.54 104.56 416.84 101.80 C 416.13 99.04 415.79 96.15 413.61 93.09 C 411.43 90.04 407.22 86.48 403.75 83.47 C 400.28 80.45 396.98 77.87 392.80 75.00 C 388.63 72.14 384.17 68.47 378.68 66.29 C 373.19 64.11 366.14 63.13 359.87 61.93 C 353.60 60.72 347.69 59.29 341.04 59.07 C 334.39 58.85 327.67 59.83 319.97 60.61 C 312.27 61.39 301.68 62.29 294.82 63.74 C 287.95 65.20 284.77 66.79 278.79 69.34 C 272.81 71.89 265.36 74.95 258.95 79.03 C 252.54 83.10 246.96 89.62 240.32 93.77 C 233.69 97.93 225.69 100.22 219.14 103.97 C 212.59 107.72 206.77 112.73 201.01 116.28 C 195.25 119.83 189.45 122.32 184.57 125.28 C 179.70 128.25 176.16 131.02 171.78 134.08 C 167.39 137.14 163.03 140.66 158.27 143.65 C 153.50 146.64 147.58 149.25 143.19 152.03 C 138.80 154.81 135.64 156.90 131.93 160.31 C 128.22 163.72 124.49 167.73 120.93 172.47 C 117.37 177.21 112.70 183.38 110.59 188.72 C 108.48 194.07 108.88 199.06 108.25 204.52 C 107.63 209.98 106.76 215.49 106.82 221.51 C 106.87 227.52 108.18 233.82 108.58 240.61 C 108.98 247.40 108.60 255.85 109.21 262.25 C 109.82 268.65 111.19 273.89 112.26 279.01 C 113.34 284.13 114.27 287.96 115.66 292.95 C 117.04 297.95 118.88 303.90 120.59 308.98 C 122.29 314.06 124.46 319.07 125.90 323.42 C 127.34 327.77 128.39 331.01 129.23 335.08 C 130.07 339.14 130.38 343.37 130.95 347.84 C 131.51 352.30 132.76 358.39 132.61 361.87 C 132.47 365.35 130.79 366.24 130.06 368.71 C 129.32 371.18 129.65 374.48 128.20 376.69 C 126.76 378.90 123.83 381.37 121.39 381.96 C 118.95 382.55 116.26 381.38 113.57 380.22 C 110.88 379.05 108.38 377.82 105.24 374.99 C 102.10 372.16 97.34 367.45 94.74 363.22 C 92.13 358.98 91.20 355.19 89.60 349.59 C 88.00 343.98 85.73 336.59 85.15 329.57 C 84.57 322.56 85.01 315.05 86.11 307.51 C 87.22 299.97 89.01 291.73 91.76 284.34 C 94.52 276.94 98.31 269.97 102.66 263.14 C 107.01 256.31 113.63 249.11 117.86 243.35 C 122.08 237.59 123.35 233.68 128.01 228.58 C 132.67 223.47 140.16 217.76 145.81 212.73 C 151.47 207.69 156.16 203.02 161.94 198.39 C 167.73 193.76 174.39 188.97 180.51 184.95 C 186.62 180.93 192.96 177.21 198.63 174.27 C 204.30 171.34 209.72 169.54 214.55 167.34 C 219.38 165.13 222.59 162.89 227.60 161.05 C 232.61 159.21 239.05 158.12 244.60 156.29 C 250.15 154.46 255.60 151.53 260.91 150.07 C 266.23 148.61 271.18 147.76 276.51 147.52 C 281.84 147.29 287.80 147.65 292.88 148.67 C 297.97 149.69 301.93 151.80 307.03 153.62 C 312.12 155.45 318.54 157.02 323.44 159.62 C 328.34 162.23 332.28 165.24 336.43 169.28 C 340.58 173.31 344.84 178.84 348.32 183.84 C 351.79 188.83 354.86 193.55 357.29 199.25 C 359.71 204.95 361.73 212.33 362.89 218.04 C 364.05 223.74 364.05 227.81 364.25 233.51 C 364.45 239.20 364.70 246.09 364.08 252.19 C 363.46 258.29 362.06 263.70 360.52 270.13 C 358.98 276.56 357.25 284.38 354.83 290.76 C 352.42 297.15 349.35 302.98 346.05 308.42 C 342.75 313.86 338.53 319.47 335.04 323.41 C 331.54 327.36 329.02 328.76 325.07 332.09 C 321.13 335.42 316.59 339.81 311.38 343.40 C 306.18 346.99 300.14 350.86 293.84 353.62 C 287.54 356.38 280.16 358.10 273.61 359.97 C 267.05 361.83 260.18 363.51 254.54 364.82 C 248.89 366.13 244.19 366.47 239.74 367.83 C 235.30 369.20 231.28 371.38 227.87 373.02 C 224.46 374.66 222.58 375.56 219.29 377.66 C 216.00 379.77 211.16 382.72 208.12 385.63 C 205.08 388.54 202.44 391.98 201.06 395.13 C 199.68 398.28 200.10 401.52 199.84 404.53 C 199.58 407.55 198.82 410.60 199.48 413.22 C 200.14 415.84 202.08 417.30 203.80 420.27 C 205.51 423.23 207.44 427.97 209.77 431.04 C 212.10 434.10 214.57 436.58 217.80 438.64 C 221.03 440.71 225.53 442.07 229.16 443.41 C 232.78 444.75 235.98 445.48 239.56 446.68 C 243.14 447.89 247.66 448.93 250.65 450.63 C 253.65 452.33 255.48 455.47 257.54 456.87 C 259.59 458.26 260.07 457.82 262.99 459.00 C 265.91 460.19 272.34 462.59 275.06 463.97 C 277.78 465.35 277.77 465.74 279.32 467.28 C 280.87 468.82 283.25 471.19 284.38 473.23 C 285.50 475.26 285.94 477.57 286.07 479.48 C 286.19 481.38 285.11 482.90 285.13 484.65 C 285.15 486.40 285.39 488.63 286.17 489.97 C 286.96 491.32 289.07 491.06 289.84 492.71 C 290.62 494.35 290.77 498.01 290.82 499.87 C 290.87 501.72 290.09 502.62 290.16 503.86 C 290.24 505.11 291.11 505.97 291.28 507.32 C 291.44 508.68 291.32 516.15 291.14 511.98 C 290.96 507.82 290.70 492.99 290.20 482.33 C 289.69 471.67 288.77 458.77 288.11 448.02 C 287.45 437.26 286.62 427.78 286.23 417.80 C 285.83 407.82 285.93 396.85 285.73 388.13 C 285.53 379.40 286.15 374.04 285.03 365.45 C 283.91 356.87 281.48 345.23 279.00 336.60 C 276.53 327.98 273.15 320.99 270.18 313.69 C 267.22 306.39 265.22 298.90 261.22 292.80 C 257.22 286.71 251.64 281.74 246.19 277.13 C 240.73 272.52 233.44 268.34 228.51 265.14 C 223.58 261.94 221.12 260.02 216.59 257.94 C 212.06 255.87 206.18 253.15 201.35 252.69 C 196.52 252.24 191.96 253.15 187.62 255.19 C 183.28 257.24 178.96 261.07 175.32 264.94 C 171.68 268.81 168.53 274.55 165.76 278.40 C 163.00 282.26 160.25 284.34 158.71 288.09 C 157.17 291.83 156.46 295.98 156.51 300.88 C 156.55 305.78 157.56 312.25 158.97 317.46 C 160.38 322.68 161.48 327.66 164.97 332.18 C 168.46 336.70 174.31 341.46 179.91 344.57 C 185.52 347.68 193.05 349.18 198.58 350.85 C 204.12 352.52 207.10 354.33 213.14 354.59 C 219.18 354.86 227.59 354.07 234.81 352.46 C 242.03 350.84 249.95 348.36 256.46 344.91 C 262.98 341.45 268.65 336.90 273.91 331.71 C 279.16 326.52 284.12 320.18 287.99 313.75 C 291.87 307.33 295.00 299.60 297.17 293.16 C 299.34 286.71 301.11 281.30 301.00 275.08 C 300.90 268.86 299.16 261.72 296.53 255.82 C 293.91 249.91 289.39 244.74 285.26 239.68 C 281.13 234.61 276.92 228.44 271.74 225.43 C 266.57 222.42 260.46 222.80 254.21 221.60 C 247.96 220.39 240.01 218.97 234.25 218.21 C 228.48 217.44 225.06 216.54 219.63 217.02 C 214.20 217.50 207.81 218.99 201.68 221.09 C 195.55 223.18 188.50 226.92 182.86 229.60 C 177.22 232.28 172.64 235.10 167.85 237.16 C 163.06 239.22 158.91 241.13 154.12 241.97 C 149.33 242.80 143.36 242.19 139.11 242.19 C 134.85 242.19 132.34 241.90 128.60 241.95 C 124.87 242.00 120.41 242.88 116.70 242.48 C 112.99 242.07 109.36 240.62 106.34 239.52 C 103.33 238.42 101.76 237.32 98.61 235.86 C 95.45 234.40 90.06 232.54 87.41 230.77 C 84.76 229.00 84.51 227.64 82.71 225.24 C 80.92 222.83 78.06 219.41 76.65 216.33 C 75.24 213.25 75.51 209.97 74.26 206.75 C 73.02 203.53 70.92 199.55 69.18 197.01 C 67.44 194.48 66.00 192.87 63.83 191.53 C 61.67 190.20 58.74 189.25 56.21 189.00 C 53.68 188.75 50.92 189.00 48.66 190.02 C 46.39 191.05 44.49 193.17 42.60 195.15 C 40.70 197.13 38.67 198.76 37.28 201.90 C 35.89 205.04 34.95 210.11 34.28 213.99 C 33.61 217.87 33.31 220.83 33.27 225.20 C 33.23 229.56 33.42 235.41 34.04 240.18 C 34.65 244.95 35.26 248.90 36.96 253.82 C 38.67 258.74 41.98 264.44 44.27 269.71 C 46.56 274.98 48.71 279.57 50.71 285.46 C 52.71 291.34 54.42 299.25 56.27 305.04 C 58.13 310.83 60.38 315.23 61.85 320.21 C 63.32 325.18 64.32 331.13 65.10 334.88 C 65.88 338.64 66.30 339.67 66.52 342.74 C 66.75 345.81 66.64 350.67 66.43 353.31 C 66.22 355.95 65.95 356.86 65.28 358.56 C 64.60 360.27 63.62 361.64 62.39 363.55 C 61.16 365.46 59.38 369.03 57.89 370.01 C 56.40 371.00 54.85 369.93 53.46 369.47 C 52.08 369.01 51.22 368.46 49.56 367.23 C 47.89 366.00 45.45 364.93 43.47 362.08 C 41.48 359.23 39.03 354.13 37.65 350.14 C 36.27 346.15 35.73 342.68 35.18 338.15 C 34.63 333.62 34.53 328.07 34.34 322.95 C 34.16 317.84 33.36 313.03 34.06 307.45 C 34.75 301.87 35.84 295.56 38.51 289.47 C 41.18 283.38 46.07 277.47 50.07 270.91 C 54.07 264.34 57.52 256.99 62.51 250.08 C 67.50 243.17 73.73 235.18 80.01 229.45 C 86.30 223.72 93.94 219.61 100.23 215.70 C 106.51 211.80 111.00 208.98 117.71 206.01 C 124.43 203.04 132.71 200.83 140.51 197.88 C 148.31 194.92 157.29 191.11 164.49 188.28 C 171.70 185.44 177.36 183.25 183.74 180.88 C 190.12 178.51 196.27 176.03 202.77 174.08 C 209.28 172.13 216.21 170.48 222.78 169.19 C 229.36 167.90 235.68 166.64 242.21 166.32 C 248.75 166.01 255.24 165.63 261.99 167.30 C 268.73 168.98 276.59 172.57 282.70 176.37 C 288.81 180.17 293.43 185.85 298.64 190.10 C 303.84 194.35 310.12 196.89 313.91 201.87 C 317.70 206.86 319.36 214.42 321.38 219.99 C 323.39 225.56 324.69 229.92 326.01 235.28 C 327.33 240.64 329.11 246.21 329.30 252.15 C 329.50 258.09 329.55 264.98 327.18 270.92 C 324.82 276.87 319.44 282.53 315.12 287.80 C 310.80 293.07 306.47 298.20 301.24 302.56 C 296.01 306.92 289.17 311.02 283.73 313.98 C 278.29 316.93 274.32 318.28 268.60 320.29 C 262.88 322.31 255.57 324.38 249.42 326.07 C 243.27 327.75 237.49 329.76 231.71 330.40 C 225.92 331.03 219.59 329.69 214.72 329.89 C 209.85 330.09 205.99 331.44 202.47 331.59 C 198.96 331.75 197.14 330.38 193.64 330.82 C 190.15 331.27 185.34 332.59 181.49 334.26 C 177.65 335.94 174.21 338.77 170.56 340.88 C 166.92 342.98 163.39 344.95 159.61 346.90 C 155.83 348.84 150.64 349.77 147.87 352.57 C 145.11 355.37 143.97 360.59 143.02 363.68 C 142.07 366.78 142.44 368.12 142.17 371.13 C 141.90 374.14 141.11 378.24 141.39 381.75 C 141.66 385.26 143.45 389.07 143.82 392.19 C 144.19 395.30 142.94 397.46 143.60 400.44 C 144.27 403.43 146.64 406.63 147.81 410.09 C 148.98 413.55 150.30 418.06 150.63 421.20 C 150.95 424.34 149.30 426.40 149.79 428.94 C 150.27 431.48 153.54 433.80 153.55 436.44 C 153.57 439.09 150.87 442.60 149.88 444.81 C 148.89 447.01 148.90 448.04 147.62 449.68 C 146.35 451.33 144.05 453.44 142.24 454.69 C 140.43 455.94 138.78 457.00 136.77 457.20 C 134.77 457.40 132.31 456.77 130.23 455.90 C 128.16 455.04 126.54 453.41 124.33 452.03 C 122.13 450.65 119.75 449.95 117.00 447.63 C 114.26 445.31 110.90 441.31 107.88 438.13 C 104.86 434.96 102.20 432.25 98.88 428.58 C 95.56 424.91 90.49 420.60 87.98 416.09 C 85.46 411.58 85.57 407.33 83.79 401.51 C 82.01 395.69 78.70 387.81 77.30 381.15 C 75.91 374.48 75.30 368.95 75.43 361.53 C 75.56 354.10 76.18 344.50 78.08 336.60 C 79.98 328.69 83.95 320.94 86.82 314.09 C 89.68 307.24 90.71 301.74 95.28 295.50 C 99.84 289.26 107.68 282.65 114.20 276.67 C 120.72 270.69 127.33 264.43 134.42 259.60 C 141.51 254.78 149.40 250.92 156.74 247.71 C 164.08 244.50 171.10 241.84 178.48 240.34 C 185.85 238.85 194.47 238.55 200.99 238.75 C 207.51 238.96 211.59 241.05 217.61 241.60 C 223.63 242.14 230.83 242.04 237.12 242.04 C 243.40 242.04 249.01 241.15 255.33 241.61 C 261.64 242.06 268.83 244.14 274.99 244.75 C 281.15 245.37 286.72 245.76 292.27 245.30 C 297.82 244.84 303.49 243.48 308.27 241.98 C 313.05 240.48 317.04 238.58 320.95 236.32 C 324.87 234.06 328.15 231.69 331.75 228.44 C 335.36 225.19 339.86 221.22 342.59 216.84 C 345.32 212.45 347.07 207.57 348.13 202.15 C 349.20 196.73 348.84 190.25 348.97 184.32 C 349.09 178.39 350.15 171.38 348.91 166.56 C 347.66 161.75 344.09 159.31 341.49 155.42 C 338.90 151.53 336.83 147.28 333.34 143.20 C 329.85 139.13 325.27 133.91 320.52 130.97 C 315.77 128.02 310.60 126.85 304.83 125.56 C 299.06 124.26 292.60 123.56 285.89 123.20 C 279.19 122.84 270.56 122.89 264.60 123.41 C 258.63 123.94 255.61 124.37 250.11 126.37 C 244.61 128.38 237.68 132.10 231.59 135.42 C 225.50 138.75 219.25 142.84 213.58 146.30 C 207.90 149.76 202.46 152.09 197.56 156.19 C 192.66 160.30 187.91 166.54 184.18 170.93 C 180.45 175.32 179.05 178.85 175.16 182.55 C 171.27 186.25 165.63 189.97 160.85 193.13 C 156.07 196.30 150.50 199.22 146.48 201.53 C 142.47 203.83 140.05 204.12 136.74 206.97 C 133.42 209.82 129.62 215.52 126.59 218.64 C 123.56 221.77 120.74 223.59 118.56 225.72 C 116.39 227.86 116.14 228.34 113.56 231.45 C 110.98 234.56 105.65 240.41 103.10 244.40 C 100.55 248.40 99.90 251.57 98.26 255.42 C 96.62 259.28 93.99 263.14 93.29 267.56 C 92.59 271.98 94.03 277.05 94.04 281.96 C 94.06 286.87 93.43 292.95 93.37 297.02 C 93.31 301.10 93.22 302.74 93.70 306.42 C 94.19 310.10 95.72 315.28 96.29 319.11 C 96.85 322.95 97.21 325.92 97.07 329.41 C 96.93 332.91 95.48 336.58 95.45 340.06 C 95.41 343.55 96.78 346.95 96.88 350.31 C 96.99 353.66 96.33 356.99 96.09 360.18 C 95.85 363.38 95.41 365.98 95.44 369.48 C 95.47 372.98 96.07 377.46 96.28 381.19 C 96.49 384.92 96.09 388.65 96.69 391.86 C 97.29 395.07 98.06 397.60 99.86 400.45 C 101.65 403.30 104.30 405.79 107.45 408.96 C 110.61 412.14 115.28 416.72 118.78 419.51 C 122.29 422.29 124.07 423.70 128.49 425.66 C 132.92 427.62 139.77 429.45 145.34 431.26 C 150.90 433.06 155.67 435.32 161.89 436.49 C 168.10 437.66 175.76 438.23 182.63 438.29 C 189.50 438.36 197.09 437.77 203.10 436.85 C 209.10 435.94 212.38 433.82 218.65 432.81 C 224.93 431.80 233.62 432.13 240.74 430.80 C 247.86 429.46 254.99 427.45 261.38 424.81 C 267.78 422.16 273.11 418.10 279.12 414.92 C 285.12 411.74 291.69 407.85 297.41 405.73 C 303.12 403.61 308.92 402.85 313.42 402.20 C 317.92 401.54 320.24 402.04 324.39 401.79 C 328.54 401.54 334.09 400.77 338.30 400.69 C 342.51 400.61 345.83 401.63 349.65 401.33 C 353.47 401.02 357.15 400.18 361.22 398.86 C 365.29 397.55 369.96 395.24 374.10 393.45 C 378.23 391.67 382.67 390.26 386.01 388.16 C 389.34 386.06 391.08 384.20 394.11 380.85 C 397.13 377.51 400.66 372.15 404.16 368.08 C 407.66 364.02 412.13 360.62 415.10 356.45 C 418.08 352.28 419.26 347.36 422.01 343.06 C 424.77 338.77 429.33 333.99 431.62 330.68 C 433.91 327.38 434.08 325.21 435.74 323.22 C 437.40 321.24 439.57 319.75 441.57 318.79 C 443.57 317.83 445.84 317.82 447.75 317.46 C 449.66 317.10 451.56 315.76 453.04 316.61 C 454.53 317.46 455.63 320.21 456.68 322.57 C 457.72 324.93 458.39 327.92 459.30 330.76 C 460.21 333.60 462.13 336.40 462.14 339.62 C 462.14 342.84 461.49 346.57 459.32 350.08 C 457.16 353.60 453.36 357.11 449.14 360.71 C 444.92 364.30 439.73 367.98 434.01 371.65 C 428.29 375.32 421.12 379.14 414.81 382.73 C 408.50 386.32 401.65 390.36 396.18 393.20 C 390.70 396.04 387.46 397.49 381.94 399.77 C 376.43 402.05 368.92 404.23 363.08 406.87 C 357.24 409.51 351.76 412.85 346.90 415.63 C 342.05 418.42 337.90 421.31 333.94 423.58 C 329.98 425.85 326.54 427.22 323.14 429.23 C 319.73 431.25 315.43 433.61 313.51 435.66 C 311.58 437.72 312.12 439.35 311.57 441.58 C 311.01 443.80 309.70 446.75 310.18 449.01 C 310.66 451.27 312.38 453.52 314.45 455.14 C 316.53 456.76 319.70 458.25 322.61 458.71 C 325.53 459.16 328.70 458.06 331.96 457.87 C 335.22 457.68 338.60 457.83 342.15 457.56 C 345.70 457.29 349.60 456.89 353.27 456.25 C 356.95 455.61 361.12 454.60 364.18 453.71 C 367.24 452.81 369.34 451.43 371.64 450.89 C 373.94 450.35 376.16 450.17 378.00 450.46 C 379.84 450.74 381.25 451.63 382.69 452.60 C 384.14 453.57 386.17 454.97 386.69 456.28 C 387.21 457.59 386.98 458.72 385.80 460.46 C 384.63 462.20 382.56 464.69 379.62 466.73 C 376.69 468.78 372.49 471.23 368.17 472.73 C 363.86 474.23 359.13 474.72 353.74 475.73 C 348.35 476.74 342.34 479.04 335.82 478.81 C 329.30 478.58 321.36 476.33 314.60 474.35 C 307.84 472.37 302.41 469.87 295.27 466.91 C 288.12 463.95 279.63 459.71 271.75 456.59 C 263.88 453.47 254.94 451.42 248.01 448.19 C 241.07 444.97 235.80 441.11 230.13 437.22 C 224.46 433.33 218.99 428.03 213.99 424.85 C 209.00 421.67 205.07 421.06 200.16 418.14 C 195.25 415.21 189.61 410.70 184.55 407.30 C 179.49 403.89 174.78 400.39 169.78 397.69 C 164.79 394.99 159.50 393.40 154.58 391.12 C 149.66 388.85 144.74 386.25 140.27 384.05 C 135.79 381.85 131.40 379.21 127.71 377.94 C 124.02 376.66 121.24 377.24 118.13 376.39 C 115.03 375.54 111.93 372.67 109.07 372.84 C 106.20 373.02 103.13 375.72 100.96 377.43 C 98.79 379.15 97.39 381.77 96.05 383.14 C 94.71 384.51 94.82 384.38 92.94 385.63 C 91.05 386.89 86.47 389.56 84.76 390.65 C 83.04 391.73 84.04 392.45 82.64 392.14 C 81.25 391.83 78.86 389.93 76.41 388.77 C 73.96 387.61 70.50 387.18 67.97 385.17 C 65.44 383.16 63.50 380.06 61.24 376.74 C 58.98 373.42 56.43 369.85 54.41 365.25 C 52.39 360.65 50.70 353.60 49.13 349.14 C 47.55 344.67 45.55 343.02 44.96 338.44 C 44.37 333.85 45.65 327.57 45.59 321.65 C 45.54 315.73 44.06 309.13 44.63 302.90 C 45.21 296.67 47.31 290.54 49.04 284.27 C 50.77 278.00 52.88 270.97 55.02 265.30 C 57.15 259.63 59.58 255.76 61.85 250.24 C 64.12 244.72 65.58 237.76 68.62 232.20 C 71.66 226.64 77.05 222.26 80.09 216.85 C 83.13 211.44 84.89 204.84 86.84 199.72 C 88.79 194.60 90.86 190.65 91.79 186.15 C 92.72 181.64 92.22 176.72 92.42 172.70 C 92.63 168.68 93.70 165.20 93.03 162.04 C 92.36 158.89 89.82 156.11 88.40 153.77 C 86.99 151.42 86.09 149.13 84.55 147.97 C 83.02 146.81 80.52 146.88 79.20 146.79 C 77.88 146.70 78.37 146.69 76.62 147.41 C 74.87 148.14 70.85 149.56 68.71 151.14 C 66.57 152.71 65.45 154.31 63.79 156.86 C 62.14 159.42 60.78 162.01 58.80 166.46 C 56.81 170.92 53.24 177.73 51.90 183.60 C 50.56 189.47 50.47 195.29 50.75 201.68 C 51.02 208.07 51.76 215.18 53.55 221.93 C 55.34 228.68 59.17 236.37 61.49 242.18 C 63.82 247.99 64.65 251.19 67.50 256.81 C 70.36 262.43 74.23 269.82 78.61 275.90 C 83.00 281.99 88.39 287.52 93.81 293.32 C 99.23 299.12 104.34 306.44 111.14 310.70 C 117.93 314.96 126.39 316.94 134.61 318.90 C 142.83 320.85 152.62 321.56 160.44 322.44 C 168.27 323.32 174.00 324.94 181.56 324.18 C 189.13 323.42 198.14 320.86 205.85 317.88 C 213.55 314.89 221.36 311.00 227.82 306.27 C 234.27 301.54 239.75 295.67 244.58 289.49 C 249.41 283.32 253.72 275.04 256.81 269.22 C 259.90 263.39 261.48 260.08 263.14 254.55 C 264.80 249.02 266.22 241.96 266.79 236.03 C 267.36 230.10 267.39 224.60 266.55 218.97 C 265.71 213.35 263.98 207.71 261.74 202.26 C 259.50 196.82 256.47 190.55 253.10 186.29 C 249.72 182.04 245.51 178.94 241.49 176.72 C 237.47 174.51 234.07 173.48 228.97 173.01 C 223.87 172.55 216.72 173.35 210.90 173.92 C 205.08 174.50 199.15 175.32 194.05 176.48 C 188.96 177.64 184.99 178.96 180.31 180.90 C 175.63 182.83 170.44 186.10 165.99 188.08 C 161.55 190.07 157.23 190.84 153.65 192.82 C 150.06 194.79 148.06 197.24 144.47 199.92 C 140.89 202.60 135.88 206.27 132.14 208.89 C 128.41 211.51 125.58 213.97 122.07 215.65 C 118.57 217.33 114.61 218.40 111.10 218.96 C 107.60 219.52 103.98 219.27 101.07 219.01 C 98.15 218.75 96.02 218.01 93.61 217.42 C 91.21 216.83 89.36 216.26 86.65 215.48 C 83.95 214.71 80.33 213.12 77.41 212.76 C 74.48 212.41 71.52 213.11 69.11 213.36 C 66.70 213.61 64.60 213.90 62.94 214.26 C 61.28 214.63 60.83 214.86 59.18 215.55 C 57.52 216.24 54.70 217.56 53.03 218.38 C 51.35 219.21 50.74 219.80 49.12 220.50 C 47.50 221.21 45.17 220.98 43.33 222.64 C 41.48 224.29 39.78 227.41 38.07 230.44 C 36.36 233.47 34.51 237.31 33.09 240.82 C 31.67 244.34 30.06 247.73 29.54 251.52 C 29.03 255.31 29.35 259.17 29.98 263.58 C 30.61 267.98 32.47 272.85 33.31 277.96 C 34.15 283.07 33.82 288.97 35.01 294.25 C 36.20 299.52 38.76 304.88 40.46 309.61 C 42.16 314.34 44.39 318.81 45.20 322.63 C 46.00 326.44 45.47 329.47 45.30 332.50 C 45.12 335.53 44.04 337.91 44.17 340.83 C 44.30 343.76 46.26 347.21 46.08 350.04 C 45.91 352.86 44.49 355.58 43.11 357.77 C 41.74 359.96 39.06 361.44 37.84 363.15 C 36.63 364.86 36.10 366.73 35.84 368.02 C 35.58 369.31 36.38 369.43 36.27 370.92 C 36.17 372.40 35.12 374.49 35.21 376.94 C 35.30 379.39 35.89 382.14 36.81 385.62 C 37.73 389.11 38.90 394.35 40.74 397.86 C 42.59 401.37 45.05 403.15 47.90 406.70 C 50.75 410.25 53.73 415.72 57.83 419.15 C 61.94 422.59 67.93 424.82 72.54 427.31 C 77.16 429.80 80.19 432.20 85.53 434.09 C 90.87 435.98 97.43 437.48 104.60 438.64 C 111.77 439.80 119.73 441.58 128.53 441.05 C 137.33 440.52 148.15 437.46 157.41 435.46 C 166.68 433.45 175.39 432.39 184.12 429.02 C 192.86 425.65 202.73 420.25 209.82 415.25 C 216.91 410.25 220.72 405.25 226.68 399.02 C 232.65 392.79 240.63 385.47 245.61 377.87 C 250.58 370.27 254.26 362.15 256.53 353.42 C 258.79 344.69 259.27 333.97 259.19 325.49 C 259.11 317.02 256.99 309.11 256.04 302.57 C 255.10 296.03 255.60 292.30 253.52 286.24 C 251.44 280.19 248.04 271.46 243.56 266.24 C 239.09 261.02 232.09 257.72 226.68 254.93 C 221.27 252.13 216.35 249.93 211.11 249.47 C 205.87 249.01 200.51 250.31 195.25 252.19 C 189.99 254.06 183.93 258.04 179.54 260.69 C 175.15 263.35 172.74 265.35 168.89 268.10 C 165.03 270.86 160.54 274.04 156.40 277.23 C 152.27 280.42 147.41 284.13 144.08 287.25 C 140.74 290.36 139.16 294.24 136.38 295.92 C 133.60 297.60 130.57 296.08 127.41 297.34 C 124.25 298.59 120.41 302.19 117.44 303.44 C 114.46 304.70 112.63 303.62 109.57 304.89 C 106.51 306.16 102.37 309.43 99.06 311.09 C 95.76 312.74 92.72 313.47 89.73 314.80 C 86.73 316.13 83.80 317.22 81.09 319.08 C 78.37 320.93 75.56 323.71 73.44 325.93 C 71.31 328.14 69.47 329.91 68.33 332.38 C 67.20 334.84 67.12 337.78 66.64 340.72 C 66.17 343.66 64.87 346.82 65.49 350.02 C 66.11 353.23 68.22 356.40 70.38 359.96 C 72.53 363.52 74.97 367.67 78.40 371.38 C 81.83 375.09 86.17 378.40 90.97 382.24 C 95.77 386.07 101.88 391.36 107.19 394.37 C 112.49 397.38 116.81 398.47 122.79 400.29 C 128.77 402.12 136.04 404.20 143.08 405.33 C 150.12 406.46 157.56 406.57 165.01 407.09 C 172.47 407.61 180.68 408.09 187.81 408.44 C 194.94 408.80 201.69 409.22 207.79 409.22 C 213.88 409.22 218.50 408.32 224.39 408.45 C 230.28 408.58 237.19 410.04 243.13 409.99 C 249.07 409.94 254.63 408.61 260.03 408.15 C 265.43 407.69 270.63 406.61 275.53 407.22 C 280.43 407.82 285.18 410.72 289.41 411.77 C 293.64 412.82 297.44 412.82 300.90 413.51 C 304.37 414.20 307.42 414.96 310.19 415.89 C 312.96 416.82 316.10 417.19 317.52 419.08 C 318.93 420.96 318.23 424.40 318.71 427.18 C 319.19 429.97 320.95 433.01 320.38 435.78 C 319.81 438.56 317.28 441.42 315.28 443.84 C 313.27 446.26 310.33 448.65 308.35 450.33 C 306.36 452.01 305.88 453.02 303.36 453.90 C 300.83 454.78 297.57 455.04 293.18 455.59 C 288.80 456.14 282.38 457.32 277.06 457.22 C 271.74 457.12 266.55 456.01 261.26 454.99 C 255.97 453.96 250.48 452.79 245.30 451.07 C 240.13 449.34 235.11 446.44 230.20 444.64 C 225.29 442.84 220.49 441.49 215.82 440.27 C 211.16 439.04 206.73 438.01 202.22 437.27 C 197.70 436.53 192.69 435.61 188.75 435.82 C 184.80 436.03 182.19 437.35 178.53 438.53 C 174.86 439.70 169.34 442.12 166.74 442.88 C 164.15 443.64 164.36 442.61 162.95 443.11 C 161.53 443.60 159.84 444.53 158.26 445.86 C 156.67 447.19 154.86 449.73 153.42 451.09 C 151.98 452.46 151.51 453.51 149.61 454.04 C 147.72 454.57 144.44 454.15 142.04 454.28 C 139.64 454.41 137.35 455.10 135.19 454.81 C 133.03 454.51 131.73 452.95 129.10 452.52 C 126.47 452.09 121.83 452.64 119.44 452.25 C 117.04 451.87 116.87 451.39 114.74 450.20 C 112.62 449.00 109.21 447.22 106.67 445.10 C 104.13 442.97 102.41 440.35 99.49 437.47 C 96.58 434.58 92.22 431.20 89.17 427.78 C 86.12 424.35 83.53 421.68 81.20 416.92 C 78.87 412.16 76.34 405.41 75.17 399.22 C 74.01 393.03 74.68 386.21 74.22 379.79 C 73.75 373.36 72.93 367.30 72.39 360.64 C 71.85 353.98 70.81 346.96 70.98 339.83 C 71.16 332.69 72.06 324.68 73.43 317.83 C 74.80 310.98 76.73 305.50 79.21 298.71 C 81.69 291.92 84.80 283.82 88.31 277.11 C 91.81 270.40 96.01 264.41 100.21 258.47 C 104.41 252.53 108.18 246.91 113.51 241.47 C 118.84 236.03 125.65 230.51 132.17 225.81 C 138.69 221.12 146.09 216.58 152.62 213.28 C 159.15 209.98 164.31 207.56 171.32 206.02 C 178.33 204.48 186.90 203.89 194.69 204.06 C 202.48 204.23 210.57 205.60 218.05 207.05 C 225.53 208.49 233.01 209.75 239.56 212.73 C 246.11 215.70 251.61 220.77 257.36 224.87 C 263.10 228.98 270.14 232.92 274.05 237.35 C 277.95 241.78 278.44 245.99 280.77 251.46 C 283.10 256.94 287.32 264.12 288.04 270.20 C 288.77 276.28 286.39 282.21 285.13 287.94 C 283.87 293.66 282.36 299.04 280.47 304.56 C 278.58 310.08 276.08 316.31 273.77 321.07 C 271.47 325.84 268.65 329.34 266.64 333.15 C 264.62 336.96 263.78 340.17 261.67 343.92 C 259.55 347.67 255.24 351.26 253.94 355.65 C 252.64 360.04 253.93 366.04 253.87 370.25 C 253.81 374.46 253.40 377.45 253.58 380.91 C 253.76 384.38 254.16 387.87 254.95 391.05 C 255.74 394.23 256.47 397.00 258.34 399.98 C 260.20 402.95 263.22 406.84 266.15 408.90 C 269.07 410.96 271.75 411.42 275.86 412.32 C 279.97 413.23 285.46 414.40 290.81 414.35 C 296.15 414.30 302.18 413.55 307.92 412.02 C 313.66 410.49 320.23 407.64 325.27 405.19 C 330.30 402.73 334.13 400.33 338.14 397.31 C 342.15 394.28 344.68 390.49 349.35 387.04 C 354.03 383.59 361.03 379.91 366.18 376.61 C 371.33 373.32 375.96 370.40 380.24 367.27 C 384.52 364.14 388.25 360.63 391.84 357.84 C 395.43 355.05 398.92 352.37 401.80 350.54 C 404.67 348.71 406.33 348.41 409.08 346.84 C 411.82 345.26 415.54 342.98 418.26 341.08 C 420.98 339.19 422.95 336.80 425.38 335.47 C 427.82 334.15 430.34 333.71 432.85 333.14 C 435.37 332.57 437.84 332.12 440.49 332.05 C 443.14 331.99 446.90 332.27 448.74 332.75 C 450.59 333.24 450.29 334.12 451.55 334.97 C 452.81 335.81 455.49 335.74 456.32 337.83 C 457.15 339.91 456.60 344.16 456.50 347.48 C 456.40 350.81 456.77 354.14 455.73 357.79 C 454.69 361.44 452.21 365.53 450.29 369.38 C 448.37 373.24 447.25 377.12 444.21 380.92 C 441.17 384.72 437.45 388.39 432.05 392.18 C 426.65 395.97 419.32 400.40 411.83 403.68 C 404.34 406.97 395.20 410.00 387.12 411.88 C 379.04 413.77 371.90 415.25 363.36 415.01 C 354.82 414.77 344.00 412.66 335.86 410.45 C 327.73 408.24 321.75 405.65 314.54 401.76 C 307.32 397.87 298.71 393.10 292.55 387.13 C 286.40 381.15 282.13 373.39 277.60 365.91 C 273.07 358.43 268.12 350.45 265.35 342.27 C 262.59 334.08 261.70 325.51 261.01 316.82 C 260.32 308.13 260.41 297.54 261.20 290.14 C 261.99 282.73 263.24 278.25 265.76 272.39 C 268.27 266.53 272.66 259.89 276.28 254.95 C 279.91 250.01 282.97 245.78 287.53 242.76 C 292.08 239.73 298.51 238.18 303.62 236.80 C 308.73 235.43 313.75 235.66 318.18 234.50 C 322.61 233.35 326.21 230.60 330.21 229.88 C 334.21 229.17 337.87 230.42 342.20 230.19 C 346.52 229.96 351.93 228.87 356.17 228.51 C 360.41 228.15 363.62 228.31 367.62 228.01 C 371.63 227.72 376.14 227.84 380.20 226.75 C 384.26 225.66 388.40 222.82 391.97 221.49 C 395.54 220.15 398.83 219.56 401.63 218.75 C 404.42 217.93 405.94 217.72 408.74 216.58 C 411.55 215.43 415.93 213.30 418.43 211.86 C 420.94 210.42 421.68 210.12 423.77 207.95 C 425.87 205.78 429.30 202.02 430.99 198.84 C 432.68 195.65 433.58 192.16 433.91 188.84 C 434.25 185.52 433.65 182.36 433.01 178.92 C 432.36 175.48 431.18 171.67 430.03 168.22 C 428.88 164.77 428.24 161.48 426.11 158.21 C 423.98 154.95 421.25 152.69 417.25 148.61 C 413.24 144.54 406.81 137.94 402.07 133.75 C 397.34 129.56 393.23 126.55 388.82 123.47 C 384.40 120.39 381.18 117.90 375.61 115.28 C 370.03 112.66 361.40 109.93 355.35 107.78 C 349.30 105.63 345.20 104.04 339.32 102.36 C 333.43 100.67 326.92 97.75 320.04 97.68 C 313.15 97.62 305.26 100.33 298.00 101.95 C 290.74 103.57 283.17 104.61 276.48 107.41 C 269.80 110.21 264.01 114.20 257.92 118.74 C 251.82 123.29 246.13 129.39 239.92 134.68 C 233.70 139.97 226.64 145.74 220.63 150.50 C 214.62 155.25 208.98 159.91 203.86 163.20 C 198.73 166.49 194.82 168.31 189.89 170.22 C 184.97 172.13 178.66 173.66 174.31 174.66 C 169.96 175.65 167.35 176.06 163.79 176.17 C 160.23 176.28 156.96 175.39 152.94 175.30 C 148.92 175.21 143.39 175.57 139.68 175.65 C 135.97 175.72 133.61 176.04 130.70 175.75 C 127.79 175.46 125.73 174.40 122.23 173.91 C 118.72 173.42 113.21 173.10 109.65 172.81 C 106.08 172.52 103.44 172.65 100.86 172.15 C 98.28 171.65 96.22 170.25 94.16 169.81 C 92.10 169.37 91.14 169.66 88.52 169.49 C 85.90 169.33 81.52 169.18 78.45 168.81 C 75.39 168.45 72.25 167.66 70.14 167.31 C 68.02 166.95 67.19 167.48 65.76 166.71 C 64.32 165.93 62.77 164.16 61.53 162.65 C 60.29 161.13 58.89 160.03 58.30 157.62 C 57.71 155.21 57.79 150.91 58.00 148.21 C 58.20 145.51 58.97 144.05 59.51 141.43 C 60.05 138.81 60.50 134.67 61.25 132.50 C 61.99 130.33 63.62 130.74 63.98 128.40 C 64.35 126.07 63.62 121.01 63.46 118.47 C 63.29 115.93 63.06 114.91 62.99 113.17 C 62.93 111.43 63.30 109.33 63.06 108.02 C 62.83 106.70 62.36 106.32 61.60 105.30 C 60.83 104.29 59.02 102.87 58.47 101.94 C 57.92 101.02 59.24 100.37 58.29 99.75 C 57.34 99.12 53.57 98.31 52.76 98.19 C 51.96 98.07 53.31 99.39 53.47 99.04 C 53.62 98.70 53.13 97.58 53.69 96.14 C 54.25 94.69 56.29 92.87 56.85 90.37 C 57.40 87.87 56.74 83.53 57.04 81.14 C 57.33 78.74 57.95 77.90 58.64 76.01 C 59.33 74.12 60.51 71.27 61.16 69.79 C 61.82 68.31 62.26 68.55 62.56 67.15 C 62.87 65.74 62.68 62.57 62.99 61.35 C 63.30 60.12 64.28 60.33 64.44 59.80 C 64.60 59.27 64.44 58.42 63.94 58.18 C 63.45 57.94 61.45 58.47 61.47 58.35 C 61.48 58.23 63.46 57.96 64.02 57.47 C 64.58 56.99 64.53 56.31 64.83 55.45 C 65.14 54.60 64.99 53.32 65.86 52.36 C 66.74 51.39 68.21 50.61 70.09 49.64 C 71.96 48.67 74.55 48.21 77.12 46.56 C 79.69 44.92 81.74 41.95 85.51 39.76 C 89.28 37.56 95.45 34.90 99.74 33.38 C 104.02 31.85 106.35 31.53 111.21 30.62 C 116.07 29.70 122.18 28.57 128.89 27.89 C 135.60 27.21 144.93 26.28 151.48 26.53 C 158.03 26.79 161.83 27.69 168.19 29.44 C 174.54 31.18 182.36 34.11 189.60 37.03 C 196.85 39.95 204.36 43.85 211.65 46.97 C 218.94 50.08 226.30 51.71 233.34 55.73 C 240.37 59.74 247.55 65.11 253.87 71.06 C 260.19 77.01 266.57 85.37 271.27 91.42 C 275.97 97.47 278.31 100.77 282.08 107.35 C 285.85 113.93 290.30 122.95 293.89 130.88 C 297.48 138.82 301.53 146.69 303.63 154.95 C 305.73 163.21 306.27 172.36 306.49 180.46 C 306.71 188.56 305.85 195.90 304.97 203.55 C 304.09 211.19 303.35 219.63 301.22 226.33 C 299.09 233.03 295.66 238.26 292.19 243.74 C 288.73 249.23 285.25 254.55 280.44 259.21 C 275.63 263.88 269.18 268.40 263.33 271.72 C 257.48 275.04 251.41 278.02 245.34 279.13 C 239.27 280.24 232.76 279.33 226.89 278.39 C 221.03 277.46 214.78 276.04 210.16 273.49 C 205.54 270.94 202.66 267.53 199.18 263.08 C 195.70 258.63 191.88 251.96 189.28 246.79 C 186.67 241.62 184.85 237.43 183.55 232.06 C 182.25 226.68 181.82 220.13 181.46 214.54 C 181.11 208.94 181.17 203.44 181.43 198.50 C 181.69 193.56 181.77 189.45 183.03 184.91 C 184.28 180.36 187.22 175.79 188.95 171.24 C 190.69 166.70 191.82 162.20 193.44 157.62 C 195.06 153.03 197.19 147.98 198.66 143.73 C 200.14 139.47 200.95 136.36 202.31 132.10 C 203.67 127.85 205.43 121.92 206.85 118.20 C 208.27 114.48 209.92 112.87 210.82 109.77 C 211.72 106.66 211.33 102.50 212.26 99.55 C 213.20 96.60 214.75 95.15 216.45 92.05 C 218.14 88.96 220.73 84.21 222.42 81.00 C 224.12 77.78 225.20 75.30 226.62 72.77 C 228.04 70.24 229.91 67.79 230.92 65.82 C 231.93 63.85 231.61 62.65 232.68 60.94 C 233.76 59.22 235.99 57.56 237.38 55.55 C 238.77 53.54 240.45 50.88 241.02 48.89 C 241.58 46.89 241.93 45.04 240.75 43.57 C 239.57 42.11 236.84 41.41 233.95 40.10 C 231.06 38.79 226.48 36.64 223.42 35.71 C 220.35 34.79 219.42 34.42 215.57 34.57 C 211.73 34.71 205.20 34.97 200.35 36.57 C 195.50 38.17 191.12 41.44 186.49 44.17 C 181.85 46.90 177.37 49.16 172.53 52.94 C 167.70 56.71 161.61 61.38 157.47 66.83 C 153.33 72.28 150.66 79.98 147.67 85.63 C 144.67 91.28 142.11 94.63 139.48 100.72 C 136.85 106.82 134.02 114.70 131.88 122.20 C 129.75 129.70 127.96 137.70 126.66 145.72 C 125.36 153.74 124.75 162.64 124.08 170.32 C 123.42 178.00 123.27 185.63 122.69 191.79 C 122.10 197.95 121.51 201.42 120.56 207.29 C 119.62 213.16 117.75 220.41 117.00 226.99 C 116.26 233.57 116.78 240.87 116.11 246.77 C 115.45 252.68 114.02 257.39 113.01 262.42 C 112.00 267.44 111.07 272.35 110.04 276.92 C 109.01 281.49 108.53 286.86 106.84 289.84 C 105.15 292.82 102.52 293.29 99.92 294.79 C 97.31 296.30 94.31 297.98 91.22 298.87 C 88.14 299.76 84.26 300.94 81.40 300.14 C 78.54 299.34 76.60 296.06 74.05 294.07 C 71.51 292.09 68.06 291.13 66.12 288.24 C 64.18 285.35 63.58 280.20 62.43 276.74 C 61.27 273.28 60.55 271.18 59.19 267.46 C 57.83 263.75 56.07 258.33 54.28 254.47 C 52.49 250.61 49.76 247.86 48.45 244.30 C 47.13 240.74 47.31 236.11 46.40 233.13 C 45.49 230.14 43.87 228.88 42.98 226.37 C 42.08 223.87 41.82 220.04 41.04 218.11 C 40.25 216.17 39.42 215.70 38.25 214.77 C 37.08 213.84 35.34 212.70 33.99 212.52 C 32.64 212.34 31.29 212.42 30.15 213.67 C 29.01 214.93 28.33 218.01 27.16 220.06 C 25.98 222.10 24.26 223.45 23.09 225.96 C 21.91 228.47 20.68 231.68 20.08 235.11 C 19.49 238.55 19.81 242.96 19.50 246.59 C 19.19 250.23 18.57 254.32 18.22 256.92 C 17.87 259.51 17.82 260.00 17.41 262.19 C 17.01 264.37 16.41 267.99 15.80 270.02 C 15.19 272.05 14.30 272.83 13.76 274.36 C 13.22 275.88 13.35 277.59 12.56 279.17 C 11.77 280.74 9.73 282.33 9.02 283.79 C 8.31 285.24 8.35 286.86 8.29 287.89 C 8.23 288.93 8.67 289.06 8.66 290.00 C 8.65 290.94 8.39 292.01 8.26 293.53 C 8.12 295.06 8.14 296.80 7.84 299.15 C 7.53 301.50 6.73 304.97 6.45 307.63 C 6.16 310.29 6.22 312.52 6.13 315.10 C 6.04 317.68 5.59 320.06 5.93 323.09 C 6.27 326.12 7.04 329.79 8.18 333.31 C 9.32 336.82 11.08 340.11 12.78 344.17 C 14.49 348.22 16.21 353.15 18.40 357.65 C 20.58 362.16 22.44 367.31 25.89 371.21 C 29.35 375.11 34.18 377.25 39.13 381.05 C 44.07 384.86 49.47 390.36 55.57 394.03 C 61.67 397.69 68.32 400.22 75.75 403.07 C 83.18 405.92 91.89 409.16 100.15 411.10 C 108.40 413.04 117.89 414.05 125.29 414.73 C 132.69 415.42 137.18 416.69 144.53 415.21 C 151.87 413.72 161.18 408.86 169.37 405.81 C 177.56 402.76 185.88 400.92 193.67 396.90 C 201.46 392.87 209.19 387.45 216.12 381.65 C 223.04 375.85 230.03 367.96 235.23 362.09 C 240.43 356.21 243.69 352.84 247.31 346.40 C 250.93 339.96 254.33 331.13 256.97 323.43 C 259.60 315.74 262.62 307.53 263.12 300.24 C 263.62 292.95 261.04 286.31 259.96 279.70 C 258.89 273.08 258.14 266.69 256.68 260.54 C 255.22 254.39 253.18 247.91 251.19 242.80 C 249.21 237.68 246.75 234.75 244.77 229.85 C 242.79 224.94 240.57 218.35 239.33 213.36 C 238.09 208.37 237.90 204.74 237.34 199.92 C 236.77 195.10 235.75 189.26 235.95 184.46 C 236.14 179.65 237.65 176.07 238.51 171.09 C 239.37 166.12 240.37 159.14 241.11 154.61 C 241.85 150.09 242.55 147.85 242.95 143.95 C 243.35 140.05 243.51 135.40 243.51 131.21 C 243.52 127.02 242.67 122.56 242.98 118.80 C 243.29 115.05 245.78 111.41 245.37 108.68 C 244.96 105.96 242.41 104.95 240.51 102.46 C 238.62 99.97 235.70 96.45 234.00 93.73 C 232.30 91.00 232.36 88.26 230.31 86.11 C 228.26 83.97 224.12 82.78 221.72 80.86 C 219.31 78.94 218.96 76.32 215.86 74.58 C 212.77 72.84 207.30 70.97 203.16 70.41 C 199.02 69.86 195.16 71.03 191.02 71.26 C 186.88 71.50 182.71 71.02 178.31 71.83 C 173.92 72.64 169.52 74.19 164.65 76.12 C 159.78 78.05 153.68 80.27 149.08 83.43 C 144.49 86.58 140.93 90.38 137.09 95.04 C 133.24 99.70 129.49 105.49 125.99 111.38 C 122.49 117.26 118.27 124.53 116.09 130.35 C 113.91 136.17 114.24 140.17 112.91 146.29 C 111.59 152.41 109.22 159.77 108.16 167.05 C 107.09 174.34 107.32 182.52 106.53 189.99 C 105.74 197.45 104.12 204.91 103.44 211.86 C 102.75 218.80 102.93 225.31 102.41 231.66 C 101.89 238.02 100.78 244.78 100.31 249.98 C 99.83 255.17 100.03 258.46 99.56 262.82 C 99.10 267.19 98.57 272.18 97.50 276.16 C 96.44 280.14 93.89 282.89 93.17 286.70 C 92.45 290.52 93.98 295.40 93.19 299.06 C 92.39 302.73 89.69 305.93 88.42 308.70 C 87.15 311.48 86.31 312.98 85.59 315.71 C 84.86 318.45 84.05 321.64 84.05 325.12 C 84.05 328.59 84.39 332.10 85.59 336.55 C 86.79 341.01 88.94 347.09 91.27 351.84 C 93.59 356.59 96.43 360.69 99.55 365.04 C 102.66 369.39 106.26 373.80 109.95 377.94 C 113.65 382.09 117.91 386.55 121.72 389.92 C 125.54 393.29 128.49 395.01 132.83 398.15 C 137.17 401.30 142.43 406.02 147.75 408.79 C 153.07 411.56 159.21 413.18 164.75 414.79 C 170.28 416.41 175.45 417.37 180.97 418.47 C 186.50 419.57 192.23 420.35 197.90 421.37 C 203.57 422.38 209.89 424.11 215.00 424.56 C 220.11 425.01 223.43 423.97 228.56 424.06 C 233.69 424.15 240.08 424.52 245.78 425.07 C 251.48 425.62 257.87 426.69 262.74 427.35 C 267.62 428.02 271.10 427.75 275.02 429.05 C 278.95 430.36 283.39 433.52 286.30 435.16 C 289.20 436.81 289.45 437.76 292.46 438.92 C 295.47 440.08 300.02 441.70 304.37 442.13 C 308.73 442.57 314.61 441.15 318.59 441.54 C 322.57 441.92 325.07 444.01 328.26 444.43 C 331.46 444.86 334.64 444.03 337.76 444.11 C 340.87 444.19 344.32 444.60 346.96 444.90 C 349.59 445.21 351.51 445.40 353.58 445.94 C 355.65 446.48 357.20 447.59 359.40 448.13 C 361.59 448.67 365.00 448.32 366.75 449.18 C 368.50 450.04 370.08 452.00 369.90 453.28 C 369.73 454.56 367.41 455.48 365.71 456.86 C 364.01 458.24 361.92 460.15 359.69 461.56 C 357.45 462.97 355.18 464.07 352.32 465.30 C 349.46 466.53 346.37 467.76 342.54 468.92 C 338.72 470.09 334.47 471.25 329.37 472.28 C 324.27 473.32 317.95 475.19 311.92 475.12 C 305.89 475.06 299.43 473.21 293.18 471.89 C 286.93 470.56 279.98 469.07 274.42 467.17 C 268.85 465.27 265.23 463.21 259.80 460.47 C 254.38 457.73 248.16 454.39 241.88 450.73 C 235.60 447.08 228.46 442.10 222.13 438.56 C 215.80 435.02 209.80 432.83 203.91 429.49 C 198.02 426.14 191.74 421.12 186.78 418.49 C 181.82 415.86 177.99 415.17 174.15 413.73 C 170.30 412.29 167.86 411.42 163.71 409.88 C 159.56 408.34 153.53 406.35 149.25 404.50 C 144.96 402.64 141.63 400.06 138.00 398.73 C 134.36 397.40 130.86 397.41 127.45 396.52 C 124.03 395.62 120.63 395.06 117.49 393.38 C 114.36 391.69 111.67 389.38 108.63 386.40 C 105.60 383.41 102.78 378.94 99.28 375.47 C 95.78 371.99 90.73 369.27 87.63 365.55 C 84.54 361.84 83.14 356.97 80.70 353.16 C 78.26 349.35 75.18 346.16 72.99 342.68 C 70.80 339.20 68.92 335.63 67.56 332.30 C 66.21 328.98 66.55 326.04 64.88 322.73 C 63.20 319.42 59.59 314.96 57.52 312.44 C 55.45 309.92 54.49 309.28 52.45 307.60 C 50.40 305.91 47.42 303.89 45.26 302.35 C 43.09 300.80 41.47 300.06 39.47 298.33 C 37.46 296.61 34.47 293.56 33.23 292.01 C 32.00 290.45 33.03 289.64 32.05 289.01 C 31.08 288.39 28.80 288.82 27.37 288.27 C 25.95 287.71 24.98 286.76 23.48 285.69 C 21.99 284.61 19.99 283.55 18.43 281.81 C 16.86 280.06 15.50 276.53 14.09 275.20 C 12.67 273.86 11.31 274.62 9.93 273.80 C 8.55 272.99 6.43 271.76 5.81 270.30 C 5.18 268.83 6.56 266.49 6.17 265.03 C 5.78 263.56 4.48 262.85 3.45 261.53 C 2.43 260.20 -5.27 258.09 0.02 257.08 C 5.31 256.08 23.77 256.11 35.20 255.51 C 46.63 254.91 59.36 254.48 68.61 253.49 C 77.86 252.49 82.30 251.12 90.70 249.52 C 99.10 247.93 109.60 245.78 119.03 243.91 C 128.47 242.03 138.19 239.42 147.32 238.29 C 156.45 237.16 165.24 237.07 173.80 237.11 C 182.36 237.14 191.54 238.65 198.66 238.51 C 205.79 238.36 210.36 235.72 216.55 236.23 C 222.74 236.74 229.11 239.11 235.82 241.57 C 242.53 244.03 250.63 247.39 256.81 250.97 C 262.99 254.54 267.75 258.86 272.87 263.01 C 278.00 267.17 283.58 271.35 287.56 275.90 C 291.54 280.45 294.04 285.89 296.76 290.34 C 299.48 294.79 301.98 298.22 303.85 302.60 C 305.72 306.98 307.12 312.13 307.97 316.61 C 308.82 321.10 309.54 324.81 308.94 329.52 C 308.34 334.24 306.07 340.34 304.40 344.91 C 302.73 349.48 301.52 353.24 298.94 356.92 C 296.36 360.59 292.75 363.95 288.91 366.95 C 285.07 369.94 280.52 372.61 275.90 374.90 C 271.28 377.19 266.44 378.95 261.19 380.69 C 255.94 382.43 249.24 384.52 244.38 385.32 C 239.52 386.12 236.26 384.65 232.04 385.47 C 227.82 386.30 223.64 388.98 219.08 390.27 C 214.52 391.56 208.36 392.34 204.68 393.23 C 201.01 394.11 199.58 394.31 197.03 395.58 C 194.47 396.86 192.14 398.91 189.37 400.90 C 186.61 402.90 182.67 405.44 180.43 407.57 C 178.19 409.70 177.63 411.66 175.94 413.69 C 174.25 415.71 172.07 417.91 170.28 419.72 C 168.48 421.53 167.16 422.76 165.17 424.54 C 163.17 426.32 160.51 429.29 158.30 430.42 C 156.09 431.55 154.40 431.66 151.90 431.33 C 149.41 431.00 146.89 429.87 143.34 428.43 C 139.78 426.98 134.57 426.12 130.57 422.65 C 126.57 419.18 122.46 412.21 119.31 407.61 C 116.17 403.01 114.55 400.42 111.71 395.04 C 108.87 389.66 104.70 381.74 102.27 375.34 C 99.84 368.94 97.65 363.28 97.11 356.65 C 96.58 350.01 98.02 343.09 99.06 335.51 C 100.11 327.92 101.38 319.02 103.39 311.16 C 105.40 303.29 108.44 295.21 111.12 288.33 C 113.80 281.45 114.83 275.76 119.45 269.88 C 124.08 263.99 131.88 258.15 138.87 253.01 C 145.86 247.88 153.99 242.31 161.39 239.06 C 168.80 235.80 175.65 234.57 183.30 233.51 C 190.95 232.44 199.33 232.38 207.29 232.66 C 215.24 232.95 224.42 233.94 231.02 235.24 C 237.62 236.54 241.15 238.51 246.89 240.46 C 252.63 242.41 259.26 245.36 265.45 246.93 C 271.63 248.50 278.07 249.33 284.01 249.91 C 289.95 250.48 295.27 250.55 301.08 250.39 C 306.88 250.23 313.52 249.69 318.84 248.93 C 324.16 248.17 328.89 246.81 332.98 245.84 C 337.06 244.88 339.55 244.13 343.34 243.14 C 347.12 242.14 351.51 241.33 355.68 239.88 C 359.84 238.42 364.19 236.07 368.34 234.42 C 372.48 232.76 376.69 231.75 380.56 229.96 C 384.44 228.18 388.00 225.01 391.60 223.71 C 395.20 222.41 398.72 222.52 402.15 222.16 C 405.57 221.79 409.20 221.37 412.17 221.50 C 415.14 221.62 417.15 222.07 419.98 222.91 C 422.81 223.75 426.90 224.96 429.15 226.55 C 431.40 228.13 431.80 229.89 433.48 232.40 C 435.16 234.92 437.61 238.63 439.24 241.64 C 440.88 244.65 442.14 246.70 443.29 250.45 C 444.45 254.20 446.36 258.83 446.16 264.12 C 445.97 269.41 443.21 276.90 442.13 282.19 C 441.05 287.49 440.67 291.16 439.68 295.91 C 438.70 300.66 437.53 305.79 436.22 310.68 C 434.92 315.57 432.41 320.90 431.86 325.25 C 431.32 329.59 432.26 332.86 432.97 336.76 C 433.68 340.66 434.84 345.36 436.14 348.64 C 437.45 351.92 439.06 354.15 440.82 356.45 C 442.58 358.75 444.59 361.40 446.71 362.47 C 448.82 363.53 451.68 363.09 453.48 362.84 C 455.28 362.59 456.39 362.04 457.51 360.97 C 458.62 359.89 458.48 358.36 460.18 356.39 C 461.88 354.43 465.75 351.89 467.68 349.15 C 469.61 346.41 470.38 343.90 471.76 339.97 C 473.14 336.03 475.16 330.46 475.97 325.53 C 476.78 320.60 476.78 316.35 476.61 310.37 C 476.43 304.38 475.79 295.60 474.93 289.61 C 474.07 283.63 473.32 280.41 471.44 274.45 C 469.57 268.48 465.94 260.69 463.68 253.80 C 461.42 246.91 460.78 239.35 457.87 233.10 C 454.96 226.85 450.84 221.67 446.23 216.30 C 441.61 210.93 436.06 205.86 430.19 200.89 C 424.32 195.93 416.49 190.31 411.00 186.51 C 405.51 182.70 403.32 180.57 397.25 178.06 C 391.19 175.55 382.51 173.32 374.63 171.45 C 366.74 169.59 358.16 167.69 349.92 166.87 C 341.69 166.05 333.19 165.66 325.23 166.54 C 317.26 167.42 308.70 170.23 302.13 172.16 C 295.55 174.08 292.19 175.88 285.77 178.09 C 279.35 180.29 270.62 183.05 263.62 185.38 C 256.62 187.72 250.33 190.09 243.77 192.09 C 237.21 194.10 230.50 195.99 224.25 197.42 C 218.00 198.85 212.05 199.86 206.27 200.68 C 200.49 201.50 194.73 201.91 189.54 202.32 C 184.36 202.73 179.75 203.09 175.16 203.16 C 170.57 203.23 166.02 203.60 162.03 202.73 C 158.05 201.86 155.30 198.99 151.25 197.94 C 147.21 196.90 141.62 196.60 137.76 196.46 C 133.91 196.31 131.98 196.57 128.14 197.10 C 124.31 197.62 118.33 198.58 114.75 199.61 C 111.17 200.63 109.62 201.83 106.66 203.23 C 103.69 204.63 99.99 205.88 96.94 208.00 C 93.90 210.12 90.78 213.22 88.37 215.96 C 85.95 218.70 85.04 221.62 82.44 224.45 C 79.84 227.27 75.22 230.42 72.76 232.91 C 70.31 235.40 69.66 237.29 67.73 239.39 C 65.79 241.49 63.27 243.51 61.14 245.52 C 59.01 247.54 56.90 249.69 54.96 251.47 C 53.01 253.25 51.01 254.05 49.47 256.19 C 47.93 258.32 47.16 261.92 45.73 264.28 C 44.31 266.65 41.88 267.80 40.93 270.41 C 39.97 273.01 40.59 277.29 40.01 279.92 C 39.44 282.54 38.24 283.45 37.48 286.15 C 36.72 288.85 35.48 292.66 35.44 296.10 C 35.39 299.55 36.64 303.38 37.22 306.83 C 37.79 310.28 37.82 313.57 38.88 316.80 C 39.95 320.04 43.08 323.31 43.61 326.23 C 44.14 329.16 42.48 331.52 42.07 334.36 C 41.67 337.20 41.70 340.96 41.20 343.27 C 40.69 345.58 40.31 346.72 39.07 348.21 C 37.83 349.70 35.01 351.47 33.74 352.19 C 32.48 352.90 32.84 352.48 31.48 352.48 C 30.13 352.48 27.03 353.09 25.62 352.18 C 24.20 351.28 24.34 349.45 23.00 347.07 C 21.66 344.69 18.94 341.80 17.59 337.89 C 16.24 333.99 15.83 329.11 14.89 323.65 C 13.96 318.19 12.28 311.16 12.00 305.12 C 11.73 299.07 11.87 293.61 13.24 287.39 C 14.61 281.17 18.26 273.24 20.24 267.80 C 22.22 262.36 23.30 259.75 25.13 254.74 C 26.96 249.73 29.14 243.27 31.22 237.72 C 33.30 232.18 35.23 226.63 37.62 221.47 C 40.01 216.31 43.35 211.79 45.56 206.75 C 47.77 201.72 49.65 196.00 50.86 191.25 C 52.06 186.50 51.79 181.94 52.79 178.28 C 53.80 174.62 55.03 173.05 56.90 169.28 C 58.77 165.50 61.94 160.10 64.00 155.62 C 66.05 151.15 66.41 146.54 69.22 142.42 C 72.04 138.29 76.64 135.00 80.88 130.87 C 85.12 126.73 89.63 121.55 94.68 117.60 C 99.73 113.66 106.03 110.36 111.17 107.20 C 116.31 104.04 120.53 101.88 125.51 98.64 C 130.49 95.40 135.47 90.68 141.04 87.77 C 146.60 84.86 153.46 83.42 158.89 81.20 C 164.32 78.98 169.20 76.21 173.64 74.44 C 178.07 72.66 182.47 72.04 185.51 70.56 C 188.54 69.08 189.36 67.73 191.86 65.57 C 194.35 63.41 198.14 59.97 200.47 57.61 C 202.80 55.25 204.94 53.58 205.85 51.40 C 206.77 49.22 206.01 46.29 205.96 44.53 C 205.91 42.76 206.34 42.14 205.55 40.82 C 204.75 39.51 203.02 37.66 201.20 36.65 C 199.39 35.64 197.43 34.99 194.68 34.77 C 191.93 34.54 188.00 35.17 184.69 35.30 C 181.39 35.43 178.05 34.86 174.83 35.55 C 171.61 36.23 168.32 39.06 165.37 39.41 C 162.41 39.76 159.82 38.10 157.10 37.67 C 154.38 37.23 151.45 36.91 149.05 36.79 C 146.64 36.67 144.25 37.25 142.68 36.94 C 141.11 36.62 140.23 35.53 139.64 34.90 C 139.05 34.27 139.04 34.30 139.14 33.15 C 139.24 32.00 139.47 29.62 140.25 28.00 C 141.03 26.38 142.89 24.87 143.80 23.45 C 144.71 22.03 144.37 20.70 145.70 19.49 C 147.03 18.29 150.23 17.21 151.78 16.23 C 153.34 15.26 154.58 14.38 155.04 13.64 C 155.50 12.90 155.27 12.29 154.53 11.77 C 153.78 11.26 152.03 10.77 150.56 10.56 C 149.09 10.34 146.97 10.67 145.70 10.49 C 144.43 10.31 143.99 9.71 142.94 9.48 C 141.88 9.26 140.95 9.16 139.38 9.13 C 137.82 9.10 135.76 8.81 133.57 9.28 C 131.37 9.75 128.68 10.14 126.22 11.96 C 123.76 13.78 121.44 16.93 118.80 20.20 C 116.16 23.47 112.99 28.39 110.39 31.59 C 107.79 34.79 106.38 36.17 103.22 39.42 C 100.06 42.67 94.68 46.67 91.43 51.07 C 88.18 55.48 86.21 60.15 83.73 65.86 C 81.24 71.56 78.75 78.30 76.51 85.31 C 74.27 92.32 71.32 100.06 70.31 107.92 C 69.29 115.77 69.78 124.87 70.45 132.44 C 71.11 140.01 72.04 145.86 74.30 153.32 C 76.56 160.79 80.13 169.79 84.01 177.24 C 87.89 184.70 92.33 191.27 97.58 198.05 C 102.83 204.83 108.64 211.45 115.50 217.92 C 122.37 224.39 131.61 232.04 138.76 236.89 C 145.90 241.73 152.01 243.73 158.36 247.02 C 164.70 250.30 169.77 254.43 176.82 256.59 C 183.87 258.75 193.11 258.92 200.67 259.99 C 208.23 261.06 215.44 261.79 222.18 263.03 C 228.93 264.27 234.88 265.94 241.13 267.45 C 247.38 268.97 253.39 270.37 259.69 272.11 C 265.99 273.86 273.42 276.09 278.94 277.93 C 284.46 279.78 287.95 280.79 292.80 283.20 C 297.65 285.61 303.93 289.10 308.04 292.41 C 312.15 295.71 315.28 299.23 317.45 303.04 C 319.62 306.84 320.19 310.58 321.06 315.26 C 321.93 319.94 323.43 326.26 322.67 331.09 C 321.90 335.93 318.59 340.22 316.47 344.26 C 314.35 348.30 312.82 351.50 309.95 355.34 C 307.08 359.17 303.86 364.21 299.24 367.27 C 294.63 370.34 288.56 372.97 282.25 373.74 C 275.95 374.51 268.25 372.80 261.42 371.90 C 254.58 370.99 246.79 370.43 241.22 368.29 C 235.65 366.16 232.96 362.95 228.00 359.07 C 223.04 355.18 215.97 350.53 211.43 344.99 C 206.90 339.46 203.79 332.22 200.77 325.85 C 197.74 319.48 194.59 312.97 193.28 306.79 C 191.96 300.61 193.02 295.40 192.89 288.75 C 192.77 282.10 191.67 273.45 192.51 266.88 C 193.34 260.31 195.09 254.93 197.89 249.32 C 200.69 243.71 204.77 238.16 209.29 233.22 C 213.81 228.27 219.64 223.68 225.01 219.67 C 230.38 215.65 235.87 212.33 241.50 209.14 C 247.12 205.95 252.91 201.93 258.77 200.53 C 264.62 199.13 271.17 200.42 276.61 200.76 C 282.05 201.10 285.91 201.42 291.42 202.58 C 296.94 203.75 304.21 205.24 309.70 207.77 C 315.20 210.30 319.78 214.12 324.38 217.76 C 328.98 221.41 333.90 224.87 337.30 229.65 C 340.70 234.42 342.91 240.61 344.77 246.43 C 346.64 252.26 348.36 259.08 348.49 264.62 C 348.62 270.16 347.73 274.14 345.56 279.70 C 343.38 285.26 339.02 292.76 335.45 297.99 C 331.87 303.22 328.74 307.03 324.14 311.09 C 319.54 315.15 313.47 319.50 307.85 322.35 C 302.23 325.20 296.47 326.58 290.41 328.18 C 284.34 329.78 277.14 330.96 271.45 331.94 C 265.76 332.92 261.97 333.55 256.25 334.05 C 250.52 334.55 242.68 335.00 237.10 334.94 C 231.53 334.89 227.71 334.15 222.80 333.71 C 217.89 333.27 213.14 332.19 207.64 332.29 C 202.15 332.39 194.37 333.30 189.84 334.30 C 185.31 335.30 184.68 337.45 180.48 338.29 C 176.28 339.13 169.32 338.89 164.66 339.35 C 160.00 339.80 156.53 340.91 152.50 341.04 C 148.47 341.18 144.82 340.64 140.47 340.16 C 136.11 339.67 130.57 339.35 126.37 338.13 C 122.17 336.92 118.49 335.10 115.28 332.90 C 112.07 330.69 109.95 327.46 107.12 324.93 C 104.29 322.41 101.21 319.98 98.31 317.74 C 95.41 315.51 92.52 314.12 89.73 311.50 C 86.95 308.87 83.88 305.27 81.61 302.01 C 79.34 298.76 78.24 294.90 76.11 291.95 C 73.97 289.00 71.05 286.42 68.82 284.30 C 66.58 282.17 64.90 281.13 62.71 279.20 C 60.53 277.27 57.53 274.86 55.71 272.72 C 53.88 270.58 53.16 268.24 51.78 266.34 C 50.40 264.44 48.96 262.93 47.41 261.32 C 45.85 259.71 44.00 258.14 42.46 256.68 C 40.92 255.22 39.57 253.75 38.17 252.54 C 36.76 251.33 35.23 251.40 34.02 249.42 C 32.80 247.44 32.34 243.22 30.88 240.67 C 29.41 238.13 26.51 236.52 25.23 234.14 C 23.94 231.76 24.26 228.57 23.19 226.40 C 22.12 224.23 20.19 222.35 18.80 221.13 C 17.42 219.90 15.87 219.75 14.87 219.07 C 13.87 218.38 14.09 217.05 12.82 217.00 C 11.55 216.96 8.88 217.67 7.23 218.80 C 5.57 219.93 4.00 221.45 2.87 223.77 C 1.75 226.09 -1.33 229.29 0.48 232.71 C 2.30 236.12 7.05 241.18 13.79 244.25 C 20.52 247.32 31.23 248.74 40.91 251.14 C 50.59 253.54 61.60 256.70 71.87 258.65 C 82.14 260.61 92.38 261.75 102.52 262.87 C 112.65 263.99 123.33 264.35 132.69 265.38 C 142.04 266.42 149.72 267.41 158.65 269.11 C 167.58 270.80 178.67 273.50 186.26 275.55 C 193.84 277.60 197.48 278.93 204.14 281.40 C 210.79 283.86 219.78 287.23 226.18 290.34 C 232.59 293.46 237.78 296.70 242.56 300.10 C 247.33 303.51 251.20 306.61 254.84 310.78 C 258.48 314.96 261.87 320.47 264.39 325.13 C 266.90 329.78 268.47 334.30 269.91 338.70 C 271.36 343.10 271.44 347.00 273.04 351.55 C 274.64 356.10 277.59 361.85 279.52 365.98 C 281.46 370.11 282.93 373.20 284.66 376.34 C 286.38 379.48 287.56 382.32 289.87 384.83 C 292.18 387.34 295.57 389.42 298.51 391.40 C 301.46 393.37 304.61 395.45 307.54 396.68 C 310.46 397.90 312.53 397.72 316.08 398.75 C 319.63 399.79 324.53 401.95 328.83 402.89 C 333.13 403.83 337.72 404.13 341.88 404.37 C 346.03 404.61 349.15 403.79 353.76 404.32 C 358.37 404.85 366.92 407.02 369.55 407.56" fill="none" stroke="#fff" stroke-width="4.48" stroke-opacity="1" stroke-linecap="round" stroke-linejoin="round"/>
  </g>
</svg>