<?xml version="1.0" encoding="UTF-8"?>
<svg xmlns="http://www.w3.org/2000/svg" width="512" height="512" viewBox="0 0 512 512">
  <rect width="100%" height="100%" fill="#000"/>
  <g>
    <path d="M 256.00 256.00 C 257.42 257.22 261.66 260.02 264.50 263.35 C 267.34 266.67 270.86 271.41 273.02 275.95 C 275.17 280.49 276.68 286.00 277.43 290.60 C 278.18 295.19 277.79 299.13 277.54 303.51 C 277.29 307.90 277.47 312.78 275.93 316.90 C 274.39 321.01 271.34 324.61 268.30 328.21 C 265.26 331.80 261.93 336.18 257.69 338.47 C 253.46 340.76 247.90 341.39 242.88 341.94 C 237.86 342.48 232.68 342.56 227.57 341.74 C 222.45 340.91 217.34 338.85 212.20 337.00 C 207.06 335.15 201.02 333.55 196.72 330.64 C 192.43 327.72 189.59 323.55 186.44 319.52 C 183.29 315.48 180.23 311.14 177.83 306.44 C 175.43 301.74 173.14 295.95 172.04 291.31 C 170.95 286.67 171.57 283.63 171.24 278.61 C 170.91 273.59 170.36 266.54 170.06 261.20 C 169.76 255.86 169.98 251.14 169.43 246.57 C 168.89 241.99 167.61 237.64 166.79 233.74 C 165.97 229.84 165.50 227.21 164.52 223.17 C 163.54 219.13 162.17 213.68 160.92 209.49 C 159.66 205.31 158.54 201.46 157.01 198.08 C 155.47 194.70 153.88 191.60 151.69 189.23 C 149.51 186.85 146.33 185.74 143.91 183.83 C 141.48 181.92 139.42 179.37 137.16 177.77 C 134.89 176.16 133.21 174.63 130.33 174.22 C 127.46 173.82 123.01 174.86 119.90 175.33 C 116.79 175.81 114.53 175.85 111.68 177.07 C 108.82 178.29 105.83 180.68 102.75 182.65 C 99.66 184.61 96.04 186.38 93.15 188.85 C 90.26 191.33 87.65 194.53 85.42 197.50 C 83.19 200.47 81.86 204.35 79.76 206.67 C 77.66 209.00 75.12 210.24 72.82 211.45 C 70.52 212.65 68.12 213.02 65.98 213.91 C 63.85 214.80 61.93 216.22 60.00 216.79 C 58.07 217.36 56.39 217.10 54.39 217.33 C 52.39 217.56 50.14 218.54 47.99 218.17 C 45.85 217.80 43.70 216.74 41.55 215.10 C 39.40 213.45 36.87 210.47 35.11 208.31 C 33.34 206.14 32.25 204.16 30.97 202.08 C 29.70 200.00 28.16 198.33 27.46 195.83 C 26.75 193.32 26.21 190.40 26.75 187.04 C 27.29 183.68 29.68 179.14 30.68 175.67 C 31.69 172.20 31.28 169.74 32.79 166.21 C 34.30 162.69 37.39 158.74 39.75 154.51 C 42.12 150.27 43.95 144.68 46.97 140.79 C 49.98 136.90 53.55 134.36 57.85 131.17 C 62.15 127.98 67.92 124.88 72.77 121.63 C 77.61 118.37 81.84 114.25 86.92 111.64 C 92.00 109.02 97.38 107.10 103.24 105.91 C 109.09 104.73 115.62 104.90 122.05 104.52 C 128.49 104.13 135.16 103.16 141.87 103.59 C 148.59 104.02 155.95 106.10 162.32 107.10 C 168.70 108.10 174.21 108.71 180.15 109.59 C 186.08 110.48 191.86 111.77 197.94 112.39 C 204.02 113.01 210.55 113.33 216.63 113.34 C 222.70 113.35 228.68 112.16 234.40 112.45 C 240.11 112.74 246.06 115.00 250.92 115.08 C 255.78 115.16 259.53 113.37 263.57 112.93 C 267.60 112.49 271.32 112.86 275.14 112.44 C 278.95 112.01 283.27 111.55 286.48 110.39 C 289.68 109.22 291.93 107.50 294.37 105.44 C 296.81 103.39 299.01 100.33 301.12 98.06 C 303.24 95.79 305.22 93.77 307.05 91.80 C 308.89 89.83 310.62 88.17 312.14 86.24 C 313.66 84.31 314.67 81.95 316.17 80.23 C 317.68 78.51 319.86 77.85 321.15 75.93 C 322.43 74.02 322.57 70.74 323.89 68.74 C 325.20 66.73 327.00 65.39 329.04 63.89 C 331.08 62.39 333.83 60.84 336.15 59.72 C 338.46 58.60 340.26 57.22 342.93 57.19 C 345.59 57.15 349.15 58.56 352.14 59.51 C 355.13 60.46 358.01 61.69 360.86 62.88 C 363.70 64.07 366.11 64.57 369.20 66.66 C 372.29 68.75 375.88 72.22 379.40 75.42 C 382.92 78.63 387.58 81.42 390.31 85.87 C 393.04 90.32 393.75 96.62 395.78 102.15 C 397.82 107.68 401.25 113.46 402.50 119.03 C 403.75 124.60 403.37 129.30 403.30 135.55 C 403.22 141.81 402.87 150.14 402.05 156.55 C 401.24 162.96 400.75 168.34 398.43 174.02 C 396.10 179.70 391.76 185.09 388.09 190.63 C 384.42 196.17 380.77 202.17 376.41 207.27 C 372.06 212.37 367.86 217.03 361.95 221.26 C 356.05 225.49 347.41 229.53 340.99 232.65 C 334.57 235.77 328.45 238.26 323.42 239.98 C 318.38 241.70 315.56 242.94 310.78 242.97 C 306.00 242.99 300.33 241.51 294.74 240.12 C 289.15 238.73 282.51 236.25 277.24 234.64 C 271.97 233.03 267.83 232.27 263.13 230.47 C 258.42 228.66 253.61 225.99 249.03 223.80 C 244.44 221.61 239.98 219.53 235.62 217.32 C 231.26 215.11 226.77 212.54 222.87 210.55 C 218.96 208.55 215.98 206.83 212.20 205.37 C 208.42 203.91 204.41 203.21 200.19 201.76 C 195.96 200.31 190.87 198.18 186.83 196.69 C 182.78 195.20 179.23 193.78 175.91 192.85 C 172.59 191.91 170.10 191.91 166.90 191.07 C 163.70 190.23 159.89 187.74 156.72 187.80 C 153.54 187.85 151.56 190.71 147.86 191.38 C 144.15 192.04 138.49 191.55 134.47 191.79 C 130.44 192.04 126.99 192.28 123.70 192.85 C 120.41 193.41 117.71 194.44 114.74 195.20 C 111.76 195.96 108.78 197.09 105.85 197.40 C 102.92 197.71 99.58 197.27 97.14 197.06 C 94.69 196.85 93.45 197.06 91.19 196.13 C 88.92 195.20 85.73 193.28 83.55 191.47 C 81.38 189.67 79.55 187.26 78.14 185.29 C 76.73 183.32 75.69 182.04 75.08 179.65 C 74.47 177.27 74.35 174.25 74.48 170.97 C 74.60 167.70 74.71 163.96 75.82 159.99 C 76.92 156.01 78.95 151.22 81.09 147.12 C 83.24 143.01 86.40 138.99 88.69 135.35 C 90.99 131.72 92.71 128.32 94.87 125.31 C 97.03 122.31 99.74 120.38 101.66 117.32 C 103.58 114.27 104.63 110.32 106.42 106.97 C 108.20 103.62 110.76 100.42 112.38 97.22 C 114.01 94.02 115.18 90.71 116.16 87.77 C 117.14 84.83 118.29 81.72 118.26 79.57 C 118.24 77.42 116.58 76.27 115.99 74.88 C 115.40 73.49 115.95 72.25 114.73 71.22 C 113.51 70.20 110.83 69.21 108.69 68.72 C 106.54 68.23 104.41 67.98 101.88 68.26 C 99.34 68.54 96.20 68.86 93.50 70.42 C 90.80 71.97 88.45 74.66 85.66 77.59 C 82.87 80.52 79.22 84.59 76.75 87.99 C 74.28 91.39 72.87 94.51 70.83 97.97 C 68.80 101.44 66.59 105.35 64.53 108.78 C 62.48 112.21 60.34 115.72 58.52 118.55 C 56.71 121.38 55.42 123.04 53.67 125.77 C 51.92 128.50 49.69 131.80 48.03 134.92 C 46.37 138.04 44.88 142.27 43.69 144.51 C 42.50 146.75 42.16 147.06 40.89 148.37 C 39.63 149.67 37.83 151.32 36.10 152.34 C 34.38 153.37 32.28 154.61 30.54 154.52 C 28.81 154.43 26.59 152.79 25.69 151.81 C 24.79 150.84 25.08 150.28 25.14 148.66 C 25.20 147.05 25.97 144.56 26.05 142.13 C 26.13 139.70 24.97 136.98 25.60 134.08 C 26.24 131.19 28.18 127.45 29.86 124.76 C 31.53 122.07 34.21 120.68 35.64 117.94 C 37.06 115.19 37.55 111.15 38.39 108.29 C 39.24 105.42 40.22 103.15 40.72 100.73 C 41.22 98.31 41.26 95.67 41.38 93.76 C 41.50 91.86 41.37 90.88 41.44 89.28 C 41.51 87.69 42.30 85.31 41.82 84.21 C 41.33 83.10 39.84 83.50 38.50 82.67 C 37.17 81.85 35.00 79.82 33.82 79.25 C 32.64 78.69 32.39 79.09 31.41 79.28 C 30.44 79.46 29.30 79.25 27.95 80.37 C 26.60 81.48 24.48 84.40 23.32 85.98 C 22.16 87.55 22.11 88.64 21.01 89.81 C 19.91 90.98 17.99 91.52 16.73 92.99 C 15.46 94.46 14.68 97.37 13.41 98.64 C 12.14 99.90 10.36 99.89 9.08 100.59 C 7.80 101.29 6.98 101.85 5.75 102.82 C 4.52 103.79 2.59 105.70 1.69 106.42 C 0.79 107.14 -3.79 106.40 0.38 107.14 C 4.55 107.89 17.97 109.79 26.71 110.88 C 35.45 111.97 44.22 112.44 52.83 113.68 C 61.43 114.92 70.41 116.39 78.34 118.32 C 86.28 120.26 92.59 122.94 100.43 125.29 C 108.27 127.65 117.59 129.97 125.38 132.45 C 133.17 134.93 139.46 137.94 147.19 140.17 C 154.93 142.40 164.63 143.40 171.79 145.84 C 178.95 148.29 183.87 152.49 190.16 154.84 C 196.45 157.19 203.36 158.25 209.52 159.96 C 215.68 161.67 221.14 163.62 227.13 165.09 C 233.12 166.57 239.71 167.39 245.45 168.81 C 251.20 170.24 256.37 173.02 261.58 173.64 C 266.79 174.25 272.16 172.94 276.71 172.50 C 281.25 172.06 284.99 171.53 288.86 170.99 C 292.73 170.45 296.01 169.85 299.92 169.26 C 303.83 168.67 308.32 168.10 312.31 167.45 C 316.29 166.80 320.76 166.75 323.82 165.36 C 326.89 163.97 328.76 161.58 330.69 159.10 C 332.61 156.62 334.26 153.55 335.36 150.49 C 336.47 147.44 337.48 143.85 337.30 140.77 C 337.12 137.68 335.75 135.11 334.28 131.98 C 332.82 128.84 331.07 124.91 328.52 121.96 C 325.96 119.00 322.82 116.85 318.94 114.22 C 315.05 111.60 309.85 108.11 305.21 106.21 C 300.56 104.30 296.28 102.79 291.06 102.79 C 285.84 102.79 279.44 104.80 273.89 106.19 C 268.35 107.58 262.80 108.01 257.77 111.13 C 252.74 114.25 248.31 120.22 243.69 124.91 C 239.07 129.61 233.85 133.93 230.06 139.32 C 226.27 144.71 223.00 150.90 220.95 157.27 C 218.90 163.63 217.33 171.05 217.76 177.51 C 218.19 183.96 221.44 190.34 223.52 196.00 C 225.60 201.66 227.18 206.67 230.23 211.46 C 233.28 216.24 237.47 221.05 241.83 224.72 C 246.20 228.39 251.46 231.64 256.41 233.47 C 261.36 235.31 266.38 235.48 271.53 235.73 C 276.69 235.98 282.88 236.29 287.33 234.97 C 291.78 233.65 294.87 230.60 298.23 227.80 C 301.59 225.00 305.17 221.63 307.49 218.16 C 309.81 214.70 311.41 211.46 312.15 207.03 C 312.89 202.59 312.62 196.26 311.92 191.55 C 311.22 186.85 309.81 182.45 307.93 178.80 C 306.04 175.15 303.18 172.65 300.60 169.65 C 298.03 166.64 295.31 163.84 292.45 160.78 C 289.59 157.72 286.32 154.54 283.45 151.27 C 280.59 148.00 278.34 143.67 275.26 141.16 C 272.17 138.66 268.55 138.04 264.93 136.22 C 261.31 134.40 257.01 132.21 253.53 130.23 C 250.05 128.26 247.45 126.69 244.04 124.38 C 240.64 122.07 235.99 118.61 233.10 116.39 C 230.22 114.18 229.26 112.64 226.76 111.11 C 224.25 109.58 220.50 108.79 218.05 107.22 C 215.60 105.65 214.13 103.57 212.05 101.67 C 209.98 99.78 207.59 97.63 205.60 95.86 C 203.61 94.09 202.33 92.58 200.14 91.04 C 197.94 89.50 195.29 88.32 192.43 86.62 C 189.57 84.92 186.01 81.66 182.97 80.82 C 179.92 79.97 177.35 81.20 174.16 81.56 C 170.97 81.91 167.33 82.10 163.82 82.95 C 160.32 83.80 156.95 85.08 153.13 86.64 C 149.31 88.20 144.51 89.84 140.89 92.30 C 137.27 94.76 134.74 97.55 131.41 101.39 C 128.08 105.22 124.21 110.33 120.90 115.32 C 117.60 120.31 113.80 125.55 111.57 131.34 C 109.35 137.13 108.30 143.95 107.55 150.04 C 106.80 156.13 106.91 161.76 107.08 167.88 C 107.24 173.99 107.24 180.26 108.53 186.75 C 109.82 193.24 112.00 200.42 114.83 206.80 C 117.67 213.17 121.77 219.34 125.54 225.01 C 129.32 230.68 133.31 236.31 137.47 240.80 C 141.62 245.29 145.67 248.68 150.47 251.96 C 155.28 255.23 160.48 257.91 166.29 260.44 C 172.11 262.97 179.03 265.13 185.37 267.12 C 191.70 269.10 198.04 270.94 204.31 272.33 C 210.59 273.72 217.20 275.27 223.02 275.43 C 228.85 275.59 234.03 274.50 239.28 273.29 C 244.54 272.07 249.03 270.14 254.56 268.14 C 260.09 266.14 267.39 263.44 272.45 261.28 C 277.50 259.11 280.69 257.39 284.90 255.15 C 289.10 252.92 293.89 250.81 297.69 247.85 C 301.49 244.89 304.34 240.70 307.72 237.38 C 311.10 234.07 314.47 231.24 317.95 227.96 C 321.44 224.69 325.54 220.56 328.63 217.71 C 331.71 214.87 334.04 213.20 336.48 210.92 C 338.91 208.64 340.52 206.49 343.25 204.06 C 345.98 201.63 349.62 198.34 352.87 196.35 C 356.12 194.36 359.63 193.76 362.76 192.11 C 365.89 190.46 368.40 187.32 371.66 186.45 C 374.92 185.59 379.45 187.15 382.32 186.90 C 385.18 186.65 385.99 185.04 388.84 184.95 C 391.69 184.85 396.04 185.50 399.41 186.33 C 402.77 187.16 405.98 188.36 409.05 189.93 C 412.11 191.50 415.05 193.74 417.81 195.77 C 420.57 197.81 423.15 199.77 425.60 202.13 C 428.05 204.49 430.73 207.20 432.50 209.94 C 434.26 212.67 434.67 215.10 436.18 218.53 C 437.69 221.96 440.62 226.33 441.56 230.50 C 442.50 234.67 441.86 239.25 441.80 243.57 C 441.74 247.89 441.66 251.86 441.22 256.41 C 440.77 260.96 439.50 266.75 439.14 270.85 C 438.78 274.96 439.97 276.99 439.06 281.02 C 438.15 285.05 435.40 290.33 433.67 295.03 C 431.94 299.73 430.69 304.73 428.69 309.20 C 426.69 313.67 424.10 317.30 421.66 321.86 C 419.22 326.42 416.23 332.23 414.05 336.56 C 411.88 340.88 410.12 344.19 408.59 347.81 C 407.06 351.44 405.98 354.55 404.87 358.31 C 403.76 362.08 402.61 366.83 401.94 370.42 C 401.26 374.01 400.21 377.50 400.81 379.85 C 401.41 382.21 404.19 383.21 405.55 384.58 C 406.90 385.95 407.27 387.35 408.94 388.09 C 410.61 388.83 413.01 389.37 415.56 389.01 C 418.12 388.64 421.61 387.90 424.26 385.91 C 426.91 383.91 429.57 380.35 431.46 377.03 C 433.35 373.70 434.20 370.53 435.63 365.94 C 437.06 361.34 439.35 354.82 440.02 349.46 C 440.68 344.10 439.96 339.26 439.64 333.78 C 439.32 328.30 439.01 322.12 438.10 316.57 C 437.19 311.02 435.83 305.89 434.16 300.47 C 432.48 295.05 431.45 289.51 428.05 284.05 C 424.64 278.59 418.49 272.15 413.72 267.72 C 408.94 263.28 404.76 261.01 399.40 257.42 C 394.03 253.82 388.00 248.54 381.53 246.16 C 375.06 243.78 367.66 244.13 360.56 243.14 C 353.45 242.15 345.31 240.40 338.91 240.21 C 332.52 240.02 327.83 240.64 322.18 242.01 C 316.52 243.38 310.71 245.93 304.98 248.44 C 299.26 250.95 293.01 254.23 287.83 257.08 C 282.65 259.92 278.61 262.61 273.90 265.50 C 269.18 268.39 264.42 271.11 259.54 274.43 C 254.66 277.76 249.28 282.33 244.62 285.46 C 239.96 288.59 235.44 291.05 231.58 293.23 C 227.71 295.40 225.39 297.37 221.40 298.49 C 217.41 299.61 212.04 299.85 207.61 299.97 C 203.19 300.08 199.11 299.65 194.86 299.20 C 190.60 298.76 185.81 298.39 182.09 297.30 C 178.38 296.21 175.62 295.05 172.56 292.66 C 169.49 290.27 166.43 286.32 163.69 282.96 C 160.96 279.59 157.98 276.83 156.16 272.45 C 154.34 268.07 153.74 261.66 152.79 256.67 C 151.83 251.68 151.01 247.05 150.44 242.50 C 149.87 237.95 149.20 233.80 149.37 229.36 C 149.54 224.93 150.85 219.88 151.46 215.88 C 152.07 211.87 153.12 208.97 153.02 205.33 C 152.93 201.68 151.05 198.04 150.90 193.99 C 150.75 189.94 152.14 184.94 152.11 181.04 C 152.07 177.13 151.27 173.67 150.70 170.55 C 150.13 167.44 149.69 164.99 148.69 162.35 C 147.69 159.71 146.66 156.96 144.71 154.71 C 142.76 152.45 139.82 150.02 136.98 148.82 C 134.15 147.62 130.71 148.07 127.69 147.52 C 124.66 146.96 121.49 145.60 118.82 145.49 C 116.15 145.38 114.72 146.10 111.66 146.86 C 108.60 147.62 103.51 149.00 100.45 150.05 C 97.38 151.09 95.91 152.01 93.28 153.15 C 90.66 154.29 87.44 155.81 84.69 156.88 C 81.94 157.96 79.40 158.71 76.79 159.60 C 74.19 160.48 71.62 161.77 69.06 162.20 C 66.50 162.62 63.97 162.34 61.45 162.15 C 58.93 161.96 56.23 161.39 53.93 161.06 C 51.62 160.73 49.31 160.31 47.63 160.17 C 45.95 160.04 45.12 160.67 43.86 160.24 C 42.61 159.81 41.12 158.36 40.09 157.61 C 39.06 156.86 38.29 156.79 37.66 155.73 C 37.04 154.66 36.50 152.88 36.33 151.22 C 36.16 149.56 36.84 147.30 36.64 145.75 C 36.45 144.20 35.89 143.72 35.16 141.90 C 34.42 140.08 33.20 136.65 32.22 134.85 C 31.24 133.04 29.89 132.22 29.29 131.09 C 28.69 129.96 29.19 128.65 28.60 128.07 C 28.02 127.48 26.94 127.78 25.78 127.56 C 24.61 127.34 23.03 126.52 21.60 126.75 C 20.18 126.98 18.70 127.52 17.24 128.95 C 15.78 130.38 14.51 133.19 12.85 135.32 C 11.20 137.45 9.24 139.45 7.31 141.73 C 5.39 144.02 2.48 146.25 1.29 149.05 C 0.11 151.85 -4.01 155.41 0.20 158.52 C 4.41 161.63 18.06 164.95 26.55 167.71 C 35.03 170.46 42.87 172.78 51.11 175.07 C 59.34 177.36 67.59 179.26 75.95 181.43 C 84.32 183.59 93.60 185.62 101.29 188.08 C 108.99 190.54 115.15 194.04 122.13 196.20 C 129.12 198.35 136.18 199.14 143.20 201.00 C 150.22 202.86 157.58 204.25 164.24 207.36 C 170.90 210.48 177.94 216.53 183.18 219.69 C 188.42 222.85 190.83 223.15 195.68 226.32 C 200.52 229.49 207.27 234.83 212.24 238.71 C 217.21 242.59 221.52 245.78 225.50 249.60 C 229.48 253.41 232.81 257.34 236.10 261.59 C 239.38 265.85 242.39 270.54 245.22 275.11 C 248.05 279.68 250.55 284.55 253.08 289.00 C 255.62 293.45 258.40 297.59 260.46 301.82 C 262.52 306.05 263.21 310.58 265.44 314.40 C 267.66 318.22 271.77 321.24 273.82 324.76 C 275.86 328.29 275.94 332.16 277.69 335.54 C 279.44 338.92 282.17 342.09 284.30 345.04 C 286.43 347.99 288.22 350.29 290.47 353.24 C 292.73 356.20 295.08 360.40 297.83 362.76 C 300.58 365.13 303.24 365.62 306.98 367.42 C 310.72 369.21 316.54 372.10 320.27 373.52 C 324.00 374.95 325.82 375.07 329.34 375.97 C 332.85 376.87 337.59 378.35 341.35 378.91 C 345.11 379.47 348.34 379.22 351.89 379.32 C 355.44 379.43 359.51 379.97 362.65 379.53 C 365.79 379.10 367.83 377.54 370.73 376.70 C 373.62 375.86 377.30 374.86 380.03 374.48 C 382.76 374.09 384.65 374.66 387.10 374.39 C 389.54 374.11 391.96 373.61 394.68 372.83 C 397.41 372.06 400.41 370.16 403.44 369.73 C 406.46 369.30 409.75 369.85 412.84 370.26 C 415.93 370.66 419.27 371.67 421.95 372.18 C 424.64 372.68 427.14 372.23 428.95 373.30 C 430.77 374.36 431.72 376.85 432.83 378.56 C 433.94 380.27 434.65 381.81 435.59 383.56 C 436.54 385.31 437.71 387.16 438.52 389.08 C 439.32 391.00 439.92 393.32 440.42 395.07 C 440.92 396.83 440.75 398.46 441.52 399.61 C 442.29 400.76 443.90 400.94 445.04 401.97 C 446.18 403.01 447.35 404.71 448.36 405.83 C 449.38 406.95 450.43 408.11 451.12 408.71 C 451.81 409.31 451.71 408.78 452.49 409.44 C 453.27 410.10 454.62 412.01 455.79 412.68 C 456.96 413.34 458.18 413.62 459.48 413.43 C 460.79 413.23 462.19 411.89 463.62 411.51 C 465.05 411.12 466.51 411.79 468.06 411.12 C 469.60 410.45 470.97 409.49 472.91 407.48 C 474.84 405.47 477.67 402.12 479.66 399.06 C 481.66 396.00 483.30 392.18 484.88 389.11 C 486.46 386.03 488.01 384.64 489.14 380.60 C 490.26 376.56 490.95 370.52 491.62 364.86 C 492.29 359.19 493.69 352.76 493.16 346.63 C 492.63 340.50 490.16 334.38 488.43 328.07 C 486.71 321.76 485.61 314.68 482.80 308.78 C 479.99 302.88 475.93 298.34 471.57 292.67 C 467.22 286.99 462.48 280.08 456.68 274.70 C 450.89 269.33 443.55 264.20 436.81 260.42 C 430.07 256.64 423.30 254.44 416.23 252.02 C 409.17 249.59 401.72 246.81 394.43 245.85 C 387.13 244.88 379.77 245.47 372.48 246.20 C 365.19 246.94 357.59 248.20 350.69 250.24 C 343.80 252.27 336.90 255.11 331.10 258.40 C 325.31 261.68 319.55 265.78 315.91 269.93 C 312.26 274.09 310.74 278.55 309.22 283.32 C 307.70 288.09 306.86 294.40 306.78 298.55 C 306.70 302.70 307.17 305.11 308.72 308.24 C 310.28 311.37 313.37 315.56 316.10 317.34 C 318.82 319.11 321.53 318.89 325.07 318.92 C 328.60 318.94 333.24 318.78 337.29 317.49 C 341.34 316.21 345.67 314.62 349.37 311.19 C 353.07 307.76 357.48 301.36 359.50 296.92 C 361.52 292.48 361.15 289.68 361.49 284.53 C 361.83 279.38 362.73 271.57 361.53 266.00 C 360.33 260.43 357.51 255.49 354.29 251.11 C 351.08 246.72 346.75 243.20 342.24 239.69 C 337.72 236.18 332.57 232.15 327.21 230.05 C 321.84 227.94 315.58 227.39 310.05 227.06 C 304.51 226.72 299.44 227.02 293.99 228.03 C 288.53 229.05 281.97 230.48 277.32 233.14 C 272.66 235.79 269.69 239.80 266.08 243.97 C 262.47 248.13 258.14 253.25 255.66 258.13 C 253.19 263.01 251.71 268.27 251.23 273.26 C 250.76 278.24 251.42 283.40 252.81 288.03 C 254.21 292.65 257.09 297.24 259.59 301.01 C 262.09 304.77 264.60 307.44 267.83 310.59 C 271.05 313.75 274.74 317.07 278.93 319.94 C 283.11 322.81 288.70 325.64 292.94 327.82 C 297.18 330.00 300.65 331.44 304.36 333.02 C 308.06 334.61 311.89 335.64 315.17 337.34 C 318.46 339.04 321.35 341.32 324.09 343.23 C 326.83 345.13 329.26 346.53 331.63 348.79 C 334.01 351.05 336.30 354.58 338.36 356.78 C 340.42 358.98 342.40 359.74 343.98 361.99 C 345.56 364.23 346.53 367.35 347.87 370.26 C 349.20 373.18 351.58 376.28 351.99 379.48 C 352.41 382.68 350.88 385.76 350.37 389.48 C 349.85 393.21 349.60 398.48 348.88 401.84 C 348.17 405.19 347.73 407.09 346.09 409.60 C 344.45 412.10 341.39 414.22 339.04 416.86 C 336.68 419.49 335.14 423.63 331.96 425.42 C 328.78 427.21 324.19 426.76 319.96 427.59 C 315.73 428.43 311.40 429.37 306.58 430.44 C 301.76 431.51 296.62 433.38 291.06 434.00 C 285.50 434.62 278.62 434.99 273.25 434.16 C 267.87 433.33 264.17 431.04 258.80 429.03 C 253.44 427.02 245.85 425.03 241.07 422.09 C 236.28 419.15 234.29 415.28 230.10 411.40 C 225.92 407.53 219.96 403.39 215.95 398.83 C 211.93 394.28 208.89 389.56 206.03 384.05 C 203.17 378.54 201.20 371.42 198.79 365.75 C 196.38 360.09 194.22 355.52 191.56 350.05 C 188.91 344.58 185.42 338.59 182.87 332.93 C 180.33 327.26 178.65 321.11 176.29 316.07 C 173.93 311.03 171.45 307.24 168.72 302.68 C 165.99 298.13 162.71 292.74 159.90 288.75 C 157.10 284.76 154.42 281.80 151.88 278.74 C 149.34 275.68 147.55 272.79 144.66 270.41 C 141.76 268.02 138.02 265.71 134.52 264.43 C 131.01 263.14 127.12 262.47 123.61 262.68 C 120.10 262.90 116.15 263.73 113.43 265.72 C 110.71 267.71 108.93 271.42 107.30 274.63 C 105.67 277.83 104.02 281.06 103.65 284.92 C 103.28 288.78 104.31 293.77 105.07 297.77 C 105.83 301.77 107.13 305.15 108.20 308.94 C 109.28 312.73 109.50 316.40 111.51 320.51 C 113.53 324.62 116.62 329.76 120.32 333.60 C 124.01 337.43 129.25 340.24 133.68 343.51 C 138.10 346.78 141.94 351.18 146.87 353.23 C 151.80 355.29 157.26 355.29 163.24 355.85 C 169.22 356.42 176.29 357.61 182.75 356.63 C 189.20 355.65 195.72 352.59 201.96 349.97 C 208.20 347.35 214.90 344.93 220.20 340.89 C 225.49 336.86 229.53 330.95 233.73 325.77 C 237.93 320.58 241.76 314.83 245.40 309.78 C 249.04 304.73 252.82 299.64 255.54 295.48 C 258.27 291.32 260.01 289.46 261.77 284.81 C 263.53 280.17 264.50 272.66 266.11 267.59 C 267.71 262.51 270.12 258.92 271.39 254.36 C 272.67 249.80 272.95 245.01 273.76 240.22 C 274.57 235.42 274.66 230.12 276.24 225.59 C 277.81 221.06 280.65 216.57 283.22 213.05 C 285.78 209.54 288.98 207.06 291.63 204.52 C 294.28 201.99 296.33 200.18 299.09 197.82 C 301.86 195.46 304.93 192.30 308.21 190.38 C 311.49 188.47 314.80 187.59 318.75 186.31 C 322.69 185.02 327.42 183.50 331.86 182.68 C 336.31 181.86 341.21 181.48 345.39 181.38 C 349.58 181.28 353.28 182.67 356.95 182.08 C 360.62 181.49 364.00 178.84 367.42 177.84 C 370.83 176.83 374.28 177.25 377.43 176.04 C 380.58 174.83 383.50 171.99 386.30 170.55 C 389.10 169.10 392.22 168.41 394.21 167.36 C 396.20 166.32 396.70 165.87 398.25 164.28 C 399.80 162.70 401.90 160.07 403.52 157.85 C 405.13 155.62 407.23 153.37 407.92 150.95 C 408.61 148.54 408.32 146.43 407.67 143.34 C 407.01 140.26 405.15 136.25 404.00 132.47 C 402.86 128.68 403.10 123.66 400.80 120.64 C 398.50 117.61 394.12 116.29 390.20 114.32 C 386.29 112.36 382.27 110.68 377.31 108.86 C 372.36 107.03 365.93 104.33 360.46 103.38 C 354.98 102.42 350.13 102.94 344.47 103.14 C 338.80 103.34 333.15 103.25 326.47 104.60 C 319.79 105.95 310.81 107.86 304.39 111.24 C 297.97 114.62 292.75 120.11 287.95 124.89 C 283.15 129.66 279.04 134.49 275.58 139.87 C 272.13 145.25 269.11 150.93 267.23 157.17 C 265.34 163.42 264.47 170.98 264.27 177.36 C 264.07 183.75 264.86 190.10 266.03 195.48 C 267.19 200.85 268.98 204.88 271.25 209.61 C 273.52 214.35 276.42 219.61 279.67 223.87 C 282.92 228.13 286.88 231.39 290.73 235.16 C 294.58 238.92 298.65 243.15 302.79 246.47 C 306.94 249.80 311.73 252.28 315.59 255.09 C 319.45 257.90 322.25 260.87 325.95 263.35 C 329.64 265.84 334.48 267.88 337.76 270.02 C 341.04 272.15 342.27 274.22 345.61 276.17 C 348.95 278.11 354.46 280.31 357.77 281.70 C 361.09 283.09 362.45 282.74 365.48 284.49 C 368.52 286.24 373.29 289.64 375.97 292.21 C 378.64 294.78 379.30 296.93 381.53 299.90 C 383.76 302.87 387.07 307.19 389.35 310.03 C 391.64 312.87 393.53 313.92 395.22 316.93 C 396.90 319.93 398.45 324.63 399.48 328.05 C 400.51 331.46 401.35 333.69 401.39 337.40 C 401.43 341.12 400.49 346.15 399.71 350.35 C 398.93 354.54 397.96 358.91 396.69 362.58 C 395.43 366.26 393.86 368.92 392.14 372.40 C 390.42 375.88 388.73 379.70 386.39 383.47 C 384.05 387.25 381.24 392.00 378.12 395.06 C 375.00 398.12 371.20 399.69 367.68 401.85 C 364.16 404.01 361.52 405.86 356.99 408.01 C 352.46 410.17 345.84 413.31 340.50 414.78 C 335.17 416.26 330.56 415.91 324.98 416.88 C 319.40 417.85 312.48 419.77 307.02 420.61 C 301.56 421.45 297.22 421.67 292.24 421.92 C 287.25 422.17 281.96 422.55 277.11 422.09 C 272.27 421.63 268.26 419.56 263.17 419.15 C 258.07 418.74 251.86 419.78 246.53 419.61 C 241.21 419.45 235.90 418.06 231.21 418.16 C 226.52 418.25 222.64 419.76 218.39 420.20 C 214.13 420.64 209.94 420.36 205.68 420.81 C 201.43 421.26 196.25 422.01 192.85 422.90 C 189.46 423.79 187.80 424.52 185.32 426.14 C 182.85 427.75 179.75 430.87 177.99 432.58 C 176.22 434.29 175.85 434.84 174.76 436.38 C 173.67 437.93 172.17 439.96 171.47 441.85 C 170.76 443.74 170.52 445.80 170.53 447.71 C 170.54 449.62 171.28 451.18 171.52 453.32 C 171.76 455.47 171.90 458.90 171.96 460.57 C 172.03 462.24 172.08 462.41 171.93 463.34 C 171.77 464.27 171.87 464.79 171.03 466.14 C 170.19 467.50 168.01 469.86 166.89 471.47 C 165.76 473.08 164.92 474.42 164.31 475.83 C 163.69 477.24 164.70 478.94 163.20 479.93 C 161.69 480.92 157.41 481.43 155.27 481.78 C 153.13 482.13 152.35 482.17 150.36 482.04 C 148.38 481.90 146.01 481.32 143.36 480.97 C 140.71 480.62 137.21 480.67 134.45 479.95 C 131.69 479.22 129.80 478.21 126.79 476.64 C 123.79 475.07 119.27 471.92 116.44 470.52 C 113.60 469.11 111.99 468.85 109.80 468.19 C 107.62 467.53 105.35 466.73 103.31 466.56 C 101.27 466.38 99.34 466.68 97.56 467.15 C 95.79 467.61 93.53 468.95 92.66 469.35 C 91.78 469.74 92.21 468.76 92.32 469.50 C 92.44 470.23 92.39 471.97 93.34 473.77 C 94.29 475.56 96.19 478.43 98.02 480.25 C 99.86 482.06 101.94 482.96 104.36 484.66 C 106.79 486.36 109.22 488.87 112.58 490.44 C 115.93 492.01 119.57 493.48 124.51 494.08 C 129.46 494.68 136.16 494.42 142.23 494.06 C 148.31 493.69 154.87 493.39 160.96 491.89 C 167.06 490.38 172.47 487.70 178.79 485.02 C 185.11 482.34 192.51 479.01 198.88 475.81 C 205.24 472.61 211.33 470.43 216.99 465.82 C 222.65 461.20 227.80 453.99 232.82 448.12 C 237.84 442.25 242.89 436.86 247.12 430.60 C 251.34 424.33 255.26 417.51 258.17 410.53 C 261.08 403.55 263.16 396.02 264.59 388.72 C 266.02 381.41 267.18 373.98 266.75 366.70 C 266.32 359.42 263.59 351.55 262.02 345.05 C 260.46 338.55 259.89 333.84 257.37 327.70 C 254.85 321.56 250.54 313.35 246.90 308.21 C 243.26 303.08 239.69 300.23 235.55 296.90 C 231.40 293.56 226.42 290.40 222.02 288.20 C 217.61 286.00 213.73 284.62 209.11 283.68 C 204.49 282.75 198.88 282.36 194.29 282.59 C 189.70 282.81 185.69 283.67 181.56 285.03 C 177.44 286.38 172.49 288.10 169.54 290.72 C 166.59 293.34 165.36 296.77 163.88 300.76 C 162.40 304.75 160.92 310.17 160.66 314.67 C 160.40 319.17 161.31 323.75 162.32 327.77 C 163.34 331.79 164.23 335.27 166.75 338.78 C 169.27 342.30 173.76 345.73 177.44 348.87 C 181.11 352.00 184.59 355.12 188.79 357.59 C 192.98 360.05 197.33 362.22 202.63 363.65 C 207.92 365.08 214.88 366.08 220.56 366.19 C 226.24 366.31 231.29 365.91 236.72 364.34 C 242.14 362.77 247.99 359.90 253.11 356.78 C 258.24 353.65 262.96 349.85 267.45 345.58 C 271.94 341.32 276.80 336.47 280.05 331.19 C 283.30 325.90 285.52 319.63 286.95 313.89 C 288.38 308.14 287.95 301.50 288.64 296.71 C 289.33 291.92 291.43 289.74 291.10 285.14 C 290.77 280.54 288.89 274.16 286.65 269.11 C 284.42 264.06 281.33 259.26 277.71 254.82 C 274.08 250.38 268.99 246.05 264.93 242.48 C 260.87 238.91 258.02 235.88 253.33 233.40 C 248.65 230.93 241.97 228.95 236.80 227.62 C 231.63 226.30 226.96 225.97 222.31 225.44 C 217.67 224.92 213.15 224.82 208.93 224.48 C 204.71 224.15 201.09 223.60 197.00 223.44 C 192.90 223.28 188.47 223.05 184.36 223.52 C 180.25 223.99 176.32 225.41 172.35 226.25 C 168.39 227.09 164.07 227.90 160.54 228.55 C 157.01 229.21 154.37 229.50 151.17 230.18 C 147.97 230.85 144.62 231.97 141.35 232.61 C 138.08 233.25 134.85 233.46 131.53 234.01 C 128.21 234.57 124.33 234.87 121.43 235.93 C 118.54 237.00 116.97 239.45 114.17 240.39 C 111.37 241.34 107.46 241.30 104.65 241.58 C 101.85 241.86 99.97 241.71 97.34 242.08 C 94.71 242.46 91.61 243.32 88.87 243.83 C 86.13 244.34 83.02 244.93 80.91 245.14 C 78.79 245.34 78.19 244.29 76.18 245.07 C 74.17 245.86 70.98 248.18 68.86 249.82 C 66.73 251.46 65.09 253.73 63.43 254.92 C 61.77 256.10 60.35 255.76 58.92 256.93 C 57.50 258.11 56.10 259.90 54.88 261.97 C 53.65 264.04 52.84 266.86 51.59 269.36 C 50.35 271.87 48.25 274.12 47.42 276.98 C 46.58 279.84 46.76 283.53 46.61 286.54 C 46.45 289.54 46.51 291.94 46.48 295.01 C 46.44 298.07 46.92 301.49 46.41 304.94 C 45.90 308.38 43.74 312.25 43.40 315.66 C 43.06 319.08 43.96 322.31 44.37 325.41 C 44.78 328.51 45.63 331.41 45.89 334.26 C 46.15 337.10 45.75 340.23 45.92 342.49 C 46.10 344.74 47.10 345.61 46.94 347.76 C 46.77 349.91 45.42 353.92 44.92 355.38 C 44.43 356.83 45.23 356.57 43.98 356.51 C 42.74 356.44 39.49 356.17 37.45 355.01 C 35.41 353.85 33.45 351.51 31.73 349.56 C 30.01 347.62 28.88 345.95 27.11 343.34 C 25.35 340.74 22.88 336.65 21.12 333.92 C 19.37 331.19 18.03 329.72 16.59 326.98 C 15.14 324.24 13.33 320.53 12.47 317.50 C 11.60 314.46 11.64 311.75 11.43 308.77 C 11.22 305.79 11.60 302.28 11.20 299.61 C 10.80 296.94 10.13 294.81 9.04 292.74 C 7.96 290.68 5.80 289.21 4.68 287.23 C 3.56 285.26 1.78 282.69 2.30 280.89 C 2.83 279.10 2.26 278.06 7.82 276.46 C 13.38 274.86 26.84 273.11 35.67 271.29 C 44.50 269.47 52.75 267.68 60.81 265.54 C 68.87 263.41 76.14 260.56 84.03 258.49 C 91.91 256.42 100.29 254.76 108.10 253.13 C 115.91 251.49 123.75 250.35 130.89 248.67 C 138.02 246.99 144.29 244.22 150.90 243.04 C 157.51 241.85 164.30 241.78 170.54 241.57 C 176.79 241.36 182.79 241.43 188.39 241.77 C 193.99 242.12 198.90 242.98 204.16 243.64 C 209.41 244.29 214.68 244.84 219.92 245.72 C 225.16 246.60 230.16 247.68 235.58 248.90 C 241.00 250.11 247.20 251.27 252.44 253.01 C 257.68 254.75 262.57 256.62 267.02 259.34 C 271.48 262.06 275.13 266.10 279.19 269.34 C 283.24 272.58 287.96 275.42 291.35 278.78 C 294.75 282.14 297.05 286.08 299.56 289.49 C 302.06 292.90 304.27 295.99 306.38 299.25 C 308.49 302.50 310.36 305.59 312.22 309.01 C 314.08 312.44 315.61 316.52 317.55 319.80 C 319.50 323.08 321.71 325.79 323.89 328.67 C 326.07 331.55 328.10 334.48 330.65 337.09 C 333.20 339.70 336.53 341.86 339.18 344.33 C 341.83 346.80 343.64 350.24 346.56 351.91 C 349.48 353.57 353.15 353.94 356.71 354.33 C 360.27 354.71 364.22 355.06 367.90 354.21 C 371.58 353.36 375.57 351.51 378.80 349.23 C 382.04 346.95 384.71 343.76 387.30 340.53 C 389.89 337.31 392.74 334.04 394.34 329.89 C 395.94 325.74 396.20 320.65 396.89 315.64 C 397.58 310.63 398.73 305.15 398.48 299.83 C 398.23 294.50 397.23 289.19 395.38 283.68 C 393.52 278.16 390.19 272.07 387.36 266.73 C 384.52 261.40 381.98 256.54 378.37 251.68 C 374.77 246.82 370.26 241.67 365.72 237.56 C 361.19 233.45 355.37 229.91 351.16 227.02 C 346.94 224.13 344.90 221.90 340.43 220.22 C 335.95 218.53 330.39 217.63 324.30 216.90 C 318.22 216.17 310.20 215.88 303.91 215.83 C 297.62 215.78 292.67 215.33 286.57 216.57 C 280.46 217.82 272.83 220.98 267.28 223.30 C 261.74 225.63 257.50 227.17 253.31 230.52 C 249.11 233.87 245.17 239.17 242.10 243.40 C 239.04 247.64 236.56 251.40 234.91 255.95 C 233.26 260.51 232.85 265.99 232.20 270.73 C 231.55 275.48 230.50 279.93 230.99 284.41 C 231.48 288.89 233.01 293.94 235.16 297.63 C 237.31 301.32 240.96 303.13 243.88 306.53 C 246.81 309.93 249.15 314.99 252.73 318.02 C 256.31 321.05 261.06 322.60 265.35 324.72 C 269.64 326.83 273.42 329.66 278.46 330.72 C 283.49 331.78 290.77 331.51 295.57 331.06 C 300.37 330.61 303.05 329.47 307.26 328.04 C 311.48 326.61 316.73 324.71 320.85 322.47 C 324.97 320.22 328.63 317.95 331.98 314.56 C 335.32 311.18 338.32 306.12 340.91 302.17 C 343.50 298.21 344.94 294.74 347.54 290.83 C 350.14 286.93 353.94 282.85 356.52 278.74 C 359.09 274.63 360.85 270.06 362.97 266.18 C 365.08 262.30 366.95 258.52 369.21 255.47 C 371.47 252.42 374.36 250.40 376.54 247.86 C 378.73 245.32 380.61 242.65 382.30 240.22 C 383.98 237.79 384.35 235.67 386.65 233.29 C 388.95 230.91 393.10 228.10 396.09 225.94 C 399.07 223.78 401.58 221.42 404.56 220.34 C 407.53 219.26 411.07 220.15 413.96 219.46 C 416.86 218.78 419.49 217.22 421.93 216.22 C 424.37 215.22 426.13 214.55 428.61 213.46 C 431.09 212.38 434.31 210.74 436.80 209.72 C 439.29 208.70 441.57 208.11 443.56 207.36 C 445.55 206.61 447.39 206.80 448.75 205.23 C 450.11 203.67 450.42 200.73 451.72 197.99 C 453.03 195.25 455.61 191.99 456.58 188.79 C 457.56 185.60 457.96 182.39 457.58 178.82 C 457.19 175.26 455.68 171.61 454.26 167.42 C 452.84 163.23 451.18 157.81 449.07 153.70 C 446.96 149.59 444.26 146.56 441.60 142.76 C 438.95 138.97 437.01 134.46 433.15 130.92 C 429.30 127.38 423.26 124.02 418.48 121.54 C 413.71 119.06 409.64 118.05 404.50 116.05 C 399.35 114.05 393.43 111.49 387.61 109.55 C 381.80 107.61 375.28 105.91 369.61 104.41 C 363.94 102.92 358.24 101.93 353.58 100.58 C 348.91 99.23 346.09 98.08 341.61 96.31 C 337.13 94.55 330.89 91.90 326.70 90.00 C 322.50 88.11 320.02 86.30 316.43 84.95 C 312.83 83.60 308.60 83.68 305.11 81.88 C 301.62 80.08 298.11 76.67 295.50 74.16 C 292.90 71.65 291.26 69.19 289.47 66.80 C 287.67 64.40 286.20 62.12 284.73 59.81 C 283.25 57.50 281.51 55.01 280.61 52.93 C 279.72 50.86 278.77 48.91 279.37 47.38 C 279.98 45.84 281.98 44.78 284.26 43.74 C 286.54 42.70 290.27 41.64 293.08 41.15 C 295.88 40.66 297.35 40.57 301.10 40.79 C 304.85 41.01 311.12 41.28 315.58 42.45 C 320.04 43.63 323.46 45.65 327.86 47.85 C 332.27 50.05 337.94 51.77 342.02 55.67 C 346.10 59.56 349.45 65.82 352.35 71.21 C 355.25 76.60 357.49 81.49 359.42 88.00 C 361.35 94.51 363.29 103.12 363.93 110.27 C 364.58 117.41 363.86 123.67 363.31 130.86 C 362.76 138.06 362.74 146.31 360.64 153.42 C 358.53 160.52 354.67 167.44 350.70 173.49 C 346.73 179.54 342.27 185.05 336.84 189.72 C 331.40 194.39 323.87 198.66 318.09 201.51 C 312.32 204.37 308.01 206.00 302.17 206.83 C 296.32 207.65 288.70 207.29 283.03 206.46 C 277.36 205.63 272.58 204.13 268.16 201.84 C 263.74 199.54 259.15 196.25 256.50 192.69 C 253.86 189.12 253.29 184.41 252.27 180.47 C 251.25 176.52 249.89 172.66 250.39 169.02 C 250.89 165.37 252.81 161.86 255.26 158.62 C 257.71 155.39 261.42 152.19 265.09 149.59 C 268.76 146.99 272.82 144.14 277.29 143.03 C 281.77 141.93 287.06 142.35 291.94 142.97 C 296.81 143.60 301.97 144.93 306.53 146.79 C 311.08 148.64 314.89 151.61 319.25 154.09 C 323.61 156.57 328.84 159.20 332.69 161.67 C 336.55 164.14 339.26 166.28 342.39 168.92 C 345.53 171.56 348.21 174.65 351.51 177.51 C 354.81 180.37 359.23 183.91 362.18 186.07 C 365.14 188.24 366.27 189.30 369.23 190.50 C 372.19 191.69 376.86 192.04 379.94 193.26 C 383.03 194.47 384.74 196.93 387.76 197.80 C 390.78 198.66 395.00 199.04 398.04 198.43 C 401.09 197.82 403.91 196.28 406.05 194.13 C 408.19 191.98 409.75 188.47 410.88 185.53 C 412.02 182.60 412.25 179.53 412.88 176.53 C 413.52 173.53 415.14 171.24 414.71 167.52 C 414.28 163.81 412.23 158.17 410.30 154.23 C 408.37 150.28 406.50 147.43 403.13 143.84 C 399.75 140.26 394.57 135.70 390.07 132.73 C 385.56 129.76 381.22 128.03 376.11 126.04 C 370.99 124.04 365.17 121.54 359.36 120.76 C 353.56 119.98 347.66 120.46 341.27 121.37 C 334.88 122.28 327.55 124.44 321.00 126.20 C 314.44 127.96 307.35 128.88 301.92 131.93 C 296.49 134.98 292.67 139.48 288.40 144.50 C 284.13 149.52 279.88 156.07 276.30 162.04 C 272.71 168.02 269.18 173.79 266.89 180.37 C 264.61 186.95 263.69 195.19 262.58 201.53 C 261.47 207.87 260.00 212.92 260.23 218.42 C 260.46 223.93 262.18 229.82 263.97 234.56 C 265.75 239.31 268.16 242.75 270.94 246.88 C 273.72 251.01 276.95 255.88 280.65 259.34 C 284.35 262.81 288.64 265.11 293.11 267.68 C 297.59 270.25 302.67 273.56 307.49 274.78 C 312.32 276.01 317.44 274.74 322.06 275.02 C 326.67 275.29 331.06 276.67 335.16 276.41 C 339.26 276.15 342.87 275.21 346.64 273.46 C 350.41 271.71 354.39 268.80 357.76 265.90 C 361.14 263.01 364.71 259.72 366.88 256.10 C 369.05 252.49 369.23 248.22 370.78 244.24 C 372.32 240.26 374.35 235.82 376.15 232.24 C 377.95 228.66 379.88 226.18 381.56 222.75 C 383.25 219.31 384.75 214.77 386.25 211.63 C 387.75 208.49 389.56 206.82 390.59 203.92 C 391.62 201.02 391.70 197.17 392.46 194.24 C 393.21 191.30 394.48 189.27 395.11 186.29 C 395.74 183.31 395.37 179.46 396.25 176.36 C 397.12 173.27 398.74 169.97 400.35 167.72 C 401.96 165.47 404.25 164.79 405.91 162.85 C 407.57 160.91 408.80 158.18 410.34 156.08 C 411.87 153.97 413.36 151.67 415.11 150.23 C 416.86 148.78 418.87 148.57 420.84 147.41 C 422.80 146.26 425.27 144.66 426.92 143.29 C 428.57 141.93 429.65 140.46 430.75 139.21 C 431.86 137.96 432.91 137.34 433.57 135.82 C 434.23 134.29 434.04 132.67 434.71 130.07 C 435.38 127.47 437.20 123.14 437.59 120.21 C 437.98 117.29 437.86 115.04 437.03 112.52 C 436.20 109.99 434.39 107.61 432.62 105.05 C 430.85 102.49 428.96 99.95 426.40 97.17 C 423.83 94.40 420.26 90.99 417.22 88.39 C 414.19 85.79 412.18 83.37 408.20 81.60 C 404.23 79.83 398.72 79.05 393.37 77.75 C 388.03 76.44 382.21 75.00 376.12 73.76 C 370.03 72.52 362.90 71.01 356.82 70.32 C 350.73 69.63 345.34 69.70 339.62 69.63 C 333.91 69.56 328.10 69.82 322.50 69.91 C 316.91 70.00 311.64 70.21 306.08 70.19 C 300.52 70.17 294.33 70.07 289.12 69.79 C 283.92 69.51 278.87 68.93 274.83 68.52 C 270.79 68.11 268.00 68.15 264.89 67.32 C 261.78 66.49 258.47 64.58 256.18 63.54 C 253.89 62.50 252.99 62.54 251.16 61.07 C 249.33 59.61 246.67 57.17 245.19 54.75 C 243.70 52.33 242.47 48.76 242.23 46.56 C 242.00 44.36 242.37 43.15 243.76 41.54 C 245.14 39.92 248.58 38.20 250.55 36.85 C 252.53 35.50 253.83 34.21 255.61 33.42 C 257.39 32.63 259.32 32.61 261.22 32.11 C 263.12 31.60 264.90 31.63 267.03 30.38 C 269.16 29.13 271.89 26.20 274.00 24.61 C 276.11 23.02 277.80 21.95 279.69 20.83 C 281.58 19.72 283.76 19.09 285.31 17.93 C 286.86 16.77 287.70 14.78 288.99 13.88 C 290.27 12.99 292.23 13.44 293.02 12.58 C 293.81 11.72 293.95 10.10 293.71 8.70 C 293.47 7.29 292.00 4.40 291.58 4.17 C 291.16 3.94 291.66 2.19 291.17 7.33 C 290.69 12.47 288.76 25.67 288.66 35.02 C 288.57 44.37 290.15 54.57 290.60 63.46 C 291.05 72.34 291.26 80.39 291.34 88.32 C 291.43 96.26 291.13 103.66 291.11 111.05 C 291.08 118.44 291.47 125.75 291.18 132.68 C 290.90 139.60 290.54 146.58 289.38 152.61 C 288.22 158.65 286.01 163.08 284.22 168.91 C 282.43 174.74 280.35 182.09 278.63 187.58 C 276.91 193.06 276.27 197.01 273.90 201.81 C 271.52 206.61 268.27 212.25 264.37 216.37 C 260.47 220.50 254.98 223.47 250.47 226.56 C 245.96 229.64 242.28 233.00 237.31 234.87 C 232.35 236.74 225.41 237.50 220.70 237.78 C 215.98 238.06 213.14 237.77 209.01 236.58 C 204.89 235.39 199.70 232.87 195.96 230.65 C 192.21 228.43 189.07 226.58 186.54 223.25 C 184.00 219.93 181.81 215.22 180.75 210.69 C 179.69 206.16 179.66 200.66 180.19 196.07 C 180.73 191.48 182.40 186.92 183.96 183.15 C 185.52 179.38 186.76 176.50 189.54 173.46 C 192.33 170.42 196.21 167.00 200.67 164.91 C 205.13 162.83 210.95 161.43 216.30 160.96 C 221.65 160.48 227.57 160.29 232.77 162.07 C 237.98 163.85 243.22 167.88 247.55 171.63 C 251.87 175.38 255.30 179.99 258.72 184.54 C 262.14 189.10 265.23 194.01 268.06 198.94 C 270.90 203.87 273.87 208.61 275.73 214.12 C 277.59 219.64 278.08 225.90 279.21 232.02 C 280.34 238.15 282.02 245.40 282.50 250.86 C 282.99 256.31 281.92 260.25 282.12 264.75 C 282.32 269.26 283.46 272.85 283.70 277.90 C 283.94 282.94 283.11 290.28 283.57 295.01 C 284.02 299.74 285.73 302.71 286.41 306.29 C 287.09 309.86 287.11 313.07 287.64 316.46 C 288.17 319.86 289.05 322.90 289.57 326.63 C 290.09 330.36 289.48 335.11 290.77 338.85 C 292.07 342.59 294.80 345.64 297.34 349.06 C 299.88 352.48 302.93 356.31 306.02 359.38 C 309.11 362.44 312.26 365.18 315.89 367.46 C 319.52 369.74 324.29 371.96 327.80 373.07 C 331.32 374.18 333.68 373.84 336.97 374.13 C 340.27 374.41 343.97 375.66 347.57 374.78 C 351.17 373.91 354.94 371.33 358.58 368.86 C 362.21 366.38 365.91 362.94 369.37 359.93 C 372.84 356.93 376.47 354.52 379.37 350.84 C 382.27 347.16 384.81 342.73 386.78 337.87 C 388.76 333.01 390.03 326.75 391.22 321.68 C 392.40 316.62 394.01 312.68 393.87 307.47 C 393.72 302.27 391.61 295.59 390.34 290.46 C 389.07 285.34 388.06 281.42 386.26 276.72 C 384.46 272.02 382.53 267.24 379.53 262.26 C 376.52 257.27 371.90 251.48 368.23 246.81 C 364.56 242.13 362.20 237.59 357.53 234.22 C 352.86 230.85 346.06 228.86 340.19 226.58 C 334.32 224.31 328.55 222.12 322.30 220.56 C 316.05 219.00 308.82 217.06 302.68 217.20 C 296.55 217.35 290.95 219.84 285.49 221.44 C 280.03 223.05 274.74 224.39 269.90 226.85 C 265.06 229.30 260.75 233.05 256.46 236.17 C 252.18 239.29 248.11 242.11 244.19 245.57 C 240.27 249.02 235.83 253.12 232.92 256.89 C 230.01 260.66 228.20 264.04 226.75 268.19 C 225.29 272.33 224.64 277.11 224.20 281.75 C 223.76 286.39 223.52 291.26 224.10 296.01 C 224.67 300.76 225.95 305.74 227.67 310.27 C 229.38 314.80 231.66 319.43 234.36 323.17 C 237.07 326.91 240.57 330.07 243.90 332.71 C 247.23 335.35 250.38 337.16 254.34 339.02 C 258.31 340.88 263.37 342.77 267.69 343.86 C 272.01 344.95 275.88 345.57 280.26 345.56 C 284.63 345.55 289.39 344.90 293.96 343.79 C 298.54 342.69 303.18 341.00 307.72 338.94 C 312.25 336.88 317.59 334.63 321.17 331.43 C 324.74 328.22 326.43 324.46 329.18 319.71 C 331.92 314.97 335.58 308.46 337.66 302.94 C 339.73 297.41 341.53 291.97 341.63 286.57 C 341.72 281.17 339.90 276.20 338.22 270.55 C 336.53 264.89 334.27 257.39 331.53 252.65 C 328.78 247.91 325.60 245.72 321.74 242.13 C 317.88 238.53 312.82 233.81 308.35 231.10 C 303.89 228.38 300.68 227.20 294.95 225.84 C 289.21 224.48 280.18 223.15 273.94 222.94 C 267.71 222.73 262.49 222.73 257.54 224.59 C 252.60 226.45 248.41 230.81 244.26 234.11 C 240.12 237.42 235.84 240.19 232.68 244.43 C 229.52 248.67 227.26 254.50 225.31 259.56 C 223.35 264.61 221.08 269.80 220.94 274.75 C 220.80 279.71 222.61 284.48 224.47 289.28 C 226.34 294.09 228.65 299.81 232.15 303.59 C 235.65 307.37 241.02 309.00 245.49 311.97 C 249.95 314.95 255.02 319.84 258.92 321.45 C 262.82 323.05 264.82 321.68 268.88 321.61 C 272.93 321.53 278.50 321.83 283.23 321.02 C 287.96 320.20 293.00 318.78 297.25 316.72 C 301.51 314.65 305.34 311.90 308.78 308.62 C 312.21 305.34 314.99 301.27 317.84 297.03 C 320.69 292.80 323.88 288.19 325.87 283.19 C 327.87 278.18 329.29 272.11 329.82 267.02 C 330.35 261.92 329.51 257.34 329.04 252.61 C 328.58 247.87 328.09 243.30 327.03 238.60 C 325.97 233.90 324.34 228.86 322.70 224.42 C 321.05 219.98 319.25 216.05 317.16 211.96 C 315.08 207.88 312.73 204.00 310.17 199.91 C 307.62 195.82 303.89 191.28 301.81 187.42 C 299.74 183.56 299.27 180.09 297.73 176.77 C 296.18 173.44 293.69 171.09 292.54 167.45 C 291.39 163.82 291.77 158.68 290.80 154.97 C 289.84 151.27 287.32 148.18 286.77 145.23 C 286.23 142.28 286.89 139.88 287.54 137.29 C 288.20 134.70 289.73 132.34 290.69 129.68 C 291.66 127.02 292.02 124.07 293.31 121.32 C 294.60 118.58 296.30 115.74 298.43 113.22 C 300.56 110.70 303.26 107.97 306.08 106.20 C 308.91 104.43 311.64 102.74 315.37 102.58 C 319.10 102.42 324.38 103.94 328.49 105.25 C 332.60 106.57 335.92 108.23 340.01 110.48 C 344.10 112.74 349.02 115.08 353.04 118.77 C 357.06 122.46 361.49 127.50 364.13 132.63 C 366.77 137.76 367.42 143.03 368.86 149.56 C 370.30 156.08 372.74 165.03 372.78 171.79 C 372.82 178.54 371.14 183.79 369.12 190.07 C 367.10 196.34 363.61 203.23 360.65 209.43 C 357.69 215.62 355.59 222.05 351.37 227.22 C 347.14 232.40 340.81 236.95 335.30 240.45 C 329.79 243.96 324.19 247.03 318.30 248.26 C 312.40 249.50 306.14 248.34 299.95 247.87 C 293.76 247.41 287.21 246.96 281.17 245.47 C 275.12 243.99 268.58 241.35 263.68 238.98 C 258.79 236.60 255.19 234.72 251.80 231.24 C 248.40 227.76 245.55 222.30 243.33 218.10 C 241.10 213.89 239.19 210.28 238.43 206.01 C 237.67 201.74 238.58 196.92 238.78 192.48 C 238.98 188.03 238.52 183.36 239.64 179.35 C 240.76 175.33 243.42 171.09 245.51 168.38 C 247.61 165.66 249.78 165.14 252.20 163.05 C 254.63 160.96 257.16 157.75 260.07 155.84 C 262.98 153.94 266.00 152.05 269.66 151.61 C 273.32 151.17 277.59 152.82 282.03 153.20 C 286.47 153.57 291.71 152.95 296.31 153.86 C 300.90 154.77 305.58 156.29 309.60 158.64 C 313.61 160.98 316.75 164.08 320.39 167.95 C 324.04 171.82 328.55 177.14 331.46 181.87 C 334.37 186.59 336.41 191.15 337.83 196.30 C 339.25 201.46 339.80 207.29 339.98 212.78 C 340.15 218.28 340.03 223.89 338.86 229.27 C 337.68 234.65 335.41 239.81 332.92 245.06 C 330.43 250.31 327.17 255.35 323.91 260.75 C 320.65 266.14 317.04 272.44 313.36 277.42 C 309.67 282.40 305.65 286.99 301.82 290.61 C 297.98 294.23 294.73 296.63 290.35 299.13 C 285.98 301.63 280.24 303.45 275.59 305.63 C 270.93 307.80 266.54 309.92 262.43 312.19 C 258.32 314.47 254.43 317.15 250.93 319.28 C 247.42 321.40 244.78 322.57 241.39 324.92 C 238.00 327.28 233.66 330.43 230.57 333.38 C 227.49 336.34 225.60 339.86 222.89 342.64 C 220.17 345.42 216.89 347.63 214.28 350.06 C 211.68 352.49 209.05 354.41 207.25 357.21 C 205.45 360.02 204.15 364.10 203.48 366.86 C 202.80 369.63 202.82 370.83 203.19 373.82 C 203.56 376.81 205.20 381.00 205.68 384.81 C 206.15 388.62 205.58 393.28 206.03 396.67 C 206.49 400.06 208.08 401.94 208.43 405.13 C 208.78 408.31 208.29 412.56 208.14 415.78 C 208.00 419.00 207.57 421.60 207.54 424.44 C 207.52 427.29 208.43 430.36 207.97 432.86 C 207.50 435.35 205.91 438.09 204.75 439.41 C 203.59 440.74 202.85 439.94 201.00 440.81 C 199.15 441.68 196.61 443.91 193.66 444.66 C 190.71 445.41 186.78 445.23 183.28 445.33 C 179.78 445.43 176.31 445.88 172.64 445.26 C 168.96 444.65 165.02 443.72 161.22 441.65 C 157.42 439.57 153.66 436.21 149.85 432.81 C 146.04 429.42 142.02 424.97 138.37 421.28 C 134.72 417.59 130.95 414.92 127.95 410.69 C 124.95 406.46 122.42 400.85 120.39 395.90 C 118.35 390.96 116.83 385.69 115.75 381.02 C 114.68 376.36 114.59 372.95 113.95 367.93 C 113.31 362.92 111.45 356.88 111.91 350.93 C 112.37 344.98 114.60 338.76 116.69 332.22 C 118.79 325.69 121.63 317.70 124.48 311.71 C 127.33 305.72 129.97 301.04 133.82 296.28 C 137.67 291.51 142.79 287.29 147.60 283.10 C 152.41 278.91 157.50 274.68 162.70 271.12 C 167.89 267.57 172.87 264.14 178.78 261.77 C 184.69 259.39 192.15 258.07 198.16 256.86 C 204.17 255.66 209.27 254.39 214.84 254.54 C 220.41 254.69 226.51 255.45 231.58 257.79 C 236.66 260.12 241.63 264.81 245.27 268.54 C 248.92 272.26 250.87 276.03 253.44 280.14 C 256.02 284.25 259.56 288.48 260.72 293.20 C 261.89 297.92 261.43 303.95 260.44 308.47 C 259.45 313.00 256.97 316.72 254.79 320.38 C 252.61 324.03 250.20 327.46 247.36 330.38 C 244.51 333.31 241.64 335.83 237.71 337.93 C 233.79 340.02 228.45 342.69 223.82 342.94 C 219.18 343.19 214.19 340.60 209.91 339.43 C 205.63 338.25 202.38 337.75 198.14 335.88 C 193.90 334.00 189.02 330.63 184.48 328.17 C 179.94 325.71 174.84 323.76 170.90 321.11 C 166.97 318.46 164.31 315.16 160.87 312.28 C 157.44 309.41 153.59 306.85 150.28 303.87 C 146.97 300.88 144.34 296.94 141.03 294.37 C 137.72 291.80 133.85 290.35 130.44 288.43 C 127.04 286.52 123.50 284.30 120.58 282.87 C 117.65 281.45 115.13 280.42 112.89 279.88 C 110.65 279.35 109.18 279.38 107.14 279.66 C 105.09 279.93 103.14 280.93 100.61 281.53 C 98.08 282.14 93.86 281.76 91.95 283.31 C 90.03 284.87 90.21 287.67 89.15 290.87 C 88.08 294.08 85.46 298.34 85.56 302.53 C 85.66 306.73 88.17 311.35 89.73 316.05 C 91.28 320.74 91.93 326.41 94.89 330.69 C 97.85 334.97 103.25 338.50 107.50 341.70 C 111.75 344.90 115.20 347.26 120.40 349.88 C 125.60 352.51 132.15 355.98 138.70 357.43 C 145.25 358.89 153.01 359.02 159.68 358.62 C 166.34 358.22 172.59 357.01 178.70 355.03 C 184.81 353.06 190.99 350.49 196.35 346.77 C 201.70 343.05 206.89 337.08 210.85 332.72 C 214.80 328.36 217.20 325.59 220.08 320.62 C 222.97 315.66 226.28 308.97 228.14 302.94 C 230.01 296.90 230.80 290.35 231.28 284.42 C 231.77 278.50 231.27 273.19 231.05 267.38 C 230.83 261.57 230.57 255.10 229.97 249.55 C 229.37 243.99 228.52 239.00 227.46 234.06 C 226.41 229.13 224.92 224.43 223.65 219.95 C 222.39 215.48 221.13 211.50 219.87 207.23 C 218.60 202.95 216.81 198.28 216.07 194.31 C 215.33 190.33 215.47 187.11 215.44 183.39 C 215.41 179.66 215.10 175.98 215.88 171.95 C 216.66 167.92 218.71 162.95 220.11 159.19 C 221.52 155.43 222.92 152.55 224.31 149.38 C 225.69 146.20 226.85 143.26 228.42 140.12 C 229.99 136.97 231.85 133.75 233.73 130.52 C 235.62 127.29 238.21 124.03 239.76 120.73 C 241.31 117.44 242.06 113.83 243.03 110.74 C 244.01 107.66 244.70 105.00 245.62 102.24 C 246.55 99.48 248.52 96.67 248.60 94.21 C 248.68 91.74 246.92 89.60 246.11 87.44 C 245.30 85.28 245.35 83.27 243.76 81.27 C 242.17 79.27 239.32 76.84 236.56 75.43 C 233.80 74.02 230.46 73.50 227.19 72.82 C 223.91 72.13 220.33 71.19 216.93 71.32 C 213.52 71.45 210.34 71.85 206.76 73.58 C 203.17 75.32 199.49 78.67 195.41 81.74 C 191.33 84.82 186.22 88.30 182.29 92.05 C 178.36 95.80 174.93 99.78 171.83 104.25 C 168.72 108.71 165.82 113.52 163.63 118.83 C 161.45 124.14 159.26 129.91 158.73 136.12 C 158.21 142.33 159.32 149.28 160.49 156.07 C 161.66 162.87 163.32 170.01 165.75 176.89 C 168.18 183.77 171.13 191.59 175.07 197.35 C 179.01 203.12 184.26 207.07 189.38 211.46 C 194.51 215.85 200.00 221.02 205.82 223.69 C 211.64 226.36 218.42 227.09 224.31 227.47 C 230.20 227.84 235.77 227.14 241.17 225.94 C 246.57 224.74 252.68 222.76 256.71 220.26 C 260.74 217.76 263.02 214.83 265.37 210.93 C 267.72 207.04 269.64 201.31 270.84 196.91 C 272.04 192.52 272.80 188.73 272.57 184.56 C 272.34 180.39 271.14 175.59 269.46 171.90 C 267.78 168.21 265.12 164.43 262.50 162.43 C 259.88 160.43 257.42 160.82 253.75 159.88 C 250.08 158.95 244.96 156.41 240.48 156.83 C 236.01 157.26 231.36 160.63 226.88 162.43 C 222.40 164.22 217.74 164.82 213.61 167.60 C 209.47 170.38 205.43 174.64 202.07 179.09 C 198.71 183.54 195.17 189.26 193.43 194.28 C 191.68 199.30 191.86 203.83 191.61 209.22 C 191.36 214.62 190.77 220.85 191.93 226.65 C 193.09 232.45 196.31 238.43 198.56 244.02 C 200.81 249.60 202.59 255.15 205.45 260.18 C 208.31 265.20 211.86 269.87 215.71 274.15 C 219.57 278.42 224.45 282.13 228.58 285.81 C 232.71 289.49 236.34 292.94 240.50 296.21 C 244.65 299.48 249.44 302.58 253.52 305.42 C 257.60 308.26 261.49 310.41 264.99 313.23 C 268.48 316.05 271.44 319.73 274.50 322.33 C 277.56 324.94 280.19 326.10 283.36 328.85 C 286.52 331.60 290.93 336.01 293.49 338.85 C 296.04 341.70 296.61 343.11 298.68 345.91 C 300.75 348.72 303.90 352.75 305.88 355.67 C 307.86 358.59 309.05 360.49 310.56 363.42 C 312.06 366.35 314.19 370.14 314.91 373.22 C 315.64 376.30 314.89 379.33 314.90 381.89 C 314.90 384.46 315.62 385.76 314.95 388.63 C 314.29 391.49 312.74 395.93 310.92 399.10 C 309.09 402.28 306.23 404.73 304.01 407.66 C 301.79 410.60 300.17 414.25 297.61 416.73 C 295.04 419.20 292.50 421.31 288.62 422.52 C 284.74 423.72 279.02 423.80 274.32 423.97 C 269.63 424.14 265.09 424.18 260.45 423.52 C 255.82 422.87 251.13 421.09 246.49 420.05 C 241.85 419.02 236.97 418.85 232.60 417.29 C 228.22 415.73 224.69 413.18 220.24 410.70 C 215.79 408.21 210.32 405.85 205.88 402.38 C 201.44 398.92 197.69 393.55 193.60 389.90 C 189.50 386.26 185.20 383.54 181.30 380.52 C 177.40 377.50 173.95 374.74 170.21 371.78 C 166.46 368.83 162.63 365.73 158.83 362.79 C 155.02 359.85 151.02 357.11 147.38 354.15 C 143.73 351.19 140.06 347.82 136.94 345.05 C 133.82 342.28 131.75 340.20 128.64 337.54 C 125.52 334.89 121.17 331.41 118.26 329.12 C 115.36 326.84 113.27 324.98 111.20 323.84 C 109.13 322.70 108.26 322.93 105.83 322.29 C 103.40 321.66 99.39 320.34 96.61 320.03 C 93.82 319.72 91.71 320.03 89.12 320.44 C 86.54 320.84 83.61 321.46 81.08 322.48 C 78.55 323.50 75.76 325.17 73.93 326.56 C 72.10 327.94 71.52 328.88 70.11 330.79 C 68.70 332.70 66.15 335.23 65.46 338.04 C 64.77 340.86 65.43 344.45 65.96 347.68 C 66.49 350.90 67.36 354.04 68.63 357.39 C 69.90 360.74 71.61 364.77 73.61 367.78 C 75.60 370.78 77.67 372.14 80.60 375.41 C 83.52 378.67 87.61 384.04 91.16 387.37 C 94.71 390.69 97.54 392.50 101.91 395.36 C 106.28 398.22 112.05 402.44 117.38 404.55 C 122.70 406.66 127.98 407.14 133.87 408.03 C 139.76 408.92 146.42 409.86 152.71 409.88 C 159.01 409.90 164.65 409.06 171.64 408.14 C 178.64 407.22 187.74 406.29 194.70 404.35 C 201.65 402.42 207.55 399.30 213.39 396.54 C 219.22 393.78 224.36 391.40 229.70 387.78 C 235.04 384.17 240.06 379.34 245.45 374.86 C 250.83 370.37 257.51 366.07 262.03 360.88 C 266.54 355.68 269.01 349.13 272.55 343.71 C 276.09 338.29 280.81 334.08 283.25 328.36 C 285.69 322.65 286.82 315.69 287.21 309.39 C 287.60 303.10 286.65 296.49 285.61 290.57 C 284.57 284.64 283.27 278.89 280.98 273.85 C 278.70 268.81 274.88 264.55 271.92 260.31 C 268.96 256.07 266.60 252.33 263.22 248.40 C 259.85 244.47 255.90 239.54 251.67 236.75 C 247.44 233.95 242.62 232.43 237.87 231.64 C 233.12 230.85 227.90 231.34 223.17 232.00 C 218.43 232.65 213.55 234.24 209.45 235.56 C 205.34 236.88 201.83 237.88 198.54 239.93 C 195.24 241.98 192.50 244.48 189.66 247.86 C 186.82 251.23 183.71 256.04 181.50 260.18 C 179.28 264.31 177.10 268.23 176.37 272.68 C 175.64 277.14 176.25 282.10 177.11 286.90 C 177.96 291.71 179.48 297.27 181.52 301.53 C 183.57 305.79 186.32 309.17 189.39 312.49 C 192.46 315.81 193.84 318.43 199.94 321.44 C 206.03 324.44 221.60 329.02 225.93 330.54" fill="none" stroke="#fff" stroke-width="4.48" stroke-opacity="1" stroke-linecap="round" stroke-linejoin="round"/>
  </g>
</svg>