<?xml version="1.0" encoding="UTF-8"?>
<svg xmlns="http://www.w3.org/2000/svg" width="512" height="512" viewBox="0 0 512 512">
  <rect width="100%" height="100%" fill="#000"/>
  <g>
    <path d="M 256.00 256.00 C 255.12 253.07 253.85 244.52 250.74 238.40 C 247.63 232.28 242.06 224.03 237.36 219.29 C 232.65 214.54 228.06 212.11 222.51 209.92 C 216.95 207.72 209.77 206.23 204.01 206.13 C 198.25 206.03 193.38 206.96 187.94 209.33 C 182.51 211.69 175.78 215.99 171.40 220.30 C 167.01 224.61 163.94 229.33 161.64 235.19 C 159.33 241.04 157.83 249.05 157.57 255.45 C 157.30 261.85 158.30 267.04 160.06 273.60 C 161.83 280.17 164.69 288.73 168.15 294.84 C 171.61 300.94 175.66 305.15 180.83 310.24 C 186.01 315.32 193.30 321.43 199.21 325.35 C 205.13 329.27 209.57 331.63 216.31 333.76 C 223.04 335.88 232.40 337.73 239.62 338.12 C 246.85 338.50 252.59 337.49 259.65 336.04 C 266.72 334.59 275.22 331.99 282.01 329.41 C 288.80 326.82 294.62 324.76 300.38 320.53 C 306.14 316.31 312.37 309.55 316.56 304.08 C 320.76 298.60 323.07 294.29 325.57 287.69 C 328.07 281.08 331.11 271.62 331.57 264.45 C 332.03 257.28 330.83 251.59 328.33 244.68 C 325.84 237.76 321.32 228.76 316.59 222.98 C 311.85 217.20 306.31 213.32 299.92 209.99 C 293.53 206.65 285.34 203.80 278.24 202.94 C 271.14 202.09 264.43 202.68 257.34 204.85 C 250.25 207.02 241.50 211.77 235.72 215.96 C 229.95 220.15 226.29 224.05 222.68 229.98 C 219.06 235.91 215.32 244.84 214.05 251.54 C 212.78 258.25 213.36 263.57 215.04 270.21 C 216.73 276.85 220.29 285.70 224.16 291.38 C 228.02 297.05 232.26 300.89 238.24 304.27 C 244.22 307.64 253.54 310.24 260.03 311.64 C 266.53 313.05 270.76 313.27 277.21 312.71 C 283.66 312.14 292.56 309.86 298.75 308.26 C 304.93 306.65 308.63 305.28 314.32 303.07 C 320.02 300.85 327.49 297.34 332.93 294.96 C 338.36 292.58 342.18 290.45 346.96 288.78 C 351.73 287.10 357.12 285.73 361.57 284.92 C 366.01 284.11 369.67 283.58 373.63 283.93 C 377.60 284.27 381.82 285.84 385.36 286.99 C 388.89 288.14 391.70 289.10 394.85 290.84 C 398.00 292.57 401.23 295.27 404.24 297.42 C 407.26 299.57 410.30 302.21 412.93 303.76 C 415.57 305.31 417.48 305.83 420.04 306.73 C 422.61 307.62 425.64 308.58 428.30 309.15 C 430.97 309.71 433.34 310.42 436.02 310.12 C 438.69 309.81 441.92 308.80 444.36 307.32 C 446.79 305.85 448.45 304.04 450.63 301.28 C 452.81 298.52 455.58 294.24 457.43 290.76 C 459.29 287.28 460.51 284.35 461.77 280.40 C 463.03 276.46 464.04 270.79 464.99 267.08 C 465.95 263.37 466.34 261.63 467.51 258.13 C 468.68 254.64 470.70 249.40 471.98 246.10 C 473.27 242.80 473.88 240.90 475.23 238.32 C 476.58 235.74 478.72 232.48 480.09 230.61 C 481.47 228.75 482.26 227.77 483.47 227.11 C 484.69 226.46 486.20 226.82 487.39 226.70 C 488.58 226.58 489.45 226.37 490.60 226.41 C 491.75 226.45 493.48 227.38 494.31 226.94 C 495.15 226.50 494.96 225.23 495.62 223.77 C 496.28 222.31 497.83 220.35 498.27 218.19 C 498.71 216.03 498.56 213.76 498.25 210.82 C 497.94 207.88 497.07 203.91 496.41 200.54 C 495.76 197.17 496.00 194.75 494.33 190.59 C 492.65 186.43 489.37 180.07 486.36 175.57 C 483.36 171.07 480.90 168.14 476.29 163.58 C 471.69 159.02 464.78 152.80 458.74 148.21 C 452.69 143.62 447.59 139.62 440.02 136.05 C 432.45 132.48 422.24 128.85 413.32 126.79 C 404.41 124.72 396.14 123.76 386.53 123.65 C 376.92 123.54 365.04 124.17 355.64 126.14 C 346.24 128.10 338.69 130.89 330.13 135.45 C 321.56 140.01 311.58 147.34 304.26 153.48 C 296.94 159.62 291.68 164.88 286.22 172.29 C 280.76 179.69 274.93 189.90 271.49 197.92 C 268.06 205.94 267.00 212.46 265.59 220.43 C 264.18 228.40 262.94 238.16 263.01 245.71 C 263.09 253.27 264.02 259.17 266.04 265.78 C 268.07 272.39 271.78 280.03 275.16 285.39 C 278.54 290.75 281.79 294.03 286.31 297.93 C 290.84 301.82 297.48 305.99 302.32 308.76 C 307.16 311.54 310.65 312.58 315.35 314.57 C 320.06 316.56 325.90 318.92 330.53 320.71 C 335.17 322.49 339.12 323.59 343.15 325.28 C 347.19 326.97 350.97 328.71 354.75 330.85 C 358.52 332.98 362.73 335.64 365.80 338.12 C 368.86 340.59 370.91 342.90 373.13 345.71 C 375.36 348.52 377.71 351.83 379.17 354.99 C 380.62 358.15 380.84 361.49 381.87 364.68 C 382.89 367.87 384.32 371.20 385.33 374.11 C 386.34 377.03 386.81 379.68 387.93 382.20 C 389.06 384.72 390.82 387.28 392.09 389.22 C 393.36 391.16 393.72 392.70 395.55 393.86 C 397.38 395.02 400.57 396.12 403.06 396.21 C 405.55 396.29 407.84 395.68 410.51 394.40 C 413.19 393.11 416.46 390.60 419.11 388.47 C 421.75 386.35 423.64 384.08 426.37 381.65 C 429.11 379.22 432.98 376.30 435.53 373.89 C 438.07 371.48 439.33 369.25 441.64 367.21 C 443.94 365.17 447.22 363.22 449.38 361.64 C 451.53 360.07 452.70 358.25 454.58 357.78 C 456.45 357.30 459.15 358.33 460.62 358.78 C 462.08 359.24 462.75 359.03 463.36 360.48 C 463.98 361.94 464.47 365.03 464.30 367.49 C 464.12 369.96 463.81 372.22 462.31 375.27 C 460.82 378.32 457.65 382.41 455.35 385.78 C 453.05 389.15 451.57 392.23 448.52 395.50 C 445.47 398.77 440.80 402.27 437.04 405.41 C 433.28 408.56 431.02 411.22 425.96 414.39 C 420.90 417.57 412.71 421.75 406.69 424.46 C 400.66 427.17 396.43 428.67 389.81 430.64 C 383.19 432.61 373.96 435.21 366.99 436.29 C 360.02 437.37 355.34 436.98 347.98 437.15 C 340.62 437.32 330.25 437.31 322.83 437.31 C 315.41 437.31 310.32 437.07 303.45 437.15 C 296.59 437.23 288.12 437.84 281.66 437.80 C 275.19 437.75 270.31 436.89 264.66 436.90 C 259.01 436.91 252.71 437.30 247.78 437.86 C 242.85 438.43 239.26 439.33 235.07 440.29 C 230.87 441.25 225.79 442.44 222.62 443.60 C 219.45 444.76 217.92 445.46 216.05 447.25 C 214.19 449.03 211.92 452.30 211.41 454.31 C 210.89 456.32 211.74 457.34 212.96 459.30 C 214.19 461.27 215.96 464.34 218.76 466.10 C 221.56 467.85 224.99 469.28 229.76 469.83 C 234.54 470.39 241.77 470.44 247.42 469.41 C 253.07 468.38 257.19 466.87 263.64 463.66 C 270.10 460.44 278.83 455.59 286.16 450.11 C 293.50 444.63 301.63 436.99 307.65 430.80 C 313.67 424.62 317.26 419.68 322.30 413.01 C 327.34 406.34 333.26 397.43 337.90 390.79 C 342.54 384.16 345.76 379.28 350.15 373.21 C 354.54 367.14 360.23 359.79 364.24 354.38 C 368.25 348.97 370.62 345.40 374.19 340.77 C 377.76 336.13 382.09 330.55 385.68 326.58 C 389.27 322.61 392.21 320.12 395.73 316.95 C 399.25 313.79 403.56 309.95 406.80 307.60 C 410.03 305.26 412.03 304.57 415.15 302.87 C 418.27 301.16 422.38 299.14 425.52 297.38 C 428.66 295.63 431.24 294.18 433.99 292.34 C 436.74 290.49 439.63 288.32 442.02 286.31 C 444.40 284.31 446.13 282.68 448.30 280.30 C 450.47 277.91 452.98 274.62 455.02 271.99 C 457.06 269.36 458.72 267.52 460.56 264.51 C 462.40 261.50 464.46 256.86 466.06 253.93 C 467.65 251.00 468.67 249.12 470.16 246.92 C 471.65 244.73 473.56 242.21 475.00 240.75 C 476.44 239.30 477.23 238.50 478.78 238.21 C 480.32 237.91 482.74 238.36 484.27 238.99 C 485.81 239.62 486.84 239.96 487.98 242.00 C 489.13 244.04 490.68 247.87 491.16 251.24 C 491.63 254.61 491.63 257.39 490.84 262.20 C 490.05 267.01 488.28 274.67 486.41 280.12 C 484.54 285.57 482.56 289.36 479.62 294.90 C 476.68 300.44 471.97 307.78 468.77 313.35 C 465.57 318.92 463.51 322.95 460.39 328.31 C 457.26 333.67 452.91 340.47 450.04 345.51 C 447.16 350.55 445.55 354.07 443.14 358.58 C 440.72 363.09 437.30 368.71 435.55 372.56 C 433.79 376.41 433.59 378.35 432.62 381.70 C 431.65 385.05 430.71 389.59 429.73 392.65 C 428.76 395.71 428.14 397.10 426.78 400.04 C 425.43 402.99 423.84 407.11 421.62 410.32 C 419.39 413.53 417.03 416.12 413.43 419.33 C 409.84 422.53 404.69 426.80 400.05 429.53 C 395.42 432.25 391.51 433.68 385.63 435.67 C 379.75 437.67 371.60 440.36 364.79 441.51 C 357.98 442.66 352.44 443.17 344.79 442.58 C 337.14 441.98 327.27 440.09 318.90 437.93 C 310.54 435.76 302.77 434.01 294.60 429.57 C 286.44 425.13 277.11 418.79 269.89 411.30 C 262.68 403.81 255.84 393.20 251.30 384.62 C 246.77 376.05 244.10 369.11 242.69 359.87 C 241.28 350.62 241.78 338.00 242.83 329.14 C 243.88 320.28 245.43 314.18 248.99 306.69 C 252.54 299.20 258.97 289.99 264.17 284.20 C 269.38 278.42 274.32 275.48 280.21 272.00 C 286.10 268.51 293.55 265.54 299.52 263.30 C 305.48 261.05 310.59 260.21 316.01 258.52 C 321.43 256.82 327.08 254.88 332.04 253.15 C 336.99 251.42 340.95 250.22 345.74 248.14 C 350.52 246.06 356.40 243.21 360.76 240.66 C 365.11 238.11 369.00 236.26 371.85 232.85 C 374.70 229.43 376.56 224.58 377.86 220.15 C 379.16 215.71 380.10 211.62 379.63 206.25 C 379.16 200.87 377.25 193.35 375.06 187.91 C 372.87 182.47 370.64 178.49 366.50 173.63 C 362.36 168.77 355.92 162.72 350.22 158.72 C 344.51 154.72 339.46 151.57 332.27 149.62 C 325.08 147.68 315.17 146.96 307.06 147.08 C 298.95 147.20 291.69 147.68 283.60 150.35 C 275.52 153.02 265.32 158.43 258.55 163.09 C 251.79 167.75 248.37 172.55 242.99 178.31 C 237.61 184.07 230.94 191.57 226.28 197.65 C 221.61 203.73 218.42 208.15 215.01 214.79 C 211.59 221.43 208.58 230.96 205.80 237.47 C 203.03 243.99 201.09 248.12 198.34 253.90 C 195.60 259.68 192.27 266.86 189.35 272.16 C 186.42 277.46 184.17 281.25 180.78 285.70 C 177.39 290.15 172.85 295.17 169.02 298.85 C 165.19 302.52 161.61 305.23 157.77 307.74 C 153.94 310.24 149.75 312.36 146.02 313.88 C 142.29 315.40 139.36 316.10 135.40 316.87 C 131.43 317.64 126.12 318.54 122.23 318.48 C 118.35 318.43 115.64 317.79 112.09 316.54 C 108.54 315.30 104.08 313.02 100.93 311.02 C 97.79 309.02 95.82 307.86 93.23 304.56 C 90.64 301.26 87.28 295.61 85.39 291.22 C 83.50 286.82 82.46 283.70 81.90 278.20 C 81.33 272.69 81.52 264.41 82.00 258.19 C 82.48 251.97 82.50 247.37 84.79 240.89 C 87.08 234.41 91.72 225.74 95.74 219.31 C 99.77 212.87 103.11 207.71 108.93 202.27 C 114.74 196.83 122.79 191.22 130.64 186.68 C 138.48 182.14 147.98 177.34 156.00 175.03 C 164.01 172.72 169.94 172.99 178.73 172.83 C 187.52 172.66 200.23 172.22 208.73 174.04 C 217.22 175.85 222.57 179.30 229.70 183.71 C 236.84 188.13 245.86 194.63 251.54 200.54 C 257.22 206.45 260.79 211.93 263.78 219.15 C 266.77 226.38 268.70 236.45 269.46 243.90 C 270.23 251.34 270.34 257.27 268.38 263.82 C 266.41 270.36 261.72 278.14 257.67 283.16 C 253.63 288.17 249.75 290.96 244.11 293.91 C 238.47 296.85 230.07 299.32 223.83 300.82 C 217.59 302.31 212.88 302.28 206.67 302.89 C 200.47 303.50 192.58 304.27 186.60 304.46 C 180.62 304.64 176.00 304.32 170.77 304.02 C 165.54 303.72 159.67 302.96 155.22 302.66 C 150.77 302.37 148.34 301.96 144.05 302.24 C 139.77 302.52 133.50 303.19 129.53 304.35 C 125.56 305.51 123.25 307.19 120.23 309.21 C 117.22 311.24 114.08 314.24 111.45 316.50 C 108.82 318.76 106.79 320.64 104.45 322.79 C 102.10 324.94 99.64 327.63 97.37 329.39 C 95.11 331.15 93.41 332.16 90.86 333.34 C 88.31 334.52 84.43 336.30 82.08 336.46 C 79.73 336.61 79.15 335.62 76.75 334.27 C 74.35 332.93 69.97 330.85 67.68 328.41 C 65.40 325.97 65.02 323.03 63.04 319.65 C 61.05 316.27 57.86 311.55 55.77 308.11 C 53.67 304.68 52.26 301.91 50.49 299.03 C 48.71 296.15 46.54 293.22 45.11 290.84 C 43.67 288.47 43.48 286.41 41.89 284.79 C 40.31 283.17 37.28 281.42 35.61 281.13 C 33.93 280.83 33.02 281.60 31.84 283.02 C 30.65 284.44 29.05 287.13 28.50 289.64 C 27.95 292.14 28.32 294.46 28.53 298.08 C 28.75 301.70 28.95 307.44 29.80 311.36 C 30.65 315.27 32.54 317.79 33.64 321.56 C 34.74 325.34 35.76 330.37 36.39 334.01 C 37.01 337.64 36.96 340.19 37.39 343.37 C 37.82 346.54 38.93 350.80 38.96 353.05 C 38.99 355.31 38.43 356.06 37.57 356.90 C 36.71 357.74 35.18 358.32 33.81 358.09 C 32.44 357.85 30.81 357.37 29.34 355.51 C 27.87 353.64 26.23 350.73 24.97 346.89 C 23.72 343.04 22.24 337.62 21.81 332.44 C 21.38 327.25 21.73 322.47 22.38 315.78 C 23.03 309.08 23.75 299.61 25.69 292.27 C 27.62 284.92 29.66 278.99 34.00 271.72 C 38.34 264.45 45.29 255.40 51.72 248.63 C 58.16 241.85 64.10 236.41 72.60 231.09 C 81.10 225.78 93.31 220.38 102.74 216.74 C 112.16 213.09 119.68 211.38 129.14 209.22 C 138.60 207.06 150.21 204.99 159.50 203.77 C 168.78 202.55 176.08 202.58 184.87 201.92 C 193.67 201.25 204.20 200.51 212.27 199.80 C 220.34 199.09 225.95 198.72 233.31 197.67 C 240.66 196.61 249.67 194.94 256.37 193.48 C 263.08 192.01 267.84 190.73 273.53 188.86 C 279.22 186.98 285.61 184.90 290.51 182.22 C 295.40 179.54 298.94 176.39 302.92 172.77 C 306.89 169.15 311.23 164.33 314.36 160.51 C 317.49 156.69 320.37 153.99 321.69 149.86 C 323.01 145.73 322.47 139.78 322.27 135.74 C 322.08 131.70 321.96 129.36 320.52 125.60 C 319.08 121.85 316.29 116.91 313.62 113.19 C 310.96 109.47 308.80 106.17 304.55 103.30 C 300.30 100.43 293.25 97.90 288.13 95.96 C 283.02 94.03 279.39 92.90 273.87 91.67 C 268.35 90.43 260.57 89.34 255.01 88.56 C 249.44 87.78 245.52 87.63 240.48 87.00 C 235.43 86.38 229.14 85.44 224.73 84.81 C 220.31 84.18 217.92 84.10 214.00 83.22 C 210.07 82.34 204.63 80.65 201.15 79.55 C 197.67 78.45 195.75 78.01 193.11 76.63 C 190.48 75.25 187.12 73.04 185.36 71.26 C 183.59 69.48 183.56 67.72 182.52 65.96 C 181.48 64.19 180.37 62.12 179.14 60.65 C 177.91 59.18 176.52 58.53 175.15 57.13 C 173.79 55.73 172.84 53.39 170.96 52.27 C 169.09 51.16 166.66 50.33 163.89 50.43 C 161.12 50.53 157.53 52.01 154.33 52.87 C 151.14 53.74 148.46 53.74 144.73 55.62 C 140.99 57.50 135.72 60.94 131.95 64.16 C 128.17 67.38 125.88 70.13 122.07 74.92 C 118.26 79.71 112.63 86.69 109.10 92.91 C 105.58 99.12 103.00 104.55 100.91 112.23 C 98.81 119.92 96.46 129.57 96.53 139.04 C 96.60 148.51 99.01 159.97 101.34 169.04 C 103.66 178.10 105.72 184.99 110.47 193.41 C 115.22 201.83 123.22 212.26 129.83 219.54 C 136.44 226.82 142.53 231.62 150.11 237.08 C 157.70 242.53 167.27 248.43 175.35 252.28 C 183.42 256.12 190.30 257.81 198.56 260.13 C 206.82 262.46 216.90 264.57 224.90 266.22 C 232.91 267.88 239.05 268.99 246.59 270.07 C 254.13 271.14 263.22 271.85 270.14 272.68 C 277.06 273.51 281.69 274.06 288.10 275.06 C 294.52 276.07 302.54 277.37 308.65 278.71 C 314.76 280.05 319.41 282.14 324.76 283.10 C 330.11 284.07 335.89 284.10 340.74 284.50 C 345.59 284.89 349.46 285.73 353.85 285.46 C 358.24 285.19 363.05 284.40 367.07 282.87 C 371.09 281.33 374.28 279.38 377.99 276.24 C 381.70 273.10 386.52 268.31 389.33 264.01 C 392.13 259.71 393.90 255.74 394.83 250.47 C 395.75 245.19 395.87 238.09 394.89 232.36 C 393.92 226.62 391.59 222.03 388.97 216.06 C 386.35 210.09 382.35 202.30 379.16 196.56 C 375.97 190.81 373.40 186.87 369.83 181.59 C 366.27 176.31 361.25 169.95 357.76 164.88 C 354.26 159.80 351.66 156.06 348.85 151.14 C 346.04 146.21 342.50 139.87 340.89 135.33 C 339.28 130.79 339.21 127.73 339.19 123.89 C 339.18 120.06 339.46 115.25 340.79 112.32 C 342.12 109.40 344.53 108.32 347.19 106.37 C 349.85 104.41 353.82 101.74 356.76 100.60 C 359.71 99.47 361.96 100.18 364.87 99.56 C 367.78 98.94 371.52 97.84 374.21 96.89 C 376.91 95.94 379.04 94.97 381.02 93.86 C 383.00 92.75 384.90 91.83 386.07 90.25 C 387.25 88.67 387.88 86.71 388.07 84.38 C 388.26 82.06 388.13 78.83 387.20 76.32 C 386.28 73.81 385.21 71.76 382.53 69.33 C 379.85 66.89 374.95 63.82 371.10 61.71 C 367.25 59.60 364.27 58.41 359.42 56.69 C 354.58 54.97 347.82 52.55 342.01 51.37 C 336.20 50.19 331.33 49.84 324.54 49.59 C 317.76 49.35 308.40 49.12 301.30 49.92 C 294.21 50.71 289.30 51.87 281.98 54.36 C 274.67 56.85 265.52 60.41 257.43 64.86 C 249.34 69.32 240.22 75.64 233.44 81.12 C 226.67 86.59 222.37 90.85 216.80 97.69 C 211.23 104.53 204.35 114.49 200.03 122.14 C 195.72 129.80 193.30 135.25 190.91 143.60 C 188.52 151.94 186.15 163.33 185.69 172.23 C 185.22 181.12 186.39 188.19 188.15 196.97 C 189.91 205.75 193.11 216.89 196.25 224.91 C 199.38 232.93 202.17 238.81 206.97 245.09 C 211.76 251.37 219.01 257.66 225.00 262.59 C 230.99 267.52 236.57 270.74 242.91 274.68 C 249.25 278.62 256.86 283.21 263.01 286.26 C 269.16 289.30 273.72 290.44 279.79 292.96 C 285.86 295.47 293.73 298.71 299.45 301.35 C 305.17 303.99 309.44 306.03 314.11 308.79 C 318.77 311.55 323.72 314.75 327.46 317.91 C 331.20 321.06 333.90 323.89 336.52 327.72 C 339.15 331.54 341.28 336.95 343.23 340.83 C 345.17 344.71 346.77 347.47 348.19 351.01 C 349.62 354.54 350.67 358.65 351.76 362.06 C 352.85 365.47 353.12 368.37 354.71 371.46 C 356.31 374.54 359.08 378.05 361.33 380.55 C 363.57 383.05 365.59 384.79 368.18 386.45 C 370.77 388.11 373.94 389.63 376.87 390.53 C 379.79 391.43 382.47 392.36 385.74 391.86 C 389.02 391.35 393.19 389.20 396.51 387.47 C 399.82 385.75 402.45 383.65 405.64 381.48 C 408.84 379.32 412.64 376.66 415.67 374.50 C 418.69 372.33 420.96 371.01 423.81 368.50 C 426.65 366.00 430.01 362.02 432.75 359.45 C 435.49 356.89 437.64 354.71 440.27 353.11 C 442.89 351.51 446.21 350.58 448.48 349.84 C 450.74 349.09 451.94 348.89 453.85 348.63 C 455.76 348.38 458.25 348.40 459.97 348.31 C 461.68 348.21 462.59 348.15 464.13 348.06 C 465.68 347.97 467.85 348.02 469.24 347.76 C 470.63 347.50 470.96 347.34 472.47 346.51 C 473.97 345.68 476.69 344.12 478.26 342.79 C 479.82 341.46 480.47 340.78 481.86 338.55 C 483.25 336.32 485.37 332.77 486.60 329.40 C 487.82 326.02 488.69 322.81 489.21 318.30 C 489.73 313.80 489.81 307.98 489.72 302.37 C 489.64 296.76 490.16 291.16 488.70 284.63 C 487.24 278.10 483.96 270.56 480.98 263.19 C 478.00 255.83 474.71 247.53 470.83 240.43 C 466.96 233.33 463.33 227.09 457.74 220.59 C 452.15 214.09 444.04 206.81 437.31 201.41 C 430.59 196.02 425.24 192.37 417.39 188.23 C 409.54 184.10 398.66 179.68 390.20 176.59 C 381.74 173.50 375.27 171.80 366.63 169.68 C 358.00 167.55 346.75 165.39 338.38 163.85 C 330.01 162.30 324.57 161.33 316.40 160.40 C 308.23 159.48 297.07 159.03 289.37 158.31 C 281.66 157.58 276.95 157.20 270.18 156.05 C 263.40 154.90 254.60 153.11 248.71 151.41 C 242.81 149.71 239.28 148.11 234.81 145.86 C 230.33 143.61 225.22 140.63 221.85 137.93 C 218.48 135.23 216.80 132.97 214.59 129.69 C 212.38 126.41 209.58 121.80 208.59 118.25 C 207.59 114.70 208.00 111.95 208.60 108.38 C 209.21 104.82 210.47 100.14 212.22 96.86 C 213.98 93.58 215.71 91.09 219.14 88.69 C 222.58 86.29 228.44 83.99 232.83 82.44 C 237.22 80.88 240.15 79.89 245.47 79.36 C 250.79 78.82 258.98 78.74 264.76 79.22 C 270.54 79.69 274.32 80.61 280.15 82.21 C 285.98 83.82 293.75 86.27 299.75 88.83 C 305.76 91.39 310.40 93.70 316.17 97.56 C 321.94 101.42 329.31 106.98 334.36 111.98 C 339.41 116.98 342.49 121.26 346.50 127.54 C 350.51 133.82 355.33 142.32 358.41 149.65 C 361.49 156.99 363.51 163.64 364.98 171.54 C 366.46 179.44 367.27 189.23 367.26 197.05 C 367.25 204.87 366.91 210.59 364.95 218.47 C 362.99 226.36 358.79 237.07 355.52 244.36 C 352.24 251.65 350.30 256.05 345.30 262.22 C 340.30 268.40 332.30 276.36 325.50 281.41 C 318.71 286.45 312.11 289.49 304.51 292.49 C 296.91 295.49 287.45 298.46 279.91 299.41 C 272.36 300.37 266.51 299.75 259.22 298.22 C 251.93 296.69 242.51 293.35 236.16 290.23 C 229.82 287.11 226.18 284.15 221.14 279.52 C 216.10 274.88 209.84 267.80 205.95 262.43 C 202.05 257.05 200.77 252.91 197.78 247.29 C 194.80 241.66 190.72 234.31 188.04 228.67 C 185.37 223.03 183.68 218.77 181.73 213.46 C 179.79 208.16 178.45 201.96 176.40 196.86 C 174.35 191.77 171.67 186.95 169.44 182.90 C 167.22 178.85 165.30 175.99 163.06 172.54 C 160.82 169.09 158.30 164.95 155.99 162.22 C 153.68 159.48 151.54 158.71 149.18 156.14 C 146.83 153.56 143.71 149.70 141.88 146.78 C 140.05 143.85 139.33 141.75 138.19 138.58 C 137.04 135.41 135.47 131.19 135.00 127.77 C 134.52 124.35 134.46 121.57 135.34 118.05 C 136.22 114.53 138.29 110.11 140.28 106.65 C 142.27 103.20 143.86 100.45 147.27 97.32 C 150.67 94.18 156.46 90.62 160.72 87.85 C 164.98 85.08 168.57 83.13 172.83 80.69 C 177.08 78.25 182.29 75.38 186.24 73.21 C 190.18 71.04 193.31 70.00 196.50 67.67 C 199.70 65.33 203.54 61.59 205.42 59.22 C 207.30 56.86 207.29 55.55 207.76 53.48 C 208.23 51.41 208.84 48.53 208.25 46.80 C 207.66 45.06 206.26 44.16 204.22 43.09 C 202.19 42.02 198.61 40.77 196.03 40.36 C 193.45 39.95 191.71 40.36 188.75 40.63 C 185.79 40.91 181.84 41.47 178.28 42.01 C 174.72 42.56 171.08 43.23 167.38 43.89 C 163.68 44.55 159.29 45.24 156.10 45.96 C 152.91 46.68 150.91 47.58 148.23 48.20 C 145.55 48.82 142.05 49.54 140.02 49.67 C 137.98 49.80 137.26 49.35 135.99 48.96 C 134.71 48.56 133.55 48.10 132.37 47.31 C 131.19 46.52 130.18 45.23 128.91 44.22 C 127.63 43.21 126.15 41.83 124.73 41.26 C 123.32 40.69 122.44 40.40 120.42 40.81 C 118.40 41.21 114.98 42.27 112.64 43.69 C 110.29 45.10 108.90 47.19 106.34 49.30 C 103.78 51.42 99.99 53.48 97.27 56.38 C 94.55 59.28 92.88 61.98 90.01 66.71 C 87.14 71.43 82.70 78.65 80.04 84.75 C 77.38 90.84 75.74 96.15 74.04 103.27 C 72.33 110.38 70.55 119.50 69.81 127.45 C 69.07 135.40 68.69 142.10 69.59 150.94 C 70.48 159.79 72.67 171.51 75.20 180.51 C 77.73 189.51 80.64 196.22 84.76 204.95 C 88.87 213.68 94.53 224.92 99.92 232.88 C 105.30 240.83 110.12 246.28 117.05 252.69 C 123.97 259.10 133.19 265.71 141.46 271.34 C 149.73 276.97 158.96 282.18 166.69 286.44 C 174.43 290.71 180.76 293.10 187.88 296.94 C 194.99 300.79 203.02 305.50 209.39 309.51 C 215.76 313.52 220.50 316.68 226.10 321.01 C 231.70 325.34 238.51 331.34 242.97 335.48 C 247.43 339.62 249.83 341.81 252.86 345.86 C 255.89 349.91 259.47 355.53 261.17 359.80 C 262.87 364.06 262.50 367.33 263.05 371.43 C 263.60 375.54 264.21 380.58 264.49 384.44 C 264.77 388.29 264.51 390.86 264.71 394.57 C 264.91 398.28 264.96 403.36 265.68 406.70 C 266.39 410.05 267.69 412.02 269.01 414.63 C 270.33 417.25 271.74 420.21 273.58 422.40 C 275.42 424.59 277.14 425.92 280.07 427.79 C 283.01 429.65 287.37 432.29 291.19 433.59 C 295.01 434.89 298.56 435.28 303.01 435.58 C 307.45 435.88 313.48 435.70 317.86 435.42 C 322.25 435.14 325.31 434.06 329.32 433.90 C 333.32 433.74 338.32 434.25 341.90 434.45 C 345.49 434.65 347.76 434.91 350.84 435.10 C 353.92 435.29 357.70 435.07 360.36 435.60 C 363.02 436.12 364.96 437.13 366.78 438.25 C 368.60 439.38 370.32 440.91 371.29 442.37 C 372.26 443.82 372.19 445.15 372.62 447.00 C 373.04 448.84 373.57 451.71 373.83 453.42 C 374.09 455.12 374.21 455.63 374.20 457.21 C 374.18 458.79 373.63 461.33 373.72 462.89 C 373.82 464.44 374.09 465.34 374.76 466.54 C 375.42 467.74 376.81 469.17 377.73 470.07 C 378.66 470.98 379.21 471.65 380.30 471.95 C 381.40 472.25 382.59 472.45 384.31 471.87 C 386.03 471.29 388.31 470.08 390.63 468.49 C 392.95 466.90 395.39 464.58 398.21 462.32 C 401.03 460.07 404.14 458.19 407.55 454.94 C 410.95 451.69 415.37 447.46 418.65 442.81 C 421.94 438.17 424.64 433.58 427.26 427.05 C 429.88 420.53 432.70 411.43 434.38 403.67 C 436.06 395.91 437.55 389.02 437.37 380.50 C 437.18 371.97 435.19 361.27 433.27 352.50 C 431.36 343.73 429.02 336.96 425.88 327.89 C 422.73 318.83 418.06 306.83 414.38 298.11 C 410.71 289.40 408.13 283.34 403.82 275.60 C 399.50 267.87 393.41 259.39 388.48 251.69 C 383.54 243.99 378.25 235.86 374.19 229.40 C 370.14 222.94 367.19 218.98 364.13 212.91 C 361.06 206.83 357.86 198.74 355.79 192.97 C 353.73 187.21 352.46 183.24 351.75 178.32 C 351.04 173.39 351.96 168.07 351.53 163.42 C 351.11 158.78 349.85 154.85 349.19 150.46 C 348.53 146.06 348.36 141.18 347.58 137.04 C 346.79 132.89 345.80 129.52 344.48 125.60 C 343.16 121.67 341.71 117.22 339.68 113.48 C 337.65 109.74 335.22 106.60 332.29 103.16 C 329.36 99.72 325.81 95.72 322.12 92.82 C 318.42 89.92 314.98 87.82 310.10 85.75 C 305.22 83.68 298.67 81.30 292.82 80.41 C 286.97 79.52 281.62 80.19 275.01 80.40 C 268.40 80.60 259.80 80.57 253.17 81.66 C 246.55 82.76 241.87 84.08 235.25 86.97 C 228.64 89.85 219.82 94.16 213.50 98.96 C 207.18 103.76 202.77 108.99 197.34 115.79 C 191.91 122.58 184.90 132.00 180.94 139.72 C 176.99 147.45 175.16 153.61 173.62 162.14 C 172.07 170.67 171.42 182.21 171.67 190.89 C 171.92 199.57 173.16 205.93 175.11 214.22 C 177.07 222.50 179.90 233.12 183.37 240.59 C 186.84 248.05 191.04 252.86 195.93 259.02 C 200.82 265.17 206.99 272.74 212.71 277.51 C 218.44 282.28 223.66 284.64 230.29 287.64 C 236.92 290.64 245.62 293.60 252.49 295.49 C 259.37 297.38 264.78 298.62 271.56 298.97 C 278.34 299.32 286.67 298.67 293.18 297.60 C 299.69 296.52 304.75 294.52 310.63 292.52 C 316.51 290.52 323.23 287.60 328.46 285.59 C 333.68 283.59 337.06 281.94 341.99 280.49 C 346.91 279.04 353.29 277.56 358.02 276.90 C 362.74 276.23 366.02 276.31 370.34 276.49 C 374.66 276.66 380.21 277.20 383.94 277.96 C 387.67 278.71 389.42 279.71 392.70 281.02 C 395.99 282.33 400.30 283.96 403.64 285.83 C 406.97 287.71 409.75 290.30 412.69 292.26 C 415.63 294.23 418.69 296.30 421.29 297.61 C 423.89 298.93 425.76 299.64 428.29 300.16 C 430.82 300.67 433.96 301.10 436.48 300.68 C 439.01 300.25 441.05 299.36 443.42 297.61 C 445.78 295.87 448.54 293.58 450.66 290.21 C 452.79 286.85 454.90 281.51 456.16 277.44 C 457.41 273.38 457.76 270.56 458.18 265.82 C 458.59 261.08 458.44 254.18 458.64 249.01 C 458.85 243.84 459.05 239.54 459.41 234.80 C 459.78 230.06 460.54 224.78 460.83 220.57 C 461.11 216.35 460.62 213.02 461.10 209.51 C 461.58 206.01 463.11 202.32 463.71 199.54 C 464.31 196.76 463.95 194.88 464.69 192.85 C 465.44 190.82 467.03 188.75 468.17 187.34 C 469.31 185.93 469.89 184.63 471.56 184.40 C 473.22 184.16 476.30 184.51 478.16 185.94 C 480.02 187.37 481.25 189.74 482.71 192.96 C 484.17 196.18 486.11 200.76 486.93 205.27 C 487.75 209.79 488.11 214.27 487.63 220.05 C 487.14 225.83 485.75 233.47 484.02 239.95 C 482.29 246.43 480.74 252.28 477.25 258.95 C 473.76 265.62 468.15 273.61 463.10 279.99 C 458.05 286.37 453.87 291.39 446.96 297.23 C 440.04 303.07 429.88 310.26 421.61 315.01 C 413.35 319.76 406.64 322.85 397.37 325.72 C 388.09 328.60 375.57 331.38 365.98 332.27 C 356.39 333.16 349.25 332.22 339.82 331.07 C 330.40 329.92 317.88 328.24 309.43 325.35 C 300.99 322.47 296.04 318.75 289.16 313.77 C 282.27 308.80 273.83 301.50 268.10 295.50 C 262.36 289.51 258.88 284.27 254.74 277.82 C 250.61 271.37 246.63 263.29 243.28 256.81 C 239.93 250.33 237.65 244.94 234.65 238.93 C 231.65 232.91 228.31 226.11 225.29 220.72 C 222.28 215.32 220.18 211.17 216.55 206.58 C 212.92 201.99 207.62 196.72 203.51 193.18 C 199.39 189.64 196.50 187.35 191.85 185.33 C 187.19 183.31 180.65 181.69 175.58 181.07 C 170.51 180.44 166.35 180.90 161.44 181.57 C 156.53 182.24 150.68 184.09 146.13 185.08 C 141.58 186.06 138.54 186.61 134.14 187.48 C 129.75 188.35 123.54 190.09 119.77 190.31 C 116.01 190.52 114.37 189.94 111.56 188.79 C 108.75 187.65 105.22 185.26 102.90 183.42 C 100.59 181.58 98.82 180.30 97.66 177.78 C 96.51 175.25 96.17 171.68 96.00 168.25 C 95.83 164.82 95.85 161.00 96.62 157.22 C 97.40 153.43 99.25 149.36 100.67 145.53 C 102.09 141.69 103.74 137.84 105.14 134.21 C 106.53 130.59 107.70 127.23 109.05 123.80 C 110.39 120.37 111.98 116.71 113.21 113.65 C 114.44 110.59 115.84 108.34 116.42 105.46 C 117.01 102.59 116.77 98.89 116.74 96.40 C 116.72 93.92 116.79 92.45 116.25 90.56 C 115.71 88.66 114.30 86.57 113.50 85.02 C 112.70 83.46 112.07 82.79 111.45 81.22 C 110.83 79.64 110.15 77.15 109.80 75.58 C 109.45 74.00 108.94 73.50 109.34 71.77 C 109.75 70.04 111.05 67.36 112.22 65.23 C 113.40 63.10 114.23 61.01 116.39 58.99 C 118.56 56.96 122.03 55.05 125.23 53.08 C 128.42 51.11 131.35 49.15 135.57 47.15 C 139.79 45.16 145.34 42.51 150.55 41.11 C 155.76 39.71 160.42 39.16 166.82 38.75 C 173.22 38.33 181.91 37.83 188.94 38.61 C 195.97 39.38 201.28 41.18 209.00 43.41 C 216.72 45.64 227.44 48.40 235.25 51.99 C 243.05 55.58 248.48 59.56 255.84 64.94 C 263.19 70.32 272.79 77.72 279.37 84.27 C 285.95 90.82 290.35 96.26 295.31 104.24 C 300.27 112.22 305.13 124.00 309.12 132.16 C 313.10 140.31 315.99 145.44 319.23 153.17 C 322.46 160.89 325.43 171.26 328.50 178.51 C 331.57 185.76 334.21 190.16 337.63 196.65 C 341.05 203.14 345.78 211.71 349.04 217.43 C 352.30 223.15 353.80 226.72 357.21 230.98 C 360.61 235.24 365.70 240.18 369.47 243.00 C 373.25 245.83 376.04 246.87 379.86 247.93 C 383.67 248.99 388.66 249.45 392.34 249.36 C 396.02 249.27 398.54 248.59 401.94 247.39 C 405.34 246.19 409.51 243.88 412.76 242.15 C 416.00 240.43 418.61 238.92 421.40 237.03 C 424.19 235.14 427.07 232.68 429.49 230.82 C 431.91 228.96 433.37 227.31 435.93 225.87 C 438.49 224.42 442.53 223.20 444.85 222.13 C 447.18 221.07 447.91 220.31 449.89 219.48 C 451.86 218.64 454.69 217.69 456.71 217.11 C 458.73 216.54 460.11 216.90 462.02 216.03 C 463.92 215.15 466.45 213.88 468.12 211.89 C 469.78 209.91 471.21 206.64 472.00 204.11 C 472.79 201.59 472.85 199.91 472.86 196.76 C 472.86 193.60 472.79 188.81 472.04 185.20 C 471.29 181.58 469.82 179.08 468.36 175.07 C 466.90 171.06 465.67 165.61 463.29 161.15 C 460.92 156.69 458.06 152.83 454.09 148.32 C 450.13 143.80 444.81 137.97 439.50 134.05 C 434.18 130.14 429.31 127.84 422.20 124.82 C 415.10 121.80 405.10 117.81 396.88 115.95 C 388.66 114.08 382.07 113.36 372.91 113.63 C 363.76 113.91 351.30 115.43 341.95 117.58 C 332.60 119.73 325.31 121.88 316.83 126.51 C 308.35 131.14 298.04 139.00 291.07 145.36 C 284.10 151.73 279.67 156.78 275.03 164.70 C 270.39 172.62 265.31 184.22 263.21 192.88 C 261.12 201.54 261.46 208.88 262.46 216.67 C 263.47 224.45 265.96 233.30 269.24 239.61 C 272.52 245.92 276.81 250.62 282.13 254.53 C 287.46 258.44 295.36 261.37 301.20 263.05 C 307.04 264.74 311.75 265.60 317.18 264.65 C 322.62 263.71 329.26 260.41 333.81 257.40 C 338.36 254.40 341.36 251.21 344.47 246.63 C 347.58 242.05 350.46 235.06 352.45 229.91 C 354.44 224.77 354.90 220.84 356.41 215.74 C 357.91 210.65 359.82 204.05 361.51 199.35 C 363.19 194.65 364.41 191.27 366.51 187.54 C 368.62 183.81 371.84 179.75 374.14 176.95 C 376.44 174.14 377.41 172.45 380.31 170.71 C 383.21 168.97 388.27 166.95 391.55 166.49 C 394.83 166.04 396.80 166.78 400.00 167.99 C 403.20 169.20 407.47 170.87 410.77 173.74 C 414.08 176.62 417.40 180.26 419.83 185.25 C 422.26 190.25 424.27 197.46 425.32 203.70 C 426.37 209.93 426.89 215.53 426.13 222.67 C 425.38 229.82 423.19 239.39 420.77 246.59 C 418.35 253.78 416.34 259.05 411.62 265.85 C 406.89 272.66 398.98 281.59 392.44 287.41 C 385.89 293.23 379.96 296.38 372.33 300.79 C 364.70 305.19 354.85 310.45 346.68 313.86 C 338.52 317.28 331.40 319.16 323.33 321.28 C 315.25 323.39 305.65 325.11 298.21 326.56 C 290.77 328.01 285.88 328.83 278.67 329.97 C 271.46 331.11 262.39 332.18 254.96 333.41 C 247.53 334.64 240.06 335.94 234.09 337.33 C 228.11 338.73 224.01 339.88 219.09 341.80 C 214.16 343.72 208.67 346.65 204.54 348.86 C 200.41 351.07 197.63 352.24 194.32 355.08 C 191.01 357.92 186.92 362.57 184.69 365.91 C 182.47 369.25 181.75 371.76 180.98 375.12 C 180.21 378.48 179.46 382.66 180.08 386.09 C 180.69 389.52 182.46 392.18 184.70 395.70 C 186.94 399.23 190.08 403.97 193.52 407.24 C 196.95 410.51 200.30 413.08 205.29 415.30 C 210.27 417.52 217.40 419.71 223.43 420.56 C 229.47 421.42 234.85 421.09 241.47 420.43 C 248.10 419.78 256.53 418.58 263.19 416.63 C 269.85 414.68 274.94 412.56 281.43 408.74 C 287.92 404.92 296.24 398.98 302.14 393.70 C 308.03 388.41 311.94 383.41 316.81 377.03 C 321.67 370.65 327.27 362.50 331.35 355.44 C 335.42 348.38 338.60 342.41 341.25 334.67 C 343.91 326.93 345.95 316.67 347.28 309.01 C 348.61 301.35 348.46 296.13 349.26 288.71 C 350.05 281.30 351.27 271.74 352.04 264.51 C 352.80 257.29 353.37 251.74 353.87 245.37 C 354.38 238.99 354.45 232.00 355.08 226.28 C 355.71 220.56 356.80 216.58 357.66 211.06 C 358.53 205.54 359.12 198.16 360.27 193.16 C 361.42 188.17 363.15 185.45 364.59 181.10 C 366.03 176.75 367.54 170.93 368.91 167.08 C 370.27 163.24 371.46 161.34 372.78 158.03 C 374.10 154.71 375.96 150.73 376.82 147.20 C 377.67 143.66 377.97 140.61 377.90 136.81 C 377.82 133.02 376.95 128.08 376.38 124.42 C 375.82 120.76 375.87 118.38 374.49 114.85 C 373.11 111.31 370.54 106.66 368.11 103.21 C 365.68 99.75 363.46 97.01 359.90 94.09 C 356.35 91.18 351.21 88.08 346.76 85.71 C 342.30 83.33 339.10 81.26 333.18 79.84 C 327.26 78.43 318.11 77.21 311.21 77.22 C 304.31 77.23 299.10 78.01 291.78 79.90 C 284.46 81.80 274.52 85.45 267.29 88.59 C 260.06 91.72 255.11 94.08 248.40 98.72 C 241.70 103.35 233.24 110.47 227.06 116.43 C 220.87 122.39 216.21 127.42 211.29 134.50 C 206.37 141.58 201.27 150.67 197.52 158.91 C 193.76 167.16 191.39 176.50 188.77 183.95 C 186.15 191.40 184.18 196.63 181.81 203.62 C 179.44 210.61 177.11 219.48 174.58 225.91 C 172.05 232.34 169.74 236.51 166.62 242.20 C 163.50 247.89 159.12 255.05 155.84 260.06 C 152.56 265.06 150.21 268.60 146.93 272.23 C 143.66 275.86 139.22 278.94 136.18 281.86 C 133.14 284.78 131.72 286.95 128.68 289.73 C 125.65 292.51 121.01 295.72 117.99 298.54 C 114.98 301.37 112.73 303.57 110.57 306.68 C 108.42 309.79 106.44 313.77 105.05 317.21 C 103.66 320.65 102.44 323.20 102.22 327.34 C 102.00 331.47 102.53 337.41 103.74 342.01 C 104.96 346.60 106.74 350.30 109.51 354.90 C 112.28 359.51 116.30 365.12 120.36 369.63 C 124.42 374.14 129.05 377.74 133.88 381.95 C 138.70 386.16 144.65 391.26 149.33 394.89 C 154.02 398.53 157.68 400.54 161.98 403.77 C 166.27 407.00 171.40 411.29 175.10 414.29 C 178.80 417.30 180.93 419.00 184.18 421.81 C 187.42 424.62 192.17 428.48 194.60 431.15 C 197.02 433.83 197.84 435.42 198.73 437.88 C 199.61 440.35 200.03 443.49 199.91 445.96 C 199.80 448.42 198.87 450.49 198.03 452.67 C 197.20 454.86 195.85 457.22 194.93 459.08 C 194.01 460.93 193.35 462.15 192.53 463.81 C 191.71 465.47 190.45 467.52 189.99 469.03 C 189.52 470.53 189.81 471.31 189.74 472.84 C 189.67 474.38 189.02 476.77 189.55 478.22 C 190.08 479.68 191.34 480.33 192.93 481.59 C 194.52 482.85 196.75 484.72 199.11 485.78 C 201.46 486.84 203.83 487.06 207.08 487.96 C 210.33 488.86 214.67 490.62 218.61 491.16 C 222.55 491.70 225.72 491.38 230.70 491.20 C 235.68 491.02 242.74 491.07 248.47 490.09 C 254.20 489.11 258.79 487.68 265.09 485.32 C 271.38 482.97 279.75 479.92 286.22 475.95 C 292.70 471.98 297.83 467.38 303.95 461.49 C 310.07 455.61 317.39 447.45 322.92 440.64 C 328.45 433.82 332.16 428.00 337.13 420.58 C 342.10 413.16 348.31 403.34 352.74 396.13 C 357.17 388.92 359.78 383.97 363.70 377.32 C 367.62 370.68 372.45 362.88 376.26 356.25 C 380.06 349.61 383.47 342.96 386.52 337.51 C 389.58 332.06 391.49 328.44 394.58 323.57 C 397.67 318.69 402.02 312.49 405.05 308.26 C 408.09 304.03 409.80 301.26 412.80 298.17 C 415.79 295.07 420.01 291.69 423.02 289.69 C 426.03 287.70 427.98 286.87 430.85 286.19 C 433.72 285.51 437.68 285.37 440.26 285.59 C 442.84 285.81 444.50 285.81 446.33 287.49 C 448.16 289.17 449.94 292.91 451.24 295.68 C 452.54 298.44 453.69 300.57 454.13 304.07 C 454.58 307.57 454.65 312.45 453.89 316.66 C 453.12 320.88 451.62 324.76 449.55 329.37 C 447.48 333.98 444.19 339.92 441.48 344.33 C 438.77 348.75 435.85 351.54 433.27 355.86 C 430.70 360.18 428.03 365.94 426.04 370.25 C 424.04 374.56 422.60 378.08 421.31 381.72 C 420.01 385.37 418.76 389.11 418.26 392.10 C 417.76 395.09 417.42 397.77 418.30 399.65 C 419.19 401.54 421.85 403.08 423.56 403.40 C 425.27 403.72 426.25 402.78 428.57 401.56 C 430.89 400.35 434.72 398.09 437.48 396.08 C 440.23 394.08 442.53 392.35 445.09 389.54 C 447.65 386.72 450.55 381.99 452.85 379.19 C 455.16 376.40 456.82 375.51 458.92 372.77 C 461.03 370.04 463.59 365.35 465.47 362.77 C 467.35 360.18 468.42 359.19 470.19 357.26 C 471.96 355.32 474.55 352.61 476.09 351.16 C 477.64 349.70 478.23 349.39 479.47 348.54 C 480.71 347.69 482.34 346.77 483.55 346.06 C 484.75 345.36 485.45 345.17 486.69 344.32 C 487.94 343.47 489.86 342.51 491.04 340.96 C 492.21 339.42 492.50 337.63 493.73 335.04 C 494.97 332.45 497.12 328.62 498.47 325.40 C 499.83 322.19 501.27 320.14 501.86 315.76 C 502.45 311.38 502.27 304.58 502.02 299.15 C 501.77 293.73 501.54 289.12 500.35 283.23 C 499.15 277.34 496.92 270.00 494.85 263.82 C 492.78 257.64 491.38 252.85 487.92 246.15 C 484.47 239.46 478.53 230.20 474.10 223.67 C 469.66 217.14 466.57 212.73 461.33 206.98 C 456.08 201.24 448.62 194.36 442.62 189.21 C 436.62 184.07 432.14 180.70 425.34 176.09 C 418.54 171.49 409.88 165.97 401.83 161.58 C 393.78 157.19 384.85 152.61 377.04 149.73 C 369.22 146.85 363.08 145.93 354.94 144.30 C 346.79 142.67 336.66 140.28 328.18 139.95 C 319.71 139.63 312.51 140.97 304.08 142.34 C 295.66 143.71 285.53 146.06 277.65 148.18 C 269.76 150.31 263.94 151.90 256.77 155.11 C 249.59 158.32 241.09 163.33 234.60 167.44 C 228.11 171.55 223.31 174.39 217.81 179.79 C 212.31 185.18 205.61 193.24 201.59 199.80 C 197.56 206.36 196.26 212.14 193.65 219.15 C 191.04 226.17 187.35 234.84 185.92 241.89 C 184.49 248.95 184.62 254.49 185.06 261.48 C 185.50 268.46 186.74 277.35 188.55 283.82 C 190.36 290.28 192.48 294.42 195.90 300.26 C 199.32 306.10 204.32 314.08 209.06 318.84 C 213.80 323.61 218.50 325.99 224.34 328.86 C 230.18 331.73 238.00 334.41 244.12 336.07 C 250.23 337.74 254.71 339.16 261.02 338.85 C 267.33 338.54 275.38 336.30 281.97 334.22 C 288.56 332.15 294.84 330.48 300.56 326.40 C 306.29 322.32 312.34 315.31 316.32 309.75 C 320.31 304.18 322.15 299.70 324.50 293.00 C 326.85 286.31 329.47 276.75 330.42 269.58 C 331.37 262.42 331.84 256.92 330.20 250.00 C 328.57 243.09 324.32 234.48 320.58 228.11 C 316.84 221.74 313.51 216.71 307.78 211.78 C 302.04 206.86 292.92 201.40 286.18 198.57 C 279.44 195.74 274.46 195.04 267.33 194.79 C 260.19 194.54 250.12 195.07 243.39 197.08 C 236.66 199.08 232.27 202.05 226.93 206.81 C 221.59 211.57 215.05 219.54 211.36 225.62 C 207.66 231.69 205.97 236.50 204.76 243.26 C 203.54 250.02 203.32 259.34 204.06 266.18 C 204.81 273.01 206.02 278.34 209.24 284.28 C 212.46 290.23 218.19 297.23 223.38 301.84 C 228.56 306.45 234.17 309.19 240.37 311.93 C 246.57 314.66 254.01 317.36 260.57 318.26 C 267.14 319.16 273.17 318.48 279.77 317.33 C 286.36 316.19 294.27 314.01 300.16 311.40 C 306.05 308.78 309.91 305.80 315.09 301.65 C 320.28 297.51 327.04 291.53 331.26 286.52 C 335.48 281.51 337.10 276.82 340.42 271.58 C 343.75 266.34 347.83 260.46 351.21 255.08 C 354.60 249.69 358.13 244.13 360.72 239.29 C 363.31 234.46 364.28 230.57 366.74 226.06 C 369.20 221.55 373.02 216.20 375.50 212.23 C 377.98 208.25 379.21 205.50 381.61 202.21 C 384.01 198.93 387.48 195.16 389.88 192.52 C 392.29 189.88 393.49 188.11 396.02 186.37 C 398.55 184.63 402.66 183.67 405.06 182.06 C 407.45 180.44 408.61 178.97 410.39 176.67 C 412.17 174.38 414.19 170.88 415.73 168.28 C 417.27 165.68 418.80 164.01 419.64 161.08 C 420.47 158.15 420.86 153.95 420.73 150.71 C 420.59 147.48 419.66 145.28 418.81 141.68 C 417.97 138.08 417.37 132.91 415.66 129.14 C 413.96 125.37 411.63 122.59 408.60 119.06 C 405.56 115.52 401.50 111.20 397.46 107.93 C 393.42 104.66 389.92 101.88 384.36 99.43 C 378.79 96.98 370.52 94.67 364.04 93.22 C 357.56 91.76 352.81 91.06 345.49 90.68 C 338.16 90.31 328.10 90.02 320.08 90.96 C 312.06 91.90 305.46 93.97 297.37 96.32 C 289.27 98.67 279.15 101.54 271.51 105.06 C 263.86 108.57 258.53 112.58 251.49 117.42 C 244.44 122.26 235.87 129.29 229.24 134.09 C 222.61 138.89 217.68 142.03 211.70 146.21 C 205.72 150.40 198.89 155.52 193.36 159.20 C 187.83 162.87 183.87 165.79 178.52 168.29 C 173.18 170.79 166.12 173.07 161.31 174.21 C 156.49 175.35 153.74 175.40 149.64 175.13 C 145.55 174.86 140.05 174.16 136.75 172.59 C 133.46 171.02 131.60 168.59 129.86 165.70 C 128.11 162.80 126.60 158.59 126.27 155.21 C 125.93 151.82 126.30 149.39 127.83 145.39 C 129.37 141.39 132.30 135.46 135.47 131.22 C 138.64 126.97 142.01 123.53 146.87 119.90 C 151.73 116.28 158.72 112.22 164.60 109.48 C 170.48 106.73 175.10 104.82 182.15 103.43 C 189.20 102.05 199.38 101.07 206.91 101.16 C 214.44 101.24 219.63 101.61 227.33 103.94 C 235.03 106.27 245.59 110.79 253.10 115.13 C 260.60 119.47 266.28 123.67 272.36 129.97 C 278.43 136.27 285.05 145.42 289.55 152.93 C 294.05 160.44 297.27 166.65 299.34 175.03 C 301.41 183.42 302.67 194.24 301.95 203.23 C 301.22 212.23 298.15 221.63 294.99 229.02 C 291.82 236.40 288.41 242.11 282.97 247.55 C 277.52 252.98 268.80 258.13 262.31 261.63 C 255.81 265.14 250.73 267.50 243.99 268.57 C 237.25 269.64 228.34 269.15 221.89 268.07 C 215.44 266.99 210.38 265.11 205.31 262.10 C 200.24 259.09 195.16 254.32 191.47 250.00 C 187.79 245.69 185.42 241.58 183.19 236.22 C 180.96 230.86 178.70 223.58 178.10 217.84 C 177.49 212.10 178.11 207.65 179.55 201.77 C 180.99 195.88 184.06 187.87 186.73 182.53 C 189.41 177.18 192.56 174.36 195.58 169.70 C 198.59 165.03 202.19 158.92 204.82 154.53 C 207.45 150.14 209.17 147.49 211.35 143.35 C 213.53 139.21 216.53 133.76 217.89 129.69 C 219.24 125.61 219.68 122.37 219.48 118.89 C 219.27 115.40 218.14 111.67 216.67 108.75 C 215.19 105.83 213.55 103.45 210.64 101.35 C 207.73 99.25 203.39 96.81 199.20 96.13 C 195.02 95.45 190.51 96.03 185.54 97.26 C 180.57 98.49 174.42 100.66 169.40 103.50 C 164.39 106.35 159.81 109.03 155.42 114.33 C 151.03 119.64 146.02 128.25 143.06 135.33 C 140.10 142.42 138.41 148.50 137.67 156.83 C 136.93 165.17 137.52 176.56 138.61 185.35 C 139.70 194.13 140.85 201.27 144.21 209.55 C 147.57 217.83 153.39 227.86 158.75 235.03 C 164.12 242.19 169.14 247.28 176.39 252.54 C 183.65 257.80 194.35 263.33 202.30 266.58 C 210.25 269.83 216.28 271.51 224.09 272.03 C 231.89 272.55 241.85 271.28 249.13 269.72 C 256.40 268.17 261.65 266.14 267.74 262.69 C 273.83 259.24 280.98 253.77 285.66 249.04 C 290.34 244.30 293.38 240.11 295.79 234.26 C 298.20 228.41 299.82 219.98 300.11 213.91 C 300.40 207.85 299.63 203.46 297.55 197.87 C 295.47 192.28 291.54 185.19 287.64 180.38 C 283.74 175.56 279.79 172.06 274.15 168.98 C 268.50 165.90 260.28 162.92 253.79 161.88 C 247.30 160.85 241.79 161.51 235.21 162.77 C 228.64 164.03 220.49 166.13 214.33 169.44 C 208.16 172.75 203.30 177.07 198.23 182.63 C 193.16 188.18 187.92 195.51 183.90 202.78 C 179.88 210.05 176.47 219.39 174.11 226.24 C 171.75 233.09 171.31 237.59 169.75 243.88 C 168.19 250.17 166.24 257.86 164.74 263.96 C 163.25 270.07 162.09 275.01 160.76 280.50 C 159.44 285.99 158.33 291.99 156.79 296.90 C 155.25 301.81 153.55 305.79 151.51 309.95 C 149.46 314.10 146.91 318.63 144.52 321.84 C 142.14 325.04 139.70 326.91 137.21 329.17 C 134.71 331.43 132.10 333.53 129.56 335.41 C 127.01 337.30 124.47 338.52 121.91 340.46 C 119.34 342.40 116.12 344.94 114.16 347.05 C 112.21 349.15 111.51 350.64 110.19 353.08 C 108.86 355.53 106.60 358.45 106.22 361.73 C 105.85 365.01 107.01 369.03 107.96 372.75 C 108.90 376.47 109.91 380.32 111.89 384.06 C 113.87 387.80 116.66 391.16 119.83 395.20 C 123.00 399.24 127.31 404.49 130.89 408.30 C 134.48 412.12 137.70 414.75 141.33 418.09 C 144.97 421.43 149.51 425.44 152.69 428.33 C 155.88 431.21 158.07 432.69 160.44 435.41 C 162.80 438.13 165.33 442.06 166.88 444.68 C 168.42 447.29 169.00 449.03 169.73 451.08 C 170.46 453.14 171.23 455.47 171.25 457.01 C 171.28 458.55 170.43 459.08 169.91 460.33 C 169.39 461.57 168.59 462.98 168.14 464.49 C 167.69 466.00 166.97 467.67 167.21 469.38 C 167.45 471.10 168.39 472.84 169.56 474.77 C 170.74 476.71 171.88 479.23 174.27 481.01 C 176.66 482.78 180.41 484.27 183.92 485.41 C 187.42 486.55 190.13 487.47 195.30 487.85 C 200.47 488.22 208.74 488.26 214.93 487.64 C 221.12 487.02 225.50 486.81 232.42 484.11 C 239.34 481.41 249.18 476.19 256.43 471.44 C 263.68 466.69 269.55 462.29 275.92 455.59 C 282.28 448.88 289.43 439.42 294.64 431.21 C 299.84 423.00 303.91 415.96 307.12 406.34 C 310.33 396.72 313.11 383.60 313.89 373.50 C 314.67 363.39 314.15 355.13 311.79 345.73 C 309.43 336.33 303.94 324.93 299.71 317.08 C 295.49 309.22 291.95 304.63 286.43 298.60 C 280.90 292.57 272.81 285.66 266.55 280.89 C 260.29 276.13 255.42 273.37 248.84 270.02 C 242.26 266.66 233.97 263.48 227.07 260.77 C 220.17 258.05 213.26 255.98 207.44 253.72 C 201.63 251.47 197.51 249.47 192.18 247.24 C 186.85 245.01 180.59 242.33 175.45 240.33 C 170.32 238.34 166.15 237.44 161.37 235.28 C 156.59 233.12 150.93 229.66 146.77 227.39 C 142.60 225.12 139.97 223.43 136.37 221.66 C 132.78 219.89 128.48 218.14 125.21 216.77 C 121.94 215.40 119.98 214.23 116.76 213.43 C 113.53 212.62 109.15 211.81 105.85 211.91 C 102.56 212.02 100.15 212.52 97.00 214.04 C 93.85 215.57 89.57 218.38 86.96 221.04 C 84.34 223.71 83.23 226.19 81.31 230.03 C 79.38 233.88 77.04 239.75 75.43 244.13 C 73.82 248.52 73.02 252.32 71.64 256.36 C 70.25 260.39 68.53 265.02 67.11 268.34 C 65.70 271.66 64.67 273.49 63.13 276.28 C 61.60 279.07 59.55 283.16 57.91 285.09 C 56.26 287.01 54.92 287.75 53.25 287.83 C 51.58 287.90 49.70 286.86 47.89 285.53 C 46.07 284.19 43.69 282.77 42.35 279.83 C 41.01 276.88 40.47 271.54 39.84 267.84 C 39.20 264.15 38.62 261.93 38.54 257.64 C 38.45 253.34 38.93 246.88 39.33 242.06 C 39.73 237.25 40.23 233.31 40.94 228.75 C 41.64 224.19 42.86 219.20 43.56 214.69 C 44.27 210.18 44.66 205.78 45.18 201.67 C 45.71 197.57 46.40 193.31 46.69 190.06 C 46.98 186.82 46.89 184.97 46.92 182.19 C 46.95 179.40 46.89 176.01 46.88 173.36 C 46.87 170.70 46.59 169.26 46.85 166.23 C 47.12 163.20 47.85 158.34 48.46 155.17 C 49.07 152.00 49.18 150.38 50.51 147.19 C 51.84 144.01 53.91 139.58 56.43 136.06 C 58.96 132.55 61.70 129.92 65.66 126.09 C 69.62 122.25 74.84 116.96 80.19 113.06 C 85.55 109.15 90.79 105.67 97.80 102.66 C 104.82 99.64 114.55 97.10 122.28 94.98 C 130.00 92.87 136.36 91.37 144.15 89.97 C 151.93 88.57 161.75 87.43 169.00 86.59 C 176.25 85.76 181.52 86.07 187.65 84.98 C 193.77 83.89 200.51 81.51 205.74 80.05 C 210.96 78.58 214.98 78.08 218.97 76.21 C 222.97 74.33 226.68 71.06 229.72 68.80 C 232.77 66.53 235.65 64.57 237.24 62.61 C 238.83 60.64 238.93 58.99 239.27 57.03 C 239.61 55.06 238.99 52.90 239.26 50.80 C 239.53 48.70 240.48 46.49 240.90 44.44 C 241.32 42.38 241.16 40.20 241.78 38.47 C 242.39 36.73 243.40 35.61 244.61 34.02 C 245.81 32.43 246.98 30.12 249.03 28.93 C 251.07 27.75 253.54 27.26 256.88 26.92 C 260.22 26.57 264.89 26.61 269.07 26.87 C 273.25 27.13 277.12 27.18 281.95 28.48 C 286.78 29.77 292.90 32.44 298.04 34.64 C 303.18 36.85 307.32 37.98 312.81 41.71 C 318.30 45.44 325.64 51.73 330.96 57.03 C 336.28 62.33 340.27 66.52 344.71 73.50 C 349.15 80.48 354.51 90.57 357.59 98.91 C 360.66 107.25 361.75 114.43 363.15 123.54 C 364.55 132.65 366.15 144.26 365.98 153.56 C 365.81 162.86 363.95 170.13 362.15 179.34 C 360.34 188.55 357.37 200.03 355.15 208.82 C 352.93 217.62 351.23 224.23 348.83 232.10 C 346.42 239.97 342.95 248.83 340.72 256.03 C 338.48 263.23 337.24 268.47 335.42 275.28 C 333.60 282.10 331.09 290.81 329.81 296.92 C 328.53 303.04 328.16 306.53 327.73 311.98 C 327.29 317.43 326.58 324.66 327.18 329.63 C 327.78 334.59 330.03 337.56 331.32 341.79 C 332.61 346.01 333.72 351.28 334.91 354.98 C 336.10 358.68 337.70 360.54 338.47 363.97 C 339.24 367.39 339.59 372.07 339.54 375.53 C 339.48 379.00 339.29 381.04 338.16 384.77 C 337.02 388.50 334.66 394.04 332.71 397.92 C 330.75 401.79 329.66 404.67 326.43 408.04 C 323.20 411.41 317.77 415.39 313.32 418.14 C 308.86 420.88 304.76 422.49 299.70 424.51 C 294.63 426.52 287.92 428.47 282.92 430.23 C 277.92 431.99 274.39 433.68 269.70 435.07 C 265.02 436.46 258.76 437.33 254.82 438.58 C 250.88 439.83 249.52 441.11 246.04 442.57 C 242.57 444.03 237.04 445.79 233.96 447.33 C 230.88 448.88 229.49 450.12 227.57 451.82 C 225.65 453.53 223.20 455.54 222.42 457.56 C 221.64 459.58 221.86 461.98 222.87 463.94 C 223.87 465.89 226.02 467.52 228.44 469.29 C 230.86 471.06 234.09 473.13 237.40 474.55 C 240.72 475.97 244.07 477.39 248.34 477.80 C 252.60 478.20 257.72 477.74 262.97 476.98 C 268.23 476.23 273.88 475.36 279.85 473.24 C 285.82 471.12 292.80 467.49 298.77 464.25 C 304.74 461.02 309.85 458.24 315.68 453.85 C 321.52 449.47 328.45 443.16 333.78 437.97 C 339.11 432.77 342.60 428.55 347.65 422.68 C 352.69 416.81 359.59 408.55 364.05 402.76 C 368.52 396.96 370.59 393.22 374.43 387.91 C 378.27 382.60 383.53 375.90 387.08 370.89 C 390.63 365.88 392.33 362.50 395.73 357.86 C 399.13 353.22 403.93 346.93 407.49 343.06 C 411.06 339.19 413.61 337.52 417.13 334.66 C 420.65 331.79 425.74 328.41 428.61 325.87 C 431.48 323.33 431.99 322.08 434.33 319.40 C 436.67 316.71 440.28 313.09 442.66 309.75 C 445.03 306.42 446.88 303.41 448.58 299.40 C 450.28 295.39 451.93 290.42 452.84 285.70 C 453.76 280.99 454.35 276.89 454.07 271.13 C 453.79 265.38 452.58 257.34 451.18 251.18 C 449.78 245.02 448.69 240.60 445.66 234.20 C 442.63 227.79 437.65 219.08 433.02 212.73 C 428.39 206.38 424.40 201.19 417.87 196.08 C 411.34 190.97 401.56 185.90 393.84 182.08 C 386.12 178.26 380.12 175.35 371.53 173.18 C 362.95 171.01 351.34 169.22 342.31 169.07 C 333.28 168.92 326.10 169.77 317.38 172.26 C 308.66 174.74 297.77 179.57 289.99 183.97 C 282.22 188.38 276.56 192.26 270.74 198.69 C 264.92 205.12 258.69 215.14 255.08 222.55 C 251.48 229.97 249.60 235.76 249.09 243.18 C 248.58 250.59 250.08 260.52 252.01 267.05 C 253.94 273.57 256.58 277.35 260.69 282.33 C 264.80 287.31 271.43 293.95 276.68 296.94 C 281.94 299.93 286.08 300.49 292.24 300.25 C 298.40 300.02 307.83 298.35 313.63 295.51 C 319.44 292.68 323.19 288.42 327.05 283.26 C 330.92 278.11 334.58 270.26 336.83 264.59 C 339.09 258.92 339.54 255.41 340.60 249.22 C 341.65 243.04 342.66 234.00 343.17 227.48 C 343.68 220.96 343.35 216.06 343.65 210.11 C 343.95 204.17 344.50 197.50 344.96 191.80 C 345.43 186.10 345.56 180.57 346.46 175.92 C 347.37 171.26 348.91 167.64 350.40 163.89 C 351.88 160.13 353.51 156.55 355.38 153.38 C 357.26 150.22 359.46 147.32 361.66 144.90 C 363.86 142.49 366.35 140.66 368.59 138.92 C 370.82 137.18 372.93 136.60 375.06 134.48 C 377.19 132.35 380.15 128.76 381.36 126.17 C 382.58 123.57 382.54 121.93 382.35 118.91 C 382.16 115.88 381.52 111.30 380.23 108.02 C 378.94 104.74 377.64 102.48 374.59 99.23 C 371.54 95.99 366.09 91.27 361.91 88.56 C 357.73 85.84 354.87 84.76 349.50 82.95 C 344.14 81.14 336.14 78.94 329.71 77.70 C 323.27 76.46 318.02 75.40 310.91 75.51 C 303.80 75.61 294.51 76.95 287.07 78.33 C 279.63 79.71 273.65 81.20 266.26 83.76 C 258.88 86.33 249.68 90.06 242.77 93.70 C 235.85 97.34 231.19 100.98 224.79 105.59 C 218.38 110.20 210.18 116.10 204.35 121.36 C 198.53 126.62 194.48 130.67 189.83 137.15 C 185.17 143.64 179.58 152.75 176.44 160.27 C 173.30 167.79 172.26 173.93 170.98 182.27 C 169.70 190.61 168.86 202.06 168.78 210.33 C 168.70 218.59 168.58 224.23 170.51 231.86 C 172.45 239.49 176.78 249.15 180.38 256.09 C 183.98 263.03 186.94 267.75 192.12 273.51 C 197.30 279.26 204.98 286.08 211.44 290.62 C 217.90 295.15 224.23 297.68 230.88 300.71 C 237.54 303.74 245.09 306.37 251.38 308.77 C 257.67 311.18 262.66 312.88 268.64 315.13 C 274.62 317.39 281.77 320.20 287.25 322.30 C 292.73 324.40 296.71 325.67 301.50 327.72 C 306.29 329.77 311.81 332.31 315.99 334.60 C 320.18 336.88 323.27 338.57 326.63 341.43 C 329.98 344.28 333.38 348.50 336.12 351.75 C 338.85 354.99 340.60 357.88 343.05 360.88 C 345.49 363.89 348.70 367.07 350.79 369.79 C 352.88 372.51 353.49 374.94 355.58 377.20 C 357.66 379.47 361.01 381.66 363.30 383.37 C 365.59 385.07 366.66 386.19 369.34 387.43 C 372.02 388.66 376.33 390.33 379.36 390.78 C 382.39 391.22 384.25 390.71 387.55 390.10 C 390.85 389.50 395.45 388.72 399.18 387.16 C 402.90 385.60 406.57 382.71 409.89 380.72 C 413.22 378.73 415.91 377.00 419.14 375.25 C 422.38 373.49 426.30 371.70 429.32 370.17 C 432.34 368.63 434.51 367.22 437.27 366.02 C 440.03 364.82 443.54 363.61 445.88 362.99 C 448.22 362.37 449.64 362.29 451.31 362.32 C 452.98 362.35 454.89 362.37 455.91 363.15 C 456.93 363.93 456.86 365.20 457.42 367.00 C 457.99 368.81 458.71 371.86 459.30 373.98 C 459.88 376.10 460.51 378.14 460.95 379.71 C 461.39 381.29 461.60 382.48 461.94 383.44 C 462.27 384.39 462.05 385.02 462.97 385.43 C 463.90 385.84 466.08 386.06 467.47 385.88 C 468.87 385.70 469.82 385.55 471.34 384.33 C 472.86 383.12 475.11 380.93 476.61 378.60 C 478.10 376.26 479.10 374.03 480.31 370.33 C 481.53 366.62 482.75 360.91 483.89 356.36 C 485.02 351.82 486.35 348.58 487.11 343.07 C 487.88 337.56 488.67 329.67 488.47 323.31 C 488.28 316.95 487.76 311.96 485.95 304.92 C 484.13 297.87 480.48 288.31 477.59 281.04 C 474.70 273.77 472.71 268.35 468.60 261.29 C 464.49 254.22 458.48 245.43 452.95 238.66 C 447.43 231.88 442.10 226.60 435.45 220.62 C 428.79 214.63 420.33 207.83 413.02 202.73 C 405.72 197.62 399.33 194.06 391.60 189.99 C 383.87 185.91 374.18 181.72 366.63 178.25 C 359.09 174.78 353.39 172.30 346.31 169.16 C 339.23 166.03 330.75 162.43 324.18 159.42 C 317.61 156.41 312.85 154.19 306.87 151.09 C 300.89 148.00 293.61 143.78 288.30 140.87 C 283.00 137.96 279.87 136.14 275.04 133.63 C 270.20 131.11 263.90 128.28 259.31 125.77 C 254.72 123.25 252.04 120.67 247.50 118.52 C 242.96 116.37 236.77 114.38 232.06 112.86 C 227.36 111.35 224.02 110.09 219.28 109.45 C 214.53 108.82 208.34 109.09 203.61 109.05 C 198.88 109.01 195.92 108.28 190.89 109.20 C 185.86 110.13 178.47 112.62 173.42 114.63 C 168.37 116.63 167.25 116.72 160.59 121.25 C 153.94 125.79 137.99 138.42 133.47 141.85" fill="none" stroke="#fff" stroke-width="4.48" stroke-opacity="1" stroke-linecap="round" stroke-linejoin="round"/>
  </g>
</svg>