<?xml version="1.0" encoding="UTF-8"?>
<svg xmlns="http://www.w3.org/2000/svg" width="512" height="512" viewBox="0 0 512 512">
  <rect width="100%" height="100%" fill="#000"/>
  <g>
    <path d="M 256.00 256.00 C 259.80 255.80 271.54 253.60 278.79 254.81 C 286.04 256.01 293.23 259.49 299.49 263.21 C 305.75 266.92 311.84 271.82 316.35 277.11 C 320.87 282.40 324.40 289.05 326.57 294.96 C 328.74 300.87 329.95 306.34 329.37 312.56 C 328.79 318.78 326.92 326.19 323.11 332.28 C 319.30 338.37 313.29 344.97 306.51 349.10 C 299.73 353.24 290.40 356.05 282.42 357.10 C 274.44 358.15 266.62 356.96 258.63 355.39 C 250.65 353.83 242.18 351.69 234.49 347.72 C 226.81 343.76 218.25 337.52 212.53 331.61 C 206.81 325.69 202.84 319.39 200.15 312.24 C 197.46 305.08 195.96 296.71 196.39 288.70 C 196.83 280.69 198.73 272.07 202.76 264.18 C 206.79 256.29 213.42 246.52 220.57 241.35 C 227.72 236.18 237.42 235.01 245.69 233.16 C 253.96 231.31 262.47 229.56 270.18 230.25 C 277.88 230.94 285.64 233.53 291.93 237.31 C 298.22 241.08 304.05 246.88 307.92 252.90 C 311.79 258.93 315.02 266.58 315.16 273.46 C 315.29 280.34 311.90 287.35 308.73 294.19 C 305.56 301.02 301.33 308.94 296.13 314.48 C 290.92 320.03 284.45 325.00 277.51 327.44 C 270.57 329.88 262.01 329.73 254.51 329.13 C 247.01 328.53 238.94 326.99 232.50 323.83 C 226.07 320.67 220.54 315.88 215.91 310.15 C 211.28 304.42 207.08 297.40 204.70 289.43 C 202.32 281.46 200.41 270.65 201.64 262.33 C 202.88 254.00 207.51 246.63 212.11 239.49 C 216.70 232.36 223.10 224.48 229.23 219.51 C 235.36 214.54 241.61 211.11 248.89 209.68 C 256.16 208.24 265.37 209.14 272.89 210.90 C 280.41 212.66 287.85 215.64 294.02 220.21 C 300.20 224.78 306.59 231.91 309.93 238.32 C 313.27 244.73 313.46 251.42 314.05 258.66 C 314.64 265.90 314.16 274.07 313.48 281.77 C 312.80 289.46 311.99 298.34 309.97 304.83 C 307.95 311.31 304.93 314.71 301.35 320.67 C 297.77 326.63 292.31 334.64 288.50 340.58 C 284.68 346.52 281.32 351.56 278.46 356.30 C 275.59 361.05 274.12 364.71 271.30 369.05 C 268.48 373.40 264.93 378.66 261.54 382.36 C 258.14 386.05 254.60 388.36 250.94 391.20 C 247.28 394.05 243.56 396.92 239.58 399.41 C 235.60 401.91 231.10 403.83 227.03 406.17 C 222.97 408.51 219.58 411.27 215.20 413.46 C 210.83 415.65 205.38 418.36 200.77 419.29 C 196.15 420.22 192.30 419.41 187.53 419.03 C 182.75 418.65 177.59 417.96 172.10 417.02 C 166.61 416.08 160.00 416.73 154.57 413.37 C 149.15 410.02 144.53 402.93 139.57 396.89 C 134.61 390.85 128.19 384.56 124.81 377.13 C 121.43 369.69 119.99 361.33 119.31 352.29 C 118.63 343.26 118.65 332.15 120.74 322.91 C 122.84 313.68 126.70 304.65 131.88 296.87 C 137.07 289.10 144.25 282.26 151.84 276.26 C 159.43 270.26 168.21 264.38 177.43 260.87 C 186.64 257.37 197.72 255.55 207.13 255.25 C 216.55 254.95 225.34 255.96 233.91 259.06 C 242.47 262.15 251.82 268.89 258.51 273.82 C 265.21 278.75 270.43 282.95 274.08 288.63 C 277.73 294.31 280.32 301.80 280.42 307.92 C 280.51 314.04 277.49 319.82 274.65 325.36 C 271.81 330.91 268.17 337.39 263.36 341.19 C 258.55 344.99 252.11 346.25 245.77 348.17 C 239.42 350.08 231.41 352.54 225.29 352.67 C 219.17 352.79 215.31 350.62 209.05 348.92 C 202.79 347.22 194.39 345.86 187.76 342.46 C 181.12 339.05 174.20 333.38 169.23 328.51 C 164.26 323.65 161.50 319.58 157.94 313.24 C 154.37 306.91 150.28 298.29 147.84 290.50 C 145.39 282.71 143.53 274.60 143.27 266.50 C 143.02 258.40 144.59 250.28 146.31 241.89 C 148.03 233.51 150.90 223.98 153.59 216.19 C 156.28 208.40 158.53 201.39 162.45 195.14 C 166.37 188.89 171.94 183.29 177.13 178.69 C 182.31 174.08 187.66 171.23 193.54 167.53 C 199.43 163.83 206.49 159.87 212.42 156.50 C 218.35 153.13 223.03 149.77 229.13 147.33 C 235.22 144.89 241.57 143.12 249.01 141.84 C 256.44 140.56 265.99 139.12 273.72 139.65 C 281.44 140.18 288.68 142.37 295.35 145.03 C 302.01 147.69 307.55 151.39 313.71 155.60 C 319.86 159.82 327.01 164.45 332.29 170.30 C 337.57 176.15 341.46 183.56 345.36 190.70 C 349.26 197.84 354.37 205.11 355.69 213.12 C 357.00 221.12 355.47 230.08 353.25 238.74 C 351.02 247.40 347.09 257.47 342.32 265.08 C 337.56 272.69 331.77 278.00 324.67 284.38 C 317.57 290.76 307.67 298.48 299.72 303.35 C 291.77 308.21 284.40 310.76 276.97 313.56 C 269.54 316.36 262.00 318.58 255.14 320.15 C 248.29 321.71 242.47 321.99 235.85 322.93 C 229.23 323.88 222.38 325.35 215.45 325.82 C 208.51 326.29 200.80 326.27 194.26 325.76 C 187.71 325.26 182.16 323.54 176.17 322.81 C 170.17 322.07 163.83 321.20 158.30 321.35 C 152.76 321.49 147.52 323.23 142.95 323.67 C 138.38 324.11 134.98 323.76 130.88 323.99 C 126.78 324.23 122.42 325.17 118.35 325.06 C 114.28 324.94 110.50 324.57 106.44 323.31 C 102.38 322.04 97.99 320.34 94.00 317.45 C 90.01 314.56 85.75 310.15 82.52 305.96 C 79.29 301.76 76.86 297.44 74.62 292.26 C 72.39 287.07 70.58 280.86 69.11 274.84 C 67.64 268.82 66.03 262.62 65.83 256.14 C 65.63 249.66 66.32 242.71 67.92 235.94 C 69.51 229.16 72.15 222.65 75.39 215.49 C 78.62 208.33 82.97 199.72 87.35 192.98 C 91.74 186.24 96.67 180.85 101.68 175.06 C 106.69 169.27 111.94 163.76 117.42 158.23 C 122.89 152.71 128.40 146.76 134.54 141.91 C 140.67 137.05 148.66 133.08 154.21 129.10 C 159.76 125.13 164.17 121.48 167.86 118.08 C 171.56 114.67 174.13 112.04 176.36 108.68 C 178.60 105.32 180.89 101.18 181.26 97.92 C 181.63 94.66 180.39 91.34 178.59 89.11 C 176.78 86.89 173.80 85.72 170.43 84.56 C 167.07 83.40 163.16 81.49 158.39 82.15 C 153.63 82.80 146.88 85.46 141.85 88.48 C 136.82 91.49 132.62 95.45 128.21 100.22 C 123.80 104.99 119.14 110.64 115.42 117.10 C 111.69 123.55 108.25 130.98 105.87 138.94 C 103.50 146.90 101.65 155.56 101.17 164.86 C 100.69 174.16 102.14 185.38 102.99 194.75 C 103.83 204.12 104.37 212.36 106.26 221.08 C 108.16 229.81 111.18 239.28 114.38 247.12 C 117.58 254.96 122.81 261.24 125.44 268.11 C 128.06 274.98 128.93 281.89 130.14 288.34 C 131.35 294.79 132.39 300.78 132.69 306.82 C 132.99 312.85 132.79 319.38 131.95 324.56 C 131.11 329.73 129.83 333.68 127.66 337.85 C 125.48 342.02 122.86 347.14 118.89 349.58 C 114.93 352.02 108.82 352.06 103.87 352.49 C 98.92 352.92 93.60 353.49 89.21 352.16 C 84.83 350.83 80.71 347.38 77.56 344.51 C 74.41 341.64 72.96 339.77 70.31 334.95 C 67.66 330.12 64.07 321.95 61.67 315.55 C 59.27 309.15 56.22 303.28 55.91 296.56 C 55.61 289.84 59.22 282.23 59.83 275.24 C 60.44 268.25 57.88 261.90 59.57 254.64 C 61.27 247.37 65.92 239.32 69.98 231.63 C 74.04 223.94 78.20 215.58 83.96 208.50 C 89.71 201.42 96.40 195.19 104.51 189.15 C 112.62 183.12 123.42 175.78 132.62 172.29 C 141.82 168.80 150.23 168.68 159.71 168.21 C 169.20 167.73 179.86 168.48 189.53 169.45 C 199.20 170.42 209.41 171.29 217.72 174.05 C 226.03 176.80 232.56 179.84 239.38 185.98 C 246.20 192.11 253.79 202.72 258.63 210.87 C 263.47 219.01 267.10 227.00 268.43 234.84 C 269.76 242.69 267.59 249.80 266.60 257.94 C 265.61 266.08 265.28 275.98 262.48 283.70 C 259.69 291.41 254.36 298.13 249.85 304.21 C 245.33 310.29 239.98 315.98 235.38 320.19 C 230.78 324.40 226.07 325.90 222.25 329.48 C 218.42 333.06 216.08 338.06 212.40 341.66 C 208.71 345.27 203.99 347.36 200.14 351.13 C 196.29 354.90 192.07 359.65 189.29 364.28 C 186.52 368.90 186.08 374.52 183.48 378.89 C 180.87 383.26 176.75 386.96 173.66 390.48 C 170.57 394.00 168.19 397.41 164.94 400.01 C 161.69 402.61 158.54 405.61 154.15 406.06 C 149.76 406.50 143.80 404.81 138.58 402.66 C 133.36 400.51 128.13 396.88 122.83 393.16 C 117.52 389.44 110.95 386.27 106.74 380.35 C 102.52 374.43 99.82 365.16 97.54 357.62 C 95.27 350.09 94.17 342.64 93.08 335.14 C 91.99 327.65 91.92 320.04 91.00 312.68 C 90.09 305.31 89.01 297.83 87.59 290.95 C 86.18 284.08 84.38 277.21 82.50 271.45 C 80.61 265.69 78.53 260.61 76.31 256.37 C 74.08 252.14 71.65 248.61 69.14 246.05 C 66.63 243.49 63.54 240.91 61.23 241.00 C 58.92 241.09 57.53 244.44 55.26 246.57 C 52.98 248.70 49.51 250.46 47.56 253.78 C 45.61 257.10 44.52 261.72 43.55 266.49 C 42.59 271.27 41.60 277.20 41.75 282.43 C 41.90 287.66 42.93 291.50 44.46 297.87 C 45.99 304.25 47.64 314.13 50.92 320.70 C 54.20 327.27 59.38 332.11 64.13 337.27 C 68.88 342.43 74.18 346.57 79.44 351.67 C 84.70 356.77 90.52 363.13 95.68 367.88 C 100.85 372.63 105.71 375.62 110.42 380.17 C 115.14 384.73 119.96 390.71 123.98 395.23 C 127.99 399.74 131.35 403.53 134.52 407.25 C 137.68 410.96 141.26 413.68 142.95 417.51 C 144.64 421.34 144.31 426.55 144.66 430.21 C 145.01 433.87 145.32 437.42 145.04 439.46 C 144.76 441.51 145.28 442.10 142.99 442.47 C 140.70 442.85 135.48 443.52 131.31 441.69 C 127.14 439.87 122.46 436.18 117.96 431.52 C 113.46 426.86 108.47 419.87 104.31 413.75 C 100.15 407.63 95.40 403.12 92.99 394.80 C 90.59 386.48 89.72 373.29 89.88 363.80 C 90.04 354.32 92.20 347.69 93.95 337.89 C 95.69 328.09 98.02 315.21 100.34 305.02 C 102.66 294.83 105.93 285.71 107.87 276.77 C 109.81 267.83 111.20 259.46 112.00 251.39 C 112.80 243.31 113.41 234.62 112.69 228.31 C 111.96 222.00 109.32 218.05 107.65 213.52 C 105.99 208.99 105.60 203.99 102.71 201.11 C 99.81 198.24 93.75 196.33 90.27 196.29 C 86.78 196.25 84.57 198.78 81.80 200.90 C 79.02 203.02 75.39 204.39 73.62 209.00 C 71.86 213.61 71.65 222.16 71.19 228.54 C 70.73 234.93 69.22 240.80 70.85 247.29 C 72.49 253.78 76.28 260.62 81.01 267.47 C 85.74 274.32 91.33 282.15 99.25 288.37 C 107.16 294.60 118.47 301.41 128.49 304.82 C 138.50 308.22 149.23 309.02 159.35 308.80 C 169.48 308.59 179.59 306.42 189.25 303.53 C 198.90 300.65 209.41 296.44 217.29 291.50 C 225.16 286.56 231.42 280.70 236.52 273.90 C 241.62 267.09 245.53 258.07 247.88 250.67 C 250.23 243.26 251.78 235.95 250.62 229.45 C 249.45 222.96 244.84 216.45 240.89 211.71 C 236.94 206.98 232.22 203.26 226.90 201.03 C 221.59 198.80 215.18 197.50 209.00 198.32 C 202.82 199.14 195.52 202.70 189.82 205.95 C 184.11 209.19 179.10 213.69 174.79 217.81 C 170.49 221.92 167.00 225.14 163.99 230.63 C 160.99 236.13 158.02 244.26 156.77 250.77 C 155.52 257.29 156.44 262.09 156.48 269.73 C 156.52 277.36 155.10 288.82 156.99 296.59 C 158.87 304.35 163.46 310.29 167.81 316.31 C 172.16 322.34 177.54 327.99 183.10 332.73 C 188.67 337.47 194.33 341.73 201.20 344.74 C 208.06 347.75 216.85 349.54 224.30 350.79 C 231.76 352.03 238.25 352.57 245.93 352.20 C 253.61 351.84 263.08 351.74 270.37 348.59 C 277.67 345.45 283.82 339.53 289.72 333.31 C 295.62 327.10 303.02 318.90 305.76 311.31 C 308.50 303.72 307.25 295.93 306.14 287.76 C 305.04 279.59 303.41 269.61 299.13 262.29 C 294.86 254.98 286.80 248.46 280.49 243.85 C 274.19 239.23 268.47 236.78 261.29 234.60 C 254.11 232.42 244.98 230.01 237.41 230.77 C 229.83 231.52 221.63 234.40 215.84 239.15 C 210.06 243.90 204.97 252.35 202.71 259.25 C 200.44 266.16 200.34 273.35 202.24 280.60 C 204.14 287.86 209.16 297.32 214.09 302.78 C 219.02 308.23 225.39 310.39 231.81 313.33 C 238.24 316.28 245.20 318.20 252.64 320.46 C 260.08 322.72 269.13 325.17 276.45 326.89 C 283.78 328.62 289.76 329.10 296.61 330.80 C 303.45 332.51 311.73 335.28 317.50 337.12 C 323.28 338.95 326.46 339.91 331.26 341.82 C 336.06 343.73 342.19 345.77 346.29 348.58 C 350.39 351.40 352.53 355.37 355.85 358.72 C 359.17 362.06 363.04 366.27 366.20 368.65 C 369.36 371.02 371.43 371.68 374.83 372.96 C 378.22 374.23 382.81 375.98 386.59 376.27 C 390.38 376.56 393.26 376.16 397.53 374.67 C 401.81 373.19 408.05 369.94 412.24 367.37 C 416.42 364.79 419.98 362.94 422.64 359.21 C 425.29 355.47 425.58 350.84 428.14 344.95 C 430.70 339.07 436.59 331.61 437.99 323.89 C 439.40 316.16 438.34 306.99 436.55 298.61 C 434.75 290.22 430.73 281.99 427.22 273.56 C 423.71 265.12 421.17 255.64 415.49 248.00 C 409.82 240.36 401.98 233.47 393.18 227.70 C 384.39 221.94 372.50 216.93 362.73 213.39 C 352.97 209.86 343.99 207.24 334.59 206.49 C 325.19 205.74 315.45 207.26 306.31 208.88 C 297.17 210.50 288.13 213.59 279.76 216.20 C 271.40 218.80 263.77 221.55 256.11 224.50 C 248.45 227.45 241.11 231.26 233.80 233.89 C 226.49 236.51 219.42 238.40 212.25 240.25 C 205.07 242.10 197.08 243.95 190.73 245.00 C 184.37 246.04 179.63 246.62 174.12 246.53 C 168.60 246.43 163.28 245.87 157.62 244.42 C 151.96 242.98 144.37 240.67 140.17 237.85 C 135.97 235.04 134.32 232.18 132.41 227.50 C 130.50 222.83 129.09 215.43 128.72 209.82 C 128.34 204.21 128.65 199.33 130.18 193.85 C 131.71 188.37 134.96 182.74 137.90 176.94 C 140.85 171.14 144.05 165.01 147.85 159.03 C 151.64 153.05 156.49 145.97 160.67 141.05 C 164.85 136.13 169.98 133.78 172.93 129.53 C 175.89 125.28 177.07 119.96 178.42 115.57 C 179.76 111.17 180.41 106.74 181.00 103.16 C 181.59 99.58 182.65 97.03 181.97 94.10 C 181.30 91.17 179.64 87.44 176.94 85.57 C 174.25 83.70 169.61 83.36 165.78 82.89 C 161.95 82.42 158.64 81.38 153.97 82.74 C 149.30 84.09 142.85 88.20 137.76 91.03 C 132.67 93.86 128.46 95.50 123.41 99.73 C 118.37 103.95 111.94 110.71 107.47 116.37 C 103.01 122.03 99.36 127.12 96.63 133.69 C 93.90 140.25 92.83 147.89 91.10 155.77 C 89.37 163.65 87.16 172.39 86.24 180.98 C 85.31 189.58 85.04 199.22 85.56 207.34 C 86.08 215.45 88.69 222.37 89.36 229.70 C 90.04 237.02 89.64 245.04 89.61 251.28 C 89.58 257.51 90.12 262.18 89.19 267.11 C 88.25 272.03 86.14 276.81 83.99 280.82 C 81.84 284.83 79.18 288.39 76.27 291.17 C 73.35 293.95 68.90 295.31 66.51 297.50 C 64.11 299.70 63.72 302.36 61.92 304.33 C 60.12 306.30 57.80 307.31 55.70 309.33 C 53.59 311.35 50.80 312.97 49.29 316.43 C 47.78 319.89 46.56 325.10 46.64 330.11 C 46.71 335.12 48.34 341.74 49.72 346.51 C 51.10 351.28 51.36 354.13 54.93 358.73 C 58.50 363.32 65.24 369.01 71.16 374.09 C 77.07 379.17 83.25 385.20 90.41 389.21 C 97.58 393.21 105.31 395.34 114.15 398.12 C 122.99 400.90 133.42 404.49 143.44 405.87 C 153.46 407.26 163.96 407.06 174.27 406.41 C 184.59 405.75 196.17 404.83 205.34 401.95 C 214.52 399.07 222.01 394.27 229.33 389.12 C 236.64 383.97 242.53 377.96 249.23 371.04 C 255.92 364.11 263.84 356.79 269.48 347.56 C 275.12 338.33 280.32 325.58 283.05 315.66 C 285.79 305.74 286.47 297.13 285.89 288.04 C 285.32 278.94 282.16 268.91 279.61 261.08 C 277.05 253.25 274.50 247.34 270.57 241.04 C 266.64 234.73 262.23 226.95 256.04 223.23 C 249.85 219.52 240.13 219.80 233.43 218.74 C 226.72 217.67 222.20 216.25 215.81 216.85 C 209.41 217.45 201.20 219.27 195.05 222.33 C 188.90 225.38 183.02 230.28 178.91 235.19 C 174.80 240.10 171.39 245.14 170.38 251.77 C 169.37 258.39 170.97 267.22 172.85 274.92 C 174.74 282.61 177.62 290.95 181.68 297.93 C 185.74 304.91 191.90 311.38 197.23 316.80 C 202.55 322.22 207.67 326.18 213.64 330.46 C 219.61 334.74 226.58 337.82 233.04 342.45 C 239.50 347.08 246.75 353.71 252.41 358.27 C 258.08 362.83 262.95 366.49 267.05 369.80 C 271.15 373.12 273.79 374.66 277.03 378.14 C 280.27 381.61 284.24 386.90 286.48 390.65 C 288.71 394.39 288.82 397.33 290.43 400.60 C 292.04 403.87 293.85 407.25 296.14 410.27 C 298.44 413.28 301.20 415.56 304.21 418.69 C 307.22 421.82 309.86 427.43 314.19 429.04 C 318.52 430.66 324.79 429.95 330.19 428.38 C 335.59 426.80 341.20 424.76 346.57 419.59 C 351.93 414.41 358.48 405.44 362.37 397.35 C 366.25 389.25 368.77 379.89 369.87 371.03 C 370.97 362.17 370.32 353.85 368.97 344.18 C 367.63 334.51 365.96 322.20 361.82 313.01 C 357.67 303.82 352.08 295.64 344.10 289.02 C 336.13 282.41 323.44 276.82 313.97 273.34 C 304.50 269.85 295.88 268.10 287.28 268.10 C 278.68 268.10 269.20 269.66 262.37 273.33 C 255.55 277.00 249.92 284.10 246.33 290.12 C 242.74 296.14 240.63 303.16 240.83 309.46 C 241.04 315.76 243.78 322.27 247.57 327.91 C 251.36 333.55 257.95 339.63 263.59 343.28 C 269.22 346.92 275.06 349.78 281.39 349.78 C 287.72 349.77 295.19 347.16 301.57 343.25 C 307.95 339.33 315.16 333.39 319.67 326.28 C 324.18 319.16 327.13 309.43 328.63 300.54 C 330.13 291.66 330.65 281.28 328.67 272.99 C 326.69 264.70 321.78 257.37 316.74 250.80 C 311.70 244.22 304.84 238.32 298.44 233.55 C 292.03 228.78 286.58 224.66 278.30 222.19 C 270.02 219.72 257.59 219.03 248.75 218.72 C 239.92 218.41 232.47 218.97 225.29 220.33 C 218.11 221.70 211.95 225.26 205.67 226.90 C 199.40 228.55 193.79 229.33 187.65 230.23 C 181.51 231.13 174.85 232.04 168.86 232.31 C 162.87 232.59 157.02 232.59 151.69 231.86 C 146.36 231.14 141.69 229.58 136.91 227.96 C 132.13 226.33 126.74 224.30 123.02 222.13 C 119.31 219.95 117.25 218.19 114.62 214.90 C 111.98 211.61 108.12 206.53 107.22 202.40 C 106.31 198.28 107.55 195.31 109.18 190.14 C 110.81 184.98 113.13 177.11 117.02 171.43 C 120.91 165.75 126.43 160.71 132.54 156.06 C 138.65 151.41 145.62 146.58 153.67 143.52 C 161.71 140.47 170.56 137.65 180.82 137.73 C 191.07 137.81 204.52 141.43 215.17 143.98 C 225.83 146.53 236.11 150.24 244.75 153.05 C 253.39 155.86 259.61 158.89 267.01 160.84 C 274.41 162.78 281.79 163.38 289.13 164.71 C 296.46 166.04 303.94 167.38 311.02 168.83 C 318.10 170.27 325.98 173.16 331.62 173.38 C 337.26 173.61 339.94 171.58 344.84 170.16 C 349.75 168.74 356.17 166.82 361.04 164.89 C 365.91 162.96 370.69 160.72 374.06 158.57 C 377.42 156.41 377.91 153.10 381.23 151.95 C 384.54 150.79 390.04 152.30 393.93 151.65 C 397.83 151.00 401.43 148.71 404.61 148.05 C 407.80 147.39 409.99 147.39 413.07 147.66 C 416.15 147.93 419.49 147.59 423.09 149.67 C 426.70 151.75 431.06 156.90 434.70 160.14 C 438.33 163.38 441.30 166.45 444.89 169.09 C 448.49 171.73 453.16 173.05 456.26 175.99 C 459.36 178.92 461.42 183.88 463.50 186.70 C 465.58 189.53 466.69 191.74 468.76 192.93 C 470.83 194.11 473.88 193.84 475.92 193.82 C 477.97 193.79 478.94 193.76 481.03 192.76 C 483.13 191.75 486.83 189.53 488.47 187.78 C 490.11 186.03 490.49 184.55 490.87 182.23 C 491.25 179.91 491.67 177.50 490.75 173.88 C 489.82 170.26 488.00 165.06 485.31 160.52 C 482.63 155.97 478.76 151.53 474.65 146.61 C 470.53 141.69 465.18 135.91 460.63 131.00 C 456.08 126.09 452.20 121.00 447.35 117.17 C 442.50 113.34 437.74 111.75 431.52 108.03 C 425.31 104.30 417.56 99.18 410.08 94.82 C 402.59 90.46 393.37 85.27 386.60 81.89 C 379.82 78.51 374.24 77.44 369.43 74.53 C 364.61 71.62 361.73 67.67 357.71 64.42 C 353.69 61.18 348.31 57.86 345.30 55.07 C 342.29 52.29 340.38 50.83 339.65 47.70 C 338.92 44.56 340.79 38.52 340.92 36.25 C 341.04 33.97 339.59 35.03 340.41 34.03 C 341.23 33.04 342.89 30.78 345.86 30.27 C 348.83 29.77 353.77 28.67 358.25 31.00 C 362.72 33.33 367.79 38.71 372.72 44.25 C 377.64 49.79 383.59 56.02 387.80 64.24 C 392.00 72.46 395.88 83.43 397.94 93.55 C 399.99 103.66 400.73 114.30 400.12 124.92 C 399.52 135.54 397.77 147.26 394.30 157.28 C 390.83 167.31 385.43 175.36 379.31 185.07 C 373.20 194.78 365.70 207.78 357.60 215.54 C 349.50 223.30 339.16 227.05 330.72 231.62 C 322.27 236.19 315.02 240.12 306.94 242.96 C 298.85 245.80 290.22 247.79 282.20 248.66 C 274.19 249.53 266.20 250.16 258.85 248.19 C 251.49 246.22 243.63 241.98 238.06 236.84 C 232.49 231.69 227.89 223.62 225.43 217.30 C 222.96 210.99 222.87 204.81 223.26 198.94 C 223.65 193.07 224.34 187.35 227.79 182.08 C 231.23 176.81 238.07 170.77 243.93 167.30 C 249.79 163.82 255.99 162.49 262.95 161.23 C 269.90 159.97 278.94 159.73 285.67 159.75 C 292.39 159.76 297.52 161.36 303.29 161.32 C 309.06 161.28 314.78 160.69 320.28 159.53 C 325.77 158.37 331.78 156.91 336.26 154.36 C 340.75 151.81 343.97 147.85 347.21 144.23 C 350.45 140.61 354.18 136.33 355.71 132.64 C 357.24 128.95 356.57 125.84 356.38 122.10 C 356.19 118.35 356.83 113.92 354.58 110.16 C 352.32 106.41 347.55 102.34 342.83 99.56 C 338.10 96.78 332.99 94.99 326.20 93.50 C 319.42 92.02 310.48 90.64 302.10 90.67 C 293.72 90.69 284.69 91.80 275.94 93.66 C 267.18 95.51 257.85 97.78 249.56 101.79 C 241.26 105.81 233.31 111.60 226.16 117.78 C 219.01 123.96 211.88 130.96 206.67 138.88 C 201.45 146.79 197.29 156.22 194.89 165.26 C 192.48 174.30 191.96 183.84 192.24 193.11 C 192.53 202.39 194.30 212.36 196.61 220.92 C 198.91 229.48 200.59 236.71 206.09 244.47 C 211.59 252.23 221.58 262.22 229.61 267.46 C 237.63 272.70 246.54 274.44 254.22 275.92 C 261.91 277.40 269.08 277.89 275.72 276.33 C 282.36 274.77 289.09 271.24 294.07 266.56 C 299.06 261.87 302.92 254.59 305.62 248.24 C 308.31 241.90 310.94 234.86 310.25 228.48 C 309.57 222.11 305.91 216.01 301.49 209.98 C 297.07 203.94 289.93 196.45 283.76 192.28 C 277.59 188.11 271.56 186.36 264.46 184.94 C 257.36 183.53 249.00 183.53 241.15 183.80 C 233.29 184.06 225.10 185.14 217.34 186.51 C 209.58 187.88 201.42 190.67 194.60 192.04 C 187.77 193.41 181.74 194.08 176.36 194.73 C 170.99 195.38 166.46 196.30 162.34 195.94 C 158.22 195.58 155.97 194.23 151.65 192.57 C 147.32 190.90 140.36 188.39 136.40 185.95 C 132.43 183.51 130.62 180.61 127.88 177.93 C 125.13 175.26 122.60 172.16 119.92 169.87 C 117.24 167.59 115.19 166.37 111.80 164.20 C 108.41 162.03 103.08 157.99 99.58 156.85 C 96.08 155.72 93.67 156.92 90.81 157.38 C 87.95 157.83 84.98 158.02 82.44 159.57 C 79.90 161.11 78.27 163.90 75.58 166.66 C 72.88 169.42 68.90 171.73 66.25 176.13 C 63.59 180.54 60.06 186.56 59.64 193.09 C 59.22 199.63 61.82 207.63 63.73 215.35 C 65.64 223.08 66.88 231.32 71.11 239.45 C 75.33 247.58 82.09 256.92 89.06 264.14 C 96.04 271.36 104.11 278.33 112.94 282.78 C 121.76 287.22 131.66 290.53 142.01 290.80 C 152.37 291.06 165.03 288.15 175.07 284.35 C 185.12 280.56 195.34 274.06 202.29 268.02 C 209.25 261.97 213.63 255.69 216.81 248.11 C 219.98 240.54 221.28 230.18 221.34 222.55 C 221.39 214.91 220.11 207.90 217.13 202.29 C 214.16 196.68 208.82 191.46 203.49 188.91 C 198.16 186.36 191.28 186.54 185.16 186.99 C 179.03 187.45 172.37 189.90 166.75 191.67 C 161.12 193.44 156.05 195.14 151.42 197.63 C 146.80 200.12 143.69 203.52 139.01 206.63 C 134.33 209.74 128.04 213.49 123.34 216.29 C 118.64 219.09 115.29 221.69 110.82 223.42 C 106.35 225.14 100.61 225.81 96.51 226.65 C 92.42 227.49 89.49 228.20 86.24 228.45 C 83.00 228.70 80.39 228.70 77.06 228.14 C 73.73 227.59 69.18 225.74 66.25 225.13 C 63.31 224.52 61.68 224.45 59.47 224.50 C 57.26 224.55 55.53 225.62 52.97 225.41 C 50.41 225.20 47.58 223.47 44.12 223.22 C 40.67 222.97 35.40 224.61 32.25 223.90 C 29.10 223.20 27.09 220.61 25.20 218.98 C 23.32 217.35 22.40 214.84 20.93 214.13 C 19.45 213.41 17.90 215.24 16.36 214.67 C 14.81 214.10 12.98 212.33 11.67 210.69 C 10.36 209.06 8.83 208.16 8.48 204.88 C 8.12 201.60 8.56 196.28 9.53 191.00 C 10.50 185.73 12.33 178.55 14.29 173.24 C 16.24 167.92 19.52 163.50 21.27 159.12 C 23.02 154.74 23.30 150.75 24.79 146.97 C 26.29 143.20 28.55 139.83 30.25 136.45 C 31.94 133.07 33.98 128.64 34.96 126.71 C 35.94 124.78 36.62 125.80 36.11 124.86 C 35.60 123.92 33.32 121.02 31.89 121.07 C 30.45 121.12 29.50 122.27 27.49 125.16 C 25.49 128.05 21.17 132.40 19.86 138.41 C 18.54 144.42 18.61 152.79 19.59 161.22 C 20.58 169.65 21.94 179.21 25.79 188.97 C 29.63 198.73 35.21 210.94 42.65 219.80 C 50.09 228.67 59.88 236.75 70.40 242.17 C 80.92 247.59 94.25 250.42 105.77 252.33 C 117.29 254.24 129.33 254.38 139.51 253.64 C 149.69 252.90 158.14 250.48 166.84 247.90 C 175.54 245.32 184.33 242.48 191.73 238.16 C 199.14 233.83 205.68 227.27 211.28 221.94 C 216.87 216.62 220.02 211.61 225.31 206.19 C 230.60 200.76 237.45 194.18 243.01 189.40 C 248.58 184.61 253.52 180.60 258.73 177.48 C 263.93 174.35 268.74 173.42 274.27 170.64 C 279.80 167.86 286.67 163.94 291.92 160.82 C 297.18 157.70 301.92 155.24 305.81 151.93 C 309.70 148.62 312.05 144.35 315.26 140.95 C 318.47 137.56 323.18 134.97 325.08 131.58 C 326.99 128.18 327.07 124.31 326.67 120.59 C 326.26 116.88 324.78 112.88 322.64 109.27 C 320.50 105.67 317.90 102.01 313.82 98.98 C 309.73 95.94 303.61 92.82 298.12 91.08 C 292.64 89.35 287.82 88.36 280.90 88.57 C 273.97 88.79 264.55 89.62 256.58 92.36 C 248.62 95.11 240.07 98.98 233.10 105.04 C 226.13 111.10 219.30 119.89 214.77 128.71 C 210.23 137.54 207.50 147.91 205.89 157.97 C 204.28 168.02 203.76 179.43 205.08 189.06 C 206.41 198.69 208.79 207.27 213.83 215.75 C 218.88 224.22 227.75 234.35 235.37 239.90 C 242.99 245.45 252.12 247.84 259.56 249.02 C 267.00 250.20 273.44 249.37 280.00 246.98 C 286.56 244.58 294.93 240.64 298.92 234.67 C 302.91 228.70 304.17 218.22 303.95 211.16 C 303.74 204.09 301.94 197.53 297.63 192.28 C 293.32 187.03 285.26 182.45 278.09 179.67 C 270.91 176.89 262.44 175.85 254.59 175.58 C 246.75 175.31 238.29 175.47 231.01 178.03 C 223.72 180.60 216.13 185.40 210.90 190.96 C 205.68 196.53 202.40 203.66 199.65 211.42 C 196.90 219.17 194.71 228.60 194.41 237.47 C 194.11 246.34 195.76 256.61 197.85 264.65 C 199.95 272.69 202.73 279.24 206.97 285.72 C 211.21 292.20 217.84 298.48 223.29 303.54 C 228.74 308.59 233.34 312.77 239.69 316.04 C 246.03 319.32 253.99 321.99 261.37 323.21 C 268.75 324.42 276.96 324.87 283.97 323.31 C 290.99 321.75 296.90 317.17 303.47 313.85 C 310.03 310.54 316.90 307.29 323.35 303.44 C 329.80 299.59 336.47 294.60 342.18 290.76 C 347.88 286.91 352.47 282.85 357.58 280.36 C 362.70 277.87 367.55 276.95 372.86 275.83 C 378.16 274.71 384.77 273.86 389.42 273.65 C 394.06 273.44 397.42 272.62 400.73 274.59 C 404.03 276.57 406.80 281.56 409.26 285.49 C 411.72 289.43 414.13 293.94 415.48 298.19 C 416.82 302.45 416.77 306.83 417.34 311.03 C 417.91 315.22 417.98 319.37 418.90 323.35 C 419.82 327.34 420.75 332.28 422.85 334.94 C 424.95 337.59 428.55 338.58 431.49 339.29 C 434.42 340.00 437.49 340.86 440.45 339.18 C 443.40 337.49 446.71 333.10 449.19 329.18 C 451.68 325.27 453.76 320.08 455.34 315.68 C 456.92 311.29 457.90 307.50 458.68 302.81 C 459.46 298.12 459.05 292.45 460.03 287.55 C 461.02 282.65 462.99 277.71 464.60 273.41 C 466.20 269.12 468.02 265.58 469.65 261.77 C 471.28 257.96 472.79 254.13 474.40 250.56 C 476.00 246.98 477.91 243.32 479.30 240.33 C 480.68 237.33 480.52 233.59 482.72 232.61 C 484.92 231.64 490.09 232.41 492.49 234.48 C 494.90 236.54 496.03 240.99 497.16 244.98 C 498.29 248.98 499.53 252.55 499.27 258.45 C 499.01 264.34 498.34 273.01 495.60 280.36 C 492.85 287.70 487.93 295.46 482.82 302.52 C 477.70 309.59 472.14 316.47 464.91 322.73 C 457.67 328.98 446.89 334.60 439.41 340.06 C 431.93 345.53 426.42 350.79 420.05 355.53 C 413.68 360.26 406.63 363.96 401.19 368.47 C 395.76 372.97 391.23 378.23 387.44 382.56 C 383.65 386.88 381.29 391.00 378.48 394.39 C 375.66 397.78 372.26 399.21 370.53 402.89 C 368.80 406.56 367.73 413.18 368.10 416.41 C 368.47 419.65 371.05 421.48 372.74 422.31 C 374.43 423.15 375.45 421.87 378.25 421.43 C 381.06 420.99 385.15 422.22 389.55 419.68 C 393.95 417.14 400.32 411.11 404.65 406.20 C 408.99 401.29 412.73 396.63 415.56 390.24 C 418.39 383.85 420.70 376.02 421.64 367.86 C 422.57 359.71 422.27 350.12 421.18 341.29 C 420.08 332.45 418.84 323.32 415.07 314.83 C 411.29 306.33 405.74 298.17 398.53 290.31 C 391.32 282.44 380.85 272.52 371.82 267.64 C 362.79 262.76 353.88 262.56 344.34 261.01 C 334.80 259.46 323.65 257.32 314.55 258.34 C 305.46 259.36 296.58 262.68 289.77 267.11 C 282.96 271.55 276.84 278.82 273.69 284.94 C 270.54 291.05 270.63 297.10 270.87 303.78 C 271.12 310.46 272.13 319.09 275.16 325.00 C 278.18 330.90 283.85 336.05 289.04 339.18 C 294.23 342.32 299.90 344.08 306.30 343.80 C 312.70 343.51 321.08 340.06 327.44 337.49 C 333.80 334.92 338.90 332.30 344.45 328.36 C 350.00 324.42 356.30 319.24 360.72 313.86 C 365.14 308.49 369.01 302.80 370.97 296.10 C 372.93 289.41 373.08 281.44 372.49 273.69 C 371.90 265.94 370.88 257.01 367.44 249.61 C 364.00 242.21 358.56 235.19 351.84 229.30 C 345.12 223.40 335.47 217.84 327.12 214.26 C 318.77 210.68 310.53 208.14 301.77 207.82 C 293.01 207.49 283.11 209.15 274.55 212.32 C 266.00 215.50 256.52 220.72 250.42 226.87 C 244.31 233.02 240.98 242.04 237.91 249.24 C 234.85 256.44 232.09 262.73 232.03 270.08 C 231.98 277.43 233.75 286.64 237.57 293.33 C 241.39 300.02 247.41 307.50 254.95 310.23 C 262.49 312.96 275.00 311.76 282.83 309.70 C 290.66 307.63 297.43 303.21 301.93 297.85 C 306.42 292.49 308.18 284.55 309.80 277.55 C 311.42 270.56 313.10 262.97 311.67 255.88 C 310.25 248.78 306.04 241.73 301.26 234.98 C 296.47 228.22 289.01 219.77 282.95 215.34 C 276.88 210.92 271.58 209.15 264.84 208.42 C 258.10 207.68 250.29 209.57 242.50 210.95 C 234.72 212.33 225.06 213.12 218.13 216.69 C 211.21 220.25 205.87 226.57 200.95 232.34 C 196.04 238.10 192.12 245.35 188.63 251.27 C 185.14 257.19 183.03 262.40 180.02 267.84 C 177.00 273.29 173.27 278.10 170.54 283.94 C 167.80 289.79 165.50 297.09 163.59 302.93 C 161.67 308.76 161.73 314.15 159.04 318.94 C 156.34 323.73 151.06 328.02 147.42 331.68 C 143.78 335.34 139.92 337.64 137.20 340.91 C 134.47 344.17 132.63 347.54 131.08 351.26 C 129.52 354.97 128.28 358.67 127.86 363.20 C 127.44 367.73 127.84 373.12 128.54 378.45 C 129.24 383.77 129.43 390.34 132.06 395.14 C 134.69 399.93 139.80 403.40 144.34 407.22 C 148.88 411.04 154.42 415.10 159.32 418.04 C 164.21 420.98 168.50 422.23 173.71 424.85 C 178.92 427.47 185.53 431.55 190.59 433.75 C 195.65 435.94 199.53 436.07 204.06 438.02 C 208.59 439.98 215.11 442.54 217.77 445.47 C 220.44 448.41 219.43 452.56 220.06 455.61 C 220.70 458.66 222.36 461.52 221.60 463.79 C 220.84 466.05 219.34 468.55 215.51 469.20 C 211.69 469.85 204.59 469.49 198.66 467.69 C 192.73 465.89 185.53 461.93 179.94 458.40 C 174.35 454.88 170.35 452.80 165.12 446.55 C 159.89 440.29 152.21 430.30 148.55 420.88 C 144.89 411.46 143.46 400.48 143.17 390.03 C 142.88 379.57 144.40 368.20 146.82 358.15 C 149.25 348.10 153.43 339.03 157.71 329.73 C 161.99 320.42 166.93 310.83 172.50 302.30 C 178.08 293.77 185.28 286.03 191.15 278.56 C 197.02 271.09 202.59 264.67 207.71 257.48 C 212.83 250.30 218.03 242.33 221.88 235.44 C 225.72 228.56 228.96 223.13 230.77 216.17 C 232.59 209.21 232.70 200.81 232.76 193.70 C 232.82 186.58 232.73 179.03 231.12 173.48 C 229.51 167.92 226.34 164.40 223.12 160.35 C 219.90 156.30 216.88 152.07 211.80 149.18 C 206.72 146.29 198.75 143.26 192.62 142.99 C 186.49 142.73 180.98 145.46 175.01 147.59 C 169.04 149.72 162.30 151.57 156.79 155.78 C 151.28 159.99 146.07 167.14 141.94 172.83 C 137.80 178.52 134.87 183.71 131.96 189.93 C 129.06 196.14 125.84 202.74 124.48 210.13 C 123.13 217.51 122.18 225.85 123.82 234.25 C 125.47 242.64 130.90 252.24 134.37 260.48 C 137.83 268.72 140.23 276.47 144.62 283.71 C 149.02 290.94 154.69 297.94 160.73 303.89 C 166.76 309.84 174.48 314.89 180.85 319.43 C 187.22 323.96 192.73 326.63 198.92 331.09 C 205.12 335.55 211.93 340.96 218.01 346.17 C 224.09 351.37 230.95 357.02 235.39 362.32 C 239.83 367.62 243.13 373.36 244.63 377.95 C 246.12 382.54 244.20 385.92 244.35 389.86 C 244.51 393.81 246.31 397.82 245.55 401.62 C 244.79 405.43 242.34 409.59 239.81 412.70 C 237.27 415.81 233.09 417.58 230.34 420.30 C 227.60 423.02 225.58 425.75 223.33 429.03 C 221.08 432.31 218.32 436.64 216.85 439.96 C 215.38 443.29 214.00 446.74 214.50 448.98 C 215.01 451.21 217.54 451.68 219.88 453.38 C 222.22 455.08 224.81 457.23 228.57 459.16 C 232.32 461.10 237.32 463.97 242.40 464.99 C 247.48 466.01 252.78 465.78 259.03 465.27 C 265.28 464.76 273.17 463.66 279.91 461.94 C 286.65 460.23 293.31 456.94 299.50 454.97 C 305.68 453.01 311.07 451.58 317.02 450.16 C 322.96 448.74 329.94 446.96 335.16 446.44 C 340.39 445.93 344.76 447.00 348.39 447.07 C 352.01 447.13 354.05 446.43 356.90 446.85 C 359.74 447.26 362.50 449.40 365.46 449.58 C 368.42 449.76 371.97 448.46 374.65 447.92 C 377.34 447.39 378.63 447.17 381.57 446.37 C 384.52 445.58 388.58 444.49 392.34 443.17 C 396.10 441.84 400.40 441.63 404.13 438.43 C 407.86 435.23 410.85 429.64 414.73 423.98 C 418.61 418.31 424.15 411.12 427.39 404.46 C 430.64 397.81 432.95 392.55 434.20 384.04 C 435.45 375.53 436.15 363.19 434.89 353.40 C 433.64 343.61 430.66 334.88 426.65 325.30 C 422.64 315.72 417.47 304.75 410.83 295.91 C 404.18 287.08 396.85 278.70 386.79 272.28 C 376.74 265.86 361.53 260.09 350.49 257.41 C 339.46 254.72 329.77 255.14 320.58 256.16 C 311.39 257.17 303.53 260.40 295.33 263.51 C 287.14 266.62 277.87 270.32 271.40 274.81 C 264.94 279.30 259.73 284.35 256.52 290.44 C 253.31 296.53 251.86 304.71 252.13 311.34 C 252.40 317.98 254.75 325.06 258.15 330.27 C 261.54 335.49 267.65 338.84 272.50 342.63 C 277.36 346.43 281.67 351.30 287.26 353.03 C 292.86 354.76 300.06 353.23 306.07 353.00 C 312.07 352.77 317.74 352.96 323.30 351.66 C 328.85 350.36 333.52 347.32 339.40 345.20 C 345.28 343.07 352.80 340.78 358.58 338.92 C 364.36 337.05 369.40 334.87 374.08 333.99 C 378.76 333.11 382.37 334.21 386.67 333.64 C 390.98 333.07 395.69 330.20 399.92 330.57 C 404.14 330.95 408.52 334.53 412.02 335.89 C 415.52 337.25 418.99 335.96 420.92 338.75 C 422.85 341.54 423.44 348.56 423.60 352.62 C 423.75 356.69 422.90 359.19 421.85 363.13 C 420.79 367.07 419.56 371.71 417.27 376.27 C 414.97 380.84 412.83 386.11 408.08 390.50 C 403.33 394.89 395.59 398.93 388.78 402.61 C 381.98 406.30 374.03 409.19 367.25 412.62 C 360.46 416.05 354.63 420.06 348.06 423.18 C 341.49 426.29 333.57 428.51 327.82 431.30 C 322.07 434.09 317.90 436.87 313.58 439.92 C 309.25 442.97 305.20 447.01 301.87 449.61 C 298.54 452.22 295.58 453.33 293.57 455.56 C 291.57 457.78 289.52 460.22 289.82 462.96 C 290.13 465.71 292.86 470.29 295.37 472.03 C 297.89 473.78 300.83 473.75 304.92 473.45 C 309.01 473.14 314.37 472.34 319.89 470.22 C 325.41 468.10 332.36 464.59 338.05 460.73 C 343.74 456.88 349.40 453.31 354.03 447.09 C 358.66 440.87 362.49 432.55 365.85 423.40 C 369.20 414.24 372.90 403.38 374.17 392.16 C 375.44 380.95 375.91 367.20 373.47 356.12 C 371.02 345.04 365.08 335.07 359.50 325.69 C 353.93 316.32 347.30 306.53 340.00 299.88 C 332.69 293.24 324.12 289.07 315.67 285.82 C 307.23 282.58 298.23 280.67 289.32 280.41 C 280.42 280.14 269.45 281.87 262.25 284.21 C 255.04 286.55 250.96 289.90 246.11 294.45 C 241.25 299.00 235.96 305.73 233.13 311.53 C 230.30 317.32 229.67 323.46 229.13 329.24 C 228.59 335.02 228.64 340.97 229.89 346.23 C 231.15 351.48 233.04 356.84 236.65 360.78 C 240.26 364.71 246.15 366.67 251.55 369.82 C 256.95 372.98 263.32 377.29 269.06 379.71 C 274.81 382.14 279.87 383.31 286.00 384.39 C 292.14 385.47 299.98 385.43 305.88 386.21 C 311.77 387.00 316.14 387.64 321.39 389.10 C 326.63 390.56 333.55 392.58 337.37 394.99 C 341.18 397.40 343.10 400.23 344.26 403.54 C 345.43 406.86 345.13 410.91 344.36 414.88 C 343.59 418.86 342.93 423.50 339.65 427.39 C 336.36 431.28 329.25 435.32 324.64 438.23 C 320.02 441.13 317.33 442.38 311.93 444.82 C 306.53 447.26 298.32 450.73 292.21 452.84 C 286.10 454.96 280.16 455.57 275.28 457.51 C 270.40 459.45 266.36 462.19 262.91 464.49 C 259.46 466.79 256.62 468.75 254.60 471.30 C 252.57 473.86 251.69 477.14 250.75 479.82 C 249.82 482.51 249.54 485.12 248.99 487.42 C 248.45 489.72 248.10 491.92 247.48 493.61 C 246.87 495.30 246.21 496.25 245.31 497.56 C 244.42 498.87 244.62 500.06 242.11 501.46 C 239.59 502.86 234.49 504.55 230.23 505.98 C 225.97 507.41 221.45 510.07 216.55 510.03 C 211.66 510.00 206.15 508.39 200.86 505.79 C 195.57 503.20 190.61 499.13 184.80 494.46 C 178.99 489.79 171.65 484.16 166.01 477.76 C 160.38 471.36 155.31 464.28 150.98 456.08 C 146.65 447.87 143.34 438.93 140.05 428.53 C 136.76 418.12 132.52 404.66 131.23 393.65 C 129.95 382.64 130.58 372.54 132.35 362.46 C 134.12 352.39 137.83 342.92 141.85 333.18 C 145.87 323.44 150.89 313.02 156.48 304.05 C 162.06 295.07 169.54 287.00 175.36 279.33 C 181.17 271.65 186.41 265.46 191.37 258.00 C 196.33 250.54 201.16 241.75 205.11 234.59 C 209.06 227.42 211.93 221.54 215.07 214.99 C 218.20 208.44 222.09 201.69 223.92 195.30 C 225.75 188.92 225.70 181.75 226.06 176.67 C 226.42 171.58 226.71 169.37 226.07 164.81 C 225.43 160.24 222.40 154.03 222.23 149.28 C 222.05 144.52 222.81 140.59 225.01 136.30 C 227.22 132.02 231.28 127.37 235.46 123.57 C 239.64 119.78 244.60 116.25 250.09 113.52 C 255.57 110.79 261.93 107.73 268.37 107.17 C 274.81 106.61 282.39 108.00 288.74 110.18 C 295.09 112.37 300.41 117.27 306.48 120.29 C 312.56 123.30 318.78 125.62 325.17 128.27 C 331.57 130.92 339.14 134.35 344.86 136.19 C 350.58 138.03 355.13 138.87 359.51 139.31 C 363.88 139.75 367.50 139.73 371.11 138.84 C 374.72 137.94 378.47 136.13 381.16 133.95 C 383.85 131.76 386.50 129.82 387.26 125.74 C 388.03 121.67 387.38 114.30 385.73 109.50 C 384.08 104.71 380.66 100.75 377.38 96.97 C 374.10 93.19 371.25 89.67 366.05 86.82 C 360.84 83.96 352.90 81.36 346.14 79.84 C 339.38 78.31 333.69 76.71 325.48 77.65 C 317.28 78.59 306.35 81.25 296.88 85.47 C 287.41 89.69 277.14 96.27 268.66 102.97 C 260.17 109.68 252.29 117.02 245.99 125.68 C 239.69 134.34 234.59 145.69 230.86 154.96 C 227.13 164.23 224.54 172.02 223.60 181.30 C 222.66 190.57 224.05 201.08 225.22 210.62 C 226.39 220.16 227.24 230.08 230.63 238.55 C 234.01 247.01 240.46 254.77 245.56 261.41 C 250.66 268.04 255.97 272.89 261.20 278.36 C 266.44 283.83 271.93 289.07 276.97 294.23 C 282.00 299.40 287.16 304.58 291.42 309.37 C 295.67 314.17 298.70 318.03 302.50 323.01 C 306.30 327.98 311.78 333.49 314.22 339.23 C 316.66 344.98 316.57 351.49 317.16 357.48 C 317.75 363.47 318.74 370.00 317.74 375.15 C 316.75 380.31 313.48 383.62 311.21 388.41 C 308.94 393.20 306.66 399.51 304.12 403.90 C 301.58 408.29 298.11 411.07 295.96 414.76 C 293.81 418.46 291.95 421.98 291.19 426.06 C 290.44 430.14 290.89 435.65 291.43 439.23 C 291.96 442.80 291.97 444.84 294.40 447.52 C 296.83 450.19 301.26 453.84 306.02 455.27 C 310.77 456.70 317.16 457.19 322.93 456.08 C 328.71 454.97 334.79 451.73 340.66 448.62 C 346.53 445.51 352.84 442.33 358.15 437.42 C 363.46 432.50 368.34 425.61 372.50 419.14 C 376.67 412.66 380.31 405.96 383.15 398.57 C 385.99 391.18 386.81 382.35 389.53 374.80 C 392.25 367.26 397.42 360.76 399.45 353.31 C 401.47 345.86 400.74 337.30 401.67 330.08 C 402.60 322.87 403.27 317.32 405.03 310.01 C 406.80 302.69 409.41 292.37 412.27 286.19 C 415.13 280.02 418.74 276.07 422.19 272.96 C 425.64 269.84 429.62 268.40 432.96 267.49 C 436.31 266.58 439.59 266.25 442.26 267.51 C 444.92 268.77 446.69 272.21 448.97 275.05 C 451.24 277.89 453.99 280.94 455.91 284.56 C 457.84 288.17 458.87 293.29 460.52 296.75 C 462.17 300.21 464.15 303.37 465.82 305.33 C 467.49 307.28 468.62 308.02 470.53 308.47 C 472.45 308.92 475.19 308.43 477.31 308.00 C 479.43 307.58 481.61 308.43 483.24 305.92 C 484.86 303.42 485.68 297.45 487.08 292.96 C 488.49 288.48 491.15 284.49 491.66 279.02 C 492.18 273.55 491.28 266.73 490.16 260.15 C 489.05 253.57 489.04 247.26 484.99 239.53 C 480.94 231.79 473.81 220.99 465.88 213.75 C 457.96 206.51 447.31 200.78 437.46 196.09 C 427.60 191.39 417.00 188.70 406.75 185.55 C 396.51 182.41 386.81 178.40 375.98 177.22 C 365.16 176.04 352.56 177.66 341.80 178.47 C 331.03 179.28 321.22 180.80 311.41 182.11 C 301.61 183.41 292.20 184.90 282.96 186.31 C 273.73 187.71 263.61 190.37 255.98 190.53 C 248.35 190.70 242.91 188.96 237.19 187.29 C 231.48 185.62 226.46 183.26 221.72 180.52 C 216.98 177.79 212.68 174.17 208.75 170.86 C 204.82 167.55 201.94 163.83 198.13 160.67 C 194.32 157.51 189.11 154.78 185.91 151.92 C 182.72 149.07 181.53 146.50 178.96 143.56 C 176.38 140.62 174.32 136.90 170.46 134.30 C 166.59 131.70 160.57 128.06 155.74 127.94 C 150.91 127.83 146.35 130.58 141.48 133.61 C 136.60 136.63 130.44 140.75 126.47 146.10 C 122.51 151.46 120.13 158.83 117.68 165.74 C 115.23 172.65 111.48 179.14 111.77 187.55 C 112.05 195.96 116.16 206.78 119.38 216.17 C 122.60 225.56 125.59 235.93 131.07 243.89 C 136.55 251.85 144.23 258.58 152.28 263.92 C 160.33 269.27 170.00 273.09 179.35 275.96 C 188.70 278.83 198.98 281.04 208.39 281.14 C 217.80 281.24 227.61 279.89 235.81 276.54 C 244.02 273.20 251.59 266.27 257.61 261.06 C 263.62 255.85 268.71 251.79 271.90 245.30 C 275.09 238.81 277.30 229.32 276.73 222.13 C 276.15 214.95 272.69 207.51 268.45 202.18 C 264.22 196.84 258.28 191.50 251.33 190.11 C 244.37 188.72 233.95 190.65 226.72 193.83 C 219.49 197.02 212.88 203.36 207.96 209.21 C 203.03 215.07 199.80 221.30 197.17 228.94 C 194.54 236.58 192.58 246.26 192.16 255.04 C 191.75 263.82 192.83 274.17 194.68 281.62 C 196.53 289.06 199.57 293.44 203.28 299.71 C 206.98 305.97 211.39 313.87 216.90 319.21 C 222.40 324.55 229.89 327.85 236.29 331.74 C 242.69 335.62 249.53 339.74 255.29 342.51 C 261.06 345.29 265.35 345.43 270.86 348.38 C 276.37 351.33 283.30 356.73 288.35 360.20 C 293.41 363.67 297.03 366.22 301.21 369.20 C 305.39 372.18 310.27 374.83 313.44 378.06 C 316.62 381.30 318.42 384.57 320.27 388.63 C 322.11 392.69 323.47 398.13 324.52 402.44 C 325.57 406.75 325.64 410.86 326.56 414.48 C 327.47 418.10 328.74 421.76 330.02 424.17 C 331.30 426.57 332.24 427.24 334.22 428.94 C 336.21 430.63 339.14 432.94 341.90 434.33 C 344.67 435.72 347.15 436.90 350.83 437.30 C 354.51 437.70 359.30 438.33 364.01 436.72 C 368.72 435.11 374.60 431.09 379.09 427.64 C 383.58 424.19 386.99 421.76 390.96 416.01 C 394.92 410.25 399.74 400.91 402.88 393.09 C 406.02 385.28 408.51 377.97 409.79 369.10 C 411.08 360.24 412.04 349.67 410.61 339.89 C 409.19 330.10 405.70 319.45 401.24 310.39 C 396.79 301.33 391.75 292.58 383.89 285.54 C 376.02 278.50 364.63 271.88 354.03 268.16 C 343.43 264.44 331.05 263.53 320.29 263.24 C 309.53 262.96 298.80 264.61 289.50 266.44 C 280.20 268.28 271.73 270.94 264.48 274.27 C 257.24 277.60 250.55 280.99 246.03 286.43 C 241.52 291.87 239.43 300.47 237.41 306.91 C 235.39 313.34 233.88 319.08 233.92 325.05 C 233.96 331.02 236.00 337.00 237.66 342.73 C 239.32 348.47 240.29 354.83 243.86 359.44 C 247.43 364.06 253.82 367.24 259.09 370.44 C 264.35 373.64 269.64 376.52 275.45 378.66 C 281.26 380.81 287.89 383.23 293.95 383.32 C 300.01 383.41 305.51 381.91 311.79 379.23 C 318.06 376.54 325.70 371.76 331.59 367.21 C 337.48 362.65 342.01 357.82 347.15 351.91 C 352.29 346.00 358.73 339.43 362.40 331.74 C 366.07 324.06 368.72 314.00 369.16 305.79 C 369.59 297.58 367.43 290.52 365.01 282.50 C 362.58 274.48 358.90 265.40 354.59 257.70 C 350.28 249.99 345.19 242.40 339.15 236.29 C 333.11 230.17 325.37 225.74 318.34 220.99 C 311.32 216.25 304.72 210.25 297.00 207.82 C 289.29 205.39 280.15 205.53 272.04 206.39 C 263.94 207.26 255.38 209.60 248.38 212.99 C 241.38 216.37 235.63 220.82 230.05 226.70 C 224.48 232.58 217.81 241.20 214.92 248.26 C 212.03 255.32 212.78 261.78 212.72 269.07 C 212.66 276.35 213.21 284.72 214.56 291.97 C 215.90 299.21 217.83 305.75 220.78 312.53 C 223.72 319.32 229.59 326.49 232.24 332.67 C 234.89 338.86 235.10 343.65 236.67 349.62 C 238.24 355.60 240.86 363.05 241.67 368.55 C 242.48 374.04 242.54 378.42 241.52 382.59 C 240.51 386.75 238.11 389.76 235.57 393.54 C 233.03 397.32 228.62 401.79 226.30 405.25 C 223.97 408.72 223.45 411.27 221.61 414.32 C 219.76 417.36 217.06 420.52 215.21 423.52 C 213.35 426.52 211.69 428.94 210.46 432.32 C 209.23 435.70 207.70 440.51 207.83 443.80 C 207.96 447.08 209.82 449.16 211.23 452.04 C 212.65 454.91 213.66 457.93 216.31 461.04 C 218.95 464.15 223.18 468.70 227.11 470.69 C 231.03 472.68 235.21 472.22 239.87 472.99 C 244.54 473.75 250.89 473.87 255.10 475.26 C 259.31 476.66 261.86 479.51 265.13 481.35 C 268.39 483.18 272.36 484.32 274.69 486.28 C 277.01 488.24 278.98 490.43 279.07 493.09 C 279.17 495.74 278.45 500.64 275.27 502.20 C 272.08 503.77 265.24 502.38 259.96 502.47 C 254.68 502.57 249.42 503.64 243.59 502.77 C 237.76 501.91 231.11 500.26 224.98 497.26 C 218.86 494.27 213.43 489.75 206.83 484.78 C 200.23 479.81 191.62 474.82 185.39 467.45 C 179.16 460.08 172.65 450.82 169.45 440.55 C 166.25 430.27 167.32 417.41 166.18 405.81 C 165.03 394.22 161.73 381.78 162.58 370.98 C 163.43 360.18 167.82 350.76 171.29 341.02 C 174.77 331.28 179.79 321.73 183.44 312.54 C 187.09 303.34 190.01 294.35 193.18 285.85 C 196.36 277.34 199.66 269.60 202.51 261.49 C 205.36 253.38 208.50 245.24 210.28 237.18 C 212.05 229.13 213.12 220.66 213.18 213.16 C 213.24 205.67 211.37 198.61 210.65 192.22 C 209.92 185.83 209.51 180.22 208.84 174.82 C 208.16 169.41 208.00 164.69 206.58 159.80 C 205.15 154.92 202.65 149.85 200.27 145.50 C 197.89 141.15 194.89 136.69 192.30 133.70 C 189.72 130.71 186.54 130.17 184.76 127.56 C 182.99 124.96 182.03 121.45 181.64 118.05 C 181.25 114.64 181.56 110.47 182.42 107.14 C 183.28 103.81 184.17 101.69 186.81 98.06 C 189.44 94.43 193.84 88.78 198.23 85.38 C 202.62 81.98 207.36 79.05 213.16 77.66 C 218.97 76.27 225.83 75.75 233.06 77.05 C 240.30 78.35 248.65 81.62 256.55 85.44 C 264.45 89.26 272.83 92.77 280.47 99.97 C 288.12 107.18 297.43 118.84 302.42 128.66 C 307.40 138.48 309.71 149.00 310.38 158.89 C 311.06 168.79 309.17 179.28 306.47 188.03 C 303.76 196.78 299.34 204.64 294.15 211.38 C 288.95 218.12 282.00 224.83 275.30 228.47 C 268.60 232.11 260.32 232.75 253.96 233.21 C 247.60 233.68 242.60 233.26 237.15 231.25 C 231.69 229.24 225.51 225.63 221.23 221.18 C 216.95 216.73 214.71 209.44 211.47 204.56 C 208.22 199.68 205.03 195.88 201.75 191.89 C 198.46 187.91 194.68 184.34 191.77 180.64 C 188.87 176.94 188.07 172.16 184.32 169.69 C 180.58 167.21 174.75 166.34 169.32 165.79 C 163.89 165.25 157.47 165.30 151.75 166.42 C 146.03 167.54 140.54 169.94 134.98 172.52 C 129.42 175.10 123.01 179.34 118.40 181.90 C 113.80 184.46 110.79 186.30 107.34 187.86 C 103.90 189.43 100.73 191.26 97.75 191.30 C 94.77 191.35 92.13 189.38 89.48 188.14 C 86.83 186.91 83.60 185.38 81.85 183.91 C 80.10 182.44 79.64 182.57 78.98 179.33 C 78.32 176.09 77.56 169.30 77.87 164.47 C 78.18 159.64 79.12 155.27 80.85 150.35 C 82.58 145.44 84.60 139.59 88.26 135.01 C 91.92 130.44 97.36 126.55 102.83 122.90 C 108.30 119.25 114.04 115.83 121.07 113.12 C 128.10 110.42 136.05 107.73 145.02 106.69 C 154.00 105.65 165.65 105.80 174.93 106.89 C 184.20 107.98 191.84 111.10 200.65 113.24 C 209.46 115.37 218.94 118.54 227.77 119.69 C 236.60 120.84 245.29 120.12 253.61 120.12 C 261.93 120.13 271.11 120.98 277.71 119.69 C 284.31 118.41 288.86 114.97 293.23 112.42 C 297.60 109.86 301.85 106.94 303.91 104.36 C 305.97 101.78 306.20 99.98 305.60 96.92 C 304.99 93.86 302.11 89.56 300.29 86.01 C 298.46 82.45 296.89 79.00 294.64 75.59 C 292.40 72.18 288.80 68.88 286.81 65.54 C 284.83 62.20 284.33 58.53 282.73 55.55 C 281.13 52.57 278.03 49.69 277.21 47.66 C 276.39 45.63 277.53 45.31 277.81 43.34 C 278.10 41.36 277.91 38.06 278.92 35.81 C 279.94 33.56 282.21 31.18 283.90 29.84 C 285.59 28.50 286.95 28.25 289.08 27.76 C 291.21 27.27 293.17 27.20 296.69 26.90 C 300.21 26.60 304.84 25.23 310.20 25.95 C 315.56 26.68 322.88 28.33 328.83 31.27 C 334.79 34.20 340.59 39.45 345.93 43.55 C 351.27 47.66 355.97 51.34 360.85 55.90 C 365.73 60.46 370.87 65.49 375.19 70.93 C 379.51 76.36 382.92 82.34 386.75 88.51 C 390.58 94.69 394.80 101.96 398.18 107.96 C 401.56 113.96 403.98 120.05 407.03 124.51 C 410.07 128.96 413.11 131.08 416.44 134.69 C 419.77 138.30 423.19 142.86 427.00 146.18 C 430.80 149.51 436.13 152.79 439.29 154.63 C 442.44 156.46 443.53 156.21 445.94 157.17 C 448.35 158.14 451.46 158.48 453.77 160.41 C 456.07 162.34 457.60 165.25 459.76 168.76 C 461.92 172.27 464.72 176.22 466.74 181.46 C 468.75 186.70 471.13 193.63 471.83 200.21 C 472.53 206.80 471.82 214.31 470.92 220.98 C 470.02 227.64 468.07 233.05 466.42 240.20 C 464.77 247.35 463.08 256.68 461.02 263.89 C 458.96 271.11 456.78 277.16 454.05 283.50 C 451.32 289.84 446.89 295.98 444.66 301.92 C 442.42 307.85 441.12 313.86 440.65 319.10 C 440.17 324.34 440.48 329.52 441.82 333.36 C 443.17 337.21 446.28 340.42 448.71 342.16 C 451.15 343.90 454.21 343.85 456.43 343.81 C 458.66 343.78 459.61 342.63 462.07 341.92 C 464.54 341.22 469.12 340.24 471.22 339.57 C 473.32 338.90 472.96 337.50 474.68 337.93 C 476.41 338.36 479.56 340.74 481.57 342.16 C 483.58 343.57 485.40 344.66 486.75 346.42 C 488.10 348.19 488.94 351.18 489.67 352.76 C 490.40 354.34 490.62 354.31 491.13 355.91 C 491.65 357.51 492.06 360.64 492.76 362.36 C 493.47 364.07 494.18 364.97 495.37 366.20 C 496.55 367.42 498.57 368.33 499.88 369.70 C 501.19 371.08 502.07 374.14 503.21 374.47 C 504.34 374.79 505.32 372.68 506.69 371.67 C 508.07 370.65 512.77 370.50 511.45 368.38 C 510.13 366.26 507.95 361.94 498.78 358.97 C 489.60 356.00 469.78 352.32 456.42 350.56 C 443.06 348.79 430.58 348.35 418.63 348.38 C 406.68 348.41 395.11 348.46 384.74 350.73 C 374.38 353.00 364.25 358.15 356.43 362.00 C 348.61 365.84 342.19 369.08 337.83 373.81 C 333.47 378.53 331.32 385.65 330.28 390.37 C 329.24 395.09 330.50 398.57 331.59 402.14 C 332.69 405.71 334.57 409.54 336.84 411.79 C 339.11 414.05 341.88 414.66 345.21 415.69 C 348.53 416.72 352.58 417.00 356.79 417.95 C 360.99 418.91 366.23 421.10 370.43 421.43 C 374.63 421.75 378.48 420.11 381.98 419.91 C 385.49 419.71 388.66 419.82 391.47 420.21 C 394.27 420.59 396.08 421.45 398.83 422.21 C 401.57 422.97 405.96 422.90 407.94 424.75 C 409.93 426.60 411.32 430.63 410.75 433.32 C 410.19 436.01 407.58 438.48 404.54 440.90 C 401.50 443.32 397.74 445.46 392.51 447.85 C 387.28 450.23 380.53 453.50 373.15 455.22 C 365.78 456.93 356.96 458.77 348.24 458.13 C 339.52 457.48 330.12 453.81 320.81 451.36 C 311.49 448.91 300.97 446.34 292.34 443.43 C 283.70 440.53 276.48 436.98 269.00 433.93 C 261.52 430.88 254.74 428.07 247.47 425.16 C 240.19 422.24 232.83 418.95 225.36 416.47 C 217.88 413.98 209.66 412.06 202.61 410.23 C 195.56 408.41 189.77 406.72 183.07 405.52 C 176.36 404.32 168.76 404.82 162.39 403.05 C 156.02 401.27 149.86 397.13 144.85 394.87 C 139.84 392.61 136.69 391.80 132.33 389.49 C 127.97 387.17 122.70 384.46 118.69 380.99 C 114.69 377.52 111.50 372.79 108.31 368.67 C 105.12 364.54 102.83 360.89 99.53 356.24 C 96.23 351.58 91.64 347.08 88.52 340.74 C 85.39 334.40 82.33 325.67 80.79 318.22 C 79.25 310.78 79.44 304.24 79.26 296.06 C 79.07 287.88 77.03 277.16 79.67 269.13 C 82.30 261.09 88.87 254.55 95.07 247.83 C 101.27 241.10 108.58 234.45 116.88 228.77 C 125.18 223.10 135.21 216.57 144.86 213.79 C 154.52 211.00 164.65 211.20 174.81 212.07 C 184.97 212.94 196.63 215.43 205.83 218.99 C 215.04 222.54 223.13 227.42 230.05 233.40 C 236.97 239.38 243.11 247.83 247.36 254.85 C 251.61 261.88 254.86 268.59 255.56 275.55 C 256.27 282.51 253.24 289.60 251.59 296.63 C 249.94 303.65 248.57 311.67 245.65 317.70 C 242.72 323.73 238.11 328.91 234.03 332.80 C 229.96 336.68 226.12 338.56 221.21 341.01 C 216.29 343.47 209.93 346.20 204.55 347.53 C 199.17 348.86 194.62 349.87 188.95 348.97 C 183.27 348.08 176.45 345.07 170.49 342.16 C 164.54 339.26 157.75 335.31 153.20 331.55 C 148.65 327.78 146.32 325.10 143.20 319.58 C 140.08 314.06 136.67 305.67 134.45 298.42 C 132.23 291.17 131.64 283.98 129.90 276.09 C 128.16 268.20 125.41 258.34 123.99 251.09 C 122.57 243.84 122.81 238.34 121.37 232.59 C 119.92 226.85 117.38 221.28 115.32 216.61 C 113.26 211.93 111.23 207.85 108.99 204.55 C 106.74 201.25 105.08 198.96 101.84 196.80 C 98.60 194.64 93.41 192.45 89.54 191.59 C 85.67 190.73 81.90 190.57 78.61 191.64 C 75.32 192.70 72.51 195.04 69.80 197.99 C 67.10 200.93 64.05 205.23 62.38 209.30 C 60.71 213.36 59.76 216.30 59.77 222.36 C 59.79 228.42 61.06 237.89 62.48 245.66 C 63.91 253.43 65.17 261.58 68.34 268.98 C 71.50 276.37 75.81 283.38 81.48 290.01 C 87.14 296.64 95.48 303.33 102.32 308.74 C 109.16 314.16 115.52 317.91 122.51 322.50 C 129.49 327.10 137.17 331.79 144.23 336.29 C 151.28 340.80 159.09 345.06 164.84 349.55 C 170.58 354.03 173.95 358.40 178.68 363.21 C 183.42 368.03 189.43 373.15 193.25 378.43 C 197.06 383.71 199.33 390.30 201.60 394.88 C 203.87 399.45 204.75 401.80 206.84 405.87 C 208.94 409.93 212.22 414.89 214.18 419.27 C 216.14 423.64 215.91 428.37 218.59 432.11 C 221.27 435.85 226.16 438.86 230.26 441.71 C 234.36 444.55 237.88 447.59 243.21 449.18 C 248.54 450.77 255.99 451.28 262.26 451.25 C 268.53 451.22 274.24 450.32 280.83 449.00 C 287.41 447.68 294.98 446.15 301.78 443.33 C 308.57 440.51 315.33 436.93 321.59 432.07 C 327.85 427.21 334.92 421.59 339.35 414.17 C 343.78 406.75 346.36 396.76 348.17 387.56 C 349.98 378.35 351.41 368.54 350.21 358.93 C 349.01 349.33 344.89 339.80 340.97 329.92 C 337.05 320.04 332.18 308.65 326.69 299.65 C 321.20 290.65 313.58 282.95 308.05 275.91 C 302.52 268.87 299.69 263.69 293.50 257.41 C 287.32 251.13 278.29 244.03 270.96 238.23 C 263.63 232.44 255.48 228.23 249.55 222.64 C 243.62 217.05 239.05 210.52 235.40 204.69 C 231.74 198.87 229.30 193.36 227.63 187.71 C 225.96 182.07 225.21 176.11 225.40 170.83 C 225.60 165.56 227.09 160.59 228.81 156.09 C 230.53 151.59 233.82 148.73 235.73 143.85 C 237.64 138.97 239.22 132.34 240.27 126.79 C 241.32 121.24 241.67 115.16 242.03 110.54 C 242.38 105.93 242.80 102.34 242.40 99.11 C 242.01 95.89 241.15 93.93 239.66 91.18 C 238.17 88.44 236.44 84.77 233.46 82.64 C 230.48 80.51 226.30 78.81 221.80 78.40 C 217.31 77.98 212.08 78.38 206.48 80.15 C 200.88 81.92 194.29 86.05 188.21 89.01 C 182.12 91.98 175.97 94.41 169.97 97.94 C 163.97 101.46 157.12 104.71 152.22 110.16 C 147.32 115.61 144.81 119.08 140.57 130.64 C 136.34 142.19 129.10 171.34 126.81 179.48" fill="none" stroke="#fff" stroke-width="4.48" stroke-opacity="1" stroke-linecap="round" stroke-linejoin="round"/>
  </g>
</svg>