<?xml version="1.0" encoding="UTF-8"?>
<svg xmlns="http://www.w3.org/2000/svg" width="512" height="512" viewBox="0 0 512 512">
  <rect width="100%" height="100%" fill="#000"/>
  <g>
    <path d="M 256.00 256.00 C 254.28 258.22 249.88 265.08 245.66 269.32 C 241.43 273.55 235.55 278.55 230.67 281.43 C 225.78 284.31 221.50 285.73 216.35 286.59 C 211.19 287.45 204.52 286.70 199.75 286.60 C 194.98 286.51 191.88 287.20 187.70 286.00 C 183.53 284.80 178.50 281.99 174.68 279.42 C 170.87 276.86 168.08 274.02 164.83 270.61 C 161.58 267.19 157.99 263.58 155.18 258.92 C 152.36 254.26 149.18 247.40 147.93 242.64 C 146.69 237.87 147.38 235.50 147.69 230.32 C 148.00 225.15 148.53 216.88 149.81 211.59 C 151.09 206.29 152.79 203.28 155.36 198.55 C 157.93 193.83 161.62 187.59 165.23 183.24 C 168.84 178.89 172.19 175.28 177.03 172.45 C 181.87 169.62 187.63 167.77 194.26 166.24 C 200.89 164.72 210.29 163.59 216.78 163.31 C 223.28 163.02 226.84 163.16 233.24 164.56 C 239.65 165.95 249.17 169.12 255.23 171.69 C 261.30 174.26 264.68 175.68 269.65 179.95 C 274.61 184.21 281.42 192.02 285.00 197.27 C 288.59 202.52 289.52 205.80 291.15 211.47 C 292.78 217.13 294.35 224.45 294.78 231.28 C 295.22 238.10 295.06 246.54 293.75 252.41 C 292.45 258.28 290.30 261.69 286.96 266.50 C 283.62 271.31 277.81 276.99 273.72 281.29 C 269.63 285.59 267.00 289.09 262.42 292.30 C 257.84 295.51 251.39 298.09 246.25 300.57 C 241.11 303.04 236.31 304.95 231.58 307.16 C 226.86 309.36 222.81 311.74 217.88 313.79 C 212.95 315.83 206.62 317.75 202.00 319.44 C 197.38 321.13 194.38 322.50 190.16 323.93 C 185.94 325.35 180.65 326.89 176.70 327.99 C 172.75 329.09 170.12 329.07 166.46 330.55 C 162.79 332.04 158.16 334.65 154.71 336.89 C 151.26 339.13 148.67 341.48 145.76 344.00 C 142.84 346.52 139.49 349.42 137.23 352.01 C 134.96 354.59 133.69 356.78 132.18 359.52 C 130.67 362.25 129.26 365.12 128.15 368.43 C 127.05 371.74 125.82 376.19 125.55 379.40 C 125.29 382.60 125.58 384.48 126.57 387.65 C 127.55 390.81 129.63 394.94 131.46 398.39 C 133.30 401.83 135.01 404.86 137.57 408.31 C 140.14 411.76 143.47 415.95 146.86 419.09 C 150.24 422.24 153.03 424.46 157.88 427.19 C 162.73 429.92 169.27 433.73 175.94 435.47 C 182.60 437.20 191.35 437.54 197.89 437.60 C 204.42 437.67 208.88 437.10 215.13 435.85 C 221.37 434.60 229.26 431.74 235.34 430.11 C 241.42 428.48 245.49 428.46 251.62 426.06 C 257.75 423.65 266.16 419.11 272.10 415.67 C 278.04 412.23 282.45 409.93 287.26 405.42 C 292.07 400.90 296.93 395.12 300.99 388.56 C 305.05 382.00 308.99 372.97 311.62 366.05 C 314.26 359.14 315.91 354.15 316.82 347.06 C 317.72 339.97 317.68 330.56 317.03 323.50 C 316.38 316.44 314.68 311.29 312.94 304.70 C 311.19 298.12 309.31 289.87 306.58 283.98 C 303.86 278.09 300.93 273.93 296.58 269.37 C 292.24 264.81 286.30 259.99 280.51 256.62 C 274.72 253.24 267.36 250.62 261.86 249.12 C 256.36 247.63 252.68 246.99 247.51 247.66 C 242.34 248.32 235.59 250.80 230.84 253.11 C 226.08 255.42 222.73 257.77 218.98 261.53 C 215.23 265.30 210.98 271.17 208.34 275.70 C 205.71 280.23 204.05 283.86 203.18 288.69 C 202.31 293.52 202.08 299.18 203.12 304.67 C 204.17 310.16 206.89 316.83 209.47 321.62 C 212.05 326.40 214.73 329.62 218.61 333.38 C 222.48 337.15 227.96 341.57 232.72 344.21 C 237.49 346.85 241.64 348.64 247.19 349.25 C 252.73 349.86 260.65 348.74 266.02 347.87 C 271.38 347.00 274.29 345.90 279.38 344.02 C 284.48 342.14 291.53 338.98 296.59 336.59 C 301.65 334.19 305.18 332.53 309.75 329.64 C 314.33 326.74 319.16 322.64 324.04 319.22 C 328.93 315.79 334.94 312.45 339.06 309.09 C 343.17 305.74 345.05 302.52 348.72 299.10 C 352.39 295.68 357.39 291.56 361.10 288.56 C 364.80 285.56 367.15 283.46 370.94 281.12 C 374.73 278.78 380.26 276.22 383.82 274.51 C 387.39 272.79 389.20 272.21 392.34 270.82 C 395.48 269.44 399.27 266.96 402.64 266.17 C 406.00 265.37 409.41 266.06 412.53 266.05 C 415.65 266.04 418.31 265.77 421.34 266.11 C 424.37 266.44 427.76 267.20 430.71 268.04 C 433.66 268.88 436.35 270.35 439.03 271.15 C 441.71 271.95 444.22 272.68 446.77 272.83 C 449.31 272.99 451.74 272.49 454.30 272.07 C 456.86 271.65 459.79 271.48 462.11 270.33 C 464.44 269.19 466.49 266.87 468.23 265.20 C 469.97 263.53 470.99 262.39 472.55 260.34 C 474.11 258.29 476.54 255.49 477.61 252.89 C 478.68 250.30 478.72 248.27 478.97 244.77 C 479.21 241.28 479.56 236.12 479.10 231.92 C 478.64 227.72 477.81 224.57 476.20 219.57 C 474.59 214.56 471.88 207.65 469.44 201.90 C 467.00 196.15 464.12 189.80 461.58 185.09 C 459.04 180.39 457.60 177.96 454.19 173.66 C 450.77 169.37 444.90 163.71 441.11 159.34 C 437.32 154.97 435.27 151.35 431.45 147.44 C 427.63 143.53 421.91 139.40 418.20 135.87 C 414.49 132.34 412.71 129.79 409.19 126.27 C 405.67 122.75 400.62 118.44 397.07 114.75 C 393.53 111.05 390.54 107.20 387.91 104.09 C 385.28 100.99 383.50 99.10 381.32 96.12 C 379.13 93.13 376.46 89.18 374.79 86.17 C 373.11 83.16 372.54 80.89 371.28 78.06 C 370.02 75.24 368.53 71.87 367.23 69.21 C 365.93 66.55 364.62 64.46 363.47 62.11 C 362.33 59.75 361.30 56.90 360.36 55.07 C 359.41 53.24 358.88 53.09 357.79 51.13 C 356.71 49.18 355.23 45.79 353.84 43.32 C 352.45 40.85 350.72 38.32 349.45 36.32 C 348.19 34.32 347.87 33.26 346.25 31.32 C 344.62 29.39 342.06 26.64 339.70 24.71 C 337.34 22.79 334.86 21.38 332.11 19.78 C 329.35 18.18 326.43 16.22 323.15 15.14 C 319.86 14.05 316.36 14.02 312.37 13.24 C 308.37 12.47 304.07 10.93 299.18 10.46 C 294.30 9.99 287.69 10.49 283.03 10.43 C 278.38 10.37 275.79 9.66 271.25 10.10 C 266.70 10.53 260.59 11.64 255.76 13.05 C 250.93 14.46 247.54 16.15 242.27 18.56 C 237.00 20.96 229.72 24.88 224.17 27.46 C 218.62 30.04 214.23 31.13 208.99 34.06 C 203.75 36.98 197.87 40.66 192.71 45.01 C 187.56 49.37 182.27 55.34 178.06 60.16 C 173.84 64.98 171.55 68.58 167.43 73.91 C 163.31 79.25 157.25 86.49 153.34 92.18 C 149.43 97.87 146.62 102.18 143.96 108.04 C 141.31 113.89 139.56 121.19 137.40 127.34 C 135.25 133.48 133.11 138.49 131.05 144.91 C 129.00 151.33 126.86 158.81 125.08 165.86 C 123.30 172.91 121.72 181.19 120.36 187.19 C 119.00 193.20 118.25 196.17 116.94 201.91 C 115.63 207.64 113.59 215.70 112.51 221.60 C 111.42 227.50 111.55 231.96 110.42 237.31 C 109.28 242.67 107.20 248.98 105.70 253.71 C 104.20 258.44 102.79 261.63 101.41 265.71 C 100.03 269.78 99.29 274.29 97.42 278.16 C 95.56 282.03 92.08 286.03 90.21 288.92 C 88.34 291.81 87.95 293.13 86.22 295.52 C 84.50 297.92 81.75 301.58 79.84 303.29 C 77.94 305.01 76.92 304.93 74.81 305.81 C 72.70 306.68 69.39 307.82 67.19 308.56 C 64.99 309.30 63.72 310.36 61.61 310.26 C 59.50 310.16 56.62 308.73 54.53 307.96 C 52.43 307.18 51.44 306.94 49.02 305.63 C 46.60 304.33 42.35 302.35 40.01 300.11 C 37.67 297.87 36.45 295.07 34.99 292.17 C 33.53 289.27 31.99 286.78 31.24 282.73 C 30.50 278.68 30.53 272.40 30.50 267.88 C 30.47 263.35 30.72 260.50 31.06 255.58 C 31.40 250.66 31.70 243.46 32.54 238.37 C 33.37 233.28 34.52 230.20 36.06 225.02 C 37.60 219.85 39.81 212.60 41.78 207.31 C 43.75 202.03 46.19 197.52 47.88 193.32 C 49.57 189.12 50.68 186.34 51.93 182.12 C 53.18 177.91 54.74 171.88 55.38 168.05 C 56.03 164.22 55.49 162.23 55.82 159.16 C 56.15 156.09 57.36 152.15 57.37 149.62 C 57.38 147.09 56.75 145.86 55.88 143.98 C 55.02 142.10 53.79 139.65 52.18 138.32 C 50.57 136.99 47.89 136.12 46.24 136.00 C 44.59 135.89 43.84 136.69 42.28 137.62 C 40.71 138.55 38.57 140.07 36.84 141.59 C 35.11 143.10 33.57 143.78 31.89 146.70 C 30.22 149.63 28.04 154.79 26.81 159.14 C 25.58 163.49 24.86 167.36 24.51 172.81 C 24.16 178.27 24.23 185.48 24.71 191.87 C 25.18 198.26 26.14 205.09 27.36 211.16 C 28.57 217.24 29.40 222.05 32.01 228.34 C 34.62 234.62 39.11 242.93 43.00 248.88 C 46.90 254.83 50.02 258.94 55.39 264.04 C 60.76 269.14 69.13 275.10 75.25 279.47 C 81.37 283.84 85.04 286.71 92.14 290.24 C 99.24 293.76 109.26 298.33 117.87 300.62 C 126.47 302.92 136.09 303.69 143.78 303.99 C 151.47 304.29 156.59 304.05 163.99 302.41 C 171.39 300.76 181.50 297.37 188.16 294.13 C 194.82 290.88 198.76 287.50 203.95 282.95 C 209.14 278.39 215.60 272.01 219.30 266.82 C 223.00 261.63 224.40 257.61 226.14 251.81 C 227.88 246.01 229.29 237.44 229.74 232.00 C 230.19 226.56 229.91 223.94 228.84 219.18 C 227.77 214.41 226.15 207.76 223.30 203.41 C 220.44 199.07 215.66 195.38 211.71 193.12 C 207.75 190.87 204.35 190.20 199.58 189.87 C 194.80 189.54 187.54 190.07 183.03 191.13 C 178.53 192.19 176.59 193.75 172.56 196.23 C 168.53 198.71 162.67 202.55 158.86 206.01 C 155.04 209.46 152.97 212.84 149.67 216.97 C 146.38 221.10 142.06 226.56 139.06 230.76 C 136.06 234.96 134.29 238.81 131.65 242.17 C 129.00 245.54 126.21 247.88 123.19 250.95 C 120.17 254.02 116.53 258.26 113.55 260.60 C 110.56 262.93 108.25 263.51 105.28 264.96 C 102.31 266.42 98.68 268.69 95.71 269.32 C 92.75 269.95 90.35 269.26 87.51 268.76 C 84.68 268.26 81.43 267.89 78.68 266.31 C 75.92 264.73 73.14 261.98 70.97 259.28 C 68.80 256.58 67.18 253.81 65.67 250.12 C 64.16 246.43 62.75 240.98 61.91 237.14 C 61.08 233.30 61.11 230.97 60.66 227.09 C 60.21 223.20 59.74 217.56 59.23 213.83 C 58.72 210.09 58.34 207.83 57.61 204.67 C 56.89 201.52 55.80 197.78 54.88 194.88 C 53.95 191.98 53.23 189.15 52.07 187.28 C 50.91 185.42 49.46 184.66 47.91 183.67 C 46.35 182.68 44.58 181.78 42.74 181.35 C 40.90 180.92 39.10 180.80 36.85 181.10 C 34.60 181.40 31.03 182.03 29.25 183.15 C 27.47 184.26 27.33 185.40 26.17 187.80 C 25.00 190.19 23.59 193.30 22.25 197.51 C 20.91 201.72 18.47 208.20 18.11 213.08 C 17.75 217.96 19.17 221.36 20.10 226.80 C 21.04 232.23 21.91 239.86 23.73 245.69 C 25.56 251.52 27.33 255.99 31.06 261.77 C 34.80 267.55 41.19 275.05 46.12 280.36 C 51.05 285.66 54.33 289.33 60.63 293.62 C 66.93 297.92 76.52 302.89 83.93 306.11 C 91.33 309.33 97.02 311.10 105.05 312.96 C 113.08 314.81 123.35 316.75 132.10 317.23 C 140.86 317.72 149.95 317.10 157.59 315.86 C 165.23 314.63 171.18 313.19 177.93 309.82 C 184.69 306.45 192.72 300.40 198.14 295.64 C 203.56 290.87 206.92 286.83 210.48 281.22 C 214.03 275.61 217.53 267.91 219.49 261.97 C 221.45 256.03 221.99 251.17 222.26 245.56 C 222.53 239.94 222.59 233.46 221.10 228.30 C 219.61 223.13 216.29 218.21 213.31 214.57 C 210.33 210.93 207.02 208.60 203.23 206.45 C 199.45 204.29 194.73 202.18 190.62 201.66 C 186.52 201.13 182.82 202.07 178.61 203.32 C 174.40 204.56 169.19 206.69 165.36 209.14 C 161.53 211.59 159.09 214.04 155.62 218.00 C 152.14 221.96 146.91 227.43 144.49 232.87 C 142.08 238.32 141.42 244.98 141.12 250.67 C 140.82 256.36 141.44 261.37 142.70 267.00 C 143.96 272.62 146.13 279.45 148.65 284.41 C 151.17 289.36 153.42 292.21 157.82 296.71 C 162.21 301.21 169.42 307.79 175.02 311.41 C 180.61 315.03 185.24 316.84 191.41 318.43 C 197.58 320.02 204.90 321.11 212.03 320.95 C 219.16 320.78 227.91 319.10 234.17 317.42 C 240.43 315.74 244.58 314.38 249.60 310.86 C 254.61 307.34 260.49 301.06 264.27 296.30 C 268.05 291.54 270.14 288.11 272.28 282.29 C 274.41 276.47 276.52 267.49 277.08 261.37 C 277.65 255.25 277.27 251.24 275.65 245.56 C 274.03 239.88 271.00 232.47 267.35 227.32 C 263.70 222.16 257.93 218.01 253.75 214.63 C 249.56 211.26 246.91 208.96 242.23 207.09 C 237.55 205.21 230.53 203.70 225.66 203.39 C 220.78 203.07 217.55 204.20 212.96 205.20 C 208.37 206.20 202.44 207.30 198.11 209.39 C 193.78 211.48 190.69 214.01 187.01 217.75 C 183.32 221.49 179.04 227.19 176.00 231.84 C 172.96 236.50 170.02 240.33 168.77 245.68 C 167.51 251.04 168.07 257.69 168.46 263.98 C 168.84 270.27 170.01 277.86 171.08 283.42 C 172.14 288.97 172.77 292.62 174.85 297.31 C 176.93 302.00 180.88 307.24 183.55 311.56 C 186.22 315.88 187.82 318.91 190.87 323.25 C 193.93 327.59 198.42 333.36 201.88 337.61 C 205.35 341.86 208.18 344.88 211.67 348.74 C 215.16 352.61 219.11 356.92 222.84 360.80 C 226.56 364.68 231.27 368.53 234.03 372.04 C 236.79 375.55 237.60 378.37 239.39 381.84 C 241.19 385.32 243.23 389.78 244.80 392.89 C 246.37 396.01 247.47 397.54 248.81 400.53 C 250.15 403.51 251.76 407.48 252.84 410.82 C 253.93 414.16 255.08 417.30 255.29 420.57 C 255.50 423.84 255.07 427.40 254.12 430.45 C 253.17 433.49 251.19 436.46 249.60 438.83 C 248.02 441.20 246.80 442.51 244.63 444.68 C 242.45 446.85 239.24 450.01 236.55 451.83 C 233.86 453.66 232.07 454.53 228.48 455.64 C 224.90 456.75 219.02 458.01 215.04 458.49 C 211.06 458.97 208.64 458.91 204.63 458.51 C 200.61 458.11 195.72 457.57 190.94 456.09 C 186.15 454.61 180.27 451.80 175.91 449.63 C 171.56 447.46 168.84 446.41 164.82 443.07 C 160.80 439.73 155.61 433.37 151.79 429.61 C 147.98 425.85 145.57 424.83 141.90 420.53 C 138.24 416.22 133.01 409.13 129.81 403.78 C 126.62 398.43 125.05 394.24 122.74 388.42 C 120.44 382.61 117.75 376.01 115.97 368.88 C 114.19 361.75 112.84 352.51 112.04 345.62 C 111.23 338.73 110.73 334.22 111.14 327.55 C 111.56 320.88 113.47 312.18 114.52 305.62 C 115.57 299.05 115.57 294.54 117.42 288.17 C 119.27 281.79 122.60 273.25 125.60 267.36 C 128.60 261.48 131.11 258.05 135.40 252.87 C 139.69 247.69 146.40 240.94 151.37 236.28 C 156.34 231.62 159.69 228.74 165.23 224.92 C 170.77 221.11 178.23 216.96 184.62 213.37 C 191.01 209.79 198.01 206.07 203.58 203.42 C 209.15 200.77 212.63 199.46 218.04 197.47 C 223.45 195.49 230.68 193.26 236.03 191.53 C 241.38 189.79 245.04 188.73 250.16 187.05 C 255.27 185.36 261.72 182.92 266.71 181.43 C 271.70 179.94 275.08 179.56 280.09 178.11 C 285.10 176.66 291.83 174.65 296.77 172.72 C 301.71 170.79 305.98 168.40 309.73 166.52 C 313.47 164.65 315.56 163.67 319.23 161.45 C 322.90 159.24 328.66 155.68 331.74 153.23 C 334.82 150.78 335.37 149.37 337.71 146.75 C 340.05 144.12 343.78 140.24 345.78 137.50 C 347.78 134.75 348.69 133.38 349.71 130.30 C 350.72 127.22 351.80 123.10 351.86 119.02 C 351.92 114.94 350.89 109.26 350.06 105.84 C 349.23 102.41 348.63 101.57 346.88 98.47 C 345.13 95.37 341.74 90.22 339.56 87.26 C 337.37 84.29 336.61 83.19 333.75 80.66 C 330.88 78.13 325.87 74.34 322.36 72.10 C 318.85 69.86 316.64 68.67 312.68 67.24 C 308.73 65.80 303.66 64.57 298.62 63.49 C 293.58 62.41 287.15 61.33 282.43 60.75 C 277.72 60.18 275.24 59.87 270.35 60.03 C 265.45 60.20 258.31 61.12 253.07 61.73 C 247.84 62.34 244.20 62.22 238.96 63.69 C 233.72 65.17 226.72 68.17 221.62 70.58 C 216.53 72.99 213.39 74.74 208.41 78.15 C 203.42 81.57 196.63 86.19 191.69 91.05 C 186.75 95.92 182.63 102.35 178.75 107.35 C 174.86 112.35 171.48 115.46 168.38 121.06 C 165.27 126.66 162.56 134.92 160.13 140.93 C 157.70 146.93 155.64 150.80 153.79 157.10 C 151.93 163.41 149.83 172.01 149.01 178.76 C 148.20 185.51 148.59 190.96 148.87 197.58 C 149.15 204.20 149.77 212.04 150.68 218.49 C 151.59 224.93 152.28 229.81 154.32 236.26 C 156.36 242.70 159.53 250.93 162.90 257.16 C 166.28 263.40 170.49 268.74 174.56 273.67 C 178.63 278.60 182.56 282.16 187.33 286.74 C 192.10 291.31 198.16 297.38 203.18 301.11 C 208.20 304.84 211.85 306.76 217.44 309.10 C 223.03 311.43 230.75 313.77 236.72 315.12 C 242.69 316.47 247.15 316.99 253.27 317.19 C 259.39 317.38 267.10 317.02 273.45 316.30 C 279.81 315.58 285.97 314.15 291.39 312.85 C 296.82 311.56 300.92 310.73 306.00 308.52 C 311.07 306.32 317.21 302.76 321.84 299.63 C 326.47 296.50 329.72 293.72 333.78 289.75 C 337.83 285.77 343.18 280.04 346.19 275.78 C 349.20 271.53 350.00 269.05 351.84 264.22 C 353.69 259.38 355.92 252.57 357.25 246.78 C 358.58 240.99 359.61 234.62 359.82 229.49 C 360.04 224.35 359.57 221.03 358.56 215.97 C 357.54 210.91 355.71 204.25 353.74 199.12 C 351.76 193.98 349.72 190.08 346.69 185.17 C 343.66 180.27 339.27 174.02 335.57 169.69 C 331.87 165.35 328.90 162.69 324.49 159.16 C 320.08 155.63 314.46 151.65 309.09 148.50 C 303.72 145.35 297.17 142.46 292.25 140.25 C 287.33 138.04 284.28 136.93 279.58 135.24 C 274.88 133.56 268.71 131.72 264.05 130.15 C 259.40 128.58 255.96 127.42 251.62 125.81 C 247.28 124.20 241.74 122.13 238.01 120.48 C 234.29 118.84 231.97 118.26 229.27 115.93 C 226.56 113.59 223.63 109.66 221.78 106.48 C 219.93 103.29 218.67 99.93 218.17 96.84 C 217.67 93.74 218.01 90.79 218.78 87.91 C 219.55 85.04 220.94 82.16 222.81 79.57 C 224.67 76.98 226.69 74.45 229.96 72.36 C 233.23 70.26 238.25 67.83 242.44 67.00 C 246.63 66.17 250.22 67.06 255.08 67.39 C 259.94 67.71 266.56 68.37 271.58 68.95 C 276.61 69.54 280.25 70.29 285.23 70.89 C 290.21 71.49 296.21 72.02 301.44 72.56 C 306.67 73.11 312.49 73.83 316.64 74.16 C 320.79 74.48 322.62 74.70 326.33 74.52 C 330.03 74.35 335.64 73.76 338.88 73.09 C 342.11 72.42 343.48 71.83 345.73 70.49 C 347.98 69.14 350.48 66.69 352.37 65.02 C 354.25 63.35 356.10 62.43 357.04 60.45 C 357.97 58.47 358.56 55.94 357.98 53.13 C 357.40 50.32 355.20 46.19 353.54 43.60 C 351.88 41.02 350.55 39.69 348.00 37.63 C 345.46 35.57 341.62 32.89 338.26 31.24 C 334.90 29.59 332.36 28.89 327.82 27.75 C 323.29 26.60 316.34 24.72 311.07 24.36 C 305.80 24.00 302.08 24.56 296.22 25.59 C 290.37 26.62 282.69 28.44 275.91 30.57 C 269.14 32.69 261.65 35.31 255.57 38.34 C 249.49 41.37 245.37 44.41 239.43 48.74 C 233.50 53.07 225.24 59.29 219.96 64.31 C 214.69 69.32 211.93 72.68 207.76 78.82 C 203.59 84.96 198.40 94.56 194.97 101.13 C 191.53 107.69 189.59 111.58 187.14 118.20 C 184.69 124.82 182.32 132.89 180.25 140.84 C 178.18 148.79 176.17 158.68 174.72 165.91 C 173.27 173.15 172.97 177.54 171.55 184.25 C 170.13 190.95 167.65 199.72 166.21 206.13 C 164.78 212.55 163.70 216.51 162.95 222.75 C 162.20 228.99 162.35 237.65 161.72 243.58 C 161.09 249.51 160.10 253.04 159.18 258.34 C 158.25 263.64 157.64 270.12 156.17 275.38 C 154.69 280.65 152.15 285.65 150.33 289.93 C 148.51 294.22 147.43 297.56 145.23 301.08 C 143.04 304.59 139.53 308.12 137.18 311.04 C 134.84 313.95 133.61 316.15 131.17 318.55 C 128.72 320.96 125.05 323.23 122.50 325.47 C 119.95 327.71 118.04 329.58 115.87 331.99 C 113.71 334.41 111.44 337.85 109.50 339.96 C 107.57 342.06 106.06 342.61 104.26 344.63 C 102.45 346.65 100.24 349.26 98.70 352.09 C 97.15 354.92 95.96 358.81 95.00 361.61 C 94.04 364.41 93.13 366.00 92.93 368.87 C 92.73 371.73 93.68 375.61 93.78 378.79 C 93.87 381.96 92.88 384.86 93.52 387.94 C 94.17 391.02 96.08 394.24 97.64 397.24 C 99.20 400.25 100.83 402.56 102.89 405.95 C 104.94 409.35 106.65 414.05 109.96 417.61 C 113.27 421.17 118.31 424.85 122.75 427.30 C 127.19 429.76 130.76 430.67 136.60 432.33 C 142.45 433.99 151.69 436.25 157.83 437.28 C 163.96 438.31 167.37 438.62 173.42 438.50 C 179.46 438.38 187.89 437.64 194.08 436.54 C 200.28 435.45 203.93 434.33 210.60 431.93 C 217.27 429.53 226.75 426.30 234.08 422.12 C 241.41 417.95 248.99 411.62 254.57 406.88 C 260.16 402.13 263.34 399.51 267.59 393.65 C 271.84 387.79 276.93 378.73 280.09 371.71 C 283.25 364.68 284.71 358.99 286.57 351.51 C 288.43 344.03 290.84 334.05 291.23 326.81 C 291.62 319.57 290.78 314.59 288.90 308.07 C 287.02 301.55 283.14 294.18 279.98 287.66 C 276.82 281.15 273.28 273.80 269.92 268.99 C 266.55 264.17 264.13 262.02 259.80 258.76 C 255.47 255.49 248.84 251.88 243.92 249.40 C 239.00 246.93 235.70 244.87 230.27 243.93 C 224.85 242.99 216.69 243.16 211.39 243.76 C 206.09 244.35 202.99 245.39 198.47 247.50 C 193.94 249.61 188.29 253.55 184.26 256.43 C 180.22 259.31 177.38 261.09 174.26 264.80 C 171.14 268.50 167.43 273.65 165.54 278.68 C 163.65 283.70 163.58 290.14 162.94 294.95 C 162.31 299.75 160.86 303.06 161.74 307.49 C 162.62 311.92 165.77 317.01 168.23 321.52 C 170.69 326.04 172.74 330.61 176.49 334.60 C 180.25 338.58 186.08 342.88 190.74 345.42 C 195.40 347.97 198.73 348.68 204.43 349.89 C 210.13 351.10 218.05 352.76 224.94 352.69 C 231.84 352.62 239.63 351.23 245.81 349.48 C 252.00 347.72 256.60 345.60 262.05 342.15 C 267.50 338.69 274.38 333.29 278.51 328.75 C 282.64 324.21 284.19 320.43 286.84 314.92 C 289.48 309.40 292.87 301.77 294.37 295.67 C 295.86 289.57 295.82 284.84 295.79 278.32 C 295.76 271.80 294.90 263.66 294.17 256.53 C 293.44 249.41 292.51 241.41 291.43 235.56 C 290.35 229.71 289.17 226.85 287.70 221.44 C 286.22 216.04 284.02 208.37 282.59 203.15 C 281.15 197.92 279.98 194.73 279.08 190.07 C 278.17 185.40 277.71 179.60 277.15 175.15 C 276.60 170.70 276.13 167.52 275.75 163.35 C 275.37 159.18 274.83 154.08 274.86 150.12 C 274.88 146.16 275.43 143.09 275.88 139.60 C 276.33 136.12 275.97 132.65 277.55 129.20 C 279.14 125.75 283.03 121.66 285.39 118.90 C 287.76 116.13 288.89 114.64 291.73 112.61 C 294.57 110.58 299.13 108.49 302.43 106.72 C 305.72 104.94 307.81 102.84 311.50 101.94 C 315.19 101.04 320.12 100.84 324.59 101.30 C 329.05 101.75 333.76 103.37 338.29 104.68 C 342.81 105.99 346.84 106.80 351.72 109.17 C 356.60 111.54 363.36 115.56 367.57 118.92 C 371.78 122.27 373.85 124.90 377.00 129.30 C 380.15 133.70 384.02 139.83 386.48 145.31 C 388.93 150.79 390.59 155.72 391.74 162.18 C 392.89 168.63 393.19 177.36 393.38 184.05 C 393.57 190.74 393.92 195.59 392.88 202.31 C 391.84 209.03 389.51 217.30 387.14 224.37 C 384.78 231.44 381.64 238.86 378.66 244.74 C 375.69 250.62 373.54 254.44 369.30 259.64 C 365.05 264.84 358.42 271.36 353.20 275.92 C 347.98 280.48 344.12 283.57 338.00 286.98 C 331.87 290.40 322.67 294.01 316.47 296.41 C 310.27 298.81 306.93 300.31 300.78 301.39 C 294.63 302.48 286.46 302.93 279.58 302.91 C 272.70 302.89 265.51 302.06 259.51 301.27 C 253.50 300.47 249.24 299.77 243.55 298.12 C 237.87 296.48 230.58 293.85 225.38 291.39 C 220.18 288.92 217.11 286.49 212.35 283.34 C 207.60 280.18 201.19 275.42 196.84 272.46 C 192.48 269.50 190.05 268.36 186.21 265.57 C 182.38 262.79 177.82 258.97 173.84 255.74 C 169.87 252.51 166.01 248.79 162.36 246.19 C 158.71 243.59 155.67 242.17 151.95 240.12 C 148.23 238.07 143.61 235.72 140.05 233.87 C 136.49 232.02 133.82 230.46 130.59 229.01 C 127.37 227.55 123.77 226.17 120.70 225.13 C 117.62 224.08 115.34 222.95 112.14 222.71 C 108.93 222.47 104.86 222.94 101.45 223.69 C 98.03 224.43 94.43 226.07 91.65 227.19 C 88.86 228.30 87.09 228.89 84.74 230.37 C 82.39 231.85 79.78 234.57 77.53 236.05 C 75.28 237.53 73.77 238.01 71.25 239.27 C 68.73 240.52 64.70 242.41 62.42 243.57 C 60.15 244.72 59.76 245.85 57.59 246.22 C 55.43 246.60 51.87 246.77 49.42 245.82 C 46.98 244.88 44.72 241.88 42.91 240.55 C 41.11 239.22 40.03 239.45 38.59 237.82 C 37.15 236.19 35.35 233.30 34.27 230.76 C 33.20 228.22 32.54 226.34 32.16 222.59 C 31.78 218.83 31.67 212.48 32.00 208.22 C 32.34 203.96 32.86 201.21 34.15 197.04 C 35.44 192.86 37.77 187.30 39.74 183.18 C 41.71 179.05 43.52 176.49 45.95 172.30 C 48.38 168.12 51.36 162.70 54.33 158.05 C 57.29 153.40 61.50 148.34 63.73 144.40 C 65.96 140.46 66.26 137.94 67.72 134.42 C 69.19 130.89 71.37 126.33 72.51 123.24 C 73.65 120.16 74.09 118.54 74.55 115.89 C 75.02 113.25 75.48 109.63 75.32 107.36 C 75.16 105.09 74.85 103.69 73.60 102.28 C 72.36 100.87 69.78 99.28 67.86 98.90 C 65.93 98.53 63.87 99.68 62.06 100.04 C 60.25 100.40 58.84 99.59 57.00 101.06 C 55.17 102.53 53.16 106.60 51.04 108.87 C 48.92 111.14 46.69 112.66 44.27 114.69 C 41.85 116.72 38.61 119.15 36.50 121.07 C 34.39 122.99 33.32 124.44 31.61 126.21 C 29.91 127.98 27.87 130.33 26.27 131.66 C 24.67 133.00 23.46 133.58 22.01 134.23 C 20.56 134.87 19.09 135.24 17.56 135.55 C 16.03 135.86 14.06 136.29 12.83 136.08 C 11.61 135.87 10.56 135.50 10.21 134.28 C 9.86 133.07 10.44 130.74 10.72 128.79 C 11.00 126.83 11.05 125.35 11.91 122.55 C 12.77 119.74 14.25 115.42 15.88 111.97 C 17.51 108.53 19.86 104.98 21.71 101.87 C 23.55 98.75 24.96 96.13 26.93 93.29 C 28.90 90.46 31.63 87.34 33.51 84.84 C 35.40 82.35 36.87 80.67 38.24 78.33 C 39.62 76.00 41.03 72.51 41.78 70.86 C 42.53 69.21 42.74 69.01 42.76 68.44 C 42.78 67.87 42.70 67.56 41.90 67.46 C 41.11 67.35 39.35 67.52 37.99 67.82 C 36.62 68.13 35.43 67.89 33.71 69.31 C 32.00 70.72 29.79 73.90 27.70 76.32 C 25.62 78.75 23.18 80.43 21.19 83.86 C 19.20 87.29 17.06 92.60 15.77 96.90 C 14.49 101.20 14.27 104.27 13.47 109.65 C 12.68 115.04 11.47 122.92 11.01 129.20 C 10.55 135.48 9.95 140.31 10.73 147.33 C 11.51 154.35 13.00 163.40 15.67 171.33 C 18.34 179.25 23.00 187.83 26.74 194.86 C 30.49 201.88 32.78 207.16 38.12 213.49 C 43.46 219.82 52.06 227.63 58.79 232.85 C 65.52 238.07 70.67 240.93 78.49 244.82 C 86.30 248.71 97.69 253.75 105.68 256.20 C 113.67 258.64 118.71 258.85 126.43 259.49 C 134.15 260.13 143.60 260.86 152.02 260.01 C 160.43 259.16 169.91 256.77 176.93 254.40 C 183.95 252.02 188.11 248.63 194.16 245.77 C 200.21 242.91 208.09 240.25 213.23 237.22 C 218.36 234.19 220.44 231.27 224.96 227.62 C 229.47 223.96 235.92 218.90 240.34 215.29 C 244.76 211.69 247.60 209.35 251.47 205.97 C 255.34 202.60 259.70 198.84 263.56 195.07 C 267.41 191.30 270.86 186.55 274.58 183.35 C 278.30 180.16 281.55 178.66 285.86 175.90 C 290.17 173.14 296.20 168.94 300.43 166.80 C 304.67 164.65 307.32 163.94 311.26 163.03 C 315.20 162.11 319.92 161.54 324.08 161.32 C 328.24 161.10 331.77 160.99 336.20 161.72 C 340.64 162.46 345.95 163.98 350.68 165.74 C 355.41 167.50 360.42 170.14 364.60 172.27 C 368.78 174.39 371.84 175.91 375.74 178.48 C 379.65 181.05 384.75 184.64 388.03 187.67 C 391.32 190.71 392.80 192.70 395.44 196.68 C 398.09 200.65 402.00 206.67 403.89 211.51 C 405.79 216.36 406.16 220.64 406.79 225.74 C 407.42 230.83 407.91 236.40 407.69 242.07 C 407.48 247.75 406.50 254.35 405.52 259.77 C 404.54 265.19 403.75 269.04 401.81 274.59 C 399.86 280.14 396.76 287.73 393.85 293.09 C 390.94 298.46 387.92 302.00 384.35 306.77 C 380.78 311.54 376.13 317.24 372.44 321.72 C 368.75 326.21 365.96 329.39 362.21 333.68 C 358.46 337.97 353.47 343.34 349.95 347.45 C 346.43 351.57 344.40 354.65 341.07 358.38 C 337.74 362.11 333.38 366.01 329.98 369.83 C 326.58 373.66 323.36 377.79 320.69 381.32 C 318.02 384.86 315.89 387.27 313.94 391.04 C 311.98 394.80 310.21 400.36 308.96 403.92 C 307.71 407.48 306.94 409.58 306.43 412.41 C 305.93 415.24 306.00 418.26 305.93 420.91 C 305.86 423.56 305.05 425.81 305.99 428.30 C 306.93 430.78 309.46 433.96 311.58 435.81 C 313.70 437.67 316.35 438.48 318.70 439.44 C 321.06 440.40 322.42 441.18 325.71 441.56 C 329.00 441.93 334.54 442.08 338.41 441.68 C 342.29 441.29 344.90 440.64 348.93 439.20 C 352.96 437.76 358.51 435.61 362.58 433.04 C 366.66 430.47 369.66 427.99 373.36 423.77 C 377.05 419.56 381.05 413.48 384.74 407.74 C 388.44 401.99 392.88 395.15 395.54 389.32 C 398.20 383.48 399.35 379.20 400.72 372.74 C 402.09 366.27 403.44 357.19 403.77 350.52 C 404.10 343.85 403.60 339.66 402.69 332.70 C 401.79 325.74 399.41 315.60 398.33 308.75 C 397.24 301.89 397.19 297.70 396.18 291.57 C 395.17 285.45 393.41 278.43 392.27 272.01 C 391.13 265.60 390.28 258.51 389.34 253.08 C 388.40 247.65 387.08 244.76 386.64 239.46 C 386.20 234.16 386.54 226.41 386.71 221.27 C 386.87 216.14 386.74 212.59 387.65 208.65 C 388.55 204.72 390.53 200.78 392.15 197.65 C 393.77 194.53 395.15 192.27 397.36 189.92 C 399.56 187.57 402.43 184.74 405.40 183.58 C 408.38 182.41 412.20 182.55 415.19 182.95 C 418.17 183.34 420.42 184.69 423.30 185.93 C 426.18 187.17 429.81 188.73 432.47 190.37 C 435.12 192.01 436.58 193.82 439.21 195.74 C 441.84 197.66 445.63 200.01 448.27 201.88 C 450.90 203.75 452.62 205.22 455.02 206.96 C 457.41 208.69 460.35 210.83 462.63 212.30 C 464.91 213.77 466.77 214.84 468.70 215.78 C 470.64 216.73 472.21 217.86 474.25 217.96 C 476.29 218.07 479.16 216.82 480.95 216.42 C 482.74 216.02 483.65 216.50 484.98 215.57 C 486.30 214.64 487.95 212.49 488.89 210.82 C 489.83 209.16 490.34 208.14 490.60 205.60 C 490.86 203.06 490.32 198.69 490.44 195.60 C 490.56 192.50 491.61 190.25 491.32 187.03 C 491.04 183.80 490.12 180.50 488.72 176.23 C 487.32 171.95 485.39 165.66 482.90 161.40 C 480.42 157.13 477.38 154.28 473.81 150.62 C 470.23 146.97 466.00 142.86 461.46 139.46 C 456.92 136.07 452.24 133.70 446.59 130.27 C 440.93 126.83 433.64 121.67 427.53 118.85 C 421.42 116.03 416.95 114.54 409.94 113.35 C 402.93 112.16 393.79 111.89 385.47 111.74 C 377.14 111.59 367.69 111.88 359.99 112.46 C 352.29 113.03 346.83 113.45 339.26 115.17 C 331.68 116.88 321.40 120.03 314.51 122.75 C 307.62 125.47 304.21 128.19 297.89 131.48 C 291.57 134.76 282.90 139.69 276.59 142.47 C 270.27 145.24 265.75 145.99 260.00 148.11 C 254.25 150.24 248.15 153.10 242.09 155.21 C 236.02 157.31 228.98 159.59 223.60 160.76 C 218.21 161.92 214.82 161.70 209.75 162.22 C 204.68 162.75 197.76 164.20 193.18 163.90 C 188.60 163.61 186.24 161.99 182.28 160.45 C 178.32 158.92 172.41 156.88 169.42 154.68 C 166.43 152.48 165.63 150.31 164.35 147.26 C 163.07 144.21 162.35 139.90 161.74 136.36 C 161.13 132.82 160.66 129.36 160.68 126.02 C 160.69 122.67 161.48 119.63 161.84 116.27 C 162.20 112.92 162.43 109.11 162.83 105.90 C 163.23 102.69 163.53 100.39 164.24 97.02 C 164.95 93.65 166.57 88.52 167.09 85.67 C 167.62 82.82 167.59 82.08 167.40 79.91 C 167.21 77.73 166.86 74.55 165.93 72.62 C 165.01 70.69 163.65 69.92 161.83 68.34 C 160.02 66.76 157.96 64.12 155.05 63.13 C 152.13 62.15 147.64 62.09 144.34 62.43 C 141.03 62.77 138.86 63.93 135.23 65.16 C 131.60 66.39 125.87 68.21 122.53 69.80 C 119.20 71.40 118.35 72.63 115.22 74.73 C 112.09 76.84 107.08 80.37 103.76 82.44 C 100.43 84.51 98.53 85.18 95.27 87.16 C 92.00 89.14 87.49 92.44 84.15 94.34 C 80.82 96.24 77.96 97.44 75.25 98.56 C 72.54 99.69 70.20 100.44 67.90 101.10 C 65.60 101.76 63.25 102.28 61.43 102.53 C 59.62 102.78 58.54 103.30 57.01 102.60 C 55.48 101.91 53.27 99.71 52.27 98.37 C 51.27 97.03 51.11 96.66 51.02 94.55 C 50.94 92.44 51.09 88.40 51.76 85.69 C 52.43 82.98 53.23 80.63 55.05 78.29 C 56.88 75.95 59.66 74.10 62.70 71.62 C 65.74 69.15 70.14 65.96 73.29 63.46 C 76.44 60.95 78.84 58.80 81.59 56.59 C 84.34 54.37 87.13 52.21 89.78 50.17 C 92.42 48.12 95.00 46.35 97.47 44.32 C 99.93 42.29 102.10 40.21 104.56 37.98 C 107.02 35.74 110.15 32.93 112.25 30.91 C 114.35 28.88 115.70 27.70 117.15 25.84 C 118.60 23.99 119.95 21.57 120.95 19.78 C 121.96 17.98 122.46 16.73 123.17 15.08 C 123.89 13.43 124.67 11.22 125.24 9.89 C 125.81 8.56 126.25 8.10 126.59 7.10 C 126.93 6.09 127.22 3.81 127.28 3.85 C 127.33 3.89 126.89 2.20 126.94 7.35 C 127.00 12.49 127.37 25.15 127.60 34.73 C 127.82 44.31 127.99 55.86 128.29 64.80 C 128.58 73.73 128.84 79.81 129.35 88.34 C 129.85 96.87 130.47 107.82 131.31 115.97 C 132.16 124.13 133.10 129.48 134.44 137.28 C 135.78 145.07 137.68 155.10 139.36 162.73 C 141.05 170.36 141.61 175.83 144.54 183.04 C 147.47 190.25 152.95 198.68 156.94 205.99 C 160.94 213.31 164.78 220.73 168.51 226.95 C 172.23 233.17 175.12 237.55 179.30 243.32 C 183.47 249.08 189.39 256.06 193.57 261.52 C 197.75 266.99 200.40 271.02 204.35 276.09 C 208.29 281.15 213.32 287.28 217.23 291.91 C 221.13 296.53 224.40 299.37 227.76 303.85 C 231.13 308.33 234.40 314.13 237.42 318.77 C 240.44 323.41 243.69 327.56 245.89 331.67 C 248.08 335.78 249.39 338.90 250.58 343.43 C 251.76 347.96 252.65 354.26 252.99 358.85 C 253.33 363.44 253.17 366.88 252.61 370.97 C 252.05 375.06 250.76 380.17 249.64 383.39 C 248.52 386.60 248.00 387.45 245.88 390.25 C 243.77 393.05 240.23 397.43 236.96 400.16 C 233.69 402.90 229.98 405.09 226.25 406.66 C 222.52 408.23 218.94 409.28 214.59 409.60 C 210.24 409.91 204.46 409.14 200.14 408.53 C 195.82 407.92 192.83 407.64 188.70 405.93 C 184.56 404.22 179.57 401.14 175.33 398.27 C 171.10 395.39 167.53 392.65 163.28 388.69 C 159.02 384.73 153.70 380.21 149.78 374.50 C 145.85 368.79 142.03 360.73 139.73 354.43 C 137.42 348.14 136.65 343.18 135.96 336.75 C 135.26 330.32 134.98 322.48 135.55 315.85 C 136.11 309.22 137.23 303.77 139.36 296.97 C 141.49 290.17 145.00 281.37 148.32 275.06 C 151.64 268.76 154.44 264.31 159.29 259.11 C 164.14 253.92 171.15 247.99 177.41 243.89 C 183.67 239.80 190.77 236.96 196.84 234.52 C 202.92 232.08 207.55 230.33 213.85 229.24 C 220.15 228.14 228.66 227.37 234.65 227.95 C 240.64 228.53 244.50 230.30 249.81 232.74 C 255.13 235.18 261.92 239.53 266.53 242.62 C 271.14 245.71 274.27 247.03 277.47 251.28 C 280.67 255.54 283.87 262.74 285.73 268.15 C 287.60 273.56 288.60 278.21 288.65 283.73 C 288.69 289.26 287.55 295.75 285.99 301.29 C 284.44 306.83 282.00 312.75 279.33 316.99 C 276.67 321.22 273.93 323.57 270.01 326.71 C 266.09 329.85 260.55 333.76 255.82 335.83 C 251.08 337.91 246.97 338.73 241.60 339.14 C 236.24 339.56 229.21 339.25 223.63 338.33 C 218.05 337.40 213.32 335.97 208.14 333.58 C 202.96 331.19 197.31 327.67 192.54 323.99 C 187.77 320.32 183.28 315.84 179.52 311.55 C 175.76 307.25 173.01 303.26 169.96 298.23 C 166.90 293.21 163.27 286.55 161.20 281.39 C 159.13 276.22 158.34 272.65 157.52 267.24 C 156.71 261.84 156.43 254.65 156.31 248.95 C 156.19 243.26 156.56 238.61 156.82 233.06 C 157.07 227.50 157.08 221.26 157.85 215.63 C 158.62 210.00 160.55 204.13 161.42 199.27 C 162.28 194.41 162.72 191.06 163.04 186.46 C 163.36 181.86 163.28 175.95 163.32 171.68 C 163.35 167.42 163.66 164.85 163.25 160.87 C 162.83 156.88 161.94 151.61 160.81 147.77 C 159.67 143.92 157.83 140.87 156.44 137.81 C 155.04 134.74 154.46 131.75 152.46 129.37 C 150.46 126.98 147.01 124.76 144.44 123.50 C 141.86 122.24 139.78 122.60 137.01 121.82 C 134.24 121.03 130.76 119.20 127.80 118.80 C 124.83 118.40 122.23 119.31 119.23 119.43 C 116.22 119.56 112.80 119.50 109.76 119.55 C 106.71 119.60 103.69 119.95 100.96 119.76 C 98.22 119.56 95.81 119.01 93.38 118.40 C 90.94 117.79 88.07 117.25 86.34 116.11 C 84.60 114.97 84.10 113.12 82.94 111.57 C 81.78 110.02 80.35 108.59 79.38 106.80 C 78.41 105.02 77.06 103.15 77.11 100.88 C 77.16 98.62 78.63 95.70 79.67 93.21 C 80.71 90.71 81.62 88.80 83.35 85.90 C 85.08 83.00 87.46 78.59 90.05 75.83 C 92.64 73.06 94.87 71.82 98.89 69.33 C 102.91 66.84 108.81 63.31 114.17 60.91 C 119.53 58.50 125.48 56.31 131.06 54.90 C 136.65 53.50 141.14 52.73 147.68 52.48 C 154.22 52.24 163.44 52.33 170.29 53.40 C 177.13 54.48 181.58 56.43 188.75 58.96 C 195.92 61.48 206.38 64.69 213.31 68.57 C 220.23 72.45 224.40 76.85 230.32 82.23 C 236.25 87.61 243.38 94.10 248.85 100.87 C 254.32 107.64 259.60 116.14 263.14 122.84 C 266.69 129.54 268.15 133.97 270.13 141.08 C 272.11 148.19 274.45 158.33 275.01 165.51 C 275.56 172.70 274.62 177.45 273.45 184.20 C 272.28 190.95 270.53 199.65 267.97 206.02 C 265.40 212.38 261.93 217.08 258.05 222.37 C 254.16 227.67 249.80 233.73 244.66 237.78 C 239.52 241.83 232.44 244.88 227.19 246.68 C 221.94 248.48 218.29 248.91 213.17 248.57 C 208.05 248.23 200.93 246.21 196.48 244.65 C 192.03 243.08 189.87 241.95 186.49 239.17 C 183.12 236.39 178.73 231.71 176.23 227.98 C 173.72 224.26 172.43 221.32 171.45 216.80 C 170.48 212.28 169.67 206.17 170.37 200.87 C 171.08 195.58 173.35 189.71 175.69 185.05 C 178.03 180.39 180.48 176.67 184.40 172.93 C 188.31 169.18 194.66 165.18 199.19 162.56 C 203.72 159.94 206.27 158.75 211.57 157.19 C 216.87 155.63 225.02 153.56 230.98 153.22 C 236.94 152.87 241.14 153.30 247.31 155.13 C 253.48 156.96 261.96 160.15 268.01 164.19 C 274.06 168.24 279.11 174.74 283.61 179.40 C 288.12 184.05 291.55 186.95 295.04 192.12 C 298.54 197.29 302.61 204.55 304.60 210.40 C 306.59 216.25 306.60 220.90 306.99 227.21 C 307.38 233.53 307.78 242.10 306.95 248.29 C 306.12 254.48 304.25 258.49 302.01 264.34 C 299.77 270.19 296.28 278.15 293.53 283.39 C 290.78 288.63 289.00 291.16 285.51 295.77 C 282.03 300.38 276.70 306.33 272.62 311.04 C 268.55 315.75 264.62 319.85 261.06 324.01 C 257.49 328.17 254.42 331.59 251.24 335.98 C 248.07 340.37 244.48 346.63 242.03 350.36 C 239.57 354.09 238.19 355.11 236.50 358.35 C 234.82 361.60 233.34 366.15 231.92 369.82 C 230.49 373.48 228.82 376.36 227.94 380.34 C 227.07 384.32 226.60 389.66 226.66 393.71 C 226.72 397.76 227.38 401.53 228.30 404.64 C 229.21 407.75 230.64 409.51 232.15 412.37 C 233.66 415.24 235.51 418.90 237.35 421.83 C 239.20 424.76 240.76 427.59 243.23 429.93 C 245.69 432.27 248.77 434.19 252.16 435.88 C 255.55 437.56 259.13 439.16 263.58 440.06 C 268.02 440.95 273.66 441.44 278.81 441.25 C 283.96 441.07 289.69 439.99 294.49 438.96 C 299.29 437.92 302.90 437.14 307.61 435.04 C 312.33 432.93 317.96 428.83 322.79 426.32 C 327.61 423.82 331.67 423.36 336.54 420.03 C 341.41 416.70 347.63 410.63 352.00 406.33 C 356.37 402.04 359.09 399.06 362.77 394.28 C 366.44 389.49 370.76 383.40 374.05 377.60 C 377.33 371.80 380.64 365.31 382.48 359.46 C 384.32 353.60 384.70 348.97 385.08 342.47 C 385.47 335.97 385.36 327.16 384.78 320.47 C 384.20 313.79 383.64 309.11 381.62 302.35 C 379.60 295.60 375.66 286.25 372.66 279.93 C 369.66 273.60 368.07 269.76 363.60 264.41 C 359.13 259.06 351.39 252.18 345.85 247.84 C 340.30 243.51 336.55 240.81 330.34 238.39 C 324.14 235.97 316.08 234.28 308.62 233.32 C 301.16 232.37 292.14 232.29 285.58 232.65 C 279.02 233.01 275.06 233.52 269.24 235.49 C 263.42 237.45 255.65 241.20 250.67 244.46 C 245.69 247.72 243.18 250.64 239.36 255.04 C 235.53 259.44 230.40 265.95 227.74 270.86 C 225.07 275.78 224.38 279.39 223.34 284.55 C 222.31 289.71 221.44 296.38 221.54 301.82 C 221.64 307.25 222.70 312.42 223.95 317.16 C 225.20 321.90 226.79 325.59 229.06 330.26 C 231.34 334.93 234.30 341.39 237.59 345.16 C 240.88 348.94 244.33 350.32 248.81 352.91 C 253.29 355.51 259.54 359.04 264.47 360.72 C 269.40 362.40 273.12 362.43 278.39 363.00 C 283.66 363.56 290.46 364.09 296.09 364.10 C 301.72 364.11 307.64 363.46 312.17 363.07 C 316.69 362.68 318.63 362.50 323.25 361.76 C 327.86 361.02 335.35 358.88 339.85 358.60 C 344.34 358.32 346.07 359.40 350.21 360.10 C 354.34 360.80 360.93 361.87 364.66 362.80 C 368.38 363.72 369.99 364.14 372.56 365.64 C 375.12 367.15 377.98 369.20 380.06 371.81 C 382.13 374.42 384.13 378.29 385.01 381.29 C 385.89 384.28 385.78 386.47 385.32 389.78 C 384.87 393.10 383.67 397.59 382.28 401.19 C 380.89 404.79 379.73 408.47 377.00 411.39 C 374.26 414.31 369.72 416.53 365.87 418.71 C 362.02 420.89 359.28 422.78 353.91 424.45 C 348.54 426.11 340.70 428.23 333.66 428.72 C 326.62 429.21 318.31 428.28 311.66 427.37 C 305.01 426.47 300.23 425.77 293.79 423.30 C 287.34 420.84 279.12 416.03 273.02 412.57 C 266.91 409.12 262.78 407.46 257.15 402.56 C 251.53 397.67 243.94 389.26 239.28 383.22 C 234.63 377.18 231.99 373.25 229.21 366.33 C 226.44 359.41 224.19 349.06 222.63 341.71 C 221.07 334.36 219.75 329.47 219.84 322.22 C 219.94 314.98 221.22 305.70 223.21 298.25 C 225.20 290.79 228.78 283.36 231.81 277.49 C 234.83 271.62 237.00 267.76 241.37 263.02 C 245.74 258.28 252.92 252.40 258.05 249.05 C 263.18 245.69 266.71 244.27 272.15 242.90 C 277.58 241.53 285.20 240.92 290.66 240.83 C 296.12 240.75 299.87 240.97 304.90 242.40 C 309.93 243.82 315.78 246.28 320.83 249.38 C 325.87 252.48 331.54 257.27 335.18 261.00 C 338.82 264.73 340.42 267.50 342.67 271.76 C 344.91 276.02 347.38 281.73 348.65 286.58 C 349.92 291.43 350.45 295.80 350.28 300.88 C 350.11 305.97 349.15 312.16 347.63 317.10 C 346.11 322.04 344.07 325.86 341.18 330.54 C 338.28 335.23 334.47 340.74 330.25 345.20 C 326.04 349.67 320.72 354.13 315.89 357.34 C 311.07 360.55 306.79 362.44 301.29 364.45 C 295.79 366.46 288.43 368.44 282.89 369.39 C 277.35 370.34 273.87 370.86 268.04 370.17 C 262.21 369.48 253.89 367.06 247.89 365.25 C 241.89 363.45 237.79 362.14 232.05 359.32 C 226.30 356.50 218.72 352.37 213.42 348.31 C 208.13 344.25 203.76 339.39 200.27 334.97 C 196.78 330.55 195.44 326.67 192.50 321.77 C 189.56 316.87 185.37 310.65 182.63 305.58 C 179.89 300.51 178.21 296.77 176.07 291.36 C 173.93 285.95 171.63 278.65 169.80 273.14 C 167.98 267.62 166.95 263.41 165.13 258.27 C 163.31 253.14 160.91 247.30 158.88 242.32 C 156.85 237.34 154.96 232.44 152.95 228.40 C 150.95 224.37 149.16 221.49 146.87 218.12 C 144.58 214.75 141.67 210.96 139.20 208.16 C 136.74 205.37 135.19 203.02 132.08 201.34 C 128.97 199.67 124.10 198.68 120.53 198.09 C 116.96 197.49 114.07 197.06 110.66 197.78 C 107.26 198.51 103.33 200.72 100.10 202.46 C 96.87 204.20 93.90 205.34 91.29 208.23 C 88.68 211.11 86.40 215.07 84.45 219.76 C 82.50 224.46 80.68 231.24 79.59 236.40 C 78.50 241.56 77.65 245.22 77.89 250.73 C 78.14 256.24 79.46 264.18 81.06 269.47 C 82.65 274.75 84.42 277.31 87.47 282.43 C 90.51 287.54 95.37 295.05 99.33 300.17 C 103.29 305.29 106.63 308.62 111.25 313.15 C 115.88 317.67 120.79 323.46 127.09 327.31 C 133.40 331.16 142.46 333.91 149.08 336.26 C 155.70 338.61 159.92 340.17 166.81 341.40 C 173.70 342.64 183.43 343.47 190.42 343.70 C 197.42 343.93 202.05 343.64 208.77 342.79 C 215.49 341.93 224.22 340.21 230.76 338.55 C 237.29 336.89 241.69 334.92 247.97 332.81 C 254.26 330.69 262.03 328.06 268.49 325.85 C 274.95 323.65 281.46 321.58 286.72 319.58 C 291.98 317.58 295.11 315.53 300.05 313.85 C 304.98 312.18 311.57 310.89 316.31 309.53 C 321.06 308.16 324.08 307.01 328.52 305.69 C 332.96 304.36 338.58 302.65 342.95 301.58 C 347.32 300.50 350.42 299.39 354.74 299.25 C 359.06 299.11 364.65 299.87 368.85 300.73 C 373.05 301.59 376.82 302.97 379.93 304.41 C 383.04 305.86 384.56 307.64 387.51 309.40 C 390.45 311.15 394.80 313.05 397.63 314.95 C 400.46 316.84 402.03 318.95 404.48 320.79 C 406.93 322.62 409.69 324.20 412.34 325.93 C 414.99 327.66 417.74 329.68 420.37 331.17 C 423.00 332.65 425.51 333.94 428.13 334.82 C 430.76 335.70 433.60 336.49 436.13 336.42 C 438.67 336.34 440.75 335.50 443.36 334.37 C 445.98 333.24 449.29 331.16 451.82 329.63 C 454.35 328.10 456.31 327.49 458.54 325.18 C 460.76 322.88 463.49 318.78 465.15 315.79 C 466.81 312.81 467.35 310.87 468.49 307.28 C 469.62 303.69 471.10 298.55 471.97 294.25 C 472.84 289.95 473.50 286.40 473.71 281.49 C 473.93 276.58 474.02 270.68 473.27 264.77 C 472.52 258.85 470.86 251.33 469.20 246.00 C 467.53 240.67 465.96 237.95 463.28 232.80 C 460.61 227.65 456.85 220.28 453.16 215.13 C 449.48 209.97 446.03 206.57 441.18 201.85 C 436.34 197.12 429.51 190.87 424.08 186.78 C 418.65 182.69 414.94 180.60 408.63 177.31 C 402.31 174.02 394.14 169.82 386.18 167.04 C 378.21 164.27 368.39 162.07 360.84 160.65 C 353.28 159.24 348.27 158.17 340.85 158.56 C 333.42 158.94 323.51 161.53 316.29 162.96 C 309.07 164.40 304.17 164.51 297.53 167.18 C 290.90 169.85 282.35 175.25 276.47 178.98 C 270.60 182.71 266.80 184.91 262.28 189.57 C 257.76 194.23 252.95 200.62 249.36 206.95 C 245.78 213.29 242.67 221.56 240.75 227.61 C 238.83 233.65 237.86 237.18 237.87 243.23 C 237.89 249.27 239.43 258.14 240.84 263.87 C 242.25 269.60 243.63 273.06 246.35 277.60 C 249.06 282.14 253.39 287.23 257.16 291.11 C 260.92 295.00 264.11 298.61 268.92 300.92 C 273.72 303.24 280.54 304.10 285.97 304.99 C 291.41 305.88 296.73 306.23 301.53 306.25 C 306.32 306.28 309.90 306.13 314.75 305.17 C 319.60 304.20 326.18 301.59 330.61 300.47 C 335.05 299.34 337.35 299.36 341.37 298.43 C 345.39 297.50 350.52 295.87 354.71 294.89 C 358.89 293.91 362.27 292.59 366.47 292.55 C 370.68 292.51 375.78 293.98 379.92 294.62 C 384.05 295.27 388.11 295.46 391.30 296.40 C 394.49 297.34 396.27 298.61 399.06 300.28 C 401.85 301.95 406.01 304.08 408.03 306.42 C 410.05 308.77 409.97 311.48 411.18 314.33 C 412.39 317.18 414.62 320.38 415.28 323.52 C 415.93 326.65 415.56 329.42 415.11 333.13 C 414.66 336.83 413.27 341.92 412.58 345.74 C 411.89 349.57 411.64 352.43 410.98 356.08 C 410.33 359.72 409.10 363.83 408.66 367.61 C 408.22 371.39 408.47 375.39 408.34 378.74 C 408.21 382.09 407.54 384.85 407.87 387.71 C 408.20 390.57 409.41 393.56 410.33 395.90 C 411.24 398.25 412.25 399.80 413.35 401.77 C 414.45 403.73 415.51 406.14 416.93 407.67 C 418.34 409.20 420.01 409.57 421.83 410.94 C 423.65 412.30 425.77 415.38 427.84 415.85 C 429.91 416.33 432.42 414.24 434.24 413.79 C 436.06 413.34 436.76 413.78 438.77 413.14 C 440.78 412.50 444.07 410.59 446.30 409.95 C 448.54 409.32 450.09 409.43 452.17 409.33 C 454.25 409.23 457.06 409.32 458.78 409.38 C 460.50 409.43 461.29 409.18 462.50 409.68 C 463.71 410.18 465.15 411.02 466.06 412.39 C 466.97 413.76 467.62 416.55 467.96 417.91 C 468.30 419.26 468.64 419.15 468.11 420.52 C 467.57 421.88 465.78 424.14 464.76 426.11 C 463.75 428.07 464.18 429.99 462.02 432.33 C 459.86 434.66 455.37 437.38 451.80 440.10 C 448.22 442.83 444.76 445.67 440.57 448.65 C 436.37 451.64 431.66 455.11 426.62 458.00 C 421.58 460.89 415.07 463.91 410.34 466.00 C 405.61 468.10 402.98 468.49 398.23 470.58 C 393.49 472.66 386.26 476.53 381.89 478.52 C 377.51 480.51 375.48 480.68 371.99 482.53 C 368.50 484.38 363.71 487.76 360.92 489.60 C 358.14 491.44 357.36 492.11 355.28 493.57 C 353.21 495.02 350.35 496.36 348.48 498.30 C 346.60 500.25 344.76 503.50 344.04 505.21 C 343.33 506.93 343.90 507.64 344.21 508.60 C 344.53 509.56 345.30 511.45 345.93 510.99 C 346.57 510.52 347.32 512.07 348.03 505.83 C 348.73 499.59 350.00 483.15 350.17 473.54 C 350.34 463.92 349.69 457.19 349.05 448.17 C 348.41 439.15 347.45 428.20 346.33 419.41 C 345.21 410.61 344.43 403.82 342.34 395.39 C 340.25 386.95 337.38 377.48 333.77 368.79 C 330.17 360.11 324.76 350.46 320.71 343.28 C 316.65 336.10 313.97 331.90 309.42 325.72 C 304.87 319.54 298.42 311.60 293.41 306.22 C 288.40 300.85 284.83 297.49 279.38 293.46 C 273.92 289.44 266.12 285.08 260.67 282.09 C 255.22 279.10 252.14 277.24 246.67 275.52 C 241.19 273.80 233.90 272.93 227.80 271.75 C 221.70 270.57 215.33 269.17 210.05 268.43 C 204.77 267.70 201.18 268.04 196.10 267.34 C 191.02 266.64 184.25 265.07 179.57 264.26 C 174.88 263.45 172.23 263.13 168.00 262.50 C 163.76 261.86 158.48 261.30 154.17 260.43 C 149.86 259.57 145.88 259.06 142.12 257.29 C 138.35 255.52 135.02 252.22 131.59 249.82 C 128.16 247.42 124.33 245.31 121.54 242.90 C 118.75 240.48 116.85 238.25 114.84 235.32 C 112.83 232.40 110.75 228.99 109.47 225.33 C 108.19 221.66 107.73 217.90 107.14 213.32 C 106.56 208.74 105.93 202.17 105.97 197.87 C 106.01 193.56 105.69 191.58 107.39 187.49 C 109.09 183.41 113.12 177.85 116.19 173.36 C 119.25 168.87 122.15 164.26 125.79 160.54 C 129.43 156.81 133.39 154.07 138.02 151.01 C 142.66 147.96 148.16 144.38 153.59 142.20 C 159.03 140.01 164.30 139.14 170.64 137.90 C 176.99 136.66 185.11 135.31 191.67 134.76 C 198.22 134.21 203.16 133.56 209.97 134.59 C 216.78 135.63 225.37 138.00 232.52 140.97 C 239.67 143.95 247.14 148.88 252.88 152.44 C 258.63 156.01 261.86 158.23 266.98 162.38 C 272.10 166.54 279.09 172.89 283.60 177.38 C 288.10 181.87 290.27 184.86 294.01 189.32 C 297.74 193.78 302.31 199.74 306.00 204.16 C 309.70 208.58 312.24 212.12 316.19 215.84 C 320.14 219.56 325.90 223.49 329.70 226.48 C 333.51 229.48 335.36 231.21 339.03 233.83 C 342.71 236.44 347.66 240.16 351.76 242.16 C 355.86 244.15 360.18 245.13 363.63 245.80 C 367.08 246.47 369.07 246.61 372.46 246.19 C 375.85 245.77 380.57 245.08 383.98 243.27 C 387.38 241.46 390.27 238.69 392.89 235.33 C 395.51 231.96 397.98 226.90 399.70 223.08 C 401.42 219.26 402.36 216.18 403.21 212.40 C 404.06 208.62 404.48 204.79 404.80 200.40 C 405.11 196.00 405.13 190.57 405.07 186.04 C 405.02 181.52 405.11 177.51 404.47 173.25 C 403.83 168.98 401.98 164.30 401.24 160.46 C 400.49 156.63 400.46 154.20 400.02 150.23 C 399.58 146.26 399.01 140.13 398.60 136.62 C 398.20 133.12 397.70 132.19 397.58 129.19 C 397.46 126.19 397.72 121.93 397.90 118.65 C 398.07 115.36 398.05 112.03 398.62 109.48 C 399.19 106.93 400.19 105.30 401.33 103.35 C 402.47 101.39 404.32 99.37 405.46 97.73 C 406.60 96.10 407.31 95.07 408.19 93.55 C 409.08 92.03 409.97 90.13 410.77 88.61 C 411.57 87.10 412.21 86.17 412.98 84.43 C 413.76 82.70 415.20 80.37 415.41 78.21 C 415.61 76.05 414.62 73.66 414.22 71.48 C 413.82 69.30 413.81 67.53 413.01 65.12 C 412.22 62.71 410.68 59.28 409.44 57.01 C 408.21 54.74 407.34 53.44 405.60 51.49 C 403.86 49.54 400.99 47.25 399.00 45.32 C 397.01 43.39 395.95 41.90 393.67 39.92 C 391.39 37.93 388.89 35.41 385.33 33.41 C 381.78 31.42 376.22 29.69 372.35 27.95 C 368.48 26.20 365.62 24.38 362.12 22.94 C 358.61 21.51 354.46 20.58 351.34 19.33 C 348.22 18.08 345.87 17.28 343.37 15.45 C 340.88 13.62 338.74 10.23 336.37 8.36 C 334.01 6.48 330.88 5.56 329.18 4.20 C 327.49 2.84 327.11 -3.57 326.21 0.19 C 325.31 3.96 325.04 16.91 323.79 26.79 C 322.54 36.68 320.52 48.98 318.72 59.50 C 316.91 70.03 314.78 81.04 312.96 89.94 C 311.14 98.84 309.59 104.68 307.81 112.91 C 306.02 121.13 303.36 131.24 302.26 139.30 C 301.17 147.35 301.80 153.40 301.23 161.23 C 300.65 169.06 298.89 179.26 298.81 186.29 C 298.72 193.33 299.76 197.05 300.71 203.44 C 301.65 209.82 303.04 218.00 304.49 224.60 C 305.94 231.20 307.72 237.84 309.42 243.04 C 311.11 248.23 312.00 251.11 314.64 255.77 C 317.29 260.44 321.83 267.07 325.27 271.02 C 328.71 274.97 331.51 276.70 335.29 279.49 C 339.08 282.27 344.19 285.89 347.97 287.75 C 351.74 289.61 353.91 290.18 357.93 290.66 C 361.94 291.14 367.41 291.05 372.04 290.62 C 376.67 290.19 382.15 289.59 385.71 288.08 C 389.27 286.58 390.73 284.45 393.40 281.57 C 396.08 278.68 399.29 274.32 401.75 270.77 C 404.20 267.22 406.07 264.38 408.11 260.29 C 410.15 256.20 413.03 250.53 413.98 246.22 C 414.93 241.90 414.55 239.02 413.82 234.38 C 413.09 229.74 411.16 223.84 409.60 218.38 C 408.03 212.91 406.55 206.55 404.44 201.61 C 402.33 196.67 400.67 193.30 396.94 188.75 C 393.21 184.20 386.68 178.16 382.07 174.29 C 377.45 170.41 374.39 168.38 369.27 165.50 C 364.15 162.62 357.40 159.34 351.34 157.01 C 345.28 154.68 339.31 152.85 332.90 151.51 C 326.49 150.18 319.68 149.38 312.89 148.99 C 306.09 148.60 298.72 148.41 292.12 149.20 C 285.52 149.99 280.02 151.64 273.28 153.74 C 266.54 155.84 257.80 158.43 251.67 161.78 C 245.54 165.12 241.40 169.12 236.51 173.82 C 231.61 178.52 226.04 184.92 222.30 189.97 C 218.56 195.02 216.58 198.52 214.08 204.13 C 211.59 209.75 208.81 217.64 207.34 223.63 C 205.87 229.62 205.26 234.13 205.27 240.07 C 205.27 246.00 206.01 252.73 207.37 259.25 C 208.73 265.78 211.07 273.73 213.42 279.23 C 215.77 284.73 217.98 287.65 221.46 292.24 C 224.94 296.83 230.38 302.54 234.28 306.76 C 238.19 310.98 240.94 313.84 244.87 317.58 C 248.80 321.33 254.25 325.73 257.86 329.24 C 261.48 332.74 263.39 335.54 266.55 338.60 C 269.71 341.65 273.42 344.43 276.82 347.56 C 280.23 350.69 284.14 354.17 286.96 357.37 C 289.79 360.57 291.92 363.29 293.76 366.76 C 295.60 370.23 296.82 374.79 298.02 378.21 C 299.22 381.63 300.50 383.66 300.94 387.27 C 301.39 390.89 301.45 396.43 300.69 399.89 C 299.93 403.35 298.11 404.67 296.36 408.03 C 294.61 411.40 292.68 416.67 290.21 420.09 C 287.74 423.51 284.08 425.87 281.54 428.54 C 279.00 431.20 277.34 433.35 274.96 436.09 C 272.59 438.83 269.31 442.56 267.27 444.99 C 265.22 447.43 264.12 448.44 262.69 450.72 C 261.27 453.00 259.47 456.51 258.72 458.68 C 257.96 460.85 257.75 461.55 258.18 463.75 C 258.61 465.96 260.24 469.41 261.30 471.91 C 262.36 474.40 262.85 477.00 264.56 478.73 C 266.28 480.46 268.36 481.34 271.59 482.28 C 274.82 483.22 279.84 484.24 283.95 484.37 C 288.06 484.49 291.60 484.09 296.26 483.04 C 300.92 482.00 307.14 479.87 311.91 478.08 C 316.67 476.29 320.37 474.31 324.85 472.30 C 329.34 470.30 333.97 468.18 338.82 466.05 C 343.68 463.92 349.88 461.34 353.96 459.51 C 358.04 457.68 359.56 456.43 363.32 455.07 C 367.08 453.72 373.37 452.22 376.53 451.39 C 379.70 450.56 379.84 450.34 382.31 450.08 C 384.78 449.83 389.18 449.55 391.37 449.88 C 393.55 450.21 394.13 450.90 395.41 452.06 C 396.69 453.23 398.83 455.27 399.03 456.89 C 399.23 458.50 397.69 459.96 396.63 461.77 C 395.58 463.57 394.55 465.54 392.70 467.71 C 390.85 469.87 388.02 473.02 385.54 474.77 C 383.07 476.52 380.97 476.74 377.85 478.21 C 374.72 479.69 370.51 482.15 366.79 483.61 C 363.08 485.07 359.40 485.45 355.54 486.97 C 351.69 488.50 347.29 491.26 343.69 492.77 C 340.09 494.28 337.48 494.74 333.95 496.03 C 330.43 497.33 326.17 498.92 322.55 500.54 C 318.93 502.16 315.04 504.50 312.24 505.74 C 309.45 506.97 308.11 506.93 305.79 507.93 C 303.48 508.94 300.31 515.80 298.35 511.77 C 296.39 507.74 295.97 493.45 294.06 483.75 C 292.15 474.06 288.88 462.29 286.87 453.60 C 284.87 444.90 283.85 440.06 282.01 431.56 C 280.17 423.07 277.67 412.08 275.82 402.61 C 273.97 393.14 272.15 382.82 270.91 374.74 C 269.67 366.66 268.74 361.71 268.38 354.13 C 268.02 346.54 268.20 336.48 268.77 329.24 C 269.34 321.99 270.37 317.17 271.80 310.68 C 273.22 304.19 275.13 296.15 277.33 290.29 C 279.52 284.43 281.81 280.53 284.97 275.51 C 288.12 270.48 292.26 264.45 296.26 260.13 C 300.27 255.81 304.98 252.30 309.02 249.61 C 313.06 246.92 316.09 245.67 320.51 243.97 C 324.92 242.27 331.07 240.16 335.51 239.41 C 339.95 238.66 342.88 239.10 347.15 239.46 C 351.41 239.81 357.05 240.86 361.08 241.53 C 365.11 242.21 366.06 242.57 371.33 243.51 C 376.60 244.44 389.14 246.54 392.70 247.14" fill="none" stroke="#fff" stroke-width="4.48" stroke-opacity="1" stroke-linecap="round" stroke-linejoin="round"/>
  </g>
</svg>