<?xml version="1.0" encoding="UTF-8"?>
<svg xmlns="http://www.w3.org/2000/svg" width="512" height="512" viewBox="0 0 512 512">
  <rect width="100%" height="100%" fill="#000"/>
  <g>
    <path d="M 256.00 256.00 C 256.95 252.97 261.06 244.37 261.70 237.79 C 262.34 231.22 261.51 223.24 259.83 216.55 C 258.16 209.86 255.38 203.09 251.65 197.65 C 247.92 192.20 242.34 187.13 237.46 183.88 C 232.59 180.64 228.13 179.07 222.38 178.17 C 216.64 177.27 209.32 177.10 203.00 178.47 C 196.68 179.85 190.03 182.67 184.46 186.43 C 178.88 190.20 173.49 195.86 169.55 201.06 C 165.60 206.25 162.77 210.96 160.79 217.59 C 158.80 224.22 157.29 232.97 157.65 240.85 C 158.00 248.72 160.31 257.20 162.92 264.84 C 165.53 272.48 169.86 280.21 173.33 286.69 C 176.81 293.18 180.06 297.89 183.75 303.76 C 187.44 309.63 191.78 316.10 195.46 321.91 C 199.13 327.73 202.87 333.28 205.80 338.65 C 208.72 344.03 211.18 349.40 213.02 354.16 C 214.87 358.91 216.00 362.67 216.86 367.18 C 217.73 371.68 218.42 376.79 218.22 381.17 C 218.03 385.55 217.16 389.63 215.69 393.44 C 214.23 397.24 211.87 401.34 209.43 404.01 C 206.99 406.68 204.74 408.25 201.04 409.45 C 197.34 410.65 192.21 411.64 187.22 411.21 C 182.23 410.78 176.44 409.52 171.10 406.87 C 165.76 404.21 159.71 399.70 155.20 395.28 C 150.70 390.86 147.63 386.57 144.08 380.34 C 140.52 374.11 136.31 365.95 133.87 357.88 C 131.44 349.80 129.59 340.84 129.45 331.87 C 129.32 322.90 130.87 312.41 133.07 304.08 C 135.28 295.74 137.93 289.36 142.68 281.85 C 147.43 274.33 154.22 265.30 161.59 258.99 C 168.95 252.68 178.16 247.44 186.86 243.99 C 195.56 240.54 205.59 238.91 213.80 238.31 C 222.00 237.71 228.55 238.28 236.09 240.38 C 243.62 242.48 252.64 246.38 259.03 250.92 C 265.41 255.47 270.49 261.56 274.40 267.66 C 278.31 273.77 281.18 281.41 282.50 287.56 C 283.83 293.70 283.63 298.77 282.34 304.55 C 281.04 310.33 278.60 317.14 274.75 322.24 C 270.90 327.34 265.27 332.41 259.25 335.14 C 253.23 337.86 244.99 338.69 238.63 338.59 C 232.27 338.49 227.19 337.27 221.09 334.54 C 215.00 331.82 207.55 327.45 202.04 322.24 C 196.54 317.04 191.13 310.42 188.06 303.31 C 184.99 296.19 183.96 286.90 183.60 279.56 C 183.25 272.23 183.92 266.45 185.91 259.30 C 187.90 252.15 191.17 243.33 195.56 236.64 C 199.95 229.96 205.85 223.93 212.27 219.19 C 218.68 214.44 227.18 210.69 234.03 208.18 C 240.87 205.67 246.28 204.60 253.33 204.13 C 260.37 203.67 269.07 204.03 276.31 205.42 C 283.55 206.81 290.60 208.97 296.77 212.49 C 302.93 216.00 308.99 221.53 313.31 226.50 C 317.63 231.48 320.58 235.84 322.69 242.31 C 324.80 248.79 326.05 257.87 325.96 265.36 C 325.87 272.86 324.69 280.39 322.14 287.29 C 319.59 294.20 315.12 301.53 310.67 306.78 C 306.22 312.03 301.67 315.35 295.42 318.78 C 289.17 322.21 280.73 325.82 273.17 327.36 C 265.62 328.90 257.75 329.19 250.07 328.03 C 242.39 326.86 233.75 323.24 227.10 320.37 C 220.45 317.50 216.08 314.45 210.18 310.80 C 204.29 307.14 197.51 302.32 191.73 298.44 C 185.95 294.55 180.73 290.97 175.51 287.50 C 170.29 284.02 164.99 280.35 160.39 277.59 C 155.79 274.82 152.40 272.50 147.91 270.91 C 143.42 269.32 138.10 268.13 133.47 268.05 C 128.84 267.97 123.96 268.39 120.15 270.42 C 116.33 272.46 112.99 276.86 110.57 280.25 C 108.15 283.65 106.44 286.25 105.64 290.79 C 104.84 295.32 104.54 301.58 105.76 307.47 C 106.99 313.36 109.46 320.23 113.00 326.13 C 116.53 332.03 122.11 338.16 127.00 342.88 C 131.89 347.60 136.02 350.65 142.35 354.45 C 148.68 358.25 156.95 362.97 164.98 365.66 C 173.01 368.35 181.85 369.79 190.53 370.59 C 199.20 371.40 208.99 371.25 217.04 370.51 C 225.09 369.78 231.22 368.59 238.81 366.17 C 246.40 363.74 255.15 360.21 262.60 355.95 C 270.05 351.69 277.32 346.41 283.52 340.62 C 289.71 334.83 295.39 327.54 299.75 321.23 C 304.11 314.92 307.05 309.91 309.68 302.78 C 312.31 295.65 314.86 286.57 315.52 278.45 C 316.19 270.34 315.35 261.85 313.68 254.09 C 312.00 246.33 308.77 238.24 305.47 231.87 C 302.18 225.51 298.93 220.71 293.89 215.91 C 288.86 211.11 282.15 205.95 275.26 203.06 C 268.37 200.17 260.04 198.54 252.54 198.58 C 245.03 198.63 236.66 200.71 230.21 203.33 C 223.77 205.94 218.97 209.42 213.84 214.28 C 208.72 219.15 203.19 226.14 199.46 232.52 C 195.73 238.90 193.54 245.63 191.46 252.58 C 189.38 259.52 188.22 267.83 186.98 274.17 C 185.74 280.51 184.61 284.76 184.02 290.60 C 183.43 296.44 183.33 303.13 183.43 309.20 C 183.54 315.26 184.46 321.29 184.64 326.99 C 184.82 332.70 184.51 338.53 184.50 343.44 C 184.49 348.34 184.64 351.95 184.59 356.42 C 184.53 360.89 184.65 365.85 184.16 370.24 C 183.66 374.63 182.87 378.99 181.61 382.75 C 180.34 386.51 178.07 389.94 176.56 392.80 C 175.04 395.67 173.82 397.16 172.53 399.94 C 171.24 402.71 169.60 406.29 168.83 409.45 C 168.07 412.62 167.82 415.69 167.93 418.93 C 168.04 422.18 168.23 426.01 169.51 428.93 C 170.79 431.84 172.61 433.87 175.62 436.41 C 178.63 438.96 183.03 441.97 187.57 444.20 C 192.11 446.43 197.17 448.60 202.86 449.80 C 208.54 450.99 215.44 451.60 221.69 451.37 C 227.94 451.15 233.45 450.10 240.35 448.45 C 247.26 446.80 255.70 444.24 263.12 441.46 C 270.55 438.68 277.93 434.96 284.89 431.78 C 291.84 428.61 298.96 425.34 304.84 422.41 C 310.72 419.48 314.75 416.95 320.18 414.20 C 325.61 411.45 332.02 408.18 337.42 405.91 C 342.81 403.65 347.84 401.72 352.56 400.59 C 357.27 399.46 362.19 399.17 365.70 399.14 C 369.21 399.11 371.27 399.23 373.61 400.40 C 375.96 401.58 378.47 403.95 379.77 406.18 C 381.08 408.41 381.75 411.00 381.44 413.78 C 381.12 416.56 379.65 420.09 377.88 422.85 C 376.11 425.62 374.31 427.68 370.84 430.38 C 367.38 433.09 362.55 436.75 357.09 439.09 C 351.62 441.44 345.01 443.49 338.05 444.45 C 331.09 445.42 322.62 445.66 315.32 444.90 C 308.02 444.14 302.03 442.73 294.24 439.89 C 286.44 437.04 276.64 433.08 268.54 427.81 C 260.44 422.54 252.42 415.75 245.65 408.25 C 238.89 400.74 232.52 390.97 227.95 382.79 C 223.38 374.61 220.94 367.98 218.25 359.16 C 215.56 350.35 213.19 339.48 211.82 329.89 C 210.45 320.29 210.17 310.63 210.03 301.58 C 209.90 292.54 210.55 283.39 211.04 275.64 C 211.52 267.90 212.59 262.27 212.97 255.09 C 213.35 247.92 213.54 239.71 213.33 232.59 C 213.12 225.47 212.78 218.70 211.71 212.37 C 210.64 206.04 208.81 199.63 206.92 194.60 C 205.04 189.58 203.37 186.04 200.39 182.20 C 197.41 178.35 193.28 174.23 189.05 171.52 C 184.82 168.80 179.68 167.24 175.00 165.92 C 170.32 164.61 165.14 164.24 160.98 163.64 C 156.81 163.05 153.92 162.84 149.99 162.34 C 146.06 161.85 141.50 160.99 137.38 160.66 C 133.26 160.33 128.95 160.66 125.26 160.37 C 121.56 160.08 118.14 159.53 115.21 158.92 C 112.28 158.32 110.11 157.89 107.65 156.75 C 105.19 155.61 102.53 153.96 100.45 152.09 C 98.36 150.21 96.25 148.15 95.15 145.49 C 94.05 142.83 93.81 139.11 93.85 136.11 C 93.89 133.11 94.45 130.72 95.39 127.49 C 96.33 124.25 96.95 120.45 99.49 116.70 C 102.03 112.94 105.92 108.57 110.63 104.97 C 115.35 101.37 122.07 97.82 127.78 95.09 C 133.49 92.36 137.78 90.08 144.89 88.59 C 151.99 87.09 161.44 85.71 170.41 86.14 C 179.38 86.57 189.52 88.14 198.71 91.15 C 207.89 94.16 217.71 99.38 225.53 104.20 C 233.35 109.02 239.41 113.04 245.64 120.07 C 251.87 127.09 258.93 137.00 262.91 146.35 C 266.89 155.71 268.59 166.45 269.49 176.20 C 270.39 185.95 269.21 196.44 268.32 204.84 C 267.43 213.25 266.40 219.10 264.15 226.64 C 261.89 234.18 258.17 242.77 254.79 250.09 C 251.41 257.41 247.58 264.16 243.88 270.56 C 240.18 276.97 235.83 283.09 232.60 288.52 C 229.37 293.94 227.25 297.92 224.51 303.09 C 221.77 308.27 218.42 314.14 216.17 319.56 C 213.92 324.97 212.37 330.25 211.03 335.58 C 209.69 340.92 208.60 346.87 208.14 351.55 C 207.68 356.23 208.18 359.27 208.30 363.64 C 208.41 368.02 208.62 373.20 208.84 377.82 C 209.07 382.44 209.59 387.12 209.64 391.35 C 209.69 395.58 209.69 399.75 209.15 403.20 C 208.60 406.65 207.72 409.13 206.37 412.06 C 205.03 414.98 203.30 418.29 201.08 420.77 C 198.87 423.25 196.17 425.48 193.08 426.95 C 189.99 428.42 186.15 429.33 182.53 429.61 C 178.91 429.89 175.64 429.72 171.36 428.63 C 167.09 427.53 161.73 425.69 156.86 423.05 C 151.98 420.40 146.76 417.13 142.09 412.73 C 137.41 408.33 132.48 402.30 128.78 396.65 C 125.08 391.00 122.31 386.06 119.89 378.83 C 117.47 371.60 115.07 362.12 114.25 353.28 C 113.42 344.45 113.32 335.10 114.93 325.82 C 116.54 316.53 120.10 305.81 123.90 297.59 C 127.70 289.36 131.41 283.23 137.71 276.49 C 144.02 269.74 153.06 261.84 161.75 257.10 C 170.44 252.37 180.56 249.61 189.85 248.08 C 199.14 246.56 209.51 246.83 217.51 247.95 C 225.51 249.07 231.50 250.99 237.87 254.81 C 244.24 258.62 251.43 264.90 255.74 270.83 C 260.04 276.75 262.65 283.76 263.70 290.35 C 264.76 296.94 263.69 304.79 262.05 310.35 C 260.40 315.90 257.99 319.95 253.83 323.66 C 249.66 327.36 243.25 330.90 237.07 332.58 C 230.90 334.25 223.42 334.92 216.79 333.70 C 210.15 332.49 202.62 328.87 197.29 325.28 C 191.96 321.69 188.31 318.07 184.80 312.17 C 181.29 306.26 177.05 297.74 176.24 289.86 C 175.42 281.97 177.15 272.69 179.92 264.86 C 182.69 257.02 187.79 248.76 192.85 242.83 C 197.92 236.89 203.38 232.81 210.32 229.26 C 217.26 225.72 226.36 222.57 234.50 221.54 C 242.64 220.51 251.51 221.08 259.15 223.08 C 266.78 225.08 274.72 229.51 280.32 233.52 C 285.91 237.53 289.53 241.43 292.72 247.14 C 295.90 252.84 298.91 260.78 299.43 267.76 C 299.96 274.74 298.27 282.40 295.89 289.01 C 293.50 295.62 289.33 302.50 285.15 307.40 C 280.96 312.29 276.71 315.51 270.79 318.38 C 264.88 321.24 256.93 324.01 249.67 324.59 C 242.40 325.16 234.19 323.98 227.19 321.82 C 220.20 319.67 213.06 315.72 207.68 311.63 C 202.30 307.54 198.63 303.10 194.91 297.29 C 191.20 291.49 187.21 284.09 185.38 276.80 C 183.54 269.51 182.99 261.24 183.88 253.56 C 184.76 245.88 187.73 237.32 190.69 230.75 C 193.65 224.17 196.83 219.39 201.62 214.10 C 206.42 208.81 212.89 202.96 219.44 198.99 C 225.99 195.03 233.51 192.04 240.90 190.30 C 248.29 188.56 256.80 188.03 263.77 188.54 C 270.75 189.05 276.25 190.57 282.76 193.37 C 289.26 196.17 297.11 200.30 302.81 205.34 C 308.52 210.38 313.40 216.81 317.00 223.62 C 320.60 230.42 323.48 239.22 324.42 246.17 C 325.37 253.13 324.45 258.46 322.67 265.32 C 320.89 272.18 317.92 280.90 313.74 287.33 C 309.55 293.76 303.76 299.48 297.56 303.92 C 291.37 308.35 283.43 312.03 276.55 313.97 C 269.67 315.91 263.43 316.45 256.28 315.53 C 249.12 314.62 240.33 312.42 233.61 308.48 C 226.89 304.54 220.44 298.34 215.96 291.91 C 211.47 285.48 208.19 276.82 206.68 269.91 C 205.16 263.00 205.20 257.25 206.87 250.44 C 208.54 243.64 212.10 235.10 216.70 229.08 C 221.30 223.07 227.68 217.83 234.48 214.37 C 241.27 210.90 250.57 208.77 257.46 208.31 C 264.36 207.84 269.73 208.66 275.86 211.55 C 281.98 214.44 289.56 219.72 294.21 225.66 C 298.86 231.60 302.48 239.80 303.77 247.20 C 305.06 254.59 304.02 263.42 301.97 270.04 C 299.92 276.67 296.45 281.96 291.48 286.95 C 286.51 291.95 279.29 297.46 272.16 299.99 C 265.03 302.52 256.21 303.42 248.71 302.15 C 241.21 300.88 232.76 296.55 227.17 292.37 C 221.58 288.19 217.98 283.54 215.16 277.06 C 212.34 270.58 209.95 261.19 210.27 253.50 C 210.59 245.81 213.18 237.35 217.09 230.92 C 220.99 224.50 227.83 218.60 233.69 214.98 C 239.55 211.35 245.31 210.10 252.25 209.17 C 259.19 208.25 267.94 208.25 275.33 209.44 C 282.71 210.62 289.87 213.65 296.55 216.27 C 303.23 218.89 309.97 222.34 315.42 225.13 C 320.87 227.92 324.42 230.00 329.23 233.02 C 334.05 236.04 339.40 239.86 344.31 243.24 C 349.22 246.62 354.13 250.36 358.70 253.30 C 363.27 256.24 367.86 258.74 371.75 260.89 C 375.64 263.04 378.37 264.50 382.05 266.20 C 385.72 267.90 389.84 270.10 393.80 271.10 C 397.77 272.09 402.01 272.42 405.84 272.17 C 409.68 271.91 413.65 270.78 416.81 269.56 C 419.96 268.33 422.00 266.87 424.76 264.82 C 427.53 262.76 430.87 260.18 433.40 257.22 C 435.93 254.27 438.45 251.05 439.94 247.10 C 441.44 243.14 442.15 237.99 442.36 233.49 C 442.56 228.98 442.26 225.25 441.16 220.06 C 440.05 214.88 437.97 208.25 435.73 202.37 C 433.48 196.50 430.94 190.54 427.69 184.80 C 424.44 179.06 420.38 172.96 416.24 167.94 C 412.11 162.93 408.70 159.05 402.87 154.69 C 397.04 150.34 389.11 145.23 381.26 141.82 C 373.42 138.42 364.79 135.72 355.79 134.27 C 346.79 132.83 335.99 132.73 327.29 133.16 C 318.59 133.59 312.02 134.27 303.58 136.87 C 295.15 139.47 284.95 143.91 276.66 148.77 C 268.38 153.63 260.38 159.47 253.85 166.02 C 247.33 172.57 241.64 180.91 237.52 188.10 C 233.39 195.28 230.46 201.22 229.12 209.13 C 227.79 217.03 228.05 227.35 229.50 235.52 C 230.95 243.69 233.78 251.43 237.82 258.13 C 241.87 264.84 248.31 271.62 253.79 275.76 C 259.26 279.90 264.26 281.87 270.69 282.96 C 277.12 284.05 285.75 284.36 292.38 282.32 C 299.01 280.28 305.79 275.76 310.47 270.71 C 315.14 265.66 318.74 258.23 320.45 252.05 C 322.16 245.87 322.05 240.08 320.71 233.63 C 319.37 227.17 316.76 219.24 312.42 213.33 C 308.08 207.41 301.47 201.73 294.65 198.16 C 287.83 194.59 278.63 192.99 271.51 191.91 C 264.40 190.82 258.92 191.00 251.94 191.66 C 244.96 192.33 236.75 194.01 229.64 195.89 C 222.53 197.77 215.88 200.53 209.27 202.95 C 202.66 205.37 195.60 208.34 189.97 210.41 C 184.34 212.48 180.62 214.07 175.50 215.38 C 170.39 216.69 164.50 217.88 159.29 218.28 C 154.07 218.69 148.71 218.62 144.20 217.81 C 139.68 216.99 135.48 215.46 132.18 213.40 C 128.88 211.35 126.38 209.01 124.39 205.47 C 122.40 201.93 121.25 196.69 120.22 192.16 C 119.20 187.64 118.60 182.83 118.21 178.32 C 117.83 173.80 117.97 169.10 117.90 165.09 C 117.83 161.08 117.99 158.02 117.80 154.24 C 117.60 150.47 117.37 145.91 116.73 142.45 C 116.09 138.98 115.37 135.79 113.95 133.45 C 112.52 131.11 110.27 129.41 108.20 128.41 C 106.14 127.41 104.17 127.11 101.55 127.46 C 98.93 127.81 95.62 128.36 92.49 130.49 C 89.37 132.62 85.85 135.87 82.80 140.24 C 79.76 144.60 76.38 151.24 74.21 156.68 C 72.03 162.12 71.00 166.68 69.74 172.88 C 68.47 179.08 67.34 186.91 66.63 193.88 C 65.92 200.85 65.93 207.99 65.47 214.70 C 65.02 221.41 64.34 228.33 63.91 234.15 C 63.48 239.98 63.37 244.48 62.89 249.66 C 62.41 254.84 61.82 260.44 61.03 265.21 C 60.24 269.99 59.25 274.32 58.17 278.31 C 57.08 282.31 55.76 286.22 54.51 289.18 C 53.26 292.14 52.12 294.17 50.67 296.05 C 49.23 297.93 47.51 299.35 45.85 300.44 C 44.19 301.53 42.35 301.93 40.71 302.61 C 39.08 303.29 37.38 303.73 36.05 304.52 C 34.72 305.30 33.70 306.03 32.74 307.34 C 31.77 308.65 30.67 310.11 30.26 312.37 C 29.84 314.62 29.68 317.32 30.24 320.86 C 30.80 324.40 32.06 329.51 33.60 333.61 C 35.13 337.71 36.63 340.98 39.44 345.44 C 42.24 349.91 45.93 355.49 50.41 360.38 C 54.90 365.27 60.43 370.21 66.36 374.78 C 72.29 379.34 79.37 384.30 86.01 387.76 C 92.64 391.22 98.25 393.27 106.19 395.53 C 114.12 397.80 124.17 400.38 133.63 401.36 C 143.08 402.35 153.11 402.54 162.91 401.46 C 172.70 400.37 183.54 397.73 192.40 394.86 C 201.25 391.99 207.96 389.03 216.02 384.24 C 224.09 379.46 233.47 373.09 240.76 366.14 C 248.05 359.19 254.49 350.90 259.77 342.55 C 265.05 334.20 269.60 324.25 272.44 316.03 C 275.28 307.81 276.33 301.27 276.80 293.21 C 277.27 285.15 276.61 275.84 275.26 267.69 C 273.91 259.53 271.21 251.58 268.71 244.26 C 266.20 236.94 262.90 229.81 260.23 223.77 C 257.55 217.73 255.26 213.55 252.67 208.01 C 250.08 202.47 247.30 196.08 244.68 190.52 C 242.06 184.97 239.35 179.80 236.96 174.67 C 234.58 169.55 232.06 164.21 230.37 159.77 C 228.69 155.33 227.88 152.22 226.85 148.05 C 225.81 143.88 224.54 139.12 224.14 134.74 C 223.73 130.36 223.98 125.94 224.40 121.77 C 224.81 117.61 225.93 113.35 226.64 109.75 C 227.34 106.15 228.08 103.49 228.61 100.20 C 229.13 96.90 229.62 93.29 229.78 89.99 C 229.94 86.70 229.92 83.38 229.57 80.45 C 229.23 77.51 228.74 74.62 227.69 72.38 C 226.65 70.14 225.33 68.77 223.30 67.00 C 221.26 65.23 218.51 63.20 215.50 61.76 C 212.49 60.32 209.20 58.69 205.23 58.37 C 201.25 58.05 196.22 58.62 191.66 59.84 C 187.11 61.07 182.95 62.61 177.91 65.71 C 172.86 68.81 166.75 73.60 161.40 78.44 C 156.05 83.27 150.57 88.40 145.83 94.73 C 141.09 101.06 136.32 109.25 132.95 116.40 C 129.57 123.55 127.40 129.47 125.60 137.63 C 123.81 145.78 122.16 155.83 122.18 165.33 C 122.20 174.83 123.09 185.22 125.70 194.62 C 128.32 204.03 133.17 213.94 137.88 221.77 C 142.59 229.61 147.18 235.59 153.97 241.63 C 160.76 247.67 169.95 253.88 178.61 258.01 C 187.27 262.15 196.93 264.92 205.96 266.43 C 214.98 267.95 224.87 267.67 232.78 267.09 C 240.69 266.51 246.68 265.50 253.42 262.94 C 260.16 260.38 267.52 256.18 273.21 251.71 C 278.91 247.24 283.73 241.81 287.59 236.10 C 291.45 230.40 294.39 223.15 296.39 217.47 C 298.39 211.79 299.40 207.55 299.60 202.02 C 299.80 196.49 299.26 189.93 297.58 184.28 C 295.89 178.62 292.95 173.09 289.51 168.11 C 286.07 163.13 281.26 158.11 276.92 154.39 C 272.58 150.68 268.86 147.94 263.48 145.82 C 258.09 143.70 251.14 142.46 244.63 141.67 C 238.11 140.89 231.00 140.48 224.40 141.10 C 217.80 141.72 210.88 143.35 205.02 145.39 C 199.17 147.43 194.66 149.66 189.26 153.33 C 183.86 157.00 177.47 161.71 172.62 167.43 C 167.76 173.14 163.43 180.46 160.13 187.62 C 156.84 194.78 154.34 203.23 152.85 210.38 C 151.35 217.53 151.08 223.15 151.16 230.51 C 151.24 237.86 151.58 246.69 153.31 254.51 C 155.05 262.33 158.42 270.06 161.58 277.43 C 164.75 284.79 168.84 292.52 172.29 298.71 C 175.75 304.90 178.83 308.99 182.32 314.56 C 185.81 320.14 190.17 326.44 193.24 332.16 C 196.30 337.88 198.73 343.47 200.72 348.88 C 202.71 354.30 204.19 359.98 205.18 364.63 C 206.16 369.29 206.70 372.78 206.63 376.82 C 206.55 380.86 206.30 385.43 204.71 388.89 C 203.12 392.34 200.41 395.46 197.09 397.56 C 193.77 399.66 188.92 401.18 184.80 401.50 C 180.67 401.82 177.19 401.30 172.37 399.49 C 167.55 397.68 161.04 394.16 155.88 390.63 C 150.72 387.10 146.11 382.56 141.39 378.29 C 136.67 374.03 131.62 368.90 127.58 365.05 C 123.54 361.19 120.77 358.58 117.14 355.16 C 113.51 351.75 109.57 347.66 105.79 344.56 C 102.01 341.46 97.99 338.67 94.48 336.54 C 90.97 334.41 87.53 332.79 84.73 331.78 C 81.93 330.77 79.96 330.24 77.69 330.49 C 75.42 330.75 72.76 331.51 71.10 333.30 C 69.44 335.09 68.47 338.50 67.74 341.23 C 67.01 343.95 66.89 346.92 66.71 349.64 C 66.52 352.37 66.58 354.65 66.62 357.57 C 66.67 360.50 66.95 364.32 66.97 367.19 C 66.98 370.05 67.01 372.53 66.73 374.77 C 66.46 377.02 66.02 379.18 65.31 380.67 C 64.60 382.15 63.82 383.16 62.47 383.68 C 61.13 384.20 59.11 384.19 57.24 383.76 C 55.37 383.33 53.33 382.77 51.25 381.10 C 49.17 379.43 46.70 376.67 44.76 373.73 C 42.82 370.79 41.13 367.74 39.59 363.45 C 38.06 359.17 36.63 353.77 35.53 348.01 C 34.42 342.25 33.22 335.65 32.95 328.91 C 32.67 322.17 33.19 314.25 33.85 307.58 C 34.52 300.91 35.29 295.86 36.95 288.90 C 38.60 281.95 40.99 273.39 43.79 265.85 C 46.58 258.32 49.64 251.09 53.71 243.68 C 57.77 236.26 63.45 227.88 68.18 221.39 C 72.91 214.89 76.32 210.44 82.08 204.72 C 87.85 199.00 95.59 192.53 102.77 187.08 C 109.95 181.63 117.56 176.59 125.18 172.02 C 132.81 167.45 141.52 163.16 148.53 159.66 C 155.53 156.15 160.47 153.98 167.22 150.99 C 173.97 147.99 182.33 144.86 189.03 141.68 C 195.73 138.50 201.74 135.14 207.40 131.88 C 213.06 128.63 218.37 124.97 222.98 122.13 C 227.59 119.30 231.16 117.61 235.05 114.89 C 238.94 112.18 243.20 108.90 246.33 105.83 C 249.46 102.77 251.72 99.62 253.81 96.49 C 255.90 93.37 257.81 89.89 258.87 87.08 C 259.92 84.28 260.50 82.22 260.16 79.64 C 259.82 77.07 259.09 73.95 256.83 71.65 C 254.56 69.36 250.75 66.93 246.57 65.88 C 242.39 64.82 236.59 65.01 231.75 65.33 C 226.91 65.65 223.08 65.79 217.54 67.81 C 212.00 69.84 204.62 73.31 198.51 77.48 C 192.39 81.65 186.32 86.57 180.86 92.83 C 175.40 99.09 169.70 107.72 165.76 115.04 C 161.83 122.36 159.32 128.28 157.24 136.75 C 155.15 145.23 153.12 156.02 153.24 165.91 C 153.36 175.80 155.23 186.47 157.94 196.08 C 160.65 205.69 165.19 215.77 169.52 223.57 C 173.84 231.38 177.84 236.69 183.89 242.91 C 189.94 249.13 198.09 256.41 205.85 260.89 C 213.60 265.37 222.21 268.46 230.43 269.80 C 238.65 271.14 248.10 270.26 255.19 268.94 C 262.29 267.63 267.17 265.38 273.01 261.92 C 278.85 258.45 285.85 253.48 290.23 248.17 C 294.62 242.86 297.66 236.41 299.31 230.03 C 300.96 223.66 301.03 215.89 300.14 209.91 C 299.26 203.93 297.12 199.41 293.99 194.15 C 290.86 188.89 286.73 182.23 281.37 178.33 C 276.02 174.44 268.82 171.72 261.85 170.77 C 254.89 169.82 246.32 170.82 239.60 172.61 C 232.88 174.41 227.22 177.00 221.52 181.53 C 215.82 186.06 209.28 192.62 205.40 199.78 C 201.52 206.93 198.70 216.12 198.23 224.46 C 197.75 232.80 199.76 242.72 202.56 249.82 C 205.36 256.91 209.31 262.17 215.05 267.02 C 220.78 271.87 229.30 277.00 236.97 278.92 C 244.64 280.85 253.65 280.36 261.06 278.55 C 268.47 276.75 275.97 272.02 281.42 268.09 C 286.87 264.16 290.62 260.62 293.74 254.97 C 296.86 249.32 299.37 241.08 300.15 234.17 C 300.92 227.26 300.16 220.00 298.38 213.51 C 296.60 207.02 293.02 200.33 289.48 195.21 C 285.93 190.10 282.19 186.47 277.11 182.83 C 272.04 179.19 265.32 175.70 259.03 173.38 C 252.75 171.05 246.01 169.64 239.38 168.87 C 232.75 168.09 225.39 167.96 219.24 168.72 C 213.10 169.47 208.34 171.22 202.53 173.40 C 196.71 175.57 190.16 178.87 184.35 181.78 C 178.54 184.68 172.98 187.67 167.65 190.82 C 162.32 193.98 156.81 197.85 152.37 200.71 C 147.93 203.57 145.16 205.80 141.01 207.97 C 136.86 210.15 131.65 212.16 127.47 213.74 C 123.28 215.31 119.75 216.98 115.89 217.42 C 112.04 217.85 107.53 217.21 104.33 216.33 C 101.13 215.46 99.20 214.13 96.70 212.17 C 94.19 210.21 91.11 207.67 89.31 204.57 C 87.51 201.46 86.46 197.56 85.91 193.52 C 85.36 189.48 85.41 184.64 86.02 180.34 C 86.63 176.04 87.24 172.44 89.56 167.72 C 91.88 162.99 95.26 156.94 99.92 151.98 C 104.59 147.02 110.66 141.91 117.54 137.95 C 124.43 133.98 133.57 130.47 141.22 128.20 C 148.86 125.93 155.04 124.68 163.42 124.31 C 171.81 123.93 182.16 124.28 191.50 125.94 C 200.84 127.60 210.58 130.44 219.46 134.25 C 228.34 138.06 237.66 143.61 244.80 148.79 C 251.93 153.97 256.49 158.89 262.29 165.34 C 268.09 171.79 274.43 180.04 279.59 187.50 C 284.75 194.96 288.98 202.92 293.26 210.10 C 297.54 217.28 301.65 224.62 305.26 230.56 C 308.87 236.51 311.15 240.68 314.90 245.77 C 318.64 250.85 323.39 256.39 327.73 261.06 C 332.07 265.73 336.48 270.11 340.93 273.78 C 345.37 277.45 350.14 280.82 354.39 283.07 C 358.64 285.33 362.13 286.43 366.42 287.32 C 370.71 288.21 375.69 288.91 380.11 288.42 C 384.53 287.92 388.97 286.56 392.94 284.34 C 396.91 282.13 401.18 278.72 403.93 275.13 C 406.67 271.53 408.44 268.00 409.41 262.76 C 410.38 257.53 411.05 250.52 409.77 243.71 C 408.48 236.90 405.77 228.76 401.70 221.91 C 397.62 215.05 391.06 207.98 385.32 202.61 C 379.58 197.24 374.65 193.33 367.25 189.67 C 359.85 186.02 349.96 182.41 340.89 180.67 C 331.82 178.94 322.00 178.56 312.84 179.26 C 303.68 179.96 293.82 182.18 285.92 184.87 C 278.03 187.56 271.83 190.26 265.48 195.40 C 259.13 200.55 252.20 208.31 247.83 215.71 C 243.46 223.12 240.37 231.87 239.26 239.85 C 238.15 247.83 239.37 256.76 241.15 263.61 C 242.93 270.47 245.61 275.76 249.95 280.98 C 254.29 286.20 260.85 292.07 267.20 294.94 C 273.55 297.80 281.15 298.59 288.06 298.16 C 294.98 297.72 302.94 295.09 308.69 292.33 C 314.44 289.57 318.66 286.55 322.57 281.61 C 326.49 276.66 330.10 269.39 332.18 262.65 C 334.26 255.91 334.90 248.33 335.03 241.16 C 335.16 234.00 333.55 225.99 332.96 219.69 C 332.36 213.38 331.87 209.12 331.45 203.34 C 331.03 197.55 330.29 190.71 330.44 184.98 C 330.59 179.25 331.10 173.68 332.35 168.95 C 333.61 164.21 335.68 159.74 337.97 156.57 C 340.27 153.40 342.64 151.50 346.12 149.91 C 349.60 148.31 354.34 146.45 358.86 146.99 C 363.39 147.52 368.82 149.81 373.27 153.10 C 377.73 156.39 382.24 162.02 385.61 166.73 C 388.97 171.43 390.89 175.80 393.48 181.36 C 396.06 186.92 398.92 193.75 401.13 200.11 C 403.35 206.46 405.19 212.85 406.75 219.49 C 408.31 226.12 409.53 233.97 410.49 239.93 C 411.45 245.88 411.46 249.95 412.52 255.21 C 413.57 260.46 415.12 266.57 416.80 271.45 C 418.47 276.33 420.36 281.09 422.57 284.50 C 424.77 287.91 427.65 290.15 430.02 291.93 C 432.39 293.72 434.30 295.17 436.77 295.21 C 439.24 295.24 442.48 294.21 444.85 292.16 C 447.21 290.11 449.25 286.72 450.95 282.90 C 452.65 279.09 454.16 273.84 455.06 269.25 C 455.95 264.66 456.64 260.81 456.32 255.39 C 456.01 249.97 455.05 243.17 453.15 236.71 C 451.25 230.26 448.27 223.27 444.93 216.67 C 441.58 210.06 437.19 202.89 433.08 197.09 C 428.97 191.28 425.50 187.07 420.29 181.84 C 415.08 176.61 408.51 170.54 401.83 165.71 C 395.15 160.88 387.88 156.59 380.21 152.87 C 372.53 149.15 363.38 145.76 355.77 143.38 C 348.15 141.01 342.39 139.58 334.51 138.61 C 326.63 137.63 317.19 136.99 308.48 137.55 C 299.77 138.11 290.83 139.52 282.25 141.96 C 273.66 144.41 264.25 148.47 256.96 152.20 C 249.68 155.93 244.52 158.92 238.55 164.37 C 232.57 169.81 225.86 177.47 221.09 184.85 C 216.33 192.23 212.32 200.51 209.98 208.66 C 207.64 216.81 207.04 226.12 207.06 233.75 C 207.07 241.38 207.96 247.24 210.07 254.44 C 212.18 261.64 215.50 270.32 219.74 276.93 C 223.97 283.54 229.63 289.46 235.49 294.12 C 241.35 298.78 248.62 302.72 254.91 304.88 C 261.20 307.03 266.69 307.43 273.25 307.05 C 279.81 306.67 287.80 305.56 294.27 302.59 C 300.74 299.62 307.21 294.52 312.08 289.22 C 316.95 283.93 320.92 276.89 323.49 270.79 C 326.06 264.69 327.27 259.32 327.50 252.63 C 327.74 245.95 327.04 237.57 324.89 230.66 C 322.75 223.75 318.91 217.11 314.63 211.18 C 310.35 205.24 304.54 199.30 299.21 195.04 C 293.89 190.79 288.83 188.57 282.68 185.63 C 276.52 182.69 268.95 179.59 262.27 177.40 C 255.60 175.21 249.18 173.82 242.64 172.48 C 236.11 171.15 228.86 170.37 223.05 169.40 C 217.24 168.43 213.12 167.67 207.78 166.68 C 202.45 165.69 196.17 164.89 191.04 163.44 C 185.90 161.99 181.10 160.15 176.97 157.99 C 172.85 155.82 169.19 152.96 166.29 150.45 C 163.39 147.94 161.40 145.92 159.56 142.92 C 157.73 139.93 156.09 136.08 155.29 132.50 C 154.50 128.92 154.22 125.36 154.80 121.44 C 155.39 117.52 156.91 112.61 158.79 108.97 C 160.68 105.33 162.60 102.83 166.10 99.60 C 169.59 96.37 174.53 92.32 179.79 89.61 C 185.04 86.89 191.14 84.74 197.62 83.31 C 204.09 81.88 211.95 81.16 218.65 81.05 C 225.35 80.95 230.82 81.07 237.83 82.68 C 244.85 84.28 253.10 86.90 260.73 90.68 C 268.36 94.45 276.48 99.80 283.60 105.33 C 290.72 110.86 297.72 117.88 303.45 123.85 C 309.18 129.82 313.13 134.82 317.99 141.14 C 322.86 147.45 327.91 155.13 332.64 161.75 C 337.37 168.37 341.82 175.19 346.36 180.88 C 350.91 186.57 355.71 191.80 359.91 195.90 C 364.12 200.01 367.46 202.48 371.58 205.54 C 375.69 208.60 380.21 212.28 384.60 214.26 C 389.00 216.24 393.90 217.22 397.96 217.43 C 402.01 217.64 405.97 216.68 408.91 215.51 C 411.86 214.35 413.40 212.63 415.65 210.44 C 417.90 208.26 420.31 204.98 422.41 202.37 C 424.50 199.77 426.36 197.31 428.22 194.82 C 430.08 192.33 431.82 189.54 433.55 187.43 C 435.29 185.33 436.71 183.39 438.64 182.19 C 440.57 180.99 442.71 180.07 445.13 180.24 C 447.55 180.41 450.65 181.51 453.15 183.20 C 455.66 184.89 458.31 187.53 460.18 190.38 C 462.04 193.23 463.33 195.70 464.34 200.32 C 465.35 204.95 466.63 211.64 466.24 218.14 C 465.85 224.64 464.14 231.97 461.98 239.32 C 459.81 246.66 456.08 255.26 453.25 262.21 C 450.42 269.16 448.03 274.55 444.99 281.00 C 441.95 287.45 437.82 294.62 435.00 300.94 C 432.18 307.25 429.66 313.39 428.06 318.90 C 426.46 324.42 425.78 329.83 425.41 334.03 C 425.04 338.23 425.15 341.03 425.87 344.10 C 426.58 347.18 428.01 350.61 429.70 352.48 C 431.39 354.34 433.50 355.50 436.01 355.30 C 438.52 355.09 442.28 353.36 444.76 351.25 C 447.25 349.14 448.95 346.45 450.92 342.63 C 452.89 338.82 455.11 333.66 456.58 328.36 C 458.05 323.07 458.80 316.71 459.72 310.87 C 460.63 305.03 461.28 298.44 462.06 293.30 C 462.84 288.16 463.44 284.36 464.38 280.03 C 465.32 275.70 466.47 271.03 467.72 267.31 C 468.97 263.60 470.20 260.21 471.87 257.75 C 473.53 255.30 475.97 253.46 477.71 252.59 C 479.45 251.72 480.88 251.81 482.29 252.55 C 483.71 253.30 485.06 254.99 486.22 257.04 C 487.38 259.10 488.75 261.64 489.25 264.90 C 489.75 268.15 489.54 272.66 489.22 276.58 C 488.89 280.50 488.45 283.75 487.31 288.45 C 486.17 293.15 484.86 299.26 482.38 304.78 C 479.90 310.31 476.65 315.96 472.45 321.59 C 468.25 327.22 462.69 333.45 457.18 338.56 C 451.68 343.67 446.79 347.86 439.44 352.28 C 432.09 356.69 422.18 361.58 413.07 365.03 C 403.96 368.49 394.59 371.34 384.79 373.03 C 374.99 374.72 363.43 375.33 354.25 375.19 C 345.06 375.06 338.53 374.06 329.69 372.22 C 320.85 370.37 310.28 367.98 301.21 364.13 C 292.15 360.29 282.93 355.11 275.32 349.13 C 267.72 343.15 261.02 334.90 255.58 328.24 C 250.13 321.57 246.49 316.32 242.67 309.14 C 238.86 301.96 235.13 293.17 232.70 285.15 C 230.27 277.14 228.56 268.93 228.08 261.04 C 227.60 253.15 228.58 244.58 229.81 237.84 C 231.05 231.09 232.49 226.43 235.48 220.59 C 238.47 214.75 243.03 207.88 247.75 202.82 C 252.46 197.75 258.01 193.50 263.78 190.22 C 269.55 186.93 276.56 184.55 282.36 183.12 C 288.17 181.69 292.75 181.40 298.62 181.63 C 304.49 181.86 311.48 182.57 317.59 184.50 C 323.70 186.44 329.85 189.45 335.27 193.26 C 340.70 197.07 346.19 202.59 350.14 207.36 C 354.09 212.12 356.45 216.02 358.97 221.83 C 361.49 227.64 364.04 235.21 365.24 242.21 C 366.44 249.20 366.77 256.63 366.16 263.81 C 365.56 270.99 363.93 278.87 361.60 285.29 C 359.26 291.70 356.48 296.58 352.17 302.32 C 347.86 308.06 342.07 315.12 335.73 319.74 C 329.38 324.35 321.92 327.70 314.10 330.02 C 306.28 332.34 296.59 333.64 288.80 333.66 C 281.01 333.69 274.68 332.70 267.38 330.15 C 260.09 327.61 251.57 323.44 245.01 318.40 C 238.45 313.37 232.31 306.86 228.03 299.94 C 223.76 293.02 220.78 284.16 219.37 276.88 C 217.97 269.61 218.29 263.35 219.61 256.29 C 220.93 249.23 223.35 240.82 227.32 234.52 C 231.29 228.23 237.41 222.73 243.44 218.52 C 249.46 214.30 257.26 211.40 263.47 209.24 C 269.69 207.08 274.50 206.56 280.73 205.56 C 286.97 204.57 294.44 203.92 300.88 203.28 C 307.31 202.63 313.41 202.12 319.34 201.69 C 325.28 201.27 331.33 201.08 336.47 200.74 C 341.61 200.40 345.67 200.36 350.20 199.64 C 354.73 198.93 359.40 198.07 363.63 196.46 C 367.86 194.86 372.08 192.44 375.56 190.01 C 379.04 187.59 382.19 184.63 384.50 181.94 C 386.82 179.26 388.18 177.27 389.47 173.91 C 390.76 170.55 392.09 165.92 392.26 161.79 C 392.44 157.66 391.90 153.63 390.52 149.12 C 389.13 144.61 386.85 138.98 383.95 134.73 C 381.05 130.48 377.94 127.29 373.13 123.64 C 368.31 119.99 361.83 115.70 355.06 112.82 C 348.29 109.95 340.62 107.27 332.49 106.38 C 324.35 105.49 314.31 106.17 306.25 107.49 C 298.19 108.81 291.94 110.71 284.15 114.29 C 276.35 117.86 266.77 122.66 259.47 128.94 C 252.17 135.22 245.63 143.61 240.35 151.98 C 235.08 160.36 230.42 170.73 227.82 179.20 C 225.21 187.67 224.42 194.46 224.71 202.80 C 225.00 211.14 226.69 221.01 229.54 229.23 C 232.38 237.44 236.84 245.58 241.77 252.07 C 246.70 258.55 253.30 264.16 259.10 268.14 C 264.91 272.12 270.26 274.28 276.61 275.95 C 282.96 277.63 290.60 278.79 297.20 278.18 C 303.80 277.57 310.57 275.08 316.20 272.30 C 321.84 269.52 327.08 265.67 331.01 261.47 C 334.95 257.27 337.90 252.86 339.83 247.12 C 341.75 241.37 343.14 233.80 342.56 226.98 C 341.99 220.16 339.81 212.58 336.38 206.19 C 332.94 199.79 327.10 193.17 321.93 188.58 C 316.77 183.99 312.04 181.28 305.39 178.62 C 298.73 175.96 290.00 172.85 282.00 172.60 C 274.00 172.36 264.79 173.61 257.37 177.13 C 249.95 180.65 242.50 187.72 237.47 193.70 C 232.44 199.69 229.27 205.54 227.19 213.05 C 225.12 220.57 223.99 230.59 225.02 238.80 C 226.06 247.00 229.76 255.26 233.41 262.27 C 237.06 269.28 242.37 275.65 246.92 280.84 C 251.48 286.03 255.63 289.28 260.76 293.39 C 265.90 297.50 272.12 301.92 277.75 305.48 C 283.38 309.04 289.05 311.98 294.56 314.77 C 300.06 317.56 306.03 319.92 310.78 322.20 C 315.53 324.48 319.00 325.87 323.05 328.45 C 327.09 331.03 331.51 334.53 335.06 337.70 C 338.61 340.87 341.79 343.91 344.34 347.49 C 346.88 351.07 348.84 355.59 350.33 359.18 C 351.81 362.77 352.54 365.44 353.27 369.04 C 354.00 372.63 354.15 377.05 354.69 380.76 C 355.24 384.47 355.64 388.19 356.54 391.30 C 357.43 394.41 358.68 397.17 360.08 399.43 C 361.48 401.69 362.86 403.17 364.95 404.85 C 367.04 406.54 369.81 408.68 372.61 409.54 C 375.42 410.40 378.57 410.42 381.77 410.00 C 384.98 409.58 388.55 408.50 391.83 407.02 C 395.10 405.54 397.96 404.05 401.41 401.12 C 404.86 398.19 409.07 394.03 412.52 389.43 C 415.96 384.82 419.04 378.75 422.06 373.50 C 425.08 368.25 428.14 362.75 430.64 357.93 C 433.15 353.10 434.97 349.45 437.07 344.55 C 439.18 339.64 441.17 333.36 443.28 328.51 C 445.39 323.65 447.50 319.24 449.73 315.40 C 451.96 311.56 454.59 308.02 456.66 305.47 C 458.74 302.92 460.17 301.49 462.17 300.10 C 464.16 298.72 466.64 297.52 468.62 297.16 C 470.60 296.79 472.54 296.74 474.06 297.91 C 475.59 299.08 477.11 301.62 477.78 304.17 C 478.44 306.73 478.77 309.40 478.07 313.24 C 477.37 317.08 476.21 322.12 473.59 327.19 C 470.98 332.27 467.40 338.23 462.39 343.68 C 457.38 349.13 450.10 355.35 443.54 359.91 C 436.99 364.46 431.37 367.93 423.06 371.03 C 414.76 374.14 403.91 377.25 393.73 378.54 C 383.54 379.82 372.45 380.22 361.95 378.74 C 351.46 377.27 339.80 373.54 330.76 369.69 C 321.72 365.85 315.14 361.84 307.71 355.67 C 300.29 349.50 291.97 340.83 286.23 332.68 C 280.48 324.54 275.83 315.63 273.25 306.80 C 270.66 297.96 270.42 287.52 270.71 279.67 C 271.00 271.82 272.01 265.96 274.97 259.70 C 277.93 253.45 283.17 246.40 288.47 242.16 C 293.76 237.92 300.57 235.10 306.77 234.28 C 312.97 233.45 320.48 235.05 325.67 237.22 C 330.85 239.40 334.62 242.56 337.88 247.30 C 341.15 252.04 344.57 259.04 345.24 265.68 C 345.90 272.32 344.67 280.39 341.86 287.15 C 339.06 293.90 333.62 301.13 328.41 306.20 C 323.20 311.27 317.68 314.66 310.59 317.56 C 303.51 320.46 294.12 322.99 285.89 323.60 C 277.67 324.22 269.12 323.33 261.24 321.25 C 253.35 319.17 244.88 314.96 238.57 311.13 C 232.25 307.31 228.00 303.89 223.35 298.31 C 218.70 292.73 213.71 284.76 210.66 277.67 C 207.62 270.58 205.99 263.12 205.07 255.76 C 204.15 248.40 204.01 240.15 205.14 233.53 C 206.26 226.91 208.50 221.83 211.81 216.05 C 215.12 210.28 219.99 203.93 225.00 198.89 C 230.01 193.86 235.94 189.66 241.86 185.83 C 247.79 182.00 254.94 178.55 260.56 175.89 C 266.17 173.24 270.09 171.74 275.55 169.89 C 281.00 168.03 287.55 166.26 293.28 164.75 C 299.01 163.24 304.80 162.36 309.94 160.81 C 315.07 159.26 320.10 157.31 324.09 155.45 C 328.07 153.59 330.56 151.86 333.86 149.65 C 337.16 147.43 340.95 144.92 343.88 142.17 C 346.81 139.41 349.33 136.24 351.45 133.12 C 353.57 130.01 355.29 126.38 356.60 123.50 C 357.91 120.62 358.11 118.47 359.31 115.87 C 360.51 113.27 361.99 110.15 363.79 107.90 C 365.59 105.64 367.47 103.38 370.10 102.32 C 372.73 101.26 376.36 101.14 379.57 101.54 C 382.77 101.94 385.73 102.34 389.33 104.74 C 392.93 107.14 397.50 111.18 401.17 115.96 C 404.84 120.73 408.73 126.74 411.35 133.38 C 413.97 140.02 415.84 148.47 416.87 155.79 C 417.91 163.12 418.40 169.10 417.54 177.33 C 416.67 185.57 414.95 196.23 411.70 205.20 C 408.45 214.17 403.54 222.85 398.04 231.18 C 392.54 239.51 385.19 248.57 378.68 255.18 C 372.17 261.79 366.56 265.92 358.97 270.84 C 351.39 275.77 341.98 281.07 333.15 284.74 C 324.32 288.41 314.84 291.08 305.98 292.87 C 297.12 294.66 287.75 295.48 279.97 295.49 C 272.19 295.50 266.51 294.69 259.31 292.92 C 252.10 291.15 243.72 288.39 236.72 284.87 C 229.72 281.35 222.86 276.98 217.32 271.81 C 211.78 266.64 207.15 259.34 203.47 253.83 C 199.80 248.32 197.82 244.28 195.28 238.73 C 192.74 233.19 190.57 226.27 188.24 220.56 C 185.92 214.85 183.87 209.45 181.34 204.48 C 178.81 199.52 175.60 194.71 173.06 190.77 C 170.52 186.83 168.82 184.14 166.08 180.84 C 163.34 177.55 159.84 173.84 156.62 171.01 C 153.39 168.18 150.27 165.69 146.73 163.88 C 143.18 162.06 139.01 160.59 135.34 160.12 C 131.67 159.65 128.49 160.04 124.70 161.04 C 120.92 162.05 116.50 164.20 112.63 166.15 C 108.75 168.09 105.05 170.52 101.45 172.71 C 97.86 174.89 94.10 177.42 91.06 179.28 C 88.01 181.14 86.02 182.53 83.20 183.85 C 80.38 185.18 77.04 186.45 74.14 187.21 C 71.24 187.97 68.36 188.09 65.82 188.44 C 63.27 188.78 60.90 189.24 58.88 189.28 C 56.86 189.33 55.27 189.56 53.69 188.70 C 52.11 187.83 50.43 186.12 49.40 184.09 C 48.37 182.06 47.48 179.65 47.53 176.52 C 47.58 173.40 48.34 169.13 49.70 165.35 C 51.06 161.57 52.80 158.11 55.68 153.84 C 58.57 149.58 62.11 144.33 67.03 139.76 C 71.95 135.19 78.32 130.31 85.19 126.43 C 92.06 122.54 100.69 118.80 108.27 116.48 C 115.85 114.15 122.08 113.16 130.69 112.47 C 139.30 111.78 150.09 111.53 159.92 112.36 C 169.76 113.19 180.07 114.40 189.69 117.44 C 199.30 120.49 209.63 125.75 217.61 130.64 C 225.59 135.54 231.18 140.13 237.56 146.82 C 243.94 153.51 251.24 162.21 255.91 170.79 C 260.58 179.38 263.42 189.13 265.56 198.33 C 267.70 207.52 268.78 217.79 268.73 225.96 C 268.69 234.13 267.49 240.24 265.31 247.35 C 263.12 254.47 259.72 262.33 255.63 268.64 C 251.55 274.95 246.20 280.73 240.78 285.21 C 235.36 289.69 228.65 293.04 223.12 295.54 C 217.60 298.03 213.38 299.48 207.63 300.17 C 201.88 300.87 194.66 300.89 188.62 299.70 C 182.58 298.51 176.78 295.86 171.39 293.05 C 166.00 290.24 160.34 286.64 156.27 282.86 C 152.21 279.07 149.44 275.58 147.01 270.33 C 144.59 265.07 142.26 258.09 141.72 251.32 C 141.18 244.55 141.40 236.66 143.78 229.70 C 146.16 222.74 151.16 215.14 156.03 209.54 C 160.89 203.94 165.92 199.69 172.97 196.09 C 180.03 192.49 189.67 188.99 198.35 187.95 C 207.03 186.91 216.50 187.46 225.07 189.84 C 233.64 192.22 243.19 197.35 249.79 202.23 C 256.38 207.10 260.55 212.41 264.64 219.09 C 268.73 225.77 271.93 234.54 274.32 242.31 C 276.72 250.09 278.07 258.05 279.02 265.75 C 279.97 273.44 279.99 281.88 280.02 288.48 C 280.05 295.08 279.04 299.34 279.21 305.35 C 279.39 311.35 280.25 318.54 281.06 324.51 C 281.88 330.49 282.51 336.13 284.08 341.21 C 285.66 346.29 288.25 351.11 290.48 354.99 C 292.72 358.87 294.33 361.58 297.50 364.51 C 300.66 367.45 304.95 370.83 309.47 372.58 C 313.98 374.34 319.30 375.22 324.60 375.04 C 329.90 374.87 336.34 373.51 341.27 371.53 C 346.20 369.56 349.79 367.41 354.20 363.19 C 358.60 358.96 364.35 352.91 367.68 346.20 C 371.01 339.50 373.41 331.39 374.19 322.94 C 374.97 314.50 374.23 303.80 372.37 295.52 C 370.52 287.24 367.95 280.52 363.06 273.25 C 358.17 265.97 350.79 257.27 343.02 251.89 C 335.26 246.50 325.55 242.51 316.48 240.94 C 307.41 239.37 296.40 240.81 288.60 242.47 C 280.81 244.13 275.62 246.70 269.70 250.89 C 263.77 255.07 257.52 261.58 253.03 267.57 C 248.54 273.56 245.58 280.45 242.78 286.82 C 239.97 293.20 238.31 300.19 236.21 305.82 C 234.12 311.45 232.42 315.44 230.20 320.59 C 227.99 325.75 225.72 331.85 222.90 336.76 C 220.08 341.67 216.91 346.22 213.29 350.05 C 209.68 353.88 205.27 357.62 201.20 359.74 C 197.13 361.85 193.68 362.69 188.87 362.77 C 184.07 362.84 177.77 362.11 172.35 360.21 C 166.92 358.31 161.39 355.05 156.31 351.37 C 151.24 347.69 146.06 342.27 141.90 338.12 C 137.73 333.98 134.95 331.01 131.34 326.52 C 127.72 322.03 123.57 316.30 120.19 311.19 C 116.82 306.09 114.09 300.65 111.10 295.88 C 108.11 291.11 104.95 286.27 102.23 282.58 C 99.51 278.89 97.66 276.20 94.76 273.72 C 91.86 271.24 88.02 268.91 84.83 267.69 C 81.64 266.47 78.46 266.41 75.60 266.41 C 72.74 266.42 69.96 266.82 67.66 267.71 C 65.36 268.60 63.74 269.69 61.80 271.76 C 59.86 273.84 57.43 276.92 56.03 280.16 C 54.62 283.41 53.75 287.12 53.35 291.22 C 52.95 295.33 52.91 300.26 53.64 304.80 C 54.36 309.33 55.70 313.39 57.72 318.43 C 59.73 323.47 62.54 329.62 65.71 335.04 C 68.89 340.46 72.45 345.69 76.74 350.96 C 81.04 356.22 86.56 362.07 91.49 366.62 C 96.41 371.18 100.70 374.28 106.29 378.29 C 111.89 382.30 118.35 387.02 125.05 390.67 C 131.75 394.31 139.35 397.35 146.49 400.15 C 153.63 402.94 161.67 405.03 167.87 407.44 C 174.07 409.84 178.52 412.01 183.69 414.57 C 188.86 417.13 194.96 419.89 198.89 422.80 C 202.83 425.71 205.57 429.11 207.29 432.03 C 209.01 434.95 209.33 437.82 209.19 440.30 C 209.06 442.78 208.52 445.27 206.46 446.90 C 204.40 448.53 200.67 449.96 196.82 450.08 C 192.96 450.19 188.18 449.43 183.32 447.57 C 178.46 445.70 172.45 442.58 167.67 438.90 C 162.88 435.22 158.77 431.86 154.63 425.48 C 150.48 419.09 145.30 409.80 142.77 400.57 C 140.25 391.35 139.05 380.44 139.48 370.14 C 139.90 359.84 142.26 348.05 145.33 338.79 C 148.40 329.54 152.01 322.29 157.90 314.58 C 163.80 306.88 172.39 298.20 180.70 292.57 C 189.01 286.94 198.96 282.68 207.79 280.80 C 216.61 278.92 226.31 279.85 233.66 281.30 C 241.01 282.74 246.82 285.40 251.88 289.47 C 256.94 293.55 261.66 299.94 264.02 305.74 C 266.39 311.53 266.59 318.22 266.08 324.25 C 265.57 330.27 262.83 336.85 260.94 341.89 C 259.05 346.92 257.07 350.07 254.73 354.44 C 252.39 358.81 249.55 363.79 246.93 368.09 C 244.30 372.39 241.48 376.42 238.99 380.24 C 236.51 384.06 233.60 387.67 232.04 391.00 C 230.47 394.33 229.70 396.77 229.59 400.23 C 229.48 403.68 230.05 408.23 231.39 411.73 C 232.73 415.22 234.65 418.40 237.63 421.20 C 240.61 424.00 244.86 427.09 249.28 428.53 C 253.70 429.97 258.31 430.43 264.15 429.85 C 269.99 429.27 277.59 428.06 284.33 425.04 C 291.07 422.03 298.28 417.35 304.59 411.77 C 310.90 406.18 317.63 398.53 322.19 391.55 C 326.75 384.56 329.70 378.31 331.97 369.87 C 334.24 361.43 336.08 350.64 335.80 340.90 C 335.53 331.17 333.68 320.58 330.31 311.47 C 326.93 302.36 321.05 292.86 315.55 286.25 C 310.05 279.65 304.54 275.60 297.29 271.86 C 290.04 268.12 280.28 264.74 272.03 263.80 C 263.78 262.85 255.27 264.55 247.80 266.17 C 240.32 267.79 233.04 270.92 227.18 273.51 C 221.32 276.09 217.36 278.29 212.65 281.67 C 207.94 285.06 203.18 289.54 198.92 293.81 C 194.66 298.09 190.89 303.17 187.11 307.32 C 183.33 311.47 179.51 315.35 176.24 318.72 C 172.98 322.09 170.75 324.68 167.52 327.54 C 164.29 330.41 160.52 333.55 156.88 335.92 C 153.24 338.29 149.38 340.26 145.69 341.79 C 141.99 343.31 138.06 344.19 134.71 345.09 C 131.36 346.00 128.74 346.24 125.58 347.23 C 122.42 348.22 118.55 349.47 115.73 351.03 C 112.91 352.59 110.67 354.44 108.64 356.58 C 106.62 358.72 104.75 361.33 103.56 363.86 C 102.37 366.38 101.40 368.57 101.48 371.73 C 101.57 374.89 102.61 378.93 104.08 382.83 C 105.55 386.74 107.23 391.22 110.30 395.15 C 113.37 399.08 118.15 403.10 122.51 406.42 C 126.87 409.74 130.70 412.43 136.48 415.08 C 142.25 417.73 149.61 420.79 157.15 422.32 C 164.69 423.85 173.17 424.44 181.71 424.25 C 190.26 424.06 200.22 423.04 208.43 421.18 C 216.64 419.31 223.07 417.03 230.98 413.07 C 238.88 409.12 248.34 403.58 255.88 397.43 C 263.42 391.29 270.44 384.14 276.22 376.22 C 281.99 368.30 287.15 358.15 290.54 349.92 C 293.93 341.69 295.46 335.31 296.54 326.83 C 297.61 318.35 298.21 307.90 297.01 299.06 C 295.81 290.21 292.90 281.50 289.34 273.75 C 285.78 266.00 280.52 258.08 275.65 252.53 C 270.78 246.98 266.17 243.80 260.11 240.44 C 254.05 237.07 246.18 234.08 239.27 232.34 C 232.36 230.60 225.48 229.78 218.66 229.98 C 211.83 230.18 204.07 231.65 198.32 233.55 C 192.57 235.46 188.62 237.91 184.15 241.42 C 179.68 244.92 174.81 249.49 171.48 254.59 C 168.16 259.70 165.69 265.85 164.21 272.02 C 162.73 278.19 162.45 285.65 162.60 291.62 C 162.75 297.59 163.70 301.96 165.13 307.85 C 166.55 313.74 168.25 320.94 171.14 326.98 C 174.02 333.03 177.81 339.06 182.43 344.11 C 187.05 349.16 193.29 353.94 198.86 357.26 C 204.42 360.58 209.24 362.26 215.82 364.03 C 222.40 365.81 230.67 367.85 238.36 367.92 C 246.06 367.98 254.24 366.63 262.00 364.42 C 269.75 362.22 278.31 358.32 284.88 354.67 C 291.45 351.02 296.13 347.82 301.40 342.52 C 306.68 337.23 312.24 329.85 316.53 322.89 C 320.81 315.93 324.66 308.53 327.12 300.77 C 329.58 293.01 330.52 283.73 331.29 276.32 C 332.06 268.92 331.89 263.48 331.75 256.34 C 331.61 249.19 331.27 240.65 330.45 233.43 C 329.63 226.21 328.01 219.61 326.85 213.00 C 325.70 206.39 324.56 199.42 323.54 193.78 C 322.52 188.14 321.35 184.35 320.76 179.17 C 320.16 173.99 319.80 167.83 319.99 162.70 C 320.18 157.56 320.66 152.74 321.90 148.35 C 323.13 143.97 325.54 139.83 327.40 136.39 C 329.26 132.95 330.40 130.14 333.04 127.74 C 335.67 125.34 339.45 123.07 343.22 122.00 C 346.99 120.94 351.40 120.89 355.64 121.34 C 359.89 121.79 364.62 123.09 368.69 124.70 C 372.77 126.30 376.06 127.87 380.09 130.96 C 384.12 134.04 388.83 138.62 392.88 143.20 C 396.94 147.79 401.22 152.74 404.44 158.48 C 407.65 164.22 410.35 171.41 412.19 177.63 C 414.04 183.85 414.81 188.90 415.51 195.80 C 416.21 202.70 416.62 211.22 416.39 219.04 C 416.16 226.85 415.52 234.95 414.14 242.70 C 412.75 250.44 410.30 258.70 408.07 265.53 C 405.84 272.35 403.21 277.13 400.78 283.66 C 398.35 290.20 395.67 298.15 393.49 304.74 C 391.30 311.33 389.52 317.43 387.67 323.22 C 385.82 329.00 383.59 334.62 382.37 339.43 C 381.16 344.25 380.55 348.03 380.37 352.09 C 380.19 356.15 380.17 360.34 381.28 363.80 C 382.39 367.26 385.00 370.43 387.03 372.86 C 389.06 375.29 391.25 377.12 393.48 378.40 C 395.70 379.69 397.69 380.29 400.37 380.55 C 403.06 380.82 406.56 380.25 409.59 380.01 C 412.62 379.78 415.71 379.51 418.58 379.15 C 421.45 378.79 424.64 377.85 426.81 377.86 C 428.98 377.87 430.08 378.28 431.60 379.23 C 433.11 380.18 435.32 381.45 435.90 383.55 C 436.48 385.64 436.24 388.72 435.06 391.79 C 433.88 394.87 431.67 398.74 428.81 401.99 C 425.95 405.24 422.96 408.17 417.88 411.30 C 412.80 414.43 405.65 418.36 398.32 420.78 C 390.99 423.19 382.69 425.00 373.90 425.77 C 365.11 426.55 354.28 426.11 345.60 425.42 C 336.91 424.73 330.36 423.73 321.81 421.62 C 313.25 419.52 303.08 415.96 294.27 412.81 C 285.45 409.65 277.11 406.02 268.94 402.69 C 260.76 399.36 252.16 395.75 245.21 392.83 C 238.25 389.92 233.53 387.70 227.20 385.19 C 220.87 382.68 213.62 379.65 207.25 377.77 C 200.88 375.88 194.65 374.75 189.00 373.89 C 183.35 373.04 178.01 372.72 173.36 372.63 C 168.70 372.55 164.88 372.51 161.07 373.39 C 157.25 374.27 153.36 375.86 150.46 377.91 C 147.56 379.96 145.19 382.78 143.67 385.68 C 142.15 388.59 141.37 392.15 141.33 395.34 C 141.29 398.52 141.66 401.46 143.44 404.79 C 145.21 408.11 148.19 411.95 151.97 415.30 C 155.75 418.66 160.57 422.33 166.14 424.90 C 171.71 427.47 179.09 429.51 185.39 430.72 C 191.69 431.94 196.95 432.46 203.93 432.18 C 210.91 431.90 219.43 430.67 227.29 429.04 C 235.15 427.41 243.28 425.46 251.10 422.38 C 258.92 419.30 267.38 414.71 274.20 410.56 C 281.03 406.42 285.83 402.62 292.05 397.53 C 298.27 392.43 305.38 385.47 311.52 379.98 C 317.67 374.49 323.28 369.71 328.93 364.59 C 334.57 359.47 340.53 353.58 345.38 349.28 C 350.24 344.99 353.40 342.21 358.05 338.83 C 362.70 335.45 368.35 331.46 373.27 329.02 C 378.19 326.57 383.13 325.30 387.57 324.16 C 392.01 323.03 396.40 322.33 399.92 322.20 C 403.44 322.07 405.87 322.52 408.68 323.39 C 411.49 324.27 414.37 325.53 416.77 327.45 C 419.16 329.38 421.60 332.05 423.07 334.95 C 424.54 337.85 425.21 341.51 425.58 344.85 C 425.95 348.19 426.45 351.04 425.27 355.00 C 424.09 358.96 421.76 363.96 418.50 368.59 C 415.24 373.23 410.67 378.38 405.70 382.82 C 400.73 387.25 394.52 391.88 388.69 395.19 C 382.85 398.49 378.00 400.71 370.68 402.66 C 363.37 404.61 353.65 406.36 344.78 406.88 C 335.91 407.40 326.59 407.22 317.47 405.78 C 308.35 404.35 298.18 401.42 290.06 398.26 C 281.94 395.09 275.72 392.19 268.74 386.79 C 261.75 381.39 253.84 373.64 248.15 365.85 C 242.46 358.05 237.55 348.98 234.61 340.03 C 231.68 331.08 230.61 320.56 230.53 312.14 C 230.45 303.73 231.60 297.21 234.13 289.56 C 236.66 281.90 240.72 272.52 245.73 266.22 C 250.74 259.91 257.59 254.78 264.18 251.74 C 270.78 248.70 278.94 247.73 285.29 248.00 C 291.64 248.27 297.28 250.00 302.30 253.34 C 307.32 256.69 312.32 262.29 315.42 268.07 C 318.52 273.84 320.61 281.32 320.91 288.01 C 321.20 294.70 319.40 302.35 317.18 308.22 C 314.95 314.10 311.95 318.47 307.57 323.26 C 303.18 328.05 297.22 333.42 290.86 336.97 C 284.50 340.52 276.64 343.02 269.40 344.53 C 262.16 346.05 254.07 346.26 247.40 346.04 C 240.74 345.82 235.81 345.12 229.39 343.20 C 222.97 341.28 215.15 338.48 208.87 334.53 C 202.59 330.58 196.85 325.12 191.73 319.50 C 186.62 313.87 181.60 306.82 178.18 300.78 C 174.75 294.75 173.11 289.95 171.17 283.27 C 169.22 276.59 166.98 268.27 166.49 260.71 C 166.00 253.15 166.66 245.32 168.23 237.90 C 169.80 230.48 172.91 222.38 175.92 216.19 C 178.92 210.01 181.93 206.02 186.25 200.78 C 190.57 195.54 196.26 189.59 201.82 184.76 C 207.38 179.92 213.32 175.36 219.62 171.77 C 225.92 168.18 233.43 165.12 239.63 163.24 C 245.84 161.35 250.38 160.86 256.85 160.44 C 263.32 160.01 271.43 160.27 278.46 160.70 C 285.49 161.13 292.40 162.22 299.03 163.00 C 305.66 163.77 312.70 164.76 318.25 165.37 C 323.80 165.98 327.31 166.28 332.34 166.64 C 337.38 166.99 343.34 167.39 348.46 167.51 C 353.58 167.62 358.48 167.61 363.05 167.30 C 367.62 166.99 372.35 166.73 375.86 165.64 C 379.37 164.55 381.71 162.76 384.10 160.76 C 386.49 158.75 388.61 156.38 390.20 153.59 C 391.78 150.80 392.90 147.34 393.61 144.01 C 394.31 140.68 394.38 136.89 394.41 133.59 C 394.45 130.30 395.02 127.82 393.79 124.24 C 392.56 120.67 389.96 116.03 387.02 112.15 C 384.07 108.26 380.47 104.41 376.13 100.93 C 371.78 97.46 366.01 93.99 360.96 91.31 C 355.92 88.63 351.87 86.63 345.86 84.85 C 339.85 83.07 332.11 81.60 324.90 80.63 C 317.68 79.67 310.18 78.78 302.57 79.06 C 294.97 79.35 286.55 80.71 279.27 82.35 C 271.99 83.99 266.14 86.16 258.89 88.91 C 251.64 91.67 243.07 95.68 235.77 98.87 C 228.48 102.06 221.89 105.16 215.11 108.04 C 208.32 110.92 200.76 114.04 195.06 116.15 C 189.37 118.25 185.85 119.54 180.95 120.68 C 176.04 121.82 170.28 122.85 165.65 123.02 C 161.03 123.19 156.66 122.66 153.19 121.70 C 149.72 120.74 146.89 118.99 144.84 117.24 C 142.78 115.48 141.57 113.72 140.87 111.18 C 140.16 108.64 139.59 105.22 140.60 102.00 C 141.60 98.78 143.73 95.15 146.90 91.87 C 150.07 88.59 155.02 84.74 159.62 82.30 C 164.22 79.86 168.38 78.49 174.48 77.23 C 180.58 75.96 188.65 74.78 196.23 74.72 C 203.82 74.67 211.88 75.27 219.99 76.88 C 228.11 78.49 237.48 81.31 244.90 84.37 C 252.33 87.44 257.63 90.67 264.55 95.28 C 271.48 99.88 279.57 106.00 286.45 112.02 C 293.32 118.04 300.08 124.52 305.78 131.38 C 311.48 138.24 316.45 146.20 320.66 153.20 C 324.87 160.20 327.83 166.12 331.04 173.39 C 334.26 180.67 337.16 189.24 339.93 196.85 C 342.71 204.46 345.45 211.76 347.69 219.08 C 349.94 226.39 351.78 234.28 353.41 240.73 C 355.05 247.17 355.86 251.87 357.49 257.73 C 359.12 263.60 360.99 270.30 363.19 275.93 C 365.40 281.56 368.12 286.83 370.72 291.51 C 373.31 296.20 376.20 300.57 378.75 304.01 C 381.29 307.46 382.98 309.91 385.96 312.20 C 388.94 314.50 392.97 316.74 396.62 317.78 C 400.28 318.83 404.34 318.31 407.87 318.46 C 411.40 318.61 414.91 318.30 417.78 318.68 C 420.65 319.05 422.66 319.81 425.07 320.74 C 427.48 321.66 430.28 322.36 432.25 324.21 C 434.23 326.06 436.07 328.59 436.91 331.84 C 437.74 335.09 437.91 339.81 437.25 343.72 C 436.59 347.63 435.57 351.01 432.94 355.29 C 430.30 359.57 426.41 364.98 421.45 369.39 C 416.48 373.80 410.54 378.33 403.17 381.75 C 395.81 385.18 385.63 388.26 377.27 389.95 C 368.92 391.64 361.76 391.81 353.04 391.89 C 344.32 391.97 334.09 391.23 324.95 390.44 C 315.80 389.65 306.91 388.20 298.18 387.16 C 289.45 386.12 279.98 385.11 272.58 384.21 C 265.18 383.31 260.31 382.28 253.79 381.74 C 247.27 381.20 239.73 380.61 233.48 380.97 C 227.22 381.33 221.40 382.46 216.27 383.89 C 211.13 385.32 206.23 387.58 202.66 389.55 C 199.09 391.52 196.91 393.21 194.85 395.72 C 192.79 398.23 190.72 401.29 190.27 404.62 C 189.83 407.94 190.29 412.18 192.17 415.66 C 194.06 419.13 198.03 422.88 201.59 425.48 C 205.16 428.07 208.38 429.87 213.55 431.21 C 218.72 432.56 225.72 433.90 232.61 433.55 C 239.50 433.21 247.39 431.84 254.90 429.15 C 262.41 426.46 271.06 422.07 277.67 417.43 C 284.29 412.80 289.17 408.20 294.57 401.36 C 299.96 394.51 306.33 385.42 310.06 376.38 C 313.80 367.34 316.14 357.02 316.98 347.10 C 317.83 337.18 316.94 325.71 315.13 316.86 C 313.32 308.01 310.30 301.53 306.14 294.00 C 301.99 286.46 296.16 277.96 290.19 271.63 C 284.21 265.30 277.26 260.05 270.27 256.01 C 263.29 251.97 254.95 249.29 248.28 247.41 C 241.60 245.52 236.70 244.52 230.24 244.70 C 223.78 244.89 215.95 246.30 209.52 248.54 C 203.09 250.77 196.68 254.14 191.64 258.13 C 186.61 262.11 182.48 267.78 179.32 272.45 C 176.15 277.12 174.21 280.70 172.65 286.15 C 171.09 291.60 170.04 298.90 169.97 305.15 C 169.89 311.40 171.06 317.68 172.21 323.64 C 173.35 329.61 175.26 335.74 176.84 340.93 C 178.42 346.12 180.20 350.06 181.67 354.78 C 183.13 359.50 184.42 364.60 185.64 369.27 C 186.86 373.93 188.43 378.52 189.00 382.75 C 189.56 386.99 189.43 391.27 189.01 394.68 C 188.59 398.10 187.84 400.44 186.47 403.25 C 185.11 406.05 184.93 409.13 180.82 411.52 C 176.70 413.91 164.97 416.58 161.80 417.59" fill="none" stroke="#fff" stroke-width="4.48" stroke-opacity="1" stroke-linecap="round" stroke-linejoin="round"/>
  </g>
</svg>