<?xml version="1.0" encoding="UTF-8"?>
<svg xmlns="http://www.w3.org/2000/svg" width="512" height="512" viewBox="0 0 512 512">
  <rect width="100%" height="100%" fill="#000"/>
  <g>
    <path d="M 256.00 256.00 C 254.91 258.57 252.22 267.03 249.47 271.42 C 246.72 275.81 243.13 279.37 239.50 282.33 C 235.87 285.29 232.59 287.51 227.69 289.17 C 222.80 290.83 215.39 291.90 210.11 292.28 C 204.83 292.67 200.82 293.34 196.00 291.49 C 191.19 289.65 185.16 284.53 181.21 281.19 C 177.26 277.85 174.68 275.62 172.32 271.44 C 169.95 267.26 168.27 260.98 167.00 256.11 C 165.73 251.23 164.21 247.31 164.71 242.18 C 165.21 237.05 168.39 230.55 170.00 225.33 C 171.61 220.11 170.95 215.52 174.38 210.85 C 177.81 206.18 185.55 201.01 190.56 197.31 C 195.57 193.62 198.87 190.89 204.44 188.67 C 210.01 186.45 218.25 184.93 223.97 183.99 C 229.69 183.06 233.13 182.36 238.75 183.06 C 244.36 183.76 252.05 185.82 257.65 188.19 C 263.26 190.57 267.63 193.56 272.39 197.32 C 277.14 201.08 282.45 206.07 286.18 210.75 C 289.91 215.44 292.47 219.73 294.77 225.42 C 297.07 231.12 299.51 238.91 299.98 244.90 C 300.44 250.90 299.12 255.44 297.56 261.41 C 296.00 267.37 293.58 275.60 290.61 280.68 C 287.65 285.77 283.72 288.02 279.77 291.93 C 275.82 295.84 271.00 301.27 266.89 304.17 C 262.79 307.07 259.93 307.68 255.16 309.30 C 250.38 310.92 243.80 312.10 238.25 313.89 C 232.71 315.69 226.35 318.05 221.88 320.07 C 217.42 322.10 215.50 323.74 211.48 326.07 C 207.45 328.39 201.46 331.92 197.74 334.01 C 194.02 336.11 192.51 336.99 189.16 338.66 C 185.80 340.33 180.37 341.88 177.61 344.03 C 174.86 346.18 174.44 348.69 172.64 351.55 C 170.83 354.41 168.62 358.56 166.76 361.18 C 164.91 363.81 162.92 364.80 161.51 367.30 C 160.10 369.81 159.08 373.71 158.28 376.23 C 157.48 378.75 157.49 379.91 156.73 382.42 C 155.97 384.93 155.21 389.10 153.72 391.29 C 152.22 393.48 150.04 394.09 147.78 395.56 C 145.51 397.04 142.38 398.89 140.13 400.14 C 137.89 401.40 136.95 402.04 134.31 403.07 C 131.67 404.09 127.61 406.21 124.29 406.29 C 120.98 406.37 118.02 405.34 114.41 403.54 C 110.81 401.74 105.90 397.98 102.67 395.48 C 99.44 392.97 97.50 391.80 95.02 388.53 C 92.54 385.26 89.79 380.12 87.79 375.86 C 85.79 371.61 84.86 368.21 83.03 362.99 C 81.19 357.78 77.57 350.81 76.79 344.58 C 76.02 338.36 77.04 332.67 78.40 325.65 C 79.75 318.62 82.85 309.15 84.95 302.42 C 87.05 295.70 87.44 291.15 90.99 285.30 C 94.54 279.45 100.41 273.05 106.25 267.32 C 112.08 261.58 119.37 255.48 126.00 250.89 C 132.63 246.30 138.23 242.08 146.04 239.79 C 153.84 237.49 164.85 237.41 172.83 237.14 C 180.81 236.87 186.98 236.44 193.93 238.16 C 200.89 239.88 208.73 244.20 214.54 247.46 C 220.35 250.71 224.33 253.11 228.81 257.69 C 233.29 262.26 237.88 269.92 241.42 274.92 C 244.95 279.91 247.30 282.90 250.03 287.64 C 252.77 292.39 255.29 298.69 257.82 303.36 C 260.35 308.03 262.84 311.39 265.19 315.65 C 267.54 319.91 269.93 325.02 271.91 328.93 C 273.89 332.85 274.80 335.32 277.09 339.15 C 279.37 342.98 283.06 348.36 285.61 351.94 C 288.16 355.51 290.14 357.54 292.39 360.60 C 294.64 363.66 296.87 367.56 299.11 370.32 C 301.34 373.09 303.17 374.69 305.79 377.18 C 308.41 379.68 311.98 383.13 314.84 385.28 C 317.70 387.44 320.07 388.25 322.96 390.11 C 325.84 391.96 330.21 394.46 332.14 396.44 C 334.07 398.43 333.85 399.90 334.53 402.02 C 335.21 404.15 335.91 407.13 336.21 409.20 C 336.51 411.27 337.40 412.35 336.34 414.43 C 335.28 416.51 332.10 419.08 329.84 421.68 C 327.59 424.27 326.12 427.63 322.84 429.99 C 319.57 432.34 315.00 434.98 310.19 435.79 C 305.38 436.61 299.18 435.78 294.00 434.88 C 288.83 433.98 285.01 432.14 279.14 430.41 C 273.27 428.67 265.05 427.19 258.78 424.47 C 252.51 421.75 247.49 418.61 241.50 414.09 C 235.50 409.58 227.83 402.24 222.83 397.37 C 217.83 392.50 215.05 390.41 211.49 384.87 C 207.94 379.32 204.11 370.12 201.50 364.09 C 198.88 358.05 197.66 355.38 195.80 348.65 C 193.93 341.92 191.01 331.17 190.28 323.70 C 189.55 316.23 191.09 311.06 191.43 303.84 C 191.78 296.62 190.92 286.79 192.37 280.39 C 193.83 273.99 197.46 270.98 200.18 265.46 C 202.91 259.94 205.69 252.55 208.73 247.27 C 211.77 242.00 214.55 238.19 218.42 233.84 C 222.29 229.48 228.21 225.12 231.95 221.13 C 235.69 217.15 237.62 213.88 240.85 209.93 C 244.09 205.98 248.26 201.46 251.38 197.46 C 254.50 193.46 257.44 189.84 259.58 185.94 C 261.73 182.05 262.67 177.74 264.24 174.08 C 265.80 170.42 268.65 168.18 268.99 164.00 C 269.33 159.81 267.27 153.11 266.25 148.99 C 265.23 144.87 264.82 142.43 262.87 139.26 C 260.93 136.09 257.86 132.50 254.58 129.98 C 251.30 127.46 247.85 125.43 243.19 124.16 C 238.53 122.89 231.99 122.25 226.60 122.37 C 221.21 122.49 215.49 124.02 210.87 124.91 C 206.25 125.79 203.50 125.88 198.87 127.69 C 194.24 129.50 188.08 133.69 183.08 135.75 C 178.08 137.81 173.33 138.51 168.86 140.07 C 164.38 141.63 159.96 143.98 156.24 145.12 C 152.51 146.25 150.32 146.28 146.50 146.86 C 142.68 147.45 136.94 148.36 133.31 148.63 C 129.67 148.91 127.50 149.25 124.69 148.51 C 121.87 147.78 118.27 145.89 116.39 144.22 C 114.52 142.54 114.84 140.44 113.44 138.48 C 112.04 136.51 109.44 134.34 107.99 132.45 C 106.54 130.56 105.99 128.74 104.75 127.15 C 103.52 125.56 102.10 124.05 100.59 122.92 C 99.08 121.79 97.44 121.58 95.68 120.34 C 93.92 119.10 91.72 116.00 90.02 115.49 C 88.32 114.99 87.64 116.43 85.51 117.31 C 83.38 118.20 79.54 119.42 77.25 120.82 C 74.96 122.23 74.19 122.98 71.75 125.74 C 69.32 128.50 64.53 133.38 62.62 137.40 C 60.71 141.41 61.31 144.69 60.30 149.83 C 59.29 154.97 57.16 162.17 56.58 168.24 C 56.00 174.31 56.01 179.97 56.80 186.25 C 57.59 192.52 59.59 199.34 61.32 205.89 C 63.04 212.44 65.64 219.59 67.13 225.54 C 68.63 231.49 69.14 235.96 70.27 241.58 C 71.40 247.20 72.99 254.34 73.90 259.25 C 74.82 264.15 75.09 266.40 75.77 271.01 C 76.45 275.62 78.17 282.41 77.98 286.93 C 77.78 291.44 76.03 294.73 74.60 298.11 C 73.18 301.49 70.53 304.80 69.45 307.22 C 68.36 309.65 69.25 311.67 68.07 312.68 C 66.89 313.68 64.45 313.54 62.36 313.24 C 60.27 312.95 57.90 312.10 55.54 310.92 C 53.18 309.75 50.09 308.35 48.20 306.18 C 46.31 304.00 45.36 300.80 44.21 297.86 C 43.07 294.91 41.76 292.10 41.33 288.50 C 40.90 284.89 40.98 281.37 41.64 276.22 C 42.30 271.07 43.84 263.00 45.28 257.60 C 46.71 252.20 48.20 248.87 50.25 243.81 C 52.30 238.75 54.36 232.17 57.57 227.22 C 60.78 222.27 65.32 219.07 69.52 214.12 C 73.73 209.17 78.54 202.45 82.80 197.51 C 87.06 192.56 90.30 188.95 95.09 184.43 C 99.88 179.92 106.10 174.35 111.56 170.41 C 117.02 166.46 121.73 163.80 127.84 160.74 C 133.96 157.69 141.96 154.62 148.25 152.08 C 154.54 149.55 159.77 147.83 165.58 145.53 C 171.40 143.23 178.00 140.48 183.15 138.28 C 188.30 136.08 192.10 134.87 196.51 132.34 C 200.92 129.82 205.91 125.99 209.60 123.14 C 213.29 120.29 216.21 117.73 218.66 115.25 C 221.11 112.77 222.40 111.25 224.31 108.27 C 226.21 105.29 228.51 100.24 230.10 97.37 C 231.68 94.50 233.00 93.78 233.81 91.06 C 234.62 88.34 234.73 83.61 234.96 81.04 C 235.19 78.47 234.89 77.63 235.17 75.66 C 235.45 73.69 236.90 71.36 236.67 69.20 C 236.43 67.05 234.42 65.12 233.78 62.73 C 233.13 60.33 232.96 56.90 232.81 54.84 C 232.67 52.77 232.92 51.85 232.90 50.33 C 232.87 48.82 232.67 47.23 232.67 45.73 C 232.67 44.24 232.19 42.98 232.90 41.37 C 233.61 39.76 235.51 37.69 236.91 36.07 C 238.31 34.44 238.89 33.08 241.29 31.63 C 243.69 30.19 248.32 28.76 251.30 27.39 C 254.29 26.03 256.15 24.10 259.20 23.47 C 262.25 22.83 266.39 23.00 269.59 23.56 C 272.79 24.13 274.56 25.96 278.40 26.85 C 282.24 27.74 288.39 27.52 292.63 28.90 C 296.86 30.28 299.68 32.32 303.81 35.14 C 307.94 37.96 313.36 41.68 317.40 45.82 C 321.43 49.96 324.03 54.28 328.05 59.97 C 332.06 65.67 337.91 73.51 341.48 79.99 C 345.05 86.47 346.92 91.52 349.46 98.85 C 352.00 106.17 355.37 115.50 356.70 123.92 C 358.04 132.35 358.21 141.60 357.48 149.40 C 356.76 157.21 355.08 163.16 352.35 170.74 C 349.63 178.33 345.17 188.25 341.15 194.91 C 337.13 201.58 333.51 204.83 328.23 210.72 C 322.94 216.60 315.00 225.43 309.44 230.24 C 303.88 235.05 300.84 237.30 294.89 239.58 C 288.94 241.86 279.83 243.62 273.74 243.92 C 267.65 244.22 263.99 242.88 258.34 241.40 C 252.69 239.92 244.53 238.03 239.82 235.05 C 235.10 232.08 233.02 227.39 230.05 223.54 C 227.08 219.70 224.06 215.96 222.00 211.99 C 219.94 208.01 218.04 204.75 217.69 199.70 C 217.34 194.64 218.62 186.50 219.89 181.67 C 221.15 176.83 223.19 174.99 225.26 170.70 C 227.32 166.40 229.76 159.91 232.27 155.90 C 234.79 151.88 237.09 149.84 240.35 146.58 C 243.60 143.32 248.78 139.19 251.81 136.34 C 254.84 133.48 256.22 132.07 258.53 129.45 C 260.84 126.83 263.57 123.09 265.66 120.62 C 267.75 118.15 269.00 117.24 271.09 114.62 C 273.18 112.00 276.66 107.51 278.21 104.92 C 279.76 102.33 280.10 101.68 280.38 99.09 C 280.65 96.49 280.05 92.23 279.84 89.37 C 279.62 86.51 279.70 84.24 279.09 81.93 C 278.47 79.62 277.70 77.47 276.14 75.52 C 274.59 73.58 272.03 72.36 269.76 70.25 C 267.49 68.14 266.20 64.72 262.54 62.87 C 258.88 61.02 252.05 60.14 247.80 59.16 C 243.54 58.18 241.10 56.95 237.03 56.99 C 232.95 57.04 227.48 58.03 223.33 59.43 C 219.18 60.84 217.03 62.98 212.12 65.41 C 207.22 67.85 199.01 70.60 193.92 74.04 C 188.84 77.47 185.68 80.68 181.61 86.02 C 177.55 91.37 172.93 100.01 169.56 106.10 C 166.18 112.20 163.90 116.20 161.36 122.59 C 158.82 128.98 156.27 137.77 154.32 144.46 C 152.37 151.16 150.80 156.06 149.65 162.78 C 148.49 169.50 148.42 178.07 147.39 184.79 C 146.36 191.52 144.81 197.20 143.44 203.15 C 142.06 209.10 140.60 215.33 139.14 220.50 C 137.68 225.67 136.49 229.39 134.66 234.15 C 132.83 238.91 130.34 245.10 128.18 249.07 C 126.02 253.04 124.55 255.64 121.71 257.97 C 118.86 260.29 114.15 262.38 111.11 263.02 C 108.06 263.66 106.53 262.18 103.44 261.80 C 100.35 261.41 95.42 261.41 92.55 260.72 C 89.68 260.02 88.23 259.66 86.22 257.63 C 84.20 255.60 81.85 251.64 80.47 248.53 C 79.10 245.41 79.18 242.25 77.97 238.94 C 76.76 235.64 74.47 232.27 73.21 228.67 C 71.95 225.08 71.24 220.53 70.41 217.38 C 69.57 214.22 69.10 212.20 68.21 209.74 C 67.32 207.27 66.24 204.70 65.09 202.60 C 63.94 200.51 62.69 199.05 61.32 197.15 C 59.95 195.25 58.24 192.48 56.89 191.21 C 55.53 189.95 54.65 190.69 53.19 189.55 C 51.72 188.41 49.47 185.15 48.08 184.37 C 46.69 183.59 46.40 184.97 44.84 184.88 C 43.29 184.79 39.83 184.32 38.76 183.83 C 37.68 183.34 38.95 183.20 38.39 181.93 C 37.83 180.65 36.13 178.15 35.41 176.19 C 34.69 174.23 34.38 172.45 34.07 170.15 C 33.77 167.86 33.59 165.02 33.58 162.43 C 33.58 159.83 32.49 158.05 34.05 154.56 C 35.61 151.06 40.02 145.31 42.94 141.45 C 45.86 137.60 47.44 135.08 51.56 131.40 C 55.69 127.72 62.56 122.65 67.68 119.37 C 72.80 116.09 76.45 114.07 82.29 111.71 C 88.12 109.35 96.38 106.89 102.71 105.21 C 109.03 103.53 113.29 102.77 120.24 101.64 C 127.18 100.52 137.25 99.64 144.36 98.47 C 151.47 97.30 156.25 96.08 162.90 94.64 C 169.56 93.21 177.53 91.18 184.29 89.87 C 191.05 88.55 198.12 87.86 203.44 86.74 C 208.75 85.63 211.77 84.45 216.17 83.18 C 220.57 81.92 225.84 80.35 229.82 79.17 C 233.80 77.99 236.93 77.49 240.05 76.08 C 243.18 74.67 246.70 72.63 248.57 70.70 C 250.43 68.77 250.02 66.79 251.26 64.52 C 252.49 62.26 254.90 59.17 255.96 57.11 C 257.03 55.05 256.95 54.04 257.65 52.18 C 258.34 50.33 259.54 47.81 260.13 45.97 C 260.72 44.12 260.88 43.17 261.20 41.11 C 261.52 39.05 261.50 35.79 262.06 33.61 C 262.62 31.43 263.29 29.66 264.57 28.03 C 265.86 26.41 268.03 25.18 269.77 23.85 C 271.51 22.51 272.52 21.00 275.00 20.03 C 277.48 19.05 281.41 18.46 284.64 17.99 C 287.87 17.52 290.77 17.01 294.39 17.18 C 298.00 17.36 302.59 18.15 306.33 19.03 C 310.08 19.91 312.94 20.84 316.86 22.47 C 320.78 24.09 325.83 26.23 329.86 28.76 C 333.88 31.30 337.01 33.79 341.00 37.68 C 345.00 41.57 350.10 46.84 353.83 52.10 C 357.55 57.37 360.36 62.55 363.34 69.25 C 366.32 75.95 369.39 84.75 371.70 92.28 C 374.01 99.82 376.69 106.48 377.20 114.46 C 377.71 122.44 376.19 132.32 374.76 140.14 C 373.33 147.96 372.27 153.94 368.62 161.38 C 364.98 168.82 359.11 178.14 352.89 184.78 C 346.67 191.42 337.95 197.21 331.30 201.22 C 324.65 205.23 319.98 206.63 313.00 208.83 C 306.03 211.04 296.20 213.27 289.45 214.43 C 282.70 215.59 278.63 216.96 272.50 215.78 C 266.36 214.61 257.70 209.55 252.64 207.38 C 247.58 205.20 245.21 205.96 242.13 202.73 C 239.06 199.49 236.12 192.71 234.20 187.98 C 232.28 183.25 231.01 178.96 230.62 174.34 C 230.24 169.71 230.42 164.18 231.89 160.22 C 233.36 156.26 236.11 153.86 239.45 150.57 C 242.80 147.28 247.77 142.73 251.96 140.48 C 256.14 138.24 259.69 137.90 264.56 137.10 C 269.43 136.29 276.12 136.01 281.17 135.66 C 286.23 135.31 289.88 134.94 294.88 134.99 C 299.88 135.04 306.25 135.36 311.18 135.95 C 316.10 136.54 320.19 137.93 324.43 138.51 C 328.66 139.08 332.85 139.73 336.60 139.39 C 340.35 139.04 343.50 137.07 346.93 136.45 C 350.36 135.83 354.35 136.74 357.18 135.67 C 360.01 134.61 362.16 132.83 363.90 130.07 C 365.65 127.31 367.08 122.41 367.66 119.13 C 368.25 115.84 368.60 113.48 367.43 110.37 C 366.26 107.27 363.30 103.27 360.63 100.51 C 357.96 97.74 355.22 95.69 351.41 93.80 C 347.59 91.92 343.68 90.15 337.75 89.18 C 331.82 88.21 322.45 87.99 315.81 87.98 C 309.17 87.96 304.67 87.73 297.90 89.10 C 291.13 90.46 281.52 93.23 275.19 96.17 C 268.86 99.12 265.47 101.89 259.92 106.77 C 254.38 111.65 246.37 119.42 241.90 125.44 C 237.42 131.47 235.72 135.95 233.07 142.94 C 230.42 149.94 227.11 160.01 226.00 167.41 C 224.89 174.81 224.51 180.65 226.41 187.34 C 228.32 194.03 233.84 201.71 237.42 207.55 C 241.00 213.39 243.49 217.94 247.89 222.38 C 252.30 226.83 258.82 230.84 263.84 234.24 C 268.87 237.64 272.91 240.28 278.05 242.79 C 283.18 245.31 289.58 247.67 294.65 249.31 C 299.72 250.94 303.75 251.24 308.46 252.60 C 313.17 253.96 318.26 256.60 322.92 257.46 C 327.58 258.31 331.51 257.86 336.41 257.73 C 341.30 257.60 348.22 256.44 352.30 256.67 C 356.38 256.91 357.53 258.76 360.87 259.13 C 364.20 259.50 368.85 258.30 372.30 258.87 C 375.74 259.45 378.28 261.29 381.52 262.58 C 384.76 263.88 388.68 264.97 391.74 266.62 C 394.80 268.27 396.99 270.32 399.88 272.47 C 402.76 274.62 406.47 277.09 409.06 279.54 C 411.65 281.98 413.37 284.20 415.42 287.13 C 417.47 290.06 419.39 293.75 421.38 297.14 C 423.37 300.53 426.16 304.14 427.37 307.47 C 428.57 310.80 428.47 314.09 428.61 317.14 C 428.75 320.19 428.53 322.82 428.18 325.77 C 427.83 328.73 428.08 331.25 426.51 334.85 C 424.94 338.45 421.16 343.37 418.78 347.35 C 416.39 351.34 414.95 354.51 412.21 358.74 C 409.47 362.97 405.67 368.98 402.33 372.75 C 398.99 376.51 395.22 378.36 392.17 381.36 C 389.11 384.35 386.76 387.24 384.00 390.71 C 381.24 394.18 377.66 398.43 375.63 402.18 C 373.60 405.94 373.07 409.88 371.81 413.23 C 370.56 416.58 368.81 419.68 368.10 422.28 C 367.40 424.89 367.26 426.98 367.59 428.87 C 367.92 430.75 368.61 432.39 370.07 433.59 C 371.54 434.78 374.57 435.40 376.38 436.02 C 378.19 436.64 378.76 437.35 380.94 437.29 C 383.11 437.23 386.68 436.84 389.42 435.67 C 392.15 434.50 394.26 432.84 397.33 430.27 C 400.41 427.70 404.58 423.20 407.86 420.26 C 411.14 417.31 414.43 415.11 417.01 412.59 C 419.60 410.07 420.98 407.58 423.38 405.15 C 425.77 402.71 428.65 400.12 431.38 397.99 C 434.11 395.85 437.60 393.69 439.77 392.35 C 441.93 391.01 442.56 390.93 444.37 389.95 C 446.19 388.97 448.89 386.67 450.66 386.48 C 452.43 386.29 454.03 387.53 454.98 388.79 C 455.93 390.06 457.01 391.64 456.34 394.08 C 455.67 396.53 452.87 400.95 450.98 403.48 C 449.09 406.02 447.91 406.65 444.99 409.29 C 442.06 411.93 437.12 416.69 433.44 419.33 C 429.77 421.97 426.62 422.65 422.93 425.12 C 419.23 427.60 415.00 431.73 411.28 434.17 C 407.55 436.61 404.03 437.41 400.56 439.79 C 397.10 442.17 393.02 445.90 390.49 448.45 C 387.96 450.99 387.26 452.95 385.39 455.07 C 383.53 457.19 381.35 458.97 379.28 461.19 C 377.21 463.41 374.48 466.17 372.99 468.40 C 371.50 470.63 370.95 472.91 370.35 474.60 C 369.75 476.29 369.35 477.27 369.38 478.55 C 369.40 479.84 369.85 481.21 370.49 482.30 C 371.14 483.39 372.69 484.16 373.24 485.08 C 373.79 486.01 373.23 487.33 373.79 487.84 C 374.36 488.36 375.57 487.19 376.62 488.18 C 377.67 489.18 379.49 492.68 380.11 493.82 C 380.73 494.95 380.41 493.97 380.35 494.99 C 380.29 496.02 380.40 498.86 379.75 499.98 C 379.09 501.09 377.66 500.94 376.44 501.67 C 375.22 502.40 373.89 503.35 372.43 504.36 C 370.96 505.36 369.56 506.70 367.65 507.71 C 365.74 508.72 363.70 510.71 360.97 510.40 C 358.25 510.09 354.39 510.91 351.29 505.85 C 348.18 500.78 345.40 490.11 342.34 480.01 C 339.28 469.91 335.26 455.15 332.94 445.25 C 330.62 435.34 330.52 429.76 328.44 420.57 C 326.36 411.39 322.46 398.68 320.45 390.15 C 318.43 381.63 318.54 377.68 316.34 369.44 C 314.15 361.20 310.67 348.15 307.30 340.70 C 303.93 333.25 300.07 330.76 296.15 324.72 C 292.22 318.68 287.92 310.12 283.75 304.46 C 279.58 298.79 276.37 294.64 271.15 290.74 C 265.92 286.84 257.65 282.80 252.39 281.08 C 247.13 279.36 244.55 280.47 239.58 280.42 C 234.61 280.37 227.36 280.00 222.57 280.78 C 217.78 281.55 214.70 282.62 210.83 285.06 C 206.95 287.51 202.48 291.96 199.31 295.45 C 196.14 298.93 193.57 301.83 191.80 305.99 C 190.02 310.16 188.77 315.92 188.66 320.43 C 188.55 324.94 189.22 328.83 191.14 333.05 C 193.06 337.26 196.75 342.14 200.16 345.73 C 203.58 349.32 206.73 351.68 211.63 354.61 C 216.53 357.54 224.37 361.35 229.55 363.29 C 234.73 365.22 237.19 366.12 242.70 366.21 C 248.21 366.31 256.61 365.16 262.62 363.88 C 268.63 362.59 273.45 361.77 278.75 358.51 C 284.04 355.26 289.64 349.68 294.40 344.36 C 299.16 339.04 304.07 332.48 307.31 326.62 C 310.55 320.76 311.99 315.67 313.84 309.20 C 315.68 302.74 317.54 294.10 318.38 287.82 C 319.21 281.55 319.57 277.87 318.84 271.56 C 318.11 265.26 315.89 255.96 313.99 249.97 C 312.08 243.98 310.90 240.41 307.42 235.64 C 303.94 230.86 297.59 225.50 293.11 221.32 C 288.63 217.13 285.98 213.55 280.56 210.55 C 275.15 207.55 266.91 204.94 260.65 203.31 C 254.38 201.68 249.04 201.35 242.96 200.78 C 236.89 200.20 229.53 200.46 224.20 199.87 C 218.87 199.28 216.16 197.58 210.98 197.24 C 205.80 196.91 197.96 197.47 193.13 197.86 C 188.29 198.25 186.19 198.93 181.99 199.60 C 177.78 200.27 171.98 201.51 167.92 201.88 C 163.86 202.25 161.44 202.13 157.63 201.79 C 153.83 201.45 148.58 200.23 145.08 199.83 C 141.59 199.44 139.61 199.57 136.69 199.44 C 133.76 199.30 130.34 199.44 127.53 199.05 C 124.72 198.65 122.33 198.61 119.81 197.09 C 117.30 195.56 114.25 192.69 112.44 189.90 C 110.63 187.11 110.07 183.92 108.96 180.35 C 107.85 176.77 105.98 172.32 105.78 168.45 C 105.58 164.59 106.22 161.30 107.77 157.17 C 109.32 153.04 111.96 147.93 115.08 143.66 C 118.20 139.40 121.81 134.20 126.48 131.58 C 131.15 128.96 136.77 129.36 143.09 127.96 C 149.41 126.56 157.64 123.96 164.39 123.17 C 171.15 122.39 176.28 122.58 183.62 123.25 C 190.95 123.92 201.54 124.88 208.39 127.18 C 215.23 129.49 219.12 132.57 224.68 137.07 C 230.24 141.58 236.96 149.02 241.75 154.24 C 246.53 159.45 249.08 162.53 253.40 168.34 C 257.71 174.14 263.88 182.96 267.61 189.05 C 271.34 195.14 272.95 199.34 275.78 204.86 C 278.60 210.39 281.28 216.81 284.57 222.19 C 287.87 227.58 292.39 232.09 295.54 237.18 C 298.69 242.27 300.86 248.34 303.48 252.71 C 306.10 257.08 307.79 259.57 311.27 263.37 C 314.75 267.18 320.19 272.45 324.37 275.53 C 328.55 278.60 331.99 279.93 336.35 281.81 C 340.71 283.69 346.49 285.80 350.51 286.80 C 354.53 287.81 356.45 288.11 360.49 287.84 C 364.53 287.57 371.01 286.81 374.77 285.18 C 378.52 283.56 380.15 280.81 383.00 278.10 C 385.85 275.39 389.51 272.29 391.86 268.92 C 394.21 265.55 395.48 262.01 397.11 257.89 C 398.75 253.78 401.00 248.57 401.66 244.22 C 402.32 239.86 401.38 236.87 401.06 231.76 C 400.73 226.66 401.04 219.26 399.70 213.58 C 398.37 207.91 395.90 202.37 393.05 197.74 C 390.19 193.11 387.00 189.82 382.55 185.81 C 378.11 181.80 371.46 176.95 366.36 173.66 C 361.25 170.36 357.61 168.62 351.92 166.04 C 346.23 163.47 338.13 160.33 332.24 158.22 C 326.35 156.11 322.56 155.18 316.56 153.37 C 310.57 151.57 302.15 148.89 296.27 147.38 C 290.40 145.87 286.72 145.05 281.31 144.31 C 275.91 143.57 269.04 143.67 263.87 142.95 C 258.70 142.24 254.88 141.29 250.28 140.02 C 245.68 138.76 240.39 136.38 236.29 135.37 C 232.19 134.36 229.38 135.03 225.68 133.98 C 221.98 132.93 217.37 130.39 214.10 129.08 C 210.83 127.77 209.05 127.04 206.05 126.12 C 203.05 125.19 199.22 125.03 196.12 123.55 C 193.01 122.07 190.48 119.19 187.42 117.22 C 184.35 115.26 180.28 113.15 177.70 111.76 C 175.12 110.37 174.36 109.69 171.94 108.88 C 169.52 108.08 165.87 107.67 163.18 106.94 C 160.49 106.21 158.56 105.09 155.79 104.51 C 153.02 103.94 149.34 103.83 146.56 103.49 C 143.78 103.16 141.87 102.65 139.09 102.50 C 136.31 102.35 133.33 101.62 129.89 102.61 C 126.45 103.60 121.63 106.56 118.46 108.42 C 115.30 110.29 114.31 111.83 110.89 113.82 C 107.47 115.81 100.95 117.81 97.95 120.38 C 94.96 122.96 95.03 126.47 92.92 129.26 C 90.82 132.06 87.60 134.67 85.31 137.17 C 83.02 139.66 82.17 142.29 79.17 144.24 C 76.17 146.18 70.01 147.57 67.31 148.84 C 64.61 150.11 64.87 151.23 62.97 151.85 C 61.07 152.47 57.78 152.49 55.90 152.55 C 54.01 152.61 53.28 152.44 51.65 152.20 C 50.03 151.96 47.40 151.89 46.15 151.13 C 44.90 150.36 45.13 149.17 44.15 147.60 C 43.17 146.04 41.19 143.45 40.26 141.71 C 39.33 139.97 38.51 139.31 38.59 137.15 C 38.67 134.99 39.92 131.24 40.74 128.77 C 41.55 126.30 42.00 124.87 43.49 122.32 C 44.98 119.76 47.82 115.90 49.67 113.46 C 51.52 111.01 51.85 110.35 54.59 107.63 C 57.33 104.91 62.36 100.19 66.11 97.15 C 69.85 94.11 72.60 92.20 77.06 89.39 C 81.52 86.57 87.88 82.65 92.85 80.27 C 97.81 77.90 101.27 76.78 106.86 75.14 C 112.45 73.50 120.39 71.46 126.39 70.45 C 132.40 69.43 136.34 68.74 142.89 69.04 C 149.44 69.34 157.95 71.23 165.71 72.23 C 173.46 73.22 182.56 73.92 189.45 75.03 C 196.34 76.14 200.84 78.13 207.06 78.87 C 213.27 79.62 220.68 78.88 226.74 79.49 C 232.79 80.09 238.09 82.28 243.39 82.50 C 248.69 82.72 254.58 81.28 258.54 80.80 C 262.49 80.32 263.59 80.39 267.13 79.61 C 270.67 78.83 276.43 77.30 279.78 76.13 C 283.14 74.96 285.27 74.17 287.26 72.61 C 289.26 71.04 291.11 68.94 291.75 66.75 C 292.38 64.56 291.41 61.71 291.07 59.47 C 290.73 57.24 290.86 55.13 289.70 53.35 C 288.55 51.56 286.19 50.48 284.15 48.76 C 282.11 47.03 279.79 44.46 277.45 43.01 C 275.11 41.57 273.12 41.34 270.13 40.11 C 267.13 38.87 262.58 37.17 259.49 35.60 C 256.39 34.02 254.36 32.15 251.57 30.64 C 248.78 29.14 245.51 27.84 242.73 26.59 C 239.94 25.34 237.26 24.29 234.86 23.16 C 232.46 22.02 229.76 20.98 228.32 19.79 C 226.89 18.60 226.76 17.13 226.24 16.01 C 225.72 14.89 225.42 13.90 225.23 13.09 C 225.03 12.27 224.87 12.23 225.05 11.11 C 225.23 9.99 225.52 7.80 226.30 6.38 C 227.09 4.96 228.90 1.23 229.78 2.58 C 230.66 3.92 230.46 6.57 231.59 14.43 C 232.71 22.29 235.43 39.79 236.53 49.73 C 237.64 59.67 238.17 65.09 238.22 74.06 C 238.28 83.02 237.51 94.76 236.86 103.53 C 236.21 112.30 235.42 118.23 234.33 126.65 C 233.24 135.07 231.88 146.30 230.32 154.04 C 228.77 161.79 227.27 166.19 224.98 173.12 C 222.70 180.04 219.66 189.69 216.62 195.61 C 213.57 201.53 210.59 203.94 206.69 208.65 C 202.79 213.36 196.76 219.54 193.21 223.85 C 189.65 228.17 188.73 230.82 185.38 234.55 C 182.03 238.28 176.52 242.65 173.10 246.24 C 169.68 249.83 167.44 252.41 164.86 256.10 C 162.27 259.79 159.33 264.15 157.59 268.36 C 155.84 272.58 155.42 276.42 154.39 281.38 C 153.36 286.34 151.96 292.78 151.39 298.11 C 150.82 303.44 150.04 308.48 150.97 313.36 C 151.89 318.25 154.61 323.01 156.95 327.42 C 159.30 331.83 161.30 335.63 165.04 339.80 C 168.78 343.98 174.86 349.24 179.39 352.47 C 183.91 355.69 186.70 357.21 192.17 359.16 C 197.65 361.11 206.35 363.15 212.23 364.16 C 218.11 365.16 221.37 365.54 227.46 365.20 C 233.55 364.86 242.65 364.21 248.76 362.10 C 254.87 360.00 258.80 356.57 264.10 352.57 C 269.40 348.56 276.25 343.02 280.57 338.06 C 284.90 333.11 287.53 329.03 290.05 322.84 C 292.56 316.64 294.93 307.77 295.66 300.90 C 296.38 294.04 295.70 287.65 294.38 281.64 C 293.05 275.63 290.81 270.99 287.73 264.83 C 284.65 258.68 280.01 249.60 275.89 244.69 C 271.78 239.79 267.85 238.73 263.03 235.39 C 258.22 232.05 251.44 227.47 246.98 224.66 C 242.53 221.85 240.15 220.86 236.33 218.53 C 232.50 216.19 227.99 213.04 224.04 210.66 C 220.09 208.28 216.89 206.87 212.62 204.27 C 208.36 201.67 202.26 197.55 198.46 195.07 C 194.67 192.58 192.87 191.85 189.84 189.36 C 186.81 186.87 182.78 183.10 180.28 180.13 C 177.78 177.16 176.70 175.33 174.84 171.52 C 172.97 167.71 170.29 161.16 169.09 157.27 C 167.89 153.39 168.11 151.95 167.64 148.18 C 167.17 144.42 166.00 138.39 166.29 134.69 C 166.58 130.98 168.93 129.16 169.39 125.97 C 169.86 122.77 169.19 118.54 169.07 115.51 C 168.95 112.48 169.08 110.66 168.67 107.79 C 168.27 104.93 166.88 100.68 166.63 98.33 C 166.37 95.98 168.03 95.79 167.13 93.69 C 166.23 91.59 163.00 87.88 161.24 85.75 C 159.48 83.62 158.07 82.29 156.57 80.89 C 155.06 79.50 154.35 78.02 152.23 77.36 C 150.11 76.71 146.69 77.13 143.87 76.97 C 141.05 76.81 138.14 75.24 135.31 76.40 C 132.48 77.56 129.76 81.60 126.89 83.94 C 124.03 86.27 121.40 87.26 118.12 90.41 C 114.83 93.57 110.39 99.07 107.21 102.87 C 104.02 106.66 102.12 108.88 99.00 113.19 C 95.88 117.50 90.88 123.82 88.48 128.75 C 86.07 133.68 85.69 137.04 84.58 142.76 C 83.48 148.47 82.23 156.54 81.87 163.04 C 81.50 169.53 81.75 174.67 82.39 181.71 C 83.03 188.76 84.63 198.89 85.72 205.29 C 86.81 211.70 87.10 214.20 88.92 220.14 C 90.74 226.08 93.64 234.90 96.67 240.92 C 99.71 246.94 103.35 250.52 107.13 256.25 C 110.91 261.99 115.62 269.72 119.34 275.33 C 123.06 280.93 125.67 284.65 129.45 289.87 C 133.23 295.10 138.72 301.50 142.02 306.68 C 145.32 311.87 146.82 316.04 149.27 320.97 C 151.72 325.90 154.42 331.95 156.73 336.26 C 159.04 340.57 161.37 343.19 163.13 346.82 C 164.88 350.46 166.68 354.56 167.26 358.07 C 167.84 361.58 167.13 364.28 166.61 367.90 C 166.09 371.53 165.00 376.35 164.15 379.81 C 163.30 383.28 162.94 385.68 161.52 388.68 C 160.10 391.68 157.46 395.20 155.62 397.79 C 153.78 400.38 151.85 401.79 150.49 404.24 C 149.12 406.68 148.77 410.10 147.43 412.47 C 146.10 414.83 143.39 416.45 142.47 418.42 C 141.55 420.39 142.58 422.05 141.93 424.27 C 141.28 426.50 138.74 429.00 138.59 431.76 C 138.44 434.52 140.13 438.09 141.03 440.83 C 141.93 443.57 142.86 445.87 143.98 448.20 C 145.11 450.52 145.74 452.65 147.80 454.80 C 149.86 456.95 153.54 459.35 156.34 461.10 C 159.13 462.85 160.75 463.61 164.55 465.29 C 168.36 466.97 174.59 469.68 179.17 471.16 C 183.74 472.63 187.25 473.58 191.98 474.15 C 196.70 474.72 202.54 474.63 207.50 474.58 C 212.46 474.52 215.75 474.95 221.74 473.82 C 227.73 472.70 237.36 470.45 243.43 467.83 C 249.50 465.20 252.76 461.66 258.18 458.10 C 263.60 454.53 270.59 450.46 275.94 446.44 C 281.28 442.42 285.54 439.58 290.25 433.96 C 294.95 428.34 300.47 419.31 304.15 412.71 C 307.83 406.11 309.10 401.46 312.31 394.35 C 315.52 387.25 320.92 377.63 323.39 370.09 C 325.85 362.55 326.73 356.08 327.10 349.10 C 327.47 342.12 326.56 334.87 325.60 328.21 C 324.65 321.55 323.89 316.06 321.38 309.15 C 318.86 302.24 313.78 293.10 310.51 286.76 C 307.25 280.41 305.74 276.44 301.80 271.09 C 297.86 265.73 292.36 259.26 286.87 254.61 C 281.37 249.96 274.24 246.30 268.82 243.19 C 263.41 240.07 259.98 237.99 254.38 235.93 C 248.79 233.86 240.74 231.66 235.26 230.79 C 229.78 229.92 226.69 230.32 221.52 230.72 C 216.36 231.12 209.34 231.84 204.25 233.19 C 199.17 234.55 194.97 236.10 190.99 238.83 C 187.00 241.57 183.50 246.07 180.34 249.59 C 177.18 253.12 174.76 256.36 172.05 260.01 C 169.34 263.66 165.79 267.88 164.09 271.49 C 162.39 275.09 162.54 277.19 161.84 281.61 C 161.14 286.03 160.21 292.94 159.88 298.02 C 159.56 303.10 159.10 307.33 159.89 312.10 C 160.68 316.88 162.42 322.24 164.63 326.66 C 166.84 331.08 169.89 334.00 173.13 338.62 C 176.38 343.24 180.00 350.24 184.10 354.38 C 188.19 358.53 192.42 360.91 197.69 363.51 C 202.95 366.10 210.31 368.29 215.68 369.94 C 221.06 371.59 224.45 372.80 229.95 373.42 C 235.45 374.04 242.82 374.04 248.68 373.65 C 254.53 373.26 259.05 372.99 265.08 371.09 C 271.11 369.18 279.23 365.08 284.87 362.22 C 290.52 359.35 294.30 358.12 298.96 353.87 C 303.62 349.63 309.44 342.28 312.85 336.75 C 316.25 331.21 317.37 326.52 319.38 320.65 C 321.40 314.79 323.78 308.47 324.94 301.54 C 326.11 294.62 326.93 285.77 326.35 279.10 C 325.78 272.43 323.51 267.40 321.51 261.50 C 319.51 255.60 316.91 248.80 314.37 243.71 C 311.83 238.63 309.49 235.82 306.27 231.00 C 303.04 226.18 298.07 219.72 295.05 214.78 C 292.03 209.83 291.36 206.08 288.15 201.34 C 284.95 196.60 279.25 190.62 275.83 186.36 C 272.41 182.09 270.46 179.52 267.62 175.75 C 264.77 171.99 260.80 167.20 258.77 163.78 C 256.74 160.37 256.50 158.73 255.44 155.27 C 254.37 151.81 252.98 146.47 252.39 143.02 C 251.80 139.56 251.65 137.87 251.91 134.55 C 252.16 131.24 252.94 126.39 253.92 123.13 C 254.89 119.87 256.75 117.96 257.77 114.98 C 258.79 112.00 259.47 108.19 260.04 105.24 C 260.61 102.29 260.81 100.03 261.18 97.29 C 261.55 94.55 261.87 91.39 262.27 88.80 C 262.68 86.21 264.05 84.41 263.62 81.76 C 263.20 79.10 260.71 75.37 259.72 72.86 C 258.73 70.35 259.34 68.76 257.69 66.69 C 256.04 64.62 252.57 62.04 249.83 60.45 C 247.10 58.86 244.87 57.82 241.26 57.17 C 237.65 56.52 232.13 56.27 228.18 56.53 C 224.23 56.78 221.68 57.65 217.56 58.72 C 213.43 59.79 208.42 60.76 203.44 62.95 C 198.47 65.14 192.49 69.17 187.71 71.84 C 182.93 74.51 179.06 76.55 174.75 78.96 C 170.45 81.38 165.77 83.53 161.87 86.33 C 157.98 89.13 154.97 92.73 151.38 95.77 C 147.80 98.82 143.69 102.34 140.35 104.60 C 137.02 106.86 134.70 106.99 131.36 109.34 C 128.02 111.69 123.57 116.39 120.32 118.70 C 117.07 121.01 114.69 121.77 111.86 123.20 C 109.02 124.63 105.52 126.62 103.30 127.30 C 101.07 127.98 100.39 127.18 98.51 127.29 C 96.63 127.39 93.76 127.83 92.04 127.92 C 90.31 128.02 89.90 128.57 88.15 127.86 C 86.39 127.14 82.95 125.05 81.50 123.62 C 80.05 122.18 80.19 121.38 79.44 119.25 C 78.69 117.12 77.07 113.55 77.01 110.85 C 76.94 108.15 77.48 105.97 79.06 103.05 C 80.63 100.13 83.83 96.16 86.43 93.31 C 89.03 90.46 90.84 88.64 94.64 85.94 C 98.44 83.25 104.60 79.80 109.22 77.14 C 113.83 74.49 118.00 72.24 122.31 70.00 C 126.62 67.75 130.84 65.11 135.10 63.69 C 139.36 62.26 143.22 62.50 147.87 61.43 C 152.52 60.37 157.87 57.81 163.02 57.29 C 168.16 56.77 172.47 58.07 178.74 58.31 C 185.00 58.56 193.36 57.67 200.58 58.76 C 207.80 59.86 215.59 61.90 222.07 64.87 C 228.55 67.83 233.55 71.55 239.47 76.55 C 245.38 81.56 252.67 88.66 257.57 94.90 C 262.47 101.14 265.34 107.22 268.85 113.97 C 272.37 120.72 276.68 128.43 278.66 135.40 C 280.63 142.38 281.38 148.18 280.69 155.80 C 280.01 163.42 276.41 173.67 274.55 181.13 C 272.70 188.60 272.38 194.98 269.56 200.61 C 266.74 206.24 261.61 210.88 257.65 214.93 C 253.69 218.98 250.60 221.91 245.79 224.89 C 240.99 227.86 233.98 231.60 228.83 232.80 C 223.69 233.99 219.84 233.56 214.92 232.07 C 210.01 230.58 202.93 226.46 199.33 223.87 C 195.73 221.27 194.81 220.25 193.35 216.52 C 191.89 212.79 190.80 206.40 190.59 201.51 C 190.38 196.62 190.46 192.32 192.11 187.19 C 193.77 182.06 197.55 175.13 200.51 170.74 C 203.48 166.34 205.58 163.55 209.90 160.81 C 214.23 158.07 221.05 156.10 226.46 154.30 C 231.86 152.50 236.26 150.11 242.35 150.02 C 248.44 149.94 257.01 151.65 263.02 153.80 C 269.02 155.94 273.28 158.37 278.39 162.91 C 283.49 167.44 290.01 174.94 293.65 181.01 C 297.29 187.08 299.20 192.56 300.22 199.32 C 301.24 206.08 300.97 214.21 299.77 221.56 C 298.57 228.91 295.99 237.63 293.03 243.41 C 290.06 249.18 287.18 252.12 281.99 256.21 C 276.80 260.29 267.91 265.54 261.89 267.91 C 255.87 270.27 251.34 270.92 245.86 270.39 C 240.38 269.85 233.84 267.11 229.01 264.72 C 224.19 262.32 220.88 260.22 216.93 256.00 C 212.98 251.77 208.10 244.50 205.30 239.36 C 202.51 234.23 200.18 230.57 200.17 225.19 C 200.16 219.81 203.42 212.31 205.23 207.09 C 207.04 201.88 208.18 198.58 211.02 193.90 C 213.85 189.23 218.15 182.84 222.25 179.03 C 226.34 175.22 230.37 173.01 235.59 171.04 C 240.82 169.07 248.26 168.17 253.57 167.24 C 258.89 166.31 262.47 165.87 267.49 165.46 C 272.50 165.05 278.33 164.35 283.66 164.77 C 288.98 165.19 294.17 165.97 299.42 167.96 C 304.67 169.95 310.35 173.94 315.16 176.72 C 319.97 179.49 323.94 181.81 328.28 184.60 C 332.61 187.40 337.20 191.30 341.17 193.51 C 345.14 195.71 348.45 196.22 352.07 197.85 C 355.70 199.47 359.36 201.96 362.93 203.26 C 366.49 204.56 369.82 205.25 373.47 205.66 C 377.12 206.07 381.63 205.79 384.83 205.70 C 388.02 205.62 389.41 205.76 392.64 205.15 C 395.88 204.55 401.13 203.54 404.23 202.06 C 407.33 200.59 409.39 198.19 411.27 196.30 C 413.15 194.41 414.56 193.35 415.50 190.72 C 416.43 188.08 416.01 183.84 416.91 180.50 C 417.80 177.16 419.93 173.86 420.89 170.69 C 421.85 167.51 422.36 163.96 422.68 161.44 C 423.00 158.92 422.67 158.22 422.81 155.57 C 422.96 152.93 423.24 148.29 423.55 145.57 C 423.86 142.86 423.64 141.50 424.68 139.27 C 425.72 137.05 428.32 134.08 429.79 132.23 C 431.26 130.39 432.34 129.52 433.51 128.20 C 434.68 126.89 435.47 125.50 436.82 124.32 C 438.17 123.15 440.02 121.92 441.60 121.17 C 443.17 120.41 444.99 119.67 446.27 119.77 C 447.56 119.87 447.79 119.87 449.30 121.74 C 450.80 123.60 453.15 128.17 455.30 130.96 C 457.45 133.75 460.16 134.43 462.20 138.47 C 464.24 142.51 466.26 150.22 467.55 155.19 C 468.85 160.16 470.13 162.42 469.98 168.30 C 469.83 174.18 467.85 183.90 466.68 190.46 C 465.51 197.02 465.53 201.22 462.98 207.65 C 460.42 214.09 455.82 222.85 451.34 229.07 C 446.85 235.28 442.19 239.49 436.08 244.94 C 429.97 250.39 422.19 257.46 414.69 261.76 C 407.20 266.07 399.66 268.50 391.12 270.78 C 382.57 273.06 372.62 274.48 363.42 275.44 C 354.23 276.39 343.83 276.96 335.95 276.51 C 328.07 276.06 323.60 274.56 316.14 272.75 C 308.68 270.94 298.02 267.59 291.19 265.64 C 284.35 263.70 281.20 263.10 275.14 261.10 C 269.07 259.09 260.58 255.42 254.81 253.62 C 249.04 251.81 245.66 251.89 240.52 250.27 C 235.39 248.66 228.85 245.78 224.00 243.92 C 219.15 242.07 216.47 240.47 211.41 239.14 C 206.35 237.81 198.55 236.93 193.65 235.94 C 188.75 234.94 186.42 233.67 182.00 233.18 C 177.58 232.70 171.72 232.63 167.12 233.04 C 162.52 233.45 158.84 235.03 154.39 235.66 C 149.93 236.30 144.40 236.64 140.38 236.86 C 136.37 237.08 133.50 236.87 130.27 236.98 C 127.05 237.10 124.10 237.59 121.02 237.56 C 117.93 237.53 114.98 237.57 111.74 236.80 C 108.50 236.03 104.47 234.33 101.59 232.94 C 98.71 231.56 96.85 230.51 94.46 228.50 C 92.07 226.50 89.55 223.37 87.25 220.94 C 84.96 218.50 82.52 216.66 80.68 213.90 C 78.84 211.14 77.39 207.31 76.21 204.39 C 75.02 201.47 74.23 199.32 73.57 196.39 C 72.91 193.46 72.66 189.47 72.25 186.82 C 71.84 184.17 72.11 182.51 71.10 180.47 C 70.09 178.43 68.03 176.59 66.20 174.60 C 64.37 172.62 61.78 170.02 60.13 168.59 C 58.47 167.15 57.93 166.22 56.29 165.99 C 54.64 165.76 51.95 166.17 50.24 167.19 C 48.52 168.20 47.46 169.35 46.02 172.08 C 44.59 174.80 43.01 180.02 41.62 183.52 C 40.23 187.03 38.61 189.10 37.68 193.10 C 36.75 197.10 35.78 202.65 36.04 207.53 C 36.30 212.41 37.66 216.47 39.25 222.39 C 40.84 228.32 42.49 236.93 45.58 243.05 C 48.68 249.18 52.30 253.63 57.81 259.17 C 63.33 264.70 72.03 271.75 78.70 276.25 C 85.36 280.75 90.37 283.35 97.81 286.16 C 105.24 288.97 115.49 291.61 123.30 293.11 C 131.11 294.60 136.89 295.99 144.66 295.11 C 152.43 294.24 162.77 290.39 169.93 287.85 C 177.09 285.31 181.73 283.43 187.61 279.87 C 193.48 276.31 200.81 271.13 205.19 266.49 C 209.56 261.85 211.88 257.85 213.85 252.03 C 215.81 246.21 217.09 237.11 216.98 231.60 C 216.87 226.09 215.35 223.12 213.20 218.96 C 211.04 214.80 207.19 209.50 204.07 206.65 C 200.94 203.81 198.09 203.25 194.45 201.88 C 190.82 200.51 185.93 198.29 182.26 198.45 C 178.59 198.62 176.22 200.38 172.42 202.86 C 168.61 205.34 162.67 209.12 159.44 213.35 C 156.20 217.57 154.34 223.30 152.98 228.21 C 151.63 233.12 151.06 236.87 151.31 242.83 C 151.56 248.80 152.26 257.75 154.50 264.00 C 156.73 270.25 160.56 274.61 164.70 280.34 C 168.84 286.07 174.48 293.99 179.34 298.38 C 184.20 302.77 188.12 304.53 193.87 306.68 C 199.63 308.83 207.36 310.48 213.86 311.31 C 220.35 312.14 226.46 312.85 232.83 311.65 C 239.19 310.44 246.76 306.59 252.06 304.07 C 257.36 301.54 260.35 300.38 264.61 296.49 C 268.87 292.59 274.44 285.80 277.61 280.72 C 280.79 275.64 282.03 271.62 283.66 266.02 C 285.28 260.41 286.86 252.97 287.35 247.10 C 287.83 241.22 287.61 236.36 286.57 230.77 C 285.53 225.19 283.49 218.56 281.11 213.59 C 278.74 208.63 276.00 204.63 272.32 200.98 C 268.65 197.32 263.20 194.50 259.08 191.64 C 254.96 188.78 252.13 185.55 247.60 183.81 C 243.07 182.08 236.92 181.34 231.88 181.23 C 226.83 181.13 222.45 181.34 217.35 183.18 C 212.24 185.01 205.27 188.90 201.24 192.26 C 197.21 195.62 196.19 198.44 193.17 203.33 C 190.14 208.23 184.96 215.90 183.09 221.65 C 181.21 227.39 181.11 231.72 181.92 237.82 C 182.73 243.92 184.99 251.84 187.92 258.23 C 190.85 264.63 195.61 271.17 199.48 276.20 C 203.34 281.23 205.89 284.45 211.13 288.40 C 216.37 292.36 225.38 297.13 230.94 299.93 C 236.49 302.73 239.43 303.18 244.46 305.20 C 249.50 307.22 256.39 309.55 261.13 312.05 C 265.86 314.55 268.44 317.80 272.88 320.19 C 277.32 322.59 283.16 324.13 287.77 326.42 C 292.38 328.72 296.24 331.61 300.54 333.97 C 304.84 336.33 310.21 338.33 313.55 340.58 C 316.88 342.84 318.47 344.57 320.57 347.50 C 322.66 350.43 324.64 355.09 326.13 358.17 C 327.62 361.26 329.06 362.67 329.49 366.01 C 329.93 369.35 329.28 374.58 328.74 378.20 C 328.19 381.82 327.97 384.04 326.22 387.73 C 324.48 391.42 321.23 397.14 318.27 400.36 C 315.31 403.58 312.85 405.18 308.46 407.07 C 304.07 408.95 297.61 411.29 291.92 411.69 C 286.23 412.09 280.14 410.74 274.31 409.46 C 268.48 408.19 262.73 406.98 256.93 404.02 C 251.13 401.05 244.87 397.09 239.51 391.65 C 234.15 386.21 228.42 378.21 224.78 371.35 C 221.14 364.50 219.20 357.99 217.68 350.49 C 216.15 342.99 215.34 333.14 215.62 326.36 C 215.91 319.58 217.24 316.01 219.40 309.82 C 221.55 303.62 224.32 295.29 228.57 289.19 C 232.82 283.10 240.08 277.57 244.91 273.23 C 249.74 268.90 252.44 265.38 257.55 263.17 C 262.66 260.96 269.96 260.07 275.56 259.98 C 281.16 259.88 285.65 261.61 291.16 262.62 C 296.66 263.63 304.10 264.42 308.61 266.02 C 313.11 267.62 314.89 269.08 318.20 272.23 C 321.51 275.38 326.19 280.55 328.48 284.89 C 330.77 289.23 331.67 293.86 331.94 298.29 C 332.21 302.71 331.21 307.41 330.10 311.44 C 329.00 315.47 328.15 318.44 325.30 322.45 C 322.44 326.46 317.12 332.03 312.98 335.50 C 308.84 338.96 305.39 340.75 300.46 343.23 C 295.53 345.70 288.61 349.02 283.39 350.35 C 278.17 351.69 274.76 351.61 269.12 351.24 C 263.49 350.86 255.10 349.70 249.58 348.11 C 244.06 346.51 240.43 345.31 236.00 341.66 C 231.56 338.01 226.18 331.30 222.97 326.19 C 219.76 321.08 217.81 317.30 216.74 311.00 C 215.68 304.70 215.97 294.84 216.60 288.40 C 217.23 281.96 217.73 278.25 220.52 272.36 C 223.30 266.47 229.15 257.90 233.31 253.06 C 237.47 248.23 240.43 245.79 245.46 243.35 C 250.49 240.92 257.87 239.40 263.49 238.45 C 269.10 237.50 273.74 236.52 279.16 237.67 C 284.58 238.81 290.95 242.11 296.02 245.30 C 301.09 248.48 306.94 252.84 309.57 256.78 C 312.20 260.71 311.75 263.93 311.82 268.92 C 311.89 273.91 311.48 281.37 309.98 286.70 C 308.48 292.04 306.18 296.62 302.82 300.94 C 299.46 305.25 294.20 309.16 289.83 312.60 C 285.46 316.04 282.10 319.94 276.60 321.56 C 271.09 323.18 262.88 322.92 256.79 322.32 C 250.70 321.72 245.21 319.99 240.06 317.97 C 234.90 315.96 230.49 312.78 225.89 310.24 C 221.29 307.70 217.04 305.79 212.46 302.75 C 207.89 299.71 202.75 295.08 198.45 291.99 C 194.16 288.90 190.97 287.01 186.69 284.20 C 182.41 281.40 176.51 277.41 172.79 275.18 C 169.08 272.94 167.50 272.87 164.42 270.77 C 161.35 268.67 157.72 264.87 154.33 262.56 C 150.95 260.24 147.71 258.45 144.12 256.89 C 140.53 255.32 136.03 253.70 132.81 253.18 C 129.59 252.66 127.85 253.74 124.82 253.77 C 121.78 253.79 118.02 253.25 114.63 253.30 C 111.23 253.35 107.88 253.98 104.43 254.06 C 100.97 254.14 96.84 254.33 93.92 253.79 C 91.01 253.25 89.11 252.08 86.93 250.83 C 84.74 249.59 83.12 248.14 80.82 246.31 C 78.53 244.48 75.11 242.15 73.15 239.86 C 71.19 237.56 69.97 236.00 69.08 232.56 C 68.19 229.13 67.88 223.77 67.80 219.25 C 67.72 214.72 67.27 210.12 68.59 205.39 C 69.91 200.65 72.80 195.33 75.73 190.82 C 78.67 186.31 82.18 182.32 86.21 178.31 C 90.24 174.30 95.01 170.23 99.91 166.76 C 104.81 163.29 109.07 160.04 115.59 157.49 C 122.12 154.94 131.74 153.03 139.05 151.46 C 146.37 149.89 152.08 148.70 159.51 148.06 C 166.94 147.42 176.60 147.09 183.63 147.62 C 190.67 148.15 194.73 149.41 201.72 151.21 C 208.70 153.01 218.94 155.85 225.52 158.41 C 232.10 160.97 235.51 162.66 241.20 166.59 C 246.89 170.51 254.45 177.31 259.66 181.95 C 264.88 186.59 268.58 189.39 272.47 194.41 C 276.36 199.43 279.55 206.51 283.00 212.06 C 286.46 217.61 291.05 221.81 293.22 227.73 C 295.39 233.65 295.64 241.55 296.02 247.59 C 296.39 253.63 295.86 258.53 295.47 263.97 C 295.07 269.41 294.68 275.66 293.65 280.22 C 292.61 284.78 291.46 286.98 289.27 291.32 C 287.08 295.66 283.85 301.78 280.51 306.25 C 277.18 310.72 273.57 314.72 269.26 318.15 C 264.95 321.57 259.89 324.58 254.66 326.80 C 249.42 329.03 243.18 330.63 237.86 331.49 C 232.54 332.35 228.12 332.16 222.73 331.98 C 217.35 331.80 210.43 331.14 205.57 330.40 C 200.70 329.67 197.87 329.71 193.55 327.59 C 189.24 325.47 183.53 321.05 179.67 317.69 C 175.81 314.33 173.37 311.39 170.38 307.42 C 167.40 303.45 164.10 298.20 161.77 293.88 C 159.43 289.57 157.25 286.66 156.38 281.54 C 155.51 276.42 156.71 268.70 156.53 263.18 C 156.36 257.65 154.92 253.92 155.32 248.39 C 155.72 242.86 157.12 235.74 158.92 229.98 C 160.73 224.22 163.45 219.81 166.15 213.81 C 168.86 207.81 172.11 198.99 175.17 193.99 C 178.23 188.99 180.81 187.38 184.51 183.79 C 188.20 180.21 192.88 175.64 197.34 172.46 C 201.80 169.29 205.61 167.08 211.27 164.74 C 216.92 162.39 225.48 159.90 231.28 158.40 C 237.07 156.90 240.32 155.76 246.04 155.76 C 251.77 155.77 259.81 157.05 265.62 158.44 C 271.42 159.82 275.89 161.44 280.90 164.06 C 285.91 166.68 291.56 170.38 295.67 174.13 C 299.77 177.88 302.59 181.85 305.54 186.56 C 308.50 191.27 311.45 197.17 313.41 202.40 C 315.36 207.63 316.71 211.87 317.27 217.93 C 317.82 224.00 317.62 231.54 316.72 238.81 C 315.82 246.08 313.30 255.26 311.84 261.54 C 310.38 267.82 310.01 271.40 307.94 276.51 C 305.87 281.61 302.33 287.54 299.43 292.19 C 296.52 296.85 293.65 300.14 290.50 304.43 C 287.35 308.71 283.70 313.95 280.51 317.91 C 277.32 321.87 274.96 324.36 271.35 328.20 C 267.74 332.03 262.17 337.59 258.84 340.93 C 255.51 344.26 254.20 345.07 251.36 348.20 C 248.52 351.32 244.45 356.35 241.78 359.67 C 239.10 362.99 237.31 364.33 235.32 368.10 C 233.33 371.87 231.16 378.28 229.85 382.29 C 228.53 386.30 227.74 388.76 227.44 392.15 C 227.13 395.54 227.13 399.54 228.03 402.60 C 228.93 405.66 230.93 407.85 232.84 410.51 C 234.76 413.17 237.25 416.05 239.53 418.56 C 241.81 421.08 243.92 423.84 246.54 425.58 C 249.16 427.32 252.20 427.60 255.23 428.99 C 258.27 430.39 260.72 433.17 264.74 433.97 C 268.76 434.77 274.50 434.39 279.38 433.79 C 284.26 433.18 288.53 432.00 294.01 430.35 C 299.50 428.70 307.03 426.11 312.26 423.91 C 317.50 421.71 320.91 420.07 325.41 417.15 C 329.92 414.22 335.08 410.01 339.29 406.35 C 343.49 402.69 346.87 399.78 350.63 395.16 C 354.40 390.54 358.72 383.98 361.87 378.62 C 365.03 373.27 366.94 367.75 369.56 363.03 C 372.18 358.31 374.79 354.28 377.58 350.31 C 380.38 346.33 383.33 342.86 386.33 339.19 C 389.33 335.52 392.37 331.53 395.59 328.29 C 398.80 325.04 402.75 322.05 405.63 319.71 C 408.50 317.37 409.98 316.13 412.86 314.23 C 415.74 312.33 420.05 309.60 422.91 308.31 C 425.76 307.01 427.52 307.14 429.99 306.44 C 432.46 305.75 435.20 304.51 437.75 304.15 C 440.29 303.79 443.25 303.76 445.24 304.26 C 447.22 304.77 448.14 305.83 449.66 307.19 C 451.18 308.55 453.25 310.46 454.35 312.42 C 455.46 314.38 455.81 316.18 456.29 318.96 C 456.76 321.74 457.68 325.09 457.22 329.10 C 456.76 333.10 454.82 339.31 453.51 343.01 C 452.19 346.71 451.66 347.39 449.31 351.30 C 446.96 355.21 442.59 362.46 439.39 366.48 C 436.20 370.50 434.12 371.48 430.12 375.41 C 426.12 379.33 420.49 386.48 415.40 390.03 C 410.31 393.57 405.71 394.24 399.59 396.67 C 393.47 399.10 385.05 402.69 378.68 404.63 C 372.32 406.57 368.29 407.45 361.41 408.32 C 354.53 409.19 344.68 410.07 337.38 409.87 C 330.08 409.68 324.78 408.95 317.60 407.16 C 310.41 405.38 301.59 402.75 294.28 399.15 C 286.97 395.55 279.67 389.91 273.73 385.56 C 267.80 381.20 263.80 378.09 258.67 373.02 C 253.55 367.94 247.13 361.26 242.99 355.10 C 238.85 348.93 236.67 343.14 233.83 336.03 C 230.99 328.91 227.92 319.41 225.92 312.41 C 223.93 305.41 222.91 301.18 221.86 294.05 C 220.81 286.92 219.62 276.26 219.60 269.65 C 219.58 263.04 220.48 260.09 221.75 254.39 C 223.02 248.70 224.67 240.94 227.21 235.49 C 229.76 230.03 232.81 226.25 236.99 221.67 C 241.17 217.08 247.69 211.37 252.29 207.98 C 256.89 204.59 260.12 202.98 264.59 201.31 C 269.05 199.64 274.29 198.34 279.08 197.96 C 283.87 197.58 288.56 198.75 293.33 199.03 C 298.10 199.31 302.89 198.83 307.71 199.64 C 312.53 200.44 317.04 201.79 322.24 203.89 C 327.44 205.98 334.27 209.35 338.91 212.21 C 343.55 215.07 346.82 217.06 350.08 221.04 C 353.33 225.03 356.29 231.44 358.45 236.13 C 360.60 240.82 362.14 243.95 362.98 249.16 C 363.83 254.37 363.66 261.99 363.52 267.37 C 363.37 272.76 363.78 275.68 362.14 281.47 C 360.49 287.26 356.99 296.39 353.66 302.10 C 350.32 307.81 346.74 310.93 342.13 315.71 C 337.51 320.48 331.38 326.88 325.98 330.78 C 320.58 334.68 315.17 336.84 309.70 339.10 C 304.24 341.36 299.70 343.68 293.18 344.34 C 286.66 345.00 276.99 344.12 270.58 343.07 C 264.17 342.01 260.46 340.51 254.73 338.01 C 249.00 335.51 241.22 331.37 236.22 328.09 C 231.21 324.81 228.28 323.07 224.71 318.33 C 221.14 313.58 216.92 305.24 214.80 299.63 C 212.67 294.01 212.57 290.28 211.94 284.63 C 211.31 278.97 210.48 271.67 211.03 265.71 C 211.58 259.75 212.53 254.89 215.25 248.88 C 217.98 242.87 223.41 234.65 227.39 229.66 C 231.36 224.67 234.30 222.08 239.11 218.96 C 243.92 215.84 250.85 212.63 256.26 210.94 C 261.66 209.24 265.69 208.69 271.51 208.77 C 277.34 208.86 285.67 210.41 291.21 211.45 C 296.75 212.49 299.45 213.44 304.75 215.00 C 310.06 216.55 317.83 218.90 323.05 220.78 C 328.26 222.67 331.75 224.31 336.03 226.32 C 340.30 228.34 345.00 230.74 348.70 232.87 C 352.41 234.99 354.11 237.58 358.25 239.07 C 362.39 240.55 369.34 240.91 373.55 241.77 C 377.76 242.63 380.30 243.81 383.52 244.22 C 386.74 244.62 390.15 244.92 392.89 244.19 C 395.63 243.46 397.09 241.65 399.97 239.84 C 402.85 238.02 407.40 234.78 410.16 233.32 C 412.92 231.86 414.09 232.28 416.53 231.09 C 418.97 229.89 422.02 227.74 424.79 226.13 C 427.56 224.53 430.98 222.92 433.15 221.46 C 435.31 220.01 435.72 218.71 437.79 217.39 C 439.86 216.08 443.67 214.50 445.58 213.58 C 447.48 212.66 447.53 212.39 449.21 211.88 C 450.88 211.38 453.66 211.23 455.64 210.56 C 457.61 209.88 458.93 207.61 461.07 207.85 C 463.20 208.09 466.46 210.46 468.44 212.00 C 470.41 213.55 471.33 215.23 472.90 217.13 C 474.47 219.03 476.36 221.06 477.86 223.40 C 479.37 225.75 480.95 227.99 481.92 231.19 C 482.90 234.40 483.66 238.96 483.73 242.62 C 483.79 246.28 482.78 249.15 482.32 253.16 C 481.86 257.17 481.91 262.28 480.98 266.67 C 480.05 271.06 478.78 274.93 476.74 279.51 C 474.69 284.09 471.05 289.51 468.72 294.15 C 466.38 298.78 465.73 302.20 462.72 307.32 C 459.71 312.44 454.58 319.95 450.67 324.86 C 446.75 329.78 443.82 332.45 439.24 336.84 C 434.67 341.22 428.25 347.22 423.22 351.18 C 418.19 355.15 414.80 356.94 409.07 360.62 C 403.33 364.29 394.67 370.06 388.83 373.24 C 382.98 376.43 379.78 377.40 373.98 379.71 C 368.19 382.01 359.95 385.07 354.04 387.10 C 348.13 389.14 344.14 390.27 338.53 391.92 C 332.92 393.56 325.47 395.57 320.38 396.99 C 315.29 398.42 311.60 398.81 308.00 400.48 C 304.39 402.15 302.10 404.47 298.76 407.02 C 295.41 409.57 291.30 413.28 287.90 415.78 C 284.51 418.28 281.10 419.49 278.40 422.02 C 275.70 424.55 273.27 428.10 271.71 430.96 C 270.14 433.83 269.32 437.02 269.00 439.21 C 268.69 441.40 269.14 442.60 269.81 444.08 C 270.48 445.56 270.52 446.52 273.02 448.08 C 275.52 449.64 281.47 452.20 284.82 453.44 C 288.17 454.69 288.80 455.59 293.15 455.54 C 297.49 455.50 305.95 454.51 310.88 453.17 C 315.81 451.82 318.21 450.87 322.74 447.47 C 327.27 444.07 334.09 437.59 338.06 432.79 C 342.03 427.99 343.63 424.90 346.57 418.67 C 349.50 412.45 353.44 402.59 355.65 395.41 C 357.87 388.24 359.58 383.25 359.84 375.60 C 360.10 367.95 359.16 357.09 357.22 349.51 C 355.28 341.94 352.18 337.22 348.22 330.18 C 344.25 323.14 338.52 313.25 333.44 307.26 C 328.36 301.27 323.86 297.88 317.75 294.24 C 311.63 290.61 303.36 287.11 296.77 285.46 C 290.18 283.81 284.46 283.55 278.19 284.36 C 271.93 285.17 263.89 287.49 259.17 290.33 C 254.45 293.17 252.56 297.22 249.86 301.41 C 247.17 305.59 244.42 310.41 242.98 315.46 C 241.53 320.51 240.29 327.13 241.19 331.71 C 242.09 336.30 244.60 339.72 248.38 342.98 C 252.15 346.24 259.04 349.34 263.85 351.27 C 268.65 353.20 272.37 354.26 277.20 354.55 C 282.03 354.84 287.98 353.86 292.84 353.02 C 297.69 352.18 301.35 351.04 306.33 349.49 C 311.31 347.95 318.01 345.92 322.71 343.75 C 327.40 341.58 329.96 338.54 334.49 336.48 C 339.03 334.42 345.52 333.14 349.91 331.39 C 354.29 329.64 356.45 327.61 360.80 325.97 C 365.16 324.33 371.82 322.43 376.03 321.55 C 380.24 320.67 382.47 321.11 386.06 320.69 C 389.66 320.27 394.43 319.14 397.61 319.03 C 400.79 318.91 402.75 319.57 405.16 319.98 C 407.58 320.40 410.00 320.44 412.11 321.52 C 414.22 322.61 416.05 324.17 417.82 326.50 C 419.58 328.82 421.28 333.00 422.69 335.50 C 424.09 337.99 424.67 339.65 426.25 341.48 C 427.83 343.32 430.66 344.83 432.16 346.53 C 433.66 348.22 433.60 349.65 435.25 351.67 C 436.89 353.69 439.79 357.03 442.01 358.64 C 444.22 360.24 446.81 361.06 448.52 361.28 C 450.23 361.50 451.22 360.28 452.27 359.93 C 453.32 359.58 453.50 360.08 454.84 359.18 C 456.18 358.28 458.44 356.32 460.31 354.53 C 462.19 352.73 464.11 350.15 466.08 348.42 C 468.05 346.69 470.42 345.65 472.12 344.16 C 473.82 342.67 474.74 340.76 476.27 339.49 C 477.80 338.22 479.53 337.89 481.28 336.55 C 483.03 335.21 485.11 332.74 486.77 331.46 C 488.43 330.17 490.04 329.44 491.24 328.86 C 492.44 328.28 492.77 328.34 493.99 327.98 C 495.20 327.63 497.21 326.71 498.54 326.75 C 499.87 326.80 501.20 327.85 501.96 328.25 C 502.72 328.65 502.65 328.41 503.10 329.16 C 503.55 329.91 503.88 331.64 504.66 332.74 C 505.44 333.85 507.21 334.63 507.80 335.79 C 508.39 336.96 507.88 338.30 508.21 339.72 C 508.54 341.14 509.60 342.99 509.77 344.31 C 509.94 345.63 508.90 347.25 509.21 347.61 C 509.53 347.98 513.49 346.95 511.64 346.50 C 509.78 346.04 505.39 345.22 498.10 344.88 C 490.81 344.53 478.20 344.09 467.91 344.43 C 457.61 344.78 445.34 345.74 436.33 346.92 C 427.33 348.11 421.37 349.41 413.88 351.54 C 406.40 353.66 397.39 357.10 391.41 359.68 C 385.44 362.26 382.31 363.68 378.02 367.00 C 373.73 370.32 368.84 376.05 365.67 379.61 C 362.51 383.18 360.74 385.16 359.04 388.41 C 357.34 391.66 356.05 395.87 355.50 399.11 C 354.95 402.36 354.23 405.89 355.73 407.89 C 357.23 409.90 361.31 410.65 364.50 411.14 C 367.68 411.63 371.95 411.62 374.83 410.85 C 377.71 410.07 378.87 409.06 381.76 406.49 C 384.66 403.93 389.33 399.62 392.20 395.45 C 395.07 391.27 397.00 387.36 398.98 381.43 C 400.97 375.51 403.35 366.15 404.11 359.89 C 404.87 353.62 404.66 350.41 403.54 343.84 C 402.41 337.27 399.85 327.58 397.35 320.45 C 394.84 313.32 393.21 307.17 388.52 301.07 C 383.83 294.97 375.18 288.59 369.22 283.83 C 363.26 279.07 359.72 275.68 352.77 272.50 C 345.82 269.32 334.87 265.91 327.54 264.74 C 320.21 263.58 315.51 264.76 308.79 265.53 C 302.08 266.30 293.34 267.41 287.25 269.35 C 281.16 271.29 277.14 273.73 272.26 277.15 C 267.38 280.57 261.47 285.36 257.96 289.86 C 254.44 294.36 252.46 299.18 251.19 304.15 C 249.91 309.11 249.81 314.95 250.29 319.64 C 250.78 324.34 251.92 328.22 254.11 332.33 C 256.30 336.43 259.94 341.24 263.42 344.26 C 266.90 347.27 268.32 349.14 275.00 350.41 C 281.68 351.68 298.76 351.65 303.51 351.90" fill="none" stroke="#fff" stroke-width="4.48" stroke-opacity="1" stroke-linecap="round" stroke-linejoin="round"/>
  </g>
</svg>