<?xml version="1.0" encoding="UTF-8"?>
<svg xmlns="http://www.w3.org/2000/svg" width="512" height="512" viewBox="0 0 512 512">
  <rect width="100%" height="100%" fill="#000"/>
  <g>
    <path d="M 256.00 256.00 C 253.70 253.80 247.27 246.24 242.20 242.83 C 237.14 239.42 231.14 237.11 225.60 235.54 C 220.05 233.97 214.89 232.99 208.95 233.41 C 203.01 233.82 195.18 235.52 189.97 238.02 C 184.76 240.51 180.99 244.07 177.71 248.37 C 174.44 252.68 171.78 257.71 170.33 263.83 C 168.87 269.95 168.55 278.60 168.99 285.09 C 169.43 291.58 170.68 297.12 172.97 302.77 C 175.27 308.42 178.20 313.87 182.75 318.99 C 187.29 324.12 194.35 329.79 200.24 333.52 C 206.13 337.25 211.77 339.66 218.09 341.39 C 224.40 343.12 230.87 344.14 238.13 343.88 C 245.39 343.62 254.68 342.03 261.65 339.81 C 268.63 337.59 274.42 334.48 279.99 330.56 C 285.55 326.63 290.54 322.33 295.06 316.25 C 299.57 310.18 304.65 301.24 307.06 294.10 C 309.46 286.95 310.03 280.12 309.49 273.39 C 308.94 266.65 307.28 260.20 303.79 253.68 C 300.31 247.17 293.74 239.47 288.57 234.31 C 283.39 229.15 278.23 225.90 272.74 222.73 C 267.26 219.55 261.88 217.73 255.67 215.25 C 249.47 212.76 241.51 210.03 235.52 207.82 C 229.52 205.61 224.65 204.12 219.70 202.01 C 214.75 199.90 210.56 197.73 205.82 195.16 C 201.08 192.59 195.49 189.33 191.27 186.60 C 187.05 183.88 183.83 181.52 180.52 178.81 C 177.20 176.10 174.71 173.28 171.38 170.35 C 168.06 167.41 163.88 163.83 160.55 161.21 C 157.23 158.59 154.64 156.26 151.42 154.61 C 148.20 152.96 145.06 152.13 141.24 151.32 C 137.42 150.51 132.46 149.59 128.50 149.76 C 124.54 149.92 121.09 151.02 117.48 152.31 C 113.87 153.59 110.56 154.57 106.84 157.46 C 103.12 160.35 98.44 165.64 95.16 169.66 C 91.88 173.67 89.66 177.39 87.18 181.54 C 84.71 185.69 82.76 190.00 80.32 194.55 C 77.89 199.10 74.92 204.75 72.56 208.83 C 70.19 212.91 68.20 215.72 66.15 219.04 C 64.10 222.37 62.44 225.44 60.28 228.76 C 58.11 232.09 55.28 236.09 53.15 238.99 C 51.02 241.88 49.33 243.92 47.47 246.12 C 45.62 248.32 44.15 250.21 42.04 252.18 C 39.93 254.15 37.03 256.81 34.83 257.92 C 32.62 259.03 30.72 258.77 28.79 258.84 C 26.86 258.90 24.94 258.95 23.25 258.29 C 21.57 257.62 20.09 256.39 18.68 254.85 C 17.27 253.31 15.83 251.40 14.77 249.07 C 13.71 246.74 12.58 244.57 12.30 240.87 C 12.02 237.18 12.24 231.55 13.10 226.88 C 13.96 222.21 15.07 217.89 17.45 212.85 C 19.83 207.82 22.68 202.44 27.36 196.66 C 32.04 190.88 39.18 183.52 45.54 178.17 C 51.89 172.83 58.33 168.40 65.47 164.58 C 72.61 160.77 79.30 157.59 88.39 155.28 C 97.48 152.98 110.09 151.02 120.01 150.77 C 129.94 150.51 138.98 151.93 147.93 153.77 C 156.88 155.60 164.93 157.58 173.72 161.79 C 182.51 165.99 193.04 173.41 200.67 179.01 C 208.30 184.60 213.47 190.05 219.51 195.38 C 225.56 200.71 230.93 205.32 236.92 210.99 C 242.90 216.65 249.93 223.76 255.44 229.36 C 260.95 234.95 265.28 239.68 269.98 244.58 C 274.67 249.47 278.98 253.70 283.60 258.72 C 288.21 263.73 293.65 269.87 297.65 274.66 C 301.65 279.44 304.38 283.16 307.59 287.43 C 310.80 291.71 314.05 295.49 316.93 300.32 C 319.82 305.15 322.92 311.42 324.90 316.40 C 326.89 321.38 328.31 325.60 328.85 330.23 C 329.40 334.85 329.36 339.18 328.15 344.15 C 326.94 349.13 324.36 355.40 321.58 360.10 C 318.80 364.80 315.31 368.74 311.48 372.36 C 307.64 375.99 303.53 378.79 298.57 381.84 C 293.60 384.89 286.90 388.18 281.70 390.68 C 276.50 393.18 272.27 395.07 267.37 396.84 C 262.47 398.62 257.68 399.87 252.30 401.33 C 246.93 402.80 240.05 404.13 235.11 405.62 C 230.17 407.11 226.62 408.75 222.67 410.27 C 218.72 411.79 215.55 413.26 211.40 414.73 C 207.25 416.21 201.91 417.99 197.78 419.10 C 193.64 420.21 190.30 420.85 186.60 421.39 C 182.90 421.93 179.76 422.43 175.57 422.36 C 171.39 422.29 165.86 421.66 161.51 420.95 C 157.16 420.24 153.49 419.35 149.49 418.09 C 145.48 416.83 141.78 415.51 137.49 413.39 C 133.19 411.27 127.85 408.49 123.70 405.37 C 119.56 402.25 116.13 398.64 112.63 394.64 C 109.13 390.64 105.95 386.49 102.68 381.36 C 99.41 376.23 95.68 369.64 93.00 363.86 C 90.32 358.08 88.47 352.53 86.59 346.67 C 84.71 340.82 82.99 335.31 81.73 328.74 C 80.47 322.17 79.08 314.23 79.03 307.25 C 78.99 300.26 80.32 293.56 81.46 286.81 C 82.61 280.06 83.47 274.03 85.92 266.75 C 88.36 259.47 92.17 250.07 96.12 243.13 C 100.07 236.19 104.57 230.71 109.62 225.11 C 114.67 219.52 119.72 214.60 126.44 209.56 C 133.16 204.53 142.19 198.35 149.93 194.91 C 157.68 191.47 165.23 190.05 172.92 188.90 C 180.61 187.75 187.68 186.89 196.08 188.00 C 204.49 189.12 215.67 192.11 223.36 195.58 C 231.05 199.05 236.63 203.93 242.22 208.82 C 247.80 213.71 252.91 219.07 256.87 224.91 C 260.84 230.75 264.04 236.76 266.01 243.87 C 267.99 250.97 268.76 260.51 268.74 267.55 C 268.71 274.58 267.65 280.40 265.85 286.07 C 264.05 291.74 261.69 296.73 257.92 301.55 C 254.16 306.38 248.23 311.56 243.24 315.04 C 238.26 318.53 233.20 320.95 228.01 322.45 C 222.82 323.95 217.96 324.25 212.10 324.04 C 206.24 323.83 198.68 322.88 192.86 321.19 C 187.05 319.51 181.82 317.14 177.22 313.94 C 172.61 310.74 169.11 306.93 165.23 301.99 C 161.35 297.06 156.76 290.10 153.93 284.33 C 151.10 278.56 149.36 273.25 148.24 267.36 C 147.12 261.47 146.18 255.83 147.22 248.99 C 148.26 242.16 151.00 232.74 154.50 226.34 C 158.01 219.95 163.15 215.34 168.25 210.63 C 173.35 205.92 178.07 201.24 185.11 198.07 C 192.15 194.90 202.59 192.61 210.47 191.62 C 218.35 190.64 225.42 190.77 232.39 192.15 C 239.35 193.53 245.77 195.85 252.26 199.91 C 258.76 203.98 266.84 210.48 271.34 216.52 C 275.84 222.56 277.63 229.48 279.24 236.16 C 280.85 242.83 281.80 249.42 281.00 256.59 C 280.20 263.75 277.43 272.98 274.45 279.16 C 271.47 285.35 267.53 289.71 263.12 293.67 C 258.70 297.64 254.09 300.84 247.97 302.97 C 241.84 305.10 232.77 306.02 226.38 306.47 C 219.99 306.92 215.13 306.26 209.66 305.65 C 204.18 305.04 199.29 303.81 193.55 302.81 C 187.81 301.82 180.62 300.51 175.24 299.70 C 169.85 298.89 165.72 298.05 161.24 297.96 C 156.76 297.86 152.73 298.11 148.35 299.13 C 143.97 300.16 138.59 302.09 134.96 304.10 C 131.34 306.11 128.83 308.22 126.62 311.17 C 124.41 314.12 122.70 317.54 121.71 321.82 C 120.72 326.09 120.16 332.00 120.66 336.82 C 121.16 341.65 122.62 346.17 124.70 350.75 C 126.78 355.33 128.78 359.81 133.13 364.29 C 137.48 368.78 144.69 374.29 150.81 377.67 C 156.93 381.05 162.98 383.26 169.84 384.57 C 176.70 385.88 183.59 386.64 191.97 385.54 C 200.34 384.44 211.93 381.19 220.08 377.96 C 228.22 374.72 234.63 371.20 240.82 366.15 C 247.02 361.11 252.71 355.18 257.25 347.68 C 261.79 340.19 266.23 329.52 268.06 321.18 C 269.89 312.84 269.19 305.08 268.23 297.64 C 267.27 290.21 265.48 283.63 262.31 276.58 C 259.14 269.53 253.75 260.89 249.21 255.34 C 244.68 249.80 240.20 246.18 235.10 243.32 C 230.00 240.46 224.54 238.51 218.61 238.17 C 212.68 237.83 204.75 238.97 199.52 241.28 C 194.30 243.59 190.64 247.73 187.25 252.01 C 183.86 256.30 181.26 261.11 179.18 267.00 C 177.11 272.89 175.49 281.18 174.83 287.35 C 174.17 293.53 174.73 298.68 175.24 304.07 C 175.75 309.45 176.30 314.09 177.88 319.67 C 179.46 325.24 182.42 332.27 184.73 337.53 C 187.04 342.80 189.19 346.73 191.75 351.28 C 194.31 355.82 197.40 359.99 200.11 364.80 C 202.81 369.61 205.80 375.63 207.96 380.13 C 210.12 384.63 211.83 388.09 213.08 391.80 C 214.33 395.50 215.28 398.76 215.46 402.36 C 215.65 405.97 215.28 410.26 214.18 413.44 C 213.08 416.61 211.44 419.46 208.84 421.41 C 206.23 423.36 202.87 424.86 198.55 425.16 C 194.24 425.46 188.05 424.94 182.95 423.21 C 177.85 421.49 172.71 418.62 167.97 414.82 C 163.24 411.02 158.98 406.21 154.54 400.40 C 150.09 394.58 144.86 386.44 141.30 379.94 C 137.73 373.45 135.22 368.10 133.15 361.40 C 131.08 354.71 129.73 347.78 128.88 339.78 C 128.03 331.77 127.45 321.57 128.06 313.40 C 128.67 305.23 130.42 298.09 132.52 290.74 C 134.62 283.39 136.60 276.61 140.66 269.31 C 144.72 262.02 151.41 253.31 156.86 246.97 C 162.32 240.63 167.46 235.87 173.41 231.27 C 179.35 226.68 185.28 222.82 192.53 219.39 C 199.78 215.97 209.38 212.71 216.90 210.74 C 224.42 208.77 230.82 207.93 237.66 207.57 C 244.50 207.20 250.79 207.81 257.95 208.54 C 265.12 209.28 273.91 211.03 280.64 211.96 C 287.37 212.89 292.58 213.46 298.33 214.14 C 304.09 214.81 309.36 215.83 315.17 216.03 C 320.99 216.22 327.97 215.94 333.23 215.31 C 338.48 214.68 342.69 213.81 346.71 212.24 C 350.73 210.67 353.62 208.58 357.34 205.91 C 361.07 203.23 365.88 199.48 369.06 196.20 C 372.25 192.92 374.64 189.83 376.46 186.24 C 378.28 182.66 379.38 179.09 379.98 174.69 C 380.58 170.29 380.86 164.53 380.06 159.86 C 379.26 155.19 377.40 150.94 375.15 146.67 C 372.90 142.39 370.43 138.42 366.57 134.23 C 362.70 130.03 356.89 125.02 351.95 121.51 C 347.01 118.01 341.86 115.82 336.92 113.20 C 331.97 110.59 327.42 108.55 322.29 105.83 C 317.16 103.12 310.89 99.62 306.14 96.91 C 301.39 94.21 297.67 91.98 293.80 89.61 C 289.94 87.23 286.88 85.02 282.96 82.67 C 279.04 80.32 274.37 77.54 270.28 75.51 C 266.19 73.48 262.44 71.97 258.41 70.51 C 254.37 69.05 250.13 67.72 246.07 66.75 C 242.00 65.77 238.86 64.91 234.02 64.68 C 229.18 64.44 222.43 64.49 217.03 65.34 C 211.63 66.20 206.67 67.89 201.61 69.81 C 196.55 71.74 192.17 73.57 186.66 76.89 C 181.16 80.21 173.83 85.48 168.58 89.74 C 163.32 94.00 159.42 97.68 155.14 102.43 C 150.85 107.19 146.45 111.55 142.86 118.27 C 139.28 125.00 135.52 134.90 133.61 142.77 C 131.71 150.64 131.57 157.81 131.43 165.49 C 131.29 173.17 131.91 180.38 132.77 188.84 C 133.62 197.31 135.06 208.10 136.57 216.27 C 138.07 224.45 140.13 230.94 141.80 237.90 C 143.46 244.86 145.53 251.01 146.57 258.03 C 147.61 265.05 147.68 273.62 148.02 280.02 C 148.36 286.43 148.61 291.24 148.63 296.46 C 148.66 301.69 148.35 305.94 148.18 311.37 C 148.00 316.80 147.52 323.84 147.59 329.04 C 147.67 334.24 148.11 338.09 148.61 342.57 C 149.10 347.05 149.75 351.14 150.55 355.93 C 151.35 360.72 152.05 366.69 153.40 371.32 C 154.75 375.95 156.45 379.70 158.67 383.70 C 160.89 387.70 163.41 391.42 166.72 395.31 C 170.04 399.21 174.74 403.63 178.54 407.06 C 182.35 410.48 185.50 413.19 189.57 415.85 C 193.64 418.51 197.60 420.95 202.95 423.02 C 208.31 425.08 215.91 426.87 221.69 428.24 C 227.47 429.61 232.12 430.75 237.64 431.25 C 243.16 431.74 248.36 431.91 254.83 431.21 C 261.30 430.51 269.90 428.82 276.48 427.05 C 283.06 425.28 288.53 423.08 294.31 420.60 C 300.09 418.12 305.36 414.74 311.16 412.18 C 316.96 409.62 323.83 407.14 329.12 405.23 C 334.40 403.31 338.40 402.05 342.87 400.68 C 347.35 399.30 351.23 398.17 355.97 396.96 C 360.70 395.76 367.01 394.06 371.28 393.43 C 375.55 392.80 378.63 392.77 381.59 393.19 C 384.55 393.61 387.38 393.95 389.04 395.94 C 390.70 397.93 391.86 402.05 391.55 405.13 C 391.24 408.21 389.35 411.30 387.18 414.44 C 385.01 417.58 382.50 420.88 378.54 423.98 C 374.57 427.08 368.46 430.56 363.38 433.05 C 358.31 435.54 353.44 437.31 348.07 438.92 C 342.71 440.52 337.58 441.54 331.19 442.68 C 324.81 443.82 316.21 444.94 309.78 445.76 C 303.35 446.59 298.16 447.08 292.62 447.65 C 287.07 448.22 282.01 448.34 276.53 449.16 C 271.05 449.98 264.61 451.57 259.75 452.58 C 254.89 453.59 251.10 454.17 247.37 455.23 C 243.65 456.28 240.92 457.54 237.40 458.90 C 233.88 460.26 229.53 462.02 226.24 463.41 C 222.94 464.80 220.39 466.19 217.63 467.24 C 214.88 468.30 212.90 469.04 209.70 469.76 C 206.50 470.48 201.97 471.23 198.44 471.55 C 194.91 471.87 192.14 472.06 188.54 471.68 C 184.93 471.30 181.39 471.05 176.83 469.25 C 172.27 467.46 165.98 464.08 161.17 460.91 C 156.36 457.73 152.24 454.51 147.96 450.19 C 143.68 445.88 139.56 441.25 135.51 435.00 C 131.46 428.75 126.63 420.15 123.66 412.71 C 120.69 405.27 119.20 398.07 117.68 390.37 C 116.16 382.67 115.24 375.15 114.56 366.53 C 113.89 357.90 113.54 347.03 113.63 338.60 C 113.72 330.17 114.37 323.31 115.09 315.95 C 115.80 308.59 117.22 302.16 117.92 294.45 C 118.61 286.74 119.17 276.79 119.26 269.70 C 119.36 262.62 118.98 257.51 118.48 251.93 C 117.98 246.35 117.84 241.24 116.26 236.22 C 114.69 231.19 111.33 225.57 109.03 221.78 C 106.73 217.99 104.95 215.52 102.45 213.49 C 99.94 211.45 97.12 209.76 93.99 209.56 C 90.85 209.36 86.58 210.29 83.64 212.28 C 80.70 214.27 78.37 217.89 76.36 221.51 C 74.35 225.13 72.65 228.95 71.56 234.00 C 70.47 239.05 69.93 246.06 69.83 251.82 C 69.73 257.58 69.93 262.89 70.96 268.55 C 71.99 274.21 73.20 279.52 76.03 285.80 C 78.86 292.07 83.47 300.24 87.96 306.18 C 92.45 312.13 97.28 316.82 102.98 321.48 C 108.68 326.14 114.46 330.39 122.15 334.14 C 129.85 337.88 140.56 342.03 149.13 343.97 C 157.69 345.90 165.49 345.67 173.53 345.74 C 181.57 345.81 188.83 345.76 197.35 344.38 C 205.88 343.01 216.61 339.99 224.68 337.50 C 232.75 335.01 239.15 332.81 245.78 329.43 C 252.41 326.05 258.51 322.45 264.46 317.22 C 270.41 311.99 276.75 304.06 281.47 298.05 C 286.20 292.05 289.28 286.71 292.80 281.20 C 296.32 275.68 299.16 270.95 302.57 264.97 C 305.98 258.99 310.21 251.10 313.26 245.30 C 316.31 239.51 318.37 235.04 320.86 230.20 C 323.35 225.35 325.89 221.36 328.22 216.23 C 330.56 211.10 332.71 204.20 334.87 199.43 C 337.03 194.65 338.58 191.04 341.17 187.59 C 343.76 184.14 346.98 181.49 350.41 178.72 C 353.85 175.94 358.24 173.01 361.78 170.92 C 365.33 168.83 368.24 167.27 371.69 166.19 C 375.14 165.11 378.47 164.29 382.47 164.43 C 386.47 164.56 391.70 165.71 395.69 166.99 C 399.68 168.26 403.01 170.07 406.42 172.08 C 409.83 174.09 413.14 176.10 416.16 179.04 C 419.18 181.98 421.92 185.42 424.56 189.74 C 427.20 194.05 430.13 199.91 432.02 204.92 C 433.91 209.94 434.88 214.72 435.90 219.84 C 436.93 224.97 438.21 229.43 438.15 235.67 C 438.10 241.92 436.98 250.65 435.57 257.29 C 434.17 263.93 432.23 269.54 429.71 275.51 C 427.19 281.48 424.76 286.92 420.44 293.11 C 416.12 299.29 409.43 307.18 403.79 312.63 C 398.14 318.07 393.00 322.09 386.57 325.77 C 380.14 329.45 373.60 332.71 365.19 334.70 C 356.78 336.68 344.91 337.27 336.13 337.69 C 327.34 338.11 320.29 337.87 312.50 337.21 C 304.71 336.56 297.47 335.02 289.38 333.77 C 281.30 332.51 271.53 330.74 263.99 329.68 C 256.46 328.63 250.55 328.55 244.19 327.44 C 237.82 326.34 232.27 324.30 225.80 323.05 C 219.33 321.80 211.35 320.47 205.38 319.93 C 199.41 319.40 194.88 319.41 189.98 319.85 C 185.08 320.30 180.41 320.71 176.00 322.62 C 171.59 324.52 166.34 327.94 163.50 331.30 C 160.65 334.67 159.44 338.73 158.91 342.78 C 158.38 346.83 159.15 350.93 160.30 355.58 C 161.45 360.23 163.41 366.28 165.80 370.69 C 168.18 375.11 170.85 378.66 174.62 382.09 C 178.38 385.52 182.75 388.38 188.39 391.28 C 194.04 394.19 202.13 397.72 208.48 399.50 C 214.83 401.29 220.13 401.96 226.48 402.00 C 232.82 402.05 239.16 401.65 246.55 399.77 C 253.93 397.90 263.80 394.16 270.78 390.74 C 277.76 387.32 283.03 384.01 288.43 379.26 C 293.84 374.52 298.66 369.04 303.19 362.26 C 307.72 355.48 312.76 346.28 315.63 338.58 C 318.49 330.88 319.68 323.56 320.35 316.07 C 321.03 308.58 321.25 301.60 319.70 293.64 C 318.16 285.68 314.64 275.43 311.09 268.30 C 307.54 261.17 303.07 256.17 298.42 250.87 C 293.76 245.57 289.21 240.74 283.16 236.51 C 277.11 232.28 268.75 227.90 262.11 225.47 C 255.46 223.04 249.47 222.28 243.29 221.93 C 237.11 221.57 231.38 221.83 225.01 223.35 C 218.65 224.87 210.70 227.99 205.12 231.06 C 199.54 234.13 195.57 237.87 191.52 241.78 C 187.48 245.70 184.11 249.35 180.88 254.57 C 177.64 259.80 174.30 267.39 172.12 273.13 C 169.94 278.88 169.28 284.00 167.79 289.04 C 166.31 294.07 164.77 298.29 163.22 303.35 C 161.67 308.40 159.94 314.63 158.51 319.36 C 157.08 324.08 156.33 328.02 154.64 331.70 C 152.94 335.37 151.00 338.41 148.36 341.44 C 145.71 344.46 141.52 347.32 138.77 349.86 C 136.01 352.41 134.10 354.53 131.81 356.70 C 129.53 358.87 127.49 360.68 125.05 362.89 C 122.61 365.09 119.31 367.64 117.16 369.95 C 115.01 372.26 113.47 374.32 112.17 376.74 C 110.88 379.16 110.06 381.53 109.37 384.46 C 108.67 387.39 108.01 391.17 107.99 394.31 C 107.97 397.46 108.17 400.17 109.25 403.32 C 110.32 406.46 111.99 409.71 114.46 413.18 C 116.92 416.64 121.01 420.89 124.03 424.12 C 127.06 427.34 129.48 429.80 132.60 432.55 C 135.73 435.29 138.54 437.90 142.79 440.58 C 147.04 443.27 153.24 446.33 158.08 448.67 C 162.92 451.00 167.16 452.83 171.82 454.58 C 176.49 456.33 180.98 457.63 186.05 459.16 C 191.12 460.68 197.75 462.23 202.24 463.75 C 206.73 465.26 210.11 466.53 212.99 468.24 C 215.87 469.95 217.97 471.83 219.54 473.99 C 221.10 476.14 222.37 479.14 222.37 481.15 C 222.37 483.17 220.95 484.76 219.54 486.06 C 218.12 487.35 215.81 487.76 213.88 488.93 C 211.94 490.10 209.28 491.75 207.92 493.05 C 206.55 494.35 206.23 495.55 205.70 496.75 C 205.16 497.95 204.76 498.87 204.73 500.26 C 204.70 501.64 204.68 503.71 205.51 505.09 C 206.33 506.46 207.81 507.43 209.68 508.51 C 211.55 509.59 214.09 516.73 216.75 511.56 C 219.41 506.38 223.06 488.56 225.64 477.47 C 228.22 466.38 230.24 455.51 232.21 445.03 C 234.18 434.55 235.96 425.39 237.47 414.60 C 238.99 403.80 240.40 390.53 241.31 380.28 C 242.21 370.03 242.77 361.85 242.91 353.10 C 243.04 344.35 243.02 336.49 242.10 327.78 C 241.18 319.06 239.15 308.74 237.39 300.80 C 235.63 292.87 234.10 286.50 231.53 280.16 C 228.95 273.82 226.24 267.92 221.94 262.77 C 217.64 257.61 210.91 252.71 205.75 249.23 C 200.59 245.76 195.90 243.73 190.99 241.92 C 186.09 240.11 181.63 238.68 176.32 238.39 C 171.01 238.10 164.13 238.98 159.16 240.17 C 154.18 241.36 150.06 242.75 146.49 245.53 C 142.91 248.31 139.94 251.80 137.72 256.85 C 135.51 261.90 133.29 269.77 133.20 275.85 C 133.12 281.92 135.01 287.62 137.21 293.30 C 139.40 298.98 142.10 304.38 146.37 309.94 C 150.65 315.50 156.95 322.26 162.88 326.66 C 168.80 331.06 175.23 333.83 181.94 336.33 C 188.65 338.84 195.21 341.04 203.15 341.72 C 211.09 342.40 221.63 341.77 229.56 340.41 C 237.48 339.06 244.03 336.73 250.69 333.59 C 257.35 330.44 264.00 326.14 269.50 321.52 C 275.00 316.91 279.12 311.91 283.70 305.90 C 288.28 299.89 293.25 291.71 296.97 285.48 C 300.70 279.24 303.32 274.11 306.05 268.51 C 308.77 262.90 310.52 257.50 313.31 251.86 C 316.11 246.22 319.56 239.53 322.84 234.68 C 326.12 229.83 329.70 226.52 333.01 222.76 C 336.31 219.01 339.05 215.57 342.67 212.15 C 346.29 208.73 350.72 204.65 354.74 202.25 C 358.75 199.84 362.84 198.59 366.76 197.71 C 370.68 196.83 374.10 196.07 378.28 196.95 C 382.46 197.84 388.07 200.29 391.85 203.04 C 395.62 205.79 398.19 209.54 400.95 213.44 C 403.70 217.34 406.02 221.46 408.36 226.44 C 410.70 231.42 413.16 238.14 414.97 243.32 C 416.78 248.49 418.04 252.87 419.24 257.49 C 420.43 262.12 421.06 266.14 422.16 271.08 C 423.25 276.02 424.68 282.62 425.81 287.13 C 426.95 291.63 427.57 294.97 428.97 298.10 C 430.37 301.24 431.96 303.89 434.23 305.95 C 436.51 308.02 440.01 309.89 442.61 310.50 C 445.21 311.11 447.44 310.54 449.82 309.61 C 452.21 308.69 454.46 307.28 456.90 304.96 C 459.33 302.63 462.39 298.97 464.43 295.66 C 466.48 292.34 467.89 288.97 469.14 285.08 C 470.40 281.19 471.41 277.25 471.95 272.29 C 472.50 267.33 473.20 260.96 472.43 255.33 C 471.66 249.70 469.65 244.24 467.33 238.50 C 465.02 232.75 462.80 227.19 458.57 220.87 C 454.33 214.56 447.91 206.33 441.91 200.59 C 435.92 194.86 429.78 190.43 422.60 186.47 C 415.42 182.52 407.66 179.66 398.81 176.88 C 389.97 174.10 378.68 171.07 369.52 169.79 C 360.36 168.51 352.15 168.85 343.86 169.19 C 335.57 169.53 328.38 170.66 319.77 171.84 C 311.17 173.02 300.49 175.09 292.23 176.26 C 283.97 177.42 277.27 177.98 270.22 178.84 C 263.17 179.70 257.04 180.89 249.95 181.42 C 242.86 181.94 234.17 182.23 227.67 182.00 C 221.17 181.77 215.89 181.29 210.94 180.04 C 205.99 178.78 202.03 177.14 197.97 174.46 C 193.90 171.78 189.69 167.24 186.56 163.98 C 183.43 160.72 181.25 158.16 179.19 154.90 C 177.13 151.64 175.07 148.50 174.20 144.44 C 173.33 140.39 173.55 134.77 173.98 130.56 C 174.41 126.34 175.34 122.76 176.77 119.13 C 178.20 115.50 179.74 112.44 182.55 108.77 C 185.37 105.10 189.82 100.29 193.67 97.12 C 197.52 93.94 200.90 91.68 205.64 89.72 C 210.39 87.75 215.95 86.23 222.15 85.31 C 228.35 84.40 236.34 84.09 242.86 84.22 C 249.38 84.34 255.12 84.85 261.28 86.08 C 267.45 87.31 273.11 88.71 279.84 91.61 C 286.56 94.51 295.26 99.13 301.64 103.47 C 308.01 107.81 313.17 112.28 318.08 117.64 C 322.99 123.01 327.04 128.40 331.09 135.66 C 335.15 142.93 340.07 153.19 342.39 161.25 C 344.71 169.31 344.60 176.38 345.02 184.03 C 345.44 191.68 345.86 198.98 344.92 207.13 C 343.97 215.29 341.40 225.18 339.37 232.95 C 337.35 240.72 335.00 247.07 332.75 253.75 C 330.50 260.43 327.95 266.10 325.87 273.02 C 323.78 279.95 321.62 288.71 320.24 295.28 C 318.86 301.86 318.18 307.00 317.60 312.45 C 317.01 317.90 316.85 322.56 316.74 327.98 C 316.63 333.39 317.08 339.88 316.95 344.95 C 316.83 350.01 316.40 354.03 315.98 358.38 C 315.55 362.73 315.20 366.45 314.43 371.03 C 313.66 375.61 312.69 381.50 311.34 385.86 C 309.99 390.23 308.51 393.71 306.34 397.22 C 304.17 400.72 301.72 403.69 298.32 406.87 C 294.92 410.06 289.94 413.53 285.94 416.33 C 281.94 419.13 278.32 421.50 274.32 423.68 C 270.32 425.86 266.47 427.67 261.95 429.39 C 257.43 431.12 251.58 432.64 247.17 434.03 C 242.77 435.42 239.17 436.42 235.54 437.73 C 231.91 439.03 228.77 440.26 225.40 441.84 C 222.03 443.42 218.48 445.70 215.33 447.21 C 212.17 448.72 209.53 449.85 206.46 450.91 C 203.39 451.97 200.60 452.96 196.90 453.58 C 193.20 454.20 188.39 454.75 184.27 454.65 C 180.15 454.55 176.24 454.07 172.20 452.99 C 168.16 451.91 164.57 450.54 160.03 448.17 C 155.50 445.79 149.55 442.10 144.98 438.75 C 140.40 435.40 136.60 432.14 132.57 428.06 C 128.54 423.98 124.57 420.07 120.80 414.27 C 117.04 408.47 112.69 400.20 109.99 393.27 C 107.28 386.34 105.79 379.87 104.58 372.66 C 103.36 365.45 102.28 358.61 102.71 350.00 C 103.13 341.38 104.95 329.65 107.15 320.97 C 109.34 312.29 112.32 305.36 115.85 297.90 C 119.39 290.45 123.52 283.75 128.35 276.27 C 133.18 268.78 139.65 259.82 144.83 252.98 C 150.02 246.15 154.80 241.02 159.45 235.27 C 164.11 229.52 168.70 224.61 172.75 218.49 C 176.80 212.36 180.73 204.44 183.74 198.53 C 186.74 192.61 188.70 188.12 190.79 183.02 C 192.87 177.92 194.75 173.24 196.25 167.93 C 197.75 162.63 198.78 156.06 199.77 151.19 C 200.76 146.31 201.10 142.79 202.19 138.69 C 203.27 134.58 204.54 130.44 206.26 126.56 C 207.98 122.67 209.88 119.21 212.49 115.37 C 215.11 111.53 218.70 106.87 221.97 103.52 C 225.23 100.17 228.52 97.75 232.07 95.29 C 235.61 92.82 238.52 90.50 243.23 88.74 C 247.95 86.97 254.97 85.40 260.38 84.69 C 265.80 83.98 270.39 83.78 275.73 84.49 C 281.08 85.21 286.34 86.64 292.47 88.99 C 298.60 91.34 306.63 94.80 312.49 98.59 C 318.35 102.39 322.94 106.83 327.63 111.74 C 332.32 116.65 336.77 121.02 340.63 128.05 C 344.49 135.08 348.62 145.65 350.79 153.92 C 352.96 162.19 353.17 169.77 353.64 177.68 C 354.11 185.59 354.82 192.97 353.60 201.38 C 352.38 209.79 349.56 220.51 346.30 228.17 C 343.04 235.82 338.96 241.48 334.04 247.31 C 329.13 253.13 323.60 258.34 316.82 263.12 C 310.04 267.91 300.60 272.83 293.34 276.03 C 286.09 279.23 280.01 281.23 273.26 282.31 C 266.52 283.39 260.07 283.43 252.87 282.52 C 245.67 281.61 236.47 279.47 230.06 276.84 C 223.64 274.22 219.10 270.65 214.39 266.77 C 209.69 262.89 205.35 258.95 201.84 253.56 C 198.32 248.16 195.02 240.38 193.28 234.40 C 191.54 228.42 191.04 223.23 191.40 217.66 C 191.77 212.08 192.70 206.61 195.48 200.96 C 198.27 195.30 203.62 188.39 208.12 183.74 C 212.62 179.08 217.10 175.68 222.49 173.05 C 227.89 170.42 233.50 168.56 240.48 167.97 C 247.46 167.39 257.29 168.08 264.37 169.52 C 271.45 170.95 277.07 173.72 282.97 176.58 C 288.87 179.43 293.93 182.51 299.76 186.64 C 305.59 190.78 312.55 197.15 317.94 201.39 C 323.33 205.63 327.63 208.34 332.08 212.10 C 336.52 215.85 340.42 219.40 344.61 223.91 C 348.80 228.43 353.65 234.68 357.21 239.21 C 360.77 243.74 363.51 246.77 365.99 251.09 C 368.47 255.40 370.56 259.59 372.08 265.11 C 373.60 270.63 374.60 278.28 375.12 284.19 C 375.64 290.10 375.84 295.21 375.20 300.57 C 374.56 305.92 373.68 310.72 371.28 316.31 C 368.87 321.90 364.54 328.89 360.77 334.12 C 357.01 339.35 353.41 343.61 348.68 347.69 C 343.95 351.77 338.67 355.23 332.37 358.58 C 326.07 361.92 317.75 365.80 310.86 367.77 C 303.97 369.73 297.82 370.09 291.02 370.37 C 284.22 370.65 277.64 370.55 270.08 369.45 C 262.52 368.35 252.80 366.42 245.64 363.76 C 238.48 361.10 232.60 357.89 227.11 353.49 C 221.63 349.09 216.94 344.13 212.74 337.36 C 208.53 330.59 204.07 320.61 201.87 312.86 C 199.67 305.11 199.00 297.98 199.54 290.84 C 200.08 283.70 201.80 277.00 205.10 270.02 C 208.41 263.03 214.15 254.62 219.35 248.92 C 224.55 243.22 230.42 239.23 236.29 235.81 C 242.17 232.40 247.79 230.19 254.62 228.44 C 261.44 226.70 270.56 225.84 277.25 225.33 C 283.94 224.81 288.98 224.74 294.74 225.38 C 300.51 226.01 305.86 227.66 311.82 229.15 C 317.79 230.63 324.96 232.85 330.52 234.29 C 336.07 235.73 340.45 236.43 345.15 237.78 C 349.85 239.12 353.90 240.87 358.70 242.36 C 363.49 243.85 369.56 245.42 373.93 246.72 C 378.31 248.02 381.21 249.64 384.94 250.15 C 388.66 250.66 392.34 250.75 396.28 249.79 C 400.22 248.83 405.24 246.57 408.56 244.41 C 411.88 242.24 414.11 239.77 416.20 236.79 C 418.29 233.82 419.63 230.53 421.10 226.55 C 422.58 222.57 424.18 217.23 425.05 212.90 C 425.91 208.57 425.88 204.63 426.27 200.57 C 426.67 196.51 426.68 192.50 427.41 188.56 C 428.14 184.62 429.54 180.20 430.67 176.93 C 431.80 173.65 433.03 171.52 434.19 168.93 C 435.35 166.35 436.72 164.30 437.63 161.43 C 438.54 158.56 439.36 154.86 439.65 151.70 C 439.94 148.54 439.60 145.57 439.36 142.47 C 439.12 139.36 439.10 136.62 438.22 133.08 C 437.34 129.55 435.92 124.89 434.07 121.26 C 432.22 117.62 430.21 114.61 427.12 111.28 C 424.03 107.95 420.75 104.61 415.53 101.26 C 410.31 97.90 402.50 93.59 395.80 91.15 C 389.10 88.70 382.72 87.21 375.34 86.57 C 367.97 85.94 360.36 86.04 351.55 87.33 C 342.74 88.63 331.26 91.17 322.48 94.35 C 313.70 97.54 305.97 101.33 298.86 106.46 C 291.74 111.58 285.50 117.40 279.79 125.11 C 274.09 132.82 268.56 144.08 264.63 152.73 C 260.70 161.37 258.42 169.06 256.20 176.98 C 253.98 184.90 252.11 191.88 251.31 200.25 C 250.51 208.62 251.22 219.22 251.42 227.22 C 251.61 235.22 252.07 241.44 252.48 248.25 C 252.89 255.06 253.38 261.13 253.88 268.07 C 254.37 275.02 255.09 283.44 255.47 289.91 C 255.85 296.38 255.85 301.32 256.16 306.88 C 256.47 312.44 256.57 317.59 257.35 323.27 C 258.14 328.94 259.16 335.89 260.88 340.93 C 262.59 345.97 265.01 349.77 267.67 353.52 C 270.33 357.26 273.08 360.15 276.82 363.40 C 280.57 366.66 285.59 370.87 290.13 373.05 C 294.68 375.23 299.34 376.08 304.10 376.49 C 308.86 376.90 313.64 376.55 318.68 375.50 C 323.72 374.45 328.95 373.01 334.33 370.18 C 339.72 367.36 346.23 362.51 351.01 358.54 C 355.79 354.57 359.35 351.04 363.04 346.37 C 366.72 341.70 370.61 337.17 373.10 330.51 C 375.59 323.86 377.50 314.02 377.97 306.42 C 378.43 298.82 377.63 292.00 375.88 284.91 C 374.13 277.81 371.57 270.91 367.47 263.82 C 363.37 256.73 356.99 248.32 351.29 242.37 C 345.58 236.41 339.76 231.88 333.22 228.11 C 326.68 224.34 320.10 221.26 312.03 219.74 C 303.96 218.22 292.75 217.93 284.80 218.99 C 276.86 220.04 270.75 223.31 264.35 226.06 C 257.95 228.82 252.55 231.74 246.42 235.49 C 240.28 239.24 232.96 244.40 227.55 248.58 C 222.13 252.76 218.38 256.77 213.93 260.56 C 209.48 264.36 205.57 267.73 200.86 271.35 C 196.16 274.97 190.42 279.32 185.70 282.31 C 180.98 285.30 176.86 287.32 172.54 289.30 C 168.23 291.28 164.38 292.69 159.80 294.19 C 155.23 295.69 149.56 297.50 145.08 298.32 C 140.60 299.13 136.87 298.88 132.92 299.08 C 128.97 299.29 125.53 300.09 121.39 299.56 C 117.26 299.04 112.03 297.25 108.13 295.93 C 104.24 294.61 101.23 293.28 98.02 291.64 C 94.81 290.00 92.02 288.45 88.86 286.07 C 85.69 283.69 81.93 279.99 79.01 277.37 C 76.09 274.75 73.48 273.02 71.33 270.34 C 69.18 267.66 67.76 264.87 66.11 261.27 C 64.45 257.66 62.54 252.91 61.38 248.71 C 60.22 244.51 59.55 240.37 59.12 236.07 C 58.69 231.76 58.32 228.03 58.78 222.89 C 59.24 217.75 60.76 210.52 61.88 205.21 C 62.99 199.90 64.02 195.72 65.44 191.05 C 66.87 186.38 67.89 182.39 70.44 177.20 C 72.99 172.01 76.81 164.99 80.72 159.93 C 84.62 154.87 89.18 151.04 93.87 146.86 C 98.56 142.68 102.99 138.79 108.87 134.85 C 114.75 130.92 122.79 126.56 129.15 123.27 C 135.51 119.97 141.20 117.71 147.03 115.08 C 152.86 112.45 157.96 110.10 164.12 107.49 C 170.28 104.88 178.28 101.91 183.99 99.42 C 189.70 96.93 193.86 94.80 198.38 92.54 C 202.89 90.28 206.73 88.26 211.06 85.86 C 215.40 83.46 220.21 80.22 224.38 78.12 C 228.55 76.02 232.28 74.91 236.09 73.25 C 239.90 71.60 242.83 69.62 247.26 68.21 C 251.69 66.79 257.76 65.44 262.68 64.78 C 267.60 64.11 271.74 63.76 276.76 64.20 C 281.78 64.65 286.86 65.34 292.80 67.44 C 298.74 69.53 306.56 72.95 312.40 76.78 C 318.24 80.61 323.17 85.03 327.85 90.40 C 332.53 95.78 336.74 101.39 340.47 109.01 C 344.21 116.63 348.14 127.59 350.26 136.13 C 352.38 144.66 353.01 152.04 353.17 160.20 C 353.32 168.36 352.90 176.23 351.20 185.10 C 349.51 193.98 345.98 205.12 342.99 213.42 C 340.00 221.72 336.44 227.89 333.28 234.89 C 330.12 241.89 327.06 248.18 324.04 255.43 C 321.02 262.67 317.78 271.57 315.15 278.34 C 312.52 285.11 310.19 290.35 308.27 296.07 C 306.34 301.80 304.79 306.82 303.61 312.68 C 302.43 318.55 301.43 325.74 301.21 331.26 C 300.99 336.78 301.94 341.16 302.27 345.80 C 302.59 350.43 302.48 354.54 303.15 359.07 C 303.82 363.60 305.30 368.85 306.29 372.98 C 307.29 377.10 308.26 380.21 309.13 383.82 C 310.00 387.42 310.78 390.87 311.52 394.60 C 312.27 398.32 313.26 402.65 313.61 406.16 C 313.95 409.68 313.73 412.55 313.58 415.68 C 313.43 418.81 313.29 421.63 312.70 424.94 C 312.10 428.25 311.38 432.43 310.00 435.54 C 308.63 438.64 306.68 441.04 304.45 443.58 C 302.21 446.13 299.96 448.54 296.58 450.80 C 293.20 453.06 288.35 455.61 284.15 457.15 C 279.96 458.69 275.66 459.17 271.43 460.02 C 267.20 460.87 263.57 461.53 258.79 462.23 C 254.01 462.94 247.46 463.77 242.74 464.27 C 238.03 464.77 234.14 464.64 230.51 465.22 C 226.87 465.80 223.97 466.67 220.94 467.75 C 217.91 468.84 214.84 470.40 212.33 471.73 C 209.82 473.06 208.02 474.51 205.88 475.72 C 203.75 476.93 201.78 477.89 199.49 479.01 C 197.21 480.13 194.70 481.64 192.17 482.46 C 189.65 483.28 187.04 483.66 184.34 483.93 C 181.64 484.20 179.03 484.08 175.97 484.08 C 172.91 484.07 169.26 484.44 165.99 483.92 C 162.72 483.40 159.89 482.47 156.36 480.93 C 152.84 479.40 149.09 477.39 144.85 474.72 C 140.61 472.04 135.14 467.87 130.91 464.88 C 126.67 461.88 123.03 459.38 119.44 456.75 C 115.86 454.13 112.81 451.45 109.39 449.11 C 105.98 446.78 102.08 444.39 98.95 442.72 C 95.82 441.06 93.06 439.83 90.62 439.12 C 88.17 438.41 86.10 438.31 84.27 438.45 C 82.44 438.60 80.85 439.33 79.62 439.99 C 78.39 440.64 77.54 441.38 76.90 442.38 C 76.25 443.38 75.33 444.27 75.75 446.00 C 76.18 447.73 77.80 450.64 79.43 452.75 C 81.05 454.87 82.61 456.58 85.51 458.68 C 88.40 460.77 92.59 463.20 96.81 465.32 C 101.02 467.45 105.38 469.45 110.78 471.43 C 116.18 473.41 123.35 475.66 129.19 477.19 C 135.03 478.73 140.54 479.51 145.84 480.64 C 151.13 481.77 155.74 482.80 160.96 483.99 C 166.17 485.17 172.39 486.51 177.10 487.75 C 181.82 488.98 185.39 490.17 189.25 491.40 C 193.11 492.63 196.79 493.74 200.27 495.14 C 203.76 496.53 207.79 498.33 210.17 499.77 C 212.56 501.21 213.75 502.57 214.59 503.78 C 215.42 504.99 215.64 505.93 215.18 507.03 C 214.72 508.13 213.39 509.57 211.83 510.39 C 210.28 511.21 207.96 516.00 205.83 511.94 C 203.70 507.88 200.75 496.69 199.03 486.04 C 197.31 475.39 195.70 459.48 195.53 448.04 C 195.37 436.60 196.41 427.24 198.05 417.40 C 199.68 407.56 201.95 398.76 205.34 389.01 C 208.74 379.25 214.01 367.63 218.42 358.87 C 222.82 350.12 227.11 343.39 231.77 336.47 C 236.42 329.54 240.44 323.06 246.36 317.35 C 252.29 311.63 260.93 306.21 267.32 302.16 C 273.71 298.12 278.92 295.33 284.70 293.07 C 290.48 290.81 295.92 288.89 302.00 288.60 C 308.08 288.31 315.68 290.20 321.17 291.35 C 326.65 292.51 330.80 293.46 334.92 295.53 C 339.04 297.60 342.70 300.07 345.88 303.76 C 349.07 307.45 352.60 313.00 354.02 317.68 C 355.45 322.36 355.14 327.13 354.44 331.84 C 353.73 336.55 352.39 340.89 349.77 345.93 C 347.15 350.97 342.32 357.47 338.70 362.09 C 335.08 366.71 332.14 370.18 328.04 373.65 C 323.95 377.13 319.73 380.06 314.13 382.94 C 308.54 385.82 300.66 388.99 294.46 390.94 C 288.25 392.90 282.96 394.06 276.91 394.67 C 270.87 395.28 265.03 395.96 258.17 394.59 C 251.31 393.21 242.20 390.32 235.75 386.43 C 229.30 382.54 224.07 377.25 219.47 371.25 C 214.87 365.26 211.19 358.44 208.14 350.48 C 205.10 342.51 202.05 331.91 201.19 323.47 C 200.33 315.04 201.20 307.28 202.98 299.86 C 204.75 292.45 207.40 285.70 211.84 278.97 C 216.29 272.24 223.69 264.44 229.64 259.50 C 235.59 254.56 241.40 251.72 247.53 249.31 C 253.66 246.90 259.61 245.02 266.43 245.05 C 273.25 245.09 282.51 246.81 288.45 249.52 C 294.40 252.23 298.20 256.91 302.10 261.32 C 306.00 265.73 309.55 270.23 311.87 275.97 C 314.18 281.72 314.91 289.80 315.98 295.78 C 317.05 301.77 317.96 306.53 318.29 311.86 C 318.63 317.19 318.17 322.15 318.00 327.74 C 317.82 333.34 317.19 340.31 317.23 345.43 C 317.28 350.55 318.18 354.20 318.27 358.48 C 318.36 362.76 318.32 366.67 317.79 371.11 C 317.26 375.54 316.51 380.94 315.11 385.08 C 313.70 389.22 311.66 392.44 309.35 395.95 C 307.05 399.46 304.66 402.83 301.28 406.17 C 297.89 409.50 293.08 413.28 289.03 415.95 C 284.97 418.62 281.15 420.44 276.93 422.21 C 272.71 423.97 268.81 425.31 263.71 426.53 C 258.62 427.74 251.72 428.90 246.36 429.47 C 241.00 430.04 236.39 429.81 231.56 429.95 C 226.73 430.10 222.12 429.87 217.37 430.34 C 212.62 430.82 207.18 432.04 203.05 432.80 C 198.92 433.56 195.61 433.86 192.60 434.89 C 189.59 435.93 187.55 437.38 185.02 438.98 C 182.48 440.57 179.61 442.75 177.38 444.46 C 175.15 446.17 173.38 447.68 171.64 449.26 C 169.90 450.83 168.59 452.19 166.94 453.92 C 165.29 455.64 163.27 457.97 161.73 459.59 C 160.19 461.20 158.82 462.32 157.68 463.63 C 156.53 464.95 156.04 466.14 154.85 467.48 C 153.65 468.83 152.22 470.93 150.50 471.68 C 148.78 472.42 146.81 472.03 144.52 471.95 C 142.24 471.86 140.00 472.22 136.78 471.16 C 133.57 470.10 128.93 468.04 125.26 465.60 C 121.58 463.16 118.29 460.30 114.75 456.52 C 111.22 452.73 107.57 448.93 104.03 442.87 C 100.50 436.81 96.06 427.74 93.53 420.18 C 91.00 412.62 89.93 405.23 88.86 397.51 C 87.79 389.79 87.11 382.49 87.09 373.86 C 87.07 365.23 87.73 354.40 88.74 345.73 C 89.75 337.06 90.97 329.73 93.16 321.85 C 95.36 313.96 97.73 306.53 101.92 298.41 C 106.10 290.28 112.38 280.20 118.25 273.09 C 124.12 265.98 130.16 260.60 137.12 255.76 C 144.07 250.91 151.28 246.87 159.97 244.01 C 168.67 241.16 180.52 239.28 189.28 238.62 C 198.04 237.97 205.05 239.14 212.52 240.08 C 219.99 241.01 226.68 241.88 234.12 244.25 C 241.55 246.62 250.65 250.76 257.12 254.30 C 263.59 257.83 267.84 261.75 272.92 265.46 C 278.00 269.17 282.32 272.84 287.60 276.58 C 292.89 280.32 299.39 284.89 304.63 287.92 C 309.87 290.95 314.28 293.00 319.02 294.77 C 323.75 296.54 328.03 297.52 333.05 298.56 C 338.06 299.60 344.29 300.45 349.10 301.00 C 353.91 301.54 357.72 301.99 361.90 301.83 C 366.08 301.67 369.77 301.39 374.17 300.05 C 378.56 298.70 384.32 296.44 388.28 293.76 C 392.25 291.08 395.15 287.72 397.97 283.98 C 400.78 280.23 403.21 275.79 405.19 271.29 C 407.17 266.79 408.89 262.76 409.85 256.98 C 410.81 251.20 411.17 242.80 410.97 236.62 C 410.77 230.44 409.68 225.38 408.68 219.89 C 407.67 214.41 406.58 209.49 404.95 203.69 C 403.32 197.89 400.47 190.58 398.88 185.09 C 397.29 179.60 396.42 175.33 395.40 170.76 C 394.39 166.19 393.36 162.11 392.80 157.66 C 392.24 153.22 392.22 148.05 392.07 144.09 C 391.91 140.12 391.70 137.11 391.86 133.87 C 392.02 130.64 392.77 128.01 393.04 124.70 C 393.31 121.39 393.82 117.43 393.49 114.03 C 393.16 110.62 392.24 107.42 391.06 104.26 C 389.87 101.09 388.60 98.48 386.36 95.06 C 384.11 91.65 381.07 87.03 377.57 83.77 C 374.07 80.51 369.88 77.91 365.35 75.50 C 360.81 73.09 356.64 70.73 350.35 69.31 C 344.06 67.89 334.92 67.10 327.61 66.99 C 320.30 66.89 313.58 67.50 306.48 68.70 C 299.39 69.91 292.78 70.77 285.04 74.22 C 277.30 77.67 267.18 83.95 260.06 89.41 C 252.94 94.86 247.70 100.63 242.30 106.95 C 236.89 113.27 232.28 119.49 227.65 127.34 C 223.02 135.19 217.85 145.82 214.52 154.05 C 211.19 162.27 209.76 169.27 207.67 176.71 C 205.57 184.15 203.84 190.86 201.97 198.69 C 200.11 206.53 198.37 216.41 196.48 223.71 C 194.60 231.02 192.69 236.54 190.66 242.52 C 188.63 248.49 186.53 253.54 184.29 259.57 C 182.04 265.59 179.39 273.01 177.19 278.66 C 174.98 284.31 173.26 289.07 171.05 293.46 C 168.85 297.86 167.20 301.49 163.96 305.03 C 160.73 308.56 155.47 312.29 151.63 314.68 C 147.79 317.07 144.59 318.18 140.91 319.35 C 137.23 320.52 133.64 321.56 129.54 321.71 C 125.45 321.86 120.40 320.97 116.33 320.24 C 112.26 319.50 108.63 318.30 105.13 317.30 C 101.62 316.30 98.77 314.96 95.29 314.25 C 91.80 313.54 87.47 312.98 84.22 313.03 C 80.97 313.09 78.29 313.68 75.80 314.57 C 73.30 315.46 71.32 316.62 69.26 318.36 C 67.20 320.10 64.83 322.57 63.44 325.03 C 62.06 327.49 61.14 329.93 60.96 333.12 C 60.79 336.31 60.90 339.76 62.40 344.17 C 63.89 348.58 67.01 354.90 69.93 359.59 C 72.86 364.27 75.89 368.20 79.94 372.28 C 83.98 376.36 88.25 380.17 94.21 384.09 C 100.16 388.00 108.41 392.83 115.67 395.77 C 122.93 398.72 130.31 400.29 137.76 401.78 C 145.22 403.27 152.03 404.41 160.39 404.72 C 168.75 405.03 179.43 405.12 187.94 403.64 C 196.46 402.16 203.96 399.43 211.49 395.86 C 219.02 392.28 226.23 388.34 233.10 382.17 C 239.97 376.01 248.22 366.76 252.72 358.88 C 257.22 351.00 259.05 342.93 260.09 334.91 C 261.14 326.88 260.79 318.74 258.97 310.72 C 257.16 302.71 253.09 293.25 249.20 286.81 C 245.31 280.36 240.50 276.12 235.64 272.04 C 230.78 267.97 225.96 264.45 220.03 262.38 C 214.09 260.30 205.89 259.25 200.03 259.60 C 194.17 259.95 189.59 262.51 184.88 264.48 C 180.17 266.45 176.22 268.48 171.77 271.44 C 167.31 274.40 161.91 278.64 158.15 282.24 C 154.39 285.84 151.98 289.47 149.20 293.07 C 146.43 296.67 144.45 300.25 141.51 303.83 C 138.58 307.42 134.65 311.73 131.59 314.58 C 128.52 317.44 125.91 318.99 123.11 320.96 C 120.31 322.93 117.98 325.01 114.77 326.40 C 111.57 327.79 107.27 329.08 103.86 329.30 C 100.44 329.52 97.45 328.97 94.30 327.72 C 91.15 326.46 88.23 324.33 84.98 321.78 C 81.72 319.23 77.63 315.65 74.78 312.43 C 71.94 309.20 69.88 306.24 67.89 302.44 C 65.89 298.63 63.91 294.85 62.80 289.60 C 61.68 284.35 60.86 277.04 61.20 270.93 C 61.53 264.81 62.94 259.01 64.83 252.91 C 66.73 246.81 68.41 240.95 72.56 234.31 C 76.71 227.67 83.83 219.04 89.72 213.09 C 95.61 207.13 101.27 202.79 107.89 198.60 C 114.52 194.40 120.92 190.65 129.48 187.93 C 138.05 185.20 150.20 182.89 159.27 182.24 C 168.35 181.59 175.96 182.90 183.93 184.02 C 191.91 185.14 198.93 186.64 207.11 188.97 C 215.29 191.29 225.48 194.60 233.01 197.98 C 240.54 201.37 246.40 205.22 252.28 209.28 C 258.16 213.34 263.44 216.74 268.30 222.35 C 273.16 227.96 278.40 236.35 281.44 242.93 C 284.48 249.51 285.64 255.61 286.54 261.83 C 287.45 268.05 287.90 273.73 286.85 280.26 C 285.81 286.78 283.09 295.17 280.28 300.99 C 277.46 306.82 274.08 311.13 269.96 315.19 C 265.85 319.25 261.35 322.85 255.57 325.37 C 249.79 327.89 241.63 330.15 235.29 330.30 C 228.95 330.46 223.24 328.36 217.54 326.29 C 211.83 324.22 206.48 321.78 201.06 317.89 C 195.64 313.99 189.03 308.30 185.01 302.94 C 180.98 297.58 178.84 291.77 176.93 285.71 C 175.02 279.65 173.76 273.63 173.55 266.59 C 173.33 259.55 173.96 250.39 175.63 243.48 C 177.31 236.58 180.39 230.86 183.61 225.17 C 186.83 219.49 190.69 214.19 194.93 209.39 C 199.17 204.60 203.08 200.01 209.07 196.42 C 215.06 192.83 223.93 189.37 230.87 187.85 C 237.80 186.33 244.04 186.66 250.68 187.30 C 257.32 187.93 263.88 189.09 270.71 191.65 C 277.53 194.22 285.81 198.45 291.61 202.68 C 297.41 206.90 301.68 211.81 305.51 217.02 C 309.33 222.23 312.10 227.36 314.53 233.95 C 316.96 240.54 319.20 249.69 320.09 256.57 C 320.98 263.46 320.77 269.14 319.87 275.27 C 318.98 281.40 317.42 287.07 314.72 293.33 C 312.02 299.60 307.62 307.35 303.66 312.85 C 299.69 318.35 295.51 322.47 290.93 326.34 C 286.35 330.22 282.07 333.41 276.18 336.12 C 270.28 338.83 262.12 341.44 255.57 342.60 C 249.02 343.75 242.95 343.69 236.90 343.07 C 230.85 342.45 225.56 341.20 219.28 338.86 C 213.00 336.51 204.97 332.71 199.22 328.99 C 193.48 325.27 189.27 320.85 184.83 316.54 C 180.39 312.23 176.91 307.91 172.59 303.12 C 168.27 298.34 163.02 292.27 158.92 287.83 C 154.81 283.39 151.58 280.03 147.98 276.46 C 144.37 272.88 141.15 269.43 137.28 266.40 C 133.42 263.38 128.72 260.38 124.79 258.30 C 120.86 256.23 117.34 254.83 113.69 253.96 C 110.04 253.09 106.52 252.71 102.88 253.08 C 99.23 253.44 94.95 254.56 91.81 256.16 C 88.66 257.76 86.34 260.14 84.02 262.68 C 81.69 265.21 79.75 267.64 77.86 271.37 C 75.96 275.10 73.62 280.51 72.66 285.05 C 71.71 289.58 72.03 294.08 72.13 298.60 C 72.23 303.11 72.66 307.32 73.25 312.15 C 73.84 316.98 75.02 323.01 75.67 327.55 C 76.32 332.10 77.00 335.66 77.17 339.42 C 77.34 343.18 77.09 346.68 76.68 350.12 C 76.28 353.56 75.59 357.31 74.74 360.08 C 73.89 362.84 72.83 364.83 71.57 366.70 C 70.30 368.57 68.64 369.59 67.15 371.28 C 65.66 372.97 64.01 375.21 62.63 376.83 C 61.24 378.44 59.82 379.36 58.85 380.97 C 57.89 382.58 57.07 384.27 56.83 386.49 C 56.59 388.72 56.81 391.70 57.41 394.30 C 58.02 396.90 59.14 399.18 60.48 402.09 C 61.83 405.00 63.51 408.51 65.51 411.76 C 67.51 415.01 70.65 418.61 72.48 421.58 C 74.32 424.55 75.62 427.26 76.51 429.58 C 77.41 431.91 77.83 433.77 77.87 435.52 C 77.91 437.26 77.57 439.24 76.76 440.06 C 75.95 440.87 74.60 441.04 73.03 440.43 C 71.46 439.82 69.57 438.21 67.34 436.37 C 65.10 434.53 62.05 431.96 59.64 429.41 C 57.24 426.86 55.12 423.77 52.90 421.08 C 50.69 418.38 48.77 416.33 46.35 413.24 C 43.94 410.16 40.62 405.67 38.40 402.59 C 36.19 399.51 34.92 397.03 33.07 394.75 C 31.21 392.47 29.09 390.34 27.29 388.91 C 25.49 387.48 23.61 386.63 22.27 386.18 C 20.93 385.73 19.97 385.96 19.24 386.20 C 18.50 386.45 18.43 387.13 17.85 387.65 C 17.28 388.16 16.35 388.77 15.79 389.31 C 15.22 389.85 14.98 390.46 14.46 390.88 C 13.95 391.29 13.36 391.38 12.71 391.81 C 12.07 392.24 11.36 393.33 10.60 393.45 C 9.85 393.57 9.11 393.34 8.21 392.54 C 7.30 391.74 6.43 390.77 5.19 388.64 C 3.96 386.52 -1.93 382.67 0.80 379.80 C 3.53 376.93 12.51 373.32 21.56 371.42 C 30.62 369.52 43.60 368.75 55.12 368.40 C 66.65 368.04 80.53 368.34 90.71 369.30 C 100.89 370.26 108.22 372.32 116.20 374.17 C 124.17 376.03 130.96 378.01 138.54 380.44 C 146.13 382.87 155.22 386.06 161.73 388.77 C 168.25 391.49 172.20 394.38 177.64 396.72 C 183.08 399.06 188.38 400.60 194.38 402.80 C 200.39 405.00 207.91 407.98 213.68 409.92 C 219.45 411.87 223.97 413.08 228.98 414.47 C 233.99 415.87 238.29 417.13 243.74 418.31 C 249.18 419.50 256.31 420.57 261.66 421.61 C 267.01 422.64 271.26 423.44 275.81 424.50 C 280.37 425.56 284.63 426.81 288.98 427.99 C 293.32 429.17 298.32 430.19 301.91 431.59 C 305.49 433.00 307.75 434.74 310.47 436.41 C 313.19 438.08 315.52 439.85 318.21 441.61 C 320.90 443.37 323.88 445.51 326.60 446.99 C 329.32 448.48 331.89 449.54 334.51 450.51 C 337.13 451.48 339.15 452.32 342.30 452.81 C 345.45 453.31 349.86 453.66 353.42 453.48 C 356.98 453.30 360.17 452.62 363.66 451.71 C 367.15 450.81 370.52 449.66 374.35 448.05 C 378.18 446.45 382.87 443.96 386.64 442.10 C 390.41 440.25 393.75 438.38 396.95 436.92 C 400.14 435.47 402.62 434.56 405.80 433.36 C 408.99 432.16 413.07 430.68 416.04 429.71 C 419.01 428.74 421.40 427.80 423.61 427.54 C 425.82 427.28 427.61 427.65 429.30 428.14 C 430.99 428.63 432.63 429.53 433.77 430.50 C 434.90 431.47 436.10 432.40 436.12 433.96 C 436.13 435.53 435.12 437.47 433.85 439.87 C 432.58 442.27 430.62 445.68 428.49 448.36 C 426.37 451.04 424.53 453.65 421.08 455.95 C 417.63 458.25 412.82 460.33 407.79 462.16 C 402.76 464.00 397.33 465.41 390.89 466.96 C 384.45 468.51 376.04 470.48 369.16 471.45 C 362.28 472.41 356.03 472.53 349.63 472.75 C 343.24 472.96 337.32 472.51 330.78 472.75 C 324.25 472.99 316.32 473.66 310.41 474.19 C 304.51 474.72 299.80 475.12 295.34 475.92 C 290.87 476.72 286.88 477.53 283.62 478.99 C 280.36 480.45 277.55 482.81 275.77 484.66 C 274.00 486.51 273.12 488.43 272.96 490.09 C 272.79 491.76 273.57 493.14 274.76 494.63 C 275.96 496.12 277.77 498.17 280.14 499.01 C 282.50 499.86 285.20 500.14 288.96 499.67 C 292.71 499.21 297.35 498.43 302.64 496.20 C 307.94 493.98 315.17 489.98 320.72 486.32 C 326.27 482.67 331.06 478.97 335.93 474.28 C 340.80 469.58 345.20 464.78 349.95 458.14 C 354.70 451.49 360.63 442.17 364.44 434.42 C 368.24 426.66 370.27 419.26 372.77 411.60 C 375.27 403.94 377.48 396.98 379.43 388.46 C 381.38 379.94 383.67 369.12 384.48 360.48 C 385.30 351.83 384.79 344.52 384.31 336.58 C 383.82 328.65 383.28 321.41 381.58 312.88 C 379.87 304.35 377.15 293.38 374.08 285.41 C 371.01 277.43 367.38 271.51 363.18 265.03 C 358.98 258.54 354.60 252.53 348.89 246.49 C 343.18 240.45 335.47 233.39 328.92 228.77 C 322.37 224.15 316.41 221.34 309.61 218.79 C 302.80 216.23 295.89 214.11 288.10 213.43 C 280.31 212.75 270.37 213.43 262.89 214.70 C 255.40 215.97 249.15 218.20 243.19 221.07 C 237.22 223.94 232.13 227.18 227.08 231.90 C 222.03 236.63 215.98 243.46 212.89 249.41 C 209.79 255.37 209.02 261.54 208.52 267.66 C 208.02 273.78 207.91 279.79 209.90 286.15 C 211.89 292.50 216.40 300.41 220.46 305.77 C 224.52 311.13 229.02 315.13 234.27 318.31 C 239.51 321.48 245.24 323.76 251.94 324.82 C 258.64 325.87 267.68 325.63 274.47 324.65 C 281.26 323.66 287.01 321.59 292.68 318.92 C 298.35 316.25 303.15 312.87 308.47 308.63 C 313.79 304.39 319.90 298.20 324.59 293.48 C 329.29 288.75 332.91 284.75 336.65 280.29 C 340.38 275.82 343.39 271.46 347.01 266.67 C 350.63 261.88 355.06 256.06 358.39 251.55 C 361.72 247.05 364.33 243.53 366.97 239.63 C 369.62 235.72 371.98 232.62 374.28 228.11 C 376.58 223.60 378.75 217.08 380.78 212.56 C 382.82 208.04 384.95 204.92 386.50 200.97 C 388.05 197.02 389.43 193.38 390.07 188.85 C 390.70 184.31 391.01 178.60 390.32 173.76 C 389.63 168.91 387.68 164.30 385.92 159.80 C 384.15 155.29 382.32 151.42 379.72 146.74 C 377.11 142.07 372.98 136.21 370.26 131.74 C 367.55 127.27 365.85 123.70 363.43 119.93 C 361.02 116.16 358.51 112.92 355.76 109.14 C 353.01 105.36 349.12 100.89 346.95 97.27 C 344.77 93.64 343.98 90.44 342.71 87.40 C 341.44 84.35 340.72 82.01 339.35 79.02 C 337.97 76.03 335.81 72.30 334.46 69.45 C 333.11 66.60 332.24 64.39 331.24 61.92 C 330.25 59.45 329.81 57.19 328.48 54.63 C 327.14 52.07 324.61 48.95 323.25 46.56 C 321.89 44.18 321.51 42.40 320.31 40.32 C 319.11 38.23 317.99 36.22 316.06 34.06 C 314.14 31.90 311.51 29.18 308.77 27.36 C 306.03 25.55 303.07 24.25 299.63 23.18 C 296.19 22.10 292.65 21.52 288.12 20.91 C 283.59 20.29 277.62 19.37 272.43 19.47 C 267.23 19.58 262.19 20.66 256.97 21.54 C 251.76 22.43 247.12 22.75 241.16 24.80 C 235.21 26.84 227.50 30.44 221.26 33.83 C 215.02 37.22 209.31 40.73 203.71 45.13 C 198.11 49.53 193.09 54.02 187.64 60.24 C 182.19 66.46 175.55 75.05 171.01 82.45 C 166.48 89.85 163.42 97.12 160.42 104.64 C 157.42 112.15 154.89 118.74 153.01 127.55 C 151.12 136.35 149.41 148.43 149.11 157.48 C 148.82 166.52 149.82 173.86 151.24 181.81 C 152.66 189.76 154.39 196.96 157.64 205.17 C 160.88 213.39 166.14 223.64 170.71 231.10 C 175.28 238.55 179.79 244.36 185.06 249.93 C 190.34 255.49 195.76 259.88 202.34 264.47 C 208.92 269.07 217.46 274.64 224.52 277.48 C 231.58 280.33 238.00 281.09 244.70 281.55 C 251.40 282.00 257.69 281.30 264.70 280.22 C 271.70 279.15 280.46 277.45 286.74 275.09 C 293.01 272.73 297.81 269.78 302.36 266.06 C 306.91 262.34 310.36 257.93 314.03 252.76 C 317.70 247.59 321.88 240.63 324.36 235.02 C 326.83 229.41 327.85 224.37 328.90 219.09 C 329.96 213.81 330.61 209.12 330.68 203.34 C 330.75 197.57 330.61 189.96 329.32 184.46 C 328.03 178.96 325.90 174.75 322.96 170.34 C 320.02 165.94 316.41 161.94 311.69 158.03 C 306.96 154.13 300.62 149.43 294.60 146.90 C 288.58 144.36 282.12 143.12 275.57 142.83 C 269.02 142.53 262.45 143.23 255.32 145.13 C 248.19 147.03 239.24 150.34 232.78 154.23 C 226.31 158.12 221.30 163.14 216.54 168.49 C 211.78 173.84 207.78 180.21 204.19 186.32 C 200.61 192.44 197.54 198.01 195.04 205.18 C 192.53 212.36 189.80 221.83 189.16 229.37 C 188.51 236.92 189.49 243.72 191.17 250.43 C 192.84 257.15 195.29 263.38 199.22 269.69 C 203.14 276.00 209.31 283.44 214.72 288.30 C 220.13 293.16 225.58 296.42 231.68 298.86 C 237.77 301.30 244.19 302.46 251.30 302.95 C 258.41 303.44 267.60 303.08 274.35 301.80 C 281.09 300.52 286.42 298.24 291.76 295.26 C 297.09 292.29 302.07 289.02 306.36 283.93 C 310.66 278.83 315.35 270.98 317.53 264.67 C 319.71 258.36 320.03 252.26 319.44 246.06 C 318.86 239.86 316.79 233.78 314.02 227.46 C 311.25 221.15 307.16 213.35 302.84 208.14 C 298.52 202.94 293.61 199.39 288.10 196.25 C 282.60 193.11 276.71 190.48 269.79 189.30 C 262.87 188.12 253.64 188.31 246.58 189.19 C 239.52 190.07 233.44 192.14 227.42 194.57 C 221.40 197.00 216.10 199.70 210.46 203.76 C 204.81 207.82 198.16 214.03 193.55 218.93 C 188.94 223.82 185.99 228.22 182.78 233.11 C 179.57 238.01 177.30 242.79 174.29 248.30 C 171.27 253.81 167.52 260.84 164.69 266.17 C 161.86 271.50 159.84 275.93 157.33 280.28 C 154.81 284.64 152.59 288.47 149.59 292.30 C 146.59 296.13 142.60 300.41 139.34 303.27 C 136.08 306.14 133.33 308.01 130.03 309.48 C 126.74 310.96 123.34 312.35 119.57 312.11 C 115.79 311.87 110.98 309.81 107.37 308.04 C 103.76 306.27 100.65 304.46 97.89 301.49 C 95.12 298.52 92.97 294.81 90.76 290.22 C 88.54 285.63 85.68 279.47 84.60 273.95 C 83.51 268.43 83.49 262.96 84.23 257.08 C 84.96 251.21 86.69 245.38 88.99 238.70 C 91.30 232.03 94.95 223.49 98.06 217.04 C 101.16 210.59 104.66 205.44 107.62 200.01 C 110.59 194.58 113.63 189.92 115.85 184.45 C 118.08 178.98 119.70 172.22 120.98 167.19 C 122.25 162.16 123.15 158.24 123.50 154.25 C 123.85 150.25 123.74 146.80 123.07 143.24 C 122.41 139.68 120.67 135.80 119.51 132.87 C 118.36 129.95 117.46 127.94 116.17 125.68 C 114.88 123.42 112.93 121.59 111.77 119.31 C 110.61 117.03 109.58 114.54 109.20 111.98 C 108.82 109.42 108.86 106.76 109.51 103.95 C 110.15 101.15 110.92 98.42 113.06 95.14 C 115.21 91.85 119.46 87.57 122.38 84.23 C 125.30 80.88 127.53 78.03 130.60 75.08 C 133.66 72.14 137.32 69.43 140.77 66.55 C 144.21 63.66 148.26 60.42 151.28 57.79 C 154.29 55.16 156.63 53.02 158.85 50.75 C 161.07 48.49 163.02 46.50 164.60 44.20 C 166.18 41.91 167.85 39.00 168.32 36.98 C 168.80 34.97 168.02 33.47 167.44 32.10 C 166.86 30.74 166.46 29.57 164.86 28.81 C 163.26 28.05 160.15 27.77 157.84 27.55 C 155.54 27.32 153.69 27.11 151.02 27.47 C 148.36 27.84 145.55 27.87 141.85 29.74 C 138.16 31.61 132.87 35.40 128.84 38.69 C 124.81 41.99 121.32 45.45 117.69 49.51 C 114.05 53.57 110.73 58.01 107.05 63.04 C 103.37 68.08 99.05 74.85 95.62 79.71 C 92.19 84.56 89.39 87.96 86.48 92.18 C 83.56 96.40 81.16 100.82 78.12 105.05 C 75.09 109.27 71.16 114.19 68.28 117.52 C 65.40 120.85 63.31 122.86 60.86 125.04 C 58.40 127.21 56.05 128.94 53.55 130.56 C 51.04 132.18 47.81 134.17 45.82 134.76 C 43.82 135.36 42.83 134.64 41.58 134.14 C 40.34 133.65 38.81 133.38 38.34 131.81 C 37.87 130.25 37.98 127.35 38.78 124.75 C 39.58 122.15 41.37 119.14 43.15 116.21 C 44.93 113.28 46.95 110.56 49.47 107.18 C 51.99 103.79 55.42 99.38 58.28 95.90 C 61.14 92.42 64.24 89.17 66.61 86.29 C 68.99 83.42 71.09 81.11 72.55 78.66 C 74.01 76.20 74.64 73.67 75.39 71.55 C 76.13 69.44 76.73 67.61 77.01 65.96 C 77.29 64.32 77.03 63.22 77.05 61.68 C 77.07 60.13 77.21 58.05 77.14 56.70 C 77.08 55.35 76.79 54.58 76.66 53.60 C 76.54 52.62 76.37 51.86 76.37 50.81 C 76.37 49.76 76.13 48.65 76.64 47.30 C 77.15 45.95 78.25 44.20 79.42 42.72 C 80.60 41.24 81.60 40.18 83.68 38.42 C 85.76 36.66 88.42 34.11 91.89 32.17 C 95.35 30.24 99.84 28.31 104.50 26.81 C 109.15 25.32 113.64 24.16 119.83 23.18 C 126.01 22.20 134.66 21.37 141.60 20.93 C 148.55 20.48 154.74 20.17 161.50 20.51 C 168.26 20.86 174.32 21.34 182.17 22.99 C 190.02 24.65 200.56 27.43 208.59 30.44 C 216.61 33.45 223.14 37.18 230.32 41.05 C 237.49 44.93 244.19 48.35 251.64 53.71 C 259.10 59.07 268.40 66.69 275.04 73.23 C 281.69 79.76 285.63 81.50 291.49 92.94 C 297.36 104.37 307.10 133.69 310.22 141.84" fill="none" stroke="#fff" stroke-width="4.48" stroke-opacity="1" stroke-linecap="round" stroke-linejoin="round"/>
  </g>
</svg>