<?xml version="1.0" encoding="UTF-8"?>
<svg xmlns="http://www.w3.org/2000/svg" width="512" height="512" viewBox="0 0 512 512">
  <rect width="100%" height="100%" fill="#000"/>
  <g>
    <path d="M 256.00 256.00 C 253.83 256.91 248.12 259.78 243.00 261.45 C 237.87 263.13 230.95 265.58 225.24 266.05 C 219.52 266.51 214.23 265.01 208.70 264.22 C 203.18 263.44 196.83 263.14 192.06 261.34 C 187.28 259.54 184.03 256.47 180.07 253.42 C 176.10 250.36 171.35 247.03 168.27 243.03 C 165.19 239.03 162.95 234.44 161.60 229.43 C 160.25 224.41 160.29 217.93 160.18 212.95 C 160.07 207.97 160.25 204.36 160.91 199.55 C 161.58 194.74 162.31 189.22 164.19 184.09 C 166.06 178.96 168.90 173.46 172.17 168.80 C 175.44 164.14 180.13 159.90 183.79 156.14 C 187.45 152.37 190.35 149.44 194.13 146.23 C 197.91 143.01 202.39 140.02 206.47 136.84 C 210.56 133.65 214.59 130.43 218.65 127.14 C 222.72 123.84 227.20 119.70 230.88 117.05 C 234.57 114.40 236.94 113.37 240.74 111.23 C 244.54 109.09 249.25 106.09 253.67 104.22 C 258.09 102.34 262.42 100.88 267.27 99.98 C 272.11 99.08 278.07 98.85 282.73 98.80 C 287.40 98.76 290.75 99.05 295.27 99.71 C 299.80 100.38 304.92 101.49 309.88 102.81 C 314.85 104.12 320.14 105.52 325.05 107.58 C 329.96 109.65 334.74 111.86 339.33 115.19 C 343.92 118.51 348.78 123.70 352.59 127.53 C 356.41 131.36 358.70 133.93 362.22 138.15 C 365.73 142.37 370.29 147.92 373.69 152.85 C 377.09 157.78 379.73 162.56 382.63 167.74 C 385.53 172.93 388.99 178.69 391.08 183.94 C 393.18 189.18 393.61 193.84 395.20 199.19 C 396.80 204.54 398.51 211.32 400.64 216.04 C 402.77 220.76 405.67 223.69 407.98 227.49 C 410.30 231.30 412.54 235.67 414.53 238.85 C 416.52 242.02 417.85 243.99 419.92 246.54 C 421.98 249.10 424.53 251.85 426.94 254.16 C 429.34 256.48 431.90 258.37 434.36 260.42 C 436.81 262.48 439.65 264.61 441.67 266.50 C 443.69 268.40 444.64 269.76 446.50 271.79 C 448.36 273.83 451.03 276.59 452.83 278.70 C 454.62 280.80 455.69 282.55 457.26 284.41 C 458.83 286.27 460.72 288.17 462.24 289.86 C 463.75 291.54 464.65 292.93 466.35 294.52 C 468.06 296.11 470.55 298.03 472.48 299.41 C 474.41 300.78 476.00 302.17 477.93 302.76 C 479.87 303.35 482.17 303.33 484.08 302.96 C 485.99 302.59 487.51 301.74 489.40 300.55 C 491.30 299.36 494.03 298.08 495.45 295.82 C 496.87 293.57 497.32 290.58 497.95 287.04 C 498.58 283.49 499.33 279.19 499.25 274.56 C 499.17 269.94 498.26 264.20 497.49 259.27 C 496.71 254.33 496.37 250.41 494.58 244.97 C 492.79 239.52 489.43 232.30 486.75 226.60 C 484.07 220.90 481.26 215.96 478.52 210.76 C 475.78 205.56 472.99 199.91 470.30 195.38 C 467.62 190.86 465.16 188.23 462.41 183.62 C 459.65 179.01 456.37 172.69 453.76 167.73 C 451.15 162.77 448.61 158.00 446.76 153.85 C 444.92 149.71 443.80 146.08 442.67 142.87 C 441.54 139.67 440.66 137.61 440.01 134.64 C 439.36 131.66 439.26 127.80 438.75 125.03 C 438.23 122.27 437.68 120.48 436.91 118.02 C 436.14 115.57 434.51 112.67 434.11 110.32 C 433.71 107.97 434.73 105.93 434.53 103.91 C 434.32 101.89 434.30 100.68 432.89 98.20 C 431.49 95.72 429.09 92.12 426.09 89.02 C 423.09 85.93 418.16 82.25 414.89 79.65 C 411.62 77.04 410.35 75.65 406.45 73.39 C 402.55 71.14 396.72 68.29 391.47 66.12 C 386.22 63.96 380.77 62.11 374.94 60.40 C 369.11 58.69 362.71 56.98 356.50 55.86 C 350.30 54.73 343.27 54.29 337.72 53.66 C 332.17 53.03 328.56 52.68 323.20 52.07 C 317.84 51.47 311.22 50.41 305.55 50.01 C 299.89 49.62 294.72 50.10 289.20 49.71 C 283.69 49.32 277.36 48.22 272.46 47.69 C 267.55 47.15 264.12 46.65 259.79 46.49 C 255.47 46.33 250.90 46.82 246.49 46.73 C 242.08 46.64 237.84 45.93 233.35 45.93 C 228.86 45.94 223.67 46.35 219.55 46.78 C 215.44 47.21 212.89 47.77 208.68 48.52 C 204.47 49.27 198.90 49.85 194.29 51.27 C 189.69 52.70 185.42 55.20 181.06 57.08 C 176.70 58.96 172.05 60.96 168.14 62.55 C 164.24 64.13 161.09 65.64 157.61 66.61 C 154.13 67.58 150.35 67.86 147.27 68.35 C 144.19 68.83 141.36 69.42 139.12 69.52 C 136.88 69.63 135.26 69.78 133.85 68.97 C 132.44 68.17 131.72 66.60 130.65 64.69 C 129.59 62.79 127.52 59.61 127.47 57.55 C 127.42 55.48 128.70 54.33 130.34 52.31 C 131.98 50.28 134.45 47.46 137.32 45.42 C 140.20 43.39 143.41 42.09 147.59 40.10 C 151.78 38.12 157.69 35.41 162.42 33.53 C 167.14 31.65 171.69 30.23 175.93 28.84 C 180.16 27.44 183.98 26.24 187.83 25.16 C 191.69 24.07 195.81 23.32 199.06 22.33 C 202.31 21.33 204.24 20.28 207.35 19.20 C 210.45 18.12 214.67 16.98 217.69 15.83 C 220.71 14.68 223.66 13.54 225.49 12.29 C 227.33 11.05 227.62 9.74 228.71 8.34 C 229.80 6.93 231.09 5.20 232.02 3.88 C 232.94 2.55 233.63 -2.45 234.23 0.39 C 234.83 3.23 234.61 12.01 235.62 20.91 C 236.64 29.81 238.81 44.40 240.33 53.77 C 241.85 63.13 242.84 68.40 244.74 77.09 C 246.63 85.77 249.10 96.74 251.72 105.86 C 254.33 114.98 257.41 123.67 260.42 131.81 C 263.44 139.95 266.65 148.00 269.80 154.71 C 272.95 161.41 275.81 166.24 279.35 172.02 C 282.88 177.80 287.03 183.66 290.98 189.38 C 294.94 195.11 299.20 201.20 303.07 206.39 C 306.94 211.57 310.91 216.05 314.19 220.51 C 317.46 224.97 319.85 228.18 322.72 233.14 C 325.59 238.10 329.06 244.68 331.41 250.28 C 333.76 255.87 334.70 261.19 336.81 266.73 C 338.92 272.28 341.75 278.56 344.05 283.54 C 346.35 288.52 348.70 293.00 350.60 296.60 C 352.50 300.20 353.51 302.01 355.42 305.11 C 357.34 308.21 359.41 312.09 362.09 315.21 C 364.78 318.33 368.53 321.39 371.53 323.83 C 374.54 326.28 377.62 328.16 380.12 329.87 C 382.61 331.58 383.54 332.79 386.50 334.10 C 389.46 335.40 394.48 337.13 397.87 337.70 C 401.26 338.28 403.99 338.45 406.85 337.54 C 409.71 336.63 412.44 334.01 415.01 332.24 C 417.57 330.47 419.62 329.45 422.24 326.91 C 424.86 324.36 428.38 320.81 430.72 316.95 C 433.06 313.09 434.94 308.51 436.26 303.74 C 437.58 298.97 438.13 293.26 438.63 288.33 C 439.14 283.40 439.73 279.70 439.30 274.16 C 438.86 268.62 438.28 261.50 436.03 255.09 C 433.78 248.67 429.05 241.79 425.78 235.65 C 422.52 229.51 419.59 223.22 416.44 218.24 C 413.30 213.25 410.45 210.68 406.91 205.74 C 403.38 200.81 399.37 193.75 395.23 188.63 C 391.09 183.51 385.91 179.69 382.08 175.04 C 378.25 170.39 375.02 164.98 372.25 160.73 C 369.49 156.47 367.52 153.37 365.49 149.51 C 363.46 145.65 361.98 141.62 360.07 137.58 C 358.16 133.53 356.45 129.28 354.03 125.24 C 351.62 121.19 348.42 117.18 345.58 113.31 C 342.73 109.44 339.32 105.12 336.96 102.03 C 334.61 98.94 333.53 97.53 331.44 94.76 C 329.35 91.99 326.80 88.67 324.43 85.42 C 322.07 82.17 318.73 78.20 317.24 75.27 C 315.74 72.33 315.59 70.17 315.45 67.81 C 315.31 65.45 315.86 63.46 316.39 61.10 C 316.93 58.73 317.65 55.44 318.66 53.62 C 319.67 51.81 321.08 51.51 322.45 50.20 C 323.82 48.88 325.53 46.90 326.88 45.73 C 328.23 44.56 329.33 44.56 330.54 43.19 C 331.76 41.82 332.74 39.06 334.20 37.51 C 335.67 35.97 337.67 35.20 339.34 33.91 C 341.00 32.63 342.79 30.88 344.20 29.80 C 345.61 28.73 346.79 28.40 347.78 27.44 C 348.78 26.48 349.30 25.04 350.17 24.05 C 351.03 23.05 352.22 22.54 352.96 21.49 C 353.70 20.44 354.30 18.94 354.61 17.75 C 354.91 16.56 355.40 15.50 354.80 14.35 C 354.19 13.20 352.65 12.17 351.00 10.85 C 349.35 9.53 347.42 7.85 344.91 6.45 C 342.41 5.05 339.52 3.54 335.98 2.47 C 332.44 1.39 327.06 -4.24 323.69 0.02 C 320.33 4.27 318.29 17.83 315.80 27.99 C 313.30 38.14 310.51 50.40 308.70 60.95 C 306.90 71.49 305.87 81.34 304.98 91.27 C 304.10 101.21 303.98 111.80 303.39 120.56 C 302.79 129.31 301.41 135.52 301.42 143.81 C 301.44 152.10 302.45 162.17 303.49 170.29 C 304.53 178.42 305.97 185.20 307.66 192.56 C 309.34 199.91 311.80 208.05 313.60 214.41 C 315.40 220.76 315.86 225.33 318.45 230.68 C 321.04 236.03 325.45 241.87 329.16 246.51 C 332.87 251.15 336.90 255.31 340.71 258.53 C 344.52 261.75 348.32 264.41 352.00 265.84 C 355.68 267.26 359.16 267.31 362.79 267.10 C 366.41 266.89 370.02 266.38 373.73 264.57 C 377.44 262.75 382.04 259.54 385.05 256.21 C 388.06 252.88 389.97 248.38 391.78 244.58 C 393.60 240.79 395.19 237.82 395.92 233.43 C 396.66 229.04 396.79 223.73 396.21 218.25 C 395.62 212.76 395.05 206.21 392.43 200.52 C 389.80 194.83 384.56 188.79 380.47 184.10 C 376.39 179.41 373.06 176.27 367.93 172.37 C 362.80 168.47 355.88 163.95 349.72 160.70 C 343.56 157.46 336.89 155.63 330.99 152.91 C 325.08 150.20 319.52 147.27 314.28 144.42 C 309.05 141.57 303.85 138.21 299.58 135.79 C 295.31 133.36 292.93 132.08 288.68 129.86 C 284.44 127.64 278.66 125.15 274.12 122.49 C 269.59 119.82 266.20 116.09 261.48 113.87 C 256.75 111.64 250.32 110.37 245.78 109.14 C 241.24 107.91 238.68 106.71 234.23 106.48 C 229.77 106.24 223.89 107.66 219.04 107.73 C 214.19 107.80 209.92 107.03 205.13 106.89 C 200.34 106.75 194.69 106.81 190.27 106.87 C 185.85 106.93 182.47 107.41 178.60 107.23 C 174.72 107.06 170.89 106.13 167.02 105.82 C 163.16 105.52 159.07 105.50 155.38 105.39 C 151.70 105.27 148.17 105.39 144.92 105.13 C 141.66 104.86 138.89 104.54 135.88 103.78 C 132.87 103.02 129.87 101.42 126.86 100.58 C 123.85 99.74 120.83 98.80 117.80 98.74 C 114.77 98.67 111.39 99.55 108.69 100.18 C 105.99 100.81 104.43 101.48 101.60 102.51 C 98.77 103.54 94.87 104.94 91.72 106.35 C 88.56 107.76 85.68 109.27 82.64 110.95 C 79.61 112.63 76.52 114.75 73.52 116.43 C 70.52 118.12 67.25 119.99 64.64 121.08 C 62.03 122.16 60.14 121.96 57.87 122.94 C 55.60 123.93 53.16 126.18 51.02 126.99 C 48.88 127.80 47.08 127.42 45.01 127.80 C 42.94 128.18 40.17 128.99 38.61 129.28 C 37.05 129.58 36.63 130.11 35.65 129.57 C 34.67 129.03 33.55 127.18 32.73 126.05 C 31.90 124.92 30.91 123.94 30.71 122.81 C 30.51 121.68 31.20 120.65 31.52 119.27 C 31.83 117.88 32.40 116.13 32.58 114.51 C 32.76 112.89 32.43 111.21 32.60 109.52 C 32.77 107.83 33.76 105.66 33.58 104.36 C 33.41 103.06 32.51 102.03 31.53 101.72 C 30.55 101.40 29.10 102.06 27.69 102.44 C 26.28 102.82 24.80 102.79 23.07 103.99 C 21.33 105.19 19.00 107.47 17.26 109.64 C 15.53 111.81 13.97 114.28 12.66 117.01 C 11.36 119.74 10.21 122.08 9.43 126.04 C 8.65 129.99 8.50 135.49 8.00 140.73 C 7.49 145.97 6.52 151.50 6.40 157.45 C 6.28 163.41 6.76 170.64 7.28 176.47 C 7.80 182.30 8.32 186.51 9.53 192.44 C 10.74 198.37 12.80 205.58 14.54 212.06 C 16.28 218.53 17.67 224.81 19.98 231.29 C 22.29 237.77 25.32 244.71 28.40 250.95 C 31.48 257.18 34.94 263.21 38.45 268.71 C 41.95 274.21 45.11 278.73 49.43 283.94 C 53.76 289.16 58.84 294.95 64.40 299.99 C 69.96 305.03 76.18 309.48 82.81 314.18 C 89.44 318.87 97.29 324.59 104.18 328.16 C 111.06 331.74 116.66 333.72 124.11 335.64 C 131.57 337.57 140.70 339.16 148.91 339.70 C 157.13 340.24 165.35 339.53 173.42 338.89 C 181.49 338.26 190.37 337.36 197.31 335.88 C 204.25 334.40 208.71 332.91 215.07 330.00 C 221.43 327.09 229.64 323.16 235.47 318.44 C 241.30 313.71 245.55 307.53 250.04 301.66 C 254.54 295.80 259.33 288.89 262.42 283.24 C 265.51 277.60 267.19 273.53 268.60 267.80 C 270.00 262.08 271.04 255.27 270.86 248.87 C 270.68 242.48 269.12 235.31 267.52 229.42 C 265.92 223.54 263.81 217.94 261.24 213.56 C 258.68 209.19 256.06 206.73 252.12 203.18 C 248.17 199.62 242.89 194.64 237.58 192.21 C 232.27 189.77 225.78 188.91 220.26 188.58 C 214.74 188.25 209.69 188.56 204.47 190.22 C 199.24 191.88 193.37 195.80 188.93 198.53 C 184.49 201.25 181.23 202.74 177.84 206.58 C 174.45 210.42 171.14 216.11 168.58 221.55 C 166.01 226.99 163.67 233.22 162.45 239.21 C 161.22 245.21 161.00 251.86 161.25 257.52 C 161.49 263.18 162.22 267.56 163.90 273.18 C 165.58 278.79 168.36 285.42 171.31 291.22 C 174.27 297.02 177.66 302.91 181.64 307.98 C 185.61 313.05 190.96 317.72 195.16 321.64 C 199.36 325.56 202.31 328.35 206.86 331.51 C 211.41 334.67 217.32 337.58 222.47 340.60 C 227.62 343.62 232.55 347.35 237.74 349.64 C 242.92 351.92 249.02 353.02 253.57 354.32 C 258.12 355.63 260.76 356.18 265.04 357.46 C 269.32 358.75 274.02 361.21 279.25 362.05 C 284.48 362.90 290.77 362.76 296.44 362.55 C 302.11 362.35 308.48 361.78 313.25 360.83 C 318.03 359.89 320.69 358.97 325.10 356.88 C 329.50 354.79 335.14 351.62 339.68 348.29 C 344.22 344.95 348.25 340.61 352.33 336.85 C 356.40 333.09 360.62 328.82 364.12 325.73 C 367.63 322.64 370.09 321.37 373.35 318.31 C 376.62 315.26 380.24 310.86 383.72 307.40 C 387.20 303.93 391.13 301.11 394.24 297.52 C 397.35 293.93 399.95 290.07 402.38 285.85 C 404.81 281.63 407.16 276.32 408.81 272.19 C 410.46 268.05 411.00 265.19 412.28 261.04 C 413.55 256.89 415.73 252.20 416.45 247.29 C 417.18 242.38 416.80 236.84 416.64 231.59 C 416.49 226.35 416.08 220.60 415.52 215.82 C 414.97 211.05 414.45 207.61 413.32 202.93 C 412.19 198.25 410.98 192.72 408.75 187.76 C 406.51 182.80 402.62 177.88 399.88 173.15 C 397.13 168.43 394.60 163.53 392.27 159.41 C 389.95 155.30 387.80 152.53 385.94 148.48 C 384.09 144.42 382.49 139.33 381.12 135.07 C 379.76 130.81 378.64 127.10 377.77 122.91 C 376.89 118.73 376.31 113.42 375.86 109.97 C 375.41 106.52 374.84 104.80 375.09 102.20 C 375.33 99.61 376.43 96.70 377.34 94.40 C 378.25 92.10 379.38 89.87 380.56 88.39 C 381.73 86.91 382.84 86.43 384.39 85.54 C 385.95 84.64 387.66 83.57 389.89 83.03 C 392.12 82.48 395.03 82.20 397.78 82.27 C 400.53 82.34 403.45 82.35 406.37 83.46 C 409.28 84.57 412.31 86.59 415.29 88.93 C 418.27 91.26 421.71 94.68 424.26 97.48 C 426.80 100.28 428.21 101.98 430.56 105.71 C 432.92 109.44 435.82 114.19 438.40 119.87 C 440.98 125.55 444.50 133.02 446.03 139.78 C 447.55 146.55 447.19 154.62 447.53 160.45 C 447.87 166.28 448.40 168.77 448.06 174.74 C 447.72 180.72 446.62 189.12 445.49 196.31 C 444.36 203.50 443.05 210.70 441.28 217.87 C 439.50 225.04 436.78 232.97 434.83 239.33 C 432.88 245.70 431.53 250.08 429.56 256.06 C 427.59 262.04 424.74 269.35 423.01 275.21 C 421.29 281.07 420.41 285.78 419.23 291.24 C 418.04 296.70 417.01 303.29 415.88 307.95 C 414.75 312.61 413.61 314.92 412.44 319.21 C 411.26 323.49 410.42 328.88 408.84 333.66 C 407.27 338.43 405.33 343.15 402.99 347.84 C 400.65 352.52 397.70 357.64 394.80 361.77 C 391.90 365.90 389.33 368.92 385.59 372.60 C 381.85 376.28 376.66 380.19 372.35 383.85 C 368.05 387.51 364.22 391.19 359.77 394.54 C 355.31 397.88 349.88 401.08 345.62 403.92 C 341.36 406.76 338.13 408.96 334.22 411.60 C 330.30 414.24 325.79 417.18 322.14 419.76 C 318.49 422.35 315.42 424.55 312.34 427.11 C 309.26 429.67 306.50 432.77 303.67 435.10 C 300.83 437.43 297.93 439.20 295.32 441.08 C 292.71 442.97 290.85 444.28 287.99 446.40 C 285.13 448.52 281.65 451.75 278.17 453.82 C 274.68 455.88 270.61 457.41 267.08 458.79 C 263.55 460.17 260.41 461.25 256.99 462.10 C 253.57 462.95 250.62 463.67 246.56 463.89 C 242.49 464.12 237.73 463.93 232.59 463.43 C 227.45 462.94 221.09 462.51 215.70 460.91 C 210.31 459.31 205.07 456.20 200.27 453.84 C 195.46 451.48 191.69 450.12 186.88 446.77 C 182.07 443.41 176.33 438.63 171.43 433.71 C 166.52 428.79 161.91 422.43 157.48 417.25 C 153.04 412.08 148.57 406.97 144.82 402.66 C 141.06 398.34 138.29 396.00 134.95 391.36 C 131.62 386.72 127.86 379.88 124.80 374.79 C 121.75 369.71 119.63 365.40 116.64 360.84 C 113.65 356.27 109.71 351.31 106.86 347.40 C 104.01 343.48 102.09 340.76 99.53 337.35 C 96.97 333.94 94.06 329.87 91.48 326.94 C 88.89 324.02 86.74 321.52 84.03 319.78 C 81.31 318.04 78.15 317.23 75.17 316.48 C 72.19 315.73 68.63 315.46 66.14 315.30 C 63.65 315.13 62.17 314.84 60.25 315.50 C 58.33 316.17 56.29 317.63 54.61 319.29 C 52.92 320.95 50.98 323.17 50.14 325.46 C 49.31 327.74 49.74 330.64 49.58 333.00 C 49.41 335.35 49.29 337.03 49.14 339.58 C 48.98 342.14 48.65 345.48 48.65 348.31 C 48.65 351.13 49.10 353.98 49.11 356.53 C 49.12 359.08 49.00 361.45 48.70 363.62 C 48.39 365.79 47.74 367.55 47.29 369.56 C 46.84 371.57 46.74 373.70 45.99 375.66 C 45.24 377.62 43.43 379.77 42.79 381.33 C 42.16 382.90 42.56 384.15 42.18 385.06 C 41.79 385.97 40.96 385.65 40.46 386.81 C 39.96 387.96 39.38 390.18 39.16 391.99 C 38.93 393.80 38.69 395.53 39.12 397.68 C 39.56 399.83 40.62 402.58 41.78 404.90 C 42.94 407.23 44.75 409.24 46.08 411.63 C 47.41 414.03 48.74 416.75 49.75 419.29 C 50.77 421.82 51.02 424.41 52.17 426.83 C 53.32 429.26 55.25 431.52 56.65 433.86 C 58.05 436.20 59.32 438.73 60.57 440.88 C 61.81 443.03 63.35 445.41 64.13 446.78 C 64.91 448.14 65.11 448.21 65.24 449.06 C 65.37 449.90 65.45 451.00 64.93 451.85 C 64.42 452.69 63.16 454.06 62.16 454.14 C 61.16 454.22 60.42 453.61 58.95 452.32 C 57.47 451.04 55.29 448.93 53.32 446.42 C 51.35 443.91 49.51 440.15 47.14 437.26 C 44.77 434.37 41.08 431.49 39.12 429.10 C 37.16 426.71 36.96 425.54 35.38 422.93 C 33.79 420.32 31.36 416.22 29.60 413.44 C 27.84 410.66 26.54 408.36 24.80 406.25 C 23.06 404.15 20.90 402.59 19.17 400.80 C 17.44 399.01 15.89 396.78 14.42 395.53 C 12.94 394.28 11.49 393.78 10.35 393.31 C 9.21 392.84 7.97 392.20 7.57 392.71 C 7.17 393.22 7.74 395.00 7.96 396.36 C 8.17 397.73 8.45 399.23 8.86 400.92 C 9.28 402.61 9.63 404.49 10.46 406.50 C 11.28 408.50 12.35 410.46 13.82 412.94 C 15.29 415.42 17.29 418.91 19.27 421.37 C 21.26 423.83 22.52 425.28 25.71 427.70 C 28.91 430.13 33.66 433.23 38.46 435.91 C 43.25 438.60 48.68 441.21 54.48 443.80 C 60.27 446.39 66.78 449.04 73.22 451.47 C 79.66 453.89 87.25 456.39 93.11 458.34 C 98.97 460.30 102.67 461.80 108.38 463.21 C 114.09 464.63 121.32 465.82 127.36 466.83 C 133.40 467.83 138.77 468.35 144.59 469.24 C 150.42 470.12 157.15 471.21 162.30 472.14 C 167.46 473.08 170.50 473.95 175.53 474.84 C 180.57 475.72 187.70 476.56 192.52 477.46 C 197.33 478.35 200.91 479.08 204.41 480.21 C 207.91 481.34 211.04 483.17 213.51 484.22 C 215.98 485.27 217.46 485.12 219.22 486.52 C 220.98 487.92 223.03 490.84 224.07 492.61 C 225.12 494.39 225.96 495.70 225.49 497.15 C 225.03 498.61 222.40 500.29 221.28 501.34 C 220.16 502.39 219.87 502.64 218.78 503.46 C 217.69 504.28 216.67 505.74 214.72 506.28 C 212.78 506.83 210.17 507.04 207.13 506.75 C 204.09 506.45 199.82 505.22 196.50 504.53 C 193.18 503.84 190.75 504.08 187.19 502.59 C 183.63 501.11 179.18 498.05 175.16 495.61 C 171.14 493.17 167.11 490.32 163.07 487.95 C 159.03 485.58 154.59 483.41 150.94 481.40 C 147.29 479.39 144.97 477.68 141.16 475.89 C 137.35 474.10 131.60 472.62 128.07 470.65 C 124.55 468.67 123.12 465.99 120.00 464.04 C 116.88 462.10 112.69 460.76 109.34 458.97 C 105.99 457.18 102.64 455.17 99.91 453.30 C 97.17 451.43 95.43 450.12 92.96 447.77 C 90.48 445.42 87.67 442.02 85.05 439.20 C 82.43 436.37 79.57 433.75 77.25 430.83 C 74.94 427.90 73.32 424.72 71.17 421.63 C 69.02 418.55 66.79 416.10 64.37 412.32 C 61.94 408.55 58.97 403.61 56.64 398.98 C 54.31 394.36 51.85 389.75 50.38 384.58 C 48.91 379.40 48.68 373.13 47.82 367.93 C 46.96 362.74 45.40 359.09 45.22 353.41 C 45.04 347.74 45.67 340.91 46.72 333.90 C 47.77 326.89 49.62 318.63 51.51 311.37 C 53.40 304.11 55.33 296.84 58.07 290.35 C 60.80 283.86 63.77 278.82 67.92 272.42 C 72.08 266.01 76.80 258.14 82.99 251.90 C 89.19 245.67 97.71 239.94 105.11 235.01 C 112.52 230.08 120.59 225.67 127.42 222.32 C 134.24 218.97 138.73 217.39 146.06 214.89 C 153.39 212.38 163.29 208.82 171.40 207.27 C 179.51 205.73 187.14 205.63 194.74 205.60 C 202.33 205.56 209.62 205.87 216.98 207.07 C 224.34 208.26 232.56 210.93 238.89 212.79 C 245.22 214.66 248.99 216.32 254.94 218.27 C 260.90 220.22 268.45 222.49 274.63 224.49 C 280.80 226.50 286.25 228.54 291.98 230.29 C 297.71 232.05 304.03 233.84 309.01 235.04 C 313.99 236.24 317.08 236.97 321.86 237.49 C 326.64 238.02 332.66 238.62 337.70 238.19 C 342.74 237.77 347.78 236.20 352.09 234.94 C 356.39 233.68 360.35 232.41 363.54 230.61 C 366.73 228.82 368.38 226.45 371.25 224.18 C 374.13 221.91 378.02 220.06 380.79 216.98 C 383.56 213.89 385.79 209.28 387.85 205.66 C 389.92 202.03 391.63 198.35 393.18 195.22 C 394.73 192.09 396.07 190.05 397.14 186.89 C 398.21 183.73 398.24 179.50 399.61 176.27 C 400.98 173.04 403.73 170.29 405.35 167.54 C 406.98 164.79 408.14 161.95 409.38 159.79 C 410.62 157.63 411.50 156.79 412.81 154.60 C 414.12 152.41 415.93 149.19 417.25 146.64 C 418.58 144.10 419.85 141.66 420.74 139.32 C 421.64 136.99 422.26 134.92 422.62 132.64 C 422.99 130.37 422.93 128.52 422.95 125.65 C 422.98 122.79 422.79 118.32 422.79 115.45 C 422.79 112.57 423.06 110.95 422.94 108.41 C 422.82 105.88 421.70 102.67 422.06 100.24 C 422.43 97.81 424.17 95.48 425.15 93.83 C 426.13 92.18 426.61 90.87 427.94 90.34 C 429.28 89.80 431.26 90.48 433.16 90.64 C 435.05 90.79 437.36 91.10 439.31 91.26 C 441.26 91.42 443.47 91.49 444.87 91.60 C 446.27 91.70 446.63 91.93 447.70 91.89 C 448.77 91.86 450.25 91.70 451.28 91.38 C 452.31 91.05 452.86 90.46 453.88 89.93 C 454.89 89.40 456.50 88.96 457.37 88.20 C 458.23 87.44 459.20 86.82 459.06 85.38 C 458.92 83.93 458.00 81.66 456.53 79.53 C 455.05 77.40 452.88 75.05 450.23 72.60 C 447.57 70.15 443.78 67.17 440.60 64.84 C 437.41 62.52 434.97 61.03 431.12 58.65 C 427.26 56.26 421.83 52.82 417.48 50.54 C 413.13 48.26 408.86 47.09 405.01 44.97 C 401.16 42.86 397.64 39.98 394.38 37.85 C 391.12 35.72 388.28 34.01 385.45 32.18 C 382.62 30.34 379.72 28.60 377.40 26.86 C 375.08 25.11 373.25 23.39 371.52 21.70 C 369.79 20.01 367.72 18.25 367.03 16.73 C 366.34 15.21 367.01 13.72 367.38 12.57 C 367.74 11.43 367.60 9.94 369.23 9.86 C 370.86 9.77 374.16 10.89 377.14 12.05 C 380.12 13.22 383.85 14.70 387.13 16.85 C 390.41 18.99 393.92 22.35 396.83 24.91 C 399.73 27.46 401.52 28.87 404.54 32.17 C 407.57 35.47 411.52 40.22 414.98 44.72 C 418.44 49.22 422.49 53.65 425.31 59.17 C 428.12 64.70 430.25 71.71 431.85 77.89 C 433.45 84.07 434.23 88.92 434.92 96.26 C 435.61 103.59 436.33 113.13 435.98 121.88 C 435.64 130.64 434.60 140.11 432.86 148.79 C 431.12 157.47 428.43 166.41 425.53 173.98 C 422.63 181.54 419.61 187.20 415.47 194.18 C 411.32 201.16 406.01 208.84 400.65 215.86 C 395.30 222.87 389.45 230.32 383.35 236.28 C 377.24 242.24 369.89 247.24 364.02 251.62 C 358.16 255.99 354.04 258.92 348.15 262.52 C 342.26 266.13 335.37 269.87 328.65 273.27 C 321.94 276.67 314.29 279.60 307.85 282.93 C 301.40 286.26 295.78 290.65 289.97 293.25 C 284.17 295.85 278.94 296.97 273.01 298.51 C 267.08 300.05 260.40 301.13 254.39 302.48 C 248.39 303.84 242.74 305.83 236.97 306.64 C 231.19 307.45 225.51 307.44 219.74 307.33 C 213.96 307.21 207.17 306.45 202.30 305.93 C 197.44 305.40 194.96 304.81 190.54 304.17 C 186.12 303.53 180.71 303.39 175.77 302.09 C 170.83 300.79 165.47 298.60 160.90 296.38 C 156.33 294.16 152.14 290.82 148.37 288.80 C 144.59 286.78 142.03 285.69 138.27 284.26 C 134.51 282.83 129.98 281.10 125.80 280.22 C 121.62 279.33 117.13 279.25 113.20 278.98 C 109.27 278.71 105.26 278.83 102.23 278.59 C 99.20 278.34 97.73 277.95 95.00 277.49 C 92.28 277.04 88.87 276.56 85.88 275.84 C 82.89 275.12 79.85 274.36 77.08 273.16 C 74.32 271.97 71.49 269.99 69.30 268.67 C 67.11 267.35 66.20 266.49 63.95 265.26 C 61.70 264.02 58.22 262.50 55.80 261.24 C 53.38 259.99 51.65 258.26 49.42 257.71 C 47.20 257.15 44.31 257.47 42.45 257.92 C 40.59 258.38 40.16 259.34 38.28 260.44 C 36.41 261.53 33.27 262.66 31.21 264.49 C 29.15 266.32 27.46 268.97 25.94 271.43 C 24.43 273.89 23.27 276.57 22.14 279.24 C 21.01 281.91 19.71 284.92 19.17 287.46 C 18.63 290.00 19.22 291.61 18.89 294.46 C 18.57 297.30 17.98 301.61 17.22 304.53 C 16.46 307.45 15.20 309.74 14.34 311.97 C 13.47 314.21 12.57 316.08 12.04 317.94 C 11.51 319.81 11.84 321.50 11.17 323.17 C 10.50 324.84 8.87 326.32 8.02 327.96 C 7.17 329.60 6.58 331.11 6.07 333.02 C 5.56 334.92 5.05 337.09 4.98 339.38 C 4.92 341.67 4.86 343.49 5.68 346.75 C 6.50 350.02 8.05 354.87 9.90 358.99 C 11.75 363.10 13.88 367.48 16.79 371.44 C 19.69 375.40 23.60 379.18 27.33 382.76 C 31.06 386.35 34.39 389.56 39.18 392.95 C 43.97 396.33 50.54 399.61 56.08 403.05 C 61.62 406.50 66.11 410.58 72.42 413.63 C 78.74 416.67 87.56 419.46 93.95 421.33 C 100.35 423.20 104.17 423.90 110.79 424.84 C 117.41 425.78 125.91 426.65 133.65 426.98 C 141.40 427.31 149.36 427.08 157.24 426.84 C 165.13 426.59 173.70 426.43 180.95 425.52 C 188.21 424.61 193.63 423.33 200.79 421.38 C 207.95 419.42 216.46 417.03 223.93 413.78 C 231.40 410.53 238.95 406.35 245.61 401.88 C 252.26 397.41 258.05 392.38 263.86 386.96 C 269.67 381.54 275.79 374.70 280.45 369.36 C 285.12 364.02 287.90 360.44 291.84 354.92 C 295.78 349.41 300.44 342.67 304.10 336.29 C 307.76 329.92 310.29 322.97 313.78 316.68 C 317.28 310.40 321.76 303.46 325.08 298.57 C 328.40 293.67 330.39 291.36 333.69 287.31 C 336.98 283.26 341.07 278.19 344.84 274.26 C 348.60 270.33 352.35 266.91 356.28 263.71 C 360.20 260.52 365.04 257.05 368.39 255.10 C 371.73 253.16 372.93 252.72 376.37 252.04 C 379.82 251.35 385.10 250.92 389.07 251.00 C 393.04 251.07 396.66 251.64 400.19 252.47 C 403.71 253.29 407.34 255.02 410.23 255.95 C 413.11 256.88 414.83 256.84 417.50 258.05 C 420.17 259.26 423.42 261.43 426.25 263.21 C 429.08 264.99 431.67 266.72 434.47 268.73 C 437.26 270.75 440.83 273.65 443.02 275.29 C 445.22 276.93 445.62 277.19 447.63 278.58 C 449.65 279.96 452.47 282.38 455.12 283.61 C 457.77 284.84 460.91 285.25 463.55 285.96 C 466.19 286.67 468.53 287.73 470.96 287.88 C 473.40 288.02 476.10 287.31 478.17 286.83 C 480.24 286.36 481.64 286.15 483.39 285.02 C 485.14 283.88 486.94 282.14 488.68 280.02 C 490.42 277.90 492.75 275.67 493.81 272.30 C 494.87 268.93 494.81 263.89 495.02 259.79 C 495.23 255.69 495.92 252.23 495.08 247.72 C 494.23 243.20 492.30 238.19 489.93 232.70 C 487.56 227.21 484.61 220.62 480.86 214.80 C 477.10 208.97 471.57 202.76 467.42 197.74 C 463.27 192.73 460.70 189.04 455.95 184.70 C 451.20 180.37 444.93 175.96 438.93 171.75 C 432.93 167.54 426.47 163.13 419.95 159.47 C 413.43 155.81 405.62 152.78 399.79 149.81 C 393.96 146.83 390.49 144.48 384.97 141.61 C 379.46 138.75 372.60 135.27 366.70 132.61 C 360.79 129.95 354.96 128.41 349.54 125.66 C 344.13 122.91 338.46 118.97 334.18 116.12 C 329.91 113.27 327.53 111.17 323.90 108.56 C 320.27 105.96 315.81 103.37 312.42 100.50 C 309.02 97.63 305.83 94.30 303.52 91.33 C 301.22 88.36 299.81 85.54 298.60 82.68 C 297.40 79.82 296.62 76.89 296.29 74.17 C 295.96 71.44 296.33 68.86 296.61 66.33 C 296.90 63.80 297.29 61.10 298.01 58.99 C 298.72 56.88 299.06 55.56 300.91 53.65 C 302.76 51.75 306.77 48.94 309.09 47.55 C 311.41 46.16 312.98 46.22 314.82 45.34 C 316.66 44.45 318.31 43.04 320.15 42.26 C 321.98 41.48 324.06 41.56 325.85 40.67 C 327.65 39.77 329.04 37.66 330.91 36.89 C 332.78 36.12 335.06 36.79 337.07 36.05 C 339.09 35.31 341.36 33.71 342.99 32.45 C 344.62 31.20 346.48 29.86 346.86 28.53 C 347.24 27.20 346.07 25.88 345.27 24.48 C 344.47 23.09 343.53 21.94 342.06 20.15 C 340.59 18.36 338.84 15.52 336.45 13.75 C 334.05 11.98 331.08 10.71 327.70 9.53 C 324.33 8.35 319.62 7.33 316.17 6.66 C 312.73 6.00 310.65 6.00 307.04 5.53 C 303.42 5.06 298.20 4.63 294.48 3.84 C 290.75 3.05 288.23 -3.29 284.69 0.79 C 281.15 4.87 276.47 19.60 273.26 28.31 C 270.04 37.02 268.43 44.05 265.37 53.05 C 262.31 62.06 258.79 73.45 254.90 82.36 C 251.01 91.27 246.23 98.66 242.02 106.52 C 237.81 114.37 233.26 122.80 229.64 129.49 C 226.02 136.19 224.32 141.16 220.32 146.70 C 216.32 152.23 210.07 157.72 205.66 162.71 C 201.26 167.69 198.02 172.30 193.90 176.61 C 189.78 180.92 185.29 184.62 180.93 188.55 C 176.56 192.48 171.35 196.57 167.70 200.18 C 164.06 203.79 162.21 206.18 159.04 210.19 C 155.87 214.19 151.30 219.11 148.68 224.18 C 146.07 229.26 145.05 235.14 143.35 240.61 C 141.65 246.09 140.00 252.09 138.49 257.04 C 136.97 261.99 135.44 265.87 134.24 270.32 C 133.03 274.78 132.12 279.23 131.25 283.76 C 130.37 288.30 129.93 293.08 128.99 297.52 C 128.05 301.96 126.68 306.78 125.59 310.40 C 124.50 314.03 123.33 315.98 122.44 319.27 C 121.55 322.56 121.47 326.88 120.23 330.14 C 118.99 333.40 116.91 336.05 115.00 338.82 C 113.09 341.58 111.00 344.79 108.78 346.73 C 106.55 348.68 104.19 349.59 101.65 350.50 C 99.11 351.42 96.21 352.35 93.52 352.23 C 90.82 352.11 88.50 351.39 85.49 349.78 C 82.47 348.17 77.98 344.87 75.43 342.59 C 72.88 340.31 72.13 339.75 70.21 336.10 C 68.29 332.46 65.27 325.91 63.94 320.71 C 62.60 315.51 62.42 310.84 62.20 304.93 C 61.97 299.02 61.86 291.68 62.59 285.26 C 63.31 278.84 65.00 272.12 66.53 266.43 C 68.06 260.73 69.22 256.77 71.77 251.08 C 74.32 245.38 77.92 238.29 81.81 232.27 C 85.71 226.25 89.99 220.41 95.15 214.96 C 100.31 209.51 107.49 203.73 112.79 199.58 C 118.09 195.42 121.18 193.23 126.97 190.04 C 132.76 186.84 140.52 183.52 147.53 180.40 C 154.54 177.27 162.23 174.46 169.04 171.28 C 175.85 168.10 182.85 164.18 188.38 161.32 C 193.91 158.46 197.28 156.89 202.22 154.11 C 207.16 151.34 213.31 147.87 218.02 144.69 C 222.72 141.51 226.51 138.12 230.45 135.03 C 234.39 131.95 238.43 128.92 241.67 126.17 C 244.90 123.41 246.52 120.89 249.86 118.49 C 253.19 116.09 257.38 113.56 261.69 111.75 C 266.00 109.93 271.07 108.85 275.73 107.59 C 280.39 106.33 285.09 104.77 289.64 104.19 C 294.20 103.60 298.28 103.65 303.07 104.08 C 307.87 104.52 313.39 105.79 318.41 106.79 C 323.43 107.78 328.09 108.40 333.19 110.07 C 338.28 111.73 344.39 114.57 348.97 116.78 C 353.55 118.99 356.70 120.47 360.64 123.35 C 364.58 126.24 368.89 129.79 372.61 134.08 C 376.33 138.36 379.81 143.72 382.97 149.07 C 386.13 154.43 389.33 160.48 391.58 166.20 C 393.83 171.92 395.42 177.65 396.47 183.39 C 397.52 189.14 398.20 194.23 397.87 200.67 C 397.55 207.12 396.03 214.86 394.52 222.07 C 393.01 229.29 391.74 236.91 388.79 243.96 C 385.84 251.01 380.57 258.72 376.83 264.35 C 373.10 269.98 370.64 272.80 366.40 277.74 C 362.15 282.68 356.99 289.38 351.37 293.98 C 345.74 298.57 339.07 302.17 332.64 305.32 C 326.21 308.48 319.04 311.06 312.79 312.92 C 306.54 314.77 301.48 315.44 295.15 316.45 C 288.81 317.47 281.62 318.99 274.78 318.99 C 267.93 319.00 260.81 317.48 254.08 316.48 C 247.35 315.47 240.16 314.54 234.41 312.99 C 228.65 311.43 224.47 310.01 219.55 307.15 C 214.62 304.28 209.13 300.00 204.86 295.81 C 200.59 291.61 197.68 286.70 193.91 281.96 C 190.14 277.21 185.81 271.39 182.24 267.33 C 178.67 263.27 175.65 261.27 172.48 257.60 C 169.30 253.92 166.26 249.49 163.19 245.28 C 160.11 241.07 156.97 236.08 154.01 232.34 C 151.06 228.61 148.25 225.88 145.46 222.87 C 142.68 219.85 139.96 216.91 137.31 214.23 C 134.67 211.55 132.15 209.48 129.61 206.81 C 127.06 204.13 124.91 200.54 122.03 198.20 C 119.15 195.86 115.40 194.27 112.34 192.78 C 109.27 191.29 106.12 189.98 103.63 189.24 C 101.14 188.51 99.86 188.71 97.41 188.37 C 94.96 188.03 91.66 187.59 88.92 187.18 C 86.17 186.77 83.80 186.47 80.95 185.91 C 78.11 185.35 74.20 184.52 71.83 183.83 C 69.46 183.15 68.64 182.94 66.72 181.81 C 64.80 180.68 62.40 178.46 60.30 177.06 C 58.20 175.66 55.93 174.65 54.10 173.43 C 52.27 172.22 50.83 170.58 49.32 169.78 C 47.81 168.98 46.30 169.31 45.02 168.64 C 43.75 167.97 43.20 166.59 41.68 165.76 C 40.16 164.92 37.67 163.95 35.88 163.63 C 34.10 163.30 32.53 163.67 30.99 163.81 C 29.45 163.94 28.12 164.04 26.67 164.45 C 25.21 164.85 23.64 165.96 22.27 166.22 C 20.90 166.48 19.61 166.35 18.43 166.03 C 17.26 165.70 16.04 164.64 15.21 164.26 C 14.38 163.88 14.31 164.48 13.45 163.76 C 12.60 163.04 11.07 160.98 10.06 159.95 C 9.05 158.92 8.19 158.31 7.41 157.60 C 6.62 156.88 6.26 156.05 5.33 155.64 C 4.40 155.23 1.37 154.80 1.83 155.15 C 2.28 155.49 1.39 157.43 8.08 157.71 C 14.76 157.98 31.30 157.01 41.96 156.78 C 52.61 156.56 61.90 156.39 72.00 156.33 C 82.10 156.27 93.88 156.01 102.57 156.42 C 111.25 156.82 115.90 158.10 124.10 158.78 C 132.30 159.45 142.97 159.92 151.74 160.47 C 160.52 161.02 168.75 161.70 176.76 162.08 C 184.76 162.46 192.83 161.98 199.76 162.74 C 206.68 163.50 211.60 164.95 218.31 166.65 C 225.03 168.35 233.10 170.48 240.06 172.93 C 247.02 175.39 253.76 178.08 260.07 181.39 C 266.37 184.69 272.68 189.28 277.88 192.74 C 283.08 196.21 286.44 198.64 291.25 202.19 C 296.07 205.73 302.14 209.71 306.78 213.99 C 311.41 218.27 315.34 223.18 319.08 227.87 C 322.82 232.56 326.38 237.77 329.20 242.10 C 332.02 246.44 333.74 249.10 336.01 253.87 C 338.27 258.64 341.48 264.86 342.76 270.72 C 344.05 276.58 343.52 283.13 343.72 289.06 C 343.93 294.99 344.78 300.79 343.98 306.31 C 343.18 311.84 340.84 317.34 338.92 322.19 C 337.00 327.03 335.20 330.89 332.47 335.38 C 329.74 339.87 326.34 344.79 322.53 349.11 C 318.72 353.43 314.30 357.88 309.64 361.30 C 304.97 364.71 299.38 367.20 294.53 369.61 C 289.68 372.02 285.08 373.46 280.52 375.74 C 275.96 378.03 271.73 381.22 267.18 383.32 C 262.63 385.42 257.48 386.78 253.21 388.34 C 248.95 389.89 245.41 391.10 241.61 392.64 C 237.81 394.17 234.44 395.51 230.42 397.53 C 226.40 399.55 221.37 402.31 217.49 404.76 C 213.61 407.20 210.94 410.40 207.14 412.20 C 203.34 414.00 198.23 414.65 194.69 415.56 C 191.14 416.47 189.44 417.62 185.89 417.66 C 182.35 417.70 177.51 416.44 173.42 415.81 C 169.34 415.19 165.79 415.40 161.38 413.90 C 156.97 412.40 151.04 409.16 146.97 406.82 C 142.89 404.48 140.76 403.58 136.92 399.87 C 133.09 396.15 127.68 389.71 123.98 384.55 C 120.27 379.38 117.21 374.65 114.71 368.88 C 112.21 363.11 110.23 355.84 108.99 349.91 C 107.75 343.98 106.84 340.05 107.26 333.30 C 107.69 326.56 109.25 317.32 111.53 309.43 C 113.81 301.55 116.85 293.37 120.92 285.99 C 125.00 278.61 130.18 271.08 135.99 265.15 C 141.79 259.22 149.63 254.26 155.77 250.43 C 161.91 246.60 166.02 244.83 172.80 242.17 C 179.58 239.52 188.72 236.71 196.44 234.52 C 204.17 232.33 211.86 230.42 219.17 229.05 C 226.48 227.67 233.97 226.57 240.30 226.26 C 246.63 225.94 251.24 227.13 257.14 227.15 C 263.04 227.16 269.89 226.91 275.69 226.34 C 281.50 225.78 286.59 224.89 291.97 223.76 C 297.35 222.63 303.24 220.78 307.95 219.55 C 312.66 218.31 315.92 217.86 320.24 216.35 C 324.55 214.83 329.54 212.59 333.85 210.48 C 338.15 208.36 342.16 206.24 346.09 203.67 C 350.01 201.10 354.36 197.30 357.40 195.04 C 360.44 192.79 361.48 191.94 364.34 190.15 C 367.20 188.36 371.32 186.38 374.55 184.29 C 377.78 182.20 380.67 179.06 383.75 177.61 C 386.82 176.16 390.34 175.92 393.00 175.60 C 395.66 175.29 397.17 175.14 399.71 175.74 C 402.25 176.35 404.97 177.67 408.24 179.23 C 411.51 180.80 415.75 183.29 419.34 185.14 C 422.93 186.99 426.62 188.27 429.78 190.33 C 432.94 192.40 435.89 195.67 438.29 197.55 C 440.69 199.44 441.99 200.08 444.19 201.64 C 446.39 203.21 448.82 205.13 451.49 206.94 C 454.16 208.75 457.77 211.10 460.22 212.50 C 462.68 213.89 464.39 214.49 466.23 215.33 C 468.06 216.17 469.52 216.88 471.22 217.53 C 472.91 218.18 474.56 219.37 476.42 219.23 C 478.28 219.10 480.42 217.80 482.37 216.73 C 484.33 215.66 486.63 214.28 488.14 212.83 C 489.64 211.38 490.49 210.08 491.42 208.02 C 492.35 205.96 493.23 203.04 493.72 200.45 C 494.21 197.87 494.39 195.56 494.38 192.49 C 494.38 189.43 493.96 185.08 493.69 182.08 C 493.42 179.07 493.08 177.02 492.77 174.46 C 492.47 171.90 491.98 168.95 491.83 166.69 C 491.69 164.44 491.70 162.62 491.89 160.94 C 492.08 159.27 492.46 158.05 492.97 156.65 C 493.47 155.26 494.04 153.37 494.92 152.55 C 495.79 151.73 497.00 151.50 498.22 151.73 C 499.45 151.96 500.92 152.68 502.27 153.92 C 503.61 155.16 505.21 157.28 506.31 159.18 C 507.41 161.08 509.20 162.52 508.87 165.32 C 508.54 168.13 510.65 172.64 504.31 176.03 C 497.97 179.41 481.53 182.50 470.82 185.64 C 460.11 188.79 450.05 191.78 440.04 194.89 C 430.03 198.00 419.09 201.18 410.75 204.31 C 402.41 207.44 397.60 210.18 389.98 213.67 C 382.36 217.17 372.97 221.68 365.02 225.28 C 357.06 228.88 349.92 232.25 342.26 235.28 C 334.60 238.30 325.92 241.40 319.07 243.45 C 312.22 245.50 307.66 246.26 301.16 247.57 C 294.66 248.88 287.05 250.45 280.07 251.29 C 273.09 252.14 265.79 251.70 259.27 252.64 C 252.75 253.59 246.59 255.87 240.94 256.98 C 235.29 258.08 230.90 258.42 225.34 259.26 C 219.79 260.11 213.15 260.87 207.59 262.04 C 202.04 263.22 196.93 265.11 192.01 266.31 C 187.09 267.52 182.31 268.42 178.05 269.25 C 173.80 270.09 170.88 270.18 166.47 271.33 C 162.06 272.47 155.94 274.32 151.60 276.11 C 147.26 277.90 143.97 279.82 140.43 282.06 C 136.89 284.29 133.18 286.90 130.37 289.50 C 127.55 292.10 126.03 294.74 123.53 297.64 C 121.04 300.54 117.52 303.72 115.39 306.89 C 113.26 310.06 112.01 313.21 110.76 316.67 C 109.51 320.12 108.04 323.45 107.89 327.61 C 107.74 331.76 109.09 337.30 109.84 341.59 C 110.59 345.89 110.82 349.22 112.37 353.38 C 113.91 357.54 116.13 362.21 119.11 366.55 C 122.09 370.89 126.04 375.54 130.24 379.40 C 134.44 383.27 139.85 386.73 144.31 389.75 C 148.78 392.76 151.86 395.07 157.03 397.52 C 162.19 399.97 168.65 402.81 175.29 404.43 C 181.92 406.06 189.44 407.15 196.85 407.26 C 204.26 407.37 213.22 406.24 219.74 405.08 C 226.26 403.93 229.89 401.91 235.96 400.32 C 242.03 398.73 249.58 397.27 256.15 395.55 C 262.71 393.82 269.25 392.03 275.34 389.95 C 281.43 387.88 287.43 385.22 292.69 383.10 C 297.95 380.98 301.58 379.66 306.90 377.23 C 312.22 374.80 319.25 371.48 324.62 368.52 C 329.98 365.55 334.30 362.23 339.11 359.45 C 343.92 356.67 349.14 353.80 353.48 351.84 C 357.81 349.88 361.21 348.61 365.12 347.70 C 369.03 346.80 373.20 346.36 376.94 346.41 C 380.69 346.47 384.46 346.80 387.58 348.03 C 390.71 349.26 393.47 352.00 395.71 353.77 C 397.96 355.55 398.74 357.06 401.05 358.68 C 403.36 360.29 406.91 362.05 409.56 363.44 C 412.21 364.84 414.84 365.74 416.97 367.05 C 419.09 368.36 420.36 369.66 422.32 371.32 C 424.28 372.98 426.55 375.87 428.72 377.00 C 430.89 378.12 432.87 378.17 435.34 378.09 C 437.81 378.02 440.60 377.32 443.51 376.54 C 446.43 375.77 449.96 374.42 452.80 373.43 C 455.65 372.44 458.27 371.93 460.59 370.63 C 462.90 369.33 464.75 368.20 466.71 365.63 C 468.66 363.05 470.39 358.82 472.33 355.17 C 474.27 351.52 477.02 347.89 478.35 343.73 C 479.68 339.58 479.68 334.52 480.33 330.21 C 480.97 325.90 481.55 322.97 482.22 317.89 C 482.90 312.80 484.65 305.91 484.38 299.72 C 484.10 293.53 481.97 287.08 480.56 280.77 C 479.16 274.47 477.73 267.60 475.95 261.90 C 474.17 256.20 472.07 252.02 469.90 246.58 C 467.74 241.14 465.15 234.85 462.94 229.24 C 460.73 223.63 459.23 218.39 456.64 212.94 C 454.06 207.49 450.52 201.64 447.44 196.54 C 444.35 191.43 441.95 187.29 438.16 182.31 C 434.37 177.34 429.14 171.43 424.68 166.71 C 420.23 161.99 416.25 158.03 411.44 153.98 C 406.62 149.94 401.35 145.93 395.81 142.42 C 390.28 138.91 383.34 135.93 378.23 132.91 C 373.12 129.90 370.30 127.23 365.14 124.33 C 359.99 121.43 353.35 117.93 347.31 115.53 C 341.28 113.13 335.28 111.67 328.94 109.91 C 322.60 108.15 315.10 105.85 309.29 104.97 C 303.47 104.08 300.01 104.07 294.06 104.59 C 288.11 105.12 280.46 106.24 273.60 108.11 C 266.74 109.99 259.35 112.50 252.90 115.84 C 246.45 119.18 240.44 124.25 234.88 128.15 C 229.32 132.04 224.66 134.48 219.53 139.20 C 214.39 143.92 208.81 150.48 204.07 156.46 C 199.33 162.45 195.10 168.82 191.09 175.10 C 187.09 181.37 182.92 188.38 180.02 194.10 C 177.12 199.82 175.21 203.44 173.70 209.41 C 172.19 215.38 171.57 223.08 170.94 229.92 C 170.32 236.76 169.90 243.95 169.96 250.47 C 170.02 256.99 170.35 263.45 171.30 269.05 C 172.25 274.64 172.92 278.95 175.66 284.02 C 178.39 289.10 183.17 294.86 187.71 299.51 C 192.26 304.16 197.67 307.81 202.94 311.94 C 208.21 316.07 214.50 320.76 219.31 324.27 C 224.11 327.77 227.19 329.99 231.78 332.99 C 236.36 335.99 241.93 339.25 246.82 342.27 C 251.70 345.28 256.45 348.24 261.10 351.07 C 265.75 353.89 270.69 356.20 274.70 359.21 C 278.71 362.21 281.99 366.42 285.15 369.10 C 288.31 371.78 290.91 372.75 293.67 375.28 C 296.43 377.81 300.09 380.93 301.69 384.28 C 303.30 387.63 303.55 391.70 303.33 395.36 C 303.10 399.02 301.73 403.11 300.36 406.25 C 298.99 409.40 297.21 411.42 295.12 414.22 C 293.02 417.03 290.73 420.45 287.78 423.09 C 284.83 425.74 281.29 427.91 277.43 430.11 C 273.56 432.31 268.52 434.96 264.59 436.30 C 260.66 437.63 258.12 437.75 253.86 438.13 C 249.60 438.51 244.41 438.84 239.04 438.58 C 233.67 438.33 226.97 437.22 221.66 436.58 C 216.35 435.95 211.43 435.58 207.16 434.78 C 202.89 433.98 200.00 432.43 196.03 431.77 C 192.07 431.12 187.49 431.12 183.37 430.87 C 179.26 430.62 175.22 430.03 171.35 430.28 C 167.48 430.54 162.93 431.69 160.15 432.38 C 157.37 433.08 156.42 433.28 154.65 434.47 C 152.89 435.67 150.44 437.68 149.58 439.55 C 148.72 441.43 148.88 443.34 149.49 445.73 C 150.09 448.11 151.12 451.51 153.21 453.88 C 155.30 456.24 159.00 458.11 162.04 459.93 C 165.08 461.75 167.32 463.17 171.44 464.80 C 175.55 466.42 181.19 468.74 186.74 469.70 C 192.30 470.67 198.91 470.55 204.77 470.59 C 210.63 470.63 216.70 470.40 221.88 469.95 C 227.06 469.51 230.52 469.22 235.85 467.92 C 241.19 466.63 247.76 464.09 253.90 462.18 C 260.03 460.28 266.26 458.82 272.68 456.49 C 279.11 454.17 287.04 450.87 292.43 448.24 C 297.83 445.60 300.31 443.47 305.06 440.68 C 309.81 437.90 315.89 435.45 320.93 431.53 C 325.96 427.61 330.68 422.47 335.26 417.16 C 339.84 411.86 344.80 405.10 348.41 399.71 C 352.03 394.33 354.13 390.14 356.97 384.84 C 359.81 379.55 363.09 374.48 365.45 367.92 C 367.81 361.36 370.34 353.26 371.13 345.49 C 371.91 337.71 370.73 328.52 370.18 321.28 C 369.62 314.03 369.53 308.71 367.81 302.02 C 366.10 295.33 362.83 288.03 359.89 281.13 C 356.94 274.23 353.62 267.28 350.14 260.62 C 346.66 253.96 342.37 246.94 339.01 241.17 C 335.64 235.39 333.11 231.11 329.94 225.95 C 326.78 220.80 322.89 215.67 320.02 210.22 C 317.16 204.78 314.67 198.55 312.74 193.27 C 310.81 188.00 309.74 183.55 308.45 178.59 C 307.16 173.63 306.00 167.92 305.02 163.50 C 304.05 159.09 302.98 156.09 302.61 152.08 C 302.23 148.07 302.61 143.27 302.78 139.44 C 302.95 135.62 302.88 132.69 303.61 129.12 C 304.34 125.54 305.98 121.24 307.16 118.01 C 308.34 114.78 309.59 112.42 310.70 109.71 C 311.82 107.00 312.65 104.56 313.84 101.74 C 315.03 98.92 316.03 95.69 317.84 92.78 C 319.64 89.87 322.95 86.70 324.65 84.28 C 326.34 81.86 326.72 80.43 328.00 78.25 C 329.28 76.07 330.95 73.48 332.34 71.20 C 333.73 68.92 335.27 66.57 336.33 64.56 C 337.38 62.55 337.47 60.73 338.67 59.15 C 339.86 57.58 341.87 56.20 343.52 55.12 C 345.18 54.04 346.37 53.11 348.60 52.67 C 350.83 52.23 354.09 52.64 356.91 52.46 C 359.72 52.29 362.49 51.44 365.50 51.61 C 368.52 51.77 371.97 52.59 375.01 53.43 C 378.04 54.27 380.85 55.98 383.72 56.65 C 386.58 57.32 389.88 57.23 392.21 57.44 C 394.55 57.65 396.47 58.24 397.72 57.89 C 398.97 57.55 399.32 56.41 399.70 55.36 C 400.09 54.32 399.94 53.08 400.05 51.62 C 400.17 50.15 400.77 48.44 400.40 46.57 C 400.02 44.71 399.15 42.37 397.79 40.45 C 396.43 38.52 394.20 36.63 392.24 35.03 C 390.27 33.44 388.72 32.62 386.02 30.88 C 383.33 29.13 380.26 26.24 376.07 24.55 C 371.88 22.85 366.63 21.65 360.88 20.72 C 355.13 19.78 347.41 19.09 341.59 18.91 C 335.76 18.74 332.19 18.84 325.93 19.67 C 319.67 20.50 311.26 21.64 304.01 23.88 C 296.77 26.12 289.18 30.10 282.46 33.11 C 275.74 36.12 269.33 38.90 263.69 41.96 C 258.04 45.03 254.17 47.52 248.60 51.48 C 243.03 55.45 235.92 60.63 230.26 65.75 C 224.61 70.87 219.91 76.77 214.66 82.20 C 209.41 87.64 202.99 92.94 198.77 98.37 C 194.55 103.79 192.84 108.52 189.32 114.75 C 185.81 120.99 180.97 128.83 177.67 135.79 C 174.38 142.75 172.46 149.55 169.54 156.50 C 166.61 163.44 162.37 171.18 160.13 177.46 C 157.89 183.75 157.86 188.03 156.12 194.21 C 154.37 200.38 151.42 207.80 149.66 214.49 C 147.89 221.18 146.98 228.39 145.53 234.33 C 144.07 240.27 142.62 244.80 140.94 250.14 C 139.26 255.48 136.83 261.75 135.46 266.37 C 134.08 270.99 134.14 273.95 132.70 277.86 C 131.26 281.77 128.67 285.87 126.81 289.84 C 124.94 293.80 123.57 298.49 121.50 301.65 C 119.43 304.82 116.65 306.80 114.37 308.84 C 112.10 310.89 110.05 311.72 107.86 313.92 C 105.66 316.13 103.65 319.74 101.20 322.08 C 98.74 324.43 95.73 326.40 93.14 328.01 C 90.55 329.62 87.98 330.51 85.65 331.72 C 83.33 332.94 81.26 334.46 79.19 335.30 C 77.13 336.15 75.44 336.60 73.26 336.79 C 71.08 336.98 68.43 337.05 66.09 336.44 C 63.76 335.83 61.33 334.61 59.24 333.12 C 57.14 331.62 55.75 329.78 53.52 327.48 C 51.28 325.17 48.07 322.19 45.84 319.27 C 43.60 316.36 41.60 313.59 40.10 309.99 C 38.60 306.38 38.11 301.13 36.86 297.64 C 35.61 294.14 33.81 292.17 32.59 289.02 C 31.37 285.86 30.50 282.05 29.52 278.73 C 28.54 275.40 27.78 272.08 26.73 269.06 C 25.67 266.04 24.23 263.16 23.20 260.59 C 22.18 258.03 21.50 255.72 20.56 253.68 C 19.61 251.65 18.67 249.65 17.53 248.39 C 16.38 247.13 15.02 246.45 13.68 246.12 C 12.35 245.79 10.79 245.52 9.50 246.42 C 8.22 247.31 6.93 249.37 5.98 251.49 C 5.02 253.60 4.33 256.09 3.77 259.11 C 3.21 262.12 2.72 265.81 2.62 269.58 C 2.52 273.35 2.97 277.77 3.19 281.72 C 3.42 285.68 3.54 289.61 3.97 293.32 C 4.40 297.03 5.12 300.07 5.77 303.98 C 6.42 307.90 7.08 312.94 7.86 316.81 C 8.63 320.68 9.72 323.92 10.41 327.20 C 11.10 330.48 11.47 333.89 11.98 336.50 C 12.48 339.11 13.39 340.86 13.44 342.85 C 13.48 344.84 12.91 347.30 12.25 348.44 C 11.59 349.57 10.59 349.66 9.47 349.67 C 8.36 349.68 7.03 349.32 5.57 348.48 C 4.11 347.64 -2.89 346.23 0.70 344.63 C 4.29 343.03 17.47 339.82 27.12 338.87 C 36.77 337.92 48.57 338.11 58.60 338.94 C 68.63 339.76 79.46 342.02 87.31 343.82 C 95.16 345.63 99.22 347.15 105.70 349.77 C 112.19 352.38 120.00 356.17 126.24 359.49 C 132.48 362.82 138.18 365.99 143.13 369.72 C 148.07 373.44 152.05 377.73 155.90 381.85 C 159.75 385.97 163.12 391.09 166.21 394.44 C 169.31 397.79 171.64 398.87 174.50 401.96 C 177.35 405.06 180.37 409.63 183.33 413.01 C 186.30 416.39 189.04 419.21 192.28 422.22 C 195.52 425.24 199.46 428.52 202.77 431.10 C 206.08 433.69 208.38 436.02 212.12 437.73 C 215.87 439.44 220.71 440.56 225.24 441.35 C 229.77 442.13 234.39 441.98 239.32 442.43 C 244.26 442.88 250.11 443.72 254.85 444.05 C 259.59 444.38 262.87 444.74 267.77 444.41 C 272.67 444.09 278.74 443.65 284.25 442.10 C 289.77 440.54 295.48 437.92 300.84 435.06 C 306.20 432.21 311.66 428.35 316.43 424.99 C 321.21 421.63 325.06 418.87 329.48 414.89 C 333.91 410.92 338.80 406.05 342.96 401.14 C 347.12 396.24 351.16 391.14 354.43 385.47 C 357.69 379.80 360.36 373.14 362.54 367.13 C 364.73 361.11 366.07 356.14 367.55 349.39 C 369.04 342.64 370.59 334.03 371.44 326.63 C 372.29 319.23 373.08 312.13 372.66 305.00 C 372.24 297.87 370.07 290.91 368.90 283.84 C 367.73 276.77 366.63 268.75 365.62 262.58 C 364.61 256.41 363.83 252.39 362.84 246.81 C 361.86 241.22 360.98 235.00 359.70 229.07 C 358.42 223.14 356.16 216.77 355.18 211.22 C 354.19 205.68 353.84 200.28 353.81 195.82 C 353.79 191.35 354.34 188.56 355.04 184.46 C 355.74 180.36 357.36 175.44 358.04 171.22 C 358.72 167.00 359.08 163.15 359.13 159.15 C 359.18 155.15 358.60 151.00 358.34 147.24 C 358.08 143.47 358.29 140.51 357.59 136.56 C 356.88 132.61 355.50 127.65 354.13 123.54 C 352.76 119.43 351.35 115.49 349.35 111.90 C 347.34 108.31 343.92 105.10 342.12 102.02 C 340.31 98.94 340.03 96.41 338.50 93.42 C 336.97 90.43 334.76 87.06 332.93 84.09 C 331.09 81.12 329.03 78.52 327.49 75.61 C 325.95 72.69 324.16 69.09 323.69 66.60 C 323.23 64.11 324.21 62.85 324.71 60.67 C 325.22 58.49 325.76 56.08 326.71 53.53 C 327.66 50.97 329.02 47.45 330.40 45.33 C 331.78 43.22 333.38 42.11 334.99 40.84 C 336.60 39.57 338.02 38.67 340.07 37.71 C 342.12 36.75 345.25 36.07 347.29 35.08 C 349.33 34.08 350.70 32.66 352.32 31.74 C 353.94 30.81 355.40 29.92 357.01 29.53 C 358.61 29.13 360.34 29.78 361.95 29.37 C 363.55 28.95 365.42 27.66 366.62 27.05 C 367.82 26.43 368.76 26.74 369.14 25.68 C 369.53 24.62 369.12 22.21 368.94 20.71 C 368.77 19.20 368.83 18.07 368.10 16.65 C 367.38 15.23 366.02 13.58 364.59 12.21 C 363.16 10.84 362.18 9.89 359.54 8.41 C 356.89 6.92 352.44 3.57 348.71 3.31 C 344.99 3.06 340.56 1.83 337.18 6.89 C 333.80 11.95 331.11 23.88 328.45 33.67 C 325.79 43.46 322.63 55.30 321.21 65.64 C 319.79 75.98 319.75 86.13 319.94 95.71 C 320.13 105.30 321.43 115.18 322.35 123.14 C 323.27 131.11 323.69 136.37 325.46 143.49 C 327.22 150.62 330.01 159.45 332.94 165.89 C 335.87 172.34 339.11 177.49 343.04 182.16 C 346.97 186.83 352.64 191.22 356.50 193.90 C 360.37 196.59 362.80 197.55 366.22 198.28 C 369.64 199.01 373.31 198.68 377.01 198.30 C 380.72 197.92 385.50 197.91 388.45 196.01 C 391.40 194.11 392.88 190.17 394.71 186.91 C 396.54 183.65 398.37 179.71 399.42 176.43 C 400.47 173.15 401.16 171.00 401.03 167.21 C 400.91 163.43 399.99 158.02 398.68 153.71 C 397.38 149.39 395.79 145.29 393.21 141.32 C 390.63 137.36 386.44 133.49 383.20 129.94 C 379.96 126.39 377.49 123.20 373.75 120.03 C 370.00 116.86 364.88 114.04 360.72 110.92 C 356.57 107.80 352.79 104.60 348.81 101.30 C 344.84 97.99 340.11 93.87 336.87 91.08 C 333.62 88.29 331.52 87.23 329.34 84.54 C 327.16 81.85 325.02 77.58 323.77 74.92 C 322.53 72.26 321.86 70.70 321.87 68.58 C 321.89 66.47 322.80 64.04 323.89 62.23 C 324.97 60.42 326.16 59.10 328.38 57.74 C 330.60 56.38 334.23 54.56 337.22 54.05 C 340.20 53.54 342.84 53.92 346.28 54.69 C 349.72 55.46 354.10 56.94 357.86 58.68 C 361.62 60.41 364.77 62.13 368.85 65.09 C 372.92 68.06 378.14 72.20 382.32 76.46 C 386.50 80.72 390.38 85.30 393.92 90.68 C 397.46 96.05 401.18 102.87 403.58 108.70 C 405.97 114.52 407.01 119.14 408.31 125.65 C 409.60 132.15 410.94 140.09 411.34 147.71 C 411.74 155.33 411.57 163.83 410.69 171.36 C 409.82 178.88 408.14 185.46 406.09 192.86 C 404.05 200.25 401.65 208.99 398.43 215.75 C 395.21 222.51 391.48 227.33 386.75 233.42 C 382.03 239.50 375.82 246.28 370.08 252.27 C 364.35 258.25 358.02 263.97 352.34 269.33 C 346.66 274.68 341.21 280.36 335.99 284.38 C 330.77 288.40 326.84 290.28 321.03 293.44 C 315.21 296.60 307.37 300.38 301.10 303.35 C 294.83 306.32 289.30 308.68 283.38 311.25 C 277.47 313.81 270.77 316.43 265.63 318.74 C 260.48 321.05 257.20 322.74 252.52 325.10 C 247.83 327.46 242.37 330.26 237.52 332.90 C 232.67 335.55 227.80 338.41 223.40 340.97 C 219.00 343.52 214.41 345.85 211.14 348.23 C 207.87 350.62 205.99 352.18 203.77 355.29 C 201.56 358.40 199.02 362.85 197.85 366.92 C 196.69 371.00 196.79 375.51 196.77 379.74 C 196.76 383.97 196.90 388.67 197.77 392.28 C 198.63 395.89 200.19 398.19 201.98 401.41 C 203.77 404.62 206.29 408.41 208.49 411.58 C 210.70 414.75 212.82 417.63 215.22 420.44 C 217.61 423.26 219.96 425.60 222.86 428.47 C 225.77 431.34 230.30 435.29 232.63 437.67 C 234.97 440.05 235.48 440.52 236.87 442.75 C 238.25 444.98 239.79 448.50 240.93 451.05 C 242.07 453.60 243.10 455.86 243.71 458.07 C 244.31 460.27 244.74 462.62 244.56 464.29 C 244.38 465.96 243.99 466.89 242.65 468.07 C 241.31 469.25 238.92 470.28 236.51 471.37 C 234.10 472.46 231.27 473.84 228.18 474.59 C 225.09 475.34 221.29 475.89 217.95 475.88 C 214.61 475.87 212.11 475.24 208.14 474.51 C 204.16 473.77 199.04 473.42 194.10 471.46 C 189.15 469.50 183.37 466.12 178.46 462.76 C 173.54 459.40 168.72 455.35 164.62 451.29 C 160.53 447.22 157.59 443.51 153.88 438.40 C 150.17 433.28 145.84 427.05 142.35 420.59 C 138.86 414.13 135.43 407.16 132.91 399.65 C 130.40 392.14 128.56 382.90 127.26 375.51 C 125.96 368.12 125.47 362.64 125.10 355.32 C 124.73 347.99 124.36 339.35 125.03 331.57 C 125.69 323.80 127.85 316.12 129.11 308.68 C 130.37 301.24 131.41 293.44 132.61 286.94 C 133.80 280.43 134.82 275.60 136.30 269.64 C 137.78 263.68 139.25 257.61 141.48 251.15 C 143.71 244.70 147.41 237.05 149.69 230.92 C 151.97 224.78 153.29 220.01 155.17 214.36 C 157.04 208.70 159.56 202.13 160.93 196.98 C 162.31 191.82 162.59 188.25 163.44 183.42 C 164.29 178.59 166.02 172.34 166.04 168.00 C 166.07 163.67 164.97 160.89 163.61 157.41 C 162.24 153.94 159.63 149.86 157.88 147.16 C 156.13 144.45 155.39 142.84 153.11 141.19 C 150.83 139.54 147.35 138.32 144.21 137.25 C 141.07 136.18 137.84 135.13 134.28 134.76 C 130.72 134.40 126.22 134.67 122.83 135.05 C 119.44 135.42 117.01 136.05 113.94 137.00 C 110.87 137.94 107.54 139.26 104.41 140.73 C 101.29 142.19 98.00 143.96 95.21 145.78 C 92.41 147.59 90.27 149.75 87.62 151.61 C 84.97 153.47 81.91 154.68 79.31 156.93 C 76.71 159.17 74.54 162.74 72.01 165.08 C 69.48 167.41 66.59 169.02 64.11 170.94 C 61.63 172.86 59.19 174.72 57.13 176.58 C 55.08 178.43 53.96 179.98 51.78 182.07 C 49.60 184.16 46.06 186.75 44.06 189.12 C 42.07 191.50 42.06 192.19 39.81 196.32 C 37.57 200.44 32.13 210.93 30.60 213.86" fill="none" stroke="#fff" stroke-width="4.48" stroke-opacity="1" stroke-linecap="round" stroke-linejoin="round"/>
  </g>
</svg>