<?xml version="1.0" encoding="UTF-8"?>
<svg xmlns="http://www.w3.org/2000/svg" width="512" height="512" viewBox="0 0 512 512">
  <rect width="100%" height="100%" fill="#000"/>
  <g>
    <path d="M 256.00 256.00 C 257.91 256.25 263.04 257.48 267.48 257.48 C 271.92 257.47 277.77 256.89 282.61 255.97 C 287.46 255.04 292.17 253.65 296.55 251.93 C 300.93 250.21 305.11 248.11 308.90 245.65 C 312.70 243.20 316.28 240.32 319.32 237.19 C 322.36 234.05 324.96 230.50 327.15 226.82 C 329.34 223.14 331.25 218.61 332.47 215.08 C 333.69 211.56 334.35 209.45 334.47 205.68 C 334.60 201.90 334.19 196.77 333.22 192.43 C 332.26 188.09 330.55 183.70 328.70 179.64 C 326.85 175.58 324.69 171.74 322.11 168.06 C 319.53 164.38 316.46 160.73 313.22 157.54 C 309.98 154.35 306.53 151.47 302.66 148.92 C 298.79 146.37 294.52 144.08 290.02 142.24 C 285.51 140.41 279.87 138.93 275.64 137.91 C 271.41 136.88 268.91 136.52 264.64 136.10 C 260.37 135.68 254.93 135.29 250.03 135.38 C 245.13 135.47 240.13 135.76 235.24 136.65 C 230.35 137.54 225.45 139.01 220.69 140.72 C 215.93 142.43 211.07 144.27 206.68 146.93 C 202.29 149.58 198.12 152.90 194.34 156.66 C 190.57 160.41 187.11 164.86 184.03 169.45 C 180.95 174.03 177.99 179.77 175.88 184.17 C 173.77 188.56 172.70 191.14 171.38 195.81 C 170.06 200.48 168.60 206.65 167.96 212.18 C 167.32 217.72 166.95 223.42 167.53 229.00 C 168.12 234.58 169.52 240.31 171.46 245.67 C 173.41 251.02 175.97 256.37 179.21 261.13 C 182.45 265.89 186.59 270.38 190.88 274.21 C 195.18 278.03 200.64 281.57 204.96 284.08 C 209.29 286.58 212.10 287.86 216.82 289.24 C 221.54 290.62 227.77 292.09 233.28 292.36 C 238.79 292.64 244.60 292.10 249.89 290.88 C 255.18 289.66 260.37 287.64 265.04 285.07 C 269.70 282.49 274.21 279.14 277.85 275.42 C 281.50 271.70 284.55 267.26 286.91 262.75 C 289.27 258.24 290.63 253.18 292.02 248.33 C 293.41 243.49 294.59 237.92 295.24 233.67 C 295.89 229.43 295.84 227.01 295.94 222.86 C 296.04 218.72 296.12 213.39 295.83 208.81 C 295.54 204.23 294.96 199.76 294.20 195.37 C 293.44 190.99 292.21 186.70 291.27 182.51 C 290.33 178.32 289.46 174.23 288.55 170.22 C 287.64 166.22 286.51 162.32 285.82 158.48 C 285.14 154.63 284.85 150.82 284.45 147.16 C 284.06 143.49 283.61 139.55 283.43 136.49 C 283.26 133.43 283.22 131.72 283.40 128.79 C 283.58 125.86 284.07 122.10 284.51 118.92 C 284.94 115.75 285.70 112.78 286.02 109.74 C 286.33 106.71 286.33 103.64 286.41 100.71 C 286.50 97.79 286.47 95.01 286.53 92.21 C 286.60 89.40 286.70 86.56 286.79 83.91 C 286.89 81.26 287.21 78.52 287.10 76.30 C 287.00 74.08 286.63 72.76 286.14 70.58 C 285.65 68.39 284.91 65.56 284.18 63.19 C 283.46 60.81 282.69 58.56 281.79 56.32 C 280.89 54.09 279.88 51.86 278.77 49.77 C 277.65 47.67 276.07 45.79 275.11 43.75 C 274.14 41.71 273.23 39.53 272.98 37.54 C 272.74 35.54 273.14 33.64 273.63 31.78 C 274.12 29.92 275.18 27.89 275.94 26.37 C 276.70 24.86 277.18 24.05 278.20 22.71 C 279.21 21.37 280.49 19.65 282.04 18.33 C 283.59 17.01 285.59 15.85 287.49 14.78 C 289.39 13.72 291.39 12.84 293.43 11.95 C 295.48 11.05 297.66 10.22 299.74 9.42 C 301.82 8.62 303.92 7.88 305.89 7.13 C 307.86 6.38 309.88 5.75 311.55 4.91 C 313.22 4.06 314.65 2.87 315.91 2.07 C 317.16 1.26 317.83 -2.73 319.10 0.09 C 320.37 2.91 321.95 11.85 323.52 19.00 C 325.09 26.16 326.95 35.17 328.52 43.02 C 330.09 50.87 331.49 58.62 332.92 66.11 C 334.36 73.60 335.61 80.92 337.13 87.99 C 338.64 95.05 340.23 102.00 342.04 108.48 C 343.84 114.97 346.21 121.62 347.96 126.92 C 349.71 132.23 350.72 135.38 352.55 140.30 C 354.38 145.23 356.69 151.32 358.93 156.48 C 361.18 161.65 363.43 166.91 366.02 171.30 C 368.61 175.69 371.52 179.42 374.47 182.83 C 377.43 186.24 380.61 189.26 383.73 191.76 C 386.84 194.26 390.07 196.01 393.18 197.83 C 396.30 199.65 399.37 201.28 402.40 202.69 C 405.44 204.11 408.80 205.53 411.39 206.31 C 413.99 207.09 415.51 207.21 417.98 207.37 C 420.45 207.54 423.67 207.84 426.24 207.31 C 428.80 206.77 431.30 205.69 433.36 204.17 C 435.42 202.65 437.15 200.50 438.59 198.19 C 440.03 195.88 441.15 193.13 442.00 190.31 C 442.86 187.48 443.53 184.42 443.72 181.25 C 443.91 178.08 443.58 174.67 443.14 171.29 C 442.69 167.90 441.65 163.91 441.04 160.93 C 440.44 157.94 440.06 156.24 439.50 153.37 C 438.95 150.50 438.23 146.85 437.72 143.70 C 437.20 140.56 436.59 137.36 436.41 134.49 C 436.22 131.62 436.26 128.85 436.60 126.47 C 436.93 124.10 437.69 122.15 438.44 120.24 C 439.18 118.34 440.06 116.60 441.06 115.05 C 442.05 113.50 443.09 111.95 444.41 110.95 C 445.73 109.95 447.52 109.34 448.98 109.06 C 450.45 108.79 451.48 108.99 453.18 109.30 C 454.88 109.62 457.18 110.34 459.18 110.94 C 461.17 111.54 463.21 112.20 465.14 112.88 C 467.08 113.56 468.91 114.20 470.80 115.01 C 472.69 115.82 474.59 116.56 476.48 117.73 C 478.37 118.89 480.28 120.53 482.13 122.01 C 483.98 123.48 486.03 125.11 487.59 126.58 C 489.15 128.06 490.01 129.31 491.51 130.87 C 493.02 132.43 495.01 134.38 496.63 135.94 C 498.25 137.50 499.77 139.27 501.23 140.23 C 502.68 141.20 504.07 141.57 505.36 141.73 C 506.66 141.90 507.93 141.57 509.01 141.24 C 510.09 140.91 514.61 140.28 511.85 139.77 C 509.09 139.26 499.96 138.24 492.45 138.18 C 484.94 138.12 474.19 138.79 466.81 139.43 C 459.43 140.06 455.27 140.79 448.17 141.99 C 441.06 143.19 431.99 144.80 424.16 146.62 C 416.33 148.44 408.52 150.31 401.20 152.90 C 393.87 155.49 386.97 158.84 380.21 162.15 C 373.44 165.45 366.88 169.02 360.60 172.73 C 354.32 176.44 348.17 180.22 342.53 184.39 C 336.90 188.57 331.69 193.20 326.79 197.78 C 321.90 202.36 316.80 207.64 313.16 211.89 C 309.53 216.14 307.58 218.70 304.99 223.30 C 302.40 227.90 299.58 234.10 297.61 239.49 C 295.64 244.89 294.30 250.37 293.17 255.68 C 292.04 260.98 291.26 266.24 290.83 271.33 C 290.40 276.41 290.28 281.45 290.57 286.21 C 290.87 290.97 291.39 295.64 292.59 299.90 C 293.80 304.17 296.08 308.54 297.82 311.82 C 299.56 315.10 300.65 316.92 303.04 319.58 C 305.44 322.24 308.89 325.54 312.18 327.76 C 315.46 329.98 319.03 331.72 322.76 332.91 C 326.48 334.10 330.56 334.84 334.51 334.88 C 338.46 334.92 342.57 334.49 346.43 333.15 C 350.29 331.82 354.17 329.55 357.66 326.86 C 361.15 324.17 364.56 320.74 367.36 317.01 C 370.16 313.27 372.65 308.30 374.47 304.47 C 376.28 300.65 377.18 298.28 378.26 294.06 C 379.34 289.84 380.66 284.28 380.96 279.15 C 381.26 274.02 381.05 268.61 380.07 263.29 C 379.09 257.97 377.33 252.41 375.08 247.24 C 372.84 242.06 369.93 236.84 366.59 232.23 C 363.25 227.61 359.20 223.47 355.03 219.53 C 350.86 215.59 346.37 211.82 341.58 208.60 C 336.79 205.38 330.87 202.35 326.27 200.21 C 321.68 198.07 318.90 197.02 314.01 195.77 C 309.13 194.53 302.67 193.13 296.97 192.76 C 291.26 192.39 285.41 192.69 279.78 193.55 C 274.15 194.42 268.51 196.11 263.20 197.93 C 257.88 199.74 252.70 201.81 247.89 204.44 C 243.08 207.08 238.49 210.31 234.34 213.74 C 230.18 217.18 225.93 221.53 222.97 225.07 C 220.01 228.61 218.51 230.91 216.56 235.01 C 214.61 239.11 212.52 244.70 211.27 249.65 C 210.01 254.60 209.40 259.71 209.02 264.71 C 208.64 269.72 208.75 274.77 208.99 279.68 C 209.24 284.59 209.94 289.45 210.49 294.18 C 211.04 298.92 211.75 303.58 212.29 308.07 C 212.83 312.56 213.27 316.84 213.73 321.14 C 214.18 325.44 214.67 330.23 215.02 333.86 C 215.37 337.49 215.67 339.46 215.82 342.91 C 215.97 346.36 216.06 350.80 215.92 354.56 C 215.78 358.32 215.53 361.98 214.99 365.47 C 214.44 368.96 213.60 372.29 212.64 375.48 C 211.68 378.67 210.75 381.79 209.23 384.60 C 207.72 387.41 205.61 389.95 203.57 392.33 C 201.53 394.72 199.35 396.93 196.97 398.90 C 194.59 400.88 191.59 402.72 189.29 404.20 C 186.98 405.68 185.60 406.68 183.12 407.79 C 180.65 408.90 177.44 410.06 174.43 410.88 C 171.43 411.69 168.35 412.45 165.10 412.69 C 161.84 412.94 158.35 412.76 154.93 412.36 C 151.50 411.96 147.90 411.05 144.55 410.29 C 141.19 409.54 138.07 409.01 134.79 407.82 C 131.51 406.64 127.73 404.77 124.84 403.18 C 121.96 401.59 120.28 400.32 117.48 398.30 C 114.68 396.28 111.04 393.78 108.02 391.06 C 105.01 388.35 102.09 385.43 99.40 381.99 C 96.72 378.55 94.22 374.47 91.92 370.44 C 89.62 366.41 87.52 362.14 85.60 357.82 C 83.68 353.50 82.00 349.01 80.38 344.52 C 78.76 340.04 77.23 335.53 75.90 330.90 C 74.57 326.28 73.34 320.83 72.41 316.75 C 71.48 312.66 70.98 310.44 70.32 306.38 C 69.67 302.31 69.16 296.91 68.50 292.35 C 67.84 287.79 66.94 283.43 66.35 279.04 C 65.77 274.64 65.57 270.13 64.97 265.99 C 64.37 261.86 63.55 258.03 62.75 254.24 C 61.94 250.45 61.05 246.71 60.15 243.26 C 59.25 239.81 58.49 236.41 57.33 233.56 C 56.17 230.71 54.49 228.18 53.19 226.17 C 51.89 224.16 50.91 223.22 49.54 221.49 C 48.17 219.76 46.59 217.30 44.97 215.80 C 43.35 214.29 41.60 213.14 39.81 212.44 C 38.01 211.74 36.05 211.54 34.21 211.59 C 32.36 211.65 30.54 211.89 28.74 212.77 C 26.93 213.66 25.05 215.26 23.38 216.89 C 21.71 218.53 20.08 220.34 18.70 222.58 C 17.32 224.82 16.08 227.91 15.08 230.32 C 14.09 232.73 13.47 234.29 12.75 237.03 C 12.03 239.77 11.39 243.58 10.76 246.75 C 10.13 249.92 9.63 253.09 8.96 256.04 C 8.29 258.99 7.56 261.88 6.73 264.46 C 5.89 267.05 4.88 269.30 3.97 271.54 C 3.05 273.79 0.85 275.79 1.25 277.92 C 1.66 280.05 2.47 282.36 6.38 284.32 C 10.29 286.29 17.94 287.42 24.73 289.72 C 31.52 292.01 39.89 295.30 47.13 298.09 C 54.37 300.88 61.35 303.67 68.17 306.47 C 75.00 309.27 81.67 312.13 88.08 314.91 C 94.49 317.70 100.69 320.42 106.65 323.20 C 112.61 325.97 118.07 328.98 123.84 331.57 C 129.62 334.16 135.56 336.47 141.29 338.72 C 147.02 340.96 153.30 343.32 158.24 345.05 C 163.19 346.77 166.04 347.73 170.97 349.06 C 175.91 350.40 182.27 351.77 187.83 353.05 C 193.39 354.32 198.93 355.57 204.35 356.71 C 209.76 357.85 215.15 358.77 220.31 359.88 C 225.48 361.00 230.50 362.18 235.35 363.42 C 240.20 364.66 244.95 365.94 249.43 367.34 C 253.91 368.75 258.04 370.39 262.21 371.84 C 266.38 373.29 271.03 374.74 274.44 376.05 C 277.84 377.37 279.67 378.16 282.65 379.73 C 285.63 381.31 289.48 383.41 292.30 385.52 C 295.12 387.62 297.38 389.99 299.58 392.34 C 301.77 394.69 303.65 397.17 305.47 399.62 C 307.29 402.08 308.96 404.60 310.49 407.08 C 312.02 409.56 313.22 412.15 314.63 414.52 C 316.03 416.90 317.75 419.36 318.91 421.35 C 320.08 423.33 320.54 424.49 321.61 426.45 C 322.67 428.41 323.96 431.00 325.29 433.08 C 326.62 435.16 327.96 437.18 329.56 438.91 C 331.17 440.64 332.93 442.12 334.92 443.48 C 336.91 444.84 339.05 446.26 341.49 447.06 C 343.94 447.86 346.77 448.09 349.59 448.30 C 352.41 448.50 355.51 448.37 358.43 448.27 C 361.34 448.18 364.61 447.89 367.08 447.73 C 369.56 447.58 370.94 447.43 373.28 447.33 C 375.62 447.23 378.53 447.17 381.10 447.12 C 383.67 447.07 386.40 446.83 388.70 447.04 C 390.99 447.25 393.08 447.76 394.89 448.37 C 396.70 448.98 398.33 449.65 399.58 450.68 C 400.83 451.71 401.88 453.05 402.39 454.57 C 402.89 456.09 402.74 458.03 402.60 459.80 C 402.47 461.57 402.06 463.61 401.59 465.20 C 401.12 466.80 400.71 467.72 399.78 469.40 C 398.86 471.08 397.39 473.37 396.03 475.29 C 394.67 477.20 392.92 479.06 391.64 480.90 C 390.35 482.73 389.16 484.59 388.32 486.29 C 387.49 487.99 387.07 489.57 386.62 491.08 C 386.17 492.58 385.68 494.04 385.63 495.33 C 385.58 496.62 386.02 497.83 386.31 498.79 C 386.61 499.76 386.83 500.36 387.41 501.12 C 388.00 501.89 388.83 502.78 389.81 503.39 C 390.79 504.00 391.91 504.58 393.29 504.80 C 394.67 505.03 396.28 505.02 398.09 504.77 C 399.90 504.52 401.94 504.06 404.13 503.28 C 406.32 502.51 408.76 501.64 411.24 500.12 C 413.73 498.61 416.37 496.64 419.05 494.20 C 421.73 491.76 424.94 488.07 427.32 485.49 C 429.70 482.92 431.07 481.52 433.35 478.75 C 435.63 475.99 438.52 472.42 441.00 468.90 C 443.48 465.39 445.95 461.72 448.24 457.66 C 450.53 453.61 452.72 449.18 454.72 444.56 C 456.72 439.94 458.70 435.11 460.26 429.94 C 461.82 424.77 463.15 419.27 464.09 413.54 C 465.02 407.81 465.52 401.63 465.86 395.55 C 466.21 389.47 466.25 382.46 466.17 377.06 C 466.08 371.67 465.79 368.53 465.36 363.17 C 464.94 357.81 464.38 351.00 463.61 344.89 C 462.84 338.79 462.08 332.63 460.72 326.55 C 459.37 320.47 457.79 314.40 455.48 308.43 C 453.16 302.45 450.12 296.50 446.83 290.69 C 443.54 284.87 439.84 278.94 435.73 273.55 C 431.62 268.15 426.44 262.47 422.18 258.31 C 417.93 254.14 415.27 251.86 410.22 248.54 C 405.17 245.23 398.15 241.31 391.87 238.43 C 385.58 235.54 379.06 233.02 372.50 231.25 C 365.94 229.48 359.13 228.24 352.49 227.80 C 345.84 227.36 339.02 227.67 332.63 228.59 C 326.24 229.51 319.88 231.07 314.15 233.31 C 308.43 235.56 302.96 238.60 298.28 242.06 C 293.61 245.53 289.16 250.32 286.09 254.08 C 283.03 257.84 281.82 260.46 279.91 264.63 C 278.00 268.81 275.59 274.28 274.62 279.14 C 273.65 284.00 273.43 289.23 274.10 293.81 C 274.76 298.40 276.64 302.71 278.62 306.65 C 280.60 310.59 283.00 314.45 285.99 317.45 C 288.98 320.44 292.78 322.90 296.56 324.63 C 300.33 326.36 304.47 327.33 308.65 327.85 C 312.84 328.36 317.90 327.98 321.65 327.74 C 325.40 327.51 327.53 327.12 331.14 326.46 C 334.75 325.81 339.34 324.70 343.30 323.81 C 347.26 322.92 351.08 321.96 354.88 321.12 C 358.68 320.28 362.50 319.51 366.11 318.78 C 369.73 318.04 373.17 317.31 376.58 316.70 C 379.99 316.09 383.28 315.47 386.58 315.12 C 389.87 314.76 393.17 314.72 396.33 314.56 C 399.49 314.40 402.95 314.25 405.56 314.15 C 408.17 314.05 409.53 313.94 411.98 313.97 C 414.43 314.00 417.53 314.33 420.25 314.33 C 422.97 314.33 425.64 314.34 428.30 313.96 C 430.96 313.58 433.67 312.93 436.21 312.07 C 438.76 311.21 441.22 310.25 443.58 308.80 C 445.94 307.35 448.25 305.39 450.38 303.38 C 452.52 301.37 454.73 298.90 456.41 296.72 C 458.08 294.55 458.96 292.84 460.43 290.31 C 461.89 287.78 463.76 284.52 465.20 281.55 C 466.64 278.57 467.82 275.55 469.06 272.47 C 470.31 269.40 471.63 266.25 472.67 263.08 C 473.70 259.90 474.45 256.64 475.29 253.41 C 476.13 250.18 476.88 246.84 477.69 243.69 C 478.50 240.53 479.19 237.25 480.14 234.50 C 481.09 231.75 482.43 229.22 483.40 227.19 C 484.38 225.17 484.85 223.93 485.98 222.36 C 487.10 220.79 488.72 219.06 490.14 217.77 C 491.57 216.49 493.04 215.53 494.51 214.67 C 495.98 213.81 497.47 213.13 498.95 212.63 C 500.44 212.12 501.97 211.97 503.41 211.65 C 504.84 211.32 506.19 211.03 507.57 210.69 C 508.95 210.35 514.35 209.99 511.69 209.61 C 509.03 209.24 498.21 208.73 491.59 208.43 C 484.96 208.14 479.39 207.95 471.93 207.84 C 464.47 207.73 454.99 207.42 446.82 207.76 C 438.66 208.11 430.73 209.00 422.95 209.91 C 415.17 210.82 407.61 212.10 400.14 213.21 C 392.68 214.31 385.29 215.21 378.16 216.53 C 371.04 217.84 364.16 219.48 357.38 221.10 C 350.61 222.71 343.21 224.83 337.50 226.22 C 331.78 227.61 328.54 228.16 323.08 229.43 C 317.61 230.70 310.70 232.54 304.71 233.84 C 298.72 235.14 292.86 236.14 287.13 237.22 C 281.39 238.30 275.76 239.28 270.30 240.30 C 264.84 241.32 259.55 242.37 254.34 243.35 C 249.14 244.33 244.04 245.24 239.07 246.19 C 234.11 247.13 229.24 247.84 224.54 249.03 C 219.84 250.21 214.77 251.89 210.88 253.28 C 206.99 254.66 204.77 255.62 201.22 257.32 C 197.67 259.02 193.26 261.17 189.57 263.49 C 185.89 265.81 182.37 268.52 179.13 271.25 C 175.88 273.99 172.73 276.79 170.11 279.93 C 167.48 283.06 165.32 286.51 163.36 290.07 C 161.41 293.62 159.78 297.49 158.39 301.25 C 157.01 305.01 155.81 308.74 155.06 312.63 C 154.30 316.52 154.03 321.10 153.86 324.61 C 153.69 328.11 153.62 330.18 154.05 333.64 C 154.48 337.11 155.51 341.52 156.47 345.38 C 157.42 349.24 158.76 353.09 159.76 356.81 C 160.75 360.52 161.82 364.15 162.42 367.65 C 163.02 371.16 163.18 374.53 163.37 377.83 C 163.56 381.13 163.59 384.31 163.56 387.44 C 163.53 390.57 163.24 393.97 163.19 396.60 C 163.14 399.23 163.28 400.71 163.27 403.22 C 163.26 405.73 163.07 408.88 163.14 411.66 C 163.21 414.44 163.27 417.18 163.67 419.91 C 164.07 422.64 164.61 425.32 165.53 428.01 C 166.45 430.70 167.66 433.43 169.17 436.03 C 170.68 438.63 172.69 441.13 174.59 443.60 C 176.48 446.07 178.35 448.58 180.55 450.84 C 182.76 453.09 185.41 455.41 187.81 457.12 C 190.21 458.84 191.87 459.85 194.95 461.13 C 198.02 462.41 202.27 463.84 206.26 464.79 C 210.25 465.75 214.37 466.60 218.89 466.85 C 223.41 467.10 228.43 466.99 233.38 466.31 C 238.33 465.64 243.48 464.49 248.60 462.81 C 253.71 461.14 258.93 458.79 264.07 456.24 C 269.21 453.70 274.47 450.86 279.45 447.54 C 284.42 444.22 289.90 439.97 293.90 436.32 C 297.90 432.68 299.97 430.04 303.43 425.65 C 306.89 421.26 311.29 415.46 314.66 409.99 C 318.03 404.51 320.84 398.56 323.65 392.79 C 326.45 387.02 329.14 381.17 331.48 375.36 C 333.81 369.56 335.77 363.77 337.67 357.96 C 339.56 352.15 341.22 346.22 342.85 340.51 C 344.47 334.79 346.14 328.53 347.41 323.67 C 348.67 318.81 349.14 315.95 350.45 311.36 C 351.76 306.76 353.57 300.97 355.24 296.11 C 356.92 291.26 358.62 286.57 360.51 282.23 C 362.40 277.88 364.36 273.84 366.58 270.03 C 368.81 266.23 371.44 262.66 373.86 259.39 C 376.29 256.13 378.71 253.34 381.12 250.44 C 383.54 247.54 386.08 244.90 388.35 241.99 C 390.62 239.09 392.87 235.52 394.73 233.01 C 396.60 230.50 397.66 229.15 399.55 226.92 C 401.45 224.69 403.96 221.96 406.12 219.64 C 408.28 217.33 410.40 215.19 412.53 213.04 C 414.66 210.88 416.96 208.88 418.91 206.69 C 420.86 204.50 422.68 202.28 424.23 199.89 C 425.78 197.50 426.95 194.91 428.21 192.34 C 429.47 189.77 430.68 187.05 431.80 184.47 C 432.93 181.90 434.03 179.09 434.97 176.90 C 435.91 174.72 436.38 173.36 437.42 171.37 C 438.47 169.37 439.81 166.72 441.22 164.91 C 442.62 163.11 444.24 161.75 445.87 160.55 C 447.50 159.35 449.12 158.38 451.00 157.74 C 452.87 157.09 455.03 156.72 457.12 156.67 C 459.21 156.63 461.37 156.70 463.52 157.48 C 465.68 158.26 467.95 159.80 470.05 161.36 C 472.15 162.92 474.43 164.99 476.12 166.83 C 477.81 168.67 478.75 169.95 480.18 172.39 C 481.61 174.82 483.44 177.94 484.69 181.42 C 485.95 184.90 487.03 189.07 487.70 193.27 C 488.37 197.47 488.93 201.84 488.71 206.64 C 488.50 211.43 487.66 216.76 486.39 222.03 C 485.12 227.30 483.66 232.83 481.11 238.24 C 478.57 243.65 474.51 249.89 471.12 254.50 C 467.73 259.11 465.22 261.76 460.79 265.90 C 456.35 270.04 450.18 275.21 444.50 279.34 C 438.83 283.47 432.93 287.35 426.74 290.70 C 420.55 294.05 413.95 296.92 407.38 299.46 C 400.80 302.01 394.02 304.24 387.30 305.99 C 380.57 307.73 373.80 309.17 367.02 309.93 C 360.23 310.69 353.24 310.94 346.60 310.52 C 339.96 310.11 332.75 308.63 327.17 307.42 C 321.59 306.22 318.33 305.08 313.09 303.30 C 307.84 301.52 301.21 299.30 295.70 296.73 C 290.20 294.16 285.05 290.92 280.07 287.88 C 275.08 284.84 270.44 281.66 265.80 278.51 C 261.16 275.37 256.65 272.10 252.22 269.02 C 247.79 265.94 243.52 262.79 239.21 260.04 C 234.90 257.30 230.64 254.85 226.35 252.55 C 222.07 250.26 217.25 247.93 213.49 246.28 C 209.73 244.64 207.56 243.71 203.81 242.66 C 200.05 241.61 195.18 240.46 190.96 239.98 C 186.73 239.50 182.57 239.55 178.47 239.78 C 174.38 240.00 170.32 240.88 166.38 241.35 C 162.45 241.82 158.64 242.34 154.86 242.60 C 151.08 242.86 147.33 242.84 143.70 242.90 C 140.07 242.96 136.11 243.01 133.08 242.95 C 130.06 242.89 128.37 242.86 125.54 242.53 C 122.71 242.20 119.13 241.76 116.10 240.98 C 113.07 240.21 110.16 239.20 107.35 237.89 C 104.54 236.59 101.68 235.06 99.23 233.16 C 96.78 231.25 94.68 228.78 92.64 226.46 C 90.60 224.14 88.65 221.83 87.00 219.24 C 85.35 216.66 83.75 214.05 82.72 210.95 C 81.69 207.86 80.99 203.84 80.84 200.66 C 80.68 197.48 80.85 195.41 81.79 191.87 C 82.72 188.34 84.24 183.56 86.43 179.47 C 88.63 175.37 91.73 171.16 94.95 167.29 C 98.18 163.41 101.92 159.72 105.80 156.21 C 109.67 152.70 113.71 149.23 118.20 146.21 C 122.69 143.19 127.54 140.45 132.75 138.12 C 137.96 135.79 143.70 133.68 149.44 132.25 C 155.18 130.82 161.88 129.95 167.18 129.55 C 172.47 129.14 175.77 129.23 181.22 129.83 C 186.66 130.42 193.73 131.41 199.85 133.13 C 205.97 134.84 212.17 137.36 217.95 140.12 C 223.72 142.88 229.40 145.97 234.52 149.69 C 239.64 153.41 244.36 157.87 248.67 162.43 C 252.98 167.00 256.93 171.99 260.38 177.10 C 263.83 182.22 267.08 188.33 269.36 193.12 C 271.64 197.90 272.63 200.85 274.05 205.81 C 275.47 210.77 277.04 217.22 277.88 222.87 C 278.72 228.51 279.28 234.18 279.08 239.68 C 278.89 245.18 278.13 250.69 276.72 255.85 C 275.31 261.00 272.91 265.89 270.64 270.59 C 268.37 275.30 265.88 279.88 263.12 284.07 C 260.36 288.26 257.25 292.14 254.07 295.75 C 250.88 299.36 247.00 302.95 244.03 305.75 C 241.06 308.55 239.41 310.23 236.23 312.54 C 233.04 314.85 228.79 317.62 224.91 319.63 C 221.03 321.64 217.05 323.36 212.94 324.61 C 208.83 325.86 204.50 326.89 200.26 327.13 C 196.02 327.38 191.71 326.94 187.50 326.10 C 183.30 325.27 179.05 323.83 175.03 322.12 C 171.01 320.42 166.99 318.48 163.39 315.86 C 159.79 313.23 156.09 309.34 153.41 306.37 C 150.73 303.39 149.28 301.61 147.31 297.99 C 145.35 294.36 142.81 289.39 141.62 284.62 C 140.43 279.85 139.86 274.56 140.16 269.37 C 140.45 264.19 141.76 258.71 143.39 253.52 C 145.02 248.33 147.35 243.13 149.95 238.21 C 152.54 233.29 155.47 228.42 158.96 223.99 C 162.45 219.56 167.19 214.99 170.88 211.65 C 174.58 208.30 176.86 206.47 181.12 203.94 C 185.37 201.41 191.12 198.39 196.44 196.48 C 201.76 194.57 207.41 193.19 213.03 192.49 C 218.66 191.79 224.58 191.47 230.18 192.29 C 235.77 193.10 241.47 194.98 246.62 197.37 C 251.77 199.76 256.80 202.95 261.07 206.65 C 265.35 210.35 269.02 215.01 272.28 219.55 C 275.53 224.09 278.52 229.63 280.59 233.90 C 282.65 238.17 283.57 240.69 284.67 245.17 C 285.78 249.64 286.89 255.61 287.22 260.74 C 287.55 265.87 287.46 271.00 286.64 275.95 C 285.82 280.91 284.29 285.97 282.30 290.50 C 280.30 295.03 277.70 299.34 274.67 303.13 C 271.64 306.91 267.98 310.47 264.10 313.22 C 260.22 315.97 255.91 318.16 251.39 319.63 C 246.87 321.10 241.24 321.78 236.99 322.02 C 232.74 322.25 230.07 322.00 225.88 321.04 C 221.69 320.07 216.33 318.29 211.86 316.21 C 207.38 314.14 202.94 311.63 199.04 308.58 C 195.13 305.53 191.56 301.80 188.41 297.90 C 185.26 294.00 182.37 289.68 180.11 285.19 C 177.85 280.71 176.08 275.87 174.84 271.00 C 173.60 266.14 173.03 261.04 172.69 256.02 C 172.34 251.00 172.60 245.29 172.78 240.89 C 172.96 236.50 173.25 233.88 173.76 229.65 C 174.27 225.42 174.91 220.12 175.83 215.49 C 176.76 210.86 178.18 206.34 179.32 201.89 C 180.47 197.45 181.68 193.08 182.71 188.82 C 183.75 184.57 184.60 180.41 185.52 176.37 C 186.44 172.32 187.45 168.42 188.21 164.53 C 188.97 160.65 189.69 156.35 190.07 153.08 C 190.46 149.80 190.55 147.96 190.51 144.90 C 190.48 141.83 190.37 137.86 189.86 134.67 C 189.34 131.48 188.41 128.58 187.43 125.76 C 186.45 122.93 185.33 120.24 183.99 117.71 C 182.65 115.17 181.19 112.69 179.40 110.56 C 177.60 108.44 175.42 106.69 173.22 104.98 C 171.02 103.27 168.68 101.63 166.21 100.31 C 163.73 98.99 160.81 97.78 158.39 97.07 C 155.96 96.37 154.37 96.12 151.66 96.10 C 148.94 96.07 145.35 96.17 142.10 96.91 C 138.85 97.64 135.49 98.91 132.15 100.50 C 128.81 102.09 125.34 104.00 122.08 106.45 C 118.82 108.89 115.60 111.92 112.58 115.14 C 109.56 118.36 106.60 121.90 103.97 125.77 C 101.34 129.64 98.88 133.83 96.81 138.37 C 94.73 142.92 92.80 148.56 91.52 153.04 C 90.25 157.53 89.65 160.34 89.16 165.29 C 88.66 170.24 88.54 176.95 88.56 182.75 C 88.58 188.56 88.70 194.33 89.27 200.12 C 89.84 205.91 90.75 211.74 91.97 217.50 C 93.19 223.27 94.93 229.11 96.59 234.69 C 98.25 240.28 100.17 245.69 101.93 251.02 C 103.70 256.35 105.75 262.16 107.16 266.66 C 108.57 271.15 109.29 273.71 110.41 278.00 C 111.53 282.28 113.07 287.80 113.88 292.36 C 114.70 296.93 114.99 301.18 115.30 305.40 C 115.60 309.62 115.68 313.76 115.69 317.70 C 115.69 321.63 115.70 325.46 115.34 329.01 C 114.99 332.56 114.33 335.82 113.58 338.99 C 112.84 342.16 111.88 345.20 110.89 348.04 C 109.91 350.88 108.77 353.87 107.65 356.01 C 106.53 358.15 105.56 359.15 104.17 360.89 C 102.78 362.63 101.12 364.94 99.31 366.44 C 97.51 367.94 95.45 368.99 93.33 369.90 C 91.22 370.81 88.88 371.47 86.62 371.89 C 84.37 372.30 82.11 372.51 79.79 372.40 C 77.48 372.29 75.13 371.95 72.73 371.21 C 70.34 370.47 67.76 369.45 65.40 367.96 C 63.05 366.48 60.56 364.20 58.60 362.31 C 56.65 360.42 55.46 359.08 53.66 356.62 C 51.86 354.16 49.47 350.96 47.79 347.54 C 46.12 344.12 44.61 340.38 43.59 336.11 C 42.58 331.84 41.89 326.90 41.69 321.92 C 41.48 316.95 41.67 311.64 42.39 306.27 C 43.10 300.90 44.21 295.27 45.98 289.69 C 47.74 284.12 50.60 277.67 52.98 272.81 C 55.36 267.96 57.12 265.23 60.26 260.59 C 63.40 255.95 67.78 250.00 71.83 244.98 C 75.87 239.96 79.80 234.88 84.53 230.47 C 89.26 226.06 94.55 221.99 100.22 218.50 C 105.89 215.02 112.26 212.01 118.55 209.55 C 124.84 207.09 131.36 205.03 137.98 203.74 C 144.60 202.44 151.56 201.86 158.27 201.77 C 164.99 201.68 172.57 202.50 178.28 203.19 C 183.99 203.89 187.18 204.61 192.53 205.94 C 197.87 207.28 204.53 209.22 210.35 211.19 C 216.17 213.17 221.96 215.60 227.45 217.79 C 232.94 219.99 238.14 222.17 243.30 224.36 C 248.46 226.56 253.43 228.81 258.40 230.97 C 263.37 233.13 268.36 235.27 273.13 237.34 C 277.91 239.41 282.47 241.51 287.05 243.39 C 291.63 245.28 296.71 247.18 300.63 248.65 C 304.54 250.12 306.76 250.94 310.51 252.20 C 314.27 253.46 319.04 254.94 323.16 256.20 C 327.27 257.47 331.33 258.41 335.23 259.77 C 339.13 261.13 342.99 262.60 346.57 264.36 C 350.16 266.13 353.55 268.27 356.76 270.36 C 359.96 272.46 363.00 274.49 365.81 276.96 C 368.62 279.42 371.59 282.54 373.62 285.16 C 375.65 287.77 376.50 289.64 377.97 292.65 C 379.44 295.66 381.27 299.67 382.46 303.23 C 383.64 306.79 384.54 310.27 385.07 314.02 C 385.60 317.76 385.74 321.77 385.63 325.71 C 385.52 329.64 384.81 333.73 384.41 337.62 C 384.01 341.52 383.76 345.38 383.21 349.09 C 382.66 352.80 381.91 356.29 381.10 359.88 C 380.30 363.46 379.12 367.56 378.39 370.58 C 377.67 373.60 377.18 375.18 376.74 378.02 C 376.31 380.86 375.81 384.59 375.78 387.63 C 375.75 390.67 376.04 393.61 376.56 396.26 C 377.08 398.90 377.97 401.24 378.92 403.50 C 379.87 405.75 380.97 407.88 382.28 409.77 C 383.59 411.65 385.09 413.35 386.76 414.82 C 388.43 416.29 390.15 417.82 392.30 418.59 C 394.44 419.36 397.40 419.49 399.64 419.42 C 401.88 419.36 403.32 419.04 405.72 418.19 C 408.13 417.34 411.28 416.11 414.08 414.31 C 416.88 412.50 419.81 410.04 422.52 407.36 C 425.23 404.69 427.87 401.68 430.35 398.27 C 432.83 394.86 435.29 391.02 437.42 386.90 C 439.55 382.79 441.43 378.12 443.13 373.58 C 444.82 369.04 446.23 364.37 447.59 359.67 C 448.96 354.97 450.28 349.50 451.33 345.38 C 452.38 341.26 452.85 338.80 453.88 334.94 C 454.91 331.08 456.38 326.46 457.50 322.21 C 458.62 317.97 459.54 313.59 460.59 309.48 C 461.64 305.36 462.73 301.35 463.80 297.50 C 464.86 293.65 465.88 289.93 466.99 286.38 C 468.10 282.84 469.16 279.27 470.48 276.23 C 471.79 273.19 473.62 270.46 474.88 268.15 C 476.14 265.84 476.78 264.45 478.04 262.37 C 479.31 260.29 481.12 257.94 482.47 255.66 C 483.82 253.38 484.98 251.05 486.16 248.67 C 487.34 246.28 488.53 243.89 489.54 241.36 C 490.55 238.82 491.35 236.05 492.21 233.43 C 493.06 230.82 494.07 228.40 494.66 225.67 C 495.24 222.94 495.57 220.10 495.73 217.04 C 495.89 213.98 495.71 210.15 495.62 207.32 C 495.54 204.49 495.47 202.82 495.24 200.06 C 495.00 197.30 494.57 193.87 494.22 190.76 C 493.87 187.66 493.44 184.45 493.15 181.43 C 492.86 178.41 492.55 175.40 492.47 172.65 C 492.39 169.90 492.61 167.40 492.69 164.93 C 492.77 162.45 492.79 160.07 492.95 157.82 C 493.11 155.57 493.33 153.36 493.65 151.42 C 493.98 149.48 494.48 147.59 494.92 146.19 C 495.36 144.79 495.60 143.98 496.29 143.00 C 496.98 142.03 497.96 140.91 499.05 140.34 C 500.14 139.77 501.53 139.49 502.84 139.57 C 504.15 139.66 505.52 140.18 506.90 140.83 C 508.29 141.49 513.70 142.64 511.16 143.49 C 508.62 144.34 499.11 145.52 491.66 145.94 C 484.21 146.35 473.60 146.11 466.44 145.99 C 459.28 145.88 455.40 145.74 448.68 145.24 C 441.96 144.75 433.54 143.59 426.13 143.02 C 418.72 142.46 411.38 142.26 404.23 141.85 C 397.07 141.44 390.03 140.99 383.19 140.57 C 376.35 140.15 369.79 139.53 363.21 139.33 C 356.63 139.13 350.15 138.95 343.72 139.36 C 337.29 139.77 330.93 140.71 324.64 141.80 C 318.34 142.88 311.32 144.50 305.97 145.87 C 300.61 147.25 297.59 148.20 292.51 150.06 C 287.44 151.92 280.98 154.42 275.51 157.04 C 270.03 159.65 264.66 162.47 259.68 165.78 C 254.70 169.08 249.93 172.84 245.63 176.89 C 241.34 180.93 237.50 185.47 233.93 190.05 C 230.37 194.64 227.20 199.54 224.26 204.38 C 221.32 209.22 218.74 214.18 216.30 219.10 C 213.87 224.01 211.55 229.63 209.63 233.87 C 207.71 238.11 206.69 240.53 204.80 244.53 C 202.90 248.53 200.49 253.58 198.27 257.85 C 196.05 262.12 193.75 266.17 191.47 270.16 C 189.19 274.14 186.95 278.15 184.57 281.76 C 182.19 285.37 179.71 288.59 177.18 291.83 C 174.65 295.06 172.07 298.37 169.37 301.17 C 166.67 303.97 163.55 306.72 161.00 308.63 C 158.45 310.55 156.81 311.33 154.06 312.64 C 151.32 313.95 147.76 315.52 144.53 316.48 C 141.31 317.43 138.07 318.28 134.72 318.37 C 131.37 318.46 127.75 317.84 124.46 317.02 C 121.17 316.20 118.06 314.99 114.97 313.45 C 111.88 311.90 108.73 310.01 105.93 307.73 C 103.12 305.45 100.47 302.79 98.14 299.76 C 95.81 296.73 93.49 292.81 91.96 289.57 C 90.43 286.33 89.93 283.99 88.96 280.30 C 87.99 276.61 86.66 271.91 86.16 267.42 C 85.65 262.94 85.51 258.16 85.95 253.40 C 86.38 248.65 87.31 243.75 88.77 238.89 C 90.24 234.04 92.36 229.04 94.73 224.27 C 97.11 219.49 99.90 214.75 103.00 210.23 C 106.11 205.71 109.63 201.29 113.36 197.14 C 117.09 192.99 121.69 188.58 125.40 185.32 C 129.11 182.06 131.52 180.38 135.62 177.56 C 139.72 174.74 145.02 171.12 150.00 168.39 C 154.98 165.65 160.15 163.18 165.49 161.15 C 170.83 159.12 176.38 157.49 182.05 156.22 C 187.72 154.95 193.67 153.95 199.50 153.54 C 205.33 153.13 211.27 153.37 217.04 153.78 C 222.81 154.18 229.22 155.05 234.13 155.95 C 239.03 156.84 241.80 157.55 246.48 159.16 C 251.17 160.78 257.19 163.12 262.22 165.66 C 267.25 168.20 272.10 171.12 276.65 174.40 C 281.21 177.68 285.55 181.43 289.56 185.32 C 293.57 189.21 297.26 193.50 300.73 197.72 C 304.21 201.93 307.29 206.37 310.42 210.61 C 313.56 214.86 316.67 219.00 319.52 223.17 C 322.36 227.35 325.30 231.99 327.49 235.68 C 329.68 239.37 330.81 241.52 332.66 245.29 C 334.51 249.06 336.54 254.14 338.60 258.30 C 340.65 262.47 342.74 266.56 344.98 270.28 C 347.22 273.99 349.73 277.27 352.06 280.60 C 354.39 283.94 356.72 287.12 358.94 290.27 C 361.17 293.42 363.46 296.36 365.41 299.49 C 367.36 302.62 369.13 305.72 370.64 309.06 C 372.15 312.39 373.42 316.47 374.47 319.51 C 375.52 322.54 376.21 324.21 376.93 327.27 C 377.65 330.34 378.48 334.31 378.81 337.89 C 379.14 341.47 379.25 345.12 378.92 348.77 C 378.59 352.41 377.79 356.13 376.81 359.76 C 375.84 363.39 374.94 367.01 373.07 370.53 C 371.21 374.04 368.56 377.62 365.61 380.83 C 362.66 384.05 359.02 387.01 355.38 389.81 C 351.75 392.62 347.43 395.55 343.80 397.66 C 340.16 399.78 337.74 400.95 333.59 402.49 C 329.44 404.03 323.99 405.86 318.90 406.91 C 313.82 407.95 308.43 408.47 303.07 408.75 C 297.71 409.02 292.27 409.30 286.73 408.56 C 281.19 407.82 275.31 406.34 269.83 404.30 C 264.35 402.27 258.96 399.52 253.85 396.34 C 248.75 393.16 243.27 388.79 239.21 385.22 C 235.15 381.65 232.88 379.20 229.51 374.94 C 226.14 370.68 221.96 365.08 218.98 359.65 C 215.99 354.22 213.68 348.21 211.60 342.36 C 209.52 336.50 207.83 330.47 206.48 324.54 C 205.13 318.60 204.11 312.66 203.49 306.73 C 202.88 300.80 202.51 294.74 202.79 288.97 C 203.06 283.20 203.77 277.52 205.15 272.09 C 206.52 266.67 209.15 260.85 211.03 256.42 C 212.91 251.99 214.22 249.63 216.43 245.52 C 218.64 241.42 221.73 236.29 224.30 231.79 C 226.88 227.29 229.37 222.79 231.88 218.51 C 234.38 214.23 237.02 210.29 239.33 206.13 C 241.65 201.97 243.74 197.64 245.79 193.57 C 247.83 189.50 249.87 185.67 251.59 181.71 C 253.31 177.75 254.87 173.72 256.12 169.83 C 257.38 165.93 258.45 161.66 259.10 158.33 C 259.75 155.00 259.89 153.07 260.02 149.86 C 260.15 146.66 260.26 142.56 259.89 139.09 C 259.52 135.61 258.89 132.26 257.80 129.03 C 256.72 125.80 255.11 122.65 253.38 119.72 C 251.66 116.80 249.62 114.04 247.47 111.47 C 245.33 108.91 243.10 106.47 240.51 104.35 C 237.92 102.22 234.64 100.15 231.94 98.69 C 229.23 97.24 227.40 96.52 224.28 95.59 C 221.16 94.66 217.02 93.52 213.21 93.10 C 209.40 92.69 205.45 92.66 201.42 93.11 C 197.39 93.55 193.12 94.75 189.04 95.78 C 184.96 96.80 180.89 98.08 176.93 99.25 C 172.96 100.42 169.04 101.67 165.26 102.81 C 161.47 103.94 157.78 105.17 154.22 106.06 C 150.65 106.94 146.81 107.61 143.87 108.12 C 140.93 108.63 139.36 108.73 136.56 109.13 C 133.77 109.54 130.09 110.28 127.09 110.55 C 124.09 110.82 121.34 110.72 118.54 110.74 C 115.74 110.77 112.98 110.58 110.29 110.70 C 107.60 110.83 105.02 111.24 102.41 111.50 C 99.81 111.75 97.15 112.06 94.66 112.23 C 92.17 112.40 89.85 112.26 87.47 112.53 C 85.08 112.79 82.41 113.32 80.35 113.83 C 78.29 114.34 77.15 114.81 75.10 115.57 C 73.05 116.34 70.40 117.21 68.05 118.42 C 65.70 119.63 63.31 121.07 61.01 122.86 C 58.71 124.64 56.42 126.74 54.23 129.14 C 52.03 131.53 49.90 134.43 47.84 137.22 C 45.79 140.00 43.83 142.95 41.89 145.85 C 39.94 148.75 37.80 152.08 36.16 154.63 C 34.52 157.17 33.58 158.64 32.05 161.14 C 30.53 163.63 28.64 166.81 27.01 169.60 C 25.38 172.38 23.85 175.25 22.26 177.84 C 20.68 180.43 19.07 182.93 17.49 185.11 C 15.91 187.30 14.35 189.31 12.79 190.95 C 11.24 192.60 9.66 194.07 8.16 194.97 C 6.66 195.88 5.13 196.39 3.78 196.39 C 2.43 196.38 -2.65 195.22 0.07 194.96 C 2.79 194.70 12.40 194.35 20.09 194.83 C 27.78 195.31 37.79 196.38 46.23 197.87 C 54.66 199.36 62.89 201.27 70.69 203.79 C 78.49 206.30 86.02 209.56 93.02 212.96 C 100.03 216.37 106.84 220.00 112.73 224.21 C 118.63 228.42 123.89 233.35 128.37 238.22 C 132.85 243.08 136.68 248.30 139.61 253.40 C 142.53 258.51 144.62 264.41 145.95 268.85 C 147.27 273.29 147.58 276.01 147.57 280.03 C 147.55 284.05 146.91 289.04 145.86 292.98 C 144.82 296.91 143.26 300.67 141.31 303.64 C 139.37 306.61 136.86 308.94 134.19 310.80 C 131.51 312.66 128.27 313.99 125.25 314.82 C 122.23 315.64 119.15 315.74 116.07 315.73 C 112.98 315.73 109.42 315.46 106.73 314.77 C 104.03 314.09 102.30 313.61 99.90 311.63 C 97.50 309.66 94.41 306.32 92.32 302.93 C 90.23 299.53 88.58 295.49 87.36 291.25 C 86.14 287.01 85.47 282.14 85.00 277.47 C 84.53 272.80 84.65 267.89 84.54 263.22 C 84.43 258.54 84.37 253.94 84.34 249.39 C 84.32 244.85 84.45 240.28 84.38 235.95 C 84.31 231.62 84.14 226.95 83.93 223.40 C 83.72 219.86 83.42 217.97 83.12 214.67 C 82.81 211.36 82.75 206.97 82.12 203.56 C 81.49 200.16 80.40 197.14 79.33 194.26 C 78.26 191.39 77.03 188.66 75.69 186.34 C 74.36 184.02 72.97 182.04 71.32 180.34 C 69.67 178.65 67.69 177.25 65.79 176.18 C 63.89 175.12 61.96 174.25 59.91 173.95 C 57.86 173.65 55.38 173.90 53.50 174.41 C 51.63 174.92 50.49 175.51 48.67 176.99 C 46.84 178.47 44.44 180.85 42.56 183.31 C 40.68 185.77 38.84 188.53 37.36 191.76 C 35.88 194.98 34.55 198.70 33.68 202.65 C 32.82 206.59 32.19 210.87 32.17 215.41 C 32.14 219.96 32.71 225.02 33.52 229.94 C 34.32 234.86 35.33 239.84 36.99 244.94 C 38.65 250.04 41.28 256.05 43.49 260.56 C 45.71 265.08 47.15 267.68 50.28 272.03 C 53.42 276.38 57.79 282.08 62.29 286.67 C 66.79 291.26 71.79 295.78 77.27 299.57 C 82.75 303.36 88.93 306.59 95.16 309.41 C 101.40 312.22 108.06 314.59 114.67 316.45 C 121.27 318.32 128.07 319.61 134.79 320.60 C 141.51 321.60 149.12 322.14 154.97 322.43 C 160.82 322.72 164.23 322.60 169.92 322.33 C 175.60 322.07 182.78 321.36 189.08 320.85 C 195.38 320.33 201.65 319.69 207.71 319.26 C 213.77 318.83 219.65 318.60 225.44 318.26 C 231.23 317.92 236.99 317.49 242.46 317.22 C 247.93 316.95 253.09 316.67 258.28 316.63 C 263.46 316.59 268.64 316.86 273.58 316.97 C 278.51 317.08 283.78 317.16 287.86 317.31 C 291.95 317.46 294.14 317.81 298.11 317.89 C 302.07 317.97 307.28 317.84 311.66 317.79 C 316.05 317.75 320.24 317.78 324.44 317.63 C 328.64 317.47 332.80 317.21 336.86 316.85 C 340.92 316.49 344.88 315.89 348.80 315.46 C 352.73 315.03 356.67 314.63 360.41 314.26 C 364.14 313.89 367.68 313.70 371.23 313.24 C 374.77 312.79 378.67 312.17 381.68 311.53 C 384.69 310.90 386.41 310.32 389.30 309.44 C 392.19 308.56 395.91 307.64 399.03 306.26 C 402.16 304.89 405.22 303.18 408.06 301.21 C 410.90 299.24 413.55 296.91 416.08 294.45 C 418.61 291.99 421.02 289.26 423.22 286.43 C 425.43 283.61 427.51 280.71 429.30 277.51 C 431.09 274.31 432.76 270.37 433.94 267.25 C 435.11 264.14 435.67 262.28 436.34 258.80 C 437.02 255.32 437.75 250.62 438.00 246.39 C 438.24 242.15 438.03 237.73 437.83 233.40 C 437.62 229.06 437.33 224.71 436.76 220.37 C 436.18 216.03 435.68 211.69 434.39 207.37 C 433.10 203.04 431.16 198.70 429.03 194.41 C 426.90 190.12 424.51 185.76 421.61 181.61 C 418.71 177.46 414.88 172.85 411.63 169.49 C 408.39 166.13 406.17 164.30 402.14 161.45 C 398.10 158.60 392.57 155.06 387.44 152.40 C 382.30 149.75 376.99 147.43 371.34 145.51 C 365.69 143.59 359.61 141.92 353.55 140.90 C 347.48 139.88 341.14 139.35 334.96 139.37 C 328.77 139.39 322.54 140.11 316.42 141.04 C 310.30 141.96 304.19 143.20 298.25 144.93 C 292.31 146.65 285.73 149.27 280.77 151.40 C 275.82 153.52 273.04 154.96 268.50 157.67 C 263.97 160.38 258.13 163.84 253.54 167.67 C 248.95 171.49 244.75 176.02 240.95 180.62 C 237.15 185.21 233.58 190.11 230.74 195.24 C 227.91 200.37 225.70 205.95 223.94 211.41 C 222.17 216.88 221.28 222.52 220.15 228.02 C 219.01 233.52 217.91 239.71 217.12 244.40 C 216.34 249.09 215.77 251.61 215.44 256.15 C 215.11 260.69 215.21 266.56 215.14 271.62 C 215.07 276.68 215.09 281.66 215.01 286.49 C 214.93 291.33 214.85 296.08 214.67 300.66 C 214.48 305.23 214.27 309.64 213.90 313.95 C 213.52 318.26 212.86 322.39 212.44 326.51 C 212.03 330.62 211.88 334.70 211.40 338.63 C 210.91 342.57 209.94 346.82 209.53 350.12 C 209.12 353.42 209.11 355.28 208.95 358.44 C 208.79 361.60 208.69 365.58 208.58 369.05 C 208.48 372.51 208.31 375.87 208.30 379.23 C 208.30 382.58 208.51 385.95 208.55 389.17 C 208.59 392.39 208.42 395.44 208.54 398.54 C 208.66 401.63 208.96 404.74 209.25 407.73 C 209.53 410.73 209.86 413.64 210.25 416.51 C 210.64 419.38 211.07 422.54 211.59 424.94 C 212.11 427.35 212.68 428.68 213.36 430.96 C 214.05 433.24 214.89 436.06 215.70 438.61 C 216.51 441.16 217.36 443.79 218.23 446.25 C 219.10 448.71 220.15 451.02 220.90 453.36 C 221.66 455.70 222.25 458.04 222.76 460.30 C 223.26 462.56 223.58 464.81 223.94 466.93 C 224.29 469.04 224.79 471.26 224.88 472.99 C 224.96 474.72 224.78 475.64 224.47 477.32 C 224.15 478.99 223.79 481.26 222.98 483.02 C 222.17 484.78 220.88 486.35 219.59 487.86 C 218.30 489.36 216.67 490.73 215.24 492.05 C 213.82 493.36 212.27 494.49 211.04 495.75 C 209.81 497.01 208.90 498.31 207.86 499.61 C 206.83 500.91 205.74 502.26 204.82 503.55 C 203.90 504.84 202.99 506.24 202.35 507.34 C 201.71 508.44 201.51 511.59 200.98 510.15 C 200.44 508.71 200.11 504.71 199.14 498.69 C 198.17 492.67 196.70 481.97 195.14 474.04 C 193.58 466.12 191.62 458.59 189.80 451.15 C 187.98 443.71 185.94 436.56 184.21 429.42 C 182.49 422.29 181.05 415.17 179.42 408.35 C 177.80 401.53 176.00 395.01 174.47 388.52 C 172.93 382.03 171.45 374.96 170.20 369.41 C 168.95 363.86 168.10 360.60 166.95 355.23 C 165.80 349.86 164.44 343.09 163.30 337.19 C 162.16 331.28 161.08 325.47 160.10 319.80 C 159.12 314.13 158.21 308.68 157.43 303.18 C 156.66 297.67 155.88 292.14 155.45 286.76 C 155.02 281.38 154.72 276.17 154.85 270.88 C 154.99 265.59 155.54 260.27 156.26 255.01 C 156.97 249.76 158.04 243.84 159.14 239.35 C 160.25 234.85 161.27 232.29 162.91 228.05 C 164.55 223.82 166.62 218.50 168.97 213.94 C 171.32 209.39 174.17 204.97 176.99 200.74 C 179.80 196.50 182.64 192.37 185.87 188.53 C 189.09 184.70 192.59 180.99 196.34 177.72 C 200.08 174.45 204.24 171.69 208.34 168.92 C 212.45 166.14 217.14 163.11 220.96 161.08 C 224.79 159.04 227.18 158.08 231.30 156.71 C 235.42 155.34 240.73 153.61 245.66 152.85 C 250.60 152.09 255.85 151.78 260.92 152.15 C 266.00 152.53 271.13 153.66 276.09 155.08 C 281.06 156.51 286.07 158.24 290.73 160.69 C 295.38 163.15 299.97 166.33 304.04 169.81 C 308.11 173.29 311.73 177.39 315.14 181.55 C 318.55 185.71 322.07 190.73 324.50 194.75 C 326.94 198.77 327.97 201.28 329.75 205.67 C 331.53 210.06 333.69 215.94 335.20 221.08 C 336.70 226.22 337.80 231.43 338.80 236.51 C 339.81 241.58 340.38 246.66 341.24 251.53 C 342.09 256.40 342.95 261.08 343.93 265.70 C 344.91 270.32 346.04 274.85 347.11 279.24 C 348.19 283.63 349.08 288.02 350.40 292.03 C 351.71 296.05 353.68 300.10 354.99 303.33 C 356.31 306.57 357.15 308.28 358.30 311.44 C 359.45 314.61 360.91 318.68 361.90 322.30 C 362.88 325.92 363.45 329.63 364.20 333.16 C 364.95 336.70 365.88 340.05 366.40 343.52 C 366.92 346.99 367.29 350.45 367.31 354.00 C 367.32 357.54 367.16 361.25 366.50 364.81 C 365.84 368.36 364.41 372.31 363.36 375.34 C 362.30 378.37 361.83 380.10 360.15 382.99 C 358.47 385.88 355.94 389.57 353.29 392.66 C 350.63 395.75 347.41 398.77 344.20 401.53 C 340.98 404.29 337.31 406.66 333.99 409.21 C 330.66 411.76 327.44 414.36 324.24 416.81 C 321.03 419.27 317.96 421.70 314.76 423.92 C 311.56 426.15 308.21 428.08 305.05 430.15 C 301.90 432.22 298.42 434.56 295.83 436.35 C 293.25 438.14 291.81 439.11 289.56 440.87 C 287.32 442.64 284.65 444.90 282.39 446.92 C 280.13 448.95 278.13 451.00 276.01 453.03 C 273.89 455.06 271.55 457.11 269.65 459.09 C 267.76 461.08 266.12 462.99 264.65 464.95 C 263.18 466.90 261.90 468.88 260.82 470.82 C 259.74 472.76 258.75 474.64 258.15 476.59 C 257.56 478.54 257.35 480.82 257.25 482.53 C 257.15 484.24 257.09 485.27 257.55 486.86 C 258.00 488.45 258.95 490.45 259.97 492.08 C 261.00 493.71 262.20 495.27 263.70 496.64 C 265.20 498.01 267.05 499.20 268.98 500.33 C 270.90 501.46 273.09 502.48 275.25 503.43 C 277.41 504.39 279.56 505.32 281.91 506.04 C 284.26 506.76 287.11 507.32 289.35 507.77 C 291.58 508.21 293.14 508.29 295.33 508.72 C 297.52 509.14 300.29 509.79 302.48 510.32 C 304.67 510.86 306.52 515.75 308.49 511.90 C 310.46 508.06 312.33 495.21 314.28 487.25 C 316.23 479.29 318.23 471.66 320.19 464.14 C 322.16 456.62 324.17 449.34 326.09 442.14 C 328.00 434.94 329.93 427.97 331.67 420.96 C 333.42 413.95 335.32 406.10 336.57 400.10 C 337.82 394.10 338.44 390.84 339.18 384.97 C 339.92 379.09 340.64 371.52 341.01 364.85 C 341.39 358.18 341.62 351.50 341.43 344.96 C 341.23 338.42 340.79 331.95 339.86 325.61 C 338.92 319.26 337.35 312.98 335.83 306.89 C 334.32 300.80 332.66 294.82 330.76 289.05 C 328.87 283.28 326.95 277.58 324.47 272.26 C 321.99 266.94 318.60 261.34 315.87 257.14 C 313.14 252.93 311.42 250.68 308.09 247.04 C 304.77 243.41 300.19 238.88 295.92 235.32 C 291.66 231.77 287.16 228.43 282.50 225.71 C 277.85 223.00 272.93 220.82 267.97 219.04 C 263.00 217.26 257.79 215.93 252.72 215.04 C 247.66 214.16 242.55 213.66 237.57 213.72 C 232.59 213.79 227.02 214.67 222.85 215.42 C 218.68 216.18 216.40 216.69 212.56 218.25 C 208.72 219.80 203.85 222.28 199.81 224.75 C 195.78 227.22 191.97 230.16 188.35 233.09 C 184.73 236.02 181.37 239.17 178.10 242.33 C 174.82 245.49 171.67 248.79 168.69 252.04 C 165.70 255.28 162.87 258.53 160.18 261.79 C 157.49 265.05 155.04 268.43 152.54 271.60 C 150.05 274.76 147.40 278.24 145.22 280.77 C 143.04 283.30 141.67 284.51 139.47 286.78 C 137.28 289.06 134.46 291.91 132.06 294.43 C 129.66 296.95 127.38 299.48 125.08 301.90 C 122.77 304.33 120.48 306.79 118.22 308.99 C 115.96 311.19 113.64 312.96 111.52 315.11 C 109.40 317.26 107.39 319.60 105.51 321.88 C 103.62 324.17 101.96 326.60 100.20 328.82 C 98.44 331.04 96.40 333.27 94.95 335.19 C 93.49 337.11 92.66 338.24 91.47 340.34 C 90.27 342.45 88.79 345.25 87.78 347.81 C 86.77 350.38 86.03 353.03 85.41 355.75 C 84.79 358.47 84.36 361.31 84.05 364.13 C 83.73 366.94 83.64 369.89 83.51 372.63 C 83.37 375.37 83.29 377.91 83.24 380.56 C 83.19 383.20 83.34 385.96 83.20 388.49 C 83.06 391.03 82.75 393.79 82.39 395.77 C 82.03 397.76 81.65 398.71 81.04 400.41 C 80.43 402.11 79.63 404.30 78.72 405.97 C 77.81 407.63 76.80 409.17 75.58 410.39 C 74.36 411.61 72.91 412.55 71.42 413.30 C 69.92 414.04 68.35 414.66 66.58 414.86 C 64.82 415.05 62.84 414.98 60.85 414.49 C 58.86 414.00 56.45 412.79 54.65 411.92 C 52.85 411.06 51.88 410.61 50.05 409.28 C 48.22 407.96 45.77 405.88 43.66 403.97 C 41.56 402.07 39.42 400.28 37.44 397.85 C 35.45 395.42 33.56 392.54 31.78 389.42 C 30.00 386.29 28.28 382.83 26.78 379.09 C 25.29 375.35 23.98 371.21 22.82 366.97 C 21.66 362.73 20.57 358.23 19.80 353.65 C 19.03 349.08 18.54 343.69 18.21 339.52 C 17.88 335.35 17.61 333.08 17.80 328.64 C 17.99 324.21 18.37 318.28 19.37 312.91 C 20.38 307.53 22.16 301.88 23.83 296.39 C 25.50 290.90 27.51 285.36 29.38 279.96 C 31.26 274.56 32.92 269.26 35.08 264.00 C 37.24 258.74 39.58 253.53 42.33 248.40 C 45.07 243.26 48.06 238.13 51.54 233.21 C 55.01 228.30 59.63 222.96 63.18 218.89 C 66.73 214.81 68.93 212.57 72.84 208.79 C 76.74 205.01 81.91 200.18 86.62 196.20 C 91.33 192.23 96.07 188.44 101.10 184.95 C 106.14 181.45 111.35 178.09 116.82 175.24 C 122.30 172.38 128.07 169.89 133.95 167.81 C 139.83 165.74 145.92 163.95 152.11 162.77 C 158.30 161.60 165.55 161.09 171.09 160.76 C 176.62 160.42 179.82 160.30 185.31 160.76 C 190.80 161.21 197.93 162.30 204.02 163.47 C 210.11 164.64 216.00 166.17 221.86 167.77 C 227.71 169.37 233.57 171.26 239.14 173.05 C 244.70 174.84 249.98 176.70 255.24 178.50 C 260.51 180.29 265.69 181.91 270.72 183.81 C 275.75 185.70 280.66 187.86 285.43 189.89 C 290.20 191.92 295.36 194.30 299.34 195.99 C 303.31 197.68 305.43 198.90 309.27 200.04 C 313.12 201.17 318.10 202.29 322.38 202.79 C 326.66 203.28 330.89 203.07 334.93 202.99 C 338.98 202.91 342.91 202.87 346.65 202.31 C 350.39 201.75 354.01 200.88 357.35 199.63 C 360.70 198.38 363.96 196.76 366.70 194.83 C 369.44 192.90 371.74 190.55 373.79 188.04 C 375.84 185.54 377.73 182.37 379.03 179.81 C 380.32 177.24 380.99 175.56 381.58 172.64 C 382.17 169.73 382.77 165.86 382.55 162.33 C 382.34 158.80 381.50 155.10 380.30 151.47 C 379.10 147.84 377.42 144.09 375.34 140.56 C 373.26 137.02 370.58 133.54 367.82 130.26 C 365.07 126.99 361.94 123.92 358.82 120.89 C 355.71 117.86 351.97 114.58 349.14 112.10 C 346.32 109.61 344.90 108.18 341.87 105.97 C 338.84 103.77 334.70 101.15 330.98 98.87 C 327.27 96.59 323.37 94.34 319.58 92.30 C 315.79 90.26 311.97 88.44 308.24 86.62 C 304.51 84.81 300.71 83.20 297.20 81.41 C 293.69 79.62 290.40 77.68 287.17 75.86 C 283.95 74.04 280.73 72.32 277.85 70.49 C 274.96 68.66 272.05 66.52 269.86 64.91 C 267.66 63.30 266.45 62.54 264.68 60.85 C 262.92 59.16 260.75 56.79 259.29 54.76 C 257.84 52.72 256.79 50.70 255.95 48.66 C 255.11 46.62 254.40 44.57 254.25 42.53 C 254.10 40.49 254.28 38.31 255.04 36.42 C 255.81 34.53 257.24 32.77 258.85 31.18 C 260.46 29.59 262.55 28.16 264.71 26.90 C 266.87 25.64 269.60 24.43 271.81 23.62 C 274.02 22.81 275.49 22.60 277.97 22.02 C 280.45 21.44 283.81 20.71 286.69 20.16 C 289.56 19.60 292.39 19.18 295.21 18.71 C 298.03 18.23 301.03 17.86 303.62 17.32 C 306.20 16.79 308.50 16.15 310.74 15.49 C 312.99 14.84 315.14 14.21 317.08 13.42 C 319.01 12.63 320.88 11.52 322.38 10.77 C 323.88 10.01 324.62 9.58 326.06 8.87 C 327.50 8.16 329.59 7.34 331.05 6.51 C 332.51 5.68 333.51 4.74 334.83 3.92 C 336.15 3.10 337.57 2.24 338.97 1.61 C 340.37 0.98 341.92 -3.78 343.25 0.13 C 344.58 4.04 345.69 17.00 346.95 25.09 C 348.20 33.19 349.41 41.01 350.78 48.68 C 352.16 56.35 353.94 64.70 355.20 71.09 C 356.46 77.48 357.13 80.92 358.34 87.01 C 359.56 93.10 361.23 100.88 362.48 107.63 C 363.73 114.39 364.81 120.98 365.84 127.54 C 366.87 134.11 367.91 140.62 368.66 147.02 C 369.42 153.42 369.94 159.73 370.40 165.94 C 370.86 172.15 371.17 178.26 371.40 184.28 C 371.64 190.31 371.80 196.22 371.80 202.10 C 371.80 207.98 371.62 214.59 371.40 219.58 C 371.17 224.56 370.98 227.18 370.45 232.00 C 369.92 236.82 369.24 243.10 368.22 248.49 C 367.19 253.88 365.96 259.20 364.29 264.34 C 362.62 269.48 360.11 274.44 358.20 279.36 C 356.29 284.27 354.59 289.13 352.84 293.86 C 351.08 298.58 349.19 303.18 347.66 307.71 C 346.13 312.23 345.01 316.67 343.67 321.01 C 342.33 325.35 340.77 330.09 339.61 333.74 C 338.45 337.39 337.61 339.44 336.71 342.93 C 335.81 346.43 334.73 350.92 334.21 354.72 C 333.68 358.53 333.47 362.26 333.57 365.74 C 333.68 369.23 334.12 372.46 334.84 375.61 C 335.56 378.76 336.48 382.02 337.89 384.66 C 339.30 387.29 341.13 389.59 343.29 391.44 C 345.46 393.28 348.50 394.75 350.89 395.73 C 353.28 396.71 354.84 397.12 357.63 397.33 C 360.42 397.53 364.28 397.46 367.63 396.94 C 370.98 396.42 374.37 395.59 377.71 394.20 C 381.05 392.82 384.46 391.02 387.67 388.61 C 390.87 386.20 394.10 383.20 396.94 379.73 C 399.77 376.25 402.52 372.26 404.66 367.76 C 406.80 363.27 408.43 357.95 409.79 352.74 C 411.14 347.52 412.20 341.32 412.79 336.46 C 413.38 331.61 413.76 328.76 413.32 323.63 C 412.87 318.50 411.84 311.66 410.12 305.70 C 408.40 299.74 405.72 293.64 403.02 287.88 C 400.32 282.12 397.55 276.39 393.92 271.13 C 390.29 265.87 385.80 260.91 381.24 256.34 C 376.68 251.78 371.73 247.44 366.56 243.72 C 361.39 240.00 355.82 236.93 350.22 234.02 C 344.61 231.11 337.98 228.37 332.94 226.26 C 327.89 224.16 324.98 222.93 319.93 221.40 C 314.89 219.86 308.39 218.14 302.66 217.03 C 296.93 215.93 291.14 215.45 285.56 214.78 C 279.98 214.10 274.58 213.33 269.18 212.99 C 263.78 212.66 258.37 212.69 253.14 212.77 C 247.91 212.85 242.81 213.35 237.82 213.46 C 232.83 213.57 227.40 213.44 223.20 213.43 C 219.01 213.42 216.65 213.64 212.64 213.39 C 208.64 213.15 203.55 212.40 199.19 211.94 C 194.84 211.49 190.61 211.28 186.50 210.67 C 182.40 210.06 178.23 209.52 174.54 208.29 C 170.86 207.07 167.53 205.24 164.42 203.31 C 161.31 201.38 158.43 199.16 155.89 196.73 C 153.35 194.31 150.95 191.71 149.16 188.76 C 147.36 185.80 146.00 181.97 145.12 178.99 C 144.23 176.01 143.94 174.11 143.85 170.88 C 143.76 167.66 143.84 163.40 144.59 159.64 C 145.33 155.88 146.74 152.00 148.29 148.33 C 149.85 144.65 151.75 141.05 153.91 137.59 C 156.08 134.13 158.80 130.84 161.27 127.58 C 163.73 124.32 166.04 121.12 168.68 118.01 C 171.32 114.91 174.27 111.82 177.11 108.95 C 179.96 106.09 183.29 103.20 185.73 100.84 C 188.18 98.48 189.41 97.04 191.79 94.80 C 194.17 92.55 197.43 89.83 200.04 87.35 C 202.64 84.86 205.07 82.27 207.42 79.88 C 209.77 77.49 211.97 75.30 214.13 73.01 C 216.28 70.73 218.47 68.42 220.34 66.17 C 222.21 63.92 223.90 61.72 225.35 59.51 C 226.80 57.29 228.25 54.79 229.04 52.88 C 229.83 50.97 229.83 49.92 230.09 48.06 C 230.35 46.20 230.58 43.77 230.59 41.72 C 230.60 39.68 230.56 37.73 230.16 35.81 C 229.77 33.89 229.31 31.87 228.21 30.20 C 227.11 28.54 225.61 26.94 223.57 25.81 C 221.54 24.67 218.89 23.85 215.99 23.40 C 213.08 22.95 209.62 22.87 206.13 23.11 C 202.65 23.36 198.38 24.06 195.08 24.86 C 191.79 25.67 189.79 26.36 186.36 27.92 C 182.93 29.48 178.44 31.64 174.50 34.23 C 170.56 36.82 166.54 40.05 162.72 43.47 C 158.90 46.89 155.07 50.54 151.55 54.77 C 148.04 59.00 144.53 63.57 141.63 68.86 C 138.73 74.16 136.20 80.40 134.17 86.56 C 132.14 92.71 130.71 99.28 129.47 105.81 C 128.24 112.34 127.28 119.89 126.75 125.74 C 126.22 131.58 126.05 134.97 126.30 140.90 C 126.56 146.83 127.08 154.61 128.29 161.29 C 129.51 167.97 131.12 174.68 133.59 181.00 C 136.06 187.33 139.54 193.49 143.10 199.24 C 146.67 204.99 150.71 210.43 155.00 215.49 C 159.28 220.54 163.88 225.38 168.83 229.57 C 173.79 233.76 180.03 237.70 184.73 240.62 C 189.44 243.54 192.14 245.10 197.07 247.09 C 202.00 249.08 208.56 251.38 214.31 252.56 C 220.07 253.74 225.96 254.23 231.60 254.16 C 237.24 254.08 242.97 253.41 248.17 252.10 C 253.36 250.79 258.34 248.78 262.76 246.29 C 267.19 243.80 271.25 240.61 274.73 237.16 C 278.21 233.71 281.21 229.60 283.66 225.60 C 286.11 221.60 288.14 216.86 289.44 213.14 C 290.74 209.42 291.38 207.08 291.46 203.27 C 291.55 199.46 291.23 194.40 289.95 190.27 C 288.67 186.15 286.29 182.17 283.80 178.51 C 281.30 174.85 278.19 171.36 274.99 168.30 C 271.79 165.25 268.44 162.42 264.58 160.21 C 260.71 157.99 256.31 156.17 251.83 155.03 C 247.34 153.88 242.43 153.36 237.66 153.33 C 232.90 153.30 227.40 154.10 223.22 154.85 C 219.03 155.59 216.55 156.27 212.55 157.81 C 208.55 159.36 203.54 161.69 199.22 164.11 C 194.90 166.52 190.61 169.35 186.61 172.29 C 182.60 175.23 178.72 178.21 175.20 181.74 C 171.68 185.27 168.39 189.34 165.50 193.49 C 162.61 197.64 161.01 200.66 157.86 206.63 C 154.72 212.60 148.51 225.52 146.64 229.30" fill="none" stroke="#fff" stroke-width="4.48" stroke-opacity="1" stroke-linecap="round" stroke-linejoin="round"/>
  </g>
</svg>