<?xml version="1.0" encoding="UTF-8"?>
<svg xmlns="http://www.w3.org/2000/svg" width="512" height="512" viewBox="0 0 512 512">
  <rect width="100%" height="100%" fill="#000"/>
  <g>
    <path d="M 256.00 256.00 C 253.42 254.06 244.90 248.86 240.50 244.36 C 236.10 239.86 232.28 234.25 229.59 229.00 C 226.91 223.76 224.73 218.02 224.39 212.89 C 224.05 207.75 225.31 202.94 227.57 198.19 C 229.84 193.45 233.54 188.03 238.00 184.40 C 242.46 180.77 248.77 178.16 254.35 176.42 C 259.94 174.69 265.49 173.69 271.53 173.96 C 277.57 174.24 284.54 175.71 290.60 178.08 C 296.67 180.46 303.31 184.25 307.94 188.23 C 312.58 192.21 315.80 196.12 318.42 201.96 C 321.05 207.79 322.78 215.26 323.69 223.25 C 324.60 231.24 324.87 242.27 323.87 249.89 C 322.87 257.51 320.34 263.18 317.70 268.97 C 315.05 274.75 312.24 280.17 308.01 284.60 C 303.77 289.03 297.48 291.96 292.29 295.55 C 287.09 299.15 281.81 302.56 276.84 306.17 C 271.87 309.78 267.54 314.52 262.47 317.23 C 257.41 319.94 251.90 320.27 246.46 322.43 C 241.02 324.58 234.87 327.54 229.82 330.15 C 224.77 332.76 220.71 335.70 216.15 338.07 C 211.59 340.44 206.73 342.62 202.45 344.36 C 198.17 346.10 194.70 347.34 190.47 348.50 C 186.24 349.66 182.06 351.04 177.08 351.31 C 172.11 351.58 165.69 350.75 160.62 350.11 C 155.54 349.47 151.26 349.29 146.64 347.49 C 142.02 345.68 136.99 342.20 132.90 339.26 C 128.81 336.33 125.49 334.01 122.10 329.87 C 118.71 325.73 114.91 320.06 112.55 314.43 C 110.19 308.80 108.33 302.39 107.94 296.08 C 107.54 289.77 108.43 283.25 110.16 276.57 C 111.88 269.88 114.11 262.46 118.27 255.99 C 122.43 249.52 128.49 242.69 135.10 237.75 C 141.71 232.80 150.13 228.94 157.94 226.35 C 165.74 223.75 174.10 222.62 181.91 222.20 C 189.72 221.77 197.06 221.44 204.81 223.79 C 212.56 226.14 222.05 231.28 228.40 236.31 C 234.75 241.34 239.00 247.99 242.89 253.97 C 246.78 259.95 250.48 266.29 251.76 272.17 C 253.04 278.05 252.05 283.95 250.59 289.25 C 249.13 294.55 246.14 299.48 243.00 303.96 C 239.87 308.44 236.31 313.20 231.79 316.11 C 227.26 319.02 221.40 320.93 215.84 321.44 C 210.28 321.95 203.87 321.19 198.43 319.14 C 192.98 317.08 187.13 313.60 183.17 309.11 C 179.21 304.62 176.58 298.30 174.66 292.18 C 172.74 286.06 171.46 278.68 171.67 272.36 C 171.88 266.05 172.70 261.10 175.92 254.29 C 179.14 247.49 185.95 237.92 190.97 231.54 C 195.99 225.16 201.02 220.56 206.05 216.01 C 211.08 211.46 216.54 208.01 221.16 204.25 C 225.78 200.49 229.44 197.54 233.78 193.46 C 238.12 189.37 242.65 183.93 247.20 179.76 C 251.75 175.59 256.76 171.74 261.06 168.43 C 265.35 165.12 268.80 162.95 272.99 159.89 C 277.18 156.83 282.11 152.95 286.19 150.09 C 290.26 147.23 293.62 144.72 297.43 142.73 C 301.24 140.74 304.81 139.05 309.03 138.15 C 313.26 137.24 318.14 137.31 322.78 137.29 C 327.42 137.28 331.75 136.94 336.88 138.07 C 342.02 139.19 348.14 141.47 353.56 144.06 C 358.99 146.65 365.35 149.53 369.46 153.62 C 373.57 157.70 375.92 162.66 378.23 168.56 C 380.54 174.47 382.44 182.18 383.31 189.05 C 384.17 195.92 384.23 202.57 383.43 209.76 C 382.63 216.94 381.28 225.23 378.50 232.17 C 375.73 239.10 371.92 245.36 366.78 251.37 C 361.64 257.38 354.28 263.87 347.64 268.25 C 340.99 272.63 333.97 275.20 326.91 277.65 C 319.85 280.10 312.65 282.04 305.29 282.95 C 297.93 283.87 290.27 284.22 282.75 283.14 C 275.23 282.06 267.69 279.41 260.19 276.45 C 252.69 273.49 243.73 269.36 237.76 265.41 C 231.80 261.45 228.21 257.42 224.40 252.71 C 220.58 248.01 216.82 243.07 214.90 237.15 C 212.98 231.24 213.32 223.29 212.85 217.21 C 212.39 211.12 211.78 206.23 212.09 200.66 C 212.41 195.09 212.97 188.97 214.73 183.79 C 216.49 178.61 219.66 174.07 222.67 169.58 C 225.68 165.09 228.95 160.63 232.80 156.84 C 236.64 153.05 241.78 149.83 245.76 146.87 C 249.74 143.91 252.83 141.29 256.68 139.08 C 260.52 136.87 264.55 135.43 268.82 133.62 C 273.10 131.82 276.34 128.57 282.33 128.25 C 288.33 127.92 298.00 129.91 304.79 131.66 C 311.58 133.40 317.63 135.89 323.08 138.73 C 328.53 141.58 333.37 144.72 337.49 148.73 C 341.61 152.74 344.68 157.37 347.80 162.80 C 350.91 168.22 354.43 174.68 356.18 181.26 C 357.94 187.83 358.98 195.35 358.35 202.24 C 357.72 209.13 355.17 215.83 352.42 222.59 C 349.66 229.36 345.76 236.64 341.82 242.84 C 337.88 249.03 334.69 255.21 328.79 259.76 C 322.88 264.31 313.64 267.85 306.39 270.13 C 299.15 272.40 292.27 273.24 285.32 273.41 C 278.37 273.59 271.89 273.11 264.69 271.18 C 257.48 269.26 248.77 264.48 242.10 261.86 C 235.43 259.24 230.00 257.87 224.65 255.46 C 219.30 253.05 214.59 250.42 209.99 247.39 C 205.39 244.36 201.83 240.30 197.04 237.28 C 192.24 234.27 186.05 231.56 181.21 229.32 C 176.37 227.08 172.39 225.70 168.00 223.84 C 163.62 221.98 158.98 220.17 154.90 218.17 C 150.82 216.17 147.27 213.50 143.53 211.84 C 139.80 210.18 135.65 209.77 132.46 208.20 C 129.28 206.63 127.04 204.67 124.43 202.40 C 121.81 200.13 119.13 197.58 116.80 194.58 C 114.46 191.59 112.21 187.81 110.41 184.43 C 108.62 181.04 107.30 177.31 106.03 174.29 C 104.76 171.27 103.83 169.12 102.79 166.32 C 101.75 163.52 100.73 160.15 99.79 157.50 C 98.84 154.85 98.54 152.58 97.12 150.44 C 95.69 148.31 93.29 146.48 91.23 144.68 C 89.16 142.89 86.70 141.02 84.71 139.65 C 82.72 138.28 81.35 136.35 79.29 136.45 C 77.23 136.55 74.45 139.44 72.35 140.26 C 70.25 141.08 69.10 140.68 66.70 141.37 C 64.30 142.05 60.48 143.65 57.95 144.37 C 55.41 145.09 53.39 145.99 51.49 145.69 C 49.59 145.39 47.62 143.58 46.54 142.58 C 45.46 141.57 45.86 141.15 45.01 139.67 C 44.16 138.19 41.81 136.07 41.45 133.70 C 41.09 131.34 41.86 128.54 42.87 125.49 C 43.88 122.44 45.36 118.93 47.52 115.39 C 49.68 111.84 52.00 107.79 55.85 104.22 C 59.70 100.64 65.05 97.00 70.61 93.95 C 76.18 90.90 81.74 87.83 89.23 85.92 C 96.72 84.02 107.19 82.50 115.54 82.52 C 123.89 82.54 130.92 83.96 139.33 86.07 C 147.74 88.18 157.50 91.11 166.03 95.17 C 174.56 99.23 182.63 103.73 190.53 110.42 C 198.43 117.12 207.26 127.30 213.43 135.33 C 219.60 143.35 223.84 150.31 227.53 158.57 C 231.23 166.83 234.04 176.65 235.60 184.88 C 237.17 193.10 237.69 200.83 236.94 207.94 C 236.20 215.05 234.61 221.50 231.13 227.52 C 227.64 233.53 220.67 239.80 216.02 244.04 C 211.37 248.28 207.67 250.98 203.21 252.96 C 198.75 254.94 194.42 255.57 189.25 255.90 C 184.07 256.23 177.04 256.26 172.16 254.92 C 167.29 253.58 163.34 250.93 160.01 247.88 C 156.68 244.82 154.58 240.89 152.18 236.58 C 149.78 232.27 146.02 227.61 145.61 222.03 C 145.19 216.45 147.11 208.51 149.69 203.12 C 152.27 197.74 156.30 194.12 161.09 189.72 C 165.89 185.32 172.62 180.12 178.48 176.73 C 184.33 173.35 190.00 171.42 196.21 169.42 C 202.43 167.42 209.52 165.68 215.78 164.73 C 222.03 163.78 227.05 163.36 233.74 163.71 C 240.42 164.07 249.43 164.64 255.88 166.85 C 262.33 169.07 267.60 172.11 272.41 177.00 C 277.22 181.89 281.75 189.02 284.72 196.19 C 287.69 203.36 289.49 212.36 290.22 220.00 C 290.95 227.65 290.82 235.27 289.09 242.03 C 287.36 248.80 284.22 254.72 279.84 260.61 C 275.46 266.49 268.71 273.36 262.82 277.34 C 256.92 281.32 250.67 282.92 244.47 284.50 C 238.28 286.08 231.90 286.88 225.66 286.83 C 219.43 286.78 212.39 286.39 207.06 284.23 C 201.73 282.07 197.63 277.92 193.67 273.87 C 189.71 269.82 185.61 265.35 183.31 259.92 C 181.01 254.50 180.17 247.54 179.87 241.32 C 179.57 235.11 180.42 228.39 181.52 222.64 C 182.62 216.90 182.87 211.60 186.48 206.84 C 190.09 202.08 197.39 197.29 203.18 194.06 C 208.97 190.82 214.62 188.87 221.24 187.44 C 227.86 186.01 235.02 184.81 242.90 185.49 C 250.78 186.17 261.21 188.41 268.52 191.52 C 275.82 194.62 281.95 199.46 286.75 204.12 C 291.54 208.77 294.44 213.77 297.29 219.45 C 300.13 225.12 302.48 231.58 303.83 238.18 C 305.18 244.79 305.62 252.56 305.38 259.06 C 305.14 265.56 304.38 271.14 302.39 277.17 C 300.41 283.21 297.46 290.38 293.47 295.25 C 289.48 300.13 283.91 302.92 278.45 306.43 C 272.99 309.94 267.01 314.02 260.71 316.32 C 254.41 318.61 247.29 319.18 240.63 320.20 C 233.97 321.23 226.70 321.80 220.74 322.48 C 214.77 323.17 210.43 323.71 204.86 324.31 C 199.29 324.91 192.19 325.73 187.33 326.09 C 182.48 326.44 180.10 325.63 175.74 326.43 C 171.37 327.23 165.70 329.97 161.13 330.87 C 156.56 331.76 152.44 331.74 148.29 331.82 C 144.15 331.90 140.42 331.86 136.28 331.34 C 132.13 330.81 127.46 329.50 123.44 328.68 C 119.42 327.86 115.85 327.64 112.13 326.39 C 108.41 325.15 104.46 323.40 101.13 321.20 C 97.81 319.01 94.58 316.69 92.17 313.22 C 89.76 309.75 88.11 305.06 86.66 300.40 C 85.21 295.73 83.72 290.47 83.46 285.22 C 83.19 279.96 83.41 275.47 85.10 268.86 C 86.79 262.24 89.58 252.46 93.62 245.51 C 97.66 238.57 103.53 232.62 109.36 227.18 C 115.19 221.73 122.36 216.84 128.60 212.86 C 134.84 208.89 140.23 206.31 146.80 203.30 C 153.37 200.29 160.50 196.92 168.04 194.82 C 175.58 192.72 184.60 191.30 192.04 190.70 C 199.48 190.09 205.70 190.03 212.68 191.20 C 219.65 192.36 227.07 195.17 233.90 197.68 C 240.73 200.19 247.81 202.36 253.65 206.26 C 259.48 210.16 264.39 215.87 268.91 221.07 C 273.43 226.28 277.31 230.91 280.79 237.48 C 284.26 244.05 288.04 253.77 289.77 260.51 C 291.50 267.25 291.06 272.38 291.16 277.90 C 291.26 283.43 290.30 288.31 290.38 293.65 C 290.46 299.00 291.84 304.45 291.62 309.96 C 291.41 315.47 290.47 321.34 289.07 326.71 C 287.68 332.08 285.40 337.52 283.26 342.19 C 281.12 346.86 278.50 350.33 276.22 354.71 C 273.94 359.10 272.21 364.15 269.59 368.51 C 266.97 372.86 263.53 377.31 260.49 380.85 C 257.46 384.39 254.89 387.00 251.37 389.75 C 247.86 392.49 243.48 395.59 239.42 397.33 C 235.37 399.07 232.09 400.07 227.05 400.20 C 222.01 400.33 215.03 399.82 209.19 398.11 C 203.34 396.40 197.68 392.47 191.98 389.93 C 186.28 387.39 180.05 385.28 174.98 382.88 C 169.91 380.47 165.67 378.02 161.56 375.49 C 157.45 372.97 154.61 369.83 150.32 367.74 C 146.03 365.64 140.48 364.44 135.82 362.92 C 131.16 361.41 126.14 359.37 122.36 358.64 C 118.58 357.92 116.29 358.28 113.13 358.58 C 109.97 358.88 106.53 358.98 103.40 360.45 C 100.27 361.92 97.18 365.37 94.33 367.41 C 91.48 369.46 88.76 371.37 86.28 372.71 C 83.81 374.04 81.84 374.72 79.47 375.43 C 77.09 376.14 74.56 376.76 72.03 376.97 C 69.51 377.19 66.81 376.68 64.32 376.71 C 61.84 376.73 58.99 377.25 57.11 377.12 C 55.22 376.99 54.75 376.83 53.02 375.92 C 51.29 375.00 48.90 373.67 46.74 371.62 C 44.58 369.57 41.60 367.51 40.04 363.62 C 38.48 359.73 38.16 353.18 37.39 348.28 C 36.61 343.37 35.71 340.24 35.40 334.21 C 35.09 328.18 34.33 319.65 35.54 312.10 C 36.76 304.55 39.88 296.01 42.71 288.91 C 45.54 281.81 49.47 276.13 52.53 269.50 C 55.58 262.87 57.74 255.86 61.05 249.12 C 64.35 242.39 69.31 235.34 72.34 229.09 C 75.37 222.83 77.53 217.25 79.21 211.60 C 80.88 205.95 81.27 200.40 82.36 195.18 C 83.46 189.96 85.35 184.68 85.78 180.27 C 86.20 175.87 85.66 171.66 84.90 168.74 C 84.15 165.83 83.21 164.15 81.25 162.81 C 79.29 161.47 75.82 161.14 73.16 160.70 C 70.51 160.26 68.02 160.01 65.32 160.16 C 62.61 160.31 59.47 160.13 56.93 161.60 C 54.39 163.08 52.30 166.00 50.08 169.00 C 47.86 172.00 45.60 175.50 43.60 179.61 C 41.61 183.72 39.40 188.17 38.09 193.66 C 36.77 199.15 35.99 206.53 35.70 212.56 C 35.42 218.59 35.39 223.70 36.36 229.87 C 37.33 236.03 38.47 243.32 41.55 249.56 C 44.63 255.79 49.23 261.91 54.83 267.29 C 60.43 272.67 67.92 277.41 75.15 281.85 C 82.38 286.30 90.09 289.94 98.22 293.96 C 106.35 297.98 115.68 302.74 123.93 305.95 C 132.19 309.17 139.32 312.03 147.77 313.25 C 156.22 314.48 166.36 314.65 174.62 313.32 C 182.89 311.99 190.16 309.05 197.37 305.27 C 204.58 301.48 211.92 295.93 217.88 290.61 C 223.84 285.29 229.42 280.22 233.11 273.35 C 236.80 266.48 239.20 256.59 240.04 249.41 C 240.87 242.22 239.37 235.80 238.12 230.24 C 236.88 224.67 235.83 220.31 232.55 216.00 C 229.27 211.69 223.40 207.78 218.43 204.37 C 213.46 200.95 207.76 197.30 202.72 195.50 C 197.68 193.70 192.87 192.50 188.17 193.56 C 183.48 194.63 178.63 197.95 174.54 201.88 C 170.44 205.82 166.70 211.87 163.62 217.17 C 160.53 222.46 157.93 227.73 156.02 233.65 C 154.11 239.57 152.63 246.13 152.15 252.68 C 151.68 259.22 152.29 266.36 153.17 272.89 C 154.05 279.43 154.93 285.14 157.43 291.89 C 159.93 298.64 163.68 307.61 168.15 313.38 C 172.62 319.16 179.07 322.72 184.26 326.55 C 189.44 330.38 193.97 333.93 199.25 336.35 C 204.54 338.78 209.71 340.28 215.97 341.09 C 222.24 341.91 230.15 341.59 236.84 341.23 C 243.53 340.87 250.00 340.52 256.12 338.93 C 262.24 337.33 268.02 334.97 273.59 331.66 C 279.15 328.35 284.40 323.64 289.51 319.07 C 294.61 314.49 300.12 309.43 304.21 304.22 C 308.31 299.02 311.18 293.24 314.09 287.83 C 317.00 282.41 320.14 277.48 321.66 271.74 C 323.19 265.99 322.27 259.91 323.25 253.36 C 324.23 246.80 325.98 238.51 327.54 232.39 C 329.09 226.28 330.70 221.42 332.58 216.66 C 334.46 211.90 336.45 207.99 338.79 203.80 C 341.13 199.62 344.19 195.26 346.62 191.56 C 349.06 187.86 351.06 185.39 353.39 181.58 C 355.72 177.76 358.73 172.33 360.60 168.67 C 362.46 165.01 363.22 163.08 364.58 159.60 C 365.94 156.11 367.60 151.37 368.75 147.75 C 369.91 144.13 370.93 141.62 371.49 137.86 C 372.06 134.10 372.96 129.11 372.15 125.17 C 371.34 121.22 368.91 117.78 366.64 114.18 C 364.37 110.57 362.46 107.64 358.53 103.53 C 354.60 99.43 347.82 93.19 343.07 89.56 C 338.31 85.93 334.99 83.66 330.02 81.75 C 325.06 79.84 318.13 79.87 313.28 78.12 C 308.43 76.37 305.58 72.94 300.94 71.25 C 296.29 69.57 290.57 68.98 285.41 68.02 C 280.24 67.06 275.64 65.85 269.97 65.49 C 264.30 65.14 256.77 65.78 251.38 65.88 C 245.99 65.98 242.01 66.15 237.63 66.10 C 233.25 66.04 229.07 66.48 225.11 65.55 C 221.15 64.63 216.62 62.21 213.88 60.56 C 211.14 58.91 209.85 57.36 208.69 55.64 C 207.53 53.93 206.55 52.05 206.93 50.26 C 207.30 48.47 209.03 46.63 210.93 44.92 C 212.83 43.21 215.06 41.49 218.32 40.00 C 221.58 38.51 225.92 36.45 230.49 35.96 C 235.06 35.47 240.59 36.46 245.76 37.05 C 250.92 37.63 256.16 38.14 261.49 39.46 C 266.81 40.78 271.90 42.59 277.72 44.98 C 283.54 47.37 290.27 50.79 296.39 53.81 C 302.50 56.83 308.93 59.36 314.41 63.10 C 319.88 66.85 324.60 71.35 329.24 76.28 C 333.89 81.22 338.53 86.73 342.28 92.71 C 346.03 98.69 348.39 104.41 351.72 112.19 C 355.05 119.96 359.69 130.83 362.25 139.35 C 364.81 147.86 366.35 155.05 367.07 163.28 C 367.79 171.51 367.16 180.51 366.58 188.72 C 366.00 196.94 365.09 204.97 363.59 212.57 C 362.09 220.17 360.13 227.69 357.55 234.33 C 354.97 240.98 352.08 246.32 348.12 252.45 C 344.15 258.58 339.18 265.63 333.77 271.11 C 328.36 276.58 321.61 281.21 315.65 285.30 C 309.69 289.39 304.62 292.92 298.02 295.64 C 291.42 298.36 283.03 300.64 276.04 301.61 C 269.05 302.58 262.69 302.88 256.09 301.47 C 249.48 300.06 242.85 296.87 236.41 293.15 C 229.97 289.44 222.86 283.68 217.43 279.17 C 212.00 274.66 207.24 271.10 203.84 266.11 C 200.45 261.13 198.78 254.64 197.08 249.24 C 195.39 243.85 194.61 239.17 193.68 233.72 C 192.75 228.27 191.37 222.56 191.51 216.55 C 191.65 210.55 192.94 203.31 194.52 197.69 C 196.11 192.07 197.88 187.72 201.02 182.83 C 204.15 177.94 208.75 172.41 213.33 168.36 C 217.91 164.31 223.07 161.04 228.51 158.52 C 233.96 156.00 239.69 154.45 245.99 153.23 C 252.29 152.01 259.89 151.19 266.31 151.20 C 272.73 151.21 278.24 151.79 284.53 153.29 C 290.81 154.79 297.99 157.32 304.04 160.21 C 310.10 163.10 315.71 167.03 320.85 170.65 C 325.99 174.26 330.72 177.81 334.90 181.89 C 339.08 185.98 343.24 189.90 345.94 195.13 C 348.64 200.37 349.09 207.27 351.11 213.28 C 353.12 219.30 356.86 225.00 358.02 231.22 C 359.19 237.44 358.89 244.04 358.10 250.58 C 357.31 257.12 355.61 264.00 353.29 270.46 C 350.98 276.92 347.99 284.06 344.22 289.36 C 340.46 294.65 335.92 298.38 330.71 302.20 C 325.50 306.03 319.42 309.28 312.95 312.30 C 306.47 315.33 299.38 318.46 291.87 320.38 C 284.35 322.30 275.35 323.37 267.84 323.83 C 260.32 324.28 252.88 323.32 246.78 323.12 C 240.67 322.92 236.71 323.41 231.21 322.64 C 225.71 321.87 219.60 319.91 213.75 318.50 C 207.91 317.09 201.78 315.20 196.12 314.18 C 190.47 313.16 184.72 312.95 179.84 312.37 C 174.96 311.79 171.29 311.32 166.83 310.70 C 162.37 310.09 157.75 310.19 153.10 308.68 C 148.46 307.16 143.13 304.22 138.97 301.62 C 134.80 299.02 131.51 295.94 128.10 293.07 C 124.69 290.20 121.88 287.39 118.51 284.41 C 115.15 281.44 111.35 278.91 107.90 275.20 C 104.46 271.49 100.59 266.31 97.84 262.13 C 95.08 257.95 92.50 255.06 91.39 250.11 C 90.28 245.16 91.09 237.98 91.17 232.43 C 91.25 226.89 90.51 221.97 91.86 216.84 C 93.22 211.71 96.67 206.85 99.33 201.66 C 101.98 196.48 104.61 190.86 107.81 185.71 C 111.02 180.57 114.15 175.38 118.54 170.81 C 122.94 166.23 128.25 161.83 134.20 158.26 C 140.15 154.69 147.41 151.65 154.25 149.37 C 161.09 147.10 168.11 145.38 175.24 144.61 C 182.38 143.84 189.63 143.60 197.03 144.74 C 204.44 145.87 211.80 148.32 219.68 151.40 C 227.56 154.49 236.94 159.41 244.32 163.24 C 251.70 167.06 258.16 169.84 263.98 174.37 C 269.80 178.91 274.75 184.90 279.24 190.44 C 283.73 195.97 287.41 201.55 290.92 207.58 C 294.43 213.61 297.50 220.24 300.32 226.62 C 303.13 233.00 305.30 240.04 307.82 245.85 C 310.34 251.67 313.28 255.88 315.43 261.49 C 317.58 267.10 318.95 273.39 320.74 279.52 C 322.52 285.65 325.10 292.67 326.14 298.27 C 327.18 303.88 327.43 308.00 326.99 313.15 C 326.54 318.31 324.65 324.09 323.48 329.19 C 322.31 334.30 322.52 339.10 319.95 343.79 C 317.38 348.49 312.35 353.74 308.06 357.36 C 303.77 360.98 299.48 363.24 294.22 365.52 C 288.95 367.81 282.98 369.55 276.45 371.07 C 269.91 372.58 261.89 374.05 255.00 374.60 C 248.12 375.16 241.07 374.35 235.15 374.43 C 229.23 374.50 224.67 374.92 219.49 375.06 C 214.31 375.20 209.14 375.26 204.07 375.28 C 199.00 375.30 193.46 374.67 189.09 375.18 C 184.71 375.70 181.46 376.91 177.79 378.39 C 174.13 379.88 170.53 382.15 167.08 384.11 C 163.64 386.08 160.19 387.69 157.12 390.17 C 154.04 392.65 150.84 396.15 148.62 398.99 C 146.40 401.83 144.63 404.06 143.81 407.23 C 142.98 410.39 143.31 414.66 143.67 417.99 C 144.02 421.32 144.42 424.03 145.95 427.21 C 147.47 430.39 149.79 434.18 152.82 437.08 C 155.85 439.98 159.83 442.18 164.14 444.61 C 168.44 447.04 173.45 450.03 178.64 451.67 C 183.83 453.31 189.46 454.14 195.27 454.47 C 201.08 454.81 207.57 453.91 213.48 453.68 C 219.40 453.46 224.85 454.01 230.75 453.13 C 236.64 452.26 242.70 450.64 248.86 448.43 C 255.02 446.22 261.02 444.09 267.71 439.87 C 274.41 435.64 282.54 428.67 289.03 423.07 C 295.52 417.46 301.55 412.82 306.65 406.22 C 311.74 399.62 316.53 391.12 319.60 383.48 C 322.67 375.83 324.09 368.51 325.08 360.36 C 326.08 352.22 326.41 342.96 325.58 334.61 C 324.76 326.26 322.66 317.86 320.14 310.28 C 317.63 302.71 314.48 295.62 310.50 289.16 C 306.51 282.70 301.47 276.84 296.22 271.54 C 290.97 266.24 284.98 261.52 278.98 257.36 C 272.98 253.21 266.27 249.65 260.23 246.60 C 254.20 243.56 248.74 241.87 242.77 239.09 C 236.79 236.32 230.54 233.56 224.40 229.96 C 218.25 226.36 211.03 221.33 205.89 217.48 C 200.75 213.63 197.28 210.43 193.55 206.85 C 189.82 203.28 186.95 199.05 183.51 196.02 C 180.08 193.00 176.38 190.92 172.94 188.70 C 169.49 186.48 166.76 183.94 162.84 182.70 C 158.93 181.47 153.76 181.44 149.47 181.31 C 145.18 181.18 140.97 180.99 137.11 181.93 C 133.25 182.86 129.78 184.36 126.30 186.92 C 122.83 189.48 119.18 193.08 116.24 197.28 C 113.30 201.47 110.70 206.85 108.65 212.11 C 106.59 217.36 105.78 223.53 103.90 228.79 C 102.02 234.05 99.44 238.67 97.36 243.68 C 95.27 248.69 93.17 254.48 91.41 258.85 C 89.65 263.23 88.42 266.71 86.79 269.90 C 85.16 273.09 83.09 275.03 81.62 277.99 C 80.16 280.94 79.30 284.17 77.98 287.61 C 76.66 291.05 74.93 295.71 73.70 298.62 C 72.48 301.54 71.84 302.50 70.64 305.10 C 69.44 307.70 67.77 311.14 66.49 314.20 C 65.22 317.26 63.50 320.26 63.00 323.45 C 62.51 326.63 63.68 329.67 63.50 333.30 C 63.32 336.93 61.95 341.27 61.94 345.22 C 61.93 349.18 63.16 353.81 63.46 357.02 C 63.75 360.23 63.62 361.63 63.71 364.46 C 63.80 367.29 64.98 371.28 64.01 374.01 C 63.04 376.75 59.63 379.25 57.88 380.86 C 56.13 382.47 55.54 383.54 53.51 383.67 C 51.48 383.80 48.32 383.19 45.69 381.64 C 43.07 380.10 39.88 376.37 37.75 374.39 C 35.61 372.41 35.03 371.71 32.89 369.77 C 30.75 367.83 26.86 365.24 24.90 362.75 C 22.95 360.27 22.63 357.63 21.15 354.84 C 19.67 352.04 17.52 348.09 16.02 345.98 C 14.52 343.87 13.70 342.72 12.13 342.18 C 10.56 341.63 8.25 342.56 6.60 342.72 C 4.94 342.89 2.05 343.08 2.20 343.15 C 2.35 343.21 1.31 343.02 7.49 343.12 C 13.66 343.22 28.25 343.41 39.24 343.73 C 50.23 344.05 63.07 344.13 73.44 345.05 C 83.80 345.97 92.83 347.46 101.44 349.27 C 110.05 351.07 117.41 353.74 125.11 355.87 C 132.80 357.99 140.66 359.43 147.60 362.01 C 154.54 364.59 160.85 368.13 166.75 371.33 C 172.65 374.54 178.71 378.28 183.02 381.23 C 187.33 384.19 190.41 385.82 192.62 389.04 C 194.84 392.27 195.37 397.24 196.33 400.56 C 197.29 403.89 198.43 405.99 198.39 408.99 C 198.34 411.99 198.44 415.97 196.05 418.54 C 193.67 421.11 187.62 423.13 184.08 424.40 C 180.54 425.67 177.60 426.04 174.80 426.16 C 172.00 426.29 170.19 425.36 167.30 425.17 C 164.41 424.98 160.20 424.37 157.46 425.02 C 154.71 425.68 152.93 427.58 150.83 429.09 C 148.73 430.61 146.46 432.48 144.85 434.12 C 143.25 435.77 142.22 436.95 141.21 438.96 C 140.19 440.96 138.63 444.03 138.79 446.18 C 138.95 448.33 140.06 449.80 142.18 451.85 C 144.30 453.90 147.84 456.64 151.53 458.48 C 155.22 460.33 158.73 462.00 164.32 462.90 C 169.91 463.80 177.42 464.59 185.08 463.89 C 192.74 463.20 202.73 461.34 210.27 458.73 C 217.81 456.13 223.96 452.90 230.32 448.25 C 236.67 443.61 242.46 436.97 248.41 430.88 C 254.35 424.79 261.04 418.67 265.99 411.73 C 270.95 404.79 275.18 397.08 278.13 389.24 C 281.08 381.40 282.92 373.03 283.67 364.70 C 284.42 356.37 284.25 347.12 282.63 339.26 C 281.01 331.39 276.94 324.56 273.96 317.51 C 270.97 310.45 268.67 303.04 264.71 296.94 C 260.76 290.85 255.34 285.46 250.21 280.96 C 245.08 276.46 239.16 272.67 233.91 269.94 C 228.67 267.21 224.53 266.21 218.74 264.55 C 212.95 262.89 205.29 259.75 199.19 259.98 C 193.08 260.21 187.01 263.46 182.11 265.91 C 177.22 268.36 173.65 271.21 169.83 274.71 C 166.01 278.20 162.72 282.83 159.19 286.86 C 155.66 290.90 151.60 295.24 148.64 298.93 C 145.68 302.61 143.74 305.78 141.44 308.97 C 139.15 312.17 137.11 315.60 134.85 318.09 C 132.58 320.58 130.82 321.95 127.86 323.92 C 124.89 325.89 119.90 328.31 117.05 329.92 C 114.21 331.54 113.20 332.71 110.80 333.58 C 108.39 334.46 105.67 334.42 102.63 335.17 C 99.58 335.92 95.82 338.34 92.51 338.07 C 89.20 337.80 85.66 335.99 82.76 333.54 C 79.87 331.08 77.67 327.30 75.13 323.33 C 72.59 319.37 69.61 314.55 67.52 309.76 C 65.43 304.96 63.88 299.59 62.60 294.59 C 61.31 289.58 60.00 285.04 59.82 279.72 C 59.64 274.40 61.22 268.18 61.50 262.68 C 61.77 257.17 61.51 251.60 61.47 246.67 C 61.43 241.74 61.41 237.37 61.24 233.08 C 61.06 228.80 60.54 225.09 60.42 220.96 C 60.30 216.83 60.65 212.30 60.51 208.27 C 60.37 204.25 60.23 200.25 59.57 196.83 C 58.92 193.41 57.86 190.36 56.59 187.74 C 55.33 185.13 53.29 183.02 51.97 181.15 C 50.65 179.27 49.66 178.45 48.69 176.48 C 47.71 174.51 46.85 171.84 46.13 169.34 C 45.40 166.85 44.56 164.31 44.35 161.52 C 44.14 158.74 44.44 155.71 44.86 152.64 C 45.28 149.56 46.13 146.10 46.88 143.06 C 47.63 140.02 48.31 137.78 49.36 134.39 C 50.42 130.99 51.93 126.22 53.21 122.68 C 54.49 119.14 56.18 115.99 57.03 113.15 C 57.88 110.31 58.15 107.76 58.30 105.65 C 58.45 103.55 58.57 101.59 57.93 100.52 C 57.30 99.45 56.49 99.30 54.48 99.25 C 52.48 99.20 48.33 98.76 45.91 100.21 C 43.50 101.67 42.14 104.63 39.99 107.97 C 37.85 111.32 35.10 115.49 33.04 120.28 C 30.98 125.07 28.67 130.96 27.63 136.72 C 26.59 142.48 26.33 147.98 26.81 154.84 C 27.30 161.71 28.31 170.41 30.52 177.92 C 32.72 185.43 36.42 192.41 40.05 199.89 C 43.68 207.37 46.83 215.95 52.31 222.81 C 57.79 229.68 65.76 235.40 72.93 241.08 C 80.10 246.76 87.47 252.53 95.31 256.89 C 103.15 261.25 110.32 264.57 119.95 267.24 C 129.58 269.91 143.06 272.94 153.09 272.91 C 163.12 272.87 172.28 270.14 180.13 267.02 C 187.98 263.91 194.26 258.80 200.16 254.21 C 206.07 249.62 211.39 244.63 215.56 239.49 C 219.73 234.35 222.30 228.62 225.17 223.37 C 228.04 218.12 230.73 213.21 232.80 208.01 C 234.88 202.80 236.62 197.53 237.62 192.16 C 238.61 186.80 238.20 181.03 238.78 175.81 C 239.35 170.60 240.32 165.52 241.07 160.87 C 241.82 156.22 242.51 152.36 243.29 147.92 C 244.07 143.47 244.86 138.51 245.76 134.21 C 246.66 129.90 247.12 126.01 248.71 122.07 C 250.30 118.14 252.89 113.70 255.29 110.58 C 257.69 107.46 259.87 105.45 263.11 103.37 C 266.35 101.28 270.71 99.35 274.71 98.08 C 278.72 96.80 282.61 96.02 287.13 95.71 C 291.65 95.39 296.59 95.04 301.85 96.18 C 307.11 97.33 313.49 100.24 318.68 102.57 C 323.88 104.90 328.54 107.00 333.04 110.16 C 337.54 113.31 341.77 116.38 345.67 121.51 C 349.58 126.64 353.87 133.70 356.47 140.94 C 359.08 148.18 360.40 156.94 361.29 164.96 C 362.17 172.98 362.95 181.04 361.79 189.04 C 360.64 197.03 357.50 204.76 354.35 212.93 C 351.20 221.10 346.79 230.65 342.89 238.05 C 338.98 245.45 334.56 251.48 330.92 257.32 C 327.28 263.16 324.67 267.60 321.03 273.11 C 317.39 278.62 313.07 284.59 309.06 290.37 C 305.05 296.15 300.52 302.86 296.99 307.79 C 293.46 312.72 290.51 315.17 287.90 319.94 C 285.29 324.71 282.71 331.25 281.33 336.40 C 279.95 341.55 278.85 346.25 279.63 350.84 C 280.42 355.44 283.31 360.42 286.04 363.95 C 288.77 367.48 292.10 370.46 296.02 372.04 C 299.93 373.63 304.60 374.16 309.54 373.46 C 314.48 372.76 320.15 371.34 325.68 367.83 C 331.21 364.33 338.39 358.48 342.70 352.43 C 347.00 346.38 349.50 338.70 351.50 331.53 C 353.51 324.36 354.94 316.57 354.73 309.42 C 354.52 302.28 352.69 295.50 350.23 288.67 C 347.76 281.84 344.36 274.38 339.92 268.46 C 335.48 262.54 329.56 256.74 323.56 253.14 C 317.57 249.53 310.93 247.90 303.93 246.85 C 296.93 245.80 288.83 245.90 281.59 246.83 C 274.34 247.77 266.97 250.10 260.44 252.46 C 253.90 254.81 247.81 258.36 242.37 260.97 C 236.93 263.58 232.76 265.75 227.78 268.11 C 222.80 270.47 217.86 272.70 212.49 275.12 C 207.11 277.54 200.51 280.66 195.51 282.63 C 190.51 284.59 187.00 286.04 182.49 286.92 C 177.97 287.80 173.08 288.31 168.41 287.92 C 163.74 287.54 158.82 286.38 154.49 284.61 C 150.16 282.84 146.09 280.14 142.42 277.29 C 138.75 274.45 135.25 271.40 132.47 267.54 C 129.70 263.68 127.77 258.62 125.76 254.13 C 123.74 249.64 121.96 245.43 120.38 240.59 C 118.80 235.76 116.64 230.49 116.29 225.09 C 115.93 219.69 116.87 213.65 118.24 208.19 C 119.61 202.74 121.13 198.15 124.50 192.37 C 127.87 186.60 133.34 178.25 138.46 173.54 C 143.58 168.82 149.15 166.61 155.23 164.09 C 161.30 161.57 167.73 159.09 174.92 158.43 C 182.12 157.76 190.87 158.40 198.39 160.08 C 205.91 161.75 212.79 165.00 220.05 168.46 C 227.31 171.92 234.88 176.89 241.96 180.83 C 249.05 184.78 256.41 188.03 262.57 192.14 C 268.73 196.25 273.71 201.34 278.91 205.49 C 284.11 209.64 288.87 213.81 293.77 217.04 C 298.66 220.27 303.07 222.61 308.28 224.88 C 313.48 227.15 319.65 229.25 324.99 230.67 C 330.33 232.09 335.39 232.09 340.30 233.39 C 345.21 234.69 350.24 236.84 354.44 238.50 C 358.63 240.16 361.86 241.33 365.48 243.35 C 369.09 245.37 373.41 247.06 376.14 250.62 C 378.86 254.18 380.09 260.54 381.83 264.69 C 383.58 268.84 385.61 271.12 386.60 275.52 C 387.59 279.93 387.93 285.81 387.78 291.12 C 387.62 296.42 386.74 302.06 385.69 307.36 C 384.63 312.67 382.90 317.76 381.45 322.95 C 379.99 328.14 378.45 333.62 376.96 338.51 C 375.48 343.39 374.26 347.73 372.53 352.23 C 370.79 356.73 367.76 361.39 366.54 365.51 C 365.33 369.63 366.09 372.79 365.25 376.94 C 364.40 381.08 362.03 386.69 361.46 390.37 C 360.88 394.06 361.07 396.05 361.80 399.05 C 362.53 402.04 363.90 406.13 365.85 408.36 C 367.79 410.59 370.65 411.72 373.45 412.42 C 376.25 413.12 378.94 413.32 382.64 412.57 C 386.33 411.82 391.75 410.63 395.63 407.91 C 399.51 405.18 402.74 400.75 405.92 396.23 C 409.10 391.71 412.48 386.15 414.71 380.80 C 416.93 375.45 418.01 369.71 419.27 364.14 C 420.53 358.57 421.63 353.71 422.26 347.39 C 422.89 341.07 422.65 333.42 423.04 326.21 C 423.43 319.00 424.23 311.68 424.58 304.12 C 424.93 296.57 425.15 287.61 425.14 280.89 C 425.13 274.17 424.20 269.48 424.52 263.79 C 424.84 258.10 425.83 251.55 427.05 246.77 C 428.27 241.99 430.55 239.13 431.83 235.11 C 433.11 231.09 433.64 226.10 434.76 222.68 C 435.87 219.27 436.94 217.13 438.52 214.63 C 440.09 212.12 441.90 209.07 444.21 207.63 C 446.52 206.19 450.05 205.92 452.38 205.99 C 454.71 206.07 456.18 206.95 458.18 208.07 C 460.18 209.20 462.53 211.13 464.37 212.73 C 466.21 214.34 467.42 215.62 469.22 217.69 C 471.02 219.77 473.11 222.58 475.19 225.21 C 477.27 227.83 479.79 231.08 481.69 233.44 C 483.60 235.80 485.29 237.66 486.62 239.35 C 487.95 241.05 488.37 242.32 489.68 243.61 C 490.99 244.90 492.82 246.33 494.49 247.11 C 496.15 247.89 497.96 248.54 499.64 248.29 C 501.32 248.04 502.69 246.73 504.58 245.60 C 506.46 244.48 511.06 243.14 510.96 241.53 C 510.85 239.93 510.85 237.10 503.95 235.96 C 497.06 234.81 480.58 234.50 469.59 234.67 C 458.60 234.84 448.13 235.95 438.01 236.97 C 427.89 238.00 418.45 239.13 408.87 240.82 C 399.29 242.50 390.52 244.61 380.53 247.05 C 370.55 249.50 357.70 252.62 348.94 255.51 C 340.18 258.41 334.80 261.32 327.99 264.43 C 321.19 267.53 314.94 271.36 308.11 274.13 C 301.27 276.90 293.78 278.66 287.00 281.06 C 280.22 283.46 273.66 286.90 267.43 288.52 C 261.20 290.13 255.93 290.63 249.62 290.75 C 243.31 290.87 235.69 290.47 229.58 289.22 C 223.47 287.97 218.40 284.77 212.95 283.26 C 207.50 281.74 201.80 281.94 196.88 280.16 C 191.95 278.38 187.34 276.06 183.38 272.56 C 179.42 269.06 175.90 264.31 173.13 259.17 C 170.35 254.03 168.54 247.88 166.72 241.71 C 164.89 235.53 162.96 228.00 162.16 222.13 C 161.36 216.27 161.48 211.86 161.90 206.52 C 162.32 201.19 163.00 195.20 164.67 190.10 C 166.35 185.01 169.09 180.71 171.93 175.95 C 174.77 171.19 177.80 166.09 181.72 161.52 C 185.64 156.94 191.25 152.54 195.46 148.50 C 199.66 144.46 203.22 141.04 206.95 137.29 C 210.68 133.55 214.78 129.64 217.84 126.03 C 220.90 122.42 222.66 119.01 225.29 115.62 C 227.92 112.23 231.18 109.46 233.63 105.70 C 236.07 101.93 238.58 96.53 239.95 93.03 C 241.32 89.53 242.21 88.06 241.82 84.69 C 241.44 81.32 239.80 75.41 237.64 72.81 C 235.48 70.22 232.64 70.22 228.85 69.13 C 225.05 68.03 219.52 66.12 214.87 66.25 C 210.22 66.39 205.76 68.91 200.92 69.96 C 196.09 71.01 191.02 70.95 185.86 72.56 C 180.70 74.17 175.17 76.28 169.98 79.62 C 164.79 82.96 159.34 88.17 154.72 92.60 C 150.09 97.03 146.32 101.13 142.26 106.21 C 138.19 111.30 133.39 116.68 130.32 123.09 C 127.25 129.51 125.35 137.28 123.83 144.71 C 122.31 152.14 120.94 158.99 121.21 167.67 C 121.48 176.35 123.88 188.30 125.44 196.77 C 127.00 205.24 128.18 211.13 130.59 218.51 C 132.99 225.89 136.18 233.79 139.86 241.05 C 143.55 248.31 148.23 255.83 152.72 262.08 C 157.21 268.32 161.62 273.78 166.81 278.51 C 171.99 283.25 178.03 286.58 183.81 290.48 C 189.60 294.39 195.49 298.87 201.54 301.94 C 207.58 305.02 213.43 307.01 220.08 308.92 C 226.74 310.83 234.50 312.85 241.46 313.41 C 248.41 313.98 255.33 313.15 261.84 312.33 C 268.34 311.50 274.58 309.71 280.50 308.47 C 286.42 307.23 291.17 306.38 297.36 304.89 C 303.54 303.41 311.59 300.55 317.64 299.55 C 323.68 298.54 328.29 298.47 333.61 298.88 C 338.92 299.29 345.10 300.64 349.53 302.00 C 353.96 303.35 357.00 304.89 360.19 306.99 C 363.38 309.09 365.97 311.67 368.66 314.59 C 371.34 317.52 373.98 321.67 376.30 324.55 C 378.62 327.43 380.44 329.17 382.56 331.88 C 384.69 334.59 386.91 338.39 389.03 340.81 C 391.16 343.23 392.94 344.23 395.33 346.41 C 397.73 348.60 400.74 352.17 403.43 353.92 C 406.12 355.67 408.50 356.10 411.46 356.91 C 414.43 357.72 418.26 358.15 421.22 358.77 C 424.17 359.40 427.09 359.82 429.19 360.65 C 431.28 361.49 432.41 362.35 433.78 363.78 C 435.16 365.22 436.36 366.90 437.44 369.24 C 438.53 371.59 440.35 374.66 440.29 377.86 C 440.22 381.06 439.09 384.87 437.06 388.44 C 435.02 392.00 431.76 395.90 428.06 399.25 C 424.36 402.60 419.56 405.85 414.88 408.55 C 410.19 411.25 405.57 413.27 399.95 415.46 C 394.32 417.64 387.23 420.12 381.13 421.64 C 375.03 423.15 369.78 424.02 363.35 424.54 C 356.91 425.05 349.71 425.84 342.50 424.74 C 335.30 423.63 328.39 421.59 320.11 417.90 C 311.82 414.21 300.42 407.79 292.79 402.60 C 285.17 397.42 279.78 392.79 274.34 386.78 C 268.89 380.78 265.08 372.85 260.12 366.57 C 255.16 360.29 249.61 354.71 244.57 349.11 C 239.52 343.50 234.80 337.42 229.86 332.92 C 224.93 328.42 219.89 325.78 214.95 322.11 C 210.02 318.45 205.19 313.99 200.26 310.93 C 195.32 307.87 189.76 307.05 185.34 303.76 C 180.91 300.47 177.49 295.21 173.70 291.19 C 169.91 287.16 166.25 283.54 162.60 279.61 C 158.96 275.67 154.86 271.82 151.85 267.58 C 148.84 263.34 146.88 259.76 144.52 254.16 C 142.17 248.56 139.14 239.89 137.71 233.98 C 136.29 228.06 135.54 224.25 135.96 218.65 C 136.38 213.04 137.41 206.27 140.23 200.35 C 143.04 194.42 148.49 188.23 152.84 183.10 C 157.19 177.97 160.74 173.00 166.33 169.55 C 171.91 166.11 179.66 163.86 186.35 162.42 C 193.03 160.99 199.62 160.90 206.43 160.95 C 213.24 161.00 220.62 161.62 227.21 162.71 C 233.81 163.81 239.81 164.19 245.99 167.51 C 252.18 170.84 258.67 177.26 264.32 182.67 C 269.97 188.09 276.36 193.55 279.88 199.99 C 283.40 206.44 285.04 213.50 285.43 221.35 C 285.81 229.20 283.97 239.87 282.19 247.10 C 280.41 254.34 277.82 259.02 274.75 264.76 C 271.67 270.50 268.25 276.63 263.76 281.56 C 259.27 286.48 252.94 291.03 247.82 294.31 C 242.69 297.59 237.87 298.78 233.02 301.24 C 228.17 303.71 223.81 307.30 218.72 309.10 C 213.62 310.91 207.60 310.86 202.44 312.07 C 197.28 313.27 192.43 315.24 187.75 316.35 C 183.07 317.45 178.63 317.59 174.35 318.67 C 170.07 319.75 166.65 321.69 162.08 322.80 C 157.51 323.91 151.41 324.42 146.94 325.32 C 142.47 326.22 139.09 325.97 135.27 328.20 C 131.46 330.42 126.90 335.50 124.05 338.66 C 121.20 341.81 119.45 343.57 118.17 347.14 C 116.89 350.71 116.31 355.81 116.39 360.08 C 116.46 364.34 117.04 368.75 118.62 372.73 C 120.20 376.70 122.36 380.16 125.86 383.93 C 129.37 387.70 134.11 392.16 139.66 395.35 C 145.21 398.55 152.21 401.47 159.15 403.12 C 166.09 404.76 174.02 405.07 181.28 405.20 C 188.55 405.33 195.66 405.42 202.74 403.90 C 209.82 402.39 216.57 399.76 223.76 396.13 C 230.95 392.49 239.06 387.79 245.88 382.10 C 252.70 376.41 259.23 368.98 264.70 361.96 C 270.18 354.94 274.52 347.19 278.74 339.97 C 282.96 332.76 287.05 325.61 290.01 318.66 C 292.97 311.72 293.97 304.82 296.51 298.31 C 299.04 291.81 302.23 285.74 305.22 279.63 C 308.21 273.53 311.47 267.79 314.45 261.69 C 317.42 255.60 320.10 248.52 323.07 243.07 C 326.04 237.62 328.99 233.01 332.28 229.00 C 335.57 224.98 338.95 221.31 342.82 218.97 C 346.69 216.63 351.46 215.54 355.50 214.94 C 359.54 214.34 363.25 214.14 367.07 215.36 C 370.88 216.59 375.06 219.06 378.40 222.29 C 381.74 225.52 384.95 229.56 387.10 234.73 C 389.24 239.91 390.89 247.27 391.28 253.34 C 391.66 259.42 389.96 265.25 389.39 271.16 C 388.83 277.07 389.66 282.91 387.88 288.78 C 386.10 294.64 383.06 300.78 378.74 306.35 C 374.41 311.92 368.23 317.91 361.93 322.18 C 355.62 326.46 348.14 329.90 340.91 332.02 C 333.68 334.14 325.87 334.87 318.54 334.91 C 311.21 334.96 303.99 334.72 296.92 332.29 C 289.85 329.86 282.20 324.72 276.12 320.33 C 270.05 315.93 265.81 310.60 260.48 305.94 C 255.15 301.28 248.77 298.24 244.12 292.37 C 239.47 286.49 234.69 278.08 232.58 270.72 C 230.48 263.36 230.34 255.06 231.51 248.22 C 232.67 241.39 236.97 235.70 239.58 229.69 C 242.20 223.69 243.64 217.51 247.18 212.21 C 250.72 206.91 256.77 201.99 260.81 197.88 C 264.84 193.77 267.58 190.83 271.39 187.55 C 275.20 184.28 279.32 181.43 283.68 178.23 C 288.05 175.04 293.87 171.80 297.60 168.38 C 301.32 164.96 303.41 161.33 306.04 157.71 C 308.66 154.09 311.08 150.15 313.34 146.65 C 315.61 143.15 318.34 140.19 319.65 136.71 C 320.95 133.23 320.93 129.61 321.17 125.77 C 321.41 121.92 321.59 117.56 321.09 113.65 C 320.59 109.73 319.80 105.60 318.17 102.27 C 316.54 98.94 314.09 96.59 311.30 93.68 C 308.51 90.76 304.45 87.42 301.45 84.78 C 298.44 82.14 296.59 80.04 293.29 77.83 C 289.99 75.63 284.64 73.88 281.66 71.56 C 278.67 69.24 277.28 66.29 275.37 63.91 C 273.45 61.52 271.63 59.56 270.18 57.26 C 268.73 54.95 267.73 52.47 266.68 50.08 C 265.62 47.70 264.31 45.23 263.85 42.95 C 263.39 40.68 263.26 38.61 263.93 36.44 C 264.60 34.28 266.97 31.72 267.84 29.96 C 268.71 28.20 268.55 27.43 269.14 25.89 C 269.74 24.35 271.56 22.23 271.43 20.72 C 271.30 19.21 270.00 18.20 268.38 16.84 C 266.75 15.47 264.68 13.22 261.68 12.50 C 258.68 11.78 254.55 12.23 250.40 12.50 C 246.25 12.76 241.62 13.04 236.78 14.08 C 231.94 15.13 226.89 15.73 221.36 18.76 C 215.82 21.79 209.18 26.83 203.56 32.25 C 197.94 37.68 192.42 44.68 187.64 51.32 C 182.86 57.97 178.16 64.19 174.89 72.12 C 171.63 80.04 169.01 89.67 168.05 98.89 C 167.08 108.11 168.27 116.92 169.10 127.44 C 169.94 137.96 171.19 151.77 173.05 162.00 C 174.91 172.23 177.87 180.66 180.27 188.84 C 182.67 197.01 185.20 203.98 187.44 211.04 C 189.69 218.10 191.96 224.70 193.76 231.18 C 195.56 237.66 197.21 243.93 198.24 249.93 C 199.27 255.93 199.57 261.05 199.95 267.19 C 200.34 273.33 201.14 281.05 200.54 286.79 C 199.94 292.52 198.12 296.89 196.36 301.59 C 194.61 306.29 191.33 310.20 190.00 314.98 C 188.67 319.77 188.39 325.18 188.40 330.29 C 188.42 335.41 189.08 340.68 190.09 345.68 C 191.11 350.68 192.98 354.97 194.48 360.29 C 195.98 365.61 197.14 373.22 199.09 377.58 C 201.04 381.95 202.55 383.39 206.17 386.49 C 209.79 389.59 215.96 393.47 220.80 396.20 C 225.63 398.92 229.88 401.12 235.19 402.83 C 240.50 404.54 246.55 406.29 252.66 406.46 C 258.77 406.63 266.07 405.58 271.86 403.84 C 277.65 402.10 281.95 399.31 287.40 396.01 C 292.85 392.72 299.27 388.59 304.55 384.05 C 309.83 379.52 314.47 374.68 319.09 368.80 C 323.71 362.93 328.68 355.46 332.27 348.81 C 335.85 342.17 337.93 335.32 340.59 328.94 C 343.24 322.55 345.63 317.53 348.19 310.53 C 350.76 303.53 354.31 293.79 355.97 286.95 C 357.64 280.12 356.32 274.98 358.19 269.54 C 360.06 264.10 364.71 259.12 367.21 254.31 C 369.70 249.50 370.86 244.76 373.14 240.68 C 375.43 236.60 378.72 233.86 380.92 229.83 C 383.13 225.79 385.12 220.63 386.38 216.46 C 387.65 212.29 387.68 208.93 388.51 204.80 C 389.35 200.68 391.43 196.15 391.38 191.69 C 391.33 187.24 390.43 182.79 388.22 178.09 C 386.00 173.38 381.07 168.13 378.11 163.47 C 375.15 158.81 373.03 154.13 370.44 150.11 C 367.84 146.09 365.37 143.89 362.54 139.34 C 359.71 134.80 355.52 127.52 353.45 122.83 C 351.37 118.13 350.67 114.64 350.09 111.17 C 349.51 107.69 349.33 104.69 349.97 101.98 C 350.62 99.26 352.34 96.33 353.97 94.86 C 355.60 93.40 357.22 92.93 359.75 93.18 C 362.28 93.44 365.36 94.30 369.17 96.37 C 372.97 98.44 378.79 102.32 382.59 105.61 C 386.38 108.89 388.32 112.31 391.95 116.07 C 395.58 119.82 401.25 122.96 404.37 128.13 C 407.50 133.30 408.88 140.73 410.72 147.09 C 412.56 153.46 414.91 159.18 415.41 166.33 C 415.92 173.48 414.69 181.73 413.75 189.99 C 412.81 198.24 412.32 207.82 409.76 215.85 C 407.20 223.89 402.89 231.38 398.38 238.19 C 393.87 245.00 388.24 250.71 382.70 256.73 C 377.16 262.74 371.35 269.25 365.14 274.28 C 358.93 279.31 352.28 282.97 345.45 286.89 C 338.62 290.81 331.21 294.64 324.16 297.81 C 317.10 300.97 309.66 303.28 303.14 305.87 C 296.62 308.46 291.23 311.31 285.03 313.33 C 278.82 315.36 271.88 316.35 265.90 318.01 C 259.92 319.67 254.47 321.29 249.17 323.31 C 243.87 325.34 239.13 327.46 234.10 330.16 C 229.07 332.86 223.29 336.40 219.01 339.50 C 214.73 342.60 211.20 345.41 208.43 348.73 C 205.66 352.05 203.91 355.77 202.39 359.43 C 200.87 363.09 199.40 366.56 199.30 370.71 C 199.20 374.86 200.26 379.81 201.81 384.33 C 203.37 388.85 205.86 393.53 208.63 397.81 C 211.41 402.10 214.56 406.73 218.46 410.03 C 222.36 413.32 227.25 415.58 232.01 417.57 C 236.78 419.57 241.32 421.62 247.05 421.99 C 252.79 422.36 259.98 421.44 266.43 419.79 C 272.88 418.14 279.45 415.43 285.74 412.09 C 292.04 408.74 298.31 405.39 304.20 399.71 C 310.08 394.04 316.79 385.37 321.05 378.02 C 325.30 370.68 327.46 363.14 329.73 355.62 C 332.00 348.11 334.14 340.63 334.65 332.96 C 335.17 325.29 333.92 317.60 332.82 309.62 C 331.72 301.64 330.19 292.27 328.05 285.06 C 325.91 277.86 322.92 272.94 319.99 266.40 C 317.07 259.87 313.77 252.14 310.50 245.87 C 307.22 239.60 303.35 234.55 300.33 228.78 C 297.32 223.01 294.65 216.58 292.41 211.25 C 290.18 205.92 288.95 201.61 286.90 196.79 C 284.86 191.97 281.34 187.54 280.15 182.34 C 278.96 177.14 278.75 171.10 279.76 165.59 C 280.78 160.08 284.19 154.06 286.24 149.26 C 288.28 144.46 289.61 140.46 292.02 136.79 C 294.43 133.12 297.28 129.59 300.69 127.23 C 304.11 124.87 308.46 123.78 312.52 122.63 C 316.58 121.48 320.75 120.57 325.04 120.32 C 329.32 120.07 333.75 120.46 338.22 121.11 C 342.70 121.75 347.58 122.52 351.88 124.20 C 356.18 125.88 360.42 128.12 364.03 131.20 C 367.63 134.28 370.61 137.66 373.53 142.68 C 376.45 147.71 380.18 154.59 381.52 161.35 C 382.86 168.11 382.00 176.16 381.57 183.24 C 381.13 190.32 380.51 196.45 378.90 203.82 C 377.28 211.19 375.35 220.28 371.86 227.47 C 368.37 234.67 362.33 240.72 357.96 247.01 C 353.59 253.30 350.69 259.71 345.63 265.23 C 340.57 270.75 333.70 275.84 327.59 280.13 C 321.47 284.42 315.52 288.39 308.94 290.97 C 302.35 293.55 295.03 294.22 288.06 295.60 C 281.09 296.98 273.80 298.55 267.11 299.24 C 260.43 299.94 254.48 300.06 247.95 299.77 C 241.42 299.47 234.11 297.98 227.96 297.47 C 221.80 296.96 216.45 297.16 211.01 296.71 C 205.57 296.26 200.08 294.51 195.31 294.76 C 190.54 295.02 187.37 296.45 182.38 298.26 C 177.39 300.07 170.12 303.74 165.36 305.62 C 160.60 307.51 157.66 308.16 153.83 309.60 C 150.00 311.03 145.73 312.41 142.36 314.22 C 138.98 316.02 136.62 318.23 133.58 320.44 C 130.53 322.64 126.44 324.97 124.09 327.44 C 121.74 329.91 120.72 332.49 119.46 335.26 C 118.20 338.03 117.43 341.38 116.54 344.06 C 115.66 346.74 115.52 348.81 114.18 351.37 C 112.84 353.92 110.32 357.01 108.50 359.39 C 106.68 361.76 105.49 363.93 103.26 365.62 C 101.03 367.30 97.81 369.02 95.11 369.49 C 92.42 369.97 90.39 369.21 87.08 368.45 C 83.77 367.70 78.57 366.96 75.27 364.95 C 71.96 362.94 69.42 360.20 67.25 356.40 C 65.07 352.61 63.57 347.09 62.22 342.18 C 60.88 337.27 59.24 333.29 59.20 326.93 C 59.17 320.57 60.60 311.56 62.02 304.02 C 63.44 296.49 64.41 289.00 67.74 281.72 C 71.07 274.44 76.31 266.47 81.98 260.34 C 87.66 254.22 94.70 249.79 101.80 244.99 C 108.89 240.19 116.51 234.55 124.56 231.53 C 132.60 228.51 141.80 227.65 150.09 226.87 C 158.38 226.09 166.35 225.59 174.29 226.85 C 182.23 228.11 190.18 230.37 197.73 234.45 C 205.28 238.52 214.29 245.79 219.61 251.29 C 224.92 256.79 227.21 261.69 229.62 267.44 C 232.02 273.19 233.22 279.61 234.01 285.80 C 234.81 291.99 235.49 298.92 234.37 304.59 C 233.25 310.26 230.67 315.88 227.29 319.82 C 223.91 323.76 219.07 326.79 214.08 328.24 C 209.09 329.69 202.54 329.79 197.37 328.50 C 192.19 327.21 187.17 324.34 183.03 320.49 C 178.89 316.64 174.78 311.32 172.52 305.40 C 170.27 299.48 169.16 291.82 169.50 284.97 C 169.84 278.13 171.79 270.74 174.56 264.35 C 177.33 257.96 180.88 251.93 186.14 246.64 C 191.40 241.35 199.49 235.65 206.11 232.62 C 212.74 229.58 219.13 228.30 225.90 228.42 C 232.67 228.54 240.14 230.90 246.72 233.32 C 253.29 235.75 260.23 239.04 265.35 242.97 C 270.48 246.90 274.21 251.94 277.46 256.92 C 280.72 261.89 282.78 267.38 284.89 272.82 C 287.01 278.26 288.51 283.88 290.13 289.53 C 291.76 295.18 293.75 301.12 294.65 306.72 C 295.55 312.32 295.82 317.85 295.56 323.13 C 295.30 328.41 293.56 333.38 293.06 338.42 C 292.56 343.46 292.79 348.37 292.55 353.37 C 292.31 358.36 291.14 363.59 291.64 368.41 C 292.14 373.23 294.35 378.05 295.54 382.28 C 296.72 386.51 297.24 390.58 298.75 393.79 C 300.25 397.00 302.66 398.72 304.55 401.53 C 306.44 404.34 307.45 408.21 310.07 410.64 C 312.68 413.08 316.97 414.68 320.24 416.14 C 323.51 417.60 326.45 418.53 329.68 419.42 C 332.92 420.30 336.07 420.83 339.65 421.44 C 343.22 422.04 347.77 422.57 351.15 423.04 C 354.54 423.51 356.61 423.99 359.97 424.25 C 363.32 424.52 368.05 424.27 371.31 424.65 C 374.56 425.03 376.75 425.96 379.50 426.53 C 382.24 427.10 385.64 426.89 387.78 428.08 C 389.92 429.27 390.36 432.46 392.36 433.68 C 394.36 434.91 397.28 434.75 399.78 435.42 C 402.28 436.08 404.77 437.18 407.37 437.68 C 409.97 438.17 412.71 438.80 415.38 438.38 C 418.04 437.97 420.62 436.46 423.37 435.19 C 426.12 433.91 428.94 432.91 431.89 430.73 C 434.84 428.56 438.18 426.50 441.08 422.16 C 443.98 417.82 447.37 410.57 449.30 404.69 C 451.23 398.81 452.01 393.52 452.66 386.86 C 453.31 380.21 453.73 372.38 453.20 364.77 C 452.68 357.16 451.62 349.81 449.51 341.21 C 447.40 332.61 444.86 321.51 440.55 313.17 C 436.25 304.83 430.17 297.45 423.68 291.16 C 417.18 284.88 409.68 279.72 401.59 275.45 C 393.51 271.18 383.80 267.17 375.17 265.54 C 366.54 263.92 358.24 265.01 349.83 265.71 C 341.41 266.42 332.77 268.03 324.68 269.79 C 316.59 271.54 307.72 273.59 301.27 276.25 C 294.81 278.92 290.69 282.47 285.93 285.78 C 281.16 289.08 276.21 291.46 272.68 296.09 C 269.14 300.72 266.87 308.20 264.70 313.58 C 262.53 318.95 261.29 323.39 259.65 328.33 C 258.01 333.28 256.66 338.18 254.84 343.25 C 253.02 348.32 250.97 354.06 248.75 358.75 C 246.53 363.45 244.80 367.99 241.52 371.41 C 238.25 374.83 233.16 377.05 229.11 379.28 C 225.06 381.52 221.57 383.27 217.20 384.81 C 212.84 386.34 207.78 387.64 202.90 388.49 C 198.02 389.34 192.14 389.75 187.91 389.90 C 183.69 390.06 181.60 389.70 177.54 389.44 C 173.48 389.18 167.93 388.33 163.55 388.36 C 159.18 388.38 154.56 388.76 151.29 389.59 C 148.02 390.42 146.50 391.80 143.95 393.36 C 141.40 394.92 138.12 396.91 135.99 398.94 C 133.86 400.97 131.91 402.75 131.14 405.55 C 130.38 408.35 130.63 412.61 131.38 415.74 C 132.13 418.87 133.29 421.35 135.63 424.32 C 137.97 427.29 141.41 430.70 145.41 433.56 C 149.40 436.43 153.96 439.56 159.57 441.50 C 165.19 443.44 171.86 445.19 179.08 445.21 C 186.29 445.23 195.30 443.64 202.86 441.64 C 210.42 439.63 217.31 436.36 224.42 433.16 C 231.53 429.96 238.68 426.19 245.52 422.45 C 252.35 418.71 258.70 413.67 265.44 410.72 C 272.18 407.77 280.07 406.28 285.97 404.76 C 291.87 403.24 296.33 401.65 300.85 401.61 C 305.37 401.56 308.33 403.73 313.09 404.49 C 317.85 405.25 325.20 405.32 329.40 406.17 C 333.61 407.01 335.48 408.63 338.30 409.55 C 341.12 410.48 343.50 410.55 346.34 411.72 C 349.18 412.88 352.65 414.64 355.33 416.52 C 358.02 418.40 360.30 421.14 362.45 423.01 C 364.60 424.88 365.79 426.22 368.22 427.74 C 370.66 429.26 374.55 431.29 377.07 432.14 C 379.58 432.99 381.36 431.69 383.31 432.84 C 385.26 433.99 387.34 436.95 388.75 439.06 C 390.16 441.17 391.00 443.41 391.76 445.49 C 392.52 447.57 392.77 449.61 393.31 451.53 C 393.84 453.46 395.05 455.11 394.97 457.04 C 394.89 458.97 394.42 461.17 392.81 463.11 C 391.20 465.04 387.99 466.85 385.32 468.64 C 382.66 470.43 380.36 472.03 376.82 473.85 C 373.27 475.67 368.89 478.10 364.04 479.58 C 359.20 481.05 353.56 481.71 347.75 482.68 C 341.94 483.65 335.93 485.14 329.18 485.40 C 322.44 485.66 314.48 486.27 307.27 484.26 C 300.06 482.24 293.05 477.05 285.91 473.31 C 278.76 469.58 271.20 465.95 264.40 461.85 C 257.60 457.75 251.34 453.64 245.12 448.71 C 238.90 443.79 232.95 437.45 227.08 432.32 C 221.21 427.18 215.82 423.08 209.89 417.91 C 203.95 412.74 197.04 406.48 191.47 401.30 C 185.89 396.12 181.47 390.54 176.43 386.86 C 171.39 383.17 165.96 381.66 161.21 379.18 C 156.45 376.70 151.80 373.63 147.89 371.99 C 143.98 370.36 141.32 370.17 137.74 369.35 C 134.17 368.53 129.49 366.88 126.45 367.06 C 123.40 367.24 121.67 368.67 119.47 370.45 C 117.27 372.22 114.39 375.19 113.25 377.69 C 112.11 380.20 112.13 382.27 112.64 385.48 C 113.14 388.69 115.14 393.32 116.25 396.97 C 117.36 400.62 117.23 403.95 119.28 407.39 C 121.33 410.83 124.68 414.12 128.53 417.61 C 132.38 421.09 138.22 425.07 142.39 428.28 C 146.57 431.49 149.97 434.45 153.60 436.86 C 157.22 439.28 160.50 440.24 164.13 442.78 C 167.77 445.32 171.70 449.51 175.41 452.10 C 179.11 454.70 183.34 456.10 186.37 458.34 C 189.40 460.58 191.96 463.40 193.58 465.57 C 195.20 467.74 196.14 469.56 196.08 471.35 C 196.02 473.14 195.18 475.15 193.23 476.30 C 191.28 477.45 187.81 478.64 184.35 478.26 C 180.89 477.88 176.60 476.16 172.45 474.04 C 168.31 471.92 164.34 468.93 159.47 465.53 C 154.59 462.12 147.89 457.69 143.19 453.62 C 138.48 449.54 135.37 445.21 131.24 441.06 C 127.11 436.91 122.56 432.79 118.41 428.72 C 114.25 424.64 109.84 420.57 106.29 416.61 C 102.74 412.65 100.35 409.00 97.12 404.97 C 93.89 400.93 89.83 396.28 86.92 392.41 C 84.00 388.53 82.36 385.11 79.63 381.71 C 76.90 378.31 73.17 374.52 70.54 372.01 C 67.90 369.49 65.85 368.22 63.82 366.64 C 61.80 365.07 60.37 363.46 58.37 362.56 C 56.37 361.65 53.61 361.36 51.81 361.22 C 50.02 361.07 48.77 360.46 47.62 361.69 C 46.47 362.92 45.62 366.55 44.91 368.61 C 44.20 370.66 43.80 372.14 43.36 374.02 C 42.92 375.90 42.20 377.64 42.27 379.88 C 42.34 382.12 44.00 385.12 43.78 387.45 C 43.56 389.79 41.29 392.11 40.94 393.89 C 40.59 395.66 42.04 397.21 41.67 398.10 C 41.29 398.98 39.81 398.83 38.67 399.21 C 37.54 399.60 36.24 400.24 34.85 400.40 C 33.46 400.56 32.14 400.63 30.34 400.18 C 28.53 399.72 25.76 398.70 24.03 397.67 C 22.30 396.65 21.39 394.87 19.94 394.04 C 18.50 393.21 16.82 393.08 15.33 392.69 C 13.85 392.29 11.95 391.66 11.04 391.69 C 10.13 391.72 10.31 392.53 9.87 392.86 C 9.43 393.19 8.89 393.10 8.38 393.66 C 7.88 394.22 7.63 395.94 6.85 396.21 C 6.06 396.48 4.82 395.87 3.68 395.28 C 2.54 394.70 -4.66 393.49 0.02 392.72 C 4.70 391.94 21.67 390.32 31.76 390.65 C 41.86 390.97 51.74 392.51 60.60 394.66 C 69.46 396.81 78.34 400.26 84.93 403.54 C 91.53 406.82 96.24 411.13 100.18 414.37 C 104.13 417.60 106.82 420.25 108.60 422.94 C 110.39 425.62 111.57 428.23 110.88 430.48 C 110.20 432.73 106.84 435.55 104.49 436.44 C 102.14 437.33 99.54 436.88 96.80 435.83 C 94.07 434.78 91.10 432.69 88.09 430.13 C 85.07 427.56 81.65 424.14 78.70 420.46 C 75.76 416.78 72.98 412.34 70.41 408.04 C 67.83 403.74 65.69 399.70 63.26 394.65 C 60.82 389.61 58.18 382.96 55.79 377.80 C 53.40 372.63 51.03 368.00 48.93 363.68 C 46.84 359.36 44.86 355.79 43.23 351.88 C 41.59 347.98 40.84 343.25 39.12 340.24 C 37.40 337.24 34.92 335.66 32.91 333.86 C 30.91 332.06 29.34 330.86 27.07 329.42 C 24.81 327.99 21.50 326.65 19.33 325.27 C 17.15 323.89 15.84 322.97 14.01 321.12 C 12.17 319.26 9.56 317.05 8.30 314.14 C 7.04 311.23 7.00 307.28 6.47 303.64 C 5.94 300.00 5.55 296.75 5.13 292.32 C 4.71 287.89 3.36 282.87 3.96 277.05 C 4.57 271.24 6.31 263.84 8.75 257.43 C 11.19 251.01 14.20 244.71 18.59 238.54 C 22.98 232.37 29.39 226.12 35.11 220.41 C 40.82 214.70 46.54 209.41 52.89 204.27 C 59.24 199.13 65.58 193.73 73.21 189.58 C 80.85 185.43 89.15 181.41 98.68 179.38 C 108.21 177.35 120.36 176.97 130.38 177.42 C 140.40 177.87 150.02 179.41 158.80 182.05 C 167.58 184.70 175.81 188.77 183.05 193.27 C 190.29 197.77 196.73 203.65 202.24 209.06 C 207.75 214.46 212.20 219.19 216.12 225.71 C 220.03 232.22 223.61 241.30 225.74 248.16 C 227.87 255.03 229.04 260.59 228.90 266.91 C 228.77 273.24 226.91 280.66 224.94 286.09 C 222.96 291.53 220.21 295.57 217.04 299.53 C 213.87 303.48 210.05 306.85 205.91 309.84 C 201.78 312.82 196.45 315.10 192.24 317.43 C 188.02 319.76 185.23 322.85 180.62 323.82 C 176.00 324.78 169.45 323.58 164.54 323.22 C 159.63 322.86 155.58 323.14 151.15 321.68 C 146.71 320.22 141.91 317.99 137.92 314.47 C 133.93 310.94 130.04 305.56 127.21 300.52 C 124.37 295.49 121.56 290.40 120.89 284.25 C 120.23 278.10 121.58 270.13 123.21 263.61 C 124.84 257.10 127.27 250.84 130.67 245.15 C 134.07 239.47 138.43 234.40 143.60 229.50 C 148.77 224.60 155.42 219.76 161.69 215.76 C 167.96 211.76 174.36 207.38 181.24 205.50 C 188.13 203.63 195.30 204.37 202.98 204.52 C 210.66 204.67 219.19 203.83 227.33 206.41 C 235.46 208.99 245.50 214.83 251.81 219.98 C 258.11 225.12 261.67 231.35 265.17 237.27 C 268.67 243.20 271.20 249.25 272.82 255.52 C 274.44 261.79 275.60 268.80 274.88 274.88 C 274.17 280.96 271.09 286.56 268.53 292.03 C 265.97 297.49 263.46 303.24 259.52 307.69 C 255.58 312.13 250.46 317.11 244.89 318.70 C 239.32 320.29 232.01 318.81 226.10 317.22 C 220.20 315.64 213.92 313.16 209.44 309.17 C 204.95 305.19 202.59 302.10 199.19 293.30 C 195.80 284.49 190.76 262.50 189.07 256.34" fill="none" stroke="#fff" stroke-width="4.48" stroke-opacity="1" stroke-linecap="round" stroke-linejoin="round"/>
  </g>
</svg>