<?xml version="1.0" encoding="UTF-8"?>
<svg xmlns="http://www.w3.org/2000/svg" width="512" height="512" viewBox="0 0 512 512">
  <rect width="100%" height="100%" fill="#000"/>
  <g>
    <path d="M 256.00 256.00 C 254.53 253.18 250.48 244.19 247.19 239.09 C 243.89 233.98 240.94 229.36 236.23 225.37 C 231.53 221.37 224.55 217.11 218.95 215.12 C 213.36 213.14 208.38 213.56 202.66 213.47 C 196.95 213.37 190.01 213.47 184.66 214.58 C 179.31 215.69 175.21 217.23 170.55 220.12 C 165.89 223.02 160.38 227.74 156.69 231.96 C 153.00 236.17 150.53 240.51 148.40 245.42 C 146.26 250.34 144.60 255.33 143.90 261.43 C 143.20 267.54 143.40 275.80 144.19 282.07 C 144.99 288.34 146.22 292.96 148.68 299.06 C 151.15 305.17 155.31 313.02 158.98 318.70 C 162.64 324.37 165.93 328.31 170.65 333.13 C 175.36 337.94 181.73 343.74 187.27 347.60 C 192.81 351.46 197.82 353.38 203.88 356.30 C 209.93 359.22 217.74 362.53 223.61 365.11 C 229.47 367.69 234.23 369.59 239.06 371.79 C 243.90 373.99 248.14 375.79 252.62 378.29 C 257.09 380.80 262.22 384.14 265.91 386.83 C 269.60 389.52 271.85 391.51 274.73 394.42 C 277.61 397.33 280.75 401.40 283.20 404.31 C 285.64 407.21 287.95 408.93 289.42 411.84 C 290.89 414.75 291.69 418.81 292.03 421.77 C 292.37 424.73 291.88 426.77 291.46 429.60 C 291.04 432.43 290.42 436.05 289.50 438.75 C 288.58 441.45 287.42 443.56 285.93 445.78 C 284.45 448.00 283.36 450.14 280.59 452.05 C 277.83 453.95 273.27 456.06 269.33 457.20 C 265.39 458.35 262.09 459.08 256.96 458.91 C 251.83 458.74 244.28 457.57 238.55 456.18 C 232.81 454.79 228.55 453.42 222.56 450.59 C 216.57 447.75 208.55 442.71 202.62 439.18 C 196.69 435.65 192.47 433.15 186.99 429.41 C 181.52 425.67 174.88 420.69 169.77 416.74 C 164.66 412.79 160.62 409.47 156.35 405.70 C 152.08 401.93 148.51 397.88 144.16 394.12 C 139.82 390.37 134.42 386.32 130.28 383.18 C 126.14 380.03 123.12 377.92 119.33 375.23 C 115.53 372.54 111.07 369.35 107.52 367.02 C 103.97 364.69 101.32 363.41 98.02 361.26 C 94.73 359.11 90.69 356.82 87.74 354.11 C 84.80 351.39 82.72 348.06 80.36 344.96 C 77.99 341.85 76.02 338.80 73.57 335.47 C 71.11 332.13 67.85 328.54 65.61 324.96 C 63.37 321.38 61.96 318.05 60.13 313.99 C 58.29 309.93 56.24 304.60 54.61 300.62 C 52.99 296.65 51.96 293.69 50.38 290.12 C 48.80 286.56 46.64 282.44 45.11 279.24 C 43.59 276.05 42.58 273.85 41.25 270.94 C 39.92 268.02 38.45 264.31 37.15 261.74 C 35.84 259.18 34.66 257.21 33.41 255.54 C 32.16 253.86 30.96 252.90 29.63 251.70 C 28.30 250.50 26.70 249.15 25.42 248.31 C 24.13 247.47 23.20 246.72 21.92 246.65 C 20.64 246.59 18.93 246.84 17.72 247.94 C 16.51 249.04 15.52 251.00 14.65 253.26 C 13.79 255.52 12.68 258.19 12.54 261.52 C 12.40 264.85 12.47 268.38 13.80 273.25 C 15.14 278.13 18.45 285.48 20.57 290.76 C 22.68 296.05 24.21 300.20 26.48 304.96 C 28.76 309.72 30.64 314.12 34.21 319.32 C 37.79 324.51 42.88 331.09 47.94 336.14 C 53.01 341.19 57.46 345.36 64.60 349.60 C 71.75 353.84 82.35 358.63 90.82 361.57 C 99.28 364.52 106.07 365.87 115.39 367.28 C 124.70 368.69 137.38 369.54 146.72 370.04 C 156.07 370.53 162.51 370.65 171.45 370.25 C 180.40 369.85 191.92 368.25 200.39 367.65 C 208.86 367.05 215.24 366.98 222.27 366.66 C 229.30 366.34 235.50 365.79 242.56 365.73 C 249.62 365.68 258.15 366.06 264.62 366.33 C 271.10 366.60 275.44 367.20 281.41 367.35 C 287.37 367.50 294.74 367.40 300.42 367.21 C 306.11 367.02 310.02 367.18 315.51 366.22 C 321.00 365.26 328.04 363.40 333.36 361.43 C 338.67 359.46 342.65 357.72 347.42 354.40 C 352.18 351.08 357.79 345.95 361.95 341.51 C 366.12 337.07 369.41 332.74 372.40 327.75 C 375.39 322.76 377.62 317.72 379.87 311.57 C 382.13 305.42 384.49 297.25 385.92 290.84 C 387.36 284.43 388.43 279.80 388.48 273.09 C 388.53 266.38 387.65 257.45 386.22 250.58 C 384.79 243.70 383.37 238.30 379.91 231.83 C 376.44 225.37 370.69 217.37 365.42 211.79 C 360.15 206.20 354.47 202.18 348.31 198.33 C 342.15 194.49 335.88 191.44 328.46 188.73 C 321.04 186.02 311.43 183.26 303.76 182.06 C 296.10 180.85 290.12 180.84 282.47 181.48 C 274.82 182.12 265.06 183.57 257.86 185.89 C 250.67 188.20 245.63 191.30 239.30 195.35 C 232.98 199.40 225.49 205.70 219.92 210.21 C 214.34 214.72 210.85 218.19 205.83 222.40 C 200.82 226.60 194.49 231.35 189.82 235.45 C 185.15 239.54 181.85 243.60 177.81 246.98 C 173.78 250.36 170.11 253.12 165.60 255.71 C 161.09 258.30 155.18 261.12 150.75 262.52 C 146.32 263.91 143.26 264.16 139.01 264.10 C 134.75 264.05 129.28 262.95 125.24 262.18 C 121.20 261.41 118.39 260.45 114.79 259.46 C 111.19 258.47 106.94 257.38 103.65 256.24 C 100.36 255.10 98.05 254.16 95.06 252.63 C 92.07 251.10 88.54 248.60 85.69 247.05 C 82.84 245.51 80.37 244.32 77.95 243.35 C 75.53 242.39 73.64 241.90 71.18 241.28 C 68.73 240.67 65.58 239.71 63.24 239.65 C 60.90 239.60 59.17 239.79 57.13 240.95 C 55.10 242.11 52.62 244.27 51.03 246.62 C 49.44 248.96 48.66 251.62 47.59 255.03 C 46.53 258.44 45.33 263.15 44.66 267.08 C 43.99 271.01 43.60 274.27 43.57 278.60 C 43.53 282.93 44.06 288.63 44.46 293.05 C 44.86 297.47 45.42 301.24 45.95 305.14 C 46.48 309.05 47.02 312.48 47.63 316.46 C 48.25 320.44 49.20 325.45 49.64 329.03 C 50.08 332.62 50.38 335.12 50.28 337.98 C 50.18 340.84 49.62 344.01 49.03 346.20 C 48.43 348.39 47.44 349.54 46.70 351.14 C 45.96 352.73 45.28 354.39 44.59 355.75 C 43.89 357.11 43.23 357.89 42.54 359.28 C 41.85 360.67 40.91 362.55 40.44 364.11 C 39.97 365.67 39.99 367.22 39.73 368.64 C 39.46 370.06 38.96 371.01 38.84 372.63 C 38.71 374.26 38.90 376.64 38.98 378.39 C 39.06 380.15 39.45 381.85 39.30 383.16 C 39.14 384.47 38.58 385.63 38.05 386.25 C 37.52 386.88 37.00 386.86 36.11 386.91 C 35.22 386.96 33.95 387.51 32.71 386.57 C 31.47 385.62 29.98 383.59 28.67 381.23 C 27.36 378.87 26.23 375.98 24.87 372.40 C 23.51 368.81 21.49 364.28 20.50 359.73 C 19.50 355.18 18.96 351.10 18.91 345.10 C 18.87 339.09 19.31 330.56 20.24 323.73 C 21.16 316.90 22.18 311.51 24.48 304.11 C 26.78 296.70 30.14 286.85 34.04 279.30 C 37.93 271.75 41.90 266.00 47.86 258.80 C 53.81 251.60 62.89 242.59 69.76 236.11 C 76.64 229.64 82.61 225.11 89.10 219.95 C 95.58 214.78 101.49 210.28 108.65 205.11 C 115.82 199.93 125.28 193.66 132.09 188.89 C 138.91 184.13 143.72 181.04 149.54 176.53 C 155.35 172.02 161.97 166.31 166.99 161.82 C 172.01 157.34 175.31 153.89 179.67 149.65 C 184.02 145.40 189.55 140.33 193.13 136.38 C 196.71 132.42 198.77 129.76 201.15 125.93 C 203.52 122.10 206.01 117.07 207.38 113.40 C 208.75 109.73 209.30 106.92 209.36 103.91 C 209.43 100.90 209.49 97.74 207.77 95.32 C 206.04 92.91 202.47 90.19 199.00 89.40 C 195.52 88.61 191.72 88.81 186.93 90.57 C 182.13 92.34 175.26 96.46 170.22 99.99 C 165.19 103.52 161.25 106.64 156.73 111.77 C 152.21 116.90 146.68 124.31 143.13 130.78 C 139.57 137.25 137.01 142.66 135.42 150.59 C 133.82 158.52 133.20 169.75 133.53 178.35 C 133.87 186.95 134.90 194.52 137.43 202.19 C 139.96 209.85 143.15 217.14 148.70 224.35 C 154.25 231.56 163.57 239.96 170.74 245.45 C 177.92 250.95 183.69 254.61 191.76 257.32 C 199.82 260.03 211.02 261.48 219.13 261.70 C 227.24 261.92 233.19 260.72 240.40 258.64 C 247.61 256.56 256.32 252.62 262.38 249.21 C 268.43 245.81 272.55 242.37 276.74 238.22 C 280.94 234.08 284.87 229.79 287.53 224.34 C 290.20 218.89 292.36 211.29 292.74 205.54 C 293.11 199.79 292.09 195.10 289.78 189.84 C 287.47 184.59 283.28 177.94 278.89 174.02 C 274.49 170.11 269.63 167.79 263.41 166.35 C 257.19 164.92 248.22 164.72 241.56 165.40 C 234.90 166.08 229.60 167.28 223.45 170.42 C 217.29 173.55 209.56 178.90 204.63 184.19 C 199.71 189.48 196.73 195.92 193.91 202.14 C 191.10 208.36 188.72 214.15 187.75 221.52 C 186.78 228.89 186.91 238.92 188.09 246.36 C 189.27 253.80 190.99 259.75 194.83 266.16 C 198.66 272.58 205.77 279.76 211.11 284.87 C 216.44 289.98 220.88 292.92 226.83 296.80 C 232.78 300.69 240.79 304.91 246.81 308.18 C 252.83 311.45 257.34 313.48 262.93 316.42 C 268.52 319.36 275.29 322.93 280.35 325.79 C 285.42 328.66 289.41 330.83 293.33 333.61 C 297.26 336.39 300.44 339.08 303.91 342.49 C 307.39 345.89 311.03 350.77 314.18 354.04 C 317.33 357.31 319.46 359.52 322.79 362.11 C 326.13 364.69 330.95 367.30 334.18 369.56 C 337.42 371.81 339.45 373.42 342.20 375.62 C 344.96 377.82 347.87 381.05 350.73 382.76 C 353.59 384.47 356.08 385.08 359.35 385.89 C 362.61 386.70 366.79 387.67 370.30 387.62 C 373.82 387.57 377.16 386.17 380.43 385.58 C 383.71 384.99 386.41 385.08 389.94 384.06 C 393.47 383.05 398.13 381.39 401.63 379.50 C 405.14 377.61 407.69 375.87 410.98 372.73 C 414.26 369.59 418.40 364.66 421.36 360.66 C 424.32 356.66 426.23 353.40 428.74 348.74 C 431.25 344.07 434.39 337.61 436.44 332.66 C 438.50 327.71 439.58 324.25 441.07 319.05 C 442.57 313.85 444.19 306.65 445.42 301.47 C 446.65 296.29 447.44 292.27 448.47 287.97 C 449.50 283.66 450.51 280.24 451.60 275.66 C 452.70 271.09 454.15 265.00 455.06 260.52 C 455.97 256.04 456.40 253.05 457.06 248.79 C 457.72 244.54 458.46 239.10 459.00 235.00 C 459.54 230.90 460.07 228.23 460.28 224.20 C 460.50 220.16 460.62 215.08 460.27 210.81 C 459.93 206.54 459.09 202.63 458.23 198.60 C 457.36 194.56 456.91 191.14 455.11 186.61 C 453.31 182.07 450.53 176.12 447.42 171.41 C 444.32 166.70 441.41 162.96 436.48 158.36 C 431.55 153.76 424.03 147.99 417.84 143.82 C 411.65 139.66 406.57 136.57 399.35 133.36 C 392.13 130.15 382.52 126.46 374.52 124.55 C 366.52 122.64 360.18 121.72 351.34 121.89 C 342.50 122.07 330.33 123.71 321.47 125.60 C 312.61 127.49 305.73 130.11 298.19 133.22 C 290.65 136.34 283.71 139.41 276.23 144.28 C 268.76 149.16 259.80 156.65 253.33 162.47 C 246.85 168.29 242.61 172.83 237.39 179.20 C 232.17 185.56 226.16 194.01 222.00 200.66 C 217.83 207.30 215.59 212.41 212.40 219.06 C 209.22 225.70 205.70 234.12 202.88 240.51 C 200.07 246.89 198.14 251.45 195.52 257.37 C 192.90 263.28 189.50 270.47 187.13 276.01 C 184.77 281.55 183.40 285.99 181.33 290.61 C 179.25 295.23 177.09 299.15 174.70 303.71 C 172.30 308.27 169.28 313.78 166.94 317.98 C 164.61 322.19 163.00 325.26 160.69 328.95 C 158.38 332.64 155.42 336.90 153.08 340.12 C 150.73 343.34 148.75 345.25 146.61 348.28 C 144.47 351.30 142.08 355.33 140.25 358.29 C 138.41 361.26 137.09 363.19 135.60 366.08 C 134.11 368.96 132.23 372.59 131.32 375.61 C 130.40 378.64 130.18 381.33 130.10 384.24 C 130.02 387.15 130.24 389.80 130.83 393.08 C 131.41 396.35 132.08 400.51 133.62 403.89 C 135.16 407.27 137.17 410.12 140.08 413.35 C 143.00 416.58 146.88 420.56 151.10 423.26 C 155.33 425.97 159.61 427.83 165.45 429.59 C 171.30 431.36 179.29 433.25 186.18 433.83 C 193.06 434.42 199.21 434.04 206.77 433.09 C 214.34 432.14 223.99 430.42 231.56 428.16 C 239.12 425.91 245.42 422.81 252.14 419.55 C 258.87 416.29 265.07 413.32 271.90 408.60 C 278.72 403.87 287.13 397.01 293.09 391.21 C 299.05 385.40 303.09 380.80 307.66 373.78 C 312.22 366.76 317.35 356.87 320.49 349.07 C 323.64 341.28 324.35 334.79 326.50 326.99 C 328.65 319.18 331.36 309.51 333.41 302.24 C 335.46 294.97 336.95 289.41 338.80 283.36 C 340.65 277.30 342.12 271.72 344.52 265.93 C 346.92 260.14 350.71 253.85 353.20 248.62 C 355.69 243.40 357.05 239.25 359.44 234.58 C 361.82 229.92 364.93 224.51 367.50 220.63 C 370.06 216.75 371.95 214.15 374.83 211.30 C 377.71 208.45 381.74 205.76 384.79 203.53 C 387.84 201.29 390.00 199.48 393.13 197.89 C 396.26 196.30 400.35 194.75 403.56 194.01 C 406.78 193.27 409.46 193.03 412.40 193.43 C 415.34 193.83 418.15 195.08 421.22 196.43 C 424.30 197.78 428.00 199.94 430.84 201.54 C 433.68 203.14 435.64 204.69 438.26 206.01 C 440.88 207.34 444.16 208.41 446.54 209.50 C 448.92 210.58 450.36 211.61 452.54 212.52 C 454.73 213.42 457.55 214.08 459.65 214.92 C 461.75 215.76 463.25 216.95 465.16 217.55 C 467.08 218.15 469.41 218.36 471.14 218.53 C 472.87 218.70 474.09 218.51 475.53 218.59 C 476.96 218.67 478.33 218.81 479.75 219.00 C 481.17 219.18 482.76 219.31 484.04 219.73 C 485.32 220.15 486.18 220.43 487.45 221.51 C 488.73 222.59 490.42 224.37 491.68 226.20 C 492.94 228.02 493.85 230.45 495.00 232.47 C 496.15 234.50 497.57 236.59 498.57 238.34 C 499.57 240.09 500.13 241.33 500.98 242.96 C 501.84 244.58 502.81 246.82 503.72 248.09 C 504.62 249.37 505.55 250.06 506.43 250.60 C 507.31 251.15 508.17 251.67 508.99 251.37 C 509.81 251.07 514.54 249.87 511.35 248.80 C 508.15 247.73 500.31 245.71 489.83 244.96 C 479.35 244.21 460.73 244.03 448.48 244.29 C 436.22 244.55 427.43 244.95 416.31 246.52 C 405.18 248.10 391.80 251.13 381.76 253.77 C 371.72 256.40 364.19 259.30 356.07 262.33 C 347.94 265.36 340.73 268.05 333.01 271.94 C 325.29 275.83 316.30 281.32 309.76 285.68 C 303.22 290.04 298.83 293.31 293.77 298.11 C 288.70 302.90 283.20 309.44 279.37 314.45 C 275.53 319.47 273.70 323.27 270.76 328.20 C 267.82 333.13 264.47 339.43 261.72 344.04 C 258.97 348.66 257.23 351.84 254.26 355.88 C 251.28 359.92 246.95 364.66 243.86 368.27 C 240.78 371.87 238.33 374.51 235.75 377.50 C 233.17 380.50 230.89 383.13 228.39 386.23 C 225.90 389.33 223.12 393.22 220.75 396.10 C 218.38 398.99 216.32 400.79 214.17 403.56 C 212.03 406.32 209.50 409.90 207.89 412.67 C 206.27 415.45 205.37 417.51 204.48 420.20 C 203.60 422.89 203.48 426.34 202.59 428.82 C 201.69 431.31 200.86 433.10 199.13 435.12 C 197.39 437.15 194.74 439.72 192.18 440.97 C 189.62 442.22 186.87 442.54 183.77 442.61 C 180.66 442.69 177.63 442.42 173.54 441.42 C 169.45 440.42 163.63 438.50 159.21 436.60 C 154.80 434.69 151.42 433.31 147.06 430.01 C 142.69 426.71 137.22 421.14 133.03 416.79 C 128.83 412.43 125.66 408.98 121.91 403.87 C 118.17 398.76 113.88 391.59 110.55 386.12 C 107.23 380.65 105.04 376.14 101.98 371.07 C 98.93 366.00 95.16 360.19 92.23 355.70 C 89.30 351.21 86.96 347.71 84.42 344.13 C 81.88 340.54 79.58 337.15 76.99 334.17 C 74.40 331.18 71.34 328.39 68.86 326.20 C 66.39 324.02 64.38 322.10 62.16 321.05 C 59.94 320.00 57.47 319.98 55.56 319.89 C 53.66 319.79 52.38 320.05 50.72 320.48 C 49.06 320.92 47.02 321.58 45.61 322.48 C 44.21 323.37 43.31 324.35 42.29 325.86 C 41.27 327.36 40.00 329.38 39.50 331.52 C 39.01 333.67 38.76 335.80 39.32 338.72 C 39.89 341.64 40.87 345.03 42.89 349.06 C 44.92 353.09 47.94 358.66 51.46 362.91 C 54.98 367.16 58.63 370.52 64.03 374.55 C 69.42 378.58 77.21 383.64 83.84 387.08 C 90.47 390.51 96.39 392.53 103.79 395.16 C 111.20 397.78 120.63 400.76 128.26 402.82 C 135.89 404.87 142.56 406.17 149.57 407.48 C 156.58 408.80 162.95 409.57 170.32 410.70 C 177.70 411.84 186.71 413.42 193.81 414.28 C 200.91 415.15 206.13 415.33 212.95 415.91 C 219.77 416.48 228.65 417.00 234.71 417.73 C 240.77 418.46 244.16 419.37 249.31 420.31 C 254.46 421.26 260.94 422.24 265.61 423.39 C 270.28 424.54 273.82 425.59 277.32 427.20 C 280.82 428.81 284.39 431.04 286.62 433.05 C 288.84 435.06 289.89 437.11 290.66 439.28 C 291.43 441.45 291.69 443.63 291.25 446.06 C 290.82 448.49 289.84 451.75 288.05 453.87 C 286.25 455.98 284.10 457.47 280.49 458.76 C 276.87 460.05 271.23 461.32 266.37 461.61 C 261.51 461.89 257.20 461.76 251.31 460.45 C 245.42 459.14 237.23 456.45 231.03 453.75 C 224.84 451.06 220.22 448.68 214.14 444.27 C 208.06 439.87 200.15 433.26 194.56 427.34 C 188.96 421.42 184.76 415.24 180.55 408.74 C 176.35 402.24 172.73 396.15 169.31 388.35 C 165.89 380.56 162.22 370.34 160.04 361.96 C 157.87 353.59 156.78 346.79 156.26 338.12 C 155.73 329.45 155.87 318.44 156.88 309.95 C 157.88 301.46 159.87 295.19 162.29 287.17 C 164.71 279.14 168.22 269.23 171.38 261.81 C 174.54 254.38 177.96 249.45 181.26 242.63 C 184.56 235.81 188.30 227.28 191.17 220.90 C 194.04 214.52 196.09 209.68 198.48 204.34 C 200.88 198.99 203.35 194.34 205.54 188.80 C 207.73 183.27 210.06 176.32 211.61 171.14 C 213.17 165.96 213.84 162.48 214.88 157.74 C 215.93 153.00 217.18 147.12 217.89 142.71 C 218.60 138.31 219.40 135.16 219.13 131.29 C 218.86 127.42 217.66 122.82 216.27 119.51 C 214.88 116.20 213.01 114.11 210.78 111.45 C 208.55 108.78 205.51 105.75 202.88 103.54 C 200.25 101.34 197.87 99.50 194.99 98.21 C 192.11 96.92 189.37 96.26 185.58 95.81 C 181.79 95.37 176.46 95.10 172.26 95.55 C 168.05 96.00 164.80 96.48 160.35 98.52 C 155.90 100.56 149.96 104.33 145.55 107.80 C 141.14 111.27 137.88 114.97 133.90 119.36 C 129.91 123.74 125.25 129.33 121.64 134.10 C 118.03 138.87 115.14 143.17 112.23 147.98 C 109.33 152.79 106.77 157.22 104.21 162.97 C 101.65 168.73 98.88 176.55 96.88 182.52 C 94.88 188.49 94.08 193.31 92.19 198.77 C 90.31 204.24 87.67 210.75 85.56 215.31 C 83.46 219.86 81.73 222.54 79.57 226.12 C 77.40 229.70 74.73 233.69 72.57 236.79 C 70.40 239.88 68.69 242.08 66.60 244.69 C 64.51 247.31 62.06 250.63 60.03 252.49 C 58.00 254.34 56.26 255.13 54.42 255.81 C 52.58 256.50 50.88 257.02 48.98 256.60 C 47.08 256.19 44.81 254.80 43.03 253.34 C 41.25 251.88 39.74 249.96 38.29 247.86 C 36.84 245.75 35.31 243.35 34.36 240.71 C 33.41 238.08 33.12 235.05 32.58 232.03 C 32.05 229.01 31.57 225.50 31.13 222.57 C 30.69 219.65 30.33 217.30 29.95 214.47 C 29.57 211.63 29.41 207.73 28.84 205.55 C 28.26 203.37 27.35 202.46 26.50 201.39 C 25.64 200.32 24.69 199.70 23.71 199.12 C 22.74 198.54 21.62 198.12 20.64 197.91 C 19.66 197.70 18.70 198.47 17.82 197.85 C 16.94 197.23 15.87 195.66 15.35 194.20 C 14.83 192.74 14.58 191.35 14.70 189.09 C 14.83 186.83 15.21 183.60 16.10 180.65 C 17.00 177.69 18.06 175.11 20.05 171.37 C 22.05 167.62 24.98 162.35 28.06 158.16 C 31.13 153.97 34.78 150.16 38.51 146.25 C 42.24 142.34 45.57 138.84 50.45 134.69 C 55.32 130.55 62.12 125.21 67.77 121.36 C 73.41 117.50 77.77 114.78 84.32 111.58 C 90.88 108.39 99.46 104.38 107.08 102.21 C 114.71 100.04 121.35 99.15 130.06 98.56 C 138.76 97.98 150.29 97.99 159.33 98.71 C 168.36 99.43 176.11 100.72 184.28 102.87 C 192.45 105.03 199.94 107.94 208.37 111.63 C 216.80 115.32 227.20 120.40 234.88 125.03 C 242.55 129.66 247.73 133.76 254.42 139.41 C 261.11 145.06 269.20 152.82 275.02 158.93 C 280.85 165.05 284.63 169.61 289.36 176.11 C 294.10 182.60 299.79 191.01 303.43 197.91 C 307.07 204.81 309.25 210.17 311.19 217.51 C 313.12 224.85 314.93 234.53 315.04 241.95 C 315.15 249.37 313.61 255.57 311.84 262.02 C 310.06 268.48 307.67 274.37 304.38 280.68 C 301.10 286.98 296.57 294.73 292.11 299.86 C 287.65 305.00 283.46 308.09 277.62 311.49 C 271.78 314.89 263.39 318.29 257.07 320.27 C 250.75 322.25 246.14 323.34 239.70 323.37 C 233.26 323.39 224.72 322.05 218.44 320.43 C 212.15 318.82 207.56 317.04 201.97 313.68 C 196.39 310.32 189.80 304.44 184.91 300.27 C 180.03 296.09 176.44 292.66 172.66 288.63 C 168.88 284.59 165.74 280.81 162.24 276.07 C 158.73 271.32 154.89 264.56 151.61 260.14 C 148.34 255.73 145.96 253.02 142.58 249.58 C 139.20 246.14 134.87 241.96 131.33 239.51 C 127.78 237.07 124.97 235.75 121.29 234.89 C 117.61 234.02 112.73 233.92 109.22 234.32 C 105.71 234.72 103.20 235.30 100.22 237.30 C 97.25 239.29 93.69 242.83 91.38 246.30 C 89.07 249.78 87.51 253.92 86.37 258.12 C 85.22 262.33 84.74 266.36 84.54 271.55 C 84.33 276.74 84.31 283.82 85.16 289.25 C 86.01 294.69 86.90 298.52 89.63 304.18 C 92.35 309.84 97.30 317.63 101.49 323.21 C 105.69 328.78 109.36 332.71 114.81 337.63 C 120.26 342.56 127.89 348.61 134.20 352.76 C 140.51 356.91 145.88 359.26 152.65 362.55 C 159.42 365.83 167.95 369.81 174.80 372.48 C 181.65 375.16 187.47 376.75 193.76 378.59 C 200.04 380.44 205.93 381.93 212.49 383.55 C 219.05 385.18 226.96 386.93 233.14 388.35 C 239.31 389.78 244.10 390.48 249.51 392.12 C 254.93 393.76 261.22 396.14 265.62 398.20 C 270.03 400.27 272.85 401.93 275.94 404.52 C 279.03 407.10 282.02 410.88 284.16 413.73 C 286.29 416.57 287.60 418.99 288.73 421.58 C 289.87 424.18 290.48 426.55 290.99 429.30 C 291.50 432.04 291.43 435.44 291.80 438.04 C 292.16 440.65 292.94 442.50 293.20 444.94 C 293.45 447.38 293.07 450.44 293.33 452.70 C 293.58 454.96 293.88 456.57 294.72 458.51 C 295.56 460.44 297.53 462.55 298.37 464.31 C 299.21 466.07 298.97 467.50 299.76 469.09 C 300.55 470.69 302.18 472.40 303.11 473.88 C 304.03 475.36 304.75 476.70 305.32 477.96 C 305.89 479.22 306.75 480.05 306.52 481.44 C 306.28 482.83 305.03 484.92 303.89 486.32 C 302.75 487.71 301.54 488.62 299.68 489.82 C 297.82 491.02 295.39 492.56 292.72 493.49 C 290.06 494.43 287.58 495.08 283.69 495.46 C 279.80 495.83 274.39 496.30 269.40 495.73 C 264.40 495.15 259.62 493.93 253.72 491.98 C 247.81 490.03 240.05 487.04 233.96 484.02 C 227.86 481.01 222.62 477.79 217.12 473.90 C 211.62 470.01 206.69 465.91 200.96 460.69 C 195.23 455.46 188.12 448.07 182.74 442.56 C 177.35 437.05 173.60 433.00 168.64 427.63 C 163.69 422.25 157.63 415.15 153.03 410.30 C 148.42 405.45 145.36 402.51 141.02 398.51 C 136.67 394.51 131.09 389.89 126.98 386.32 C 122.87 382.75 120.14 380.04 116.36 377.09 C 112.58 374.14 107.76 371.01 104.32 368.61 C 100.88 366.20 98.51 364.29 95.72 362.67 C 92.94 361.05 90.31 359.59 87.63 358.89 C 84.95 358.18 81.72 357.91 79.65 358.43 C 77.58 358.96 75.74 359.87 75.19 362.02 C 74.63 364.17 75.36 368.07 76.30 371.35 C 77.25 374.64 78.73 377.97 80.86 381.71 C 82.98 385.46 86.56 390.33 89.03 393.83 C 91.50 397.33 93.04 399.43 95.69 402.72 C 98.34 406.01 102.09 410.30 104.94 413.54 C 107.78 416.78 110.17 419.34 112.76 422.17 C 115.35 424.99 117.95 427.66 120.49 430.48 C 123.04 433.30 125.80 436.46 128.01 439.07 C 130.21 441.69 131.46 443.73 133.71 446.15 C 135.96 448.57 139.13 451.34 141.51 453.61 C 143.88 455.87 146.01 457.63 147.96 459.75 C 149.91 461.86 151.39 464.42 153.20 466.30 C 155.01 468.19 156.47 469.47 158.79 471.06 C 161.12 472.65 163.72 474.28 167.15 475.87 C 170.58 477.46 175.59 479.24 179.39 480.62 C 183.20 482.00 186.01 482.99 189.98 484.14 C 193.94 485.29 199.67 486.43 203.16 487.52 C 206.65 488.61 208.35 489.51 210.92 490.67 C 213.49 491.83 216.85 493.33 218.60 494.47 C 220.34 495.60 221.29 496.46 221.37 497.49 C 221.45 498.53 220.18 499.89 219.07 500.67 C 217.96 501.46 216.27 501.83 214.72 502.21 C 213.17 502.60 211.75 502.82 209.77 503.00 C 207.79 503.18 205.01 503.27 202.84 503.28 C 200.66 503.28 198.84 503.04 196.72 503.01 C 194.60 502.99 191.67 502.84 190.12 503.13 C 188.58 503.41 187.81 504.01 187.44 504.72 C 187.07 505.43 187.66 506.58 187.90 507.36 C 188.14 508.15 188.44 508.77 188.89 509.43 C 189.35 510.08 189.84 514.59 190.64 511.30 C 191.44 508.00 192.76 499.05 193.68 489.66 C 194.60 480.28 195.18 467.23 196.15 455.00 C 197.11 442.77 198.44 427.69 199.49 416.28 C 200.53 404.87 201.23 396.97 202.39 386.52 C 203.56 376.07 205.00 363.37 206.46 353.56 C 207.91 343.76 208.91 336.55 211.11 327.67 C 213.32 318.80 216.71 308.34 219.68 300.31 C 222.65 292.28 225.11 286.56 228.94 279.50 C 232.78 272.43 238.15 263.81 242.67 257.91 C 247.19 252.00 251.41 248.39 256.05 244.07 C 260.69 239.75 265.07 235.82 270.53 232.00 C 276.00 228.17 283.09 223.51 288.84 221.11 C 294.59 218.71 299.22 218.08 305.04 217.61 C 310.86 217.14 318.20 217.61 323.76 218.30 C 329.31 219.00 333.33 219.79 338.37 221.78 C 343.41 223.78 349.55 227.35 353.99 230.27 C 358.44 233.19 361.55 236.18 365.02 239.32 C 368.49 242.45 371.54 245.39 374.82 249.08 C 378.10 252.77 381.66 258.03 384.70 261.47 C 387.75 264.90 390.03 266.75 393.08 269.67 C 396.13 272.60 400.07 276.59 403.01 279.02 C 405.94 281.44 407.80 282.99 410.69 284.21 C 413.58 285.43 417.47 286.14 420.36 286.33 C 423.25 286.53 425.22 286.27 428.03 285.39 C 430.85 284.51 434.60 282.44 437.26 281.05 C 439.92 279.66 441.79 278.13 443.97 277.06 C 446.16 275.99 448.01 275.52 450.36 274.61 C 452.72 273.69 455.87 272.25 458.07 271.55 C 460.28 270.85 461.61 270.98 463.62 270.41 C 465.63 269.84 468.25 268.28 470.15 268.16 C 472.04 268.03 473.39 268.80 475.01 269.65 C 476.63 270.49 478.42 271.83 479.85 273.22 C 481.27 274.61 482.44 276.14 483.55 277.98 C 484.65 279.83 485.73 282.14 486.49 284.28 C 487.26 286.42 487.80 288.31 488.12 290.82 C 488.45 293.33 488.63 295.95 488.42 299.33 C 488.21 302.72 487.75 307.23 486.87 311.15 C 485.99 315.07 485.17 318.37 483.15 322.85 C 481.13 327.33 477.98 333.26 474.76 338.02 C 471.53 342.78 468.77 346.73 463.78 351.41 C 458.79 356.10 451.19 361.87 444.82 366.13 C 438.45 370.39 432.98 373.48 425.58 376.98 C 418.17 380.49 408.08 384.33 400.38 387.15 C 392.68 389.96 386.17 391.67 379.38 393.88 C 372.59 396.09 366.21 397.99 359.62 400.42 C 353.04 402.85 345.69 406.08 339.89 408.45 C 334.09 410.82 329.93 412.31 324.83 414.66 C 319.73 417.01 313.19 420.01 309.29 422.54 C 305.39 425.07 303.53 427.10 301.42 429.86 C 299.31 432.62 297.56 436.41 296.62 439.08 C 295.69 441.76 295.42 443.66 295.80 445.93 C 296.18 448.19 297.58 450.89 298.91 452.69 C 300.24 454.48 301.68 455.65 303.78 456.70 C 305.88 457.74 308.52 458.31 311.53 458.96 C 314.53 459.60 318.73 460.24 321.81 460.56 C 324.89 460.88 326.88 460.93 330.02 460.88 C 333.15 460.83 337.34 460.64 340.62 460.25 C 343.90 459.86 346.36 459.19 349.70 458.53 C 353.04 457.87 357.94 456.48 360.64 456.28 C 363.33 456.09 364.52 456.65 365.87 457.35 C 367.21 458.04 368.31 459.14 368.72 460.45 C 369.13 461.76 369.13 463.63 368.31 465.19 C 367.49 466.76 366.35 468.16 363.79 469.84 C 361.23 471.52 356.72 473.71 352.97 475.26 C 349.22 476.81 346.29 478.25 341.30 479.15 C 336.31 480.05 329.00 480.58 323.02 480.65 C 317.04 480.71 312.35 480.87 305.41 479.51 C 298.48 478.15 288.76 475.54 281.41 472.47 C 274.06 469.41 267.89 465.62 261.32 461.11 C 254.74 456.61 248.57 451.86 241.94 445.45 C 235.31 439.04 227.33 429.90 221.55 422.67 C 215.77 415.44 212.02 409.76 207.26 402.09 C 202.49 394.41 196.80 384.49 192.95 376.60 C 189.09 368.71 186.74 362.89 184.12 354.73 C 181.51 346.56 179.16 335.58 177.26 327.62 C 175.37 319.65 174.40 314.37 172.77 306.93 C 171.14 299.49 169.18 289.91 167.50 282.96 C 165.81 276.00 164.30 270.86 162.67 265.20 C 161.03 259.53 159.63 254.55 157.69 248.95 C 155.75 243.35 153.36 236.43 151.05 231.59 C 148.73 226.75 146.73 223.42 143.80 219.91 C 140.86 216.41 136.72 212.85 133.43 210.55 C 130.15 208.24 127.60 207.25 124.10 206.07 C 120.60 204.90 116.00 203.43 112.44 203.51 C 108.88 203.59 106.03 204.65 102.73 206.53 C 99.42 208.40 95.39 211.51 92.59 214.78 C 89.79 218.05 87.59 221.78 85.92 226.14 C 84.26 230.50 82.60 234.87 82.62 240.91 C 82.64 246.95 84.27 255.83 86.04 262.38 C 87.81 268.92 89.86 273.71 93.24 280.19 C 96.61 286.68 101.81 295.13 106.32 301.27 C 110.82 307.41 114.49 311.81 120.26 317.02 C 126.03 322.23 134.21 328.39 140.94 332.55 C 147.67 336.70 152.96 339.30 160.64 341.94 C 168.31 344.59 178.95 347.00 187.02 348.42 C 195.09 349.85 202.00 349.85 209.07 350.49 C 216.15 351.13 222.36 351.38 229.48 352.27 C 236.60 353.17 245.47 354.55 251.80 355.85 C 258.12 357.16 262.29 358.04 267.43 360.11 C 272.58 362.18 278.33 365.80 282.67 368.30 C 287.00 370.80 289.51 372.88 293.44 375.11 C 297.38 377.34 302.35 379.89 306.26 381.66 C 310.17 383.43 313.08 384.80 316.90 385.71 C 320.73 386.62 324.64 387.26 329.22 387.12 C 333.80 386.99 339.77 385.89 344.40 384.88 C 349.03 383.88 352.39 383.25 357.00 381.10 C 361.61 378.96 367.67 375.20 372.06 372.02 C 376.45 368.85 379.52 366.23 383.33 362.06 C 387.13 357.90 391.45 351.43 394.89 347.02 C 398.33 342.62 400.82 339.57 403.95 335.63 C 407.07 331.69 410.70 326.83 413.63 323.38 C 416.56 319.92 418.80 317.44 421.51 314.89 C 424.22 312.34 427.05 310.61 429.88 308.08 C 432.70 305.55 435.93 302.32 438.44 299.71 C 440.95 297.09 442.69 295.07 444.95 292.40 C 447.20 289.73 450.12 286.69 451.98 283.68 C 453.84 280.67 454.85 278.09 456.12 274.34 C 457.38 270.60 458.76 265.41 459.55 261.19 C 460.34 256.98 460.68 253.64 460.86 249.08 C 461.03 244.51 460.80 238.47 460.60 233.79 C 460.41 229.11 460.28 225.44 459.69 221.01 C 459.10 216.57 458.59 212.34 457.06 207.18 C 455.53 202.02 453.09 195.28 450.51 190.06 C 447.93 184.84 445.72 180.99 441.56 175.85 C 437.40 170.71 430.95 164.00 425.53 159.21 C 420.11 154.43 415.37 151.16 409.03 147.13 C 402.70 143.11 393.97 138.61 387.52 135.07 C 381.06 131.53 376.17 129.19 370.30 125.90 C 364.43 122.61 356.93 118.69 352.27 115.33 C 347.61 111.96 345.13 108.81 342.34 105.72 C 339.55 102.62 337.09 99.93 335.53 96.76 C 333.97 93.59 333.35 89.58 333.00 86.69 C 332.66 83.81 332.39 81.58 333.47 79.45 C 334.54 77.32 337.16 75.05 339.46 73.91 C 341.76 72.76 343.97 72.61 347.25 72.58 C 350.53 72.54 355.30 72.43 359.14 73.70 C 362.98 74.98 366.57 77.43 370.30 80.20 C 374.03 82.96 377.57 85.78 381.53 90.29 C 385.49 94.80 390.74 101.22 394.04 107.27 C 397.34 113.31 399.68 118.66 401.34 126.58 C 402.99 134.49 403.93 145.98 403.98 154.75 C 404.02 163.51 403.47 170.33 401.58 179.19 C 399.69 188.04 396.20 199.38 392.66 207.87 C 389.13 216.36 385.75 222.62 380.37 230.13 C 375.00 237.64 367.05 246.75 360.41 252.92 C 353.77 259.09 347.53 263.26 340.52 267.14 C 333.52 271.03 326.59 274.26 318.38 276.22 C 310.16 278.19 299.22 279.30 291.23 278.94 C 283.24 278.58 277.16 277.24 270.43 274.06 C 263.69 270.87 255.48 265.07 250.81 259.83 C 246.14 254.58 244.45 248.98 242.40 242.61 C 240.35 236.25 238.84 227.98 238.52 221.62 C 238.20 215.25 239.01 210.29 240.49 204.44 C 241.97 198.59 244.84 191.70 247.39 186.50 C 249.94 181.30 253.00 177.45 255.79 173.26 C 258.58 169.06 261.10 165.40 264.14 161.32 C 267.18 157.25 271.29 152.62 274.02 148.80 C 276.75 144.99 278.24 142.09 280.53 138.42 C 282.82 134.75 285.85 130.27 287.77 126.80 C 289.69 123.34 290.96 121.02 292.04 117.63 C 293.12 114.25 293.90 109.84 294.26 106.51 C 294.62 103.17 294.96 100.83 294.21 97.64 C 293.47 94.46 291.86 90.27 289.80 87.40 C 287.74 84.52 285.17 82.27 281.87 80.40 C 278.56 78.54 275.11 76.88 269.95 76.23 C 264.80 75.57 256.92 75.60 250.93 76.45 C 244.94 77.30 240.33 78.35 234.02 81.33 C 227.70 84.31 219.14 89.47 213.03 94.33 C 206.92 99.19 202.53 104.07 197.36 110.48 C 192.20 116.89 186.17 125.62 182.03 132.78 C 177.88 139.94 175.07 145.48 172.47 153.44 C 169.88 161.41 167.50 172.18 166.43 180.56 C 165.36 188.94 165.09 196.14 166.04 203.73 C 167.00 211.31 168.69 218.48 172.14 226.09 C 175.59 233.70 181.54 242.91 186.75 249.38 C 191.96 255.85 196.74 260.25 203.39 264.89 C 210.05 269.53 219.46 274.28 226.68 277.22 C 233.90 280.16 239.51 281.57 246.71 282.52 C 253.92 283.46 262.98 283.26 269.91 282.91 C 276.84 282.56 282.45 281.64 288.29 280.43 C 294.13 279.23 299.04 277.50 304.96 275.67 C 310.88 273.84 318.32 271.16 323.81 269.45 C 329.30 267.75 332.87 266.51 337.91 265.44 C 342.95 264.36 349.35 263.20 354.07 263.01 C 358.79 262.81 361.86 263.71 366.24 264.25 C 370.62 264.78 376.25 265.47 380.37 266.21 C 384.49 266.95 387.38 267.32 390.95 268.69 C 394.51 270.06 398.75 272.23 401.74 274.42 C 404.73 276.62 406.71 279.13 408.88 281.87 C 411.04 284.60 412.91 287.40 414.72 290.84 C 416.53 294.28 418.36 298.97 419.73 302.50 C 421.09 306.04 421.71 308.65 422.91 312.04 C 424.10 315.43 425.56 319.91 426.89 322.82 C 428.22 325.74 429.37 327.29 430.87 329.55 C 432.38 331.81 434.31 334.74 435.94 336.40 C 437.57 338.06 438.79 338.69 440.65 339.49 C 442.51 340.30 444.97 341.32 447.11 341.23 C 449.24 341.13 451.45 340.56 453.44 338.92 C 455.44 337.28 457.25 334.92 459.08 331.38 C 460.92 327.84 463.16 322.24 464.47 317.65 C 465.78 313.07 466.59 309.39 466.96 303.86 C 467.33 298.33 467.28 290.66 466.70 284.46 C 466.13 278.25 465.28 273.21 463.54 266.63 C 461.79 260.05 458.60 251.49 456.23 244.97 C 453.86 238.44 451.76 233.59 449.32 227.47 C 446.88 221.35 443.71 213.91 441.60 208.26 C 439.48 202.61 437.99 198.15 436.62 193.58 C 435.25 189.01 433.86 184.82 433.38 180.84 C 432.90 176.86 433.46 172.89 433.76 169.68 C 434.06 166.46 434.61 164.27 435.19 161.55 C 435.77 158.84 436.51 155.67 437.23 153.40 C 437.96 151.12 438.49 149.62 439.52 147.90 C 440.55 146.19 442.17 144.47 443.41 143.08 C 444.65 141.70 445.92 140.91 446.97 139.60 C 448.02 138.29 448.90 136.55 449.72 135.22 C 450.54 133.89 451.31 132.89 451.88 131.61 C 452.44 130.34 453.19 129.58 453.11 127.56 C 453.03 125.55 452.16 121.97 451.41 119.52 C 450.65 117.08 450.14 115.54 448.60 112.87 C 447.05 110.19 444.95 106.51 442.12 103.48 C 439.30 100.44 435.97 97.80 431.63 94.67 C 427.30 91.53 421.28 87.44 416.11 84.67 C 410.95 81.89 406.19 80.02 400.65 78.00 C 395.11 75.99 389.82 74.01 382.87 72.59 C 375.92 71.17 366.77 69.66 358.95 69.48 C 351.14 69.31 344.59 69.68 335.99 71.55 C 327.38 73.42 315.90 76.90 307.32 80.70 C 298.74 84.51 292.27 88.72 284.51 94.37 C 276.74 100.02 267.46 107.99 260.73 114.61 C 254.00 121.22 249.29 126.32 244.12 134.05 C 238.95 141.78 233.13 152.51 229.70 161.01 C 226.27 169.50 224.70 177.03 223.52 185.03 C 222.34 193.03 221.94 200.63 222.60 209.00 C 223.27 217.36 225.15 227.65 227.51 235.23 C 229.86 242.80 232.50 248.24 236.75 254.45 C 241.00 260.65 247.75 267.68 252.99 272.48 C 258.24 277.28 262.41 280.20 268.20 283.24 C 273.98 286.28 281.69 289.13 287.69 290.72 C 293.69 292.32 298.30 292.63 304.19 292.80 C 310.09 292.97 317.43 292.58 323.05 291.73 C 328.68 290.89 333.27 289.56 337.94 287.74 C 342.62 285.92 346.71 283.81 351.08 280.80 C 355.45 277.78 360.44 273.38 364.16 269.66 C 367.88 265.93 370.22 262.41 373.43 258.46 C 376.63 254.51 380.47 249.74 383.39 245.98 C 386.31 242.22 388.23 239.35 390.96 235.89 C 393.69 232.44 397.33 228.55 399.77 225.23 C 402.21 221.92 403.45 219.11 405.61 216.03 C 407.77 212.94 410.66 209.62 412.72 206.75 C 414.78 203.87 416.53 201.67 417.97 198.79 C 419.41 195.92 420.33 192.70 421.39 189.49 C 422.44 186.27 423.47 182.67 424.31 179.51 C 425.14 176.35 426.09 173.94 426.39 170.54 C 426.69 167.14 426.52 162.75 426.11 159.11 C 425.69 155.47 425.24 152.60 423.91 148.69 C 422.59 144.77 420.26 139.58 418.15 135.61 C 416.04 131.64 413.65 128.33 411.25 124.86 C 408.85 121.40 406.50 118.42 403.73 114.81 C 400.97 111.19 397.35 106.61 394.65 103.17 C 391.95 99.74 389.40 97.25 387.52 94.19 C 385.65 91.12 384.10 87.27 383.42 84.80 C 382.75 82.33 382.92 81.02 383.49 79.36 C 384.05 77.71 385.62 75.96 386.83 74.88 C 388.03 73.79 389.34 73.53 390.72 72.83 C 392.10 72.13 393.33 70.76 395.12 70.66 C 396.91 70.56 399.04 71.15 401.46 72.24 C 403.87 73.32 406.61 74.68 409.61 77.16 C 412.61 79.63 416.45 83.53 419.45 87.06 C 422.46 90.59 424.84 93.67 427.63 98.32 C 430.43 102.97 433.81 109.46 436.22 114.98 C 438.64 120.50 440.54 124.84 442.13 131.42 C 443.72 138.00 444.81 147.42 445.76 154.45 C 446.71 161.48 447.41 166.54 447.82 173.61 C 448.23 180.68 448.40 189.71 448.22 196.87 C 448.04 204.03 447.46 210.14 446.75 216.56 C 446.04 222.97 445.37 228.50 443.95 235.37 C 442.53 242.24 439.99 251.11 438.24 257.76 C 436.49 264.42 434.91 269.21 433.46 275.28 C 432.01 281.35 430.52 288.70 429.53 294.19 C 428.53 299.68 428.40 303.22 427.47 308.23 C 426.55 313.25 425.19 319.43 423.97 324.27 C 422.76 329.11 421.48 332.74 420.16 337.29 C 418.85 341.85 417.61 347.15 416.09 351.58 C 414.57 356.01 413.27 359.88 411.05 363.89 C 408.82 367.89 406.28 371.42 402.72 375.58 C 399.17 379.74 394.22 385.07 389.72 388.85 C 385.21 392.62 381.36 395.16 375.68 398.22 C 369.99 401.28 362.15 405.01 355.63 407.22 C 349.10 409.42 343.66 410.45 336.51 411.46 C 329.36 412.46 320.08 413.17 312.73 413.26 C 305.38 413.35 300.01 413.49 292.42 412.02 C 284.83 410.54 274.66 407.57 267.20 404.41 C 259.73 401.26 253.85 397.52 247.64 393.09 C 241.44 388.67 235.73 384.05 229.96 377.86 C 224.18 371.68 217.38 363.20 213.00 355.96 C 208.62 348.71 206.11 342.48 203.67 334.41 C 201.24 326.33 199.53 315.64 198.40 307.51 C 197.28 299.39 196.54 293.43 196.90 285.66 C 197.27 277.90 199.22 268.30 200.60 260.93 C 201.98 253.56 203.25 247.64 205.18 241.42 C 207.10 235.20 209.46 229.80 212.17 223.62 C 214.88 217.44 218.93 210.16 221.45 204.32 C 223.97 198.49 225.65 194.17 227.29 188.60 C 228.93 183.03 230.45 176.13 231.27 170.91 C 232.09 165.70 232.19 162.04 232.22 157.31 C 232.25 152.57 231.87 146.87 231.46 142.51 C 231.04 138.14 230.82 134.99 229.73 131.14 C 228.65 127.28 227.13 122.55 224.97 119.39 C 222.80 116.23 220.01 114.00 216.74 112.18 C 213.48 110.36 209.83 109.03 205.36 108.47 C 200.90 107.92 194.90 107.73 189.96 108.85 C 185.02 109.96 180.85 111.77 175.73 115.17 C 170.61 118.57 163.92 124.33 159.24 129.24 C 154.55 134.15 151.02 138.17 147.60 144.63 C 144.18 151.09 140.41 160.30 138.72 167.98 C 137.02 175.66 136.81 182.36 137.41 190.71 C 138.02 199.06 139.65 209.99 142.35 218.05 C 145.06 226.11 149.51 232.29 153.65 239.05 C 157.79 245.81 162.10 251.88 167.18 258.60 C 172.27 265.32 178.99 273.28 184.15 279.37 C 189.31 285.45 193.19 289.61 198.13 295.11 C 203.08 300.61 209.17 307.30 213.84 312.37 C 218.50 317.43 222.38 320.59 226.11 325.51 C 229.83 330.43 233.77 336.93 236.19 341.87 C 238.61 346.81 239.02 350.47 240.63 355.15 C 242.24 359.84 244.21 365.64 245.83 370.00 C 247.46 374.36 248.69 377.71 250.38 381.31 C 252.06 384.92 253.69 388.06 255.94 391.61 C 258.19 395.17 261.31 399.49 263.86 402.64 C 266.41 405.78 268.08 408.04 271.22 410.48 C 274.35 412.91 278.97 415.44 282.68 417.23 C 286.39 419.01 289.44 420.15 293.49 421.19 C 297.54 422.24 302.69 423.07 306.97 423.47 C 311.26 423.88 314.82 423.69 319.19 423.61 C 323.56 423.54 329.14 423.15 333.19 423.04 C 337.24 422.92 340.26 422.86 343.51 422.94 C 346.76 423.01 349.82 422.96 352.69 423.48 C 355.55 424.01 358.56 425.11 360.71 426.09 C 362.85 427.07 364.21 427.87 365.55 429.35 C 366.89 430.83 368.39 433.05 368.75 434.96 C 369.10 436.87 368.64 438.57 367.68 440.80 C 366.71 443.04 365.19 446.07 362.95 448.37 C 360.72 450.67 358.02 452.86 354.27 454.61 C 350.51 456.36 346.12 457.81 340.43 458.88 C 334.74 459.95 326.38 460.64 320.14 461.03 C 313.89 461.42 309.05 461.12 302.95 461.21 C 296.85 461.31 289.29 461.50 283.53 461.59 C 277.77 461.69 273.75 461.81 268.41 461.79 C 263.06 461.78 256.09 461.23 251.48 461.50 C 246.87 461.76 243.83 462.34 240.75 463.38 C 237.68 464.43 234.66 466.33 233.01 467.76 C 231.36 469.18 230.62 470.46 230.84 471.95 C 231.07 473.43 232.36 475.19 234.36 476.66 C 236.35 478.12 239.59 479.80 242.81 480.73 C 246.03 481.67 248.99 482.73 253.70 482.28 C 258.41 481.84 265.32 480.33 271.08 478.06 C 276.85 475.79 281.99 473.20 288.27 468.66 C 294.55 464.11 302.87 456.90 308.76 450.80 C 314.66 444.69 318.77 439.39 323.66 432.02 C 328.55 424.66 334.19 414.55 338.10 406.61 C 342.01 398.66 344.57 391.90 347.12 384.35 C 349.68 376.81 351.94 369.95 353.43 361.34 C 354.93 352.74 356.02 341.43 356.10 332.73 C 356.18 324.03 355.36 317.53 353.91 309.14 C 352.47 300.74 349.66 290.30 347.44 282.37 C 345.21 274.44 343.21 268.91 340.56 261.57 C 337.91 254.23 334.77 245.14 331.53 238.35 C 328.30 231.56 325.24 226.82 321.15 220.82 C 317.07 214.82 311.77 207.56 307.03 202.37 C 302.28 197.18 297.53 193.49 292.68 189.68 C 287.84 185.87 283.13 183.07 277.96 179.51 C 272.78 175.95 266.41 171.69 261.64 168.31 C 256.87 164.94 253.60 162.52 249.34 159.27 C 245.08 156.01 239.79 152.06 236.08 148.79 C 232.37 145.52 230.29 142.82 227.09 139.67 C 223.89 136.51 219.78 132.85 216.87 129.86 C 213.96 126.87 211.89 124.40 209.62 121.73 C 207.36 119.05 205.55 116.51 203.28 113.81 C 201.02 111.10 198.42 107.95 196.03 105.52 C 193.65 103.08 191.98 100.77 188.99 99.21 C 186.00 97.65 181.58 96.75 178.07 96.17 C 174.56 95.60 171.96 95.26 167.95 95.75 C 163.95 96.24 158.25 97.73 154.03 99.12 C 149.81 100.50 146.75 102.10 142.64 104.07 C 138.54 106.03 133.19 109.29 129.41 110.90 C 125.64 112.51 122.99 112.87 119.99 113.73 C 116.98 114.60 114.37 115.44 111.39 116.08 C 108.40 116.71 104.85 117.02 102.08 117.53 C 99.32 118.05 97.19 118.83 94.77 119.15 C 92.35 119.48 89.74 119.19 87.57 119.48 C 85.40 119.78 84.06 119.92 81.77 120.90 C 79.49 121.89 76.25 123.66 73.85 125.41 C 71.45 127.16 69.83 128.95 67.40 131.41 C 64.97 133.88 61.61 137.16 59.28 140.19 C 56.96 143.23 55.17 145.74 53.46 149.62 C 51.75 153.51 50.18 157.83 49.02 163.50 C 47.85 169.17 46.84 177.30 46.47 183.64 C 46.11 189.97 45.85 194.45 46.83 201.52 C 47.81 208.59 50.11 218.56 52.34 226.06 C 54.57 233.56 56.89 239.23 60.22 246.50 C 63.55 253.77 68.12 262.76 72.31 269.70 C 76.50 276.64 80.24 281.72 85.38 288.15 C 90.51 294.58 97.18 302.52 103.12 308.28 C 109.07 314.03 114.60 318.45 121.05 322.67 C 127.49 326.89 133.64 330.78 141.77 333.62 C 149.91 336.46 161.07 338.97 169.85 339.71 C 178.63 340.45 185.77 339.82 194.45 338.07 C 203.13 336.33 214.00 332.66 221.91 329.23 C 229.82 325.79 235.30 322.44 241.91 317.48 C 248.53 312.52 255.91 304.91 261.60 299.46 C 267.30 294.01 271.36 290.28 276.09 284.78 C 280.82 279.29 286.15 272.24 289.97 266.48 C 293.80 260.72 296.26 255.57 299.03 250.22 C 301.80 244.88 303.65 239.68 306.61 234.41 C 309.56 229.14 313.68 223.26 316.75 218.60 C 319.83 213.93 321.92 210.53 325.05 206.41 C 328.17 202.29 332.28 197.38 335.52 193.89 C 338.75 190.40 341.08 188.10 344.46 185.46 C 347.84 182.82 352.21 179.80 355.79 178.04 C 359.38 176.28 362.47 175.52 365.95 174.91 C 369.43 174.30 372.72 174.03 376.67 174.38 C 380.62 174.74 385.81 175.65 389.66 177.03 C 393.51 178.40 396.26 179.93 399.76 182.64 C 403.27 185.35 407.67 189.53 410.67 193.28 C 413.68 197.04 415.71 200.29 417.77 205.18 C 419.84 210.07 422.20 216.75 423.05 222.62 C 423.91 228.49 423.43 233.83 422.91 240.40 C 422.38 246.98 421.58 255.44 419.91 262.07 C 418.25 268.70 415.78 274.25 412.92 280.18 C 410.05 286.11 407.04 291.56 402.72 297.65 C 398.39 303.74 392.29 311.29 386.96 316.74 C 381.64 322.18 376.71 325.65 370.75 330.32 C 364.79 334.99 357.57 340.93 351.20 344.77 C 344.83 348.61 339.67 350.87 332.53 353.37 C 325.38 355.87 315.83 358.33 308.34 359.77 C 300.85 361.20 295.06 361.77 287.57 362.00 C 280.08 362.23 270.73 362.05 263.41 361.13 C 256.10 360.22 250.07 358.44 243.69 356.52 C 237.31 354.61 231.48 352.82 225.13 349.66 C 218.79 346.50 211.23 341.75 205.60 337.58 C 199.98 333.42 196.30 329.38 191.38 324.65 C 186.46 319.92 180.61 313.74 176.09 309.21 C 171.56 304.67 168.24 302.04 164.25 297.44 C 160.25 292.84 155.58 286.45 152.10 281.63 C 148.63 276.82 146.47 273.15 143.39 268.57 C 140.32 264.00 136.58 258.37 133.66 254.17 C 130.73 249.98 128.39 246.82 125.84 243.41 C 123.30 240.01 121.23 236.86 118.40 233.76 C 115.58 230.66 111.78 227.05 108.90 224.82 C 106.01 222.59 104.07 221.13 101.10 220.38 C 98.13 219.64 94.00 219.85 91.06 220.37 C 88.13 220.88 86.19 221.62 83.50 223.47 C 80.81 225.31 77.29 228.61 74.90 231.44 C 72.52 234.27 70.79 236.63 69.18 240.45 C 67.57 244.27 66.02 249.84 65.25 254.35 C 64.48 258.87 64.34 262.87 64.58 267.53 C 64.82 272.19 65.44 276.81 66.71 282.33 C 67.97 287.86 70.14 295.06 72.15 300.68 C 74.16 306.31 75.41 310.47 78.76 316.06 C 82.11 321.65 87.49 329.01 92.27 334.23 C 97.05 339.46 101.27 343.09 107.45 347.42 C 113.64 351.75 122.25 356.82 129.36 360.24 C 136.48 363.66 142.85 366.08 150.16 367.94 C 157.46 369.80 164.72 371.05 173.19 371.38 C 181.65 371.71 192.49 371.31 200.95 369.93 C 209.41 368.55 216.01 366.52 223.94 363.13 C 231.86 359.73 241.67 354.68 248.51 349.55 C 255.36 344.42 259.76 338.95 265.01 332.35 C 270.27 325.75 276.11 317.03 280.03 309.94 C 283.95 302.86 286.60 297.42 288.53 289.85 C 290.45 282.29 291.56 272.07 291.59 264.53 C 291.63 256.99 290.18 250.91 288.75 244.60 C 287.31 238.30 285.76 232.75 282.96 226.69 C 280.15 220.62 275.49 213.51 271.91 208.21 C 268.33 202.91 265.46 199.49 261.48 194.89 C 257.51 190.30 251.86 184.84 248.05 180.62 C 244.24 176.41 241.81 173.55 238.64 169.59 C 235.47 165.63 231.62 160.78 229.02 156.85 C 226.42 152.92 224.85 149.93 223.06 146.01 C 221.26 142.08 219.50 137.09 218.25 133.30 C 217.00 129.51 216.51 126.44 215.56 123.26 C 214.60 120.08 213.77 117.36 212.51 114.23 C 211.26 111.10 209.64 107.33 208.03 104.47 C 206.42 101.61 204.88 99.51 202.87 97.05 C 200.85 94.60 198.27 91.78 195.97 89.75 C 193.66 87.72 191.87 86.22 189.05 84.88 C 186.23 83.53 182.00 82.73 179.06 81.68 C 176.12 80.64 173.76 79.85 171.41 78.62 C 169.06 77.38 166.35 75.87 164.95 74.29 C 163.55 72.71 163.09 71.02 162.99 69.14 C 162.89 67.26 163.01 65.27 164.34 63.02 C 165.66 60.76 168.37 57.71 170.95 55.60 C 173.53 53.49 176.57 52.13 179.81 50.34 C 183.05 48.54 187.36 46.52 190.38 44.82 C 193.40 43.13 194.90 41.78 197.93 40.17 C 200.95 38.56 205.79 36.68 208.54 35.15 C 211.29 33.63 212.99 32.39 214.46 31.02 C 215.92 29.65 216.71 28.38 217.31 26.92 C 217.91 25.47 218.10 23.67 218.06 22.30 C 218.03 20.94 217.27 19.95 217.10 18.74 C 216.93 17.53 216.81 16.16 217.06 15.06 C 217.31 13.96 217.86 13.20 218.59 12.14 C 219.33 11.08 220.39 9.68 221.47 8.72 C 222.55 7.76 223.49 7.19 225.08 6.38 C 226.66 5.57 229.03 4.57 230.99 3.86 C 232.96 3.15 234.55 2.60 236.87 2.14 C 239.20 1.68 241.04 0.84 244.92 1.10 C 248.81 1.36 255.14 2.37 260.19 3.69 C 265.24 5.01 269.61 6.64 275.20 9.01 C 280.80 11.38 288.00 14.77 293.76 17.91 C 299.52 21.04 304.01 23.37 309.76 27.82 C 315.50 32.27 322.90 38.58 328.22 44.59 C 333.55 50.59 337.34 56.09 341.69 63.84 C 346.05 71.59 351.23 82.36 354.34 91.10 C 357.45 99.85 359.08 107.67 360.34 116.32 C 361.60 124.96 362.91 133.18 361.92 142.97 C 360.92 152.75 357.62 165.68 354.34 175.03 C 351.07 184.37 347.42 190.92 342.28 199.03 C 337.14 207.13 329.78 217.02 323.50 223.67 C 317.22 230.31 311.76 234.44 304.61 238.92 C 297.47 243.40 288.07 248.01 280.63 250.56 C 273.18 253.12 267.16 254.30 259.93 254.24 C 252.70 254.19 243.71 252.12 237.24 250.24 C 230.78 248.37 226.08 245.89 221.15 242.98 C 216.22 240.07 211.81 237.08 207.66 232.76 C 203.52 228.44 199.35 221.92 196.29 217.07 C 193.22 212.21 191.79 208.29 189.27 203.64 C 186.75 198.98 183.27 193.57 181.18 189.12 C 179.10 184.68 178.62 181.09 176.76 176.95 C 174.91 172.81 172.43 167.64 170.05 164.30 C 167.66 160.96 165.80 158.67 162.46 156.92 C 159.12 155.17 154.01 154.00 150.01 153.79 C 146.01 153.59 142.23 154.25 138.47 155.67 C 134.70 157.09 131.29 159.01 127.42 162.31 C 123.55 165.61 118.62 171.05 115.23 175.48 C 111.84 179.92 109.57 183.60 107.08 188.91 C 104.59 194.22 101.82 201.32 100.30 207.32 C 98.78 213.32 98.05 218.20 97.95 224.91 C 97.86 231.62 98.81 240.67 99.72 247.59 C 100.63 254.50 101.41 260.23 103.42 266.42 C 105.43 272.60 107.72 278.36 111.78 284.69 C 115.85 291.02 122.14 298.94 127.81 304.39 C 133.47 309.85 138.74 313.24 145.76 317.43 C 152.79 321.62 162.26 326.58 169.96 329.55 C 177.66 332.51 184.10 333.65 191.98 335.22 C 199.87 336.79 209.44 338.61 217.29 338.98 C 225.15 339.36 231.52 339.03 239.10 337.47 C 246.68 335.91 255.79 332.53 262.76 329.62 C 269.74 326.71 275.28 323.60 280.94 320.03 C 286.59 316.45 291.39 312.88 296.69 308.18 C 301.99 303.47 308.32 297.00 312.74 291.81 C 317.16 286.61 319.32 282.01 323.22 276.99 C 327.11 271.98 332.33 266.28 336.12 261.70 C 339.92 257.13 342.55 253.89 345.99 249.54 C 349.43 245.20 353.42 239.43 356.78 235.64 C 360.14 231.84 362.64 229.52 366.15 226.78 C 369.66 224.03 374.19 221.08 377.83 219.19 C 381.46 217.30 384.62 216.11 387.96 215.44 C 391.29 214.76 394.31 214.53 397.83 215.12 C 401.34 215.71 405.74 217.48 409.06 218.98 C 412.37 220.48 414.82 221.71 417.71 224.14 C 420.60 226.57 423.94 230.43 426.38 233.56 C 428.83 236.69 430.44 239.21 432.38 242.90 C 434.32 246.59 436.54 251.61 438.02 255.71 C 439.49 259.82 440.10 263.49 441.23 267.53 C 442.37 271.58 443.62 276.63 444.84 279.98 C 446.05 283.32 447.25 285.38 448.51 287.62 C 449.76 289.86 450.73 291.65 452.39 293.41 C 454.05 295.17 456.61 297.51 458.48 298.18 C 460.35 298.86 461.72 298.15 463.62 297.46 C 465.51 296.77 468.02 294.94 469.85 294.04 C 471.68 293.13 472.93 292.64 474.60 292.02 C 476.26 291.40 478.33 290.35 479.84 290.31 C 481.35 290.26 482.62 290.51 483.66 291.77 C 484.71 293.02 485.68 295.47 486.10 297.85 C 486.51 300.23 486.49 302.99 486.16 306.05 C 485.82 309.11 485.24 312.24 484.08 316.20 C 482.92 320.16 481.34 325.43 479.19 329.81 C 477.04 334.18 474.42 337.78 471.18 342.43 C 467.94 347.09 463.86 353.13 459.75 357.73 C 455.64 362.32 452.07 365.78 446.50 370.00 C 440.93 374.21 433.08 379.58 426.32 383.04 C 419.57 386.50 412.87 388.45 405.97 390.76 C 399.07 393.07 392.78 394.96 384.90 396.92 C 377.01 398.87 366.46 400.95 358.65 402.49 C 350.84 404.03 344.96 404.61 338.04 406.16 C 331.12 407.72 322.95 409.93 317.14 411.82 C 311.32 413.70 308.11 415.49 303.15 417.47 C 298.18 419.45 292.07 421.90 287.35 423.72 C 282.62 425.53 279.18 426.68 274.81 428.35 C 270.44 430.02 265.12 432.10 261.13 433.75 C 257.14 435.40 254.00 436.71 250.87 438.23 C 247.75 439.75 245.71 441.34 242.36 442.87 C 239.01 444.40 234.49 446.28 230.77 447.44 C 227.06 448.60 223.93 449.21 220.08 449.85 C 216.24 450.50 211.69 451.14 207.73 451.31 C 203.76 451.48 200.67 451.51 196.32 450.87 C 191.96 450.23 186.32 449.37 181.59 447.48 C 176.86 445.59 172.83 443.30 167.92 439.51 C 163.01 435.72 156.69 429.83 152.15 424.75 C 147.60 419.67 144.17 414.67 140.65 409.02 C 137.13 403.38 134.14 397.74 131.01 390.87 C 127.87 384.00 124.48 374.78 121.82 367.80 C 119.15 360.83 117.36 355.63 115.03 349.03 C 112.70 342.43 110.06 334.04 107.84 328.20 C 105.62 322.35 103.93 318.87 101.71 313.94 C 99.49 309.02 96.92 302.95 94.52 298.64 C 92.13 294.33 90.00 291.45 87.35 288.08 C 84.70 284.71 81.16 281.22 78.62 278.42 C 76.08 275.62 74.30 273.04 72.12 271.28 C 69.94 269.51 67.82 269.41 65.55 267.84 C 63.28 266.26 60.42 263.99 58.49 261.83 C 56.55 259.67 55.29 257.89 53.94 254.89 C 52.59 251.88 51.37 247.34 50.39 243.81 C 49.41 240.28 48.76 237.34 48.08 233.71 C 47.40 230.08 46.91 225.36 46.32 222.04 C 45.72 218.71 44.98 216.61 44.50 213.75 C 44.03 210.89 43.81 207.95 43.48 204.89 C 43.16 201.82 42.91 198.11 42.55 195.35 C 42.19 192.59 41.93 190.57 41.32 188.32 C 40.71 186.08 39.50 184.01 38.90 181.86 C 38.29 179.72 37.99 177.77 37.68 175.45 C 37.36 173.14 37.18 170.28 37.01 167.96 C 36.84 165.65 36.53 164.13 36.67 161.58 C 36.81 159.04 37.05 155.53 37.83 152.69 C 38.60 149.84 39.86 147.50 41.32 144.49 C 42.79 141.48 44.26 138.26 46.64 134.61 C 49.01 130.96 52.60 126.19 55.58 122.60 C 58.57 119.02 60.42 116.60 64.53 113.08 C 68.63 109.57 75.01 104.81 80.22 101.53 C 85.44 98.25 89.67 96.12 95.80 93.38 C 101.92 90.65 110.11 87.24 116.98 85.13 C 123.86 83.03 129.20 81.52 137.06 80.76 C 144.91 80.00 155.67 79.90 164.14 80.57 C 172.60 81.23 179.96 82.62 187.83 84.74 C 195.70 86.86 203.07 89.27 211.37 93.29 C 219.67 97.31 230.07 103.37 237.62 108.88 C 245.16 114.39 250.53 119.21 256.65 126.33 C 262.77 133.45 269.79 143.57 274.33 151.60 C 278.87 159.63 281.21 166.11 283.91 174.52 C 286.60 182.92 289.16 193.68 290.50 202.02 C 291.85 210.35 292.13 216.55 291.98 224.52 C 291.84 232.49 290.76 242.38 289.64 249.86 C 288.53 257.34 286.77 263.13 285.30 269.38 C 283.84 275.64 282.78 281.13 280.87 287.38 C 278.97 293.64 275.93 301.08 273.88 306.91 C 271.84 312.74 269.80 316.85 268.58 322.36 C 267.36 327.87 266.43 334.88 266.58 339.96 C 266.72 345.04 267.94 348.36 269.45 352.83 C 270.96 357.31 273.33 362.80 275.62 366.80 C 277.90 370.81 279.81 373.90 283.16 376.85 C 286.51 379.79 291.41 382.88 295.71 384.46 C 300.02 386.03 304.45 386.24 309.00 386.30 C 313.56 386.36 317.93 385.78 323.03 384.84 C 328.13 383.90 334.61 382.29 339.59 380.66 C 344.57 379.04 348.19 377.32 352.89 375.08 C 357.59 372.85 363.39 369.53 367.78 367.27 C 372.17 365.01 375.09 363.57 379.23 361.51 C 383.36 359.44 388.70 357.06 392.58 354.87 C 396.47 352.68 399.27 350.66 402.54 348.35 C 405.81 346.05 408.87 343.50 412.21 341.02 C 415.55 338.53 419.58 335.95 422.57 333.45 C 425.57 330.96 427.50 329.22 430.18 326.07 C 432.85 322.91 436.28 318.39 438.63 314.54 C 440.98 310.69 442.57 307.43 444.29 302.95 C 446.02 298.47 447.92 292.62 449.00 287.63 C 450.07 282.64 450.42 278.45 450.74 273.00 C 451.05 267.55 451.04 260.31 450.89 254.91 C 450.74 249.51 449.98 245.18 449.83 240.59 C 449.67 235.99 449.59 231.52 449.96 227.34 C 450.32 223.16 451.20 218.84 452.02 215.50 C 452.83 212.15 453.68 209.87 454.84 207.26 C 455.99 204.65 457.83 202.11 458.96 199.83 C 460.08 197.55 460.68 195.88 461.60 193.59 C 462.53 191.29 463.99 188.63 464.51 186.07 C 465.02 183.50 464.92 181.26 464.70 178.18 C 464.47 175.11 464.25 171.13 463.16 167.61 C 462.07 164.10 460.40 160.89 458.16 157.10 C 455.92 153.32 453.62 149.26 449.72 144.91 C 445.81 140.56 439.97 135.04 434.73 130.99 C 429.50 126.94 425.02 123.95 418.32 120.62 C 411.62 117.28 402.34 113.16 394.53 110.98 C 386.72 108.81 380.18 107.93 371.45 107.57 C 362.73 107.20 351.11 107.75 342.18 108.79 C 333.25 109.83 326.49 111.49 317.86 113.81 C 309.24 116.14 298.51 119.16 290.42 122.73 C 282.34 126.30 275.75 130.19 269.38 135.25 C 263.01 140.31 257.36 145.83 252.22 153.11 C 247.09 160.40 241.63 170.74 238.57 178.97 C 235.51 187.21 234.23 194.07 233.84 202.53 C 233.46 210.98 234.71 221.81 236.27 229.71 C 237.83 237.60 240.10 243.08 243.21 249.91 C 246.32 256.73 249.49 262.37 254.92 270.66 C 260.34 278.95 272.28 294.80 275.75 299.63" fill="none" stroke="#fff" stroke-width="4.48" stroke-opacity="1" stroke-linecap="round" stroke-linejoin="round"/>
  </g>
</svg>