<?xml version="1.0" encoding="UTF-8"?>
<svg xmlns="http://www.w3.org/2000/svg" width="512" height="512" viewBox="0 0 512 512">
  <rect width="100%" height="100%" fill="#000"/>
  <g>
    <path d="M 256.00 256.00 C 258.65 254.04 267.03 249.06 271.89 244.26 C 276.76 239.47 281.94 233.36 285.19 227.22 C 288.44 221.07 290.71 213.99 291.40 207.41 C 292.09 200.83 291.18 193.93 289.32 187.74 C 287.46 181.54 284.39 175.22 280.24 170.22 C 276.09 165.21 270.41 160.62 264.44 157.70 C 258.46 154.79 251.43 153.06 244.39 152.73 C 237.35 152.40 229.19 153.19 222.18 155.71 C 215.16 158.23 208.32 162.77 202.31 167.85 C 196.30 172.94 190.18 179.24 186.10 186.21 C 182.02 193.18 179.34 201.62 177.83 209.69 C 176.31 217.76 176.04 226.42 177.02 234.64 C 178.00 242.86 180.24 251.48 183.70 258.99 C 187.16 266.50 192.07 273.89 197.78 279.68 C 203.50 285.46 210.75 290.22 218.02 293.69 C 225.29 297.15 233.57 299.15 241.39 300.49 C 249.21 301.82 257.32 302.22 264.94 301.71 C 272.55 301.20 279.91 299.13 287.07 297.43 C 294.22 295.73 301.15 293.39 307.87 291.51 C 314.59 289.64 321.10 287.56 327.37 286.20 C 333.64 284.85 339.67 283.78 345.50 283.40 C 351.33 283.03 357.02 282.98 362.33 283.95 C 367.64 284.93 372.99 286.68 377.34 289.27 C 381.69 291.86 385.55 295.40 388.42 299.49 C 391.30 303.58 393.35 308.65 394.58 313.80 C 395.81 318.96 396.24 324.69 395.79 330.43 C 395.35 336.16 394.47 342.47 391.93 348.24 C 389.40 354.02 385.60 360.08 380.60 365.08 C 375.61 370.07 368.99 374.70 361.95 378.20 C 354.91 381.70 346.76 384.71 338.36 386.09 C 329.96 387.48 320.46 387.98 311.55 386.50 C 302.63 385.02 293.07 381.83 284.88 377.20 C 276.70 372.57 268.77 365.75 262.42 358.74 C 256.07 351.72 251.43 343.14 246.78 335.11 C 242.12 327.08 238.01 318.67 234.47 310.56 C 230.94 302.44 228.21 294.29 225.57 286.40 C 222.94 278.51 221.12 270.56 218.66 263.22 C 216.21 255.88 213.77 248.87 210.85 242.33 C 207.94 235.80 204.23 229.92 201.18 224.02 C 198.12 218.11 195.24 212.46 192.52 206.89 C 189.81 201.32 187.10 196.04 184.86 190.59 C 182.63 185.15 180.38 179.72 179.10 174.22 C 177.83 168.72 177.26 163.09 177.23 157.58 C 177.20 152.08 177.64 146.54 178.93 141.16 C 180.23 135.79 182.35 130.21 184.99 125.33 C 187.64 120.45 191.42 116.27 194.79 111.89 C 198.16 107.51 201.71 103.01 205.20 99.04 C 208.70 95.08 212.34 91.72 215.76 88.11 C 219.18 84.50 222.54 80.88 225.72 77.37 C 228.90 73.85 232.33 70.38 234.85 67.02 C 237.36 63.66 239.75 60.43 240.82 57.20 C 241.89 53.97 241.94 50.69 241.27 47.64 C 240.60 44.59 239.33 41.28 236.79 38.91 C 234.25 36.54 230.26 34.49 226.05 33.40 C 221.84 32.31 216.87 31.88 211.54 32.37 C 206.21 32.85 200.15 33.84 194.09 36.31 C 188.03 38.78 181.23 42.38 175.19 47.18 C 169.14 51.98 163.04 58.15 157.82 65.13 C 152.60 72.10 147.50 80.39 143.87 89.04 C 140.24 97.69 137.56 107.29 136.05 117.03 C 134.53 126.78 134.08 137.44 134.77 147.50 C 135.47 157.57 137.69 167.72 140.21 177.41 C 142.73 187.09 146.16 196.64 149.89 205.62 C 153.61 214.61 158.14 223.16 162.56 231.32 C 166.98 239.48 172.06 246.99 176.42 254.58 C 180.78 262.17 184.56 269.76 188.72 276.84 C 192.88 283.92 197.30 290.59 201.37 297.06 C 205.43 303.52 209.69 309.41 213.11 315.62 C 216.54 321.83 219.84 328.32 221.94 334.32 C 224.04 340.31 225.26 345.99 225.72 351.59 C 226.17 357.18 225.83 362.88 224.68 367.89 C 223.52 372.90 221.57 377.64 218.79 381.64 C 216.00 385.63 212.16 389.17 207.98 391.88 C 203.80 394.58 198.68 396.41 193.73 397.87 C 188.77 399.33 183.61 400.70 178.27 400.64 C 172.93 400.58 167.21 399.31 161.67 397.50 C 156.13 395.69 150.34 393.11 145.03 389.78 C 139.72 386.45 134.46 382.41 129.81 377.52 C 125.16 372.62 120.82 366.64 117.13 360.42 C 113.43 354.19 110.09 347.46 107.65 340.18 C 105.22 332.89 103.23 324.81 102.50 316.73 C 101.77 308.66 101.92 300.07 103.26 291.75 C 104.60 283.44 106.83 274.85 110.55 266.83 C 114.27 258.82 119.46 250.54 125.58 243.65 C 131.71 236.77 139.19 230.29 147.30 225.54 C 155.41 220.80 165.02 217.03 174.23 215.17 C 183.45 213.32 193.53 213.27 202.58 214.43 C 211.63 215.60 220.58 218.63 228.52 222.17 C 236.46 225.70 243.75 230.50 250.19 235.65 C 256.64 240.79 262.19 246.95 267.17 253.04 C 272.15 259.12 276.24 265.89 280.06 272.16 C 283.87 278.43 286.80 284.71 290.06 290.64 C 293.32 296.57 296.40 302.37 299.62 307.76 C 302.85 313.15 305.93 318.15 309.41 322.95 C 312.89 327.76 316.39 332.91 320.50 336.60 C 324.60 340.29 329.24 342.89 334.05 345.09 C 338.86 347.29 344.02 349.24 349.33 349.78 C 354.65 350.32 360.50 350.00 365.93 348.32 C 371.36 346.64 377.18 343.78 381.92 339.69 C 386.66 335.60 390.81 329.51 394.37 323.78 C 397.94 318.05 400.64 311.51 403.29 305.29 C 405.95 299.07 407.96 292.43 410.33 286.47 C 412.70 280.50 415.13 274.96 417.52 269.51 C 419.91 264.06 422.09 258.44 424.68 253.76 C 427.27 249.09 430.21 245.07 433.07 241.46 C 435.93 237.85 438.98 235.22 441.82 232.11 C 444.67 228.99 447.61 226.02 450.12 222.78 C 452.64 219.55 455.09 216.37 456.91 212.69 C 458.73 209.00 460.14 204.98 461.05 200.66 C 461.96 196.34 462.54 191.60 462.37 186.76 C 462.20 181.91 461.39 176.78 460.04 171.58 C 458.68 166.38 456.72 160.88 454.22 155.57 C 451.71 150.25 448.73 144.85 445.01 139.70 C 441.30 134.56 436.97 129.50 431.92 124.70 C 426.86 119.90 420.93 115.08 414.69 110.90 C 408.45 106.72 401.85 102.68 394.47 99.63 C 387.09 96.57 378.77 94.20 370.42 92.55 C 362.08 90.90 353.29 89.69 344.41 89.73 C 335.53 89.77 326.20 90.76 317.14 92.80 C 308.09 94.83 298.69 97.82 290.08 101.94 C 281.47 106.05 273.10 111.55 265.48 117.48 C 257.87 123.42 250.96 130.65 244.38 137.56 C 237.81 144.47 231.89 152.05 226.04 158.96 C 220.19 165.86 214.69 172.65 209.26 178.99 C 203.83 185.33 198.84 191.51 193.48 197.00 C 188.12 202.48 182.48 207.50 177.11 211.90 C 171.74 216.29 166.58 220.42 161.26 223.37 C 155.93 226.33 150.36 228.80 145.16 229.62 C 139.97 230.45 134.69 229.83 130.11 228.31 C 125.52 226.80 120.87 224.18 117.63 220.52 C 114.39 216.86 111.98 211.56 110.67 206.35 C 109.36 201.13 109.02 195.19 109.75 189.25 C 110.48 183.31 112.42 176.68 115.04 170.70 C 117.65 164.72 121.81 158.94 125.43 153.36 C 129.04 147.79 132.99 142.40 136.75 137.25 C 140.50 132.09 144.40 127.17 147.94 122.42 C 151.48 117.66 155.10 113.19 157.97 108.71 C 160.84 104.23 163.33 99.74 165.17 95.52 C 167.00 91.30 168.58 87.14 168.97 83.40 C 169.36 79.65 169.13 75.74 167.50 73.03 C 165.88 70.32 162.64 68.09 159.22 67.13 C 155.79 66.18 151.53 66.06 146.96 67.32 C 142.39 68.58 136.77 70.95 131.79 74.69 C 126.81 78.42 121.23 83.46 117.09 89.73 C 112.95 96.00 109.21 103.80 106.97 112.33 C 104.74 120.85 103.21 131.10 103.67 140.86 C 104.14 150.62 106.34 161.08 109.78 170.89 C 113.23 180.71 118.17 191.23 124.35 199.76 C 130.52 208.28 138.61 215.89 146.82 222.03 C 155.03 228.16 165.32 232.84 173.61 236.56 C 181.89 240.28 188.35 241.95 196.54 244.36 C 204.72 246.77 214.26 248.86 222.70 251.02 C 231.14 253.17 239.28 255.30 247.20 257.27 C 255.11 259.24 262.88 260.67 270.17 262.85 C 277.45 265.03 284.19 267.98 290.90 270.33 C 297.61 272.67 304.12 274.90 310.45 276.92 C 316.79 278.95 322.91 281.15 328.91 282.46 C 334.91 283.77 340.71 284.73 346.46 284.78 C 352.22 284.84 358.05 284.44 363.45 282.79 C 368.84 281.13 374.16 278.17 378.82 274.86 C 383.48 271.55 387.49 266.98 391.42 262.95 C 395.35 258.92 398.96 254.64 402.42 250.69 C 405.88 246.73 408.92 242.66 412.19 239.22 C 415.46 235.78 418.57 232.26 422.04 230.04 C 425.52 227.83 429.39 226.72 433.05 225.93 C 436.70 225.15 440.39 225.26 443.98 225.33 C 447.58 225.40 451.19 225.69 454.62 226.36 C 458.05 227.03 461.40 228.41 464.57 229.36 C 467.74 230.31 470.71 231.65 473.66 232.05 C 476.60 232.45 479.42 232.14 482.22 231.77 C 485.03 231.40 488.01 230.91 490.48 229.85 C 492.95 228.78 495.22 227.39 497.06 225.37 C 498.89 223.36 500.26 220.68 501.51 217.75 C 502.75 214.81 503.97 211.39 504.53 207.75 C 505.09 204.10 505.40 200.41 504.87 195.88 C 504.35 191.34 503.52 185.82 501.37 180.53 C 499.22 175.24 496.20 169.69 491.98 164.12 C 487.77 158.56 482.40 152.37 476.07 147.14 C 469.75 141.91 462.08 136.76 454.05 132.74 C 446.02 128.71 437.32 125.37 427.89 122.99 C 418.45 120.62 407.69 119.06 397.45 118.48 C 387.21 117.90 376.70 118.02 366.46 119.49 C 356.22 120.96 345.68 123.39 336.02 127.32 C 326.35 131.25 316.63 136.76 308.48 143.09 C 300.33 149.42 293.07 157.37 287.12 165.30 C 281.16 173.23 276.18 181.95 272.73 190.69 C 269.29 199.42 267.45 208.89 266.44 217.69 C 265.43 226.50 266.14 235.30 266.66 243.50 C 267.17 251.69 268.70 259.27 269.53 266.88 C 270.36 274.50 271.16 281.95 271.63 289.19 C 272.10 296.43 272.56 303.62 272.36 310.31 C 272.16 317.01 271.78 323.23 270.43 329.37 C 269.08 335.51 267.12 341.72 264.26 347.18 C 261.40 352.64 257.66 357.98 253.28 362.14 C 248.89 366.29 243.59 369.82 237.94 372.10 C 232.28 374.39 225.75 375.97 219.33 375.82 C 212.92 375.68 205.87 373.96 199.45 371.23 C 193.04 368.51 186.46 364.49 180.84 359.47 C 175.21 354.46 169.84 347.94 165.70 341.17 C 161.57 334.39 158.49 326.53 156.00 318.84 C 153.52 311.15 152.22 302.91 150.81 295.03 C 149.39 287.15 148.51 279.18 147.51 271.58 C 146.51 263.98 145.83 256.47 144.81 249.46 C 143.78 242.45 142.46 235.88 141.39 229.53 C 140.31 223.19 139.57 217.25 138.35 211.38 C 137.12 205.51 135.96 199.34 134.05 194.32 C 132.14 189.30 129.64 185.06 126.89 181.26 C 124.13 177.46 120.86 174.16 117.52 171.54 C 114.17 168.91 110.44 167.14 106.81 165.51 C 103.17 163.88 99.36 162.70 95.73 161.78 C 92.10 160.85 88.74 159.97 85.03 159.97 C 81.31 159.96 77.20 160.58 73.43 161.73 C 69.65 162.87 65.84 164.56 62.39 166.86 C 58.94 169.16 55.75 171.91 52.73 175.52 C 49.70 179.13 46.46 183.42 44.24 188.50 C 42.01 193.59 40.32 199.67 39.37 206.05 C 38.42 212.44 37.83 219.59 38.54 226.82 C 39.24 234.05 40.99 241.80 43.62 249.45 C 46.24 257.09 49.88 265.14 54.27 272.67 C 58.66 280.19 63.84 287.86 69.94 294.60 C 76.03 301.34 83.26 307.63 90.85 313.10 C 98.44 318.56 106.86 323.38 115.48 327.39 C 124.10 331.40 133.41 334.76 142.59 337.16 C 151.78 339.55 161.30 340.99 170.60 341.74 C 179.89 342.50 189.23 342.33 198.36 341.70 C 207.48 341.07 216.76 340.10 225.37 337.96 C 233.98 335.82 242.34 332.79 250.01 328.84 C 257.68 324.90 265.11 319.92 271.39 314.29 C 277.67 308.67 283.38 302.08 287.67 295.10 C 291.96 288.12 295.39 280.19 297.14 272.41 C 298.88 264.62 299.18 256.08 298.12 248.37 C 297.06 240.66 294.30 232.77 290.76 226.13 C 287.23 219.50 282.43 213.27 276.92 208.56 C 271.42 203.85 264.59 200.31 257.74 197.86 C 250.89 195.42 243.05 193.88 235.82 193.88 C 228.59 193.89 221.14 195.38 214.36 197.88 C 207.59 200.38 200.89 204.37 195.16 208.88 C 189.42 213.40 184.60 219.47 179.95 224.96 C 175.29 230.44 171.30 236.33 167.21 241.79 C 163.12 247.24 159.45 253.01 155.42 257.67 C 151.39 262.33 147.30 266.19 143.02 269.74 C 138.74 273.29 134.33 276.95 129.73 278.98 C 125.14 281.00 120.13 281.42 115.44 281.88 C 110.74 282.34 105.95 282.67 101.56 281.75 C 97.18 280.83 93.01 279.00 89.14 276.36 C 85.27 273.72 81.35 269.97 78.33 265.91 C 75.31 261.85 72.84 257.01 71.01 252.00 C 69.18 247.00 67.79 241.70 67.35 235.88 C 66.91 230.05 67.05 223.47 68.36 217.07 C 69.67 210.67 72.09 204.00 75.23 197.46 C 78.36 190.92 82.37 183.93 87.17 177.83 C 91.97 171.73 97.60 165.90 104.02 160.84 C 110.45 155.78 117.63 150.87 125.71 147.48 C 133.78 144.09 143.30 141.88 152.48 140.51 C 161.65 139.13 171.37 138.55 180.76 139.25 C 190.16 139.95 199.86 141.88 208.82 144.72 C 217.79 147.55 226.58 151.41 234.53 156.26 C 242.49 161.11 250.17 167.21 256.54 173.83 C 262.91 180.45 268.43 188.28 272.76 195.95 C 277.10 203.62 279.83 211.85 282.55 219.85 C 285.27 227.85 286.98 236.25 289.09 243.97 C 291.20 251.70 293.03 259.17 295.20 266.20 C 297.37 273.23 299.57 279.92 302.11 286.17 C 304.65 292.42 307.17 298.35 310.42 303.70 C 313.67 309.05 317.55 313.97 321.61 318.25 C 325.66 322.52 330.32 326.05 334.74 329.36 C 339.16 332.66 343.84 335.32 348.13 338.08 C 352.42 340.83 356.61 343.10 360.48 345.89 C 364.36 348.68 368.10 351.62 371.40 354.80 C 374.70 357.97 377.90 361.29 380.29 364.93 C 382.67 368.57 384.59 372.59 385.70 376.62 C 386.82 380.66 387.11 384.96 386.98 389.14 C 386.85 393.32 386.46 397.32 384.92 401.72 C 383.38 406.11 381.10 411.14 377.76 415.51 C 374.41 419.88 369.67 424.36 364.84 427.95 C 360.01 431.54 354.41 434.25 348.79 437.06 C 343.17 439.87 336.84 442.31 331.14 444.82 C 325.43 447.32 319.85 449.65 314.58 452.09 C 309.31 454.54 304.20 456.97 299.53 459.49 C 294.86 462.02 289.94 464.53 286.54 467.26 C 283.13 469.99 280.57 473.09 279.11 475.85 C 277.65 478.62 277.17 481.32 277.78 483.84 C 278.39 486.37 280.18 489.14 282.78 491.01 C 285.37 492.89 289.02 494.68 293.35 495.11 C 297.68 495.55 303.30 495.16 308.77 493.62 C 314.24 492.08 320.16 489.57 326.16 485.87 C 332.16 482.18 338.90 476.93 344.78 471.45 C 350.65 465.97 356.26 459.71 361.43 453.00 C 366.61 446.28 371.35 438.51 375.82 431.18 C 380.28 423.85 384.14 416.15 388.20 409.01 C 392.26 401.88 396.23 394.78 400.17 388.36 C 404.10 381.94 407.94 375.98 411.81 370.50 C 415.68 365.02 419.61 359.74 423.39 355.49 C 427.17 351.23 430.82 347.40 434.49 344.98 C 438.16 342.56 442.06 341.46 445.42 340.96 C 448.78 340.47 452.03 340.82 454.65 342.03 C 457.28 343.24 459.62 345.56 461.18 348.22 C 462.73 350.89 463.52 354.39 463.97 358.02 C 464.42 361.65 464.24 366.01 463.89 370.01 C 463.54 374.01 462.52 378.42 461.89 382.04 C 461.26 385.67 460.82 388.34 460.08 391.75 C 459.35 395.17 457.84 399.27 457.49 402.54 C 457.15 405.80 457.49 408.91 458.03 411.35 C 458.57 413.79 459.68 415.40 460.75 417.19 C 461.82 418.97 463.37 420.57 464.46 422.06 C 465.55 423.56 466.62 424.53 467.29 426.17 C 467.96 427.81 468.29 429.85 468.47 431.89 C 468.66 433.93 468.69 436.03 468.38 438.41 C 468.08 440.79 467.38 443.60 466.62 446.19 C 465.86 448.78 464.63 451.55 463.83 453.93 C 463.03 456.32 462.26 458.47 461.82 460.49 C 461.39 462.51 460.89 464.73 461.22 466.06 C 461.54 467.38 462.44 468.35 463.76 468.45 C 465.07 468.55 466.97 468.06 469.11 466.67 C 471.25 465.27 473.98 462.83 476.58 460.07 C 479.17 457.30 482.06 453.30 484.67 450.08 C 487.27 446.85 489.78 443.49 492.21 440.70 C 494.65 437.90 497.16 435.33 499.29 433.30 C 501.43 431.27 503.37 429.54 505.02 428.52 C 506.68 427.49 508.16 427.18 509.22 427.15 C 510.28 427.12 512.88 427.55 511.38 428.35 C 509.88 429.14 508.10 431.14 500.23 431.92 C 492.35 432.69 475.90 432.93 464.15 432.99 C 452.41 433.04 440.87 432.55 429.76 432.27 C 418.64 431.98 407.83 431.70 397.47 431.29 C 387.11 430.87 377.43 430.75 367.59 429.76 C 357.74 428.76 347.90 427.17 338.38 425.31 C 328.86 423.44 319.51 421.36 310.46 418.57 C 301.40 415.78 292.47 412.75 284.02 408.57 C 275.58 404.39 267.21 399.23 259.77 393.47 C 252.33 387.71 245.59 380.85 239.38 373.99 C 233.17 367.14 227.70 359.69 222.52 352.34 C 217.34 344.98 212.61 337.43 208.30 329.84 C 203.99 322.25 200.29 314.29 196.66 306.79 C 193.03 299.29 189.97 291.81 186.52 284.84 C 183.08 277.87 179.58 271.17 176.00 264.96 C 172.42 258.74 168.53 253.04 165.05 247.58 C 161.57 242.11 158.17 237.34 155.10 232.15 C 152.04 226.95 149.36 221.53 146.65 216.38 C 143.93 211.24 141.13 206.27 138.83 201.29 C 136.53 196.30 134.48 191.35 132.84 186.45 C 131.20 181.56 129.64 176.97 128.99 171.92 C 128.35 166.88 128.18 161.47 128.96 156.17 C 129.74 150.86 131.18 145.37 133.66 140.11 C 136.13 134.84 139.49 129.30 143.81 124.59 C 148.13 119.88 153.36 115.19 159.59 111.85 C 165.81 108.51 173.52 106.09 181.17 104.53 C 188.82 102.96 197.17 102.23 205.47 102.45 C 213.77 102.68 222.67 103.63 230.99 105.90 C 239.30 108.16 247.67 111.79 255.37 116.02 C 263.07 120.26 270.43 125.37 277.18 131.32 C 283.92 137.27 290.50 144.42 295.84 151.71 C 301.18 159.01 305.74 166.87 309.23 175.08 C 312.71 183.30 315.15 192.28 316.76 201.01 C 318.37 209.74 319.39 218.95 318.89 227.46 C 318.39 235.96 316.48 244.31 313.76 252.04 C 311.04 259.77 306.95 267.18 302.56 273.85 C 298.17 280.52 293.01 286.76 287.39 292.06 C 281.78 297.35 275.06 301.50 268.87 305.61 C 262.67 309.72 256.36 313.18 250.22 316.72 C 244.09 320.26 237.56 323.31 232.05 326.84 C 226.54 330.36 221.77 334.13 217.14 337.88 C 212.51 341.64 207.98 345.27 204.27 349.35 C 200.56 353.42 197.23 357.86 194.87 362.33 C 192.52 366.80 190.89 371.41 190.12 376.19 C 189.35 380.97 189.24 386.22 190.24 390.98 C 191.24 395.74 193.30 400.41 196.12 404.76 C 198.93 409.11 202.69 413.49 207.13 417.08 C 211.58 420.66 216.89 424.19 222.78 426.26 C 228.68 428.34 235.50 429.45 242.50 429.52 C 249.51 429.58 257.35 428.54 264.83 426.64 C 272.30 424.74 280.14 421.81 287.35 418.11 C 294.56 414.42 301.50 409.73 308.07 404.48 C 314.64 399.22 321.18 392.99 326.75 386.60 C 332.32 380.21 337.02 373.27 341.48 366.14 C 345.94 359.01 350.01 351.40 353.50 343.82 C 357.00 336.24 359.71 328.19 362.43 320.69 C 365.16 313.18 367.45 305.95 369.84 298.81 C 372.24 291.66 374.45 284.47 376.79 277.82 C 379.12 271.16 381.33 264.72 383.86 258.88 C 386.40 253.03 389.23 247.74 392.01 242.76 C 394.80 237.78 397.49 233.02 400.57 228.99 C 403.64 224.96 407.02 221.51 410.44 218.56 C 413.87 215.61 417.54 212.83 421.13 211.29 C 424.71 209.75 428.37 209.48 431.97 209.33 C 435.57 209.19 439.12 209.25 442.71 210.41 C 446.29 211.56 450.31 213.64 453.48 216.25 C 456.64 218.86 459.51 221.90 461.69 226.07 C 463.87 230.25 465.75 235.50 466.55 241.32 C 467.34 247.14 467.56 254.08 466.47 260.99 C 465.38 267.91 463.27 275.68 460.00 282.81 C 456.73 289.93 452.45 297.14 446.87 303.73 C 441.30 310.33 433.95 316.82 426.54 322.38 C 419.12 327.94 411.12 333.33 402.40 337.10 C 393.67 340.87 383.81 343.40 374.21 345.01 C 364.61 346.62 354.50 347.39 344.79 346.76 C 335.08 346.13 325.10 343.98 315.95 341.22 C 306.80 338.46 298.00 334.53 289.88 330.19 C 281.77 325.85 274.43 320.29 267.26 315.17 C 260.08 310.05 253.42 304.59 246.81 299.47 C 240.21 294.35 233.75 289.29 227.63 284.46 C 221.51 279.63 215.88 274.81 210.11 270.50 C 204.34 266.18 198.71 262.03 192.99 258.57 C 187.28 255.10 181.59 251.83 175.83 249.71 C 170.06 247.59 164.07 246.20 158.40 245.86 C 152.72 245.52 147.07 246.17 141.77 247.68 C 136.47 249.19 131.00 251.66 126.60 254.91 C 122.21 258.15 118.52 262.58 115.42 267.15 C 112.33 271.72 110.14 277.16 108.05 282.31 C 105.96 287.45 104.45 292.94 102.88 298.02 C 101.30 303.11 100.10 308.07 98.62 312.82 C 97.14 317.57 95.76 322.40 94.01 326.55 C 92.25 330.69 90.20 334.23 88.11 337.68 C 86.02 341.13 83.69 344.37 81.48 347.25 C 79.27 350.12 76.91 352.57 74.83 354.93 C 72.76 357.29 70.84 359.03 69.06 361.38 C 67.27 363.74 65.67 366.42 64.13 369.06 C 62.59 371.69 60.97 374.37 59.80 377.19 C 58.62 380.00 57.53 382.78 57.07 385.96 C 56.62 389.14 56.65 392.64 57.05 396.25 C 57.44 399.86 57.82 403.78 59.47 407.60 C 61.11 411.43 63.62 415.27 66.90 419.22 C 70.18 423.17 74.44 427.48 79.16 431.28 C 83.88 435.08 89.15 438.88 95.23 442.03 C 101.31 445.19 108.13 448.12 115.64 450.22 C 123.15 452.32 131.66 454.12 140.28 454.66 C 148.90 455.20 158.19 454.95 167.33 453.46 C 176.47 451.97 186.06 449.26 195.13 445.70 C 204.21 442.13 213.30 437.48 221.77 432.07 C 230.24 426.66 238.58 420.12 245.96 413.25 C 253.33 406.38 260.16 398.91 266.00 390.87 C 271.84 382.83 276.94 373.87 281.02 365.00 C 285.10 356.14 288.45 346.86 290.49 337.68 C 292.52 328.49 293.37 318.89 293.23 309.89 C 293.08 300.88 291.85 292.01 289.61 283.65 C 287.36 275.29 283.96 266.77 279.76 259.72 C 275.57 252.66 270.27 246.43 264.45 241.32 C 258.63 236.20 251.74 231.69 244.84 229.02 C 237.94 226.35 230.06 224.92 223.06 225.31 C 216.06 225.71 208.86 228.01 202.81 231.40 C 196.77 234.79 191.16 240.26 186.78 245.65 C 182.40 251.04 178.95 257.32 176.50 263.74 C 174.06 270.16 172.83 277.38 172.09 284.18 C 171.35 290.98 172.02 297.98 172.09 304.52 C 172.16 311.05 172.44 317.30 172.52 323.38 C 172.61 329.47 172.69 335.33 172.59 341.03 C 172.49 346.73 172.65 352.42 171.90 357.58 C 171.14 362.73 170.03 367.86 168.05 371.96 C 166.07 376.05 163.40 379.41 160.03 382.13 C 156.66 384.86 151.72 387.13 147.83 388.30 C 143.94 389.48 141.00 389.95 136.68 389.19 C 132.36 388.43 126.63 386.73 121.93 383.74 C 117.22 380.75 112.44 376.39 108.47 371.27 C 104.50 366.14 100.76 359.81 98.11 352.98 C 95.46 346.14 93.46 338.22 92.56 330.25 C 91.66 322.28 91.52 313.67 92.71 305.13 C 93.89 296.59 96.39 287.43 99.68 279.02 C 102.96 270.61 107.78 262.40 112.41 254.66 C 117.04 246.93 122.13 239.66 127.46 232.61 C 132.78 225.57 138.92 218.89 144.39 212.40 C 149.85 205.92 155.40 199.77 160.25 193.70 C 165.09 187.63 169.60 181.71 173.45 176.00 C 177.30 170.28 180.71 164.97 183.37 159.41 C 186.03 153.86 188.33 148.01 189.40 142.68 C 190.47 137.35 190.66 131.97 189.79 127.45 C 188.93 122.93 186.98 118.79 184.21 115.57 C 181.43 112.35 177.38 109.65 173.13 108.12 C 168.88 106.59 163.79 105.87 158.73 106.38 C 153.68 106.89 148.05 108.41 142.81 111.16 C 137.57 113.92 131.95 117.74 127.30 122.91 C 122.65 128.08 118.14 135.08 114.93 142.19 C 111.71 149.30 109.31 157.27 107.98 165.58 C 106.65 173.89 106.14 183.10 106.95 192.07 C 107.77 201.03 110.14 210.52 112.89 219.36 C 115.63 228.20 119.44 236.99 123.44 245.11 C 127.44 253.23 132.21 260.67 136.86 268.08 C 141.51 275.48 146.59 282.72 151.36 289.51 C 156.12 296.31 160.98 302.54 165.44 308.86 C 169.90 315.18 174.01 321.44 178.09 327.42 C 182.17 333.41 185.84 339.30 189.91 344.79 C 193.98 350.28 198.05 355.51 202.51 360.36 C 206.97 365.20 211.50 369.90 216.67 373.86 C 221.84 377.83 227.53 381.53 233.54 384.14 C 239.55 386.76 245.98 388.70 252.74 389.55 C 259.51 390.39 267.05 389.87 274.11 389.23 C 281.18 388.58 288.15 387.11 295.13 385.67 C 302.10 384.23 309.33 382.39 315.97 380.60 C 322.61 378.81 328.79 376.52 334.95 374.94 C 341.11 373.37 347.33 371.86 352.94 371.14 C 358.54 370.43 363.78 370.25 368.57 370.64 C 373.36 371.04 377.70 372.27 381.67 373.52 C 385.64 374.77 388.84 376.70 392.38 378.15 C 395.91 379.60 399.37 381.24 402.86 382.23 C 406.34 383.22 409.65 383.89 413.30 384.08 C 416.96 384.28 420.91 384.45 424.78 383.40 C 428.65 382.35 432.78 380.16 436.54 377.79 C 440.30 375.42 443.78 372.16 447.33 369.17 C 450.89 366.17 454.48 362.93 457.88 359.83 C 461.27 356.73 464.59 352.98 467.72 350.57 C 470.85 348.16 473.80 346.68 476.67 345.38 C 479.55 344.08 482.46 342.92 484.97 342.76 C 487.47 342.61 489.94 343.18 491.71 344.46 C 493.47 345.75 494.82 347.83 495.56 350.48 C 496.30 353.12 497.01 356.46 496.16 360.33 C 495.32 364.20 493.49 368.99 490.47 373.70 C 487.45 378.41 483.31 383.83 478.04 388.57 C 472.76 393.32 466.02 398.12 458.81 402.17 C 451.61 406.22 443.09 409.75 434.78 412.89 C 426.48 416.03 417.67 418.73 409.00 421.02 C 400.33 423.32 391.41 425.01 382.77 426.67 C 374.13 428.32 365.21 429.45 357.15 430.96 C 349.10 432.47 341.63 434.04 334.45 435.72 C 327.28 437.40 320.91 439.48 314.10 441.03 C 307.28 442.58 300.47 444.11 293.57 445.03 C 286.67 445.95 279.79 446.66 272.71 446.55 C 265.62 446.45 258.25 445.87 251.05 444.40 C 243.85 442.94 236.61 440.92 229.52 437.77 C 222.43 434.63 215.19 430.55 208.51 425.52 C 201.83 420.50 195.08 414.34 189.43 407.61 C 183.79 400.87 178.64 393.34 174.64 385.14 C 170.64 376.93 167.22 367.60 165.42 358.38 C 163.63 349.17 163.22 339.22 163.86 329.86 C 164.50 320.50 166.58 311.09 169.26 302.24 C 171.94 293.38 175.98 284.81 179.93 276.73 C 183.88 268.65 188.33 261.04 192.97 253.77 C 197.61 246.51 202.89 239.66 207.76 233.14 C 212.64 226.62 217.63 220.69 222.23 214.67 C 226.82 208.64 231.40 202.81 235.36 196.98 C 239.32 191.16 243.31 185.44 245.98 179.69 C 248.65 173.93 250.47 168.12 251.37 162.46 C 252.27 156.80 252.52 150.93 251.38 145.74 C 250.25 140.55 247.61 135.55 244.55 131.30 C 241.50 127.05 237.85 122.76 233.06 120.22 C 228.28 117.67 221.85 116.50 215.86 116.03 C 209.86 115.55 203.41 116.19 197.09 117.38 C 190.76 118.57 184.10 121.00 177.90 123.17 C 171.70 125.34 165.59 127.99 159.89 130.41 C 154.18 132.82 148.96 135.51 143.67 137.65 C 138.37 139.78 133.05 142.04 128.13 143.21 C 123.21 144.38 118.21 144.97 114.14 144.66 C 110.07 144.35 106.71 143.09 103.72 141.33 C 100.72 139.56 98.11 136.88 96.16 134.05 C 94.22 131.22 92.61 127.87 92.03 124.35 C 91.46 120.84 91.81 116.98 92.72 112.96 C 93.62 108.95 95.20 104.41 97.44 100.26 C 99.68 96.12 103.06 92.14 106.16 88.10 C 109.26 84.06 113.07 79.91 116.05 76.01 C 119.03 72.12 121.63 68.24 124.04 64.71 C 126.45 61.19 128.86 58.08 130.49 54.87 C 132.12 51.65 133.10 48.31 133.79 45.44 C 134.49 42.58 134.78 40.07 134.65 37.67 C 134.53 35.27 133.58 33.08 133.04 31.03 C 132.49 28.98 131.76 27.31 131.39 25.37 C 131.02 23.42 130.89 21.33 130.80 19.36 C 130.71 17.40 130.45 15.56 130.84 13.59 C 131.23 11.61 131.96 9.61 133.15 7.54 C 134.35 5.47 136.18 -2.15 138.00 1.18 C 139.81 4.51 142.40 16.77 144.07 27.52 C 145.74 38.27 146.63 53.41 148.01 65.67 C 149.38 77.92 150.75 89.57 152.34 101.05 C 153.92 112.54 155.37 123.87 157.53 134.59 C 159.70 145.31 162.16 155.51 165.35 165.39 C 168.54 175.27 172.45 184.89 176.68 193.86 C 180.91 202.82 185.55 211.35 190.74 219.18 C 195.93 227.00 201.82 234.23 207.84 240.80 C 213.86 247.37 220.14 253.46 226.84 258.60 C 233.54 263.74 240.90 268.06 248.02 271.64 C 255.15 275.23 262.48 277.64 269.61 280.10 C 276.74 282.56 283.95 284.49 290.79 286.41 C 297.62 288.33 304.43 289.63 310.61 291.62 C 316.79 293.61 322.35 295.91 327.87 298.33 C 333.38 300.75 339.05 303.06 343.72 306.14 C 348.38 309.23 352.44 312.80 355.86 316.84 C 359.28 320.89 362.05 325.82 364.24 330.42 C 366.44 335.02 368.26 339.46 369.02 344.46 C 369.79 349.46 369.74 355.12 368.83 360.43 C 367.93 365.73 366.29 371.25 363.59 376.27 C 360.90 381.29 356.99 386.09 352.64 390.55 C 348.30 395.00 342.94 399.29 337.50 403.01 C 332.06 406.73 325.69 409.74 319.99 412.87 C 314.30 416.00 308.85 419.09 303.33 421.79 C 297.82 424.49 292.20 426.71 286.89 429.07 C 281.59 431.42 276.49 433.61 271.48 435.92 C 266.47 438.23 260.94 440.36 256.82 442.91 C 252.70 445.46 249.52 448.34 246.75 451.23 C 243.97 454.12 241.49 457.23 240.20 460.28 C 238.90 463.33 238.49 466.60 238.98 469.54 C 239.48 472.48 240.64 475.55 243.17 477.90 C 245.71 480.26 249.77 482.45 254.20 483.68 C 258.63 484.90 263.96 485.73 269.74 485.23 C 275.52 484.72 282.22 483.04 288.90 480.65 C 295.58 478.25 303.17 475.42 309.84 470.84 C 316.51 466.26 323.18 459.93 328.93 453.19 C 334.69 446.44 340.13 438.84 344.37 430.37 C 348.61 421.90 352.20 412.12 354.38 402.36 C 356.55 392.60 357.63 382.04 357.42 371.81 C 357.20 361.57 356.10 350.68 353.08 340.94 C 350.07 331.21 345.17 321.44 339.34 313.40 C 333.51 305.36 325.78 298.08 318.08 292.70 C 310.38 287.33 300.93 283.61 293.16 281.15 C 285.38 278.68 278.94 278.17 271.45 277.91 C 263.96 277.65 255.50 278.25 248.19 279.57 C 240.88 280.88 234.16 283.35 227.59 285.77 C 221.02 288.20 214.65 291.21 208.77 294.11 C 202.90 297.01 197.77 300.44 192.33 303.18 C 186.88 305.91 181.48 308.45 176.10 310.53 C 170.72 312.61 165.31 314.46 160.02 315.67 C 154.73 316.87 149.57 317.77 144.36 317.76 C 139.15 317.76 133.79 317.20 128.77 315.66 C 123.76 314.12 118.52 311.80 114.25 308.53 C 109.98 305.26 106.32 300.92 103.16 296.05 C 99.99 291.19 97.46 285.10 95.25 279.33 C 93.05 273.56 91.48 267.42 89.92 261.45 C 88.36 255.49 87.48 249.08 85.91 243.55 C 84.34 238.02 82.29 233.09 80.51 228.27 C 78.73 223.45 77.26 218.55 75.22 214.64 C 73.18 210.74 70.90 207.16 68.27 204.84 C 65.63 202.51 62.56 201.04 59.42 200.68 C 56.27 200.32 52.57 200.98 49.39 202.66 C 46.22 204.35 42.92 207.36 40.35 210.80 C 37.78 214.25 35.52 218.44 33.98 223.33 C 32.44 228.23 31.44 234.21 31.10 240.16 C 30.77 246.11 31.23 252.65 31.96 259.06 C 32.70 265.46 34.25 272.21 35.51 278.60 C 36.77 284.99 38.37 291.33 39.54 297.37 C 40.70 303.41 41.82 309.49 42.49 314.82 C 43.16 320.16 43.77 324.98 43.57 329.40 C 43.37 333.82 42.59 338.30 41.27 341.33 C 39.95 344.37 37.89 346.62 35.66 347.63 C 33.44 348.64 30.46 348.63 27.91 347.39 C 25.36 346.15 22.45 343.82 20.36 340.18 C 18.28 336.54 16.43 331.36 15.41 325.56 C 14.39 319.76 13.47 312.66 14.26 305.39 C 15.06 298.12 17.01 289.85 20.19 281.95 C 23.37 274.05 27.69 265.79 33.35 257.99 C 39.00 250.18 46.27 241.83 54.13 235.11 C 61.99 228.39 70.93 222.39 80.48 217.69 C 90.03 212.98 100.94 208.98 111.43 206.89 C 121.92 204.79 132.96 204.71 143.41 205.11 C 153.86 205.52 164.30 207.26 174.10 209.32 C 183.91 211.38 193.31 214.49 202.23 217.47 C 211.15 220.45 219.52 224.07 227.60 227.19 C 235.67 230.31 243.07 233.39 250.69 236.19 C 258.30 238.99 265.98 241.75 273.30 244.01 C 280.61 246.28 287.77 247.93 294.56 249.76 C 301.35 251.59 307.74 252.79 314.03 254.99 C 320.32 257.20 326.66 260.06 332.29 262.97 C 337.92 265.87 343.07 268.82 347.79 272.43 C 352.51 276.04 357.01 280.09 360.61 284.61 C 364.21 289.14 367.14 294.15 369.39 299.58 C 371.63 305.00 373.08 311.40 374.08 317.15 C 375.08 322.91 375.21 328.53 375.37 334.11 C 375.53 339.69 375.16 345.41 375.03 350.63 C 374.91 355.85 374.56 360.66 374.62 365.43 C 374.67 370.21 374.82 374.86 375.34 379.30 C 375.87 383.74 376.92 388.05 377.76 392.09 C 378.59 396.13 379.65 399.88 380.36 403.56 C 381.07 407.24 382.07 410.58 382.00 414.18 C 381.93 417.79 381.54 421.45 379.94 425.21 C 378.35 428.97 375.90 433.07 372.43 436.71 C 368.97 440.36 364.52 444.29 359.15 447.09 C 353.79 449.89 347.01 452.08 340.23 453.54 C 333.45 455.00 326.27 456.11 318.50 455.83 C 310.72 455.56 302.00 454.53 293.58 451.86 C 285.17 449.20 276.10 445.01 268.01 439.86 C 259.92 434.71 251.77 428.35 245.05 420.99 C 238.33 413.64 232.11 404.90 227.68 395.74 C 223.25 386.58 219.95 376.03 218.49 366.01 C 217.03 355.99 217.27 345.22 218.93 335.64 C 220.59 326.07 224.32 316.73 228.44 308.56 C 232.57 300.40 237.84 292.85 243.68 286.64 C 249.53 280.42 256.69 275.39 263.50 271.29 C 270.32 267.19 277.55 264.04 284.58 262.02 C 291.62 260.00 299.00 259.21 305.73 259.17 C 312.45 259.13 318.91 259.90 324.93 261.79 C 330.94 263.67 336.92 266.85 341.81 270.47 C 346.71 274.10 350.82 278.76 354.31 283.56 C 357.80 288.36 360.63 293.82 362.77 299.26 C 364.90 304.71 366.64 310.26 367.09 316.23 C 367.54 322.19 366.99 329.02 365.48 335.05 C 363.97 341.07 361.58 346.94 358.04 352.38 C 354.50 357.82 349.58 363.12 344.26 367.69 C 338.94 372.25 332.57 376.36 326.13 379.75 C 319.70 383.14 312.57 385.75 305.63 388.03 C 298.69 390.30 291.58 392.09 284.48 393.40 C 277.37 394.71 270.16 395.40 262.99 395.87 C 255.82 396.34 248.39 396.16 241.43 396.22 C 234.46 396.28 227.52 395.92 221.19 396.25 C 214.86 396.58 209.06 397.40 203.45 398.20 C 197.84 399.00 192.11 399.46 187.55 401.06 C 183.00 402.65 179.07 405.07 176.10 407.80 C 173.14 410.53 171.00 413.96 169.76 417.41 C 168.52 420.86 167.99 424.80 168.65 428.51 C 169.31 432.22 171.37 436.08 173.71 439.66 C 176.05 443.24 179.18 446.72 182.71 450.00 C 186.24 453.28 190.78 456.53 194.91 459.35 C 199.04 462.17 203.25 464.53 207.50 466.91 C 211.75 469.29 216.19 471.48 220.41 473.64 C 224.63 475.79 228.95 477.80 232.82 479.85 C 236.70 481.90 240.16 483.93 243.66 485.94 C 247.16 487.94 250.12 490.24 253.83 491.90 C 257.54 493.56 261.74 494.84 265.95 495.89 C 270.15 496.95 274.29 497.94 279.06 498.24 C 283.84 498.53 289.25 498.38 294.60 497.67 C 299.95 496.97 305.52 495.77 311.16 494.03 C 316.80 492.29 322.58 490.52 328.42 487.23 C 334.26 483.94 340.36 479.25 346.20 474.30 C 352.04 469.35 358.21 464.07 363.46 457.55 C 368.71 451.03 373.68 443.33 377.72 435.18 C 381.77 427.03 385.29 417.89 387.73 408.65 C 390.17 399.40 391.63 389.46 392.35 379.72 C 393.07 369.97 392.84 359.85 392.05 350.17 C 391.26 340.50 389.04 330.96 387.61 321.65 C 386.18 312.35 384.82 303.15 383.48 294.34 C 382.15 285.53 380.60 276.90 379.62 268.82 C 378.63 260.73 377.86 253.16 377.55 245.83 C 377.23 238.49 377.80 231.62 377.73 224.81 C 377.67 218.00 377.84 211.45 377.15 204.95 C 376.47 198.44 375.45 192.11 373.62 185.79 C 371.78 179.48 369.35 172.95 366.13 167.06 C 362.90 161.17 359.14 155.43 354.26 150.46 C 349.37 145.49 343.48 140.76 336.82 137.22 C 330.16 133.68 322.05 130.97 314.30 129.22 C 306.54 127.47 298.46 126.38 290.30 126.73 C 282.14 127.09 273.42 128.80 265.35 131.35 C 257.28 133.91 249.14 137.47 241.88 142.06 C 234.63 146.66 227.71 152.49 221.81 158.93 C 215.91 165.36 211.02 173.27 206.50 180.68 C 201.98 188.09 198.52 196.03 194.68 203.36 C 190.85 210.68 187.06 217.79 183.48 224.63 C 179.90 231.47 176.50 238.10 173.19 244.41 C 169.88 250.72 166.95 256.93 163.63 262.50 C 160.31 268.07 156.61 272.98 153.27 277.83 C 149.92 282.68 146.96 287.33 143.56 291.61 C 140.15 295.90 136.06 299.49 132.84 303.54 C 129.62 307.59 126.70 311.63 124.22 315.91 C 121.74 320.20 119.76 324.78 117.97 329.23 C 116.19 333.68 114.59 337.90 113.50 342.62 C 112.40 347.34 111.55 352.63 111.40 357.54 C 111.25 362.44 111.47 367.14 112.61 372.05 C 113.76 376.96 115.73 382.07 118.27 387.02 C 120.82 391.97 124.15 397.09 127.89 401.75 C 131.62 406.42 135.63 411.13 140.67 415.01 C 145.71 418.89 152.09 421.97 158.14 425.02 C 164.19 428.07 170.95 430.75 176.96 433.32 C 182.97 435.89 188.90 437.90 194.20 440.44 C 199.49 442.98 204.57 445.81 208.76 448.57 C 212.94 451.34 216.48 454.07 219.29 457.04 C 222.09 460.00 223.87 463.27 225.59 466.37 C 227.32 469.47 228.62 472.95 229.63 475.64 C 230.64 478.33 230.78 479.97 231.65 482.50 C 232.52 485.03 233.07 488.37 234.85 490.82 C 236.63 493.27 239.22 495.46 242.32 497.21 C 245.42 498.96 248.95 500.49 253.45 501.33 C 257.95 502.18 263.69 502.63 269.30 502.27 C 274.92 501.91 281.03 500.82 287.12 499.17 C 293.20 497.52 299.50 495.43 305.81 492.38 C 312.11 489.32 318.69 485.48 324.95 480.83 C 331.21 476.18 337.63 470.71 343.38 464.47 C 349.12 458.22 354.71 451.06 359.41 443.36 C 364.10 435.66 368.14 426.93 371.56 418.28 C 374.98 409.62 377.84 400.64 379.90 391.44 C 381.96 382.24 383.54 372.70 383.91 363.05 C 384.28 353.40 383.72 343.19 382.14 333.53 C 380.55 323.86 377.65 314.17 374.41 305.08 C 371.17 295.98 367.23 287.06 362.70 278.94 C 358.16 270.83 352.99 263.19 347.21 256.38 C 341.43 249.56 334.99 243.41 328.03 238.04 C 321.08 232.68 313.32 227.71 305.48 224.19 C 297.65 220.67 289.21 218.08 281.03 216.93 C 272.85 215.78 264.23 216.07 256.42 217.29 C 248.60 218.51 240.79 220.70 234.14 224.27 C 227.48 227.83 221.36 233.08 216.49 238.66 C 211.62 244.24 207.40 250.87 204.92 257.73 C 202.44 264.58 201.38 272.57 201.61 279.80 C 201.84 287.02 203.58 294.45 206.30 301.07 C 209.01 307.70 213.44 313.98 217.90 319.52 C 222.35 325.07 227.63 330.01 233.05 334.36 C 238.47 338.72 244.54 342.33 250.40 345.65 C 256.26 348.97 262.23 351.60 268.19 354.28 C 274.16 356.96 280.60 359.34 286.21 361.74 C 291.82 364.14 297.02 366.02 301.84 368.67 C 306.67 371.33 311.04 374.61 315.15 377.67 C 319.26 380.73 323.17 383.82 326.51 387.02 C 329.86 390.22 332.63 393.65 335.22 396.89 C 337.81 400.14 340.15 403.18 342.06 406.50 C 343.97 409.81 345.57 413.21 346.66 416.77 C 347.75 420.34 348.36 424.19 348.60 427.89 C 348.83 431.59 348.26 435.43 348.05 438.98 C 347.85 442.54 347.39 445.98 347.38 449.23 C 347.38 452.47 347.27 455.56 348.03 458.45 C 348.79 461.33 350.19 464.43 351.94 466.54 C 353.70 468.65 355.94 469.95 358.56 471.10 C 361.17 472.25 364.05 473.49 367.65 473.43 C 371.25 473.37 375.80 472.52 380.17 470.75 C 384.54 468.98 389.25 466.48 393.87 462.81 C 398.50 459.14 403.73 454.73 407.91 448.74 C 412.10 442.75 416.16 435.22 418.96 426.89 C 421.76 418.56 423.98 408.46 424.70 398.76 C 425.42 389.06 425.13 378.80 423.28 368.67 C 421.42 358.55 418.03 347.67 413.57 338.00 C 409.11 328.32 403.08 318.90 396.53 310.63 C 389.98 302.36 382.54 294.63 374.26 288.37 C 365.97 282.11 356.09 276.81 346.82 273.07 C 337.55 269.32 327.81 267.00 318.63 265.88 C 309.46 264.77 300.10 264.82 291.76 266.36 C 283.42 267.89 275.34 271.26 268.59 275.08 C 261.84 278.89 255.70 283.84 251.26 289.25 C 246.81 294.65 243.87 301.30 241.93 307.52 C 239.99 313.74 239.60 320.26 239.61 326.54 C 239.62 332.83 240.72 339.42 241.98 345.21 C 243.24 351.01 245.49 356.04 247.19 361.31 C 248.89 366.58 250.97 371.74 252.19 376.83 C 253.40 381.92 254.49 387.07 254.46 391.87 C 254.44 396.67 253.38 401.25 252.05 405.61 C 250.72 409.97 248.59 414.15 246.50 418.02 C 244.41 421.89 241.61 425.22 239.52 428.82 C 237.43 432.41 235.34 436.06 233.96 439.60 C 232.57 443.15 231.56 446.72 231.20 450.09 C 230.83 453.46 231.06 456.57 231.78 459.80 C 232.49 463.04 233.39 466.60 235.49 469.50 C 237.59 472.40 240.78 475.12 244.37 477.20 C 247.97 479.29 252.19 481.12 257.05 482.01 C 261.90 482.90 267.66 483.02 273.49 482.55 C 279.33 482.08 285.68 481.24 292.06 479.17 C 298.44 477.10 305.27 474.43 311.78 470.13 C 318.30 465.83 325.42 460.24 331.16 453.35 C 336.90 446.46 342.32 437.78 346.23 428.78 C 350.15 419.78 353.18 409.55 354.65 399.36 C 356.12 389.18 356.26 377.99 355.06 367.67 C 353.86 357.34 351.31 346.81 347.44 337.40 C 343.57 327.99 337.56 319.27 331.83 311.19 C 326.10 303.10 319.34 295.87 313.04 288.90 C 306.75 281.93 300.21 275.56 294.05 269.38 C 287.89 263.19 281.69 257.72 276.08 251.77 C 270.47 245.82 265.10 239.73 260.39 233.67 C 255.68 227.62 251.47 221.48 247.79 215.44 C 244.12 209.41 240.89 203.42 238.32 197.46 C 235.76 191.50 233.75 185.57 232.40 179.70 C 231.05 173.83 230.00 167.96 230.23 162.22 C 230.46 156.48 231.65 150.53 233.76 145.27 C 235.87 140.02 239.45 135.00 242.89 130.70 C 246.33 126.39 249.88 122.68 254.42 119.44 C 258.96 116.20 264.43 113.08 270.11 111.27 C 275.78 109.46 282.16 108.65 288.47 108.57 C 294.78 108.50 301.46 109.02 307.94 110.82 C 314.42 112.63 321.23 115.25 327.35 119.41 C 333.47 123.57 339.49 129.63 344.66 135.79 C 349.83 141.95 354.45 149.10 358.36 156.38 C 362.26 163.66 365.27 171.82 368.09 179.46 C 370.91 187.10 372.94 194.86 375.30 202.23 C 377.66 209.59 379.79 217.01 382.24 223.65 C 384.70 230.29 387.22 236.35 390.00 242.06 C 392.79 247.77 395.95 253.01 398.96 257.90 C 401.97 262.78 405.16 267.05 408.05 271.38 C 410.94 275.72 413.90 279.54 416.31 283.91 C 418.73 288.28 420.93 292.86 422.55 297.63 C 424.17 302.40 425.48 307.38 426.05 312.55 C 426.62 317.71 426.93 323.03 425.97 328.63 C 425.01 334.23 423.11 340.42 420.30 346.15 C 417.49 351.88 413.61 357.59 409.11 363.00 C 404.61 368.40 399.30 373.97 393.31 378.60 C 387.31 383.22 380.36 387.36 373.13 390.75 C 365.90 394.13 357.95 396.95 349.91 398.93 C 341.86 400.91 333.42 402.21 324.85 402.62 C 316.28 403.02 307.14 402.28 298.47 401.35 C 289.79 400.42 281.02 398.45 272.77 397.05 C 264.53 395.65 256.70 394.33 249.01 392.95 C 241.31 391.56 233.75 389.74 226.62 388.72 C 219.49 387.71 212.66 387.17 206.23 386.85 C 199.81 386.53 193.96 386.97 188.06 386.81 C 182.17 386.65 176.46 386.47 170.88 385.89 C 165.30 385.31 159.92 384.46 154.59 383.32 C 149.27 382.17 144.06 380.99 138.93 379.01 C 133.80 377.02 128.66 374.43 123.82 371.39 C 118.99 368.35 114.30 364.70 109.89 360.76 C 105.48 356.82 101.31 352.15 97.36 347.74 C 93.40 343.33 89.78 338.64 86.16 334.30 C 82.54 329.95 79.09 325.20 75.63 321.69 C 72.18 318.17 68.82 315.67 65.43 313.19 C 62.04 310.70 58.62 308.51 55.28 306.79 C 51.93 305.07 48.57 303.89 45.37 302.89 C 42.17 301.89 39.00 301.44 36.08 300.78 C 33.15 300.12 30.52 299.62 27.83 298.95 C 25.15 298.27 22.48 297.68 19.95 296.75 C 17.42 295.83 15.00 294.87 12.65 293.38 C 10.30 291.89 7.95 289.55 5.86 287.81 C 3.76 286.06 -5.59 284.74 0.08 282.92 C 5.75 281.11 27.08 278.75 39.90 276.91 C 52.72 275.08 65.11 273.02 77.00 271.91 C 88.89 270.80 100.10 270.06 111.24 270.23 C 122.39 270.41 133.63 271.37 143.87 272.97 C 154.11 274.56 163.74 276.83 172.67 279.80 C 181.59 282.77 189.62 286.99 197.41 290.77 C 205.20 294.55 212.69 298.22 219.42 302.48 C 226.15 306.74 232.40 311.62 237.79 316.33 C 243.17 321.04 247.94 325.63 251.74 330.74 C 255.54 335.85 258.29 341.50 260.58 346.97 C 262.86 352.43 264.75 358.10 265.45 363.51 C 266.15 368.92 265.65 374.79 264.78 379.42 C 263.90 384.05 262.55 387.35 260.19 391.28 C 257.82 395.22 254.29 399.52 250.61 403.03 C 246.94 406.55 242.50 409.74 238.12 412.38 C 233.75 415.02 229.18 416.95 224.34 418.86 C 219.50 420.77 214.05 422.40 209.10 423.85 C 204.16 425.30 199.05 426.11 194.68 427.55 C 190.31 428.98 186.24 430.56 182.88 432.48 C 179.52 434.41 176.49 436.45 174.52 439.10 C 172.56 441.74 171.22 445.20 171.08 448.35 C 170.94 451.50 171.95 454.87 173.67 458.02 C 175.39 461.18 178.00 464.48 181.41 467.28 C 184.81 470.08 189.19 472.78 194.10 474.81 C 199.02 476.85 204.59 478.73 210.89 479.48 C 217.19 480.23 224.77 479.99 231.89 479.33 C 239.02 478.67 246.31 477.67 253.64 475.53 C 260.98 473.38 268.54 470.56 275.91 466.46 C 283.28 462.36 291.16 457.18 297.84 450.93 C 304.53 444.68 310.94 437.24 316.04 428.97 C 321.15 420.69 325.62 411.01 328.48 401.28 C 331.33 391.56 332.85 380.82 333.19 370.59 C 333.53 360.37 332.76 349.71 330.51 339.93 C 328.26 330.15 324.30 320.38 319.70 311.89 C 315.10 303.40 309.27 295.49 302.90 288.99 C 296.53 282.49 288.95 277.10 281.47 272.89 C 273.98 268.67 265.68 265.67 257.99 263.69 C 250.29 261.70 242.66 261.34 235.31 260.95 C 227.95 260.57 220.85 261.21 213.88 261.37 C 206.91 261.52 200.03 262.13 193.49 261.91 C 186.94 261.68 180.52 261.27 174.58 260.03 C 168.64 258.78 163.10 256.77 157.85 254.43 C 152.59 252.10 147.62 249.19 143.05 245.99 C 138.48 242.79 134.31 239.04 130.43 235.24 C 126.56 231.44 123.34 226.81 119.81 223.21 C 116.27 219.61 112.90 216.30 109.24 213.63 C 105.58 210.95 101.76 208.55 97.84 207.16 C 93.92 205.77 89.67 205.44 85.71 205.28 C 81.75 205.12 77.90 205.78 74.09 206.20 C 70.28 206.62 66.38 207.49 62.86 207.82 C 59.34 208.14 56.14 208.61 52.98 208.15 C 49.81 207.69 46.49 206.76 43.89 205.04 C 41.28 203.32 39.03 200.80 37.37 197.82 C 35.71 194.83 34.64 190.93 33.93 187.14 C 33.21 183.35 33.03 179.32 33.07 175.06 C 33.12 170.81 33.63 165.97 34.20 161.59 C 34.78 157.20 35.76 152.84 36.51 148.76 C 37.27 144.68 38.23 140.87 38.74 137.09 C 39.25 133.31 39.75 129.22 39.58 126.08 C 39.41 122.95 38.62 120.40 37.71 118.28 C 36.80 116.17 35.64 114.45 34.12 113.41 C 32.61 112.37 30.72 111.78 28.62 112.03 C 26.51 112.29 23.80 113.27 21.49 114.93 C 19.18 116.58 16.95 119.12 14.75 121.98 C 12.54 124.85 10.25 127.96 8.25 132.12 C 6.26 136.28 4.15 141.33 2.78 146.92 C 1.42 152.52 -4.54 159.16 0.07 165.67 C 4.67 172.18 19.45 180.12 30.40 186.01 C 41.35 191.89 54.12 196.53 65.76 200.98 C 77.41 205.43 89.10 209.18 100.27 212.70 C 111.43 216.22 122.26 219.46 132.77 222.10 C 143.28 224.74 153.37 226.94 163.31 228.53 C 173.24 230.13 183.05 231.47 192.38 231.68 C 201.71 231.89 210.78 231.24 219.27 229.78 C 227.75 228.32 236.29 226.19 243.29 222.94 C 250.29 219.69 256.43 215.14 261.27 210.27 C 266.11 205.41 269.94 199.48 272.32 193.77 C 274.70 188.07 275.73 181.94 275.56 176.06 C 275.39 170.19 273.90 163.67 271.32 158.50 C 268.75 153.32 264.85 148.59 260.10 145.00 C 255.35 141.41 249.09 138.29 242.80 136.97 C 236.51 135.66 229.23 136.22 222.36 137.13 C 215.50 138.03 208.25 140.03 201.61 142.40 C 194.96 144.78 188.71 148.17 182.51 151.38 C 176.31 154.58 170.15 157.98 164.42 161.64 C 158.68 165.31 153.39 169.88 148.11 173.36 C 142.83 176.84 137.75 180.08 132.73 182.52 C 127.70 184.97 122.68 186.81 117.98 188.04 C 113.27 189.27 108.72 190.01 104.50 189.90 C 100.28 189.80 95.99 189.13 92.66 187.43 C 89.34 185.73 86.47 183.06 84.55 179.70 C 82.63 176.34 81.35 171.93 81.14 167.30 C 80.93 162.67 81.61 157.08 83.29 151.94 C 84.98 146.81 88.21 141.54 91.25 136.49 C 94.29 131.44 97.62 126.43 101.53 121.63 C 105.44 116.84 110.31 112.26 114.73 107.73 C 119.14 103.21 123.82 98.68 128.02 94.47 C 132.22 90.27 136.27 86.41 139.91 82.49 C 143.56 78.57 147.17 74.60 149.91 70.95 C 152.65 67.30 155.13 63.80 156.37 60.59 C 157.60 57.38 157.96 54.31 157.30 51.68 C 156.65 49.05 154.78 46.33 152.43 44.79 C 150.08 43.26 146.76 42.36 143.19 42.48 C 139.63 42.60 135.50 43.14 131.03 45.51 C 126.56 47.87 120.97 51.75 116.39 56.67 C 111.82 61.59 107.27 67.97 103.57 75.02 C 99.87 82.08 96.17 90.10 94.22 98.98 C 92.26 107.85 91.22 118.24 91.85 128.27 C 92.48 138.31 94.58 149.21 98.00 159.21 C 101.42 169.21 106.33 179.47 112.39 188.29 C 118.45 197.10 126.23 205.49 134.39 212.08 C 142.54 218.67 152.06 223.90 161.31 227.82 C 170.57 231.73 180.60 234.18 189.93 235.57 C 199.25 236.95 208.72 237.06 217.27 236.13 C 225.83 235.19 234.08 233.10 241.24 229.95 C 248.40 226.80 255.11 222.15 260.23 217.24 C 265.35 212.33 269.54 206.49 271.96 200.50 C 274.38 194.51 275.39 187.38 274.73 181.32 C 274.08 175.25 271.55 169.07 268.02 164.12 C 264.48 159.17 259.26 154.50 253.51 151.60 C 247.77 148.69 240.45 146.79 233.56 146.70 C 226.67 146.61 219.06 148.54 212.16 151.04 C 205.26 153.54 198.33 157.41 192.16 161.70 C 186.00 166.00 179.98 170.98 175.18 176.83 C 170.37 182.68 166.33 189.55 163.34 196.81 C 160.35 204.07 158.66 212.56 157.22 220.37 C 155.77 228.19 155.19 236.10 154.67 243.69 C 154.15 251.28 154.26 258.65 154.12 265.90 C 153.98 273.15 154.35 280.48 153.86 287.20 C 153.36 293.91 152.25 300.28 151.13 306.17 C 150.02 312.06 148.91 317.57 147.18 322.55 C 145.45 327.53 143.46 332.18 140.75 336.04 C 138.05 339.91 134.68 343.51 130.95 345.73 C 127.21 347.95 122.62 349.14 118.35 349.38 C 114.08 349.61 109.59 348.92 105.32 347.14 C 101.06 345.35 96.74 342.19 92.76 338.67 C 88.78 335.15 84.74 330.88 81.44 326.01 C 78.14 321.15 75.35 315.26 72.95 309.50 C 70.54 303.74 68.47 297.66 67.01 291.45 C 65.56 285.25 65.02 278.61 64.24 272.27 C 63.45 265.93 62.93 259.53 62.30 253.42 C 61.67 247.32 60.80 241.55 60.46 235.62 C 60.12 229.69 60.09 223.70 60.25 217.84 C 60.41 211.98 60.61 206.32 61.40 200.47 C 62.19 194.62 63.13 188.62 64.98 182.75 C 66.84 176.88 69.53 171.00 72.51 165.26 C 75.49 159.52 78.76 153.68 82.87 148.30 C 86.99 142.92 91.74 137.74 97.20 132.98 C 102.66 128.23 108.92 123.61 115.64 119.76 C 122.35 115.92 129.61 112.45 137.50 109.92 C 145.39 107.38 154.11 105.25 162.96 104.55 C 171.80 103.85 181.46 104.16 190.59 105.72 C 199.73 107.29 209.10 110.41 217.78 113.96 C 226.46 117.51 234.75 122.18 242.66 127.02 C 250.57 131.86 258.08 137.56 265.26 143.01 C 272.43 148.46 279.17 154.24 285.74 159.71 C 292.30 165.17 298.39 170.85 304.63 175.80 C 310.87 180.75 317.00 185.61 323.16 189.40 C 329.32 193.19 335.67 195.77 341.57 198.53 C 347.47 201.30 353.25 203.08 358.57 205.98 C 363.89 208.88 368.99 212.02 373.51 215.93 C 378.02 219.84 382.45 224.76 385.66 229.42 C 388.88 234.08 390.75 238.34 392.81 243.90 C 394.86 249.47 397.31 256.10 398.00 262.82 C 398.68 269.53 398.44 277.15 396.92 284.19 C 395.41 291.23 392.61 298.42 388.89 305.06 C 385.17 311.70 380.01 318.22 374.63 324.03 C 369.24 329.83 363.45 335.53 356.58 339.90 C 349.70 344.27 341.43 347.74 333.38 350.23 C 325.33 352.72 316.84 354.55 308.29 354.82 C 299.74 355.09 290.40 354.11 282.07 351.88 C 273.74 349.64 265.51 346.07 258.30 341.43 C 251.10 336.79 244.18 330.83 238.83 324.06 C 233.49 317.29 228.88 308.82 226.23 300.80 C 223.58 292.78 222.77 284.14 222.92 275.94 C 223.07 267.74 224.49 259.15 227.13 251.60 C 229.77 244.04 234.00 236.60 238.76 230.63 C 243.52 224.67 249.47 219.45 255.71 215.79 C 261.94 212.13 269.25 209.72 276.18 208.66 C 283.12 207.59 290.63 207.64 297.32 209.42 C 304.00 211.20 310.60 215.10 316.29 219.33 C 321.98 223.57 327.78 228.67 331.45 234.84 C 335.13 241.00 337.56 248.97 338.33 256.32 C 339.09 263.68 338.25 271.80 336.05 278.97 C 333.85 286.13 330.14 293.42 325.13 299.29 C 320.13 305.16 313.12 310.61 306.04 314.19 C 298.97 317.76 290.74 320.09 282.69 320.74 C 274.65 321.38 265.62 320.16 257.75 318.04 C 249.87 315.92 242.17 312.36 235.46 308.02 C 228.76 303.67 222.29 298.15 217.52 291.96 C 212.75 285.76 208.89 278.35 206.85 270.84 C 204.81 263.34 204.43 254.66 205.28 246.94 C 206.13 239.22 208.33 231.18 211.94 224.53 C 215.55 217.87 220.86 211.42 226.92 207.01 C 232.98 202.60 240.96 199.81 248.31 198.08 C 255.67 196.35 263.75 195.46 271.07 196.62 C 278.39 197.78 285.91 200.97 292.24 205.04 C 298.57 209.11 304.89 214.76 309.04 221.04 C 313.20 227.32 316.03 235.26 317.19 242.74 C 318.34 250.22 317.79 258.45 315.97 265.92 C 314.15 273.40 310.69 281.23 306.27 287.58 C 301.84 293.93 295.89 299.71 289.41 304.01 C 282.93 308.32 274.88 311.58 267.38 313.42 C 259.89 315.26 252.07 315.10 244.45 315.05 C 236.82 315.01 228.88 314.20 221.63 313.16 C 214.38 312.12 207.60 310.13 200.97 308.80 C 194.33 307.48 188.00 306.09 181.84 305.22 C 175.69 304.35 169.77 303.73 164.03 303.58 C 158.30 303.42 152.83 304.16 147.42 304.29 C 142.01 304.42 136.68 304.68 131.56 304.36 C 126.45 304.03 121.49 303.61 116.75 302.35 C 112.00 301.08 107.41 299.12 103.09 296.76 C 98.77 294.41 94.58 291.26 90.83 288.20 C 87.08 285.14 83.86 281.88 80.58 278.41 C 77.31 274.94 74.22 270.89 71.20 267.39 C 68.18 263.88 65.32 260.60 62.45 257.39 C 59.59 254.17 56.88 250.85 54.02 248.12 C 51.15 245.39 48.07 242.99 45.26 241.02 C 42.44 239.04 39.92 237.63 37.13 236.27 C 34.35 234.91 31.25 233.60 28.53 232.85 C 25.81 232.09 23.35 231.79 20.81 231.72 C 18.27 231.64 15.65 232.13 13.31 232.40 C 10.96 232.66 8.80 233.27 6.73 233.31 C 4.66 233.35 -2.59 232.94 0.90 232.64 C 4.39 232.33 16.84 231.36 27.67 231.48 C 38.49 231.60 53.54 232.10 65.85 233.34 C 78.16 234.58 90.26 236.38 101.53 238.92 C 112.80 241.46 123.58 244.80 133.49 248.58 C 143.40 252.36 152.78 256.64 160.98 261.63 C 169.19 266.61 176.68 272.51 182.71 278.50 C 188.74 284.50 193.61 291.05 197.19 297.59 C 200.77 304.14 202.96 311.37 204.18 317.77 C 205.40 324.16 205.70 330.41 204.50 335.96 C 203.31 341.51 200.27 346.94 197.02 351.06 C 193.77 355.18 189.72 358.77 184.99 360.68 C 180.26 362.59 174.25 362.77 168.65 362.51 C 163.05 362.26 156.91 361.35 151.40 359.14 C 145.90 356.93 140.25 353.74 135.61 349.24 C 130.97 344.73 126.91 338.55 123.54 332.10 C 120.17 325.64 116.96 318.18 115.40 310.50 C 113.85 302.83 113.71 294.17 114.21 286.05 C 114.71 277.93 116.63 269.63 118.40 261.81 C 120.17 253.99 122.54 246.54 124.83 239.12 C 127.12 231.70 129.77 224.39 132.15 217.30 C 134.53 210.22 136.94 203.16 139.12 196.60 C 141.29 190.03 143.40 183.94 145.20 177.91 C 147.00 171.88 148.46 166.15 149.92 160.43 C 151.39 154.72 152.61 149.03 153.97 143.63 C 155.33 138.24 156.47 133.11 158.09 128.05 C 159.72 122.99 161.20 117.98 163.72 113.28 C 166.25 108.58 169.55 103.97 173.23 99.86 C 176.92 95.74 180.98 91.94 185.83 88.58 C 190.69 85.23 196.35 81.97 202.36 79.74 C 208.38 77.50 214.89 75.80 221.91 75.17 C 228.94 74.53 236.93 74.65 244.51 75.94 C 252.08 77.24 259.84 79.40 267.36 82.94 C 274.89 86.48 282.86 91.23 289.65 97.20 C 296.43 103.16 302.98 110.77 308.08 118.74 C 313.17 126.71 317.33 136.03 320.23 145.04 C 323.13 154.06 325.16 163.38 325.48 172.82 C 325.79 182.26 324.52 192.60 322.10 201.67 C 319.68 210.74 315.78 219.68 310.94 227.24 C 306.11 234.79 299.49 241.35 293.10 247.01 C 286.72 252.67 279.72 257.34 272.64 261.20 C 265.55 265.05 257.80 267.37 250.59 270.13 C 243.39 272.88 236.20 275.42 229.41 277.75 C 222.62 280.08 216.17 281.77 209.84 284.09 C 203.51 286.41 197.17 288.99 191.45 291.65 C 185.72 294.31 180.58 297.29 175.50 300.04 C 170.42 302.79 165.94 305.82 160.94 308.16 C 155.94 310.49 150.52 312.80 145.49 314.04 C 140.46 315.28 135.63 315.88 130.76 315.59 C 125.90 315.30 120.88 314.27 116.29 312.31 C 111.70 310.34 107.23 307.27 103.23 303.79 C 99.23 300.31 95.45 296.06 92.28 291.41 C 89.12 286.77 86.67 281.13 84.26 275.92 C 81.85 270.72 79.78 265.41 77.85 260.17 C 75.93 254.94 74.29 249.62 72.72 244.52 C 71.16 239.42 69.83 234.56 68.47 229.59 C 67.11 224.61 65.82 219.44 64.56 214.67 C 63.31 209.90 62.14 205.36 60.95 200.96 C 59.76 196.57 58.05 192.75 57.41 188.29 C 56.76 183.84 56.82 178.96 57.10 174.24 C 57.38 169.51 57.89 164.87 59.09 159.93 C 60.30 155.00 61.90 149.79 64.32 144.63 C 66.73 139.47 69.92 134.11 73.58 128.98 C 77.24 123.85 81.42 118.57 86.28 113.86 C 91.14 109.15 96.65 104.72 102.75 100.70 C 108.85 96.68 115.66 92.75 122.91 89.72 C 130.15 86.68 138.28 84.34 146.21 82.50 C 154.14 80.65 162.19 79.41 170.47 78.66 C 178.76 77.90 187.58 77.81 195.92 77.97 C 204.26 78.13 212.72 79.30 220.53 79.62 C 228.34 79.94 235.62 79.91 242.76 79.89 C 249.90 79.87 256.88 79.85 263.35 79.50 C 269.83 79.15 276.02 78.61 281.61 77.79 C 287.20 76.98 291.95 75.64 296.91 74.59 C 301.86 73.55 306.37 72.15 311.33 71.53 C 316.30 70.92 321.49 70.57 326.70 70.92 C 331.90 71.27 337.15 72.07 342.56 73.63 C 347.98 75.19 353.73 77.56 359.20 80.26 C 364.68 82.96 370.25 86.14 375.41 89.80 C 380.57 93.47 385.34 98.13 390.17 102.28 C 394.99 106.42 399.86 110.87 404.37 114.66 C 408.88 118.45 413.03 122.18 417.23 125.01 C 421.42 127.84 425.71 130.26 429.54 131.64 C 433.37 133.02 436.97 133.22 440.20 133.27 C 443.43 133.32 446.15 132.31 448.92 131.96 C 451.69 131.61 454.09 131.08 456.79 131.16 C 459.50 131.24 461.23 130.81 465.15 132.42 C 469.08 134.04 477.79 139.45 480.32 140.85" fill="none" stroke="#fff" stroke-width="4.48" stroke-opacity="1" stroke-linecap="round" stroke-linejoin="round"/>
  </g>
</svg>