<?xml version="1.0" encoding="UTF-8"?>
<svg xmlns="http://www.w3.org/2000/svg" width="512" height="512" viewBox="0 0 512 512">
  <rect width="100%" height="100%" fill="#000"/>
  <g>
    <path d="M 256.00 256.00 C 257.46 253.24 262.71 245.87 264.74 239.42 C 266.77 232.98 268.20 224.29 268.20 217.33 C 268.20 210.38 267.16 203.42 264.74 197.71 C 262.31 192.00 258.66 186.86 253.66 183.06 C 248.65 179.27 240.83 176.61 234.73 174.96 C 228.63 173.31 223.23 172.29 217.07 173.16 C 210.90 174.03 203.71 176.48 197.72 180.19 C 191.73 183.90 185.26 189.11 181.15 195.41 C 177.04 201.70 174.50 210.13 173.05 217.95 C 171.60 225.78 171.25 234.46 172.46 242.37 C 173.66 250.29 176.84 258.93 180.29 265.45 C 183.74 271.97 187.36 276.46 193.15 281.47 C 198.94 286.48 207.13 292.43 215.01 295.49 C 222.90 298.56 232.26 300.06 240.44 299.88 C 248.62 299.70 257.02 297.64 264.09 294.40 C 271.16 291.16 278.10 285.53 282.84 280.46 C 287.59 275.39 290.42 270.46 292.58 263.99 C 294.74 257.52 296.72 248.84 295.81 241.64 C 294.89 234.44 291.28 226.75 287.10 220.81 C 282.91 214.87 277.11 209.45 270.70 206.01 C 264.29 202.57 256.01 200.08 248.66 200.17 C 241.30 200.27 232.82 203.57 226.58 206.56 C 220.35 209.55 216.03 212.97 211.25 218.13 C 206.48 223.29 201.28 230.66 197.94 237.52 C 194.59 244.38 192.22 251.91 191.18 259.27 C 190.13 266.63 190.45 274.38 191.66 281.67 C 192.87 288.95 196.60 296.69 198.44 302.97 C 200.28 309.25 201.29 313.44 202.71 319.34 C 204.14 325.23 205.78 332.26 206.97 338.36 C 208.16 344.45 209.56 350.58 209.86 355.91 C 210.16 361.24 209.97 365.67 208.74 370.33 C 207.52 374.98 204.88 379.79 202.49 383.84 C 200.10 387.89 196.95 391.64 194.40 394.62 C 191.85 397.59 190.24 399.44 187.18 401.68 C 184.11 403.93 179.54 405.64 175.98 408.10 C 172.43 410.56 168.70 413.73 165.85 416.42 C 162.99 419.12 160.82 421.52 158.85 424.28 C 156.87 427.04 155.51 430.17 154.00 433.00 C 152.49 435.83 150.81 438.93 149.77 441.28 C 148.74 443.64 148.95 444.98 147.81 447.14 C 146.67 449.29 144.98 452.37 142.94 454.22 C 140.89 456.07 138.14 457.18 135.56 458.25 C 132.99 459.33 130.30 460.01 127.48 460.68 C 124.67 461.34 121.33 462.07 118.66 462.23 C 116.00 462.38 114.06 461.92 111.47 461.61 C 108.89 461.31 105.63 460.26 103.14 460.39 C 100.65 460.52 98.22 461.13 96.54 462.38 C 94.87 463.63 93.65 465.92 93.11 467.87 C 92.57 469.82 92.35 471.70 93.30 474.08 C 94.24 476.47 96.46 479.84 98.76 482.19 C 101.06 484.54 104.07 486.04 107.11 488.17 C 110.15 490.29 113.99 492.66 117.01 494.96 C 120.03 497.26 122.86 499.78 125.25 501.96 C 127.63 504.13 129.66 506.39 131.32 508.01 C 132.98 509.62 134.19 516.67 135.22 511.67 C 136.26 506.67 136.56 490.10 137.52 478.01 C 138.47 465.92 139.24 451.46 140.94 439.14 C 142.65 426.82 146.24 415.24 147.75 404.07 C 149.26 392.90 149.75 382.51 150.00 372.12 C 150.25 361.74 150.02 350.96 149.25 341.75 C 148.49 332.53 147.28 323.98 145.42 316.84 C 143.56 309.70 140.98 304.71 138.10 298.90 C 135.22 293.09 131.48 287.25 128.15 281.99 C 124.81 276.73 121.27 272.07 118.09 267.33 C 114.91 262.59 111.73 258.27 109.08 253.55 C 106.42 248.82 103.83 243.61 102.17 238.97 C 100.51 234.34 99.65 231.12 99.11 225.75 C 98.58 220.39 98.32 213.00 98.96 206.78 C 99.61 200.56 101.18 194.43 102.99 188.44 C 104.80 182.46 107.45 176.73 109.82 170.87 C 112.19 165.02 115.32 158.76 117.20 153.29 C 119.08 147.82 120.13 142.63 121.13 138.06 C 122.13 133.49 123.12 129.63 123.18 125.87 C 123.24 122.11 122.88 118.54 121.48 115.51 C 120.08 112.49 117.48 109.29 114.76 107.70 C 112.04 106.11 108.79 105.53 105.16 105.99 C 101.53 106.46 96.88 107.64 92.98 110.47 C 89.08 113.30 84.91 118.30 81.74 122.95 C 78.58 127.59 75.86 131.83 73.98 138.34 C 72.10 144.84 70.62 153.48 70.46 161.96 C 70.30 170.45 71.13 180.22 73.03 189.25 C 74.92 198.29 77.73 207.49 81.85 216.16 C 85.98 224.83 92.77 233.82 97.78 241.26 C 102.79 248.71 107.10 253.95 111.92 260.84 C 116.74 267.73 122.13 275.51 126.71 282.60 C 131.29 289.69 135.43 296.61 139.40 303.38 C 143.38 310.16 147.17 316.86 150.56 323.23 C 153.95 329.60 156.81 335.60 159.76 341.61 C 162.72 347.62 165.79 354.20 168.31 359.30 C 170.83 364.41 172.54 367.61 174.90 372.25 C 177.27 376.88 180.02 382.33 182.49 387.11 C 184.97 391.89 186.82 396.55 189.76 400.92 C 192.70 405.30 195.97 409.73 200.14 413.36 C 204.31 416.98 210.01 420.18 214.78 422.68 C 219.55 425.17 223.47 426.68 228.76 428.33 C 234.04 429.97 240.49 431.58 246.50 432.55 C 252.50 433.53 258.59 434.01 264.77 434.19 C 270.94 434.38 277.11 434.61 283.53 433.68 C 289.94 432.75 296.84 430.86 303.25 428.62 C 309.67 426.37 316.43 423.50 321.99 420.24 C 327.55 416.98 331.56 413.88 336.63 409.04 C 341.71 404.19 347.80 397.87 352.43 391.17 C 357.06 384.47 361.36 376.80 364.42 368.85 C 367.47 360.90 369.90 352.32 370.78 343.49 C 371.67 334.67 371.19 325.06 369.74 315.90 C 368.28 306.73 365.45 296.43 362.08 288.50 C 358.71 280.57 354.77 275.02 349.50 268.30 C 344.24 261.57 337.61 253.81 330.47 248.17 C 323.34 242.53 314.71 238.03 306.69 234.45 C 298.68 230.88 290.48 227.93 282.40 226.74 C 274.32 225.55 265.31 226.35 258.22 227.31 C 251.14 228.27 246.00 229.35 239.92 232.49 C 233.83 235.64 226.89 240.86 221.72 246.18 C 216.56 251.51 211.63 257.91 208.95 264.44 C 206.27 270.96 205.39 278.39 205.63 285.31 C 205.86 292.24 207.69 299.52 210.37 305.99 C 213.05 312.45 217.38 319.24 221.70 324.09 C 226.02 328.93 230.53 331.99 236.27 335.05 C 242.00 338.11 249.39 340.11 256.11 342.43 C 262.83 344.75 270.09 347.02 276.59 348.98 C 283.10 350.95 289.31 352.20 295.14 354.22 C 300.97 356.23 307.11 358.91 311.57 361.07 C 316.04 363.24 318.34 364.62 321.91 367.21 C 325.49 369.80 330.20 372.94 333.02 376.61 C 335.83 380.28 337.83 384.98 338.83 389.23 C 339.83 393.48 340.27 397.62 339.03 402.10 C 337.78 406.58 334.97 412.24 331.35 416.13 C 327.73 420.02 322.26 423.18 317.31 425.42 C 312.37 427.65 308.10 429.07 301.66 429.55 C 295.21 430.02 286.71 429.73 278.63 428.27 C 270.54 426.81 261.17 424.09 253.15 420.78 C 245.12 417.48 237.91 412.78 230.50 408.41 C 223.09 404.05 215.05 398.67 208.69 394.60 C 202.33 390.54 197.97 387.77 192.34 384.02 C 186.72 380.27 180.72 375.49 174.94 372.09 C 169.16 368.69 163.17 366.13 157.65 363.61 C 152.14 361.10 146.76 359.17 141.85 356.98 C 136.93 354.79 132.65 352.60 128.19 350.46 C 123.72 348.31 119.06 346.20 115.06 344.11 C 111.06 342.03 108.16 340.41 104.19 337.95 C 100.22 335.49 95.20 332.77 91.25 329.35 C 87.30 325.94 83.69 321.65 80.50 317.45 C 77.30 313.24 74.95 308.63 72.08 304.11 C 69.21 299.59 65.96 294.66 63.27 290.32 C 60.57 285.97 58.04 281.80 55.90 278.06 C 53.76 274.32 52.56 271.37 50.42 267.88 C 48.29 264.39 45.57 260.32 43.08 257.13 C 40.58 253.93 37.85 251.44 35.46 248.72 C 33.08 246.00 31.15 242.48 28.77 240.82 C 26.40 239.17 23.41 239.23 21.23 238.79 C 19.05 238.35 17.55 237.75 15.71 238.20 C 13.87 238.64 11.96 239.50 10.19 241.45 C 8.43 243.41 6.12 246.34 5.12 249.93 C 4.12 253.52 3.95 258.16 4.21 262.97 C 4.47 267.78 5.46 273.23 6.69 278.79 C 7.92 284.36 9.64 290.71 11.60 296.35 C 13.55 302.00 15.26 306.96 18.41 312.66 C 21.55 318.37 25.63 324.68 30.46 330.60 C 35.28 336.51 40.80 342.69 47.38 348.17 C 53.95 353.64 61.82 358.90 69.90 363.45 C 77.98 368.00 87.74 372.24 95.85 375.46 C 103.97 378.68 110.41 380.32 118.58 382.76 C 126.75 385.19 136.21 388.03 144.88 390.05 C 153.55 392.07 162.54 393.36 170.60 394.88 C 178.66 396.40 186.11 397.34 193.23 399.18 C 200.35 401.01 207.43 403.27 213.32 405.91 C 219.21 408.55 224.57 411.97 228.55 415.01 C 232.53 418.06 235.04 420.77 237.18 424.19 C 239.33 427.62 240.72 431.91 241.43 435.56 C 242.13 439.21 242.67 442.80 241.39 446.10 C 240.12 449.39 236.87 452.95 233.77 455.33 C 230.66 457.71 227.31 459.86 222.75 460.38 C 218.20 460.89 211.76 459.86 206.42 458.43 C 201.09 457.00 196.33 454.40 190.72 451.80 C 185.12 449.19 178.65 446.10 172.80 442.79 C 166.95 439.49 161.27 435.67 155.63 431.98 C 149.98 428.29 144.25 424.37 138.92 420.67 C 133.59 416.98 128.24 413.00 123.64 409.84 C 119.04 406.68 115.48 404.63 111.32 401.71 C 107.16 398.80 103.03 395.32 98.69 392.35 C 94.34 389.38 89.35 386.75 85.25 383.90 C 81.16 381.05 77.76 378.67 74.12 375.26 C 70.49 371.86 66.50 367.91 63.46 363.46 C 60.42 359.00 57.82 353.60 55.88 348.54 C 53.94 343.48 53.00 339.32 51.81 333.11 C 50.62 326.91 48.98 318.75 48.73 311.34 C 48.49 303.92 48.59 296.46 50.34 288.63 C 52.10 280.80 54.87 272.43 59.26 264.36 C 63.65 256.28 70.65 247.01 76.68 240.17 C 82.70 233.34 87.51 228.20 95.41 223.37 C 103.31 218.54 113.91 213.60 124.06 211.19 C 134.20 208.78 145.77 207.98 156.29 208.93 C 166.81 209.88 177.70 213.22 187.18 216.88 C 196.66 220.54 205.88 225.33 213.20 230.90 C 220.52 236.48 226.82 244.03 231.09 250.33 C 235.35 256.63 237.23 261.92 238.78 268.70 C 240.34 275.48 241.29 283.96 240.44 291.02 C 239.59 298.07 236.98 305.36 233.69 311.02 C 230.40 316.68 225.89 321.91 220.69 324.96 C 215.49 328.00 208.22 328.87 202.50 329.29 C 196.79 329.72 191.77 330.05 186.41 327.50 C 181.06 324.95 174.63 319.74 170.37 314.00 C 166.11 308.27 162.23 300.64 160.85 293.10 C 159.48 285.57 160.33 276.83 162.14 268.79 C 163.94 260.75 167.45 252.22 171.68 244.86 C 175.90 237.50 182.59 230.60 187.48 224.63 C 192.38 218.67 196.26 214.31 201.05 209.06 C 205.85 203.81 211.37 198.53 216.25 193.14 C 221.13 187.75 225.83 182.04 230.33 176.74 C 234.82 171.43 239.44 166.33 243.21 161.31 C 246.97 156.29 249.56 151.11 252.92 146.62 C 256.28 142.14 260.03 138.19 263.35 134.39 C 266.68 130.58 269.35 127.26 272.86 123.80 C 276.36 120.33 280.10 116.36 284.39 113.61 C 288.69 110.85 293.72 108.71 298.60 107.27 C 303.49 105.82 308.16 104.55 313.71 104.95 C 319.26 105.35 326.28 107.66 331.90 109.66 C 337.51 111.67 342.08 113.59 347.40 117.00 C 352.73 120.40 358.84 125.22 363.82 130.08 C 368.80 134.94 373.43 139.97 377.29 146.14 C 381.14 152.31 384.21 159.68 386.96 167.08 C 389.71 174.47 392.20 182.70 393.81 190.50 C 395.42 198.30 396.18 206.56 396.60 213.88 C 397.03 221.19 396.80 227.03 396.37 234.39 C 395.94 241.74 394.70 250.46 394.02 257.99 C 393.35 265.52 392.69 272.67 392.31 279.56 C 391.92 286.45 391.48 293.21 391.71 299.33 C 391.95 305.46 392.93 311.31 393.73 316.30 C 394.54 321.29 394.75 325.40 396.55 329.28 C 398.34 333.16 401.38 337.03 404.48 339.57 C 407.59 342.11 411.50 343.79 415.18 344.55 C 418.86 345.30 422.68 345.79 426.56 344.13 C 430.44 342.46 434.90 338.71 438.46 334.57 C 442.02 330.44 445.90 324.72 447.94 319.33 C 449.98 313.94 450.78 309.04 450.71 302.23 C 450.65 295.42 450.17 286.49 447.55 278.48 C 444.93 270.47 440.28 261.88 434.99 254.19 C 429.70 246.50 423.61 238.45 415.83 232.34 C 408.05 226.22 397.99 220.83 388.32 217.49 C 378.65 214.15 367.05 212.56 357.80 212.30 C 348.55 212.04 341.25 213.39 332.84 215.91 C 324.42 218.44 314.60 222.24 307.30 227.44 C 300.00 232.65 293.46 240.06 289.03 247.14 C 284.60 254.23 281.35 262.63 280.71 269.96 C 280.07 277.29 282.58 285.67 285.18 291.12 C 287.79 296.56 291.48 299.62 296.33 302.63 C 301.17 305.63 308.24 308.60 314.26 309.15 C 320.28 309.70 326.65 308.13 332.44 305.93 C 338.24 303.72 344.17 300.16 349.02 295.92 C 353.88 291.69 357.68 285.61 361.59 280.52 C 365.50 275.44 369.13 269.77 372.48 265.39 C 375.82 261.01 378.15 257.88 381.66 254.26 C 385.17 250.63 389.38 246.42 393.55 243.64 C 397.73 240.87 402.55 239.04 406.69 237.60 C 410.83 236.16 414.45 235.50 418.39 235.01 C 422.33 234.53 426.80 234.74 430.30 234.68 C 433.79 234.61 436.29 234.93 439.35 234.62 C 442.42 234.31 445.74 234.14 448.68 232.82 C 451.62 231.51 454.74 229.48 456.99 226.73 C 459.25 223.99 461.01 220.19 462.23 216.36 C 463.44 212.54 464.19 208.45 464.28 203.77 C 464.37 199.10 463.88 193.16 462.77 188.33 C 461.66 183.49 460.37 179.84 457.62 174.76 C 454.88 169.69 450.50 163.32 446.29 157.87 C 442.08 152.42 437.29 147.23 432.37 142.08 C 427.45 136.93 422.41 131.73 416.77 126.95 C 411.13 122.16 404.10 117.26 398.53 113.38 C 392.96 109.50 388.83 107.15 383.33 103.67 C 377.82 100.18 371.28 96.12 365.50 92.46 C 359.71 88.80 354.01 85.05 348.63 81.68 C 343.26 78.32 338.06 75.34 333.25 72.27 C 328.43 69.20 323.77 66.24 319.73 63.28 C 315.69 60.32 312.19 57.17 309.03 54.51 C 305.86 51.84 303.96 49.77 300.73 47.28 C 297.50 44.79 294.02 41.68 289.64 39.57 C 285.25 37.45 279.67 35.82 274.42 34.58 C 269.18 33.35 264.12 31.99 258.16 32.15 C 252.20 32.31 245.53 33.52 238.67 35.55 C 231.81 37.58 223.34 41.76 216.98 44.32 C 210.63 46.87 206.40 48.37 200.53 50.88 C 194.65 53.40 187.65 56.43 181.73 59.43 C 175.82 62.44 170.45 66.15 165.04 68.91 C 159.64 71.66 154.18 74.14 149.30 75.96 C 144.41 77.78 139.67 79.24 135.73 79.85 C 131.80 80.46 128.33 80.30 125.66 79.62 C 122.99 78.95 120.81 77.94 119.71 75.82 C 118.61 73.70 117.94 69.76 119.07 66.90 C 120.20 64.03 122.87 61.31 126.49 58.64 C 130.12 55.97 134.87 53.01 140.83 50.85 C 146.78 48.70 155.21 46.26 162.25 45.71 C 169.28 45.15 175.08 45.76 183.01 47.51 C 190.94 49.27 201.03 52.72 209.81 56.22 C 218.60 59.71 227.40 64.08 235.73 68.49 C 244.06 72.90 252.11 77.54 259.79 82.67 C 267.47 87.80 275.34 94.36 281.82 99.25 C 288.30 104.15 292.57 107.63 298.69 112.04 C 304.82 116.45 312.03 121.55 318.57 125.71 C 325.11 129.87 331.82 133.52 337.92 136.99 C 344.03 140.46 349.64 143.91 355.21 146.52 C 360.77 149.13 366.07 151.20 371.30 152.64 C 376.54 154.08 382.30 155.24 386.61 155.16 C 390.92 155.08 393.62 153.28 397.15 152.18 C 400.68 151.08 404.87 150.29 407.77 148.56 C 410.68 146.83 412.68 144.68 414.59 141.82 C 416.50 138.95 418.35 135.04 419.23 131.38 C 420.11 127.73 420.29 123.57 419.88 119.87 C 419.46 116.17 418.84 113.13 416.72 109.17 C 414.60 105.21 411.86 99.91 407.17 96.12 C 402.49 92.33 395.79 88.94 388.61 86.43 C 381.42 83.92 372.63 81.64 364.06 81.06 C 355.48 80.47 346.43 80.68 337.15 82.93 C 327.88 85.17 316.67 89.84 308.41 94.55 C 300.16 99.26 294.23 104.15 287.60 111.20 C 280.97 118.24 273.22 127.47 268.65 136.80 C 264.07 146.12 261.43 157.26 260.16 167.14 C 258.89 177.02 259.64 187.13 261.00 196.07 C 262.37 205.01 265.60 212.92 268.37 220.80 C 271.14 228.67 274.60 236.64 277.62 243.32 C 280.63 250.00 283.43 254.58 286.47 260.85 C 289.51 267.13 293.29 274.50 295.85 280.97 C 298.41 287.45 300.58 293.29 301.82 299.68 C 303.06 306.07 303.15 312.91 303.31 319.30 C 303.48 325.69 302.97 332.51 302.82 338.04 C 302.67 343.56 302.34 347.36 302.42 352.45 C 302.50 357.55 302.26 363.68 303.30 368.60 C 304.34 373.53 306.37 378.05 308.67 382.02 C 310.96 385.99 313.71 389.50 317.08 392.43 C 320.44 395.35 324.58 398.02 328.85 399.55 C 333.11 401.08 338.20 401.67 342.66 401.61 C 347.12 401.54 350.83 401.40 355.58 399.16 C 360.33 396.91 366.26 393.05 371.13 388.16 C 376.00 383.26 381.15 376.65 384.81 369.78 C 388.46 362.90 391.59 355.31 393.09 346.92 C 394.58 338.53 394.60 327.88 393.77 319.45 C 392.94 311.02 391.48 304.30 388.10 296.36 C 384.72 288.43 379.63 278.98 373.48 271.86 C 367.34 264.73 359.36 258.48 351.24 253.61 C 343.12 248.74 333.80 244.89 324.76 242.63 C 315.72 240.38 305.74 239.37 296.98 240.10 C 288.22 240.83 279.14 244.28 272.18 246.99 C 265.23 249.70 260.14 251.70 255.26 256.35 C 250.38 261.00 245.16 268.16 242.91 274.90 C 240.65 281.63 240.42 289.94 241.74 296.74 C 243.06 303.54 246.64 310.40 250.83 315.70 C 255.03 321.01 260.96 325.62 266.92 328.55 C 272.87 331.49 280.53 332.90 286.55 333.31 C 292.58 333.73 297.35 333.67 303.05 331.04 C 308.74 328.42 315.91 323.10 320.71 317.55 C 325.51 312.01 330.16 305.31 331.85 297.77 C 333.54 290.24 332.75 280.44 330.86 272.31 C 328.97 264.18 324.90 255.36 320.49 248.99 C 316.09 242.62 310.81 238.43 304.44 234.11 C 298.07 229.79 289.99 225.38 282.27 223.06 C 274.56 220.75 265.97 220.14 258.14 220.20 C 250.32 220.26 242.66 222.02 235.31 223.44 C 227.96 224.85 220.96 227.22 214.02 228.68 C 207.08 230.15 199.77 231.22 193.66 232.22 C 187.55 233.22 183.14 234.05 177.36 234.67 C 171.58 235.29 164.82 235.46 158.98 235.96 C 153.14 236.46 147.55 237.42 142.31 237.65 C 137.06 237.89 132.33 237.82 127.48 237.36 C 122.64 236.90 117.40 235.35 113.23 234.88 C 109.06 234.40 106.27 234.74 102.45 234.53 C 98.64 234.32 94.34 233.36 90.36 233.61 C 86.38 233.85 82.37 235.17 78.56 236.01 C 74.75 236.86 71.08 237.94 67.50 238.67 C 63.92 239.40 60.32 240.34 57.08 240.38 C 53.83 240.41 50.75 239.82 48.03 238.88 C 45.31 237.94 42.89 236.94 40.73 234.73 C 38.57 232.51 36.24 229.28 35.07 225.58 C 33.90 221.88 33.50 217.43 33.71 212.53 C 33.92 207.62 35.06 201.67 36.35 196.15 C 37.64 190.64 40.13 184.27 41.45 179.45 C 42.77 174.62 43.48 171.51 44.27 167.21 C 45.06 162.91 45.70 157.93 46.19 153.64 C 46.68 149.35 47.35 145.00 47.22 141.47 C 47.10 137.94 46.64 134.44 45.44 132.49 C 44.24 130.53 42.02 130.11 40.03 129.76 C 38.04 129.42 35.52 130.18 33.51 130.40 C 31.49 130.62 29.84 130.61 27.94 131.07 C 26.05 131.52 23.95 133.06 22.14 133.12 C 20.33 133.17 18.37 132.60 17.09 131.39 C 15.81 130.18 14.64 128.19 14.43 125.86 C 14.23 123.54 15.06 120.39 15.86 117.46 C 16.66 114.54 17.95 111.05 19.24 108.31 C 20.53 105.56 21.81 103.80 23.62 100.99 C 25.43 98.19 28.65 94.27 30.12 91.47 C 31.59 88.68 31.94 86.36 32.44 84.22 C 32.93 82.08 33.15 80.12 33.07 78.64 C 32.99 77.15 32.51 76.11 31.94 75.29 C 31.38 74.47 30.58 74.10 29.68 73.74 C 28.78 73.38 27.62 73.26 26.54 73.14 C 25.47 73.01 23.94 73.50 23.23 73.01 C 22.52 72.52 22.19 71.73 22.28 70.18 C 22.37 68.63 22.34 66.09 23.76 63.73 C 25.19 61.37 28.12 58.61 30.83 56.03 C 33.53 53.45 36.42 51.03 40.00 48.26 C 43.58 45.50 48.31 42.27 52.32 39.46 C 56.33 36.65 60.48 33.78 64.07 31.40 C 67.66 29.03 71.45 27.15 73.87 25.22 C 76.29 23.29 77.68 21.28 78.58 19.84 C 79.47 18.39 79.63 17.13 79.25 16.55 C 78.88 15.97 78.13 15.61 76.31 16.37 C 74.50 17.12 71.23 18.65 68.37 21.09 C 65.51 23.54 62.31 26.81 59.15 31.02 C 55.99 35.22 52.27 40.29 49.42 46.33 C 46.58 52.37 44.18 60.40 42.08 67.25 C 39.97 74.09 38.22 79.62 36.82 87.40 C 35.41 95.17 34.25 104.97 33.66 113.89 C 33.08 122.82 33.22 132.17 33.30 140.93 C 33.39 149.69 34.13 158.38 34.16 166.45 C 34.19 174.52 33.94 182.08 33.48 189.36 C 33.03 196.64 32.17 204.48 31.43 210.15 C 30.69 215.82 30.22 219.55 29.04 223.39 C 27.86 227.23 26.27 231.01 24.32 233.20 C 22.38 235.39 19.47 236.60 17.38 236.55 C 15.29 236.50 13.33 234.87 11.80 232.90 C 10.26 230.94 8.63 228.05 8.17 224.76 C 7.72 221.47 8.06 217.96 9.07 213.17 C 10.07 208.37 11.72 201.81 14.22 195.98 C 16.71 190.16 19.68 184.13 24.03 178.22 C 28.38 172.30 34.28 166.04 40.33 160.52 C 46.38 155.00 52.71 149.49 60.33 145.10 C 67.95 140.70 77.73 136.71 86.05 134.12 C 94.38 131.54 100.96 130.29 110.27 129.57 C 119.58 128.85 131.50 128.58 141.90 129.81 C 152.29 131.03 162.71 133.47 172.63 136.92 C 182.54 140.37 192.75 144.78 201.37 150.49 C 209.99 156.20 218.05 164.50 224.36 171.18 C 230.67 177.87 234.84 183.13 239.21 190.59 C 243.58 198.04 248.14 207.45 250.58 215.91 C 253.02 224.36 254.38 233.27 253.86 241.32 C 253.33 249.37 250.83 257.55 247.42 264.21 C 244.01 270.87 238.69 276.78 233.39 281.29 C 228.08 285.80 221.20 289.13 215.59 291.27 C 209.98 293.41 205.63 294.49 199.74 294.12 C 193.86 293.75 186.09 292.15 180.29 289.03 C 174.49 285.91 168.73 280.96 164.95 275.41 C 161.16 269.87 158.38 262.95 157.59 255.76 C 156.80 248.57 158.53 239.13 160.22 232.27 C 161.92 225.41 163.41 220.31 167.75 214.58 C 172.09 208.85 178.99 201.77 186.27 197.88 C 193.55 193.99 202.81 191.92 211.43 191.22 C 220.05 190.52 229.74 191.19 237.98 193.67 C 246.22 196.15 254.50 200.63 260.88 206.11 C 267.26 211.58 272.86 219.74 276.25 226.51 C 279.64 233.29 280.92 239.58 281.22 246.77 C 281.51 253.95 280.69 262.59 278.02 269.61 C 275.35 276.63 270.72 283.84 265.21 288.91 C 259.69 293.98 251.88 297.70 244.95 300.01 C 238.02 302.32 230.59 303.07 223.61 302.77 C 216.63 302.48 208.84 300.56 203.07 298.22 C 197.30 295.88 193.64 293.16 189.00 288.72 C 184.36 284.29 179.02 277.64 175.23 271.62 C 171.44 265.59 168.29 259.35 166.26 252.57 C 164.23 245.80 163.11 238.03 163.05 230.98 C 162.99 223.94 164.44 216.65 165.90 210.29 C 167.35 203.93 169.16 198.86 171.77 192.82 C 174.38 186.77 177.20 179.55 181.56 174.04 C 185.92 168.53 192.18 163.92 197.95 159.76 C 203.71 155.59 209.42 151.65 216.14 149.05 C 222.86 146.45 230.95 144.89 238.29 144.14 C 245.63 143.40 253.33 143.61 260.20 144.59 C 267.06 145.57 272.85 147.07 279.50 150.04 C 286.14 153.00 293.94 157.28 300.08 162.38 C 306.22 167.48 311.47 173.89 316.33 180.65 C 321.19 187.40 326.15 195.25 329.24 202.92 C 332.34 210.59 334.07 219.41 334.91 226.67 C 335.75 233.93 335.55 239.15 334.29 246.46 C 333.02 253.77 330.88 263.01 327.31 270.52 C 323.75 278.03 318.01 285.03 312.89 291.50 C 307.77 297.97 302.24 304.18 296.58 309.33 C 290.92 314.48 284.81 318.30 278.94 322.40 C 273.06 326.49 266.75 330.52 261.32 333.91 C 255.89 337.29 251.38 339.45 246.36 342.72 C 241.34 345.98 235.66 349.81 231.20 353.51 C 226.74 357.22 222.61 360.90 219.59 364.93 C 216.57 368.96 214.89 373.14 213.07 377.68 C 211.25 382.21 209.19 387.33 208.68 392.13 C 208.16 396.94 209.07 402.41 209.98 406.50 C 210.90 410.58 211.90 413.13 214.17 416.66 C 216.43 420.20 219.86 424.53 223.57 427.72 C 227.28 430.90 231.63 433.54 236.43 435.76 C 241.23 437.97 246.98 439.40 252.37 441.01 C 257.77 442.62 264.01 444.10 268.79 445.41 C 273.56 446.72 276.88 447.69 281.02 448.88 C 285.15 450.07 290.03 450.87 293.60 452.56 C 297.18 454.24 299.93 456.95 302.46 458.97 C 304.98 460.98 307.32 462.47 308.75 464.64 C 310.18 466.82 311.03 469.24 311.04 472.01 C 311.06 474.78 310.13 478.68 308.84 481.26 C 307.56 483.85 306.12 485.52 303.32 487.52 C 300.53 489.52 296.22 491.83 292.05 493.27 C 287.88 494.71 283.58 495.50 278.32 496.14 C 273.05 496.79 266.62 497.57 260.45 497.16 C 254.29 496.75 247.43 495.42 241.32 493.68 C 235.20 491.95 230.22 489.67 223.76 486.72 C 217.30 483.78 209.15 480.71 202.56 476.02 C 195.97 471.34 190.05 464.96 184.22 458.60 C 178.39 452.24 172.56 445.18 167.58 437.87 C 162.60 430.55 157.92 423.13 154.33 414.72 C 150.74 406.31 147.71 396.12 146.05 387.40 C 144.38 378.67 143.96 371.61 144.35 362.36 C 144.74 353.12 145.68 341.54 148.37 331.91 C 151.05 322.27 155.08 312.78 160.46 304.55 C 165.84 296.33 173.30 288.70 180.65 282.57 C 188.00 276.44 197.11 271.23 204.56 267.77 C 212.01 264.31 217.63 262.50 225.35 261.82 C 233.07 261.15 243.20 261.53 250.89 263.70 C 258.58 265.87 266.04 270.03 271.50 274.84 C 276.96 279.65 281.37 286.36 283.66 292.58 C 285.94 298.79 286.46 306.00 285.21 312.15 C 283.96 318.31 280.02 324.89 276.15 329.49 C 272.29 334.08 267.69 337.13 262.04 339.74 C 256.38 342.35 248.97 344.39 242.22 345.14 C 235.47 345.90 228.33 344.57 221.55 344.27 C 214.77 343.98 207.88 343.62 201.54 343.36 C 195.19 343.11 189.21 342.99 183.48 342.74 C 177.74 342.49 171.94 341.70 167.13 341.86 C 162.31 342.01 158.89 342.29 154.58 343.66 C 150.28 345.04 144.77 347.43 141.28 350.09 C 137.79 352.75 135.69 356.05 133.63 359.61 C 131.57 363.16 129.58 367.40 128.94 371.40 C 128.31 375.41 128.78 379.63 129.83 383.65 C 130.89 387.66 132.63 391.39 135.27 395.51 C 137.90 399.64 141.06 404.56 145.63 408.40 C 150.20 412.24 156.28 415.74 162.69 418.55 C 169.09 421.35 176.35 424.21 184.05 425.24 C 191.76 426.27 200.49 425.87 208.94 424.73 C 217.39 423.59 227.08 421.16 234.74 418.39 C 242.39 415.62 248.08 412.99 254.88 408.11 C 261.68 403.23 269.39 396.09 275.55 389.09 C 281.71 382.09 287.23 374.40 291.85 366.14 C 296.46 357.87 299.84 348.28 303.24 339.49 C 306.63 330.70 309.63 321.03 312.21 313.38 C 314.80 305.74 316.04 300.45 318.74 293.64 C 321.44 286.84 324.89 278.76 328.39 272.54 C 331.89 266.32 335.47 261.22 339.73 256.34 C 344.00 251.45 349.28 247.13 353.99 243.21 C 358.71 239.30 363.57 236.18 368.04 232.87 C 372.50 229.55 377.11 226.38 380.79 223.34 C 384.48 220.30 386.99 217.96 390.15 214.63 C 393.31 211.31 397.00 207.22 399.74 203.38 C 402.49 199.54 404.59 195.57 406.64 191.61 C 408.68 187.65 410.38 183.60 412.03 179.62 C 413.67 175.64 415.27 171.19 416.53 167.71 C 417.80 164.24 418.43 162.02 419.63 158.78 C 420.82 155.55 421.86 151.01 423.70 148.30 C 425.54 145.60 428.03 143.92 430.67 142.55 C 433.30 141.18 436.44 140.06 439.53 140.09 C 442.63 140.11 446.07 141.18 449.23 142.71 C 452.39 144.24 455.75 146.61 458.51 149.25 C 461.27 151.90 463.34 154.24 465.78 158.56 C 468.21 162.89 471.23 169.46 473.12 175.18 C 475.02 180.90 476.31 186.44 477.14 192.87 C 477.96 199.30 478.43 206.40 478.07 213.76 C 477.71 221.13 477.09 229.19 475.00 237.05 C 472.90 244.91 468.80 253.89 465.51 260.91 C 462.22 267.93 459.43 272.53 455.24 279.16 C 451.05 285.80 446.02 293.93 440.37 300.72 C 434.73 307.51 428.01 313.99 421.36 319.90 C 414.72 325.82 408.23 331.70 400.49 336.21 C 392.75 340.71 382.89 344.19 374.92 346.93 C 366.96 349.66 360.77 351.02 352.71 352.63 C 344.64 354.24 335.65 355.91 326.53 356.58 C 317.41 357.25 306.98 357.63 297.97 356.65 C 288.95 355.67 280.77 353.17 272.44 350.69 C 264.11 348.21 255.86 345.00 247.98 341.77 C 240.10 338.55 231.58 334.90 225.15 331.36 C 218.72 327.81 215.09 324.45 209.38 320.49 C 203.67 316.53 196.63 311.70 190.89 307.58 C 185.14 303.46 180.40 299.22 174.94 295.79 C 169.47 292.36 163.66 289.25 158.10 287.00 C 152.54 284.75 146.40 283.10 141.59 282.30 C 136.79 281.50 133.50 281.24 129.29 282.23 C 125.08 283.21 120.16 285.73 116.31 288.20 C 112.46 290.68 109.28 293.77 106.19 297.09 C 103.10 300.42 100.26 304.38 97.76 308.15 C 95.27 311.92 93.27 315.94 91.22 319.72 C 89.17 323.50 87.35 327.74 85.45 330.82 C 83.55 333.89 81.80 335.78 79.83 338.17 C 77.86 340.56 75.83 342.95 73.64 345.14 C 71.45 347.33 68.79 349.11 66.70 351.31 C 64.60 353.52 62.57 355.61 61.08 358.37 C 59.60 361.13 58.36 364.36 57.79 367.89 C 57.23 371.43 57.19 375.88 57.71 379.58 C 58.22 383.29 58.64 386.17 60.89 390.13 C 63.14 394.09 66.58 399.23 71.21 403.35 C 75.83 407.47 82.17 411.38 88.62 414.85 C 95.07 418.32 102.15 421.59 109.88 424.15 C 117.62 426.72 126.96 428.94 135.03 430.23 C 143.09 431.52 149.79 432.11 158.26 431.91 C 166.73 431.72 176.69 430.90 185.83 429.09 C 194.98 427.28 204.33 424.37 213.15 421.05 C 221.96 417.74 230.67 413.98 238.73 409.19 C 246.79 404.39 254.36 398.54 261.51 392.28 C 268.66 386.02 276.21 378.16 281.62 371.62 C 287.04 365.07 290.08 360.13 294.00 353.02 C 297.93 345.90 302.34 337.38 305.16 328.90 C 307.98 320.42 310.12 310.92 310.90 302.13 C 311.68 293.34 311.49 284.49 309.85 276.17 C 308.22 267.86 304.37 259.15 301.09 252.26 C 297.80 245.37 295.21 240.09 290.14 234.83 C 285.07 229.58 277.76 223.96 270.66 220.74 C 263.57 217.53 255.19 215.87 247.55 215.56 C 239.91 215.24 231.78 216.24 224.81 218.87 C 217.85 221.50 211.27 226.69 205.75 231.33 C 200.22 235.98 195.54 241.57 191.66 246.75 C 187.78 251.93 185.62 256.78 182.49 262.40 C 179.36 268.03 175.69 274.58 172.88 280.52 C 170.07 286.45 168.05 292.27 165.63 298.02 C 163.20 303.76 160.50 309.71 158.32 314.99 C 156.14 320.28 154.10 325.06 152.53 329.73 C 150.96 334.40 149.88 338.36 148.90 343.02 C 147.93 347.67 146.73 352.83 146.68 357.66 C 146.62 362.48 147.32 366.95 148.59 371.99 C 149.86 377.02 151.58 383.05 154.30 387.88 C 157.02 392.71 160.22 397.07 164.90 400.98 C 169.57 404.88 176.57 408.70 182.33 411.30 C 188.08 413.90 192.90 415.22 199.45 416.57 C 205.99 417.91 214.07 419.12 221.60 419.37 C 229.12 419.61 236.76 419.29 244.58 418.03 C 252.41 416.76 260.88 414.72 268.52 411.77 C 276.16 408.83 283.22 404.51 290.41 400.35 C 297.60 396.19 305.66 391.28 311.66 386.83 C 317.66 382.39 321.01 378.24 326.42 373.69 C 331.82 369.13 338.42 364.01 344.09 359.50 C 349.76 354.99 355.26 351.17 360.41 346.63 C 365.57 342.09 370.34 336.83 375.02 332.24 C 379.70 327.66 384.32 322.55 388.50 319.12 C 392.68 315.68 396.13 313.72 400.10 311.64 C 404.08 309.56 408.47 307.47 412.35 306.65 C 416.23 305.82 419.91 305.77 423.37 306.71 C 426.83 307.65 430.43 309.88 433.12 312.28 C 435.81 314.69 437.66 317.65 439.52 321.13 C 441.37 324.62 443.57 329.16 444.26 333.19 C 444.95 337.22 444.55 340.81 443.64 345.33 C 442.73 349.85 440.63 355.33 438.78 360.33 C 436.93 365.32 434.76 370.46 432.55 375.32 C 430.33 380.18 427.88 385.07 425.50 389.48 C 423.12 393.90 419.79 398.13 418.26 401.82 C 416.73 405.50 416.90 408.28 416.32 411.59 C 415.74 414.89 414.72 418.77 414.79 421.65 C 414.85 424.53 415.59 426.76 416.70 428.86 C 417.81 430.95 419.78 432.69 421.45 434.22 C 423.12 435.74 424.86 437.05 426.70 438.02 C 428.55 438.99 430.72 439.39 432.52 440.04 C 434.32 440.68 436.32 440.98 437.52 441.90 C 438.72 442.82 439.21 444.18 439.71 445.56 C 440.22 446.94 440.55 448.15 440.52 450.18 C 440.49 452.21 439.73 455.55 439.52 457.74 C 439.32 459.93 438.81 461.96 439.30 463.31 C 439.79 464.65 441.17 465.39 442.47 465.82 C 443.76 466.25 445.02 466.49 447.08 465.87 C 449.14 465.24 451.98 464.21 454.81 462.07 C 457.63 459.94 461.15 456.40 464.02 453.05 C 466.89 449.69 469.41 445.72 472.03 441.94 C 474.64 438.16 477.35 433.44 479.70 430.39 C 482.05 427.34 483.87 425.90 486.12 423.65 C 488.38 421.40 491.03 418.74 493.23 416.89 C 495.42 415.04 497.58 413.48 499.29 412.53 C 500.99 411.58 502.33 411.33 503.46 411.19 C 504.59 411.04 505.19 411.17 506.07 411.69 C 506.95 412.20 508.24 413.45 508.74 414.27 C 509.24 415.09 508.82 416.05 509.07 416.61 C 509.33 417.17 510.87 417.46 510.26 417.62 C 509.66 417.78 512.25 417.41 505.45 417.58 C 498.66 417.75 481.03 418.05 469.50 418.64 C 457.98 419.23 446.06 420.15 436.30 421.12 C 426.55 422.08 420.17 423.52 410.96 424.41 C 401.75 425.30 390.96 426.29 381.06 426.46 C 371.16 426.63 361.22 425.92 351.58 425.40 C 341.95 424.89 332.60 424.83 323.27 423.37 C 313.93 421.91 304.25 419.86 295.56 416.66 C 286.87 413.46 278.27 408.74 271.12 404.17 C 263.96 399.59 258.91 395.27 252.64 389.19 C 246.37 383.11 239.00 375.51 233.49 367.68 C 227.98 359.86 223.08 350.89 219.57 342.22 C 216.06 333.55 213.79 324.47 212.45 315.67 C 211.12 306.88 211.05 297.27 211.56 289.43 C 212.07 281.59 212.97 275.77 215.52 268.64 C 218.07 261.52 221.91 252.83 226.86 246.68 C 231.82 240.52 238.44 235.23 245.24 231.71 C 252.04 228.20 260.19 226.30 267.64 225.57 C 275.08 224.84 283.08 225.21 289.90 227.32 C 296.71 229.43 303.47 234.08 308.53 238.22 C 313.60 242.36 317.14 246.57 320.29 252.15 C 323.44 257.73 326.29 264.81 327.41 271.73 C 328.53 278.65 328.39 286.61 327.02 293.66 C 325.66 300.70 322.85 307.75 319.22 314.00 C 315.59 320.25 310.57 326.16 305.23 331.15 C 299.89 336.14 292.88 340.74 287.17 343.95 C 281.46 347.17 277.54 349.12 270.98 350.43 C 264.43 351.74 255.34 351.69 247.86 351.81 C 240.38 351.94 233.00 351.20 226.13 351.17 C 219.26 351.14 212.68 350.82 206.65 351.62 C 200.62 352.43 194.80 354.61 189.94 356.00 C 185.07 357.39 181.45 358.02 177.48 359.96 C 173.51 361.91 169.47 364.63 166.12 367.67 C 162.77 370.71 159.92 374.59 157.39 378.21 C 154.86 381.83 152.47 385.79 150.94 389.40 C 149.41 393.00 149.04 396.17 148.23 399.86 C 147.41 403.56 146.72 408.08 146.05 411.54 C 145.38 415.00 145.58 417.86 144.23 420.62 C 142.87 423.38 140.49 426.37 137.93 428.13 C 135.38 429.88 132.30 431.13 128.90 431.13 C 125.51 431.14 121.58 429.68 117.57 428.15 C 113.56 426.62 108.80 424.43 104.83 421.96 C 100.87 419.48 97.51 417.61 93.79 413.29 C 90.08 408.96 85.32 402.97 82.53 396.01 C 79.73 389.05 77.40 380.41 77.04 371.53 C 76.68 362.65 78.16 352.39 80.38 342.74 C 82.61 333.08 85.79 322.66 90.40 313.59 C 95.00 304.53 101.90 295.51 108.01 288.36 C 114.13 281.22 119.21 276.29 127.06 270.71 C 134.91 265.13 145.65 258.26 155.12 254.90 C 164.59 251.53 174.52 250.34 183.87 250.54 C 193.23 250.74 202.90 252.94 211.26 256.08 C 219.62 259.21 227.88 264.11 234.04 269.37 C 240.19 274.64 245.12 281.71 248.20 287.69 C 251.28 293.67 252.50 299.07 252.51 305.24 C 252.51 311.42 251.21 319.17 248.23 324.73 C 245.24 330.30 240.12 335.66 234.61 338.63 C 229.09 341.61 221.66 342.94 215.14 342.58 C 208.61 342.22 201.20 339.48 195.46 336.45 C 189.72 333.43 185.14 329.92 180.69 324.41 C 176.24 318.89 171.48 310.69 168.77 303.37 C 166.06 296.06 163.99 288.33 164.44 280.54 C 164.88 272.74 167.66 263.89 171.43 256.60 C 175.20 249.31 180.96 242.60 187.05 236.79 C 193.14 230.99 201.39 225.85 207.95 221.76 C 214.52 217.66 219.79 215.33 226.44 212.22 C 233.10 209.10 240.91 205.78 247.86 203.06 C 254.81 200.35 261.77 198.45 268.15 195.94 C 274.53 193.43 280.27 190.59 286.13 188.02 C 291.98 185.46 298.34 183.02 303.29 180.54 C 308.24 178.05 312.23 176.49 315.85 173.11 C 319.46 169.73 322.59 164.66 324.98 160.26 C 327.37 155.87 329.02 151.38 330.19 146.72 C 331.37 142.07 332.28 137.17 332.02 132.32 C 331.77 127.47 330.71 122.25 328.67 117.62 C 326.64 113.00 323.09 108.26 319.81 104.56 C 316.53 100.86 313.57 98.19 308.99 95.42 C 304.41 92.64 298.51 89.62 292.35 87.90 C 286.19 86.17 279.15 84.84 272.02 85.06 C 264.89 85.28 257.08 86.79 249.59 89.20 C 242.09 91.62 233.73 96.08 227.07 99.53 C 220.40 102.97 215.56 105.21 209.59 109.87 C 203.62 114.53 196.93 121.17 191.26 127.50 C 185.59 133.82 179.86 140.56 175.55 147.82 C 171.23 155.08 167.71 162.73 165.39 171.05 C 163.07 179.37 161.35 188.83 161.62 197.74 C 161.88 206.66 164.58 216.70 166.99 224.53 C 169.41 232.36 171.66 237.82 176.10 244.73 C 180.54 251.63 187.06 260.10 193.63 265.95 C 200.21 271.80 208.08 275.90 215.56 279.81 C 223.04 283.71 230.95 286.58 238.51 289.37 C 246.08 292.16 253.79 294.42 260.96 296.54 C 268.12 298.66 275.35 300.23 281.48 302.07 C 287.61 303.91 292.13 305.63 297.74 307.58 C 303.34 309.54 309.82 311.16 315.12 313.79 C 320.43 316.43 325.23 319.79 329.56 323.38 C 333.89 326.98 338.41 330.98 341.10 335.36 C 343.78 339.74 345.16 344.83 345.66 349.65 C 346.15 354.48 345.66 359.22 344.05 364.30 C 342.44 369.38 339.48 375.38 335.99 380.14 C 332.51 384.90 328.53 389.27 323.15 392.87 C 317.76 396.47 310.55 399.50 303.67 401.76 C 296.80 404.01 288.94 404.93 281.90 406.40 C 274.87 407.86 267.35 409.34 261.46 410.56 C 255.57 411.78 251.78 412.31 246.59 413.71 C 241.39 415.11 235.08 416.96 230.28 418.96 C 225.49 420.97 220.81 423.23 217.82 425.76 C 214.83 428.29 213.97 431.06 212.36 434.15 C 210.74 437.23 208.77 441.12 208.13 444.26 C 207.49 447.40 207.46 449.98 208.50 453.01 C 209.55 456.04 211.73 459.72 214.40 462.46 C 217.07 465.19 220.47 467.45 224.51 469.44 C 228.56 471.42 233.44 473.14 238.65 474.37 C 243.85 475.61 249.69 477.24 255.77 476.86 C 261.84 476.49 268.94 474.12 275.09 472.12 C 281.23 470.12 286.20 468.49 292.65 464.86 C 299.10 461.23 307.22 456.05 313.78 450.33 C 320.34 444.60 326.87 438.01 332.02 430.52 C 337.17 423.04 341.08 414.36 344.66 405.44 C 348.25 396.52 351.42 385.92 353.53 377.02 C 355.64 368.13 357.21 361.24 357.33 352.08 C 357.45 342.91 356.64 331.41 354.25 322.04 C 351.86 312.66 347.68 304.21 342.98 295.83 C 338.29 287.45 332.27 278.68 326.09 271.78 C 319.90 264.88 313.19 259.10 305.88 254.43 C 298.56 249.76 289.56 245.98 282.19 243.75 C 274.81 241.53 268.75 240.73 261.62 241.07 C 254.49 241.42 246.14 243.11 239.39 245.84 C 232.63 248.56 226.28 252.75 221.09 257.43 C 215.90 262.11 211.44 267.98 208.24 273.91 C 205.04 279.84 202.84 286.54 201.91 293.01 C 200.98 299.48 201.16 306.86 202.64 312.74 C 204.13 318.62 207.09 323.13 210.81 328.30 C 214.54 333.47 219.28 339.87 224.98 343.78 C 230.68 347.69 237.72 350.79 244.99 351.75 C 252.27 352.70 260.98 351.60 268.62 349.52 C 276.26 347.44 284.79 343.47 290.85 339.25 C 296.91 335.03 300.98 330.53 304.97 324.19 C 308.96 317.85 313.02 309.35 314.78 301.21 C 316.53 293.07 316.60 283.65 315.51 275.36 C 314.42 267.07 311.86 258.88 308.24 251.46 C 304.62 244.05 299.20 236.81 293.78 230.88 C 288.35 224.96 281.72 219.48 275.67 215.89 C 269.62 212.30 264.26 210.47 257.47 209.35 C 250.68 208.23 242.25 207.76 234.93 209.16 C 227.60 210.57 219.92 213.93 213.52 217.80 C 207.11 221.68 200.65 226.58 196.51 232.42 C 192.37 238.27 189.88 246.23 188.68 252.89 C 187.47 259.54 188.12 265.46 189.26 272.37 C 190.40 279.27 191.92 287.81 195.52 294.32 C 199.12 300.83 204.89 306.83 210.86 311.42 C 216.83 316.01 224.16 319.52 231.36 321.85 C 238.56 324.18 246.47 325.82 254.08 325.41 C 261.68 325.00 270.54 322.48 276.99 319.41 C 283.43 316.33 288.38 312.54 292.76 306.96 C 297.15 301.39 301.30 293.64 303.29 285.96 C 305.28 278.27 306.05 268.76 304.69 260.84 C 303.33 252.92 299.95 244.72 295.15 238.42 C 290.35 232.11 282.92 226.33 275.87 223.02 C 268.82 219.71 259.74 218.67 252.87 218.57 C 246.01 218.48 240.78 219.48 234.66 222.46 C 228.54 225.44 221.02 230.78 216.16 236.46 C 211.29 242.13 207.10 249.37 205.48 256.50 C 203.86 263.62 204.36 272.16 206.45 279.19 C 208.53 286.22 213.40 293.75 217.99 298.67 C 222.58 303.59 227.37 306.45 233.98 308.71 C 240.59 310.97 250.05 312.81 257.64 312.23 C 265.23 311.64 273.23 309.35 279.53 305.22 C 285.83 301.09 291.45 294.27 295.43 287.45 C 299.41 280.63 301.89 272.09 303.41 264.30 C 304.94 256.52 304.55 247.65 304.56 240.73 C 304.57 233.82 304.19 229.25 303.47 222.81 C 302.74 216.37 301.17 208.82 300.21 202.10 C 299.24 195.37 298.08 188.78 297.70 182.48 C 297.31 176.18 297.46 169.90 297.91 164.30 C 298.35 158.70 299.43 153.51 300.39 148.88 C 301.35 144.26 301.71 140.51 303.67 136.53 C 305.63 132.54 308.82 128.30 312.14 124.97 C 315.45 121.65 319.15 118.26 323.57 116.58 C 327.98 114.90 333.46 114.32 338.63 114.92 C 343.79 115.51 349.16 117.64 354.58 120.15 C 359.99 122.66 366.35 126.35 371.11 129.97 C 375.87 133.59 379.21 136.89 383.13 141.86 C 387.04 146.83 391.42 153.14 394.59 159.80 C 397.77 166.45 400.89 173.77 402.19 181.79 C 403.48 189.81 403.07 199.26 402.36 207.94 C 401.65 216.61 400.07 226.01 397.94 233.85 C 395.81 241.70 393.81 248.00 389.59 255.02 C 385.36 262.05 379.27 269.88 372.59 276.01 C 365.91 282.15 357.55 287.42 349.49 291.83 C 341.44 296.24 332.73 299.80 324.25 302.47 C 315.77 305.14 307.05 306.67 298.63 307.83 C 290.20 308.98 281.27 309.71 273.69 309.39 C 266.11 309.06 260.39 307.77 253.16 305.88 C 245.93 303.99 237.17 301.50 230.31 298.03 C 223.46 294.57 217.07 290.31 212.03 285.08 C 207.00 279.85 202.99 273.29 200.12 266.64 C 197.25 260.00 195.28 252.51 194.83 245.22 C 194.38 237.94 195.32 229.43 197.42 222.93 C 199.52 216.44 203.09 211.48 207.41 206.25 C 211.73 201.01 216.99 195.36 223.35 191.52 C 229.71 187.67 238.08 184.51 245.59 183.17 C 253.10 181.83 261.00 181.85 268.41 183.45 C 275.82 185.06 283.78 189.47 290.07 192.82 C 296.36 196.16 301.07 198.67 306.15 203.50 C 311.23 208.34 316.95 215.15 320.55 221.85 C 324.14 228.55 326.97 236.21 327.72 243.71 C 328.46 251.20 327.13 259.49 325.02 266.84 C 322.91 274.19 319.86 281.74 315.06 287.81 C 310.26 293.87 302.51 299.65 296.23 303.21 C 289.96 306.78 284.48 308.80 277.41 309.20 C 270.35 309.59 261.17 308.35 253.84 305.60 C 246.51 302.84 239.75 297.46 233.43 292.66 C 227.10 287.87 221.44 282.23 215.89 276.83 C 210.34 271.42 204.64 265.14 200.11 260.22 C 195.59 255.31 192.74 251.89 188.74 247.33 C 184.75 242.76 180.42 237.39 176.13 232.82 C 171.85 228.26 167.46 223.57 163.04 219.95 C 158.62 216.33 153.98 213.54 149.61 211.10 C 145.24 208.65 141.26 206.86 136.80 205.27 C 132.34 203.69 126.89 202.68 122.84 201.58 C 118.79 200.48 116.11 199.85 112.49 198.67 C 108.87 197.49 104.68 196.21 101.12 194.49 C 97.56 192.77 94.24 190.56 91.12 188.35 C 88.00 186.15 84.94 183.88 82.40 181.27 C 79.86 178.66 77.57 175.97 75.87 172.67 C 74.18 169.37 72.84 165.17 72.21 161.45 C 71.58 157.74 71.80 154.53 72.11 150.37 C 72.42 146.21 72.34 141.39 74.08 136.49 C 75.82 131.59 78.57 125.93 82.54 120.98 C 86.52 116.03 92.53 111.10 97.93 106.80 C 103.32 102.49 109.88 98.58 114.90 95.15 C 119.93 91.73 123.37 89.50 128.09 86.23 C 132.81 82.96 138.86 79.01 143.22 75.55 C 147.58 72.08 151.29 68.71 154.25 65.44 C 157.22 62.17 159.37 59.00 160.98 55.92 C 162.60 52.84 164.00 49.62 163.95 46.97 C 163.90 44.32 162.08 41.93 160.69 40.01 C 159.29 38.10 158.00 36.54 155.57 35.46 C 153.14 34.38 149.30 33.86 146.10 33.51 C 142.90 33.17 139.94 32.47 136.37 33.41 C 132.80 34.34 128.61 36.81 124.66 39.14 C 120.70 41.47 116.30 44.12 112.63 47.39 C 108.96 50.65 106.45 54.35 102.61 58.71 C 98.77 63.07 93.70 68.39 89.59 73.56 C 85.47 78.72 81.67 84.22 77.91 89.73 C 74.16 95.23 70.47 101.36 67.06 106.60 C 63.64 111.83 60.53 116.65 57.45 121.15 C 54.36 125.64 51.14 130.11 48.55 133.57 C 45.97 137.03 44.48 138.93 41.94 141.89 C 39.39 144.85 36.11 148.05 33.29 151.35 C 30.48 154.65 27.51 158.12 25.06 161.67 C 22.60 165.22 20.47 168.61 18.58 172.64 C 16.69 176.66 14.94 181.34 13.70 185.80 C 12.46 190.27 11.49 193.85 11.16 199.44 C 10.82 205.03 10.64 212.24 11.70 219.33 C 12.75 226.41 14.33 234.25 17.51 241.95 C 20.69 249.65 25.46 257.99 30.75 265.54 C 36.04 273.09 42.21 280.37 49.26 287.24 C 56.31 294.11 65.26 301.64 73.06 306.77 C 80.85 311.91 87.32 314.43 96.02 318.06 C 104.73 321.69 115.57 325.90 125.31 328.55 C 135.05 331.20 144.89 332.77 154.48 333.97 C 164.07 335.17 173.68 335.22 182.83 335.75 C 191.98 336.27 200.88 336.73 209.38 337.12 C 217.87 337.51 226.54 337.40 233.79 338.09 C 241.03 338.77 246.12 339.87 252.83 341.24 C 259.55 342.62 267.74 344.01 274.08 346.33 C 280.42 348.65 286.20 351.83 290.87 355.16 C 295.53 358.49 299.27 362.07 302.07 366.31 C 304.87 370.55 306.92 376.15 307.67 380.60 C 308.42 385.06 307.88 388.85 306.56 393.06 C 305.25 397.26 303.34 402.08 299.78 405.85 C 296.22 409.62 291.06 413.41 285.20 415.67 C 279.33 417.93 271.59 418.99 264.60 419.40 C 257.61 419.80 250.24 418.92 243.26 418.11 C 236.28 417.31 228.96 415.75 222.72 414.58 C 216.48 413.41 211.68 411.90 205.81 411.08 C 199.94 410.27 193.10 409.80 187.51 409.68 C 181.92 409.56 176.97 409.71 172.27 410.37 C 167.57 411.02 163.30 412.46 159.31 413.60 C 155.32 414.75 151.55 416.11 148.32 417.21 C 145.09 418.31 143.00 419.19 139.94 420.21 C 136.87 421.23 133.32 422.58 129.90 423.32 C 126.49 424.07 122.87 424.62 119.45 424.68 C 116.03 424.74 113.08 424.72 109.40 423.68 C 105.72 422.65 101.24 420.10 97.38 418.45 C 93.53 416.79 89.56 415.30 86.28 413.76 C 83.01 412.22 80.68 410.48 77.72 409.20 C 74.77 407.92 71.27 406.76 68.57 406.09 C 65.87 405.42 63.64 405.07 61.51 405.19 C 59.38 405.30 57.55 406.04 55.77 406.78 C 54.00 407.52 52.13 408.35 50.87 409.63 C 49.60 410.91 49.17 412.94 48.20 414.45 C 47.24 415.97 46.29 417.73 45.07 418.72 C 43.85 419.72 42.33 419.91 40.86 420.42 C 39.39 420.94 38.04 422.14 36.25 421.82 C 34.46 421.49 32.39 420.27 30.12 418.47 C 27.86 416.67 25.01 413.98 22.67 411.03 C 20.33 408.08 18.22 404.87 16.11 400.75 C 14.01 396.64 11.97 391.42 10.03 386.33 C 8.10 381.24 6.09 375.38 4.49 370.22 C 2.89 365.05 -4.42 359.96 0.42 355.34 C 5.26 350.72 21.87 346.18 33.54 342.48 C 45.20 338.79 59.28 335.61 70.43 333.19 C 81.58 330.77 89.81 329.93 100.43 327.96 C 111.06 325.99 123.46 323.76 134.18 321.37 C 144.90 318.97 154.75 316.31 164.73 313.60 C 174.70 310.90 184.83 308.46 194.03 305.13 C 203.24 301.80 212.44 297.46 219.96 293.62 C 227.49 289.79 232.72 286.60 239.18 282.12 C 245.63 277.63 252.81 272.25 258.70 266.72 C 264.58 261.19 269.95 255.02 274.48 248.94 C 279.00 242.87 282.41 236.51 285.84 230.28 C 289.28 224.06 292.82 217.90 295.09 211.60 C 297.36 205.30 298.63 198.25 299.44 192.49 C 300.25 186.74 300.49 182.70 299.96 177.07 C 299.44 171.44 297.69 164.67 296.28 158.70 C 294.87 152.74 293.51 146.69 291.50 141.29 C 289.48 135.90 286.24 131.21 284.20 126.34 C 282.16 121.47 280.53 116.32 279.25 112.06 C 277.96 107.80 276.77 104.78 276.48 100.79 C 276.19 96.81 276.59 92.00 277.50 88.15 C 278.41 84.31 279.89 81.00 281.94 77.72 C 284.00 74.44 287.05 71.33 289.81 68.49 C 292.57 65.66 295.96 63.26 298.50 60.69 C 301.05 58.12 303.00 55.24 305.10 53.07 C 307.20 50.89 309.43 49.87 311.09 47.62 C 312.75 45.37 314.46 42.22 315.04 39.57 C 315.62 36.92 315.40 34.45 314.55 31.72 C 313.70 28.99 311.68 25.54 309.96 23.19 C 308.24 20.84 306.17 19.58 304.23 17.59 C 302.29 15.60 300.02 13.25 298.34 11.25 C 296.66 9.26 295.00 7.45 294.16 5.63 C 293.32 3.80 293.15 -4.45 293.30 0.32 C 293.46 5.10 295.01 22.29 295.11 34.25 C 295.21 46.22 294.33 59.97 293.91 72.13 C 293.48 84.30 292.52 96.76 292.58 107.25 C 292.64 117.74 292.88 125.49 294.27 135.07 C 295.65 144.66 298.17 155.68 300.88 164.78 C 303.59 173.88 306.71 182.15 310.53 189.69 C 314.35 197.23 319.05 204.07 323.83 210.03 C 328.60 215.99 334.04 221.11 339.17 225.45 C 344.31 229.80 349.96 232.97 354.63 236.08 C 359.30 239.18 362.95 241.37 367.20 244.09 C 371.46 246.80 375.65 250.01 380.16 252.36 C 384.67 254.72 389.87 256.09 394.26 258.22 C 398.65 260.36 402.73 262.34 406.50 265.16 C 410.27 267.97 414.01 272.06 416.85 275.10 C 419.69 278.15 421.32 279.82 423.53 283.42 C 425.74 287.02 428.36 292.03 430.12 296.70 C 431.88 301.38 433.26 306.67 434.08 311.46 C 434.91 316.26 435.05 320.48 435.04 325.45 C 435.04 330.42 434.95 336.13 434.04 341.28 C 433.14 346.44 431.32 351.80 429.63 356.39 C 427.94 360.97 426.10 364.11 423.89 368.80 C 421.69 373.49 418.73 379.79 416.38 384.53 C 414.03 389.26 411.95 392.90 409.78 397.23 C 407.61 401.55 405.16 406.35 403.36 410.47 C 401.57 414.60 399.98 418.50 399.00 421.96 C 398.03 425.43 397.67 428.34 397.52 431.28 C 397.36 434.22 397.49 437.26 398.10 439.60 C 398.71 441.93 399.36 443.88 401.18 445.28 C 403.00 446.68 406.23 447.84 409.02 448.02 C 411.81 448.20 414.63 447.62 417.91 446.36 C 421.18 445.09 425.43 442.69 428.66 440.44 C 431.90 438.18 434.33 436.63 437.32 432.81 C 440.31 429.00 443.72 423.45 446.61 417.57 C 449.51 411.68 452.59 404.59 454.70 397.52 C 456.81 390.44 458.56 383.35 459.28 375.13 C 460.01 366.90 460.54 357.34 459.03 348.17 C 457.52 338.99 454.04 328.60 450.25 320.09 C 446.45 311.57 442.28 304.86 436.25 297.07 C 430.22 289.27 421.83 280.65 414.07 273.33 C 406.32 266.00 397.90 259.03 389.71 253.11 C 381.52 247.19 373.42 242.26 364.92 237.80 C 356.42 233.33 346.68 229.84 338.73 226.31 C 330.79 222.78 324.39 220.25 317.25 216.63 C 310.10 213.01 302.41 208.79 295.88 204.59 C 289.34 200.40 283.80 195.59 278.04 191.48 C 272.28 187.36 266.90 183.81 261.30 179.90 C 255.70 175.98 250.04 171.33 244.44 167.99 C 238.84 164.65 232.93 162.20 227.68 159.86 C 222.43 157.53 218.35 155.31 212.94 153.98 C 207.54 152.66 201.21 151.83 195.24 151.91 C 189.27 151.98 183.17 153.23 177.12 154.44 C 171.06 155.65 164.62 157.38 158.91 159.19 C 153.20 160.99 147.66 163.54 142.85 165.27 C 138.05 167.01 134.62 168.08 130.08 169.61 C 125.53 171.14 120.10 173.62 115.59 174.45 C 111.07 175.29 106.85 175.10 102.97 174.63 C 99.10 174.16 95.53 173.07 92.33 171.63 C 89.14 170.18 86.49 167.91 83.79 165.97 C 81.09 164.03 78.57 161.64 76.16 160.00 C 73.76 158.37 71.72 157.50 69.35 156.17 C 66.98 154.83 64.41 152.88 61.93 151.99 C 59.45 151.11 57.08 150.45 54.44 150.86 C 51.81 151.27 49.05 152.87 46.11 154.45 C 43.18 156.04 39.79 158.23 36.82 160.39 C 33.85 162.54 30.78 165.30 28.30 167.38 C 25.82 169.46 24.10 171.49 21.95 172.87 C 19.80 174.25 17.45 175.28 15.41 175.65 C 13.38 176.03 11.36 176.12 9.72 175.14 C 8.07 174.17 6.22 172.10 5.54 169.78 C 4.87 167.46 5.45 164.35 5.67 161.24 C 5.89 158.13 5.96 154.77 6.88 151.11 C 7.79 147.46 10.23 142.77 11.16 139.31 C 12.10 135.86 12.28 133.41 12.49 130.39 C 12.70 127.38 12.60 123.65 12.43 121.22 C 12.26 118.79 12.10 117.01 11.47 115.81 C 10.84 114.60 9.48 114.31 8.64 113.99 C 7.80 113.67 7.59 113.50 6.43 113.89 C 5.28 114.28 -0.55 115.45 1.73 116.35 C 4.00 117.24 10.65 117.67 20.06 119.25 C 29.47 120.83 45.78 122.70 58.19 125.81 C 70.61 128.93 83.96 133.75 94.55 137.93 C 105.14 142.11 112.32 145.92 121.74 150.90 C 131.17 155.88 141.56 162.16 151.08 167.81 C 160.59 173.45 169.81 179.47 178.85 184.77 C 187.89 190.07 196.65 195.16 205.30 199.60 C 213.94 204.05 222.58 208.18 230.72 211.44 C 238.86 214.70 247.05 217.20 254.13 219.17 C 261.21 221.13 266.21 222.66 273.19 223.23 C 280.17 223.79 289.21 223.90 296.01 222.56 C 302.81 221.22 308.67 218.23 313.97 215.18 C 319.27 212.12 324.12 208.78 327.79 204.23 C 331.46 199.67 334.37 192.96 335.97 187.85 C 337.57 182.74 338.22 178.73 337.39 173.57 C 336.56 168.41 334.59 161.98 330.99 156.88 C 327.39 151.79 321.97 146.42 315.80 143.01 C 309.63 139.61 301.91 136.45 293.97 136.46 C 286.02 136.46 276.23 139.22 268.12 143.04 C 260.01 146.86 251.28 153.59 245.29 159.38 C 239.30 165.17 235.66 170.53 232.17 177.78 C 228.68 185.04 225.75 194.13 224.35 202.91 C 222.96 211.68 222.76 221.74 223.81 230.43 C 224.87 239.12 227.95 247.19 230.67 255.05 C 233.38 262.92 236.93 270.49 240.11 277.62 C 243.29 284.74 246.64 291.94 249.74 297.80 C 252.83 303.67 255.48 307.55 258.67 312.83 C 261.86 318.12 265.63 324.03 268.85 329.52 C 272.06 335.01 275.76 340.24 277.96 345.78 C 280.15 351.32 281.47 357.17 282.04 362.76 C 282.60 368.35 282.23 374.67 281.34 379.33 C 280.45 384.00 279.49 387.03 276.70 390.77 C 273.92 394.52 269.61 399.08 264.65 401.81 C 259.69 404.54 253.23 406.67 246.94 407.15 C 240.66 407.63 233.92 407.02 226.93 404.71 C 219.94 402.40 211.59 398.15 205.00 393.29 C 198.40 388.44 191.98 381.85 187.36 375.57 C 182.75 369.29 180.08 363.33 177.33 355.62 C 174.58 347.91 171.91 338.22 170.87 329.31 C 169.83 320.40 169.39 310.96 171.11 302.15 C 172.83 293.34 176.88 284.35 181.21 276.46 C 185.54 268.56 191.66 260.69 197.09 254.77 C 202.52 248.84 207.28 245.06 213.79 240.90 C 220.31 236.75 228.63 232.55 236.18 229.84 C 243.73 227.13 251.68 225.45 259.10 224.64 C 266.53 223.83 273.73 224.00 280.73 224.99 C 287.73 225.97 294.58 227.82 301.12 230.55 C 307.66 233.29 314.43 238.40 319.97 241.40 C 325.50 244.41 329.23 245.82 334.31 248.59 C 339.40 251.37 345.16 255.04 350.48 258.03 C 355.79 261.03 361.15 264.28 366.19 266.55 C 371.22 268.82 375.87 270.60 380.69 271.66 C 385.51 272.72 390.44 273.09 395.10 272.91 C 399.76 272.73 404.76 271.97 408.63 270.58 C 412.50 269.18 415.18 267.54 418.32 264.54 C 421.46 261.53 424.93 257.08 427.47 252.55 C 430.01 248.01 432.51 242.86 433.58 237.31 C 434.65 231.77 434.78 225.66 433.89 219.28 C 433.00 212.91 430.72 205.13 428.24 199.05 C 425.75 192.96 423.44 188.39 418.99 182.77 C 414.55 177.15 408.53 170.04 401.56 165.32 C 394.59 160.61 385.94 157.01 377.18 154.48 C 368.42 151.94 358.58 150.42 349.01 150.10 C 339.44 149.79 329.19 150.08 319.77 152.59 C 310.34 155.09 300.31 160.56 292.45 165.12 C 284.60 169.69 279.09 174.12 272.65 179.99 C 266.21 185.86 259.55 193.33 253.80 200.34 C 248.04 207.36 243.18 215.34 238.11 222.08 C 233.03 228.81 228.22 234.80 223.35 240.74 C 218.48 246.69 213.29 252.87 208.88 257.75 C 204.48 262.64 201.33 266.01 196.91 270.06 C 192.48 274.11 187.38 278.56 182.35 282.05 C 177.32 285.53 171.88 288.02 166.72 290.98 C 161.56 293.94 155.73 296.53 151.38 299.83 C 147.03 303.12 143.64 306.77 140.61 310.75 C 137.57 314.73 135.17 319.58 133.18 323.68 C 131.19 327.78 129.36 330.76 128.68 335.33 C 128.00 339.89 128.43 345.85 129.10 351.09 C 129.77 356.34 130.81 361.68 132.70 366.81 C 134.59 371.94 136.89 376.98 140.45 381.86 C 144.00 386.74 149.39 392.15 154.02 396.10 C 158.66 400.04 162.10 403.00 168.24 405.54 C 174.39 408.09 182.94 410.81 190.90 411.39 C 198.86 411.97 207.62 411.37 216.00 409.02 C 224.38 406.68 233.15 401.75 241.17 397.33 C 249.19 392.92 256.64 387.50 264.11 382.52 C 271.59 377.54 279.64 372.11 286.02 367.45 C 292.40 362.79 296.70 358.99 302.41 354.56 C 308.12 350.12 314.38 345.56 320.28 340.83 C 326.17 336.11 332.12 330.56 337.79 326.21 C 343.47 321.87 348.95 317.98 354.32 314.76 C 359.69 311.54 364.92 309.03 370.01 306.91 C 375.10 304.79 380.53 303.02 384.86 302.06 C 389.19 301.10 391.98 301.11 395.98 301.15 C 399.99 301.20 404.82 301.33 408.90 302.32 C 412.98 303.31 417.20 304.89 420.47 307.08 C 423.74 309.28 426.73 311.77 428.52 315.47 C 430.32 319.17 431.18 324.70 431.24 329.27 C 431.30 333.84 430.74 337.84 428.87 342.90 C 426.99 347.96 423.90 354.23 420.00 359.63 C 416.10 365.04 411.65 370.94 405.48 375.35 C 399.31 379.76 391.36 383.58 382.99 386.09 C 374.61 388.61 364.86 390.32 355.24 390.42 C 345.62 390.53 334.06 388.90 325.27 386.71 C 316.48 384.52 310.23 382.07 302.52 377.29 C 294.80 372.51 285.55 365.55 278.97 358.03 C 272.39 350.51 266.32 341.20 263.04 332.15 C 259.76 323.10 259.04 312.56 259.30 303.72 C 259.55 294.88 262.04 286.11 264.56 279.12 C 267.09 272.13 269.87 266.91 274.44 261.77 C 279.01 256.63 285.81 251.30 292.01 248.29 C 298.21 245.29 305.31 243.60 311.65 243.76 C 317.99 243.92 324.51 246.04 330.05 249.26 C 335.58 252.48 341.81 257.36 344.86 263.08 C 347.92 268.81 348.38 277.25 348.37 283.61 C 348.36 289.98 346.80 295.11 344.78 301.26 C 342.77 307.40 339.61 314.33 336.27 320.49 C 332.94 326.65 329.22 332.86 324.78 338.22 C 320.34 343.57 317.01 346.36 309.63 352.63 C 302.26 358.90 285.38 371.96 280.53 375.82" fill="none" stroke="#fff" stroke-width="4.48" stroke-opacity="1" stroke-linecap="round" stroke-linejoin="round"/>
  </g>
</svg>