<?xml version="1.0" encoding="UTF-8"?>
<svg xmlns="http://www.w3.org/2000/svg" width="512" height="512" viewBox="0 0 512 512">
  <rect width="100%" height="100%" fill="#000"/>
  <g>
    <path d="M 256.00 256.00 C 254.89 252.84 250.83 243.48 249.37 237.03 C 247.90 230.58 246.68 223.70 247.23 217.30 C 247.78 210.90 250.01 203.95 252.69 198.62 C 255.37 193.28 259.20 189.13 263.32 185.28 C 267.43 181.44 271.82 177.94 277.38 175.56 C 282.94 173.19 290.64 171.69 296.66 171.03 C 302.68 170.37 307.57 170.41 313.50 171.62 C 319.43 172.83 326.76 175.95 332.23 178.28 C 337.69 180.61 341.89 182.99 346.32 185.60 C 350.74 188.20 354.15 190.88 358.79 193.91 C 363.43 196.94 369.66 201.12 374.17 203.78 C 378.68 206.43 382.21 207.98 385.86 209.84 C 389.51 211.71 392.29 213.86 396.09 214.98 C 399.90 216.09 404.84 216.01 408.71 216.53 C 412.57 217.06 415.99 217.99 419.28 218.12 C 422.57 218.26 425.76 217.96 428.45 217.33 C 431.14 216.70 433.63 215.30 435.42 214.36 C 437.22 213.42 437.27 212.53 439.23 211.68 C 441.19 210.83 444.85 209.97 447.18 209.27 C 449.51 208.56 451.16 207.62 453.22 207.46 C 455.29 207.29 457.55 207.85 459.57 208.27 C 461.59 208.69 463.68 209.27 465.34 209.97 C 467.00 210.67 468.22 210.98 469.54 212.48 C 470.87 213.97 472.19 216.48 473.29 218.96 C 474.39 221.44 475.58 224.08 476.17 227.34 C 476.75 230.60 476.90 233.83 476.81 238.52 C 476.72 243.20 476.55 249.82 475.63 255.45 C 474.70 261.07 473.36 266.59 471.24 272.25 C 469.12 277.91 466.43 283.31 462.89 289.42 C 459.36 295.53 453.98 303.04 450.04 308.92 C 446.09 314.81 443.17 319.03 439.22 324.75 C 435.27 330.46 430.38 338.12 426.34 343.23 C 422.30 348.33 418.24 351.28 414.98 355.38 C 411.73 359.49 409.34 363.42 406.81 367.87 C 404.28 372.31 401.44 378.05 399.78 382.03 C 398.12 386.02 397.38 388.80 396.84 391.80 C 396.31 394.80 396.00 397.54 396.58 400.03 C 397.16 402.52 398.58 405.69 400.34 406.74 C 402.11 407.79 404.43 407.36 407.18 406.32 C 409.93 405.27 413.96 403.59 416.84 400.49 C 419.73 397.39 422.52 392.37 424.48 387.70 C 426.45 383.02 427.12 378.78 428.63 372.44 C 430.14 366.09 432.66 356.95 433.55 349.64 C 434.43 342.33 435.07 336.78 433.95 328.57 C 432.82 320.36 430.16 308.78 426.80 300.39 C 423.44 292.01 418.69 285.04 413.77 278.26 C 408.84 271.47 403.78 265.99 397.23 259.69 C 390.69 253.38 382.44 245.58 374.50 240.43 C 366.57 235.27 358.03 231.68 349.62 228.74 C 341.21 225.80 332.97 223.70 324.03 222.80 C 315.09 221.90 304.43 221.82 295.98 223.35 C 287.54 224.88 280.55 228.24 273.37 231.98 C 266.18 235.72 258.14 240.57 252.86 245.81 C 247.58 251.05 244.66 257.67 241.70 263.42 C 238.74 269.16 236.22 273.97 235.09 280.28 C 233.97 286.59 234.23 295.22 234.94 301.25 C 235.65 307.28 236.92 311.76 239.35 316.47 C 241.78 321.18 245.16 325.70 249.54 329.51 C 253.91 333.32 260.25 336.72 265.61 339.32 C 270.97 341.93 275.83 344.14 281.70 345.14 C 287.56 346.14 294.96 346.26 300.79 345.33 C 306.62 344.41 311.58 342.04 316.69 339.56 C 321.79 337.09 326.65 334.77 331.43 330.48 C 336.21 326.20 341.89 319.55 345.35 313.87 C 348.81 308.19 350.71 302.83 352.20 296.40 C 353.69 289.97 355.05 282.63 354.29 275.31 C 353.52 267.99 350.49 259.20 347.60 252.47 C 344.72 245.74 341.71 240.50 336.96 234.93 C 332.21 229.36 325.21 223.20 319.10 219.03 C 313.00 214.87 306.78 212.48 300.32 209.95 C 293.86 207.41 287.61 204.82 280.33 203.81 C 273.06 202.81 263.67 203.61 256.65 203.94 C 249.64 204.27 244.18 205.16 238.25 205.78 C 232.31 206.41 226.88 207.11 221.02 207.67 C 215.17 208.23 208.97 209.11 203.12 209.14 C 197.27 209.16 191.59 208.53 185.93 207.80 C 180.26 207.08 174.19 205.83 169.14 204.79 C 164.09 203.76 159.46 203.08 155.63 201.59 C 151.80 200.09 148.65 198.46 146.14 195.83 C 143.63 193.20 142.49 189.16 140.58 185.82 C 138.67 182.48 135.80 179.60 134.67 175.78 C 133.54 171.95 133.53 167.34 133.80 162.84 C 134.07 158.35 135.42 152.85 136.28 148.80 C 137.14 144.75 138.38 142.48 138.95 138.52 C 139.52 134.57 139.56 128.82 139.68 125.08 C 139.79 121.35 139.84 118.92 139.61 116.12 C 139.38 113.32 139.15 110.74 138.29 108.29 C 137.43 105.84 135.32 103.61 134.44 101.45 C 133.57 99.28 133.34 97.43 133.03 95.32 C 132.73 93.21 132.73 91.00 132.62 88.78 C 132.50 86.55 131.62 84.09 132.33 81.99 C 133.05 79.90 134.56 78.65 136.91 76.22 C 139.27 73.79 143.04 69.80 146.45 67.40 C 149.86 65.01 152.98 63.65 157.35 61.85 C 161.72 60.05 166.30 57.71 172.68 56.58 C 179.06 55.46 188.46 54.67 195.63 55.11 C 202.79 55.55 207.84 56.71 215.67 59.23 C 223.50 61.75 234.55 65.86 242.59 70.22 C 250.63 74.58 257.57 79.16 263.89 85.39 C 270.21 91.61 275.48 99.01 280.52 107.60 C 285.55 116.18 291.28 127.50 294.10 136.87 C 296.91 146.24 297.43 155.13 297.40 163.83 C 297.38 172.54 296.11 180.16 293.96 189.10 C 291.82 198.04 287.51 209.47 284.54 217.47 C 281.58 225.48 279.72 230.33 276.19 237.15 C 272.65 243.97 267.58 252.19 263.35 258.39 C 259.12 264.58 254.72 269.64 250.79 274.31 C 246.85 278.97 243.81 281.33 239.75 286.36 C 235.69 291.39 229.77 299.14 226.45 304.50 C 223.12 309.85 221.75 313.82 219.80 318.50 C 217.85 323.17 216.03 327.50 214.74 332.56 C 213.45 337.62 212.44 343.99 212.06 348.85 C 211.69 353.71 211.70 357.29 212.48 361.73 C 213.26 366.17 214.82 371.23 216.75 375.51 C 218.69 379.80 221.35 383.90 224.08 387.46 C 226.82 391.03 229.00 393.92 233.14 396.89 C 237.27 399.87 244.12 403.27 248.90 405.34 C 253.68 407.41 256.17 408.78 261.82 409.30 C 267.48 409.82 276.45 409.36 282.83 408.46 C 289.21 407.56 294.43 405.46 300.12 403.89 C 305.82 402.32 311.30 401.20 317.00 399.04 C 322.71 396.88 329.16 392.98 334.35 390.92 C 339.55 388.85 344.04 388.12 348.18 386.65 C 352.33 385.17 355.25 383.92 359.23 382.08 C 363.21 380.23 368.32 377.05 372.06 375.60 C 375.80 374.16 378.35 373.54 381.68 373.39 C 385.01 373.24 389.33 374.01 392.04 374.69 C 394.75 375.36 396.16 375.93 397.93 377.43 C 399.71 378.93 401.31 381.53 402.69 383.69 C 404.07 385.85 405.61 388.19 406.22 390.37 C 406.83 392.56 406.71 394.50 406.35 396.78 C 405.98 399.07 405.53 401.06 404.02 404.07 C 402.51 407.08 399.74 411.86 397.29 414.85 C 394.83 417.84 392.90 419.51 389.29 422.02 C 385.68 424.52 380.05 427.52 375.63 429.90 C 371.20 432.28 367.14 434.09 362.75 436.29 C 358.35 438.50 354.13 441.02 349.23 443.12 C 344.33 445.21 337.64 446.49 333.34 448.85 C 329.05 451.21 326.23 455.19 323.44 457.30 C 320.65 459.40 318.57 459.51 316.59 461.47 C 314.60 463.43 312.57 466.70 311.52 469.05 C 310.47 471.41 310.27 474.11 310.29 475.58 C 310.31 477.05 310.53 477.02 311.63 477.88 C 312.74 478.74 314.62 479.87 316.92 480.72 C 319.22 481.58 322.51 482.87 325.43 483.00 C 328.35 483.13 331.42 482.29 334.45 481.52 C 337.48 480.75 340.24 479.44 343.61 478.40 C 346.97 477.36 351.15 476.52 354.63 475.29 C 358.12 474.06 361.40 472.07 364.54 471.02 C 367.67 469.98 370.43 469.86 373.45 469.02 C 376.48 468.17 380.15 466.66 382.68 465.95 C 385.22 465.25 386.58 465.19 388.67 464.78 C 390.76 464.38 392.60 464.35 395.22 463.53 C 397.85 462.72 401.77 460.99 404.44 459.88 C 407.12 458.77 408.81 458.44 411.25 456.89 C 413.69 455.35 416.91 452.20 419.07 450.60 C 421.24 449.01 421.97 448.77 424.24 447.32 C 426.51 445.86 429.68 443.71 432.70 441.87 C 435.71 440.04 439.97 438.11 442.33 436.31 C 444.68 434.51 445.63 432.25 446.85 431.08 C 448.07 429.92 448.52 429.93 449.64 429.33 C 450.76 428.74 452.41 427.73 453.58 427.51 C 454.74 427.30 455.68 428.07 456.64 428.05 C 457.60 428.03 458.62 427.68 459.33 427.40 C 460.04 427.12 460.10 427.07 460.90 426.38 C 461.71 425.68 462.89 425.29 464.15 423.24 C 465.41 421.20 466.90 417.16 468.45 414.10 C 470.00 411.05 471.75 408.30 473.47 404.91 C 475.19 401.52 477.25 398.46 478.77 393.74 C 480.30 389.03 481.68 382.73 482.64 376.63 C 483.59 370.53 484.39 364.43 484.51 357.14 C 484.62 349.85 484.41 340.46 483.34 332.89 C 482.27 325.31 480.48 318.70 478.09 311.70 C 475.71 304.70 473.15 298.46 469.02 290.87 C 464.90 283.28 458.82 273.32 453.35 266.16 C 447.87 259.01 442.64 253.49 436.18 247.95 C 429.73 242.42 423.16 237.90 414.62 232.93 C 406.08 227.97 394.37 221.44 384.96 218.16 C 375.55 214.89 367.89 214.36 358.16 213.27 C 348.43 212.19 335.61 211.77 326.57 211.65 C 317.53 211.54 311.02 211.30 303.94 212.58 C 296.85 213.85 291.16 216.68 284.08 219.30 C 277.01 221.92 268.14 225.69 261.49 228.30 C 254.84 230.90 249.99 232.25 244.20 234.94 C 238.40 237.62 232.53 240.53 226.73 244.42 C 220.92 248.30 214.62 253.98 209.36 258.26 C 204.10 262.53 199.00 265.25 195.17 270.07 C 191.33 274.88 188.71 282.03 186.34 287.15 C 183.96 292.26 182.10 296.08 180.92 300.76 C 179.75 305.43 179.88 309.96 179.29 315.18 C 178.69 320.41 177.81 326.91 177.34 332.10 C 176.87 337.29 176.68 341.63 176.45 346.30 C 176.22 350.96 176.20 356.18 175.96 360.07 C 175.72 363.96 176.34 366.79 175.00 369.62 C 173.67 372.45 170.97 374.57 167.95 377.04 C 164.93 379.51 159.72 382.15 156.88 384.44 C 154.03 386.73 153.23 388.70 150.89 390.75 C 148.54 392.80 145.18 394.77 142.82 396.74 C 140.46 398.71 138.30 400.49 136.74 402.59 C 135.17 404.68 134.42 406.90 133.44 409.33 C 132.45 411.75 130.77 414.72 130.83 417.14 C 130.90 419.56 132.40 421.39 133.84 423.84 C 135.28 426.30 136.36 429.29 139.49 431.88 C 142.61 434.47 148.06 436.94 152.60 439.38 C 157.15 441.82 161.70 444.62 166.77 446.52 C 171.84 448.41 176.84 449.62 183.01 450.74 C 189.19 451.86 197.67 452.65 203.81 453.25 C 209.95 453.84 214.03 453.49 219.83 454.30 C 225.63 455.11 233.40 457.03 238.61 458.11 C 243.82 459.19 247.54 459.79 251.09 460.78 C 254.64 461.76 257.16 462.62 259.92 464.03 C 262.68 465.45 265.88 467.70 267.66 469.27 C 269.44 470.83 270.48 472.25 270.61 473.42 C 270.74 474.59 270.13 475.36 268.45 476.30 C 266.76 477.23 263.75 478.34 260.51 479.03 C 257.27 479.71 253.73 480.70 249.03 480.41 C 244.33 480.13 237.61 478.72 232.31 477.31 C 227.01 475.89 222.34 473.84 217.25 471.93 C 212.16 470.03 207.14 468.08 201.77 465.88 C 196.40 463.67 189.89 460.50 185.01 458.70 C 180.12 456.90 176.16 455.97 172.46 455.09 C 168.75 454.21 166.05 453.69 162.78 453.40 C 159.51 453.11 155.60 453.20 152.82 453.34 C 150.03 453.48 147.96 453.62 146.08 454.25 C 144.20 454.87 142.33 456.00 141.53 457.08 C 140.73 458.16 141.19 459.05 141.30 460.73 C 141.41 462.40 140.86 465.21 142.19 467.14 C 143.52 469.06 146.23 470.46 149.28 472.28 C 152.34 474.09 155.63 476.26 160.51 478.02 C 165.40 479.78 172.55 482.08 178.57 482.82 C 184.60 483.56 190.60 483.42 196.65 482.46 C 202.69 481.51 207.43 479.55 214.84 477.10 C 222.26 474.65 233.09 471.64 241.14 467.76 C 249.20 463.88 256.33 458.97 263.15 453.83 C 269.97 448.69 276.00 443.75 282.08 436.93 C 288.16 430.11 294.61 420.57 299.64 412.93 C 304.66 405.29 308.76 399.89 312.20 391.11 C 315.65 382.34 317.69 369.33 320.32 360.29 C 322.94 351.26 326.00 344.68 327.95 336.90 C 329.90 329.12 330.77 321.82 332.01 313.60 C 333.26 305.39 334.39 295.13 335.40 287.63 C 336.41 280.13 336.82 274.77 338.09 268.59 C 339.36 262.40 341.12 256.50 343.02 250.53 C 344.92 244.56 347.50 237.92 349.50 232.79 C 351.50 227.65 352.75 223.89 355.02 219.70 C 357.30 215.51 360.83 211.39 363.17 207.62 C 365.51 203.85 366.94 199.75 369.08 197.06 C 371.21 194.38 373.15 193.42 376.00 191.50 C 378.85 189.58 383.08 186.95 386.18 185.54 C 389.27 184.14 391.56 183.45 394.57 183.08 C 397.58 182.70 400.77 182.59 404.24 183.28 C 407.72 183.97 411.99 185.81 415.40 187.22 C 418.81 188.64 421.52 189.16 424.71 191.78 C 427.90 194.40 432.21 199.42 434.56 202.96 C 436.92 206.49 437.78 209.06 438.85 212.99 C 439.93 216.92 440.05 221.01 441.01 226.55 C 441.97 232.08 444.21 240.15 444.60 246.22 C 444.99 252.28 444.32 257.56 443.37 262.94 C 442.42 268.33 441.04 272.77 438.90 278.53 C 436.77 284.28 433.34 291.27 430.56 297.46 C 427.78 303.65 425.24 309.62 422.21 315.68 C 419.17 321.73 415.50 328.54 412.36 333.80 C 409.21 339.07 405.90 343.00 403.33 347.25 C 400.76 351.50 399.42 355.08 396.93 359.30 C 394.45 363.52 390.43 368.69 388.41 372.57 C 386.39 376.45 385.87 378.70 384.78 382.57 C 383.70 386.43 382.55 392.23 381.88 395.77 C 381.21 399.32 380.51 401.65 380.77 403.86 C 381.02 406.07 382.35 407.18 383.42 409.03 C 384.48 410.88 385.11 414.18 387.17 414.96 C 389.24 415.74 392.65 414.38 395.81 413.70 C 398.97 413.02 402.49 413.37 406.11 410.88 C 409.72 408.38 414.00 403.30 417.50 398.72 C 421.01 394.13 424.67 389.67 427.13 383.37 C 429.58 377.08 431.41 368.39 432.22 360.94 C 433.03 353.50 432.47 346.11 432.00 338.69 C 431.53 331.28 430.30 324.68 429.40 316.45 C 428.50 308.22 427.83 297.11 426.61 289.30 C 425.39 281.50 423.21 276.30 422.08 269.62 C 420.96 262.93 420.38 255.78 419.86 249.20 C 419.34 242.62 418.93 235.54 418.96 230.14 C 418.98 224.74 419.13 221.35 420.00 216.78 C 420.87 212.21 423.10 206.54 424.19 202.72 C 425.28 198.91 425.32 195.91 426.55 193.90 C 427.78 191.88 429.33 191.18 431.56 190.62 C 433.78 190.07 437.48 189.73 439.91 190.57 C 442.34 191.42 444.01 193.57 446.15 195.71 C 448.28 197.85 450.80 199.73 452.73 203.41 C 454.65 207.09 456.55 212.87 457.71 217.77 C 458.87 222.68 460.21 226.98 459.68 232.85 C 459.16 238.72 456.04 246.84 454.58 252.98 C 453.11 259.11 452.46 263.96 450.90 269.65 C 449.34 275.33 447.65 280.80 445.24 287.07 C 442.83 293.35 439.24 301.36 436.44 307.28 C 433.64 313.20 431.02 317.60 428.42 322.61 C 425.81 327.63 423.25 332.11 420.81 337.35 C 418.37 342.60 415.63 349.20 413.80 354.11 C 411.96 359.01 411.39 362.55 409.81 366.77 C 408.23 370.99 406.05 375.26 404.30 379.43 C 402.55 383.60 401.45 388.05 399.34 391.77 C 397.23 395.49 394.34 398.35 391.64 401.75 C 388.95 405.14 385.95 409.15 383.16 412.15 C 380.37 415.15 377.95 416.87 374.91 419.75 C 371.87 422.62 367.67 426.54 364.91 429.41 C 362.16 432.29 359.87 434.35 358.36 436.98 C 356.84 439.61 356.25 442.72 355.81 445.20 C 355.37 447.68 355.31 450.15 355.74 451.85 C 356.17 453.55 356.70 454.83 358.40 455.41 C 360.09 455.98 362.50 455.79 365.90 455.29 C 369.30 454.79 375.03 454.13 378.79 452.41 C 382.55 450.70 384.82 448.39 388.46 445.00 C 392.11 441.61 397.10 436.75 400.66 432.08 C 404.23 427.41 406.97 422.60 409.88 416.98 C 412.78 411.36 415.97 405.67 418.08 398.37 C 420.19 391.06 421.51 381.17 422.52 373.14 C 423.54 365.12 424.13 357.90 424.20 350.20 C 424.26 342.51 424.22 335.29 422.93 326.97 C 421.63 318.64 418.88 308.27 416.45 300.25 C 414.02 292.23 411.50 286.64 408.37 278.87 C 405.23 271.10 401.23 261.15 397.66 253.61 C 394.10 246.08 390.75 239.84 386.98 233.65 C 383.22 227.45 379.10 222.77 375.07 216.46 C 371.04 210.16 366.34 201.86 362.80 195.80 C 359.27 189.74 356.57 185.00 353.88 180.11 C 351.19 175.22 348.79 171.65 346.67 166.46 C 344.55 161.26 342.29 153.75 341.16 148.93 C 340.03 144.10 340.08 141.25 339.90 137.48 C 339.73 133.71 339.30 129.27 340.11 126.31 C 340.93 123.36 342.42 121.32 344.80 119.75 C 347.17 118.17 350.43 117.33 354.37 116.85 C 358.31 116.38 364.27 115.83 368.45 116.89 C 372.64 117.94 375.92 120.64 379.48 123.19 C 383.04 125.73 386.26 127.74 389.83 132.16 C 393.41 136.58 398.14 143.85 400.93 149.71 C 403.72 155.58 405.11 160.49 406.59 167.35 C 408.06 174.20 409.26 183.34 409.78 190.85 C 410.30 198.36 409.76 205.62 409.69 212.40 C 409.62 219.18 409.63 224.68 409.39 231.55 C 409.15 238.42 408.81 246.79 408.24 253.62 C 407.66 260.46 406.50 266.22 405.95 272.57 C 405.41 278.91 405.13 286.14 404.98 291.68 C 404.82 297.23 404.72 301.38 405.02 305.85 C 405.32 310.32 406.36 314.26 406.76 318.49 C 407.15 322.73 406.70 328.12 407.38 331.27 C 408.06 334.42 409.26 335.50 410.84 337.39 C 412.42 339.28 414.39 341.23 416.85 342.60 C 419.30 343.96 423.07 345.21 425.55 345.59 C 428.04 345.97 429.26 345.46 431.75 344.88 C 434.24 344.30 437.80 343.61 440.51 342.11 C 443.22 340.61 445.45 338.42 448.03 335.89 C 450.62 333.36 453.85 330.61 456.01 326.94 C 458.17 323.28 459.53 318.30 460.99 313.90 C 462.44 309.49 464.00 305.20 464.73 300.51 C 465.45 295.82 465.05 291.42 465.34 285.77 C 465.63 280.13 466.51 272.92 466.47 266.65 C 466.43 260.37 466.46 254.84 465.11 248.13 C 463.76 241.42 461.54 233.10 458.39 226.38 C 455.23 219.65 450.65 213.36 446.18 207.78 C 441.72 202.19 437.62 198.16 431.62 192.86 C 425.62 187.57 417.48 180.12 410.19 176.00 C 402.90 171.88 395.69 170.09 387.87 168.14 C 380.06 166.19 372.65 164.89 363.28 164.32 C 353.91 163.75 341.03 164.08 331.67 164.72 C 322.31 165.37 315.61 165.23 307.11 168.18 C 298.61 171.13 288.00 177.42 280.68 182.41 C 273.36 187.41 268.11 192.38 263.20 198.15 C 258.29 203.92 254.70 209.63 251.22 217.05 C 247.73 224.47 244.10 235.35 242.28 242.66 C 240.46 249.98 241.05 254.92 240.30 260.95 C 239.54 266.99 238.13 272.28 237.74 278.89 C 237.36 285.50 237.63 294.27 237.97 300.63 C 238.32 306.98 239.57 311.21 239.82 317.02 C 240.06 322.83 239.62 330.34 239.44 335.46 C 239.26 340.59 239.67 343.72 238.73 347.77 C 237.79 351.82 235.59 355.46 233.82 359.75 C 232.05 364.03 230.27 369.74 228.09 373.47 C 225.92 377.19 223.65 378.99 220.76 382.09 C 217.87 385.19 214.00 389.44 210.74 392.07 C 207.48 394.71 204.74 396.48 201.19 397.88 C 197.64 399.28 193.95 400.60 189.44 400.48 C 184.93 400.37 179.01 399.15 174.12 397.20 C 169.24 395.25 164.59 392.45 160.11 388.79 C 155.63 385.14 151.25 381.00 147.26 375.27 C 143.26 369.54 138.58 361.72 136.13 354.43 C 133.67 347.14 132.87 339.81 132.53 331.52 C 132.19 323.22 132.60 312.86 134.07 304.65 C 135.53 296.45 137.77 289.49 141.33 282.31 C 144.88 275.12 149.68 268.55 155.40 261.54 C 161.12 254.53 169.32 245.81 175.67 240.24 C 182.02 234.66 187.40 232.27 193.49 228.10 C 199.57 223.94 205.26 219.69 212.15 215.24 C 219.04 210.80 228.26 205.34 234.82 201.45 C 241.39 197.56 246.36 195.52 251.54 191.91 C 256.72 188.30 262.13 183.89 265.90 179.79 C 269.67 175.70 271.31 171.18 274.14 167.34 C 276.98 163.50 279.81 160.53 282.91 156.74 C 286.00 152.94 289.78 148.20 292.70 144.58 C 295.63 140.96 297.88 138.09 300.46 134.99 C 303.04 131.90 305.08 128.42 308.20 126.01 C 311.32 123.60 315.84 122.09 319.20 120.55 C 322.55 119.01 324.39 117.76 328.34 116.77 C 332.28 115.79 338.50 114.72 342.88 114.62 C 347.25 114.52 350.72 115.06 354.59 116.18 C 358.47 117.30 362.09 118.84 366.14 121.36 C 370.18 123.89 374.88 128.31 378.85 131.35 C 382.82 134.38 386.31 136.35 389.96 139.59 C 393.61 142.83 397.35 146.37 400.77 150.76 C 404.18 155.15 407.58 161.59 410.43 165.93 C 413.27 170.26 415.23 172.84 417.84 176.78 C 420.45 180.73 423.76 186.05 426.08 189.58 C 428.39 193.11 429.76 195.69 431.75 197.96 C 433.74 200.23 435.59 201.85 438.02 203.20 C 440.45 204.55 443.80 205.73 446.33 206.06 C 448.86 206.39 451.06 205.87 453.23 205.17 C 455.39 204.46 457.67 203.25 459.32 201.84 C 460.96 200.42 462.37 199.01 463.09 196.68 C 463.81 194.34 463.90 191.48 463.65 187.82 C 463.41 184.16 462.88 179.21 461.60 174.74 C 460.33 170.28 458.77 165.52 456.00 161.01 C 453.23 156.51 450.23 152.46 444.99 147.73 C 439.74 142.99 431.27 136.64 424.53 132.60 C 417.78 128.55 412.34 126.14 404.54 123.43 C 396.74 120.73 386.03 118.07 377.74 116.37 C 369.46 114.66 362.33 113.95 354.81 113.20 C 347.29 112.44 340.83 111.95 332.62 111.83 C 324.40 111.71 313.25 112.46 305.54 112.47 C 297.84 112.47 292.84 112.09 286.39 111.84 C 279.93 111.59 273.47 110.39 266.84 110.95 C 260.22 111.51 252.66 113.54 246.64 115.19 C 240.63 116.84 237.18 118.38 230.74 120.83 C 224.30 123.29 214.39 126.65 207.99 129.93 C 201.58 133.20 197.20 136.22 192.29 140.49 C 187.39 144.76 182.74 149.62 178.56 155.55 C 174.38 161.48 170.44 169.28 167.22 176.07 C 164.00 182.87 161.15 189.43 159.23 196.34 C 157.30 203.25 155.29 209.75 155.67 217.55 C 156.06 225.35 159.02 235.42 161.54 243.12 C 164.05 250.83 166.35 257.11 170.78 263.77 C 175.21 270.42 182.10 278.17 188.12 283.06 C 194.15 287.95 200.27 290.82 206.91 293.11 C 213.55 295.40 220.40 296.53 227.96 296.80 C 235.53 297.07 245.21 296.44 252.31 294.75 C 259.41 293.06 264.89 289.86 270.56 286.68 C 276.24 283.49 282.09 281.00 286.37 275.65 C 290.65 270.29 294.43 261.10 296.24 254.55 C 298.06 248.00 298.12 242.95 297.27 236.36 C 296.43 229.76 294.09 221.18 291.16 214.96 C 288.22 208.74 283.92 203.40 279.67 199.03 C 275.42 194.66 271.31 191.88 265.64 188.75 C 259.96 185.62 251.27 182.71 245.65 180.27 C 240.03 177.83 236.90 176.09 231.91 174.09 C 226.93 172.09 220.90 170.31 215.74 168.28 C 210.59 166.25 205.71 163.85 200.98 161.89 C 196.25 159.93 191.78 158.57 187.37 156.52 C 182.95 154.47 177.75 151.62 174.49 149.58 C 171.24 147.54 169.89 146.58 167.85 144.27 C 165.82 141.95 163.26 139.12 162.28 135.71 C 161.30 132.29 161.26 127.52 161.96 123.79 C 162.66 120.05 164.36 117.09 166.47 113.29 C 168.58 109.50 171.69 104.65 174.61 101.00 C 177.53 97.35 179.96 93.85 183.99 91.40 C 188.01 88.95 192.92 87.38 198.76 86.30 C 204.59 85.22 212.23 84.53 219.02 84.91 C 225.80 85.28 232.68 86.84 239.45 88.55 C 246.22 90.26 252.41 92.10 259.64 95.16 C 266.88 98.21 276.18 103.20 282.85 106.89 C 289.53 110.58 293.64 113.57 299.68 117.31 C 305.72 121.05 313.31 125.89 319.08 129.30 C 324.84 132.71 329.66 135.58 334.28 137.76 C 338.91 139.95 342.58 141.35 346.83 142.41 C 351.08 143.46 356.24 144.32 359.76 144.09 C 363.29 143.86 365.41 142.12 367.99 141.01 C 370.56 139.91 373.28 139.53 375.22 137.48 C 377.16 135.43 378.63 131.60 379.61 128.72 C 380.58 125.83 381.51 123.47 381.07 120.17 C 380.64 116.86 378.61 112.37 377.01 108.89 C 375.41 105.42 373.98 102.39 371.49 99.30 C 368.99 96.21 366.61 93.02 362.02 90.35 C 357.44 87.67 349.98 85.36 343.99 83.26 C 337.99 81.15 332.00 78.70 326.07 77.70 C 320.14 76.69 315.43 76.44 308.41 77.21 C 301.39 77.98 291.77 80.18 283.94 82.29 C 276.12 84.41 269.12 86.63 261.44 89.88 C 253.77 93.12 244.89 97.26 237.90 101.76 C 230.92 106.26 225.05 111.23 219.54 116.86 C 214.04 122.48 209.98 128.28 204.88 135.50 C 199.78 142.72 193.08 152.64 188.95 160.18 C 184.81 167.73 182.13 173.00 180.05 180.79 C 177.98 188.59 177.04 198.99 176.48 206.95 C 175.92 214.91 176.03 221.25 176.69 228.54 C 177.35 235.83 178.11 243.03 180.45 250.71 C 182.78 258.39 187.43 267.88 190.71 274.64 C 193.99 281.40 196.62 286.28 200.14 291.28 C 203.66 296.27 207.77 299.63 211.82 304.61 C 215.86 309.59 220.63 316.49 224.41 321.17 C 228.19 325.85 231.07 328.34 234.49 332.72 C 237.91 337.09 242.08 342.84 244.92 347.43 C 247.75 352.02 249.37 356.34 251.52 360.23 C 253.67 364.12 256.13 366.67 257.81 370.77 C 259.50 374.87 261.10 381.09 261.63 384.82 C 262.17 388.56 261.50 390.20 261.01 393.20 C 260.51 396.20 259.41 399.21 258.66 402.83 C 257.91 406.44 257.06 411.47 256.50 414.91 C 255.94 418.35 255.20 420.29 255.29 423.47 C 255.37 426.65 256.30 431.01 257.00 433.99 C 257.70 436.96 258.11 439.07 259.47 441.30 C 260.83 443.53 262.45 445.66 265.18 447.37 C 267.91 449.07 272.33 450.59 275.85 451.54 C 279.37 452.48 282.97 452.47 286.29 453.03 C 289.60 453.59 291.97 454.61 295.76 454.89 C 299.56 455.18 305.32 454.66 309.07 454.76 C 312.81 454.87 315.19 454.99 318.22 455.53 C 321.25 456.08 324.66 457.18 327.25 458.05 C 329.85 458.92 331.72 459.69 333.81 460.75 C 335.90 461.82 337.54 463.70 339.77 464.45 C 342.00 465.20 344.99 465.12 347.20 465.26 C 349.42 465.40 350.70 465.74 353.08 465.29 C 355.47 464.84 358.40 463.40 361.52 462.55 C 364.65 461.69 368.82 461.30 371.83 460.15 C 374.85 459.00 376.67 457.07 379.58 455.65 C 382.49 454.23 386.82 452.42 389.29 451.63 C 391.75 450.85 392.75 451.03 394.35 450.96 C 395.96 450.88 397.80 450.64 398.90 451.19 C 400.01 451.73 400.76 453.12 401.01 454.22 C 401.25 455.32 401.65 456.16 400.38 457.80 C 399.11 459.45 396.39 462.19 393.40 464.11 C 390.40 466.03 386.59 467.87 382.40 469.33 C 378.22 470.79 374.24 472.29 368.29 472.87 C 362.34 473.45 353.90 473.26 346.69 472.81 C 339.47 472.35 332.00 471.36 325.02 470.12 C 318.05 468.88 312.27 466.96 304.84 465.36 C 297.40 463.76 287.92 462.39 280.41 460.50 C 272.91 458.62 266.74 456.32 259.81 454.03 C 252.88 451.75 245.15 449.00 238.82 446.80 C 232.50 444.60 227.05 442.66 221.87 440.82 C 216.69 438.98 212.59 437.27 207.75 435.74 C 202.90 434.22 197.17 432.58 192.81 431.66 C 188.46 430.74 185.00 430.49 181.62 430.23 C 178.24 429.97 175.49 429.40 172.53 430.11 C 169.57 430.81 166.24 433.30 163.86 434.45 C 161.48 435.60 159.83 435.59 158.23 437.02 C 156.63 438.45 155.88 441.56 154.24 443.05 C 152.60 444.53 150.11 444.99 148.41 445.93 C 146.70 446.86 146.12 448.48 144.02 448.66 C 141.93 448.85 138.47 447.47 135.86 447.04 C 133.25 446.61 130.93 446.50 128.38 446.08 C 125.82 445.66 123.16 445.01 120.53 444.52 C 117.91 444.03 114.89 443.60 112.63 443.16 C 110.37 442.73 108.65 442.11 106.98 441.91 C 105.31 441.71 103.36 441.44 102.62 441.98 C 101.88 442.52 102.14 444.00 102.52 445.14 C 102.91 446.27 103.76 447.22 104.93 448.80 C 106.10 450.38 107.46 452.63 109.54 454.63 C 111.63 456.63 114.51 458.76 117.45 460.82 C 120.39 462.87 122.88 464.95 127.19 466.96 C 131.51 468.97 138.08 471.34 143.35 472.88 C 148.62 474.42 153.40 474.89 158.81 476.18 C 164.22 477.48 170.51 479.35 175.79 480.66 C 181.07 481.97 186.05 483.17 190.48 484.03 C 194.90 484.88 198.75 484.90 202.32 485.79 C 205.90 486.68 209.69 487.94 211.95 489.35 C 214.21 490.77 214.75 492.83 215.89 494.28 C 217.03 495.73 217.39 496.90 218.80 498.04 C 220.20 499.18 222.21 500.50 224.33 501.14 C 226.44 501.78 228.49 501.28 231.48 501.89 C 234.47 502.49 238.82 504.47 242.28 504.76 C 245.74 505.06 249.12 503.81 252.23 503.66 C 255.35 503.51 257.32 504.10 260.95 503.88 C 264.58 503.65 270.57 502.49 274.03 502.33 C 277.48 502.17 278.95 502.69 281.68 502.93 C 284.40 503.17 288.21 503.50 290.36 503.75 C 292.50 504.01 293.39 503.84 294.54 504.47 C 295.69 505.10 296.65 506.50 297.27 507.53 C 297.88 508.56 298.65 509.91 298.25 510.64 C 297.85 511.37 296.29 512.96 294.86 511.91 C 293.44 510.86 291.39 513.14 289.69 504.35 C 287.99 495.57 285.76 472.04 284.65 459.19 C 283.53 446.35 283.13 438.60 283.01 427.30 C 282.89 415.99 283.12 401.97 283.93 391.39 C 284.74 380.80 286.12 372.50 287.88 363.80 C 289.65 355.11 291.63 347.03 294.52 339.21 C 297.40 331.39 301.38 322.96 305.19 316.90 C 308.99 310.83 313.22 306.81 317.37 302.82 C 321.51 298.83 325.55 296.17 330.04 292.95 C 334.54 289.73 339.66 286.32 344.36 283.49 C 349.05 280.66 353.39 278.95 358.22 275.96 C 363.04 272.97 369.47 268.96 373.32 265.54 C 377.16 262.12 378.40 258.98 381.29 255.43 C 384.17 251.88 387.60 248.42 390.61 244.25 C 393.62 240.09 397.32 234.50 399.35 230.44 C 401.38 226.37 401.47 223.14 402.79 219.85 C 404.11 216.55 405.21 213.45 407.28 210.67 C 409.35 207.89 412.60 205.59 415.21 203.17 C 417.82 200.76 420.69 198.79 422.93 196.19 C 425.16 193.59 426.98 190.11 428.63 187.59 C 430.28 185.07 431.42 182.92 432.83 181.06 C 434.24 179.21 436.01 178.97 437.11 176.46 C 438.22 173.95 439.20 168.99 439.45 165.99 C 439.71 162.99 439.22 161.88 438.65 158.45 C 438.08 155.02 437.74 149.33 436.04 145.40 C 434.33 141.48 431.21 138.39 428.44 134.89 C 425.67 131.39 423.98 128.22 419.41 124.39 C 414.84 120.56 407.08 115.19 401.02 111.91 C 394.97 108.63 389.68 106.31 383.08 104.72 C 376.49 103.13 369.69 102.62 361.46 102.36 C 353.23 102.09 342.25 101.95 333.71 103.12 C 325.17 104.29 318.76 105.78 310.24 109.39 C 301.71 113.00 290.08 119.18 282.58 124.78 C 275.08 130.37 270.03 136.40 265.26 142.96 C 260.49 149.52 257.89 156.02 253.97 164.14 C 250.05 172.26 244.76 183.57 241.71 191.66 C 238.67 199.75 237.25 205.60 235.71 212.69 C 234.17 219.79 233.76 226.65 232.48 234.22 C 231.20 241.78 229.54 251.26 228.04 258.07 C 226.55 264.88 225.42 269.28 223.49 275.08 C 221.56 280.87 219.03 287.34 216.49 292.84 C 213.95 298.33 211.21 303.67 208.26 308.04 C 205.30 312.42 202.87 315.87 198.76 319.09 C 194.65 322.31 188.27 325.33 183.59 327.38 C 178.90 329.43 175.04 330.58 170.63 331.39 C 166.23 332.19 161.94 333.01 157.14 332.19 C 152.34 331.37 146.26 328.84 141.83 326.47 C 137.39 324.10 134.13 321.69 130.53 317.96 C 126.94 314.24 122.92 309.17 120.23 304.13 C 117.54 299.09 115.79 293.46 114.39 287.72 C 112.99 281.98 112.29 276.21 111.82 269.69 C 111.36 263.17 110.97 255.41 111.58 248.59 C 112.19 241.76 114.29 234.82 115.48 228.76 C 116.68 222.69 117.32 218.10 118.72 212.19 C 120.13 206.28 122.32 198.60 123.92 193.27 C 125.52 187.94 126.69 185.02 128.32 180.21 C 129.96 175.41 132.35 169.48 133.72 164.45 C 135.09 159.41 136.21 154.02 136.55 150.02 C 136.89 146.03 136.84 143.30 135.74 140.48 C 134.65 137.65 132.16 134.67 129.98 133.09 C 127.81 131.51 125.43 131.40 122.71 130.98 C 119.99 130.56 116.94 130.30 113.66 130.54 C 110.38 130.78 106.18 131.50 103.03 132.40 C 99.88 133.30 97.60 135.19 94.77 135.94 C 91.95 136.68 88.68 136.35 86.09 136.87 C 83.49 137.38 81.66 138.44 79.21 139.01 C 76.76 139.59 73.72 140.29 71.40 140.33 C 69.09 140.37 67.40 139.72 65.32 139.24 C 63.25 138.76 61.08 137.81 58.97 137.46 C 56.85 137.10 54.29 136.79 52.63 137.11 C 50.98 137.43 50.50 138.17 49.06 139.36 C 47.61 140.55 45.75 142.27 43.97 144.28 C 42.18 146.29 40.07 148.65 38.36 151.42 C 36.64 154.19 34.96 157.21 33.66 160.89 C 32.36 164.57 31.25 167.97 30.55 173.50 C 29.84 179.03 29.07 187.74 29.45 194.09 C 29.83 200.43 30.69 204.52 32.82 211.56 C 34.94 218.61 38.95 228.93 42.19 236.34 C 45.43 243.75 48.27 249.52 52.26 256.02 C 56.24 262.52 61.34 268.44 66.09 275.32 C 70.83 282.21 76.02 290.98 80.72 297.33 C 85.42 303.68 89.63 308.35 94.31 313.45 C 98.98 318.55 103.92 322.55 108.78 327.92 C 113.65 333.29 119.00 340.63 123.50 345.66 C 128.00 350.69 131.00 353.92 135.76 358.10 C 140.52 362.28 146.44 367.16 152.07 370.76 C 157.71 374.37 163.62 377.25 169.59 379.73 C 175.56 382.21 181.56 383.72 187.90 385.64 C 194.25 387.56 201.26 390.08 207.68 391.26 C 214.09 392.44 220.32 392.21 226.41 392.71 C 232.49 393.21 237.92 393.60 244.21 394.28 C 250.49 394.96 258.51 395.94 264.14 396.79 C 269.76 397.64 273.27 398.41 277.96 399.37 C 282.65 400.33 288.29 401.22 292.25 402.56 C 296.22 403.91 298.82 405.69 301.73 407.44 C 304.63 409.19 306.68 410.95 309.68 413.08 C 312.69 415.22 316.74 418.34 319.74 420.27 C 322.74 422.21 324.76 423.59 327.67 424.68 C 330.58 425.78 333.50 426.22 337.20 426.86 C 340.89 427.51 345.82 428.92 349.86 428.56 C 353.91 428.19 357.35 426.10 361.46 424.65 C 365.56 423.20 370.42 421.56 374.48 419.85 C 378.55 418.14 382.24 416.86 385.84 414.39 C 389.44 411.93 392.54 408.86 396.07 405.07 C 399.60 401.28 403.85 396.25 407.02 391.65 C 410.19 387.06 412.75 382.99 415.10 377.51 C 417.45 372.03 419.64 365.06 421.12 358.77 C 422.61 352.47 423.77 346.47 424.02 339.75 C 424.27 333.03 423.78 326.60 422.62 318.42 C 421.46 310.25 419.46 298.68 417.08 290.69 C 414.70 282.71 411.62 277.21 408.34 270.51 C 405.06 263.81 401.64 257.40 397.40 250.48 C 393.16 243.55 387.02 235.28 382.90 228.95 C 378.79 222.61 376.34 218.43 372.71 212.48 C 369.07 206.53 364.41 198.94 361.10 193.22 C 357.79 187.49 355.39 182.82 352.86 178.12 C 350.32 173.42 348.57 169.82 345.89 165.03 C 343.21 160.24 340.06 153.82 336.76 149.36 C 333.45 144.91 330.09 141.68 326.08 138.29 C 322.07 134.89 318.27 131.75 312.69 128.98 C 307.12 126.21 298.68 123.12 292.62 121.68 C 286.57 120.24 281.96 121.31 276.37 120.36 C 270.77 119.41 264.40 117.01 259.04 115.97 C 253.67 114.93 249.10 115.21 244.17 114.14 C 239.24 113.07 234.42 111.37 229.44 109.53 C 224.46 107.68 217.99 104.81 214.29 103.08 C 210.59 101.35 209.08 101.00 207.25 99.16 C 205.42 97.32 204.01 94.93 203.32 92.02 C 202.62 89.12 202.25 84.63 203.09 81.73 C 203.92 78.82 205.57 77.23 208.30 74.59 C 211.04 71.95 215.29 67.92 219.50 65.87 C 223.71 63.82 228.52 63.16 233.56 62.28 C 238.60 61.41 243.77 60.36 249.74 60.65 C 255.72 60.94 263.12 62.20 269.41 64.01 C 275.70 65.81 281.52 68.42 287.48 71.50 C 293.45 74.58 299.25 77.39 305.20 82.49 C 311.15 87.58 317.97 95.99 323.18 102.06 C 328.38 108.12 332.02 112.53 336.44 118.88 C 340.87 125.23 345.41 133.63 349.73 140.14 C 354.06 146.66 358.40 152.30 362.40 157.99 C 366.40 163.68 370.00 169.56 373.75 174.29 C 377.50 179.02 381.20 183.12 384.91 186.38 C 388.62 189.64 392.05 191.75 396.00 193.86 C 399.95 195.96 404.93 197.67 408.62 199.03 C 412.30 200.39 415.08 200.80 418.13 202.01 C 421.17 203.22 423.87 205.06 426.91 206.29 C 429.94 207.52 433.40 208.30 436.32 209.38 C 439.24 210.47 442.20 211.86 444.44 212.78 C 446.68 213.70 447.75 213.90 449.74 214.92 C 451.72 215.94 454.23 218.24 456.34 218.90 C 458.45 219.56 460.63 218.85 462.41 218.89 C 464.19 218.93 465.45 220.13 467.04 219.12 C 468.63 218.11 470.68 214.86 471.93 212.84 C 473.19 210.82 473.55 209.10 474.58 207.01 C 475.60 204.91 477.12 202.27 478.10 200.27 C 479.08 198.27 479.52 196.35 480.45 195.00 C 481.38 193.65 482.31 192.64 483.66 192.18 C 485.01 191.72 487.19 192.17 488.55 192.23 C 489.91 192.29 490.55 191.56 491.80 192.53 C 493.06 193.50 495.03 195.83 496.08 198.04 C 497.13 200.26 497.45 202.88 498.12 205.83 C 498.78 208.78 499.94 211.07 500.07 215.74 C 500.21 220.41 499.97 228.12 498.93 233.84 C 497.89 239.56 496.26 244.23 493.85 250.06 C 491.44 255.89 488.61 262.23 484.48 268.83 C 480.36 275.44 473.34 283.32 469.10 289.70 C 464.86 296.08 463.20 301.09 459.03 307.11 C 454.85 313.13 448.01 320.42 444.04 325.82 C 440.08 331.22 437.83 335.05 435.22 339.49 C 432.61 343.92 430.84 347.90 428.39 352.44 C 425.94 356.97 422.68 362.41 420.53 366.71 C 418.38 371.00 417.60 374.59 415.46 378.18 C 413.33 381.78 411.01 384.63 407.73 388.29 C 404.45 391.95 399.65 396.77 395.79 400.14 C 391.93 403.52 389.37 405.61 384.56 408.54 C 379.76 411.46 372.68 415.46 366.94 417.70 C 361.21 419.94 355.88 420.92 350.15 421.98 C 344.41 423.03 339.74 423.93 332.53 424.04 C 325.33 424.15 314.83 423.91 306.92 422.61 C 299.02 421.32 292.90 419.97 285.12 416.28 C 277.34 412.59 267.28 406.02 260.25 400.48 C 253.22 394.95 248.03 389.53 242.95 383.07 C 237.87 376.62 233.86 369.76 229.77 361.75 C 225.67 353.75 220.80 343.33 218.38 335.06 C 215.97 326.78 215.17 319.64 215.26 312.08 C 215.35 304.52 216.59 297.65 218.93 289.71 C 221.26 281.77 225.48 271.55 229.24 264.44 C 233.00 257.33 236.51 252.37 241.49 247.05 C 246.48 241.72 252.98 235.75 259.14 232.47 C 265.30 229.19 272.12 228.67 278.46 227.37 C 284.80 226.07 290.97 224.49 297.17 224.69 C 303.37 224.90 310.21 226.85 315.67 228.62 C 321.13 230.39 325.43 233.09 329.93 235.30 C 334.43 237.51 338.16 238.92 342.68 241.86 C 347.20 244.80 353.14 249.73 357.07 252.94 C 361.00 256.15 362.58 257.99 366.26 261.13 C 369.95 264.26 375.36 269.29 379.16 271.76 C 382.95 274.23 385.64 274.80 389.03 275.96 C 392.42 277.12 395.70 278.53 399.52 278.72 C 403.34 278.91 408.57 278.41 411.94 277.10 C 415.30 275.79 417.60 273.32 419.71 270.85 C 421.82 268.38 423.35 266.43 424.59 262.30 C 425.84 258.17 427.06 251.41 427.18 246.07 C 427.30 240.74 427.10 236.34 425.31 230.30 C 423.52 224.25 419.97 216.28 416.42 209.81 C 412.88 203.35 408.84 196.79 404.06 191.53 C 399.27 186.27 394.67 182.23 387.71 178.24 C 380.75 174.26 370.44 170.31 362.31 167.60 C 354.17 164.90 346.74 163.21 338.91 161.99 C 331.08 160.77 323.63 159.21 315.31 160.30 C 306.99 161.40 296.45 164.69 289.00 168.58 C 281.55 172.47 276.42 177.56 270.60 183.66 C 264.77 189.75 258.54 198.45 254.05 205.16 C 249.55 211.87 246.60 217.36 243.63 223.93 C 240.66 230.50 238.84 237.47 236.23 244.60 C 233.62 251.73 230.34 260.22 227.99 266.70 C 225.63 273.18 224.26 278.06 222.11 283.47 C 219.96 288.88 217.68 294.64 215.09 299.17 C 212.51 303.69 209.55 307.12 206.59 310.63 C 203.64 314.15 201.08 317.13 197.38 320.25 C 193.69 323.36 188.65 326.54 184.41 329.32 C 180.17 332.09 176.19 335.62 171.97 336.91 C 167.74 338.21 163.81 337.34 159.06 337.11 C 154.31 336.88 147.79 336.42 143.46 335.53 C 139.13 334.63 137.25 333.69 133.08 331.73 C 128.90 329.77 122.56 327.05 118.39 323.76 C 114.23 320.46 111.09 315.82 108.10 311.97 C 105.12 308.12 102.82 305.63 100.48 300.64 C 98.13 295.66 95.57 287.69 94.02 282.04 C 92.46 276.39 91.41 271.78 91.13 266.73 C 90.86 261.69 91.62 257.75 92.36 251.77 C 93.11 245.78 93.79 236.95 95.62 230.85 C 97.44 224.74 100.34 221.07 103.31 215.13 C 106.29 209.20 109.82 200.97 113.47 195.24 C 117.13 189.51 121.18 185.55 125.24 180.75 C 129.30 175.96 133.64 171.33 137.84 166.47 C 142.04 161.61 147.08 155.87 150.43 151.58 C 153.77 147.29 155.93 144.31 157.91 140.73 C 159.89 137.15 161.48 133.98 162.29 130.09 C 163.10 126.20 163.51 120.71 162.78 117.38 C 162.04 114.04 159.80 112.23 157.88 110.09 C 155.96 107.95 153.86 105.57 151.26 104.52 C 148.66 103.48 145.65 103.31 142.30 103.83 C 138.96 104.36 134.92 105.17 131.18 107.67 C 127.44 110.17 123.19 114.74 119.85 118.84 C 116.50 122.93 113.80 126.65 111.11 132.24 C 108.43 137.83 105.23 144.19 103.72 152.40 C 102.21 160.61 101.72 172.87 102.07 181.50 C 102.41 190.12 103.34 195.59 105.80 204.14 C 108.27 212.70 113.03 224.69 116.86 232.80 C 120.69 240.90 124.59 246.50 128.77 252.76 C 132.95 259.02 137.30 264.03 141.95 270.36 C 146.59 276.68 152.13 284.89 156.65 290.71 C 161.16 296.52 165.15 299.95 169.03 305.24 C 172.91 310.54 177.09 317.15 179.91 322.49 C 182.73 327.84 184.10 332.72 185.95 337.33 C 187.79 341.95 188.59 345.61 190.97 350.17 C 193.36 354.73 197.41 360.37 200.25 364.69 C 203.09 369.01 204.80 372.59 208.02 376.09 C 211.23 379.59 215.10 382.71 219.54 385.69 C 223.98 388.67 229.70 391.93 234.66 394.00 C 239.61 396.07 243.11 397.18 249.28 398.09 C 255.45 399.00 264.79 399.87 271.70 399.46 C 278.61 399.04 284.73 397.57 290.74 395.59 C 296.75 393.60 302.06 392.12 307.76 387.53 C 313.45 382.94 320.25 374.38 324.94 368.04 C 329.62 361.69 333.54 356.08 335.86 349.47 C 338.18 342.86 338.37 336.57 338.87 328.39 C 339.36 320.22 340.03 308.66 338.84 300.44 C 337.65 292.21 335.61 286.39 331.72 279.02 C 327.83 271.65 321.22 262.06 315.50 256.20 C 309.78 250.35 303.67 247.51 297.41 243.89 C 291.14 240.27 284.98 236.91 277.92 234.48 C 270.85 232.06 261.72 230.20 255.01 229.33 C 248.30 228.46 243.77 229.43 237.66 229.25 C 231.54 229.08 224.99 228.94 218.33 228.27 C 211.67 227.60 203.73 226.09 197.71 225.24 C 191.69 224.39 187.38 223.95 182.23 223.16 C 177.07 222.38 171.57 221.65 166.78 220.53 C 161.98 219.40 157.31 218.16 153.47 216.41 C 149.64 214.66 146.58 212.82 143.78 210.02 C 140.98 207.23 138.71 203.06 136.66 199.61 C 134.61 196.17 132.66 193.04 131.47 189.35 C 130.29 185.67 129.39 182.13 129.55 177.51 C 129.70 172.89 130.83 166.41 132.40 161.61 C 133.98 156.82 136.02 153.15 138.98 148.73 C 141.95 144.30 146.40 138.87 150.19 135.09 C 153.97 131.31 157.11 128.80 161.68 126.04 C 166.24 123.28 171.17 120.24 177.60 118.54 C 184.03 116.85 192.72 115.77 200.26 115.85 C 207.80 115.94 214.71 117.25 222.84 119.05 C 230.96 120.86 241.50 123.72 249.00 126.70 C 256.50 129.68 262.04 132.44 267.86 136.93 C 273.67 141.41 279.03 146.65 283.88 153.60 C 288.72 160.55 293.24 170.84 296.92 178.62 C 300.60 186.41 303.10 193.26 305.95 200.32 C 308.79 207.38 311.65 213.51 313.99 220.99 C 316.34 228.46 318.02 238.17 320.05 245.18 C 322.07 252.18 323.77 256.82 326.16 263.01 C 328.56 269.21 332.09 277.11 334.42 282.35 C 336.75 287.58 337.87 290.56 340.12 294.42 C 342.38 298.28 344.75 302.38 347.95 305.50 C 351.16 308.63 355.33 311.27 359.35 313.19 C 363.37 315.10 368.07 316.29 372.07 317.00 C 376.07 317.70 379.37 317.60 383.35 317.43 C 387.34 317.25 392.57 316.69 395.98 315.93 C 399.40 315.17 400.81 313.46 403.85 312.86 C 406.89 312.26 411.07 312.20 414.23 312.33 C 417.39 312.46 420.09 313.13 422.84 313.64 C 425.59 314.16 428.27 314.36 430.72 315.43 C 433.16 316.51 435.99 317.98 437.50 320.07 C 439.01 322.16 439.58 324.81 439.77 327.99 C 439.96 331.17 439.62 334.72 438.64 339.13 C 437.65 343.53 436.18 349.58 433.86 354.40 C 431.53 359.21 429.26 363.56 424.70 368.00 C 420.14 372.44 412.98 377.36 406.47 381.02 C 399.97 384.67 392.79 387.67 385.68 389.94 C 378.57 392.21 372.80 394.60 363.80 394.62 C 354.81 394.63 340.98 392.49 331.72 390.03 C 322.46 387.58 315.66 384.13 308.27 379.91 C 300.88 375.70 294.45 370.87 287.38 364.73 C 280.31 358.59 272.26 349.69 265.83 343.08 C 259.40 336.46 254.23 331.52 248.78 325.01 C 243.32 318.51 237.97 310.13 233.11 304.02 C 228.26 297.91 224.06 293.21 219.67 288.37 C 215.29 283.53 211.28 279.67 206.82 274.97 C 202.35 270.27 197.37 263.91 192.89 260.17 C 188.41 256.44 184.82 255.00 179.94 252.56 C 175.06 250.13 168.39 247.02 163.61 245.57 C 158.83 244.13 155.47 244.14 151.25 243.89 C 147.02 243.65 142.85 243.52 138.27 244.10 C 133.70 244.69 127.93 246.21 123.80 247.42 C 119.67 248.62 116.79 249.78 113.51 251.33 C 110.23 252.88 107.42 254.87 104.11 256.72 C 100.81 258.57 96.46 261.00 93.68 262.45 C 90.90 263.89 90.04 264.50 87.43 265.41 C 84.83 266.32 80.80 267.54 78.05 267.92 C 75.30 268.29 73.10 267.41 70.92 267.67 C 68.75 267.92 67.26 268.49 65.03 269.44 C 62.79 270.39 59.64 271.36 57.51 273.35 C 55.39 275.35 53.52 278.81 52.26 281.42 C 51.00 284.03 50.81 285.97 49.94 289.02 C 49.06 292.08 47.77 296.69 47.02 299.76 C 46.27 302.83 46.21 304.79 45.44 307.43 C 44.67 310.07 43.41 313.39 42.40 315.57 C 41.39 317.76 40.34 319.28 39.37 320.55 C 38.40 321.81 37.73 322.97 36.59 323.17 C 35.44 323.38 33.67 322.37 32.49 321.78 C 31.32 321.19 30.85 320.87 29.53 319.64 C 28.21 318.40 25.81 317.17 24.56 314.36 C 23.30 311.55 22.70 306.74 22.00 302.78 C 21.30 298.83 20.30 295.72 20.36 290.61 C 20.41 285.50 21.39 277.91 22.32 272.12 C 23.25 266.34 24.06 261.42 25.93 255.89 C 27.80 250.36 30.23 245.15 33.54 238.93 C 36.85 232.70 41.35 224.77 45.78 218.55 C 50.22 212.33 54.90 206.63 60.15 201.61 C 65.40 196.59 70.07 192.84 77.26 188.42 C 84.45 183.99 94.49 178.53 103.31 175.09 C 112.14 171.65 120.75 169.34 130.23 167.78 C 139.72 166.22 151.08 165.27 160.21 165.73 C 169.34 166.18 176.90 168.13 185.01 170.51 C 193.12 172.89 201.15 175.20 208.88 179.99 C 216.60 184.79 225.13 192.90 231.38 199.26 C 237.63 205.62 241.74 211.50 246.38 218.18 C 251.01 224.85 255.74 232.74 259.21 239.33 C 262.67 245.91 265.16 251.57 267.17 257.67 C 269.17 263.77 269.91 269.39 271.22 275.92 C 272.53 282.46 274.18 290.79 275.04 296.88 C 275.89 302.97 275.45 307.18 276.36 312.46 C 277.26 317.73 279.04 323.18 280.46 328.53 C 281.88 333.88 283.11 339.86 284.88 344.55 C 286.64 349.24 288.46 352.94 291.05 356.66 C 293.65 360.39 297.28 363.68 300.44 366.92 C 303.60 370.16 306.71 373.76 310.02 376.08 C 313.32 378.41 316.45 379.46 320.26 380.86 C 324.06 382.26 329.00 383.32 332.85 384.47 C 336.69 385.61 339.71 386.59 343.32 387.72 C 346.93 388.84 351.09 389.85 354.49 391.22 C 357.90 392.58 361.36 394.17 363.75 395.89 C 366.15 397.62 367.43 399.43 368.85 401.55 C 370.27 403.66 371.96 406.39 372.28 408.58 C 372.60 410.78 371.32 412.52 370.76 414.70 C 370.20 416.89 370.85 419.31 368.94 421.70 C 367.03 424.10 362.63 426.60 359.32 429.06 C 356.01 431.53 353.16 434.51 349.08 436.50 C 345.00 438.49 340.82 440.08 334.86 441.00 C 328.90 441.92 320.34 442.45 313.30 442.00 C 306.26 441.55 300.17 440.67 292.62 438.31 C 285.07 435.94 275.54 431.39 267.98 427.82 C 260.42 424.25 253.47 421.21 247.28 416.89 C 241.08 412.56 236.60 408.01 230.80 401.87 C 225.00 395.73 217.57 386.96 212.48 380.05 C 207.39 373.14 203.41 367.48 200.27 360.43 C 197.14 353.37 195.26 346.07 193.66 337.70 C 192.07 329.33 191.03 318.57 190.70 310.20 C 190.38 301.82 190.84 295.56 191.70 287.43 C 192.56 279.30 194.83 269.04 195.88 261.43 C 196.93 253.82 197.60 248.23 198.01 241.77 C 198.42 235.31 198.82 228.91 198.35 222.67 C 197.88 216.42 196.54 209.98 195.20 204.31 C 193.86 198.63 192.63 193.26 190.32 188.63 C 188.01 183.99 184.39 179.33 181.35 176.49 C 178.32 173.66 175.71 172.62 172.14 171.62 C 168.57 170.61 164.28 169.98 159.93 170.47 C 155.58 170.96 150.07 172.27 146.02 174.55 C 141.97 176.83 138.87 180.22 135.62 184.13 C 132.38 188.04 129.34 192.26 126.56 198.02 C 123.78 203.78 120.05 212.03 118.93 218.67 C 117.81 225.30 118.15 230.72 119.86 237.83 C 121.57 244.94 125.07 254.28 129.20 261.32 C 133.32 268.37 138.72 274.71 144.60 280.11 C 150.49 285.50 156.52 290.12 164.49 293.70 C 172.47 297.28 184.11 300.52 192.46 301.57 C 200.81 302.62 207.35 301.47 214.59 299.99 C 221.83 298.51 229.16 296.79 235.91 292.69 C 242.66 288.59 250.20 281.06 255.11 275.42 C 260.03 269.78 263.15 265.26 265.37 258.84 C 267.60 252.43 268.89 243.37 268.46 236.91 C 268.02 230.45 265.73 225.02 262.76 220.07 C 259.78 215.11 256.00 210.45 250.61 207.17 C 245.23 203.89 236.71 201.18 230.45 200.39 C 224.19 199.59 218.60 200.38 213.05 202.38 C 207.51 204.39 202.36 208.18 197.20 212.42 C 192.03 216.66 186.25 222.77 182.07 227.81 C 177.88 232.85 175.35 237.13 172.11 242.67 C 168.86 248.22 165.16 255.90 162.61 261.08 C 160.06 266.25 158.68 269.23 156.83 273.72 C 154.99 278.21 153.62 283.15 151.54 288.02 C 149.46 292.89 146.30 298.29 144.36 302.95 C 142.42 307.61 140.93 311.91 139.90 315.98 C 138.87 320.05 138.69 322.95 138.19 327.36 C 137.68 331.76 137.07 337.98 136.88 342.39 C 136.68 346.81 135.96 349.44 137.02 353.85 C 138.08 358.25 140.74 364.24 143.24 368.82 C 145.73 373.39 148.57 377.49 152.00 381.27 C 155.42 385.06 158.60 388.22 163.78 391.52 C 168.96 394.83 176.52 399.48 183.10 401.13 C 189.68 402.78 195.80 402.20 203.28 401.41 C 210.76 400.62 220.40 398.55 228.00 396.39 C 235.59 394.22 242.09 391.77 248.86 388.44 C 255.63 385.12 262.27 381.93 268.63 376.44 C 274.98 370.94 281.91 362.04 286.98 355.48 C 292.05 348.93 295.57 343.78 299.03 337.10 C 302.50 330.43 305.23 323.53 307.78 315.43 C 310.34 307.34 312.64 296.11 314.36 288.54 C 316.07 280.97 317.20 276.90 318.07 270.02 C 318.94 263.14 319.06 254.14 319.57 247.25 C 320.09 240.36 320.47 234.46 321.18 228.69 C 321.88 222.93 322.60 218.12 323.82 212.67 C 325.05 207.22 326.74 200.71 328.53 195.99 C 330.32 191.27 332.27 188.21 334.54 184.33 C 336.81 180.45 338.91 175.66 342.17 172.71 C 345.44 169.75 350.02 167.68 354.16 166.62 C 358.30 165.57 362.49 165.53 366.99 166.39 C 371.50 167.25 377.03 169.39 381.18 171.80 C 385.34 174.21 388.95 177.15 391.95 180.83 C 394.94 184.51 396.87 188.34 399.14 193.88 C 401.42 199.43 404.13 207.78 405.60 214.08 C 407.06 220.37 407.91 225.40 407.93 231.64 C 407.96 237.87 407.22 244.79 405.75 251.48 C 404.27 258.18 401.65 265.51 399.08 271.81 C 396.51 278.10 392.97 283.11 390.31 289.25 C 387.65 295.38 385.17 302.83 383.12 308.62 C 381.06 314.41 379.30 319.35 377.98 323.98 C 376.65 328.60 375.44 331.76 375.18 336.37 C 374.91 340.99 375.36 347.61 376.38 351.69 C 377.40 355.76 379.35 358.45 381.29 360.83 C 383.23 363.20 385.28 364.45 388.03 365.96 C 390.79 367.47 394.58 369.47 397.82 369.90 C 401.06 370.32 403.84 370.40 407.47 368.52 C 411.09 366.64 416.35 362.03 419.58 358.64 C 422.80 355.24 424.24 351.52 426.81 348.13 C 429.38 344.75 432.36 342.16 434.99 338.32 C 437.63 334.48 440.12 328.74 442.63 325.08 C 445.13 321.42 447.08 319.25 450.03 316.36 C 452.98 313.46 457.51 309.79 460.35 307.70 C 463.18 305.61 465.19 304.79 467.04 303.80 C 468.89 302.81 469.77 301.47 471.46 301.77 C 473.15 302.06 475.81 303.61 477.17 305.60 C 478.54 307.58 479.64 310.96 479.64 313.67 C 479.64 316.38 478.45 318.31 477.17 321.85 C 475.88 325.40 474.16 330.69 471.94 334.96 C 469.72 339.22 467.13 343.10 463.84 347.44 C 460.55 351.78 455.62 357.00 452.20 361.02 C 448.79 365.04 446.32 368.15 443.35 371.57 C 440.39 374.98 437.48 377.71 434.41 381.50 C 431.34 385.29 427.62 390.34 424.95 394.32 C 422.27 398.31 420.61 402.07 418.36 405.42 C 416.11 408.76 413.18 411.37 411.45 414.41 C 409.72 417.46 409.09 420.93 407.98 423.68 C 406.87 426.44 405.42 428.63 404.80 430.94 C 404.19 433.25 403.92 436.26 404.28 437.54 C 404.64 438.83 406.03 438.07 406.95 438.64 C 407.87 439.22 408.99 440.21 409.78 440.98 C 410.57 441.76 411.16 442.52 411.68 443.30 C 412.19 444.07 412.25 444.94 412.87 445.62 C 413.48 446.30 414.80 446.56 415.35 447.39 C 415.91 448.23 416.28 449.63 416.19 450.64 C 416.10 451.65 415.72 452.04 414.82 453.47 C 413.92 454.90 412.67 457.28 410.78 459.21 C 408.90 461.14 406.04 463.17 403.48 465.04 C 400.93 466.91 399.16 468.45 395.47 470.45 C 391.78 472.45 386.19 475.19 381.34 477.04 C 376.48 478.90 371.48 480.60 366.33 481.59 C 361.19 482.58 356.33 482.43 350.46 483.01 C 344.59 483.58 337.32 484.80 331.11 485.05 C 324.91 485.30 319.92 485.48 313.20 484.52 C 306.49 483.56 297.94 481.37 290.81 479.30 C 283.68 477.23 277.16 474.81 270.44 472.10 C 263.71 469.39 257.42 467.26 250.45 463.05 C 243.49 458.84 235.30 451.99 228.63 446.81 C 221.97 441.63 216.25 438.59 210.46 431.97 C 204.66 425.35 198.32 415.15 193.86 407.08 C 189.39 399.02 185.95 391.66 183.65 383.58 C 181.35 375.51 180.66 367.58 180.06 358.64 C 179.46 349.70 178.84 338.57 180.03 329.95 C 181.22 321.32 184.07 314.30 187.21 306.90 C 190.36 299.51 194.19 292.67 198.92 285.58 C 203.64 278.48 209.69 269.92 215.57 264.34 C 221.44 258.76 227.30 255.41 234.16 252.09 C 241.02 248.76 249.69 245.80 256.74 244.40 C 263.79 243.00 270.19 242.82 276.45 243.67 C 282.72 244.52 288.48 246.42 294.33 249.47 C 300.17 252.53 307.17 257.56 311.54 262.01 C 315.91 266.45 318.20 271.22 320.54 276.13 C 322.89 281.05 325.16 285.52 325.59 291.49 C 326.02 297.46 324.83 306.06 323.10 311.96 C 321.38 317.85 319.15 322.33 315.23 326.87 C 311.31 331.41 305.01 335.79 299.57 339.19 C 294.14 342.59 288.82 345.33 282.61 347.28 C 276.40 349.23 269.23 349.91 262.32 350.86 C 255.41 351.81 247.40 352.86 241.15 352.98 C 234.89 353.10 230.40 352.01 224.81 351.56 C 219.21 351.11 213.67 350.41 207.59 350.28 C 201.52 350.15 193.84 350.44 188.36 350.79 C 182.87 351.14 179.15 351.57 174.67 352.38 C 170.19 353.19 165.19 354.37 161.49 355.65 C 157.79 356.94 154.98 357.93 152.47 360.11 C 149.97 362.29 147.87 365.51 146.45 368.72 C 145.04 371.92 144.06 375.81 143.98 379.34 C 143.89 382.86 144.56 386.33 145.96 389.85 C 147.36 393.37 148.96 397.01 152.39 400.46 C 155.82 403.91 162.10 407.67 166.55 410.55 C 171.00 413.44 173.42 415.59 179.10 417.74 C 184.77 419.90 193.70 422.43 200.61 423.48 C 207.53 424.53 213.90 424.46 220.61 424.05 C 227.32 423.65 233.57 423.06 240.86 421.05 C 248.15 419.04 257.26 415.71 264.34 411.99 C 271.42 408.27 277.10 404.04 283.34 398.73 C 289.57 393.42 296.67 386.31 301.73 380.13 C 306.79 373.96 309.85 367.95 313.68 361.68 C 317.52 355.41 321.67 349.80 324.75 342.53 C 327.83 335.26 330.04 325.59 332.17 318.04 C 334.29 310.50 336.06 304.27 337.51 297.25 C 338.95 290.23 339.56 283.26 340.83 275.93 C 342.10 268.61 343.84 259.83 345.14 253.33 C 346.43 246.83 347.58 242.70 348.60 236.94 C 349.63 231.18 349.82 224.03 351.28 218.78 C 352.73 213.52 355.33 209.15 357.32 205.41 C 359.30 201.66 360.33 199.15 363.19 196.28 C 366.04 193.41 370.77 189.96 374.43 188.19 C 378.08 186.42 381.78 185.66 385.12 185.65 C 388.45 185.64 390.97 187.17 394.44 188.14 C 397.90 189.10 402.05 189.90 405.91 191.45 C 409.77 192.99 413.75 195.51 417.61 197.40 C 421.48 199.29 426.10 201.86 429.11 202.80 C 432.12 203.75 433.24 202.89 435.66 203.08 C 438.07 203.26 441.15 203.85 443.61 203.90 C 446.07 203.96 448.41 203.38 450.41 203.39 C 452.42 203.41 453.99 203.74 455.64 203.99 C 457.28 204.25 458.12 204.21 460.27 204.91 C 462.42 205.62 466.31 207.29 468.52 208.22 C 470.73 209.15 471.81 208.44 473.51 210.47 C 475.22 212.50 477.22 217.58 478.74 220.39 C 480.27 223.20 481.51 225.21 482.68 227.33 C 483.85 229.46 484.48 231.46 485.75 233.13 C 487.02 234.80 489.16 236.36 490.31 237.36 C 491.45 238.35 491.63 238.71 492.63 239.10 C 493.63 239.49 495.35 239.87 496.30 239.72 C 497.25 239.57 497.45 238.29 498.35 238.22 C 499.24 238.15 500.37 239.01 501.65 239.31 C 502.93 239.60 505.07 239.52 506.01 239.98 C 506.96 240.45 506.81 241.03 507.31 242.10 C 507.81 243.17 508.57 244.30 509.01 246.41 C 509.46 248.52 509.87 251.69 509.99 254.78 C 510.11 257.87 510.34 260.75 509.72 264.95 C 509.11 269.15 507.92 274.88 506.31 279.95 C 504.69 285.03 502.44 290.27 500.04 295.38 C 497.64 300.49 496.06 305.27 491.92 310.60 C 487.78 315.93 481.29 322.51 475.20 327.38 C 469.12 332.25 462.50 335.82 455.44 339.82 C 448.38 343.82 441.37 347.67 432.83 351.38 C 424.29 355.09 413.03 359.47 404.22 362.08 C 395.40 364.69 389.32 366.32 379.93 367.04 C 370.55 367.75 357.41 366.93 347.90 366.35 C 338.39 365.77 331.01 365.22 322.88 363.57 C 314.74 361.91 307.63 359.56 299.06 356.40 C 290.48 353.23 279.09 349.11 271.43 344.55 C 263.76 340.00 258.76 334.66 253.06 329.07 C 247.36 323.48 242.19 317.70 237.23 311.01 C 232.27 304.32 226.22 295.87 223.32 288.93 C 220.41 282.00 220.07 276.68 219.81 269.41 C 219.55 262.13 220.29 252.39 221.74 245.30 C 223.19 238.22 225.43 232.51 228.51 226.90 C 231.59 221.30 235.50 216.17 240.22 211.68 C 244.94 207.18 251.12 202.58 256.82 199.93 C 262.51 197.28 268.27 196.44 274.38 195.79 C 280.50 195.15 286.92 194.28 293.52 196.05 C 300.13 197.83 308.67 202.42 314.02 206.44 C 319.38 210.47 322.27 214.36 325.65 220.23 C 329.04 226.11 332.67 234.91 334.32 241.69 C 335.97 248.47 335.95 254.66 335.56 260.89 C 335.16 267.12 334.46 272.83 331.94 279.08 C 329.42 285.33 324.49 292.77 320.46 298.38 C 316.43 303.99 312.60 308.86 307.75 312.72 C 302.89 316.59 298.07 319.02 291.34 321.59 C 284.61 324.15 274.73 326.68 267.36 328.13 C 259.99 329.59 254.12 330.01 247.12 330.32 C 240.13 330.64 231.88 330.14 225.40 330.00 C 218.91 329.86 213.85 330.25 208.22 329.48 C 202.59 328.72 197.24 326.37 191.60 325.41 C 185.97 324.45 181.38 325.54 174.42 323.73 C 167.47 321.92 153.95 316.07 149.85 314.54" fill="none" stroke="#fff" stroke-width="4.48" stroke-opacity="1" stroke-linecap="round" stroke-linejoin="round"/>
  </g>
</svg>