<?xml version="1.0" encoding="UTF-8"?>
<svg xmlns="http://www.w3.org/2000/svg" width="512" height="512" viewBox="0 0 512 512">
  <rect width="100%" height="100%" fill="#000"/>
  <g>
    <path d="M 256.00 256.00 C 254.61 258.18 251.23 264.52 247.68 269.05 C 244.13 273.59 239.10 279.78 234.69 283.24 C 230.28 286.70 226.52 288.43 221.21 289.81 C 215.90 291.19 208.22 291.08 202.82 291.54 C 197.43 291.99 193.22 293.32 188.82 292.53 C 184.42 291.73 180.33 289.01 176.42 286.77 C 172.51 284.54 168.54 282.91 165.37 279.11 C 162.20 275.31 159.53 268.77 157.39 263.97 C 155.25 259.17 153.47 255.89 152.52 250.31 C 151.57 244.73 151.52 236.41 151.71 230.49 C 151.90 224.56 152.11 220.60 153.66 214.77 C 155.20 208.93 158.21 200.47 160.97 195.45 C 163.74 190.43 166.25 188.14 170.24 184.66 C 174.23 181.18 180.14 177.26 184.91 174.58 C 189.67 171.91 193.08 170.48 198.82 168.62 C 204.55 166.76 213.01 164.67 219.30 163.43 C 225.58 162.19 230.51 160.86 236.53 161.17 C 242.56 161.48 249.39 163.46 255.45 165.30 C 261.50 167.13 267.63 169.72 272.88 172.19 C 278.13 174.66 282.49 176.55 286.94 180.12 C 291.39 183.69 296.18 188.72 299.60 193.61 C 303.01 198.49 305.27 203.27 307.43 209.45 C 309.59 215.63 311.98 224.62 312.58 230.68 C 313.18 236.74 312.44 239.90 311.04 245.80 C 309.64 251.71 306.97 260.37 304.18 266.11 C 301.38 271.86 297.91 275.00 294.29 280.26 C 290.66 285.52 286.67 293.11 282.43 297.67 C 278.19 302.23 273.70 304.10 268.83 307.61 C 263.95 311.12 257.57 315.55 253.18 318.71 C 248.79 321.87 246.23 323.61 242.48 326.58 C 238.74 329.54 234.41 333.61 230.72 336.48 C 227.03 339.35 223.70 340.64 220.35 343.80 C 217.00 346.97 213.51 352.02 210.61 355.46 C 207.72 358.90 205.52 361.23 202.97 364.45 C 200.43 367.66 197.81 371.92 195.34 374.73 C 192.87 377.53 190.94 379.47 188.15 381.26 C 185.35 383.05 182.66 384.17 178.58 385.47 C 174.50 386.77 167.50 388.50 163.67 389.04 C 159.84 389.57 159.01 389.48 155.61 388.66 C 152.22 387.85 147.40 385.49 143.30 384.15 C 139.20 382.81 134.96 382.73 131.03 380.63 C 127.10 378.53 122.65 374.86 119.72 371.55 C 116.78 368.23 116.20 365.69 113.40 360.75 C 110.60 355.80 104.96 347.77 102.91 341.86 C 100.86 335.96 100.96 331.64 101.09 325.33 C 101.23 319.02 102.36 310.40 103.72 304.01 C 105.08 297.62 106.08 293.14 109.26 287.00 C 112.44 280.86 118.43 273.11 122.80 267.19 C 127.17 261.28 129.76 256.46 135.48 251.50 C 141.20 246.55 150.67 241.51 157.13 237.49 C 163.60 233.47 167.72 229.74 174.25 227.36 C 180.77 224.99 189.89 223.81 196.27 223.26 C 202.64 222.71 206.37 223.29 212.47 224.08 C 218.58 224.87 226.24 226.13 232.90 227.99 C 239.56 229.86 246.96 232.33 252.44 235.28 C 257.91 238.23 260.94 241.71 265.76 245.70 C 270.58 249.68 277.40 254.92 281.36 259.21 C 285.31 263.49 287.19 266.38 289.48 271.38 C 291.76 276.39 293.64 284.51 295.06 289.25 C 296.48 294.00 297.43 295.51 297.99 299.86 C 298.55 304.21 298.29 310.87 298.41 315.38 C 298.54 319.88 298.83 322.60 298.74 326.89 C 298.64 331.18 298.29 336.82 297.84 341.14 C 297.39 345.46 296.27 348.50 296.03 352.81 C 295.79 357.12 296.16 363.04 296.43 367.00 C 296.69 370.95 297.23 372.79 297.62 376.54 C 298.01 380.28 297.80 386.26 298.79 389.47 C 299.79 392.68 301.86 393.37 303.60 395.80 C 305.34 398.22 307.15 402.02 309.23 404.02 C 311.31 406.02 312.90 406.37 316.07 407.78 C 319.24 409.19 324.73 411.22 328.26 412.47 C 331.80 413.71 333.41 414.64 337.29 415.24 C 341.16 415.84 346.93 416.88 351.53 416.08 C 356.14 415.27 361.26 412.22 364.90 410.42 C 368.53 408.62 369.54 407.58 373.34 405.26 C 377.15 402.94 383.43 399.15 387.75 396.49 C 392.06 393.83 395.58 392.70 399.24 389.27 C 402.90 385.84 406.59 379.28 409.72 375.92 C 412.86 372.56 415.30 372.03 418.05 369.12 C 420.80 366.21 423.87 361.52 426.23 358.46 C 428.58 355.41 429.37 353.33 432.16 350.79 C 434.95 348.25 440.00 345.51 442.97 343.22 C 445.94 340.92 447.60 339.81 449.98 337.02 C 452.36 334.22 455.29 328.90 457.25 326.44 C 459.22 323.98 459.80 324.74 461.76 322.27 C 463.71 319.80 466.88 314.56 468.99 311.62 C 471.10 308.68 472.44 306.98 474.43 304.62 C 476.41 302.26 479.25 300.04 480.89 297.44 C 482.53 294.85 482.94 292.97 484.25 289.06 C 485.56 285.15 487.76 279.37 488.73 273.99 C 489.71 268.61 489.45 261.67 490.08 256.77 C 490.71 251.87 491.83 248.66 492.53 244.61 C 493.23 240.56 493.67 236.31 494.28 232.49 C 494.88 228.67 495.62 225.18 496.17 221.70 C 496.72 218.23 497.40 214.18 497.57 211.62 C 497.74 209.05 496.52 207.93 497.17 206.32 C 497.82 204.71 500.18 203.04 501.47 201.93 C 502.77 200.82 503.36 199.24 504.92 199.67 C 506.48 200.11 513.44 203.25 510.83 204.54 C 508.22 205.83 498.53 206.77 489.26 207.44 C 480.00 208.10 465.15 208.57 455.25 208.52 C 445.35 208.46 439.17 206.99 429.84 207.12 C 420.51 207.24 408.38 208.62 399.29 209.25 C 390.19 209.87 383.69 209.71 375.27 210.85 C 366.86 212.00 356.03 213.91 348.80 216.11 C 341.56 218.31 338.15 221.06 331.85 224.05 C 325.55 227.04 316.93 230.50 311.00 234.05 C 305.06 237.60 300.86 240.65 296.24 245.36 C 291.63 250.08 286.92 256.80 283.30 262.33 C 279.68 267.86 276.80 273.68 274.54 278.53 C 272.28 283.39 271.44 286.47 269.72 291.48 C 268.00 296.49 265.27 303.55 264.22 308.57 C 263.18 313.60 263.00 316.92 263.47 321.62 C 263.94 326.33 265.75 332.46 267.06 336.79 C 268.37 341.13 269.48 343.93 271.35 347.63 C 273.21 351.33 275.70 355.32 278.26 358.99 C 280.81 362.65 284.36 366.09 286.69 369.62 C 289.01 373.14 290.53 376.85 292.20 380.15 C 293.88 383.46 295.06 386.28 296.74 389.45 C 298.42 392.61 301.16 396.05 302.30 399.14 C 303.45 402.23 303.93 404.71 303.63 407.98 C 303.33 411.25 301.38 415.51 300.52 418.77 C 299.65 422.02 299.82 424.34 298.44 427.51 C 297.06 430.68 294.58 434.97 292.23 437.78 C 289.89 440.59 286.89 441.82 284.35 444.36 C 281.81 446.91 278.85 451.04 276.99 453.05 C 275.13 455.06 274.43 454.98 273.19 456.43 C 271.96 457.88 270.28 459.65 269.58 461.77 C 268.89 463.89 268.52 466.92 269.02 469.15 C 269.53 471.39 271.41 473.48 272.61 475.16 C 273.81 476.85 274.84 477.83 276.24 479.29 C 277.64 480.74 278.20 483.16 281.00 483.89 C 283.81 484.61 289.24 483.84 293.08 483.63 C 296.92 483.43 299.65 483.10 304.04 482.66 C 308.43 482.21 315.11 481.95 319.42 480.98 C 323.73 480.00 325.66 478.95 329.91 476.84 C 334.15 474.72 340.43 471.13 344.90 468.28 C 349.38 465.44 352.51 463.60 356.75 459.76 C 360.99 455.93 366.18 450.11 370.34 445.27 C 374.51 440.42 377.83 436.49 381.74 430.70 C 385.64 424.90 390.86 416.52 393.76 410.51 C 396.67 404.50 397.34 400.52 399.15 394.65 C 400.96 388.78 403.12 381.42 404.61 375.29 C 406.11 369.16 406.36 364.28 408.12 357.88 C 409.87 351.47 412.88 343.44 415.16 336.88 C 417.45 330.32 419.86 323.76 421.83 318.50 C 423.79 313.25 425.18 309.74 426.96 305.34 C 428.73 300.95 430.45 295.98 432.46 292.15 C 434.47 288.32 436.69 285.34 439.03 282.35 C 441.37 279.36 443.82 276.38 446.51 274.23 C 449.21 272.08 452.51 270.15 455.20 269.45 C 457.88 268.75 460.27 269.33 462.62 270.04 C 464.97 270.74 467.17 272.23 469.30 273.66 C 471.43 275.09 473.93 276.91 475.41 278.62 C 476.89 280.34 477.52 281.55 478.19 283.96 C 478.85 286.37 479.35 290.04 479.41 293.07 C 479.48 296.11 478.75 298.70 478.56 302.17 C 478.38 305.64 478.72 310.15 478.31 313.91 C 477.89 317.68 476.86 320.72 476.06 324.74 C 475.26 328.76 474.10 334.06 473.53 338.02 C 472.97 341.98 473.85 344.49 472.69 348.51 C 471.54 352.53 468.17 358.55 466.59 362.12 C 465.02 365.70 463.78 366.66 463.23 369.97 C 462.68 373.28 463.71 378.43 463.29 382.00 C 462.86 385.56 460.82 388.76 460.68 391.34 C 460.53 393.93 461.81 395.04 462.43 397.51 C 463.05 399.98 463.45 404.29 464.37 406.18 C 465.29 408.08 466.47 408.32 467.95 408.87 C 469.44 409.43 471.93 410.13 473.28 409.52 C 474.64 408.91 475.01 407.68 476.09 405.22 C 477.18 402.76 478.54 398.32 479.79 394.75 C 481.03 391.18 482.57 387.91 483.58 383.82 C 484.58 379.73 485.23 374.43 485.83 370.21 C 486.43 365.99 486.85 363.60 487.15 358.48 C 487.45 353.37 488.28 345.41 487.65 339.53 C 487.02 333.66 485.58 329.94 483.39 323.24 C 481.20 316.53 477.73 306.23 474.50 299.30 C 471.27 292.36 467.98 287.73 464.02 281.64 C 460.05 275.55 455.32 268.15 450.70 262.78 C 446.08 257.41 442.22 254.37 436.29 249.40 C 430.37 244.44 422.28 237.92 415.13 232.98 C 407.97 228.04 400.09 223.74 393.37 219.77 C 386.65 215.79 381.74 212.36 374.82 209.13 C 367.89 205.91 358.29 203.08 351.84 200.40 C 345.39 197.73 341.46 196.36 336.10 193.09 C 330.74 189.81 324.49 184.03 319.67 180.75 C 314.85 177.46 311.58 176.93 307.20 173.38 C 302.82 169.84 296.84 163.40 293.39 159.49 C 289.94 155.58 288.62 154.01 286.50 149.93 C 284.37 145.86 282.13 139.18 280.65 135.03 C 279.18 130.89 277.72 128.80 277.66 125.06 C 277.59 121.31 279.57 116.24 280.27 112.56 C 280.98 108.88 280.66 106.53 281.90 102.99 C 283.14 99.45 285.63 93.93 287.72 91.32 C 289.81 88.72 291.47 88.39 294.45 87.35 C 297.44 86.31 301.84 85.82 305.64 85.09 C 309.43 84.35 312.64 83.24 317.24 82.94 C 321.85 82.65 328.83 82.68 333.27 83.31 C 337.71 83.94 339.93 85.30 343.87 86.71 C 347.81 88.12 352.53 90.38 356.91 91.77 C 361.30 93.15 366.41 94.41 370.18 95.02 C 373.95 95.62 376.04 95.09 379.54 95.38 C 383.04 95.68 388.23 96.14 391.17 96.79 C 394.11 97.45 394.69 98.81 397.18 99.31 C 399.68 99.81 403.67 99.78 406.16 99.80 C 408.65 99.82 410.00 99.74 412.14 99.44 C 414.29 99.15 417.16 98.46 419.04 98.04 C 420.92 97.62 422.51 97.65 423.42 96.93 C 424.34 96.21 424.47 94.98 424.51 93.74 C 424.55 92.50 424.51 91.39 423.66 89.49 C 422.81 87.60 421.00 84.54 419.41 82.36 C 417.82 80.18 416.84 78.67 414.12 76.42 C 411.40 74.17 407.03 71.08 403.11 68.85 C 399.19 66.62 394.86 65.46 390.60 63.06 C 386.35 60.66 381.98 56.48 377.58 54.46 C 373.18 52.44 368.70 52.47 364.22 50.92 C 359.73 49.36 354.68 46.67 350.66 45.14 C 346.64 43.60 343.61 43.62 340.10 41.72 C 336.58 39.82 333.01 35.71 329.57 33.72 C 326.14 31.72 322.17 31.02 319.48 29.74 C 316.79 28.47 315.44 28.02 313.44 26.07 C 311.45 24.12 309.08 20.50 307.53 18.03 C 305.99 15.56 304.37 13.47 304.18 11.26 C 304.00 9.05 305.11 6.10 306.43 4.77 C 307.75 3.43 309.36 3.48 312.08 3.23 C 314.80 2.98 319.04 2.50 322.76 3.27 C 326.48 4.05 330.08 5.92 334.42 7.88 C 338.75 9.83 344.57 12.33 348.78 15.00 C 352.98 17.67 355.77 20.13 359.65 23.89 C 363.54 27.66 368.06 33.48 372.06 37.59 C 376.07 41.69 379.69 43.87 383.68 48.51 C 387.68 53.16 392.43 60.26 396.03 65.44 C 399.62 70.61 401.81 74.63 405.24 79.57 C 408.67 84.50 413.44 90.75 416.59 95.06 C 419.73 99.38 421.12 101.54 424.11 105.45 C 427.10 109.36 431.39 114.75 434.52 118.50 C 437.64 122.25 440.50 126.17 442.85 127.95 C 445.21 129.72 446.44 129.02 448.63 129.15 C 450.82 129.28 453.87 129.33 455.98 128.71 C 458.09 128.10 459.79 126.64 461.27 125.45 C 462.75 124.27 463.72 122.81 464.84 121.60 C 465.97 120.40 467.64 119.42 468.02 118.22 C 468.40 117.03 467.71 116.39 467.13 114.43 C 466.55 112.47 465.75 109.48 464.56 106.47 C 463.38 103.45 461.51 99.59 460.02 96.35 C 458.53 93.11 458.11 90.16 455.64 87.02 C 453.18 83.89 448.27 80.57 445.23 77.54 C 442.20 74.52 440.00 71.73 437.45 68.88 C 434.89 66.03 431.84 62.98 429.90 60.46 C 427.96 57.93 427.10 56.15 425.83 53.73 C 424.57 51.30 423.40 47.81 422.31 45.90 C 421.21 43.98 419.92 43.40 419.25 42.21 C 418.59 41.03 418.26 39.66 418.31 38.78 C 418.37 37.90 418.70 37.43 419.60 36.93 C 420.49 36.42 422.12 35.53 423.68 35.74 C 425.24 35.95 427.06 37.30 428.97 38.19 C 430.87 39.08 432.34 39.24 435.09 41.07 C 437.84 42.89 442.42 46.18 445.47 49.13 C 448.52 52.08 450.93 54.19 453.38 58.76 C 455.84 63.33 458.40 71.24 460.20 76.56 C 462.00 81.89 463.47 84.40 464.18 90.70 C 464.88 97.00 464.26 107.12 464.42 114.35 C 464.59 121.59 465.19 127.01 465.16 134.13 C 465.14 141.26 465.13 150.32 464.27 157.11 C 463.40 163.91 461.46 168.10 459.97 174.92 C 458.48 181.75 456.80 191.29 455.34 198.07 C 453.87 204.85 452.63 209.54 451.16 215.60 C 449.70 221.65 447.92 228.90 446.52 234.41 C 445.12 239.92 444.04 242.82 442.76 248.63 C 441.48 254.45 440.13 263.40 438.85 269.33 C 437.58 275.25 435.98 278.98 435.13 284.19 C 434.28 289.40 434.46 295.48 433.78 300.61 C 433.09 305.74 432.05 310.90 431.02 314.99 C 429.99 319.08 428.83 321.31 427.60 325.16 C 426.38 329.01 425.73 334.20 423.68 338.10 C 421.62 342.00 418.26 344.35 415.25 348.56 C 412.24 352.78 408.45 359.25 405.62 363.39 C 402.79 367.52 401.68 369.82 398.29 373.37 C 394.90 376.92 389.92 381.35 385.28 384.67 C 380.64 387.98 376.13 390.65 370.45 393.26 C 364.77 395.86 357.14 398.24 351.21 400.29 C 345.28 402.34 341.30 404.72 334.89 405.55 C 328.48 406.38 319.22 405.94 312.75 405.28 C 306.28 404.63 302.01 403.76 296.08 401.60 C 290.15 399.44 283.11 395.94 277.19 392.32 C 271.27 388.69 266.10 384.96 260.55 379.87 C 254.99 374.78 248.29 367.46 243.88 361.78 C 239.48 356.09 237.08 352.24 234.11 345.77 C 231.14 339.30 227.83 329.42 226.07 322.96 C 224.32 316.50 223.84 313.49 223.58 307.03 C 223.31 300.56 223.16 291.71 224.49 284.17 C 225.83 276.62 229.16 268.32 231.58 261.76 C 234.00 255.21 235.49 250.00 238.99 244.82 C 242.49 239.64 248.58 234.44 252.58 230.70 C 256.57 226.96 258.61 225.34 262.95 222.37 C 267.28 219.40 273.45 215.40 278.59 212.87 C 283.73 210.34 288.53 208.33 293.81 207.18 C 299.09 206.03 305.71 206.20 310.28 205.97 C 314.86 205.74 316.99 205.90 321.27 205.81 C 325.54 205.72 331.71 204.84 335.93 205.41 C 340.16 205.99 342.01 208.42 346.61 209.25 C 351.21 210.08 358.82 209.99 363.52 210.42 C 368.22 210.85 370.70 211.38 374.81 211.83 C 378.93 212.28 384.17 212.83 388.22 213.13 C 392.28 213.43 395.80 213.97 399.14 213.61 C 402.48 213.25 405.49 212.07 408.24 210.99 C 411.00 209.92 413.27 208.38 415.66 207.16 C 418.05 205.94 420.61 205.34 422.56 203.67 C 424.50 202.01 425.41 199.85 427.34 197.17 C 429.27 194.50 432.95 190.85 434.13 187.61 C 435.30 184.37 434.08 180.89 434.41 177.74 C 434.73 174.60 435.77 172.31 436.06 168.75 C 436.34 165.20 436.20 160.30 436.10 156.42 C 435.99 152.53 435.09 148.77 435.44 145.46 C 435.79 142.14 437.42 138.84 438.18 136.52 C 438.93 134.20 439.31 133.02 439.96 131.52 C 440.61 130.03 440.81 128.54 442.07 127.57 C 443.32 126.60 445.23 125.66 447.51 125.71 C 449.79 125.76 453.40 127.23 455.75 127.85 C 458.10 128.46 459.66 128.13 461.62 129.39 C 463.57 130.66 465.34 133.72 467.48 135.46 C 469.62 137.21 472.54 137.81 474.45 139.84 C 476.37 141.86 477.35 145.61 478.98 147.63 C 480.61 149.65 482.31 150.30 484.24 151.93 C 486.17 153.57 488.42 155.99 490.56 157.45 C 492.69 158.90 495.10 159.88 497.04 160.67 C 498.98 161.47 501.05 162.39 502.21 162.21 C 503.36 162.03 503.41 160.60 503.95 159.59 C 504.48 158.57 505.09 157.55 505.40 156.12 C 505.71 154.69 505.93 153.13 505.79 151.01 C 505.65 148.88 505.48 146.06 504.56 143.37 C 503.65 140.67 501.92 137.41 500.29 134.86 C 498.66 132.32 496.98 131.14 494.79 128.10 C 492.60 125.06 490.17 120.36 487.13 116.61 C 484.10 112.86 480.92 109.18 476.58 105.59 C 472.25 102.00 465.86 97.93 461.14 95.07 C 456.42 92.21 453.53 91.17 448.25 88.42 C 442.98 85.67 435.03 80.98 429.48 78.58 C 423.93 76.17 419.88 76.01 414.93 73.98 C 409.98 71.94 404.31 68.65 399.78 66.34 C 395.25 64.04 392.04 62.29 387.75 60.14 C 383.46 57.98 377.68 55.42 374.05 53.41 C 370.41 51.41 368.85 50.15 365.93 48.10 C 363.02 46.04 358.99 42.90 356.54 41.08 C 354.09 39.26 353.22 38.99 351.24 37.19 C 349.26 35.40 347.21 32.03 344.68 30.31 C 342.14 28.59 338.52 28.25 336.00 26.87 C 333.48 25.48 332.38 23.40 329.56 21.98 C 326.73 20.57 322.12 19.82 319.04 18.37 C 315.96 16.92 314.93 14.61 311.09 13.26 C 307.24 11.91 300.72 10.67 295.97 10.28 C 291.22 9.89 287.40 10.10 282.59 10.91 C 277.78 11.72 271.91 13.83 267.11 15.14 C 262.31 16.46 258.86 17.14 253.80 18.80 C 248.74 20.47 242.14 23.43 236.77 25.13 C 231.40 26.84 226.73 27.42 221.57 29.02 C 216.41 30.63 210.41 32.95 205.81 34.78 C 201.21 36.61 198.53 38.23 193.96 39.99 C 189.38 41.76 182.44 44.33 178.38 45.35 C 174.32 46.37 173.49 45.31 169.61 46.14 C 165.72 46.96 158.88 49.12 155.09 50.30 C 151.29 51.48 149.73 52.07 146.85 53.21 C 143.97 54.35 140.73 55.93 137.80 57.14 C 134.88 58.35 131.96 59.30 129.31 60.46 C 126.65 61.62 124.82 62.54 121.86 64.10 C 118.89 65.66 114.53 67.71 111.52 69.81 C 108.51 71.91 107.00 73.79 103.82 76.68 C 100.64 79.57 95.70 84.04 92.42 87.16 C 89.14 90.28 86.75 92.39 84.16 95.40 C 81.56 98.41 79.00 102.08 76.85 105.22 C 74.70 108.37 73.71 111.06 71.25 114.28 C 68.79 117.49 64.68 122.04 62.08 124.51 C 59.47 126.98 58.00 127.67 55.62 129.10 C 53.24 130.52 50.15 131.88 47.78 133.07 C 45.41 134.26 43.00 135.77 41.43 136.22 C 39.86 136.67 39.64 136.27 38.37 135.76 C 37.09 135.26 34.89 134.56 33.77 133.21 C 32.66 131.85 32.37 128.95 31.66 127.64 C 30.95 126.33 30.04 126.24 29.50 125.35 C 28.96 124.45 29.21 123.25 28.42 122.30 C 27.63 121.34 25.69 120.27 24.77 119.61 C 23.84 118.96 23.83 118.63 22.84 118.39 C 21.86 118.14 20.03 117.83 18.84 118.14 C 17.65 118.46 17.05 119.34 15.71 120.29 C 14.37 121.25 12.19 122.59 10.80 123.88 C 9.41 125.17 8.70 126.25 7.36 128.05 C 6.02 129.85 1.55 132.43 2.75 134.67 C 3.95 136.91 7.23 139.13 14.55 141.49 C 21.87 143.84 37.20 147.00 46.68 148.79 C 56.15 150.59 62.03 150.80 71.39 152.24 C 80.74 153.68 94.05 156.10 102.80 157.45 C 111.55 158.79 116.21 159.44 123.88 160.32 C 131.56 161.20 141.21 161.64 148.87 162.73 C 156.54 163.81 162.26 165.76 169.90 166.82 C 177.53 167.89 187.43 168.41 194.70 169.12 C 201.96 169.83 206.61 170.38 213.47 171.08 C 220.34 171.78 229.52 172.76 235.87 173.32 C 242.22 173.89 245.50 174.11 251.58 174.47 C 257.66 174.82 265.89 175.37 272.35 175.43 C 278.82 175.49 284.89 175.19 290.37 174.82 C 295.85 174.46 300.31 173.93 305.24 173.24 C 310.17 172.55 315.66 171.84 319.95 170.67 C 324.24 169.51 327.48 168.09 330.97 166.24 C 334.46 164.38 338.14 161.71 340.88 159.54 C 343.62 157.36 345.60 156.06 347.42 153.19 C 349.23 150.33 350.71 145.95 351.78 142.35 C 352.85 138.76 354.39 135.36 353.85 131.63 C 353.31 127.90 350.77 123.38 348.54 119.98 C 346.31 116.58 344.69 114.12 340.48 111.21 C 336.27 108.31 328.66 104.63 323.28 102.57 C 317.90 100.50 314.15 99.85 308.20 98.82 C 302.25 97.79 293.56 96.56 287.59 96.40 C 281.61 96.24 278.33 96.48 272.35 97.84 C 266.37 99.19 257.74 102.46 251.70 104.53 C 245.66 106.59 241.65 106.40 236.12 110.25 C 230.59 114.10 223.47 122.05 218.54 127.62 C 213.61 133.20 210.31 137.39 206.54 143.69 C 202.78 149.98 198.18 157.54 195.96 165.38 C 193.75 173.23 193.71 183.40 193.25 190.77 C 192.78 198.14 192.70 202.98 193.15 209.59 C 193.60 216.20 194.65 224.44 195.95 230.42 C 197.24 236.39 199.26 239.83 200.92 245.43 C 202.57 251.03 204.22 258.54 205.85 264.02 C 207.49 269.50 209.21 272.89 210.74 278.33 C 212.28 283.78 213.70 291.77 215.06 296.70 C 216.42 301.64 216.92 303.57 218.92 307.94 C 220.93 312.31 224.30 318.50 227.08 322.92 C 229.86 327.33 232.51 330.45 235.61 334.42 C 238.71 338.38 241.96 343.75 245.68 346.72 C 249.39 349.69 253.35 350.38 257.90 352.24 C 262.45 354.09 267.98 357.07 272.99 357.84 C 277.99 358.62 282.85 357.69 287.91 356.89 C 292.97 356.09 298.55 354.70 303.35 353.04 C 308.16 351.37 312.23 349.90 316.75 346.90 C 321.26 343.91 326.71 339.40 330.45 335.08 C 334.18 330.75 336.05 326.58 339.15 320.96 C 342.25 315.34 346.86 307.91 349.06 301.37 C 351.27 294.84 352.22 287.64 352.38 281.75 C 352.54 275.85 351.65 271.64 350.02 266.00 C 348.38 260.35 345.33 253.61 342.55 247.88 C 339.76 242.16 337.11 236.71 333.33 231.64 C 329.56 226.56 324.07 221.58 319.91 217.45 C 315.75 213.32 312.99 210.34 308.36 206.86 C 303.73 203.38 297.15 199.42 292.13 196.56 C 287.11 193.71 283.21 192.55 278.25 189.73 C 273.30 186.90 267.14 182.49 262.40 179.63 C 257.65 176.77 254.08 175.41 249.78 172.57 C 245.47 169.74 240.22 165.45 236.58 162.61 C 232.94 159.78 230.63 158.83 227.94 155.55 C 225.25 152.27 222.52 145.93 220.45 142.92 C 218.38 139.91 218.03 139.65 215.53 137.48 C 213.04 135.32 208.50 132.59 205.51 129.95 C 202.52 127.30 200.35 124.20 197.60 121.61 C 194.85 119.02 192.18 116.57 189.01 114.40 C 185.84 112.24 181.78 110.18 178.57 108.63 C 175.37 107.09 173.43 105.87 169.77 105.13 C 166.11 104.39 160.43 104.28 156.60 104.22 C 152.78 104.16 150.17 104.05 146.83 104.78 C 143.49 105.51 139.36 107.38 136.57 108.61 C 133.78 109.84 132.99 110.20 130.07 112.16 C 127.15 114.11 122.44 118.21 119.05 120.33 C 115.67 122.44 113.09 122.01 109.77 124.84 C 106.45 127.68 101.97 133.68 99.13 137.33 C 96.29 140.99 95.20 143.22 92.74 146.76 C 90.29 150.31 86.80 154.26 84.40 158.60 C 82.00 162.95 79.79 167.81 78.35 172.81 C 76.91 177.81 76.59 183.73 75.78 188.59 C 74.97 193.44 73.51 196.30 73.48 201.92 C 73.46 207.54 74.83 216.07 75.62 222.31 C 76.42 228.54 76.75 233.26 78.27 239.34 C 79.79 245.43 82.13 253.07 84.74 258.80 C 87.35 264.53 90.23 268.27 93.94 273.72 C 97.64 279.16 101.90 286.09 106.97 291.47 C 112.05 296.85 119.23 301.54 124.38 305.99 C 129.53 310.44 132.09 314.27 137.87 318.15 C 143.65 322.03 152.92 326.58 159.04 329.27 C 165.15 331.96 168.18 333.14 174.55 334.30 C 180.91 335.45 190.47 336.42 197.23 336.21 C 203.99 336.01 208.63 334.17 215.11 333.09 C 221.58 332.02 230.07 331.41 236.09 329.76 C 242.12 328.11 245.74 326.06 251.27 323.20 C 256.80 320.34 264.35 316.05 269.27 312.61 C 274.18 309.18 276.87 306.84 280.78 302.58 C 284.69 298.32 289.33 292.00 292.75 287.06 C 296.17 282.11 298.50 278.03 301.31 272.92 C 304.12 267.81 307.47 260.68 309.60 256.41 C 311.73 252.14 311.65 251.49 314.06 247.31 C 316.48 243.12 320.84 235.79 324.10 231.30 C 327.36 226.81 330.46 223.70 333.63 220.38 C 336.80 217.05 340.05 214.69 343.10 211.36 C 346.15 208.03 348.88 202.87 351.92 200.40 C 354.96 197.92 358.09 198.19 361.34 196.52 C 364.60 194.85 367.96 191.30 371.44 190.36 C 374.92 189.41 378.22 190.16 382.22 190.85 C 386.22 191.54 391.46 193.08 395.42 194.50 C 399.38 195.92 402.55 197.59 405.98 199.36 C 409.42 201.12 413.40 202.43 416.05 205.10 C 418.71 207.77 420.04 211.45 421.89 215.37 C 423.74 219.30 425.58 224.28 427.15 228.66 C 428.72 233.04 429.94 236.45 431.31 241.66 C 432.68 246.87 434.02 255.08 435.38 259.92 C 436.73 264.75 438.64 266.78 439.44 270.68 C 440.23 274.57 439.45 279.29 440.14 283.30 C 440.82 287.31 442.21 290.86 443.53 294.74 C 444.86 298.62 446.59 303.56 448.07 306.59 C 449.56 309.62 451.10 310.77 452.43 312.92 C 453.77 315.07 454.80 317.59 456.07 319.50 C 457.33 321.40 458.09 322.59 460.02 324.36 C 461.94 326.13 465.47 329.14 467.60 330.11 C 469.73 331.08 471.21 329.93 472.81 330.16 C 474.42 330.39 475.73 330.59 477.23 331.49 C 478.73 332.40 480.67 334.38 481.81 335.59 C 482.95 336.79 483.55 337.39 484.06 338.74 C 484.57 340.08 484.22 342.18 484.88 343.64 C 485.54 345.09 487.39 345.68 488.02 347.47 C 488.66 349.26 488.84 352.14 488.69 354.38 C 488.55 356.63 488.20 358.50 487.16 360.94 C 486.11 363.38 484.15 365.84 482.43 369.00 C 480.71 372.17 479.79 375.75 476.84 379.93 C 473.88 384.11 468.49 390.34 464.70 394.09 C 460.91 397.84 458.84 399.50 454.08 402.44 C 449.33 405.38 442.07 409.16 436.17 411.73 C 430.26 414.31 425.18 416.12 418.65 417.90 C 412.12 419.68 403.96 421.03 396.98 422.41 C 389.99 423.79 384.06 425.65 376.72 426.20 C 369.39 426.74 360.21 425.78 352.97 425.70 C 345.72 425.62 340.04 425.99 333.25 425.71 C 326.47 425.43 319.15 424.32 312.26 424.02 C 305.37 423.73 297.47 423.68 291.93 423.95 C 286.39 424.22 283.95 425.36 279.03 425.63 C 274.10 425.90 267.57 425.46 262.38 425.56 C 257.20 425.66 252.96 425.81 247.91 426.24 C 242.87 426.67 236.51 427.60 232.11 428.15 C 227.72 428.69 224.90 428.88 221.53 429.50 C 218.15 430.13 214.90 431.61 211.86 431.91 C 208.83 432.21 206.72 431.54 203.33 431.30 C 199.95 431.07 195.37 430.63 191.53 430.49 C 187.69 430.35 184.52 431.32 180.30 430.48 C 176.08 429.65 170.09 426.83 166.21 425.47 C 162.33 424.11 160.55 424.26 157.02 422.30 C 153.49 420.35 148.58 416.28 145.03 413.74 C 141.48 411.20 139.12 409.98 135.75 407.08 C 132.37 404.18 127.98 399.48 124.79 396.34 C 121.59 393.21 119.69 390.96 116.58 388.26 C 113.46 385.57 109.33 382.59 106.08 380.16 C 102.83 377.73 99.81 374.65 97.06 373.68 C 94.32 372.71 91.90 373.58 89.61 374.35 C 87.31 375.13 85.29 376.74 83.29 378.34 C 81.29 379.94 79.04 382.05 77.59 383.95 C 76.14 385.85 74.75 387.50 74.59 389.75 C 74.44 391.99 75.46 394.28 76.64 397.41 C 77.82 400.54 80.40 405.57 81.66 408.52 C 82.93 411.47 82.27 412.28 84.24 415.12 C 86.20 417.97 90.55 422.79 93.44 425.58 C 96.33 428.37 97.94 429.41 101.55 431.86 C 105.17 434.30 110.82 437.58 115.15 440.25 C 119.49 442.93 122.95 445.56 127.54 447.91 C 132.14 450.26 138.23 452.75 142.72 454.33 C 147.22 455.91 150.20 455.80 154.51 457.40 C 158.82 459.00 164.30 462.32 168.57 463.92 C 172.84 465.53 176.46 465.51 180.10 467.03 C 183.74 468.55 187.18 471.02 190.42 473.04 C 193.65 475.07 197.28 476.69 199.53 479.18 C 201.77 481.66 202.29 485.93 203.89 487.95 C 205.49 489.97 208.10 489.98 209.13 491.30 C 210.17 492.61 209.68 493.81 210.09 495.85 C 210.49 497.89 210.73 501.81 211.56 503.54 C 212.40 505.27 213.40 505.28 215.08 506.21 C 216.76 507.14 219.78 508.18 221.65 509.14 C 223.52 510.10 224.41 517.28 226.28 511.97 C 228.15 506.65 230.83 487.43 232.87 477.25 C 234.90 467.07 236.55 460.38 238.50 450.88 C 240.46 441.39 242.94 428.99 244.60 420.28 C 246.26 411.57 247.06 406.74 248.47 398.63 C 249.88 390.52 251.57 379.33 253.04 371.63 C 254.52 363.93 255.11 359.36 257.30 352.42 C 259.49 345.48 263.28 336.46 266.18 330.01 C 269.08 323.55 271.54 319.12 274.69 313.69 C 277.83 308.25 281.56 302.48 285.08 297.41 C 288.60 292.33 291.86 287.82 295.81 283.21 C 299.75 278.60 304.40 274.05 308.76 269.74 C 313.11 265.43 318.15 260.78 321.95 257.32 C 325.74 253.86 327.66 251.66 331.52 248.97 C 335.39 246.28 341.39 243.21 345.13 241.17 C 348.86 239.12 350.70 238.84 353.92 236.70 C 357.14 234.55 361.38 231.09 364.44 228.30 C 367.50 225.51 369.79 223.37 372.26 219.97 C 374.73 216.56 377.74 211.34 379.29 207.86 C 380.83 204.38 380.88 202.92 381.50 199.09 C 382.13 195.26 383.04 189.41 383.03 184.88 C 383.01 180.35 382.87 176.30 381.40 171.92 C 379.94 167.54 376.22 162.41 374.24 158.59 C 372.25 154.78 372.36 152.52 369.49 149.03 C 366.62 145.54 361.16 141.24 357.00 137.65 C 352.85 134.06 349.05 130.33 344.56 127.49 C 340.08 124.65 334.73 123.13 330.11 120.58 C 325.50 118.04 321.98 114.24 316.85 112.24 C 311.73 110.25 304.95 109.58 299.39 108.62 C 293.83 107.65 289.15 106.61 283.50 106.44 C 277.86 106.26 271.26 107.51 265.53 107.56 C 259.81 107.60 254.15 107.15 249.14 106.70 C 244.12 106.25 240.24 105.35 235.43 104.84 C 230.63 104.33 224.42 104.07 220.32 103.64 C 216.23 103.21 213.81 103.47 210.85 102.26 C 207.89 101.05 204.84 97.97 202.55 96.40 C 200.27 94.83 199.08 94.53 197.15 92.84 C 195.22 91.15 192.28 88.41 190.96 86.25 C 189.64 84.09 189.22 82.40 189.24 79.89 C 189.26 77.38 190.29 73.51 191.09 71.17 C 191.90 68.83 192.10 67.99 194.05 65.84 C 195.99 63.69 199.58 60.32 202.77 58.28 C 205.96 56.24 208.87 54.74 213.18 53.58 C 217.50 52.43 223.62 51.73 228.67 51.36 C 233.72 50.98 237.74 50.56 243.48 51.33 C 249.22 52.11 257.21 53.64 263.11 56.02 C 269.00 58.40 273.15 61.76 278.84 65.62 C 284.54 69.48 292.37 74.33 297.27 79.18 C 302.18 84.02 304.83 88.85 308.28 94.68 C 311.72 100.51 315.47 106.53 317.93 114.15 C 320.40 121.78 322.08 132.60 323.06 140.44 C 324.03 148.27 324.43 153.55 323.80 161.18 C 323.17 168.81 321.16 179.23 319.28 186.23 C 317.39 193.24 315.70 196.81 312.50 203.23 C 309.30 209.65 304.47 219.63 300.07 224.74 C 295.66 229.86 291.70 230.88 286.06 233.94 C 280.43 237.00 271.92 241.15 266.28 243.09 C 260.63 245.02 258.12 246.06 252.19 245.56 C 246.26 245.05 236.35 242.02 230.67 240.06 C 225.00 238.10 222.18 236.79 218.15 233.80 C 214.11 230.80 209.12 226.43 206.48 222.06 C 203.83 217.70 202.64 212.76 202.30 207.60 C 201.97 202.43 203.37 195.63 204.45 191.06 C 205.52 186.49 205.76 184.05 208.73 180.18 C 211.70 176.31 217.85 170.93 222.26 167.85 C 226.68 164.76 230.09 163.01 235.23 161.70 C 240.38 160.38 246.97 159.07 253.14 159.97 C 259.31 160.87 266.88 164.81 272.25 167.10 C 277.61 169.40 280.60 170.24 285.31 173.75 C 290.02 177.25 296.47 183.26 300.48 188.12 C 304.50 192.97 307.26 197.19 309.40 202.86 C 311.54 208.53 312.50 216.16 313.31 222.15 C 314.12 228.14 314.74 232.47 314.26 238.80 C 313.79 245.12 312.33 254.16 310.45 260.09 C 308.58 266.01 306.58 269.46 303.01 274.34 C 299.43 279.23 293.68 285.54 289.02 289.41 C 284.37 293.27 280.59 295.90 275.09 297.55 C 269.59 299.21 261.43 299.36 256.03 299.33 C 250.63 299.29 247.88 299.26 242.67 297.35 C 237.46 295.45 229.95 290.91 224.76 287.89 C 219.57 284.88 215.35 283.13 211.53 279.26 C 207.70 275.40 204.32 269.19 201.81 264.71 C 199.31 260.24 198.07 257.52 196.50 252.41 C 194.93 247.29 192.68 239.39 192.38 234.04 C 192.08 228.69 193.47 225.46 194.70 220.29 C 195.93 215.12 196.96 208.33 199.78 203.02 C 202.60 197.70 208.03 192.21 211.61 188.40 C 215.20 184.59 216.81 182.60 221.29 180.14 C 225.77 177.68 233.16 175.05 238.49 173.64 C 243.82 172.24 247.54 172.13 253.28 171.74 C 259.03 171.34 267.27 170.93 272.96 171.27 C 278.65 171.61 282.26 171.66 287.40 173.78 C 292.54 175.91 299.31 180.83 303.82 184.00 C 308.32 187.17 310.71 189.12 314.43 192.82 C 318.16 196.52 322.40 202.26 326.14 206.21 C 329.88 210.16 333.38 212.43 336.86 216.54 C 340.33 220.65 343.93 226.56 346.98 230.86 C 350.04 235.16 352.57 237.99 355.17 242.34 C 357.78 246.69 360.17 253.16 362.61 256.96 C 365.06 260.75 367.12 261.76 369.87 265.11 C 372.61 268.47 376.41 273.52 379.11 277.08 C 381.80 280.64 383.29 283.51 386.04 286.46 C 388.79 289.40 392.57 291.97 395.61 294.77 C 398.66 297.57 402.09 300.71 404.29 303.26 C 406.50 305.81 407.02 307.70 408.82 310.08 C 410.62 312.46 413.02 314.65 415.07 317.54 C 417.12 320.44 419.65 323.74 421.11 327.45 C 422.57 331.15 423.05 336.22 423.83 339.77 C 424.61 343.32 425.24 345.25 425.79 348.74 C 426.34 352.23 426.65 357.19 427.12 360.70 C 427.58 364.22 428.15 366.92 428.57 369.84 C 428.98 372.77 429.16 375.54 429.59 378.25 C 430.02 380.96 430.45 383.35 431.15 386.10 C 431.86 388.85 432.98 392.39 433.82 394.76 C 434.67 397.13 435.22 398.66 436.21 400.33 C 437.20 402.00 438.28 403.75 439.75 404.78 C 441.22 405.82 442.96 406.79 445.02 406.56 C 447.08 406.33 450.17 404.56 452.10 403.40 C 454.03 402.24 454.61 401.89 456.58 399.61 C 458.56 397.33 461.89 393.28 463.94 389.71 C 466.00 386.15 467.32 383.16 468.93 378.22 C 470.54 373.29 472.39 366.42 473.60 360.11 C 474.80 353.80 475.83 346.37 476.14 340.38 C 476.45 334.40 476.48 330.66 475.47 324.22 C 474.46 317.78 472.21 308.16 470.05 301.72 C 467.89 295.29 466.41 291.93 462.51 285.61 C 458.61 279.29 451.69 269.70 446.66 263.79 C 441.64 257.87 438.23 255.19 432.35 250.12 C 426.48 245.04 417.92 237.63 411.43 233.35 C 404.93 229.08 400.21 227.92 393.40 224.46 C 386.59 220.99 377.66 215.37 370.57 212.58 C 363.48 209.78 358.28 208.23 350.86 207.70 C 343.44 207.16 333.13 208.61 326.02 209.36 C 318.92 210.11 314.42 210.37 308.25 212.20 C 302.07 214.04 294.56 216.85 288.97 220.37 C 283.39 223.90 279.27 228.81 274.72 233.35 C 270.16 237.90 264.81 242.78 261.64 247.64 C 258.46 252.51 257.57 257.33 255.68 262.53 C 253.79 267.74 251.22 273.76 250.29 278.89 C 249.35 284.02 249.07 288.19 250.07 293.30 C 251.07 298.41 253.67 304.93 256.30 309.53 C 258.92 314.14 262.66 318.16 265.82 320.90 C 268.97 323.64 271.06 324.18 275.23 325.98 C 279.41 327.77 286.33 330.37 290.86 331.67 C 295.40 332.96 297.34 333.54 302.45 333.75 C 307.55 333.96 316.39 333.11 321.51 332.93 C 326.62 332.75 328.93 332.87 333.13 332.66 C 337.34 332.46 342.93 331.86 346.74 331.69 C 350.56 331.52 352.37 331.54 356.00 331.63 C 359.64 331.72 364.79 331.96 368.54 332.23 C 372.28 332.49 375.27 332.41 378.47 333.22 C 381.67 334.03 384.83 336.02 387.74 337.07 C 390.64 338.12 392.75 338.84 395.90 339.51 C 399.05 340.19 403.50 340.45 406.62 341.10 C 409.74 341.75 411.99 342.66 414.62 343.44 C 417.25 344.22 419.87 345.54 422.41 345.78 C 424.95 346.01 427.01 345.79 429.85 344.85 C 432.70 343.91 436.43 341.68 439.46 340.16 C 442.50 338.64 445.98 337.52 448.05 335.73 C 450.12 333.93 450.50 332.72 451.90 329.38 C 453.30 326.04 455.30 320.01 456.45 315.67 C 457.61 311.33 458.23 308.45 458.84 303.35 C 459.46 298.25 460.05 290.50 460.14 285.06 C 460.23 279.62 460.19 276.25 459.39 270.71 C 458.60 265.17 456.73 257.29 455.38 251.83 C 454.04 246.36 452.70 243.21 451.33 237.92 C 449.95 232.62 449.32 225.29 447.15 220.05 C 444.98 214.82 441.57 211.36 438.32 206.53 C 435.06 201.70 430.90 195.66 427.62 191.07 C 424.35 186.48 422.22 183.31 418.67 178.99 C 415.13 174.66 409.68 169.51 406.35 165.12 C 403.02 160.73 401.29 156.91 398.71 152.65 C 396.13 148.39 393.28 143.31 390.88 139.55 C 388.49 135.79 386.80 133.66 384.34 130.08 C 381.88 126.49 378.53 121.45 376.11 118.04 C 373.69 114.64 371.60 112.67 369.83 109.64 C 368.06 106.62 367.28 103.44 365.48 99.91 C 363.69 96.38 361.07 91.82 359.08 88.48 C 357.09 85.13 355.59 82.77 353.53 79.84 C 351.46 76.91 348.91 73.36 346.70 70.89 C 344.48 68.43 343.78 67.13 340.24 65.04 C 336.70 62.94 329.63 60.42 325.47 58.30 C 321.31 56.19 319.30 54.28 315.30 52.35 C 311.30 50.43 305.55 48.20 301.48 46.76 C 297.41 45.32 295.29 44.60 290.87 43.69 C 286.44 42.79 279.71 41.51 274.93 41.33 C 270.15 41.14 267.14 41.85 262.17 42.58 C 257.20 43.32 250.40 44.88 245.11 45.73 C 239.82 46.59 235.58 46.58 230.43 47.72 C 225.28 48.86 219.05 50.12 214.21 52.56 C 209.37 54.99 205.78 58.72 201.39 62.33 C 197.00 65.94 192.18 70.75 187.89 74.22 C 183.59 77.70 180.08 79.29 175.64 83.17 C 171.20 87.05 166.04 92.79 161.25 97.51 C 156.46 102.23 151.27 107.76 146.90 111.51 C 142.54 115.25 138.63 117.15 135.04 119.97 C 131.45 122.80 128.95 126.04 125.37 128.45 C 121.79 130.85 117.55 132.37 113.57 134.40 C 109.58 136.43 104.73 139.31 101.46 140.62 C 98.20 141.92 96.56 141.44 93.98 142.24 C 91.40 143.04 88.43 145.38 86.00 145.41 C 83.57 145.44 80.82 144.12 79.42 142.44 C 78.02 140.76 78.01 137.57 77.61 135.33 C 77.21 133.09 76.54 131.96 77.01 128.97 C 77.48 125.98 78.74 121.02 80.45 117.38 C 82.17 113.74 84.41 110.69 87.29 107.14 C 90.16 103.58 93.87 98.86 97.68 96.05 C 101.49 93.24 104.77 92.54 110.16 90.28 C 115.54 88.02 123.88 84.17 130.00 82.49 C 136.11 80.82 140.86 81.20 146.87 80.25 C 152.88 79.31 160.73 78.47 166.05 76.82 C 171.38 75.17 173.97 72.33 178.82 70.34 C 183.67 68.35 190.06 66.82 195.15 64.90 C 200.23 62.97 205.83 60.75 209.31 58.81 C 212.78 56.87 213.64 55.50 215.97 53.24 C 218.31 50.98 221.27 47.59 223.31 45.23 C 225.35 42.87 226.18 41.18 228.22 39.06 C 230.26 36.93 233.44 34.20 235.56 32.49 C 237.68 30.79 239.06 30.19 240.93 28.83 C 242.80 27.47 245.24 25.58 246.79 24.32 C 248.35 23.06 248.58 22.72 250.27 21.27 C 251.96 19.82 254.79 16.93 256.93 15.60 C 259.08 14.28 260.70 14.07 263.13 13.32 C 265.56 12.57 268.50 11.66 271.51 11.11 C 274.52 10.55 278.29 10.49 281.21 10.02 C 284.13 9.55 286.81 8.73 289.02 8.29 C 291.23 7.85 292.40 8.06 294.47 7.35 C 296.54 6.64 299.77 4.99 301.47 4.01 C 303.16 3.03 303.49 -1.16 304.63 1.47 C 305.77 4.09 306.93 12.03 308.32 19.77 C 309.71 27.50 311.73 39.17 312.98 47.89 C 314.24 56.61 314.56 63.45 315.85 72.09 C 317.14 80.73 319.49 91.58 320.72 99.76 C 321.95 107.93 321.50 113.94 323.24 121.13 C 324.98 128.32 328.73 136.45 331.14 142.88 C 333.56 149.31 334.99 154.18 337.72 159.70 C 340.45 165.23 344.25 171.67 347.54 176.04 C 350.82 180.42 353.64 182.72 357.43 185.95 C 361.21 189.19 366.52 192.86 370.25 195.44 C 373.98 198.01 376.23 199.68 379.82 201.41 C 383.40 203.14 388.30 205.15 391.76 205.82 C 395.22 206.49 397.41 206.03 400.58 205.43 C 403.76 204.82 407.81 203.95 410.79 202.19 C 413.78 200.42 416.57 197.75 418.52 194.84 C 420.47 191.92 421.56 188.35 422.50 184.69 C 423.43 181.03 424.36 177.37 424.13 172.88 C 423.89 168.38 423.15 162.21 421.09 157.73 C 419.03 153.26 416.28 149.44 411.78 146.01 C 407.27 142.58 400.46 139.85 394.05 137.16 C 387.64 134.47 379.42 131.56 373.33 129.86 C 367.23 128.16 363.66 127.50 357.47 126.98 C 351.28 126.45 342.80 125.94 336.18 126.72 C 329.57 127.49 324.55 129.30 317.77 131.63 C 310.99 133.96 302.05 137.73 295.49 140.70 C 288.93 143.67 284.10 145.31 278.41 149.46 C 272.71 153.61 265.81 160.26 261.32 165.58 C 256.84 170.90 255.03 175.41 251.49 181.38 C 247.95 187.35 243.13 195.45 240.08 201.40 C 237.03 207.36 235.35 210.80 233.18 217.13 C 231.01 223.47 228.80 233.08 227.06 239.42 C 225.31 245.76 224.28 249.27 222.70 255.18 C 221.13 261.09 218.99 269.39 217.62 274.87 C 216.24 280.34 215.06 282.73 214.44 288.03 C 213.81 293.33 214.00 301.78 213.87 306.65 C 213.74 311.53 214.24 312.90 213.64 317.27 C 213.05 321.65 212.29 328.76 210.31 332.91 C 208.33 337.06 204.88 339.17 201.76 342.18 C 198.64 345.20 195.17 348.98 191.60 351.00 C 188.04 353.02 183.96 353.62 180.36 354.31 C 176.77 355.01 173.73 355.45 170.02 355.16 C 166.31 354.87 161.42 353.79 158.11 352.59 C 154.79 351.38 153.34 350.89 150.10 347.94 C 146.87 344.98 141.89 338.76 138.68 334.87 C 135.47 330.97 133.26 328.94 130.83 324.58 C 128.41 320.23 125.86 313.42 124.14 308.73 C 122.42 304.05 121.97 301.49 120.52 296.47 C 119.07 291.45 117.22 283.62 115.43 278.60 C 113.64 273.57 111.08 271.29 109.80 266.34 C 108.51 261.39 108.50 254.12 107.74 248.92 C 106.97 243.72 105.79 239.42 105.23 235.13 C 104.67 230.84 104.49 227.33 104.38 223.17 C 104.27 219.01 105.30 214.46 104.57 210.17 C 103.84 205.88 101.04 201.34 100.00 197.43 C 98.95 193.52 98.87 190.46 98.32 186.73 C 97.77 183.01 97.27 179.36 96.70 175.10 C 96.13 170.84 94.96 165.20 94.90 161.19 C 94.85 157.18 95.36 155.19 96.38 151.06 C 97.39 146.93 99.50 140.45 101.01 136.40 C 102.51 132.36 103.22 130.08 105.41 126.80 C 107.60 123.52 111.94 119.69 114.15 116.74 C 116.36 113.78 116.20 112.03 118.67 109.08 C 121.14 106.13 125.55 101.71 128.95 99.04 C 132.36 96.37 134.86 95.27 139.09 93.04 C 143.32 90.80 149.02 87.43 154.34 85.62 C 159.66 83.80 164.79 82.84 171.00 82.14 C 177.21 81.44 185.24 81.33 191.60 81.42 C 197.97 81.51 202.90 81.77 209.19 82.67 C 215.49 83.58 223.40 85.46 229.39 86.86 C 235.38 88.26 239.30 89.10 245.14 91.07 C 250.99 93.04 258.70 96.36 264.47 98.68 C 270.25 100.99 274.36 103.13 279.81 104.96 C 285.25 106.79 292.16 108.14 297.14 109.65 C 302.11 111.15 305.10 112.98 309.66 113.99 C 314.21 115.01 319.79 115.07 324.48 115.74 C 329.17 116.41 334.11 117.78 337.81 118.01 C 341.51 118.24 343.07 117.36 346.68 117.10 C 350.29 116.84 355.99 116.39 359.48 116.45 C 362.96 116.50 364.39 116.99 367.60 117.46 C 370.80 117.93 375.67 118.53 378.72 119.26 C 381.77 120.00 382.65 120.80 385.89 121.86 C 389.12 122.91 394.34 124.05 398.12 125.59 C 401.91 127.14 405.38 128.66 408.60 131.14 C 411.83 133.61 414.86 137.20 417.47 140.44 C 420.08 143.69 422.12 145.92 424.25 150.63 C 426.39 155.33 428.46 163.47 430.30 168.68 C 432.13 173.89 434.24 176.16 435.24 181.88 C 436.24 187.60 436.13 196.65 436.29 203.00 C 436.46 209.34 437.23 213.10 436.23 219.95 C 435.22 226.80 432.55 237.38 430.25 244.10 C 427.94 250.82 426.03 254.78 422.40 260.28 C 418.78 265.78 413.99 271.30 408.50 277.12 C 403.01 282.94 395.81 290.67 389.48 295.20 C 383.15 299.72 377.44 301.48 370.54 304.26 C 363.64 307.04 355.20 310.23 348.06 311.85 C 340.92 313.47 334.40 313.47 327.69 313.98 C 320.97 314.50 314.25 315.31 307.78 314.93 C 301.31 314.54 295.51 313.75 288.86 311.66 C 282.22 309.56 273.77 305.44 267.94 302.37 C 262.11 299.29 258.67 297.05 253.88 293.21 C 249.08 289.37 242.34 284.16 239.16 279.34 C 235.98 274.52 236.49 269.79 234.78 264.26 C 233.07 258.74 229.27 251.96 228.89 246.21 C 228.51 240.46 230.95 235.13 232.50 229.76 C 234.05 224.39 235.51 218.54 238.18 214.00 C 240.84 209.46 243.93 205.39 248.47 202.54 C 253.02 199.69 260.01 198.26 265.47 196.88 C 270.92 195.50 275.74 194.48 281.20 194.28 C 286.66 194.07 293.49 194.65 298.23 195.64 C 302.97 196.64 305.28 197.50 309.63 200.24 C 313.98 202.98 320.25 207.75 324.33 212.09 C 328.42 216.43 331.88 221.75 334.16 226.27 C 336.44 230.79 337.13 234.41 337.99 239.21 C 338.85 244.02 339.07 249.69 339.32 255.11 C 339.57 260.53 339.78 265.80 339.50 271.72 C 339.22 277.64 338.95 285.17 337.64 290.64 C 336.32 296.11 334.15 299.90 331.62 304.54 C 329.08 309.18 325.92 314.37 322.44 318.48 C 318.96 322.59 315.06 325.81 310.72 329.19 C 306.38 332.57 300.66 336.14 296.39 338.78 C 292.12 341.42 290.27 343.46 285.11 345.05 C 279.95 346.65 271.31 347.77 265.44 348.35 C 259.56 348.94 255.63 349.41 249.85 348.57 C 244.06 347.73 236.32 344.86 230.73 343.29 C 225.13 341.72 221.07 341.76 216.28 339.15 C 211.48 336.54 205.97 331.69 201.97 327.65 C 197.96 323.61 195.19 319.56 192.26 314.91 C 189.33 310.27 186.40 305.06 184.40 299.76 C 182.39 294.46 180.60 289.42 180.22 283.12 C 179.84 276.82 180.80 268.98 182.12 261.97 C 183.44 254.96 185.30 246.73 188.16 241.07 C 191.01 235.41 194.62 232.66 199.24 228.00 C 203.87 223.35 210.72 216.88 215.90 213.15 C 221.09 209.43 224.64 207.29 230.34 205.64 C 236.04 203.99 244.23 203.09 250.11 203.25 C 255.99 203.42 260.45 203.98 265.64 206.64 C 270.82 209.30 276.57 215.51 281.22 219.23 C 285.87 222.95 290.06 224.14 293.51 228.97 C 296.96 233.80 299.83 242.89 301.92 248.22 C 304.02 253.54 305.86 255.92 306.09 260.90 C 306.31 265.89 304.64 272.58 303.29 278.10 C 301.94 283.63 300.52 289.12 297.98 294.07 C 295.43 299.03 291.62 304.12 288.01 307.83 C 284.41 311.53 281.62 314.05 276.35 316.30 C 271.08 318.55 262.35 320.58 256.39 321.34 C 250.44 322.10 246.17 321.64 240.63 320.87 C 235.09 320.10 228.86 319.54 223.16 316.71 C 217.45 313.89 210.63 308.51 206.40 303.93 C 202.17 299.35 200.15 294.93 197.78 289.24 C 195.42 283.55 192.91 275.76 192.21 269.81 C 191.51 263.85 192.54 259.49 193.57 253.50 C 194.59 247.50 195.51 238.94 198.38 233.85 C 201.24 228.77 206.15 226.83 210.75 222.99 C 215.36 219.14 220.74 214.17 225.98 210.79 C 231.23 207.40 236.20 205.17 242.23 202.67 C 248.27 200.17 256.70 197.05 262.19 195.78 C 267.69 194.52 270.24 194.05 275.19 195.07 C 280.15 196.09 286.52 198.99 291.93 201.90 C 297.34 204.80 303.03 208.62 307.66 212.48 C 312.29 216.34 316.15 221.64 319.71 225.08 C 323.27 228.53 325.91 229.85 329.01 233.15 C 332.10 236.45 335.74 240.94 338.30 244.88 C 340.85 248.82 341.99 252.40 344.34 256.77 C 346.68 261.14 350.18 267.28 352.35 271.12 C 354.53 274.95 355.17 276.32 357.39 279.77 C 359.61 283.22 363.03 288.44 365.68 291.83 C 368.34 295.21 370.59 297.92 373.30 300.10 C 376.02 302.29 378.55 303.42 381.98 304.94 C 385.41 306.46 390.66 307.97 393.90 309.20 C 397.14 310.43 398.32 312.34 401.43 312.31 C 404.53 312.29 409.35 310.42 412.55 309.05 C 415.75 307.68 418.11 306.92 420.62 304.11 C 423.13 301.31 425.34 295.72 427.62 292.22 C 429.89 288.73 432.47 287.25 434.27 283.14 C 436.07 279.03 437.74 272.15 438.41 267.55 C 439.08 262.96 437.80 259.92 438.30 255.55 C 438.80 251.18 440.61 245.72 441.41 241.33 C 442.22 236.95 442.94 233.50 443.11 229.24 C 443.28 224.98 442.72 220.13 442.43 215.78 C 442.13 211.42 441.67 207.19 441.33 203.11 C 440.98 199.03 440.27 194.79 440.36 191.28 C 440.46 187.77 441.37 184.93 441.90 182.05 C 442.43 179.17 442.28 176.29 443.52 174.02 C 444.76 171.76 447.92 170.04 449.34 168.46 C 450.76 166.89 450.10 165.15 452.03 164.59 C 453.96 164.03 458.63 164.73 460.93 165.11 C 463.23 165.49 463.72 165.77 465.84 166.88 C 467.97 168.00 471.24 169.86 473.67 171.80 C 476.11 173.73 477.91 175.96 480.44 178.48 C 482.97 181.00 487.04 183.69 488.84 186.93 C 490.65 190.17 490.34 193.64 491.26 197.91 C 492.19 202.18 493.84 207.69 494.39 212.54 C 494.93 217.40 494.56 222.01 494.51 227.01 C 494.46 232.01 494.36 237.35 494.11 242.54 C 493.85 247.74 493.05 253.06 493.00 258.19 C 492.95 263.32 493.69 268.99 493.78 273.31 C 493.87 277.62 493.20 280.55 493.56 284.08 C 493.92 287.60 495.12 291.72 495.94 294.47 C 496.76 297.22 497.49 298.50 498.45 300.57 C 499.41 302.65 500.53 305.28 501.70 306.92 C 502.87 308.56 504.13 310.25 505.48 310.40 C 506.84 310.54 508.80 309.20 509.83 307.76 C 510.85 306.32 513.83 303.58 511.61 301.75 C 509.39 299.93 504.39 298.05 496.51 296.82 C 488.63 295.59 474.11 294.94 464.35 294.35 C 454.60 293.76 447.14 292.52 437.96 293.27 C 428.79 294.02 417.40 296.63 409.32 298.87 C 401.25 301.12 396.83 303.54 389.50 306.73 C 382.18 309.92 371.96 314.62 365.37 318.01 C 358.78 321.39 354.68 323.41 349.95 327.05 C 345.22 330.69 340.46 335.72 337.01 339.86 C 333.55 344.00 331.44 347.19 329.20 351.89 C 326.96 356.58 324.51 363.53 323.56 368.03 C 322.61 372.52 323.15 375.27 323.50 378.87 C 323.84 382.46 324.15 386.69 325.65 389.61 C 327.14 392.53 330.17 393.72 332.48 396.40 C 334.80 399.09 337.10 403.38 339.52 405.73 C 341.94 408.08 344.50 409.15 347.00 410.52 C 349.50 411.90 352.49 412.79 354.52 414.00 C 356.56 415.20 357.39 415.87 359.21 417.75 C 361.03 419.62 363.59 422.64 365.45 425.25 C 367.30 427.87 369.23 431.22 370.35 433.42 C 371.47 435.61 371.25 436.53 372.15 438.42 C 373.05 440.32 375.46 442.45 375.76 444.78 C 376.07 447.11 375.12 449.81 373.98 452.38 C 372.84 454.94 370.30 458.04 368.91 460.19 C 367.52 462.35 367.34 463.61 365.64 465.30 C 363.94 466.99 361.05 468.42 358.70 470.31 C 356.36 472.21 354.57 474.74 351.55 476.65 C 348.52 478.55 344.21 480.39 340.55 481.76 C 336.90 483.13 334.15 483.78 329.62 484.86 C 325.10 485.94 317.88 487.68 313.40 488.23 C 308.93 488.79 307.56 488.40 302.79 488.21 C 298.02 488.03 290.10 487.44 284.80 487.13 C 279.50 486.82 275.71 486.67 270.98 486.34 C 266.24 486.01 260.80 485.29 256.38 485.15 C 251.95 485.01 248.76 485.12 244.44 485.49 C 240.11 485.86 234.73 486.87 230.43 487.37 C 226.14 487.88 221.97 488.04 218.68 488.52 C 215.40 489.00 213.63 489.80 210.71 490.27 C 207.78 490.73 203.91 490.61 201.13 491.29 C 198.34 491.98 196.57 493.37 193.98 494.39 C 191.39 495.41 188.53 497.24 185.58 497.40 C 182.64 497.57 179.59 495.70 176.32 495.38 C 173.06 495.06 169.29 495.56 165.99 495.50 C 162.68 495.43 160.02 495.52 156.49 494.99 C 152.97 494.46 148.53 493.28 144.84 492.31 C 141.14 491.34 137.91 490.41 134.31 489.17 C 130.71 487.94 126.62 486.54 123.25 484.91 C 119.88 483.28 117.45 481.31 114.09 479.39 C 110.73 477.47 105.98 474.77 103.10 473.38 C 100.23 471.99 99.60 472.20 96.85 471.04 C 94.10 469.88 89.18 467.94 86.62 466.43 C 84.06 464.93 83.09 462.40 81.49 462.01 C 79.89 461.62 78.32 463.65 77.03 464.09 C 75.73 464.53 73.79 463.81 73.73 464.66 C 73.66 465.51 75.72 467.66 76.63 469.18 C 77.53 470.71 77.97 472.10 79.15 473.80 C 80.34 475.51 81.30 477.57 83.73 479.42 C 86.17 481.27 90.43 483.06 93.75 484.90 C 97.08 486.74 99.21 489.06 103.68 490.45 C 108.14 491.83 115.30 492.21 120.53 493.22 C 125.76 494.22 129.02 496.25 135.05 496.48 C 141.07 496.70 149.84 495.58 156.67 494.58 C 163.50 493.58 169.35 492.24 176.04 490.48 C 182.72 488.73 189.99 486.73 196.78 484.06 C 203.56 481.40 209.71 477.89 216.73 474.48 C 223.75 471.07 232.89 466.94 238.92 463.62 C 244.95 460.29 247.17 457.87 252.91 454.54 C 258.65 451.22 267.67 447.08 273.36 443.69 C 279.05 440.30 281.62 437.14 287.07 434.19 C 292.52 431.24 300.41 428.59 306.06 425.97 C 311.71 423.35 315.87 421.09 320.98 418.46 C 326.09 415.84 331.60 412.39 336.73 410.23 C 341.85 408.08 347.65 406.53 351.75 405.52 C 355.84 404.50 357.99 404.57 361.29 404.16 C 364.59 403.75 369.05 403.21 371.55 403.07 C 374.06 402.93 374.05 402.71 376.33 403.34 C 378.61 403.98 383.16 405.58 385.24 406.87 C 387.31 408.16 387.79 408.87 388.80 411.07 C 389.81 413.28 391.13 417.45 391.28 420.09 C 391.43 422.74 389.83 424.66 389.70 426.96 C 389.56 429.25 390.93 431.58 390.48 433.86 C 390.03 436.14 387.69 438.25 387.00 440.66 C 386.31 443.08 386.52 446.29 386.35 448.34 C 386.19 450.40 386.03 451.43 386.02 453.00 C 386.01 454.57 386.02 456.15 386.31 457.76 C 386.60 459.36 387.16 461.00 387.77 462.66 C 388.38 464.32 389.44 466.16 389.99 467.72 C 390.54 469.29 390.42 470.72 391.05 472.04 C 391.67 473.35 393.02 474.45 393.73 475.63 C 394.45 476.81 394.80 478.63 395.35 479.11 C 395.90 479.59 396.59 477.87 397.03 478.52 C 397.47 479.16 398.03 481.69 397.98 482.98 C 397.92 484.27 397.25 485.24 396.70 486.24 C 396.16 487.25 395.47 487.95 394.72 489.03 C 393.96 490.10 393.50 491.51 392.18 492.69 C 390.87 493.86 388.64 494.84 386.84 496.09 C 385.03 497.34 383.26 498.64 381.37 500.19 C 379.47 501.74 377.45 503.96 375.45 505.39 C 373.45 506.81 372.32 507.72 369.38 508.73 C 366.43 509.74 361.26 515.72 357.76 511.45 C 354.25 507.17 351.17 493.33 348.33 483.08 C 345.48 472.83 342.54 459.76 340.66 449.97 C 338.79 440.18 338.27 433.86 337.06 424.33 C 335.85 414.80 334.51 401.67 333.38 392.81 C 332.25 383.96 331.46 379.10 330.26 371.22 C 329.06 363.34 327.45 353.05 326.19 345.53 C 324.92 338.01 324.70 332.64 322.66 326.09 C 320.63 319.54 317.34 312.15 313.96 306.26 C 310.58 300.37 306.85 295.80 302.40 290.73 C 297.96 285.67 292.36 280.57 287.31 275.88 C 282.26 271.18 277.18 266.04 272.08 262.54 C 266.98 259.04 262.04 257.58 256.72 254.89 C 251.40 252.20 245.20 248.18 240.16 246.41 C 235.13 244.64 231.86 245.62 226.49 244.28 C 221.12 242.94 212.79 239.45 207.92 238.37 C 203.06 237.28 201.08 238.41 197.31 237.80 C 193.54 237.19 189.00 235.67 185.29 234.71 C 181.57 233.75 179.20 232.86 175.01 232.04 C 170.81 231.21 164.10 230.79 160.09 229.77 C 156.09 228.74 154.33 227.02 151.00 225.89 C 147.67 224.75 143.40 223.73 140.13 222.95 C 136.87 222.18 134.74 221.31 131.44 221.25 C 128.13 221.19 123.29 222.09 120.32 222.60 C 117.35 223.11 116.72 223.58 113.62 224.31 C 110.51 225.03 105.32 225.62 101.69 226.93 C 98.07 228.24 94.93 229.61 91.85 232.17 C 88.77 234.74 85.38 238.07 83.22 242.32 C 81.06 246.58 79.82 253.21 78.88 257.69 C 77.94 262.18 77.75 264.68 77.57 269.24 C 77.39 273.80 76.54 280.17 77.79 285.07 C 79.05 289.97 81.38 293.81 85.11 298.63 C 88.84 303.44 95.45 309.58 100.17 313.97 C 104.88 318.36 108.30 321.10 113.41 324.97 C 118.52 328.84 124.96 334.34 130.82 337.20 C 136.67 340.07 141.77 340.41 148.53 342.16 C 155.29 343.92 164.45 346.92 171.37 347.72 C 178.28 348.51 182.79 347.31 190.04 346.91 C 197.28 346.51 207.51 346.34 214.83 345.34 C 222.16 344.33 227.55 343.22 233.98 340.86 C 240.41 338.51 247.54 333.91 253.41 331.20 C 259.28 328.50 263.48 326.85 269.20 324.65 C 274.92 322.45 282.03 320.13 287.72 318.02 C 293.42 315.91 297.92 314.61 303.35 312.01 C 308.78 309.41 315.56 305.25 320.30 302.41 C 325.05 299.56 327.59 297.50 331.83 294.94 C 336.06 292.39 341.06 289.85 345.74 287.09 C 350.41 284.32 355.63 280.52 359.88 278.34 C 364.14 276.16 367.36 275.29 371.28 274.03 C 375.19 272.77 379.85 271.73 383.37 270.78 C 386.88 269.83 388.65 268.87 392.35 268.34 C 396.05 267.82 402.12 267.63 405.55 267.62 C 408.98 267.62 410.17 267.07 412.94 268.32 C 415.71 269.58 419.77 273.24 422.18 275.14 C 424.59 277.05 425.49 277.96 427.41 279.75 C 429.33 281.54 431.80 283.19 433.70 285.86 C 435.61 288.53 438.21 292.11 438.84 295.77 C 439.47 299.43 437.55 303.98 437.46 307.85 C 437.37 311.72 439.03 314.84 438.27 318.99 C 437.52 323.14 434.99 328.43 432.93 332.77 C 430.87 337.11 429.12 340.74 425.93 345.03 C 422.73 349.33 417.57 354.58 413.74 358.53 C 409.92 362.48 408.34 365.93 402.96 368.71 C 397.58 371.49 389.01 373.16 381.45 375.20 C 373.88 377.24 364.71 379.61 357.57 380.96 C 350.42 382.32 345.43 383.43 338.58 383.32 C 331.72 383.20 323.20 381.43 316.43 380.26 C 309.66 379.08 304.45 377.97 297.95 376.28 C 291.45 374.59 283.10 372.71 277.43 370.10 C 271.76 367.49 268.78 364.56 263.93 360.61 C 259.08 356.66 253.21 351.21 248.34 346.39 C 243.46 341.57 239.32 337.17 234.68 331.70 C 230.04 326.23 223.45 319.03 220.52 313.57 C 217.59 308.10 218.16 305.46 217.10 298.91 C 216.04 292.36 214.20 281.15 214.17 274.26 C 214.14 267.37 215.31 263.91 216.92 257.56 C 218.53 251.20 221.52 241.72 223.81 236.12 C 226.11 230.52 227.37 227.89 230.67 223.93 C 233.98 219.97 239.83 216.00 243.63 212.37 C 247.42 208.75 249.30 205.57 253.44 202.18 C 257.59 198.79 264.84 195.09 268.47 192.03 C 272.11 188.97 271.82 186.92 275.23 183.83 C 278.65 180.74 284.85 176.97 288.94 173.52 C 293.04 170.06 296.80 165.99 299.80 163.08 C 302.81 160.17 304.29 158.86 306.98 156.06 C 309.68 153.27 313.67 149.46 315.97 146.31 C 318.26 143.17 319.94 140.66 320.74 137.17 C 321.53 133.69 321.37 128.70 320.73 125.40 C 320.10 122.09 319.00 120.37 316.91 117.34 C 314.83 114.30 311.42 109.98 308.21 107.17 C 304.99 104.36 302.01 102.77 297.61 100.48 C 293.21 98.19 287.20 94.95 281.83 93.44 C 276.47 91.93 271.78 90.89 265.44 91.43 C 259.11 91.96 249.92 94.24 243.81 96.65 C 237.70 99.06 234.66 102.36 228.77 105.90 C 222.89 109.43 213.64 113.96 208.49 117.86 C 203.34 121.77 201.64 124.72 197.88 129.35 C 194.12 133.98 189.82 140.52 185.91 145.64 C 182.00 150.75 179.01 152.92 174.43 160.02 C 169.84 167.12 161.06 183.55 158.39 188.25" fill="none" stroke="#fff" stroke-width="4.48" stroke-opacity="1" stroke-linecap="round" stroke-linejoin="round"/>
  </g>
</svg>