<?xml version="1.0" encoding="UTF-8"?>
<svg xmlns="http://www.w3.org/2000/svg" width="512" height="512" viewBox="0 0 512 512">
  <rect width="100%" height="100%" fill="#000"/>
  <g>
    <path d="M 256.00 256.00 C 257.98 255.88 263.55 256.12 267.91 255.30 C 272.27 254.47 277.74 252.94 282.17 251.07 C 286.61 249.20 290.76 246.84 294.52 244.07 C 298.28 241.29 302.09 237.32 304.73 234.43 C 307.37 231.53 308.58 229.84 310.35 226.70 C 312.13 223.56 314.25 219.46 315.38 215.58 C 316.52 211.70 317.21 207.58 317.14 203.41 C 317.08 199.24 316.05 194.22 315.01 190.58 C 313.96 186.93 312.91 184.81 310.89 181.54 C 308.86 178.26 306.05 174.03 302.85 170.92 C 299.66 167.81 295.75 165.21 291.72 162.87 C 287.69 160.52 282.93 158.71 278.68 156.85 C 274.43 155.00 269.92 153.11 266.23 151.73 C 262.54 150.35 260.16 149.74 256.56 148.57 C 252.96 147.40 248.48 145.99 244.62 144.70 C 240.77 143.42 237.21 141.87 233.42 140.87 C 229.63 139.88 225.20 139.39 221.87 138.72 C 218.54 138.05 216.55 137.62 213.43 136.86 C 210.32 136.11 206.27 135.32 203.18 134.19 C 200.09 133.06 197.56 131.48 194.89 130.10 C 192.22 128.71 189.49 127.39 187.17 125.88 C 184.85 124.36 182.53 122.59 180.98 120.98 C 179.42 119.38 178.85 118.08 177.84 116.26 C 176.83 114.45 175.52 112.27 174.93 110.09 C 174.33 107.92 174.26 105.51 174.27 103.21 C 174.28 100.91 174.71 98.24 174.99 96.30 C 175.26 94.36 175.70 93.35 175.92 91.54 C 176.14 89.73 176.31 87.47 176.31 85.45 C 176.32 83.44 176.19 81.30 175.94 79.45 C 175.70 77.60 175.01 75.96 174.83 74.35 C 174.65 72.73 174.89 71.09 174.86 69.76 C 174.83 68.43 174.94 67.63 174.65 66.36 C 174.37 65.09 173.89 63.33 173.14 62.14 C 172.39 60.96 171.03 60.26 170.15 59.25 C 169.28 58.24 168.82 56.90 167.92 56.08 C 167.01 55.27 166.22 54.67 164.74 54.36 C 163.27 54.05 161.25 53.87 159.08 54.24 C 156.92 54.61 154.32 55.53 151.75 56.57 C 149.18 57.61 146.41 59.05 143.66 60.48 C 140.91 61.90 137.69 63.69 135.24 65.10 C 132.79 66.51 131.37 67.24 128.96 68.93 C 126.55 70.62 123.50 72.60 120.76 75.23 C 118.02 77.87 115.22 81.47 112.53 84.72 C 109.84 87.97 106.77 91.70 104.61 94.71 C 102.45 97.72 101.47 99.38 99.57 102.77 C 97.67 106.15 95.20 110.93 93.21 115.02 C 91.22 119.12 89.49 123.34 87.63 127.35 C 85.76 131.36 83.61 135.66 82.00 139.09 C 80.39 142.52 79.45 144.68 77.96 147.94 C 76.47 151.20 74.62 155.12 73.06 158.65 C 71.50 162.18 70.11 165.92 68.60 169.13 C 67.09 172.34 65.59 175.09 64.02 177.91 C 62.45 180.74 60.56 183.91 59.18 186.07 C 57.80 188.23 57.09 189.16 55.73 190.86 C 54.38 192.56 52.56 194.81 51.07 196.27 C 49.57 197.74 48.12 198.89 46.79 199.63 C 45.46 200.38 44.16 200.48 43.06 200.75 C 41.96 201.02 41.26 201.15 40.20 201.25 C 39.14 201.36 37.88 201.16 36.71 201.38 C 35.53 201.60 34.22 201.90 33.15 202.56 C 32.07 203.22 31.34 204.28 30.25 205.36 C 29.16 206.44 27.49 207.75 26.58 209.05 C 25.68 210.35 25.54 211.43 24.80 213.15 C 24.07 214.88 22.89 217.13 22.18 219.39 C 21.47 221.65 21.17 224.33 20.57 226.73 C 19.96 229.14 19.01 231.75 18.57 233.84 C 18.13 235.93 18.20 236.97 17.92 239.27 C 17.63 241.56 17.12 244.85 16.87 247.59 C 16.62 250.34 16.55 253.04 16.40 255.71 C 16.24 258.39 16.10 260.91 15.94 263.66 C 15.78 266.40 15.55 269.86 15.43 272.18 C 15.31 274.49 15.41 275.68 15.22 277.54 C 15.03 279.41 14.66 281.58 14.31 283.36 C 13.97 285.15 13.65 287.02 13.14 288.26 C 12.63 289.50 11.86 290.27 11.25 290.79 C 10.65 291.31 10.16 291.40 9.54 291.36 C 8.91 291.32 8.18 291.23 7.49 290.54 C 6.81 289.85 5.96 288.57 5.42 287.22 C 4.88 285.87 4.54 284.23 4.27 282.43 C 4.00 280.63 3.94 278.29 3.81 276.43 C 3.67 274.58 3.51 273.44 3.46 271.30 C 3.41 269.17 3.66 266.00 3.51 263.63 C 3.36 261.26 2.78 259.25 2.57 257.06 C 2.36 254.87 2.30 252.32 2.25 250.51 C 2.20 248.69 2.34 247.72 2.27 246.18 C 2.21 244.64 2.02 243.01 1.87 241.26 C 1.71 239.52 1.57 237.22 1.37 235.69 C 1.17 234.16 0.84 232.88 0.66 232.11 C 0.48 231.33 -3.12 231.67 0.29 231.05 C 3.70 230.42 13.09 229.35 21.11 228.34 C 29.12 227.32 39.56 225.99 48.37 224.97 C 57.17 223.95 65.46 222.79 73.94 222.22 C 82.41 221.65 91.95 221.57 99.19 221.57 C 106.44 221.57 110.61 221.65 117.43 222.21 C 124.25 222.78 132.66 223.70 140.09 224.96 C 147.52 226.22 155.07 227.90 161.99 229.77 C 168.91 231.64 176.13 233.98 181.61 236.17 C 187.09 238.36 190.01 240.11 194.86 242.89 C 199.71 245.67 205.84 249.34 210.71 252.84 C 215.58 256.35 219.98 260.10 224.11 263.93 C 228.23 267.76 231.87 271.97 235.48 275.81 C 239.08 279.65 242.85 283.77 245.74 286.97 C 248.62 290.17 250.52 291.69 252.77 295.02 C 255.02 298.35 257.80 302.87 259.24 306.96 C 260.68 311.05 261.41 315.43 261.39 319.57 C 261.38 323.70 260.18 328.41 259.14 331.76 C 258.10 335.11 257.09 336.88 255.16 339.65 C 253.23 342.42 250.31 345.76 247.56 348.39 C 244.80 351.02 241.82 353.35 238.63 355.42 C 235.43 357.50 232.03 359.69 228.39 360.82 C 224.75 361.96 220.39 362.34 216.77 362.25 C 213.16 362.16 210.45 361.80 206.70 360.29 C 202.96 358.78 198.17 356.30 194.30 353.21 C 190.42 350.12 186.60 346.00 183.46 341.75 C 180.33 337.49 177.63 332.01 175.48 327.69 C 173.33 323.38 171.84 320.55 170.55 315.86 C 169.27 311.17 168.05 305.23 167.75 299.56 C 167.45 293.90 167.94 287.62 168.75 281.85 C 169.57 276.09 170.73 270.41 172.65 264.98 C 174.57 259.55 177.49 253.45 180.25 249.25 C 183.02 245.06 185.27 243.07 189.24 239.82 C 193.20 236.56 198.82 232.24 204.04 229.72 C 209.25 227.21 214.92 225.96 220.51 224.72 C 226.10 223.49 232.78 222.93 237.58 222.32 C 242.38 221.71 244.71 221.34 249.31 221.07 C 253.91 220.80 260.00 220.52 265.16 220.70 C 270.32 220.89 275.32 221.60 280.28 222.17 C 285.24 222.74 290.78 223.60 294.91 224.12 C 299.04 224.64 301.21 225.14 305.04 225.30 C 308.86 225.47 313.75 225.19 317.86 225.13 C 321.97 225.07 325.89 225.16 329.68 224.95 C 333.47 224.74 337.05 224.40 340.59 223.88 C 344.14 223.37 348.06 222.58 350.95 221.85 C 353.83 221.12 355.41 220.62 357.92 219.48 C 360.43 218.35 363.54 216.80 366.01 215.05 C 368.48 213.30 370.88 211.53 372.75 208.99 C 374.62 206.44 376.22 202.47 377.24 199.77 C 378.25 197.08 378.65 195.81 378.83 192.83 C 379.02 189.84 378.72 185.52 378.34 181.87 C 377.96 178.22 377.50 174.47 376.56 170.94 C 375.63 167.42 374.42 164.16 372.73 160.73 C 371.04 157.30 368.24 153.40 366.41 150.38 C 364.59 147.36 364.04 145.38 361.78 142.60 C 359.52 139.82 355.95 136.41 352.86 133.70 C 349.76 130.99 346.67 128.74 343.20 126.36 C 339.73 123.98 335.47 121.33 332.05 119.42 C 328.63 117.51 326.26 116.54 322.68 114.89 C 319.10 113.25 314.61 111.26 310.54 109.53 C 306.47 107.81 302.16 106.06 298.25 104.53 C 294.34 103.01 290.58 101.87 287.09 100.38 C 283.60 98.89 280.16 96.96 277.31 95.58 C 274.47 94.20 272.34 93.52 270.00 92.08 C 267.66 90.64 265.10 88.76 263.26 86.95 C 261.41 85.15 260.41 83.08 258.91 81.26 C 257.42 79.44 255.57 77.54 254.30 76.03 C 253.02 74.53 252.22 73.67 251.26 72.23 C 250.29 70.79 249.23 69.00 248.52 67.40 C 247.81 65.80 247.20 64.20 247.00 62.63 C 246.79 61.06 247.13 59.53 247.30 57.97 C 247.46 56.41 247.74 54.61 247.99 53.30 C 248.23 51.98 248.63 51.38 248.76 50.09 C 248.89 48.80 248.49 46.98 248.78 45.57 C 249.07 44.15 249.94 42.90 250.51 41.60 C 251.08 40.30 252.04 38.84 252.22 37.76 C 252.39 36.68 252.08 36.17 251.56 35.14 C 251.04 34.11 250.26 32.64 249.09 31.58 C 247.91 30.53 246.26 29.60 244.48 28.83 C 242.71 28.06 240.44 27.29 238.44 26.96 C 236.44 26.63 235.11 26.55 232.46 26.85 C 229.82 27.15 226.22 27.56 222.56 28.75 C 218.90 29.93 214.53 31.87 210.51 33.95 C 206.48 36.02 202.46 38.37 198.41 41.21 C 194.36 44.05 189.70 47.76 186.20 50.98 C 182.71 54.20 180.69 56.57 177.45 60.54 C 174.21 64.51 170.07 69.61 166.75 74.82 C 163.44 80.02 160.23 85.82 157.56 91.76 C 154.89 97.70 152.50 104.88 150.76 110.47 C 149.01 116.05 148.13 119.45 147.08 125.28 C 146.02 131.11 144.61 138.65 144.40 145.45 C 144.19 152.24 144.36 159.30 145.83 166.03 C 147.30 172.76 150.12 179.41 153.22 185.82 C 156.32 192.23 161.06 199.27 164.43 204.50 C 167.79 209.73 169.51 212.78 173.39 217.20 C 177.28 221.62 182.61 227.15 187.74 231.01 C 192.88 234.87 198.59 237.94 204.22 240.36 C 209.84 242.78 216.42 244.52 221.49 245.52 C 226.56 246.53 229.69 246.60 234.63 246.41 C 239.58 246.21 245.99 245.63 251.15 244.36 C 256.31 243.09 261.19 241.07 265.60 238.79 C 270.01 236.50 274.24 233.78 277.61 230.63 C 280.98 227.48 283.67 223.20 285.80 219.90 C 287.93 216.60 288.77 214.22 290.39 210.84 C 292.01 207.47 294.19 203.39 295.53 199.65 C 296.88 195.91 297.50 192.08 298.44 188.39 C 299.37 184.70 300.29 180.57 301.13 177.51 C 301.98 174.44 302.44 172.74 303.49 169.98 C 304.54 167.22 306.15 163.90 307.44 160.94 C 308.74 157.98 310.09 155.07 311.28 152.21 C 312.47 149.35 313.49 146.51 314.58 143.78 C 315.67 141.06 316.87 138.08 317.81 135.85 C 318.74 133.62 319.11 132.33 320.19 130.39 C 321.26 128.45 322.58 126.06 324.25 124.19 C 325.91 122.32 328.07 120.75 330.19 119.17 C 332.30 117.58 334.85 115.76 336.92 114.69 C 338.98 113.62 340.08 112.90 342.56 112.75 C 345.04 112.60 348.73 113.14 351.80 113.79 C 354.88 114.45 357.93 115.38 361.04 116.66 C 364.14 117.95 367.72 119.83 370.42 121.50 C 373.11 123.17 374.61 124.37 377.19 126.67 C 379.77 128.98 383.21 132.01 385.90 135.34 C 388.59 138.68 391.16 142.41 393.31 146.69 C 395.47 150.97 397.25 156.12 398.85 161.02 C 400.45 165.92 401.82 171.57 402.93 176.07 C 404.03 180.56 404.67 183.45 405.48 187.99 C 406.29 192.53 407.53 198.11 407.80 203.31 C 408.07 208.51 407.77 213.76 407.10 219.19 C 406.43 224.62 404.98 230.98 403.78 235.87 C 402.58 240.77 401.77 243.77 399.89 248.54 C 398.00 253.32 395.02 259.36 392.48 264.52 C 389.95 269.68 387.40 274.59 384.67 279.50 C 381.94 284.42 379.27 289.43 376.09 294.02 C 372.90 298.62 369.01 303.53 365.55 307.07 C 362.09 310.60 359.50 312.41 355.33 315.23 C 351.15 318.05 345.77 321.53 340.51 323.97 C 335.25 326.40 329.34 328.12 323.77 329.83 C 318.19 331.54 311.89 333.16 307.07 334.22 C 302.24 335.29 299.56 335.69 294.81 336.22 C 290.06 336.75 283.97 337.61 278.57 337.41 C 273.16 337.22 267.77 336.17 262.38 335.07 C 256.99 333.96 251.43 332.42 246.24 330.76 C 241.04 329.10 235.44 326.92 231.20 325.12 C 226.96 323.31 224.64 322.22 220.77 319.92 C 216.90 317.62 212.06 314.38 207.99 311.31 C 203.93 308.24 199.92 304.98 196.38 301.49 C 192.84 298.01 189.36 293.70 186.74 290.41 C 184.13 287.13 182.74 285.40 180.68 281.77 C 178.61 278.15 175.92 273.15 174.35 268.68 C 172.77 264.21 171.68 259.71 171.24 254.96 C 170.80 250.21 170.95 245.05 171.69 240.18 C 172.43 235.31 174.13 229.83 175.70 225.75 C 177.26 221.66 178.59 219.31 181.07 215.67 C 183.56 212.02 186.71 207.26 190.61 203.85 C 194.51 200.45 199.46 197.61 204.45 195.24 C 209.43 192.87 215.80 190.89 220.53 189.65 C 225.26 188.42 228.07 188.23 232.82 187.82 C 237.57 187.42 243.65 186.86 249.05 187.24 C 254.46 187.62 259.99 188.92 265.25 190.12 C 270.51 191.32 276.29 192.94 280.61 194.43 C 284.93 195.92 287.31 197.03 291.18 199.06 C 295.05 201.09 299.72 204.08 303.83 206.60 C 307.94 209.13 312.00 211.56 315.85 214.24 C 319.71 216.91 323.39 219.71 326.98 222.64 C 330.57 225.58 334.50 229.29 337.41 231.87 C 340.32 234.45 341.77 235.74 344.42 238.12 C 347.07 240.51 350.32 243.74 353.33 246.18 C 356.33 248.62 359.43 250.86 362.45 252.75 C 365.48 254.64 368.84 256.14 371.48 257.49 C 374.11 258.85 375.81 259.68 378.26 260.88 C 380.70 262.07 383.51 263.39 386.14 264.66 C 388.78 265.93 391.56 267.36 394.08 268.51 C 396.61 269.66 398.84 270.37 401.29 271.54 C 403.74 272.71 406.77 274.19 408.80 275.52 C 410.82 276.85 411.78 277.94 413.44 279.52 C 415.11 281.09 417.05 283.13 418.79 285.00 C 420.52 286.86 422.38 288.50 423.85 290.68 C 425.33 292.86 426.61 295.91 427.64 298.10 C 428.67 300.30 429.33 301.48 430.01 303.87 C 430.69 306.26 431.32 309.51 431.73 312.44 C 432.13 315.37 432.54 318.38 432.44 321.43 C 432.34 324.49 431.70 327.60 431.14 330.78 C 430.58 333.96 429.85 337.67 429.07 340.50 C 428.29 343.33 427.71 344.88 426.46 347.76 C 425.21 350.64 423.41 354.49 421.58 357.78 C 419.75 361.07 417.72 364.32 415.47 367.52 C 413.22 370.71 410.32 374.21 408.07 376.94 C 405.83 379.68 404.64 381.41 402.02 383.92 C 399.41 386.43 395.91 389.31 392.37 391.99 C 388.82 394.67 384.92 397.70 380.77 400.00 C 376.62 402.30 372.11 404.01 367.48 405.80 C 362.84 407.59 357.17 409.44 352.98 410.71 C 348.78 411.98 346.53 412.41 342.29 413.41 C 338.06 414.41 332.40 415.70 327.59 416.72 C 322.79 417.74 318.11 418.67 313.48 419.54 C 308.85 420.41 303.50 421.04 299.83 421.93 C 296.15 422.83 294.26 423.55 291.41 424.90 C 288.55 426.25 285.42 428.45 282.72 430.04 C 280.02 431.63 277.41 432.80 275.22 434.44 C 273.03 436.09 270.92 438.31 269.58 439.89 C 268.25 441.47 267.74 442.40 267.23 443.92 C 266.71 445.44 266.49 447.33 266.50 449.00 C 266.51 450.68 266.71 452.33 267.28 453.97 C 267.86 455.60 268.94 457.31 269.98 458.81 C 271.01 460.30 272.34 461.84 273.48 462.95 C 274.63 464.05 275.46 464.56 276.84 465.44 C 278.21 466.32 280.08 467.25 281.75 468.24 C 283.41 469.23 285.17 470.49 286.80 471.37 C 288.43 472.26 290.25 472.84 291.51 473.55 C 292.77 474.27 293.14 474.95 294.36 475.67 C 295.58 476.40 297.37 477.19 298.82 477.91 C 300.27 478.62 301.73 479.28 303.09 479.99 C 304.44 480.69 305.93 481.35 306.94 482.13 C 307.95 482.91 308.64 483.96 309.13 484.67 C 309.62 485.37 309.68 485.53 309.88 486.35 C 310.09 487.18 310.50 488.56 310.36 489.61 C 310.23 490.66 310.11 491.75 309.07 492.66 C 308.04 493.56 305.96 494.39 304.16 495.03 C 302.37 495.66 300.98 496.15 298.31 496.48 C 295.64 496.82 292.17 497.46 288.13 497.04 C 284.09 496.62 278.88 495.56 274.06 493.95 C 269.25 492.35 264.23 490.11 259.23 487.40 C 254.23 484.69 248.51 480.87 244.07 477.67 C 239.63 474.47 236.64 472.61 232.58 468.20 C 228.51 463.80 223.64 457.37 219.68 451.22 C 215.72 445.08 212.01 438.17 208.81 431.33 C 205.61 424.49 202.50 416.44 200.48 410.20 C 198.46 403.96 197.63 400.23 196.70 393.90 C 195.77 387.57 194.91 379.34 194.87 372.21 C 194.83 365.08 195.49 358.02 196.46 351.13 C 197.42 344.24 198.38 337.36 200.68 330.88 C 202.98 324.40 207.27 317.34 210.28 312.25 C 213.28 307.15 215.33 304.55 218.73 300.30 C 222.12 296.04 226.39 290.79 230.66 286.69 C 234.93 282.60 239.64 278.89 244.34 275.72 C 249.03 272.55 254.56 269.74 258.82 267.70 C 263.07 265.65 265.62 264.81 269.88 263.45 C 274.14 262.10 279.64 260.78 284.39 259.56 C 289.14 258.33 293.90 257.47 298.39 256.12 C 302.88 254.77 307.74 252.96 311.34 251.47 C 314.94 249.98 316.82 248.89 319.98 247.17 C 323.14 245.45 327.05 243.37 330.28 241.17 C 333.51 238.96 336.64 236.63 339.35 233.92 C 342.05 231.21 344.58 228.24 346.50 224.89 C 348.41 221.54 349.96 217.16 350.84 213.81 C 351.71 210.47 351.69 208.31 351.75 204.84 C 351.81 201.37 351.84 196.95 351.18 193.00 C 350.52 189.04 348.87 184.93 347.79 181.11 C 346.71 177.29 345.60 173.29 344.70 170.09 C 343.80 166.88 343.15 164.97 342.39 161.86 C 341.64 158.76 340.92 154.81 340.17 151.44 C 339.42 148.08 338.60 144.84 337.89 141.68 C 337.19 138.53 336.58 135.52 335.93 132.52 C 335.29 129.51 334.28 126.11 334.03 123.66 C 333.78 121.21 334.14 120.01 334.43 117.83 C 334.72 115.65 335.25 112.85 335.77 110.59 C 336.29 108.34 336.40 106.00 337.56 104.31 C 338.71 102.62 340.93 101.25 342.69 100.46 C 344.46 99.68 345.89 99.66 348.15 99.59 C 350.40 99.52 353.35 99.43 356.23 100.05 C 359.10 100.68 362.30 101.97 365.40 103.35 C 368.49 104.74 371.62 106.21 374.81 108.36 C 377.99 110.51 381.74 113.87 384.48 116.27 C 387.22 118.66 388.89 120.02 391.24 122.74 C 393.58 125.46 396.22 128.88 398.58 132.59 C 400.94 136.30 403.36 140.57 405.39 145.01 C 407.42 149.45 409.44 154.98 410.75 159.25 C 412.07 163.52 412.51 166.10 413.30 170.64 C 414.09 175.19 415.04 181.15 415.50 186.52 C 415.95 191.90 416.38 197.38 416.02 202.92 C 415.66 208.45 414.67 214.15 413.32 219.75 C 411.97 225.34 409.68 231.70 407.91 236.49 C 406.14 241.29 405.20 243.87 402.70 248.54 C 400.21 253.21 396.67 259.54 392.94 264.54 C 389.22 269.54 385.02 274.32 380.35 278.54 C 375.69 282.76 369.70 286.89 364.95 289.83 C 360.20 292.78 357.00 294.01 351.83 296.21 C 346.65 298.42 340.07 301.70 333.90 303.08 C 327.72 304.46 321.00 304.69 314.77 304.49 C 308.53 304.30 301.82 302.95 296.50 301.93 C 291.18 300.90 287.77 300.34 282.86 298.33 C 277.94 296.33 271.91 292.94 267.02 289.87 C 262.14 286.79 257.60 283.67 253.54 279.89 C 249.47 276.10 245.47 271.57 242.62 267.17 C 239.77 262.76 237.72 257.71 236.44 253.46 C 235.15 249.21 234.73 246.05 234.92 241.66 C 235.12 237.27 236.05 231.59 237.59 227.11 C 239.12 222.62 241.47 218.44 244.13 214.74 C 246.80 211.05 250.50 207.49 253.57 204.95 C 256.64 202.41 258.80 201.04 262.56 199.51 C 266.33 197.97 271.55 196.36 276.16 195.75 C 280.77 195.14 285.59 195.52 290.21 195.85 C 294.82 196.19 299.45 196.55 303.83 197.77 C 308.21 198.99 312.82 201.52 316.48 203.19 C 320.15 204.86 322.36 206.17 325.82 207.79 C 329.28 209.41 333.53 211.22 337.24 212.90 C 340.94 214.58 344.53 216.27 348.02 217.88 C 351.51 219.49 355.24 221.23 358.18 222.55 C 361.12 223.87 362.81 225.13 365.66 225.82 C 368.51 226.52 372.20 226.81 375.31 226.74 C 378.41 226.67 381.53 226.05 384.29 225.41 C 387.04 224.78 389.45 224.22 391.83 222.92 C 394.20 221.63 396.58 219.12 398.52 217.66 C 400.47 216.20 401.82 215.69 403.48 214.16 C 405.14 212.64 406.97 210.59 408.49 208.54 C 410.00 206.48 411.35 204.05 412.59 201.85 C 413.84 199.66 414.88 197.27 415.94 195.37 C 417.01 193.48 417.79 192.22 418.99 190.51 C 420.19 188.79 421.71 186.63 423.15 185.07 C 424.58 183.51 426.15 182.34 427.62 181.13 C 429.09 179.92 430.48 178.60 431.98 177.81 C 433.47 177.01 435.11 176.59 436.56 176.37 C 438.01 176.14 439.06 175.94 440.68 176.46 C 442.31 176.98 444.49 178.12 446.30 179.51 C 448.12 180.91 449.91 182.67 451.57 184.81 C 453.22 186.96 454.94 190.01 456.25 192.38 C 457.56 194.74 458.35 196.42 459.43 198.99 C 460.52 201.56 461.87 204.53 462.76 207.77 C 463.65 211.02 464.83 214.29 464.78 218.47 C 464.73 222.64 463.33 228.54 462.48 232.81 C 461.62 237.09 461.40 239.58 459.66 244.11 C 457.92 248.65 455.01 254.85 452.02 260.00 C 449.03 265.16 445.67 270.20 441.72 275.05 C 437.77 279.90 433.20 284.72 428.33 289.09 C 423.46 293.46 417.18 297.90 412.48 301.26 C 407.79 304.63 404.87 306.28 400.18 309.25 C 395.49 312.23 389.67 316.03 384.33 319.11 C 379.00 322.20 373.56 325.03 368.17 327.76 C 362.79 330.49 356.82 333.47 352.04 335.49 C 347.27 337.51 344.29 338.12 339.52 339.89 C 334.74 341.67 328.59 344.34 323.39 346.14 C 318.19 347.94 313.16 349.09 308.32 350.69 C 303.48 352.29 298.87 353.89 294.34 355.74 C 289.82 357.59 284.91 360.15 281.18 361.78 C 277.46 363.41 275.53 364.03 272.00 365.51 C 268.48 367.00 263.89 369.15 260.02 370.69 C 256.16 372.23 252.48 373.25 248.83 374.75 C 245.17 376.26 241.22 378.30 238.10 379.73 C 234.98 381.15 233.16 382.15 230.13 383.31 C 227.09 384.46 223.50 385.92 219.89 386.68 C 216.28 387.44 212.16 387.59 208.46 387.86 C 204.77 388.12 201.30 388.33 197.72 388.28 C 194.15 388.23 190.15 388.17 187.01 387.54 C 183.88 386.91 182.12 385.88 178.91 384.50 C 175.71 383.13 171.37 381.40 167.80 379.29 C 164.23 377.18 160.91 374.46 157.50 371.84 C 154.08 369.22 150.14 366.20 147.31 363.56 C 144.48 360.93 142.91 359.23 140.50 356.03 C 138.09 352.82 135.06 348.60 132.83 344.33 C 130.59 340.06 128.45 335.42 127.09 330.39 C 125.72 325.36 124.91 319.72 124.62 314.13 C 124.34 308.55 124.69 302.04 125.39 296.88 C 126.09 291.71 127.00 288.22 128.82 283.15 C 130.63 278.07 133.21 271.73 136.30 266.44 C 139.38 261.15 143.16 256.12 147.33 251.41 C 151.50 246.69 156.94 241.58 161.31 238.17 C 165.67 234.75 168.51 233.21 173.52 230.94 C 178.52 228.66 185.38 226.26 191.32 224.52 C 197.27 222.77 203.20 221.38 209.17 220.46 C 215.13 219.55 221.99 219.24 227.12 219.02 C 232.24 218.79 235.04 219.13 239.92 219.12 C 244.79 219.10 251.09 219.12 256.34 218.93 C 261.60 218.74 266.53 218.35 271.42 217.96 C 276.31 217.56 280.99 217.15 285.67 216.56 C 290.34 215.96 295.63 215.07 299.47 214.39 C 303.31 213.72 305.31 213.58 308.73 212.50 C 312.14 211.41 316.53 209.63 319.98 207.87 C 323.43 206.12 326.59 204.21 329.44 201.96 C 332.29 199.72 335.12 196.77 337.09 194.40 C 339.05 192.03 339.91 190.37 341.22 187.74 C 342.54 185.11 344.03 181.75 344.96 178.61 C 345.89 175.47 346.71 172.24 346.79 168.91 C 346.87 165.58 346.51 161.99 345.45 158.62 C 344.39 155.26 342.26 151.53 340.41 148.73 C 338.56 145.93 336.93 144.48 334.35 141.83 C 331.77 139.19 328.49 135.42 324.94 132.87 C 321.40 130.33 317.35 128.26 313.11 126.55 C 308.86 124.83 303.64 123.40 299.49 122.59 C 295.35 121.79 292.85 121.61 288.24 121.70 C 283.62 121.79 277.27 122.25 271.83 123.15 C 266.39 124.05 260.89 125.34 255.60 127.11 C 250.32 128.89 245.13 131.45 240.12 133.79 C 235.11 136.12 229.68 138.94 225.52 141.13 C 221.36 143.33 219.07 144.67 215.17 146.95 C 211.26 149.23 206.22 151.99 202.08 154.79 C 197.94 157.59 194.23 160.67 190.35 163.76 C 186.46 166.86 182.08 170.80 178.78 173.36 C 175.48 175.91 173.65 176.84 170.56 179.08 C 167.48 181.32 163.71 184.41 160.28 186.79 C 156.84 189.18 153.31 191.35 149.96 193.40 C 146.61 195.46 143.28 197.50 140.18 199.11 C 137.09 200.73 133.99 202.01 131.40 203.10 C 128.82 204.19 127.18 204.56 124.68 205.66 C 122.17 206.75 119.08 208.31 116.36 209.64 C 113.63 210.98 110.94 212.42 108.33 213.68 C 105.71 214.94 102.84 216.25 100.66 217.20 C 98.48 218.16 97.18 218.21 95.24 219.41 C 93.29 220.61 91.08 222.69 88.99 224.41 C 86.91 226.12 84.73 227.98 82.74 229.71 C 80.76 231.43 78.74 233.25 77.10 234.75 C 75.46 236.25 74.43 237.11 72.91 238.71 C 71.39 240.30 69.68 242.51 67.99 244.31 C 66.29 246.10 64.28 247.67 62.75 249.47 C 61.21 251.27 60.04 253.10 58.76 255.08 C 57.49 257.06 55.94 259.20 55.10 261.34 C 54.25 263.48 53.99 265.10 53.70 267.92 C 53.42 270.73 52.89 274.42 53.38 278.21 C 53.87 281.99 55.07 286.46 56.64 290.64 C 58.21 294.81 60.67 299.51 62.81 303.26 C 64.95 307.00 66.53 309.44 69.47 313.10 C 72.41 316.76 76.19 321.38 80.45 325.19 C 84.71 329.01 89.78 332.71 95.01 336.01 C 100.25 339.31 105.89 342.59 111.87 345.00 C 117.84 347.40 125.02 349.41 130.86 350.45 C 136.69 351.48 140.72 351.45 146.89 351.21 C 153.06 350.97 160.99 350.21 167.88 349.02 C 174.76 347.83 181.71 346.27 188.19 344.07 C 194.67 341.86 201.56 338.56 206.75 335.80 C 211.93 333.04 214.98 331.23 219.30 327.51 C 223.62 323.78 228.48 318.38 232.69 313.45 C 236.90 308.51 241.15 303.11 244.54 297.91 C 247.93 292.72 250.38 287.45 253.01 282.27 C 255.64 277.09 258.45 271.29 260.34 266.84 C 262.22 262.40 263.35 260.00 264.30 255.61 C 265.24 251.23 266.20 245.46 266.00 240.55 C 265.81 235.65 264.60 230.76 263.15 226.18 C 261.71 221.60 259.30 216.64 257.32 213.08 C 255.35 209.51 253.64 207.76 251.31 204.77 C 248.98 201.78 246.30 198.10 243.34 195.13 C 240.37 192.16 236.99 189.32 233.52 186.97 C 230.05 184.61 226.35 182.60 222.50 181.02 C 218.65 179.45 214.01 178.06 210.42 177.51 C 206.84 176.96 204.59 177.24 200.98 177.72 C 197.38 178.20 192.76 178.99 188.80 180.38 C 184.83 181.77 180.96 183.79 177.19 186.04 C 173.41 188.30 169.23 191.68 166.15 193.94 C 163.08 196.19 161.67 197.28 158.74 199.57 C 155.80 201.87 151.82 205.08 148.54 207.72 C 145.26 210.35 141.94 212.81 139.08 215.38 C 136.22 217.94 133.58 220.71 131.39 223.09 C 129.19 225.47 127.94 227.25 125.92 229.67 C 123.90 232.09 121.60 235.34 119.25 237.63 C 116.90 239.91 114.19 241.87 111.80 243.38 C 109.42 244.90 107.29 245.76 104.96 246.74 C 102.63 247.71 99.81 248.81 97.82 249.25 C 95.83 249.69 94.99 249.59 93.03 249.36 C 91.08 249.14 88.26 248.74 86.09 247.90 C 83.92 247.06 81.67 246.04 80.01 244.33 C 78.36 242.61 77.13 239.74 76.15 237.63 C 75.18 235.53 74.92 234.06 74.17 231.70 C 73.41 229.33 72.05 226.36 71.62 223.43 C 71.18 220.50 71.20 217.54 71.56 214.11 C 71.92 210.68 72.45 206.68 73.77 202.86 C 75.08 199.05 77.72 194.66 79.46 191.22 C 81.20 187.78 82.04 185.71 84.22 182.24 C 86.40 178.77 88.99 174.12 92.54 170.41 C 96.08 166.71 100.61 163.01 105.50 160.00 C 110.40 156.98 116.86 154.32 121.90 152.32 C 126.94 150.33 130.27 149.30 135.75 148.01 C 141.22 146.71 148.33 145.13 154.77 144.55 C 161.20 143.96 167.81 144.05 174.38 144.49 C 180.95 144.93 187.76 145.77 194.21 147.17 C 200.66 148.58 207.77 150.81 213.07 152.92 C 218.37 155.03 221.31 156.64 226.01 159.84 C 230.72 163.05 236.70 167.59 241.29 172.15 C 245.89 176.72 250.25 181.90 253.57 187.22 C 256.90 192.54 259.53 199.06 261.24 204.07 C 262.96 209.07 263.29 212.11 263.88 217.26 C 264.46 222.41 265.08 229.26 264.75 234.98 C 264.42 240.70 263.35 246.38 261.92 251.57 C 260.48 256.76 258.42 261.58 256.12 266.12 C 253.83 270.67 250.60 275.31 248.14 278.82 C 245.68 282.33 244.20 284.38 241.36 287.18 C 238.51 289.98 234.86 293.24 231.07 295.62 C 227.29 297.99 222.80 300.02 218.65 301.42 C 214.50 302.81 209.86 303.42 206.17 303.96 C 202.48 304.50 200.15 304.89 196.51 304.64 C 192.86 304.39 188.17 303.90 184.29 302.46 C 180.41 301.01 176.61 298.46 173.21 295.98 C 169.82 293.50 166.40 290.36 163.90 287.57 C 161.41 284.79 160.00 282.65 158.26 279.25 C 156.52 275.86 154.86 271.40 153.46 267.20 C 152.07 263.00 150.85 258.38 149.89 254.04 C 148.92 249.70 148.68 245.22 147.67 241.16 C 146.66 237.10 144.98 232.82 143.81 229.68 C 142.64 226.54 142.00 225.16 140.63 222.32 C 139.27 219.47 137.39 215.46 135.63 212.61 C 133.86 209.77 132.04 207.35 130.03 205.25 C 128.02 203.15 125.37 201.47 123.55 200.00 C 121.74 198.52 120.84 197.80 119.14 196.40 C 117.44 195.00 115.25 193.08 113.33 191.61 C 111.41 190.14 109.50 188.63 107.61 187.58 C 105.73 186.53 104.08 185.74 102.01 185.29 C 99.95 184.84 97.17 184.75 95.23 184.87 C 93.30 185.00 92.28 185.35 90.39 186.03 C 88.51 186.71 86.00 187.78 83.93 188.96 C 81.86 190.14 79.91 191.42 77.97 193.10 C 76.03 194.79 73.77 197.20 72.27 199.07 C 70.76 200.93 70.13 201.97 68.92 204.29 C 67.71 206.62 66.10 209.81 65.00 213.02 C 63.89 216.22 62.98 219.82 62.31 223.53 C 61.64 227.24 61.12 231.13 60.99 235.30 C 60.86 239.46 61.33 244.77 61.53 248.50 C 61.73 252.23 61.67 253.91 62.18 257.68 C 62.69 261.45 63.69 266.68 64.61 271.12 C 65.52 275.56 66.56 280.01 67.67 284.31 C 68.79 288.61 70.33 293.42 71.27 296.93 C 72.22 300.43 72.48 302.08 73.34 305.33 C 74.20 308.59 75.69 312.92 76.45 316.46 C 77.21 319.99 77.64 323.47 77.90 326.54 C 78.16 329.61 78.20 332.40 77.98 334.89 C 77.76 337.38 77.17 339.68 76.58 341.47 C 75.99 343.26 75.32 344.39 74.43 345.65 C 73.54 346.91 72.55 348.46 71.25 349.03 C 69.95 349.60 68.13 349.25 66.61 349.09 C 65.08 348.93 63.52 348.61 62.12 348.07 C 60.72 347.53 59.63 346.70 58.23 345.85 C 56.83 344.99 55.29 343.91 53.72 342.92 C 52.14 341.93 50.26 340.84 48.77 339.91 C 47.28 338.98 45.91 338.22 44.78 337.35 C 43.65 336.47 43.13 335.81 41.97 334.65 C 40.81 333.48 39.16 331.73 37.82 330.35 C 36.49 328.97 35.20 327.51 33.95 326.36 C 32.69 325.21 31.41 324.20 30.29 323.45 C 29.18 322.69 28.12 322.22 27.26 321.84 C 26.41 321.46 26.01 321.57 25.16 321.16 C 24.31 320.76 23.06 320.36 22.14 319.41 C 21.22 318.46 20.51 317.15 19.65 315.45 C 18.79 313.76 17.67 311.24 16.97 309.26 C 16.27 307.27 15.85 306.05 15.43 303.54 C 15.01 301.02 14.66 297.45 14.46 294.16 C 14.26 290.87 13.98 287.47 14.25 283.82 C 14.52 280.16 15.04 276.36 16.10 272.25 C 17.15 268.14 18.88 263.21 20.58 259.15 C 22.27 255.10 23.90 252.13 26.26 247.91 C 28.62 243.69 31.55 238.51 34.74 233.84 C 37.93 229.16 41.19 224.38 45.38 219.86 C 49.56 215.33 55.49 210.42 59.85 206.68 C 64.21 202.94 66.74 200.69 71.55 197.41 C 76.36 194.12 82.65 190.06 88.70 186.96 C 94.75 183.87 101.42 181.12 107.85 178.84 C 114.28 176.56 120.69 174.81 127.26 173.30 C 133.83 171.78 141.37 170.43 147.26 169.74 C 153.14 169.05 156.62 168.95 162.59 169.16 C 168.57 169.37 176.51 169.57 183.10 171.01 C 189.70 172.46 196.06 175.19 202.16 177.85 C 208.25 180.51 214.83 184.03 219.66 186.96 C 224.48 189.89 227.05 191.77 231.13 195.43 C 235.21 199.09 240.34 204.21 244.11 208.92 C 247.88 213.63 251.12 218.62 253.78 223.71 C 256.44 228.80 258.52 234.26 260.07 239.45 C 261.63 244.63 262.65 250.24 263.10 254.80 C 263.55 259.37 263.60 262.36 262.78 266.82 C 261.97 271.29 260.16 277.07 258.21 281.61 C 256.27 286.15 254.01 290.58 251.11 294.08 C 248.22 297.57 244.15 300.50 240.83 302.58 C 237.51 304.66 234.96 305.71 231.20 306.56 C 227.43 307.42 222.60 307.79 218.23 307.73 C 213.85 307.67 209.27 307.06 204.96 306.22 C 200.65 305.37 195.92 303.85 192.38 302.65 C 188.84 301.45 186.96 300.72 183.71 299.02 C 180.47 297.31 176.36 294.68 172.90 292.39 C 169.44 290.10 166.12 287.57 162.94 285.26 C 159.76 282.95 156.77 280.72 153.81 278.52 C 150.85 276.31 147.74 273.77 145.18 272.03 C 142.63 270.29 141.01 269.66 138.49 268.09 C 135.97 266.53 132.81 264.40 130.06 262.63 C 127.31 260.86 124.67 258.87 121.99 257.46 C 119.31 256.06 116.20 255.16 113.97 254.21 C 111.74 253.27 110.73 252.77 108.61 251.77 C 106.49 250.78 103.51 249.35 101.26 248.22 C 99.02 247.09 97.17 246.31 95.14 245.00 C 93.11 243.69 90.85 242.35 89.09 240.39 C 87.32 238.42 85.72 235.40 84.54 233.22 C 83.36 231.04 82.78 229.66 81.99 227.30 C 81.19 224.95 80.20 222.06 79.78 219.08 C 79.36 216.10 79.22 212.89 79.46 209.41 C 79.69 205.94 80.43 201.56 81.19 198.24 C 81.95 194.92 82.45 192.87 84.03 189.48 C 85.60 186.10 88.08 181.68 90.64 177.94 C 93.21 174.20 96.01 170.59 99.41 167.04 C 102.81 163.49 107.08 160.00 111.05 156.64 C 115.01 153.28 119.59 149.61 123.22 146.86 C 126.84 144.11 128.65 142.23 132.79 140.15 C 136.94 138.06 142.44 135.69 148.09 134.36 C 153.74 133.02 160.33 132.29 166.70 132.11 C 173.08 131.94 180.72 132.47 186.32 133.31 C 191.93 134.16 194.92 135.26 200.32 137.19 C 205.73 139.11 212.88 141.70 218.75 144.86 C 224.62 148.03 230.63 151.68 235.52 156.16 C 240.40 160.65 244.59 166.30 248.04 171.78 C 251.49 177.25 254.22 183.87 256.21 189.00 C 258.19 194.13 259.23 197.28 259.94 202.55 C 260.64 207.82 260.65 214.76 260.44 220.63 C 260.24 226.50 259.97 232.30 258.69 237.78 C 257.41 243.26 254.96 249.39 252.76 253.51 C 250.56 257.63 248.63 259.34 245.52 262.52 C 242.40 265.70 238.03 269.84 234.07 272.59 C 230.11 275.35 226.04 277.64 221.77 279.05 C 217.50 280.45 212.31 280.80 208.45 281.01 C 204.58 281.22 202.28 280.91 198.58 280.33 C 194.87 279.74 190.14 278.82 186.20 277.49 C 182.26 276.16 178.56 274.15 174.92 272.35 C 171.29 270.54 167.54 268.89 164.39 266.65 C 161.25 264.40 158.49 261.12 156.04 258.89 C 153.60 256.65 152.14 255.34 149.73 253.23 C 147.31 251.13 144.14 248.56 141.55 246.28 C 138.96 243.99 136.55 241.71 134.19 239.53 C 131.83 237.34 129.38 234.86 127.39 233.15 C 125.40 231.44 124.29 230.70 122.24 229.28 C 120.20 227.87 117.60 225.68 115.12 224.67 C 112.63 223.65 109.86 223.16 107.32 223.20 C 104.78 223.24 102.28 224.12 99.86 224.94 C 97.44 225.75 94.67 226.99 92.78 228.08 C 90.89 229.18 90.18 229.81 88.51 231.49 C 86.84 233.17 84.53 235.93 82.76 238.19 C 80.99 240.44 79.55 242.90 77.89 245.01 C 76.24 247.11 74.18 248.96 72.84 250.82 C 71.50 252.67 70.99 254.18 69.86 256.13 C 68.72 258.07 67.21 260.39 66.03 262.49 C 64.85 264.59 63.84 266.60 62.77 268.72 C 61.70 270.85 60.53 272.71 59.63 275.22 C 58.73 277.73 57.87 281.29 57.39 283.78 C 56.90 286.28 56.81 287.62 56.71 290.19 C 56.62 292.77 56.67 296.12 56.81 299.24 C 56.96 302.37 57.28 305.77 57.56 308.93 C 57.85 312.10 57.96 315.44 58.53 318.23 C 59.10 321.02 59.73 322.71 60.98 325.67 C 62.24 328.64 64.47 332.50 66.08 336.02 C 67.69 339.55 68.71 343.30 70.64 346.79 C 72.57 350.28 74.91 353.54 77.64 356.95 C 80.38 360.37 84.06 364.31 87.07 367.27 C 90.09 370.22 92.11 372.07 95.74 374.69 C 99.38 377.32 104.32 380.48 108.90 383.02 C 113.47 385.55 118.17 387.88 123.18 389.91 C 128.19 391.95 134.28 393.84 138.98 395.21 C 143.68 396.58 146.26 397.47 151.39 398.14 C 156.52 398.81 163.62 399.21 169.78 399.22 C 175.93 399.24 182.13 399.28 188.33 398.24 C 194.52 397.20 201.56 395.03 206.94 392.98 C 212.32 390.93 215.58 389.32 220.61 385.95 C 225.63 382.57 232.10 377.65 237.09 372.73 C 242.07 367.81 246.60 362.05 250.53 356.45 C 254.46 350.85 257.89 344.96 260.66 339.11 C 263.43 333.25 265.75 326.67 267.14 321.30 C 268.53 315.93 269.05 312.28 269.02 306.88 C 268.99 301.48 268.12 294.66 266.95 288.89 C 265.78 283.12 263.92 277.49 261.99 272.24 C 260.07 266.99 257.45 261.53 255.38 257.38 C 253.31 253.24 251.75 251.21 249.58 247.39 C 247.42 243.57 244.81 238.55 242.39 234.46 C 239.97 230.37 237.59 226.61 235.07 222.85 C 232.56 219.09 229.81 215.51 227.29 211.90 C 224.77 208.28 221.95 204.21 219.97 201.15 C 217.99 198.10 217.08 196.51 215.41 193.58 C 213.75 190.65 211.85 186.76 209.97 183.57 C 208.09 180.37 205.70 177.50 204.15 174.41 C 202.60 171.32 201.51 167.84 200.68 165.01 C 199.85 162.19 199.74 160.27 199.14 157.46 C 198.55 154.65 197.86 151.14 197.11 148.15 C 196.36 145.16 195.35 142.36 194.64 139.52 C 193.92 136.67 193.49 133.82 192.82 131.09 C 192.15 128.35 191.36 125.28 190.62 123.10 C 189.87 120.92 189.39 119.87 188.34 118.00 C 187.30 116.13 185.61 113.81 184.33 111.89 C 183.05 109.97 182.07 108.18 180.68 106.47 C 179.29 104.77 177.53 102.93 176.00 101.64 C 174.47 100.35 173.49 99.48 171.50 98.73 C 169.52 97.99 166.69 97.34 164.08 97.16 C 161.48 96.97 158.73 97.13 155.86 97.62 C 152.99 98.11 149.89 98.77 146.87 100.09 C 143.86 101.42 140.40 103.88 137.77 105.58 C 135.13 107.29 133.61 108.13 131.04 110.33 C 128.48 112.54 125.11 115.57 122.36 118.83 C 119.62 122.08 117.00 125.88 114.58 129.83 C 112.17 133.79 109.72 138.88 107.87 142.56 C 106.03 146.23 105.14 148.01 103.50 151.88 C 101.85 155.75 99.47 160.89 97.98 165.77 C 96.50 170.66 95.49 175.98 94.58 181.20 C 93.66 186.42 92.87 192.39 92.49 197.09 C 92.11 201.80 92.08 204.70 92.32 209.42 C 92.56 214.14 92.77 219.94 93.93 225.42 C 95.09 230.91 96.96 236.85 99.29 242.34 C 101.63 247.83 104.70 253.16 107.94 258.36 C 111.18 263.55 115.35 269.20 118.75 273.53 C 122.16 277.87 124.48 280.51 128.37 284.37 C 132.26 288.23 137.29 292.90 142.11 296.70 C 146.93 300.50 152.02 304.11 157.29 307.19 C 162.57 310.27 168.87 313.06 173.75 315.16 C 178.64 317.26 181.59 318.35 186.59 319.81 C 191.59 321.27 198.02 323.02 203.75 323.92 C 209.48 324.81 215.39 324.76 220.99 325.17 C 226.58 325.58 232.03 325.89 237.31 326.38 C 242.59 326.88 248.31 327.63 252.66 328.13 C 257.02 328.62 259.18 329.02 263.44 329.36 C 267.71 329.71 273.54 329.97 278.23 330.19 C 282.91 330.40 287.27 330.28 291.56 330.66 C 295.85 331.03 300.55 331.60 303.97 332.43 C 307.39 333.26 309.33 334.11 312.09 335.61 C 314.85 337.12 317.82 339.46 320.52 341.44 C 323.22 343.41 326.41 345.06 328.28 347.47 C 330.16 349.89 330.98 353.00 331.78 355.94 C 332.59 358.88 332.98 362.40 333.11 365.13 C 333.25 367.86 333.39 369.61 332.58 372.33 C 331.77 375.04 330.14 378.59 328.25 381.44 C 326.36 384.29 323.73 386.84 321.22 389.44 C 318.72 392.05 315.90 395.08 313.23 397.08 C 310.56 399.08 308.77 400.13 305.19 401.46 C 301.62 402.79 296.23 404.08 291.77 405.04 C 287.32 406.01 283.11 406.92 278.47 407.25 C 273.82 407.58 268.83 407.58 263.91 407.02 C 258.99 406.46 253.28 405.07 248.93 403.90 C 244.58 402.74 242.07 401.95 237.81 400.04 C 233.54 398.13 228.03 395.22 223.33 392.44 C 218.63 389.65 213.98 386.62 209.58 383.33 C 205.18 380.03 200.55 375.68 196.93 372.64 C 193.30 369.60 191.28 367.92 187.83 365.09 C 184.38 362.27 179.88 358.79 176.21 355.71 C 172.54 352.62 169.24 349.35 165.79 346.59 C 162.35 343.82 158.55 341.14 155.56 339.12 C 152.56 337.10 150.66 336.23 147.82 334.47 C 144.97 332.70 141.55 330.29 138.48 328.50 C 135.40 326.72 132.31 325.09 129.39 323.76 C 126.46 322.44 123.79 321.44 120.94 320.55 C 118.09 319.65 114.66 318.93 112.27 318.39 C 109.88 317.86 108.78 317.75 106.60 317.36 C 104.43 316.96 101.58 316.27 99.21 316.03 C 96.84 315.79 94.63 315.97 92.38 315.90 C 90.14 315.82 87.69 315.74 85.74 315.57 C 83.78 315.41 82.44 315.26 80.65 314.91 C 78.86 314.56 76.91 314.20 75.01 313.49 C 73.11 312.77 71.10 311.68 69.26 310.63 C 67.42 309.57 65.70 308.62 63.96 307.16 C 62.21 305.69 60.21 303.50 58.78 301.84 C 57.35 300.17 56.50 299.40 55.36 297.18 C 54.21 294.96 52.71 291.80 51.91 288.53 C 51.12 285.26 50.60 281.42 50.59 277.57 C 50.58 273.71 51.38 269.12 51.83 265.39 C 52.28 261.65 52.20 259.22 53.30 255.16 C 54.40 251.10 56.14 245.81 58.43 241.02 C 60.72 236.23 63.96 231.15 67.04 226.40 C 70.11 221.65 73.22 216.95 76.88 212.55 C 80.54 208.14 85.14 203.53 88.99 199.96 C 92.85 196.40 95.24 194.19 99.98 191.16 C 104.72 188.13 111.31 184.21 117.41 181.79 C 123.52 179.36 130.04 177.88 136.60 176.62 C 143.15 175.35 150.75 174.46 156.74 174.19 C 162.73 173.92 166.57 174.34 172.53 174.98 C 178.50 175.62 186.13 176.34 192.52 178.02 C 198.91 179.70 204.97 182.36 210.88 185.05 C 216.79 187.75 222.96 190.41 227.97 194.17 C 232.98 197.94 237.56 203.53 240.94 207.64 C 244.32 211.76 246.27 214.17 248.26 218.88 C 250.25 223.59 252.49 230.40 252.89 235.89 C 253.29 241.37 252.32 246.83 250.64 251.78 C 248.96 256.74 245.40 262.00 242.83 265.61 C 240.25 269.23 238.49 270.94 235.20 273.47 C 231.91 276.00 227.23 279.02 223.07 280.77 C 218.90 282.53 214.59 283.81 210.21 284.00 C 205.83 284.19 200.40 283.17 196.80 281.92 C 193.21 280.67 191.51 278.96 188.64 276.48 C 185.77 274.00 181.96 270.81 179.58 267.01 C 177.20 263.21 175.26 258.40 174.36 253.67 C 173.46 248.94 173.50 243.55 174.16 238.65 C 174.82 233.76 176.49 228.24 178.31 224.28 C 180.13 220.32 181.71 218.06 185.07 214.90 C 188.43 211.75 193.58 207.92 198.47 205.36 C 203.36 202.80 208.90 200.76 214.42 199.54 C 219.94 198.32 226.57 197.99 231.57 198.04 C 236.56 198.08 239.64 198.57 244.38 199.82 C 249.13 201.07 255.16 203.14 260.04 205.55 C 264.93 207.96 269.46 210.95 273.72 214.29 C 277.98 217.63 282.16 221.50 285.58 225.56 C 289.01 229.63 292.19 234.63 294.28 238.70 C 296.38 242.77 297.20 245.61 298.17 250.00 C 299.13 254.38 300.02 260.02 300.05 264.99 C 300.09 269.97 299.53 274.96 298.38 279.84 C 297.23 284.72 295.10 290.28 293.13 294.26 C 291.16 298.23 289.39 300.53 286.58 303.67 C 283.76 306.82 280.05 310.36 276.24 313.11 C 272.44 315.85 268.11 318.17 263.74 320.15 C 259.37 322.14 254.54 323.67 250.03 325.02 C 245.52 326.36 240.57 327.62 236.68 328.22 C 232.79 328.83 230.64 328.58 226.70 328.65 C 222.77 328.72 217.41 328.46 213.10 328.63 C 208.79 328.79 204.75 329.01 200.86 329.64 C 196.97 330.28 192.71 331.43 189.75 332.42 C 186.79 333.41 185.79 334.45 183.08 335.59 C 180.37 336.73 176.51 338.09 173.48 339.27 C 170.45 340.44 167.71 341.62 164.90 342.64 C 162.08 343.66 159.29 344.42 156.60 345.39 C 153.91 346.36 150.81 347.32 148.76 348.46 C 146.71 349.61 145.78 350.61 144.31 352.27 C 142.85 353.93 141.07 356.10 139.97 358.40 C 138.88 360.70 138.24 363.47 137.75 366.10 C 137.26 368.72 137.04 371.72 137.02 374.14 C 136.99 376.57 137.03 378.15 137.60 380.64 C 138.18 383.14 138.71 386.38 140.48 389.13 C 142.26 391.88 145.27 394.54 148.25 397.15 C 151.23 399.75 155.36 402.78 158.35 404.78 C 161.34 406.77 162.60 407.77 166.18 409.12 C 169.76 410.47 174.86 412.05 179.83 412.86 C 184.80 413.68 190.65 413.86 196.01 413.99 C 201.37 414.11 206.59 413.90 211.97 413.60 C 217.36 413.29 223.60 412.64 228.32 412.14 C 233.03 411.64 235.76 411.41 240.27 410.60 C 244.77 409.80 250.37 408.23 255.33 407.30 C 260.28 406.38 265.33 405.58 269.99 405.07 C 274.66 404.56 279.57 404.38 283.32 404.25 C 287.07 404.12 289.24 404.05 292.49 404.29 C 295.73 404.53 299.52 405.07 302.79 405.69 C 306.05 406.32 309.30 407.12 312.07 408.02 C 314.84 408.91 317.09 409.98 319.41 411.05 C 321.73 412.13 324.29 413.39 326.00 414.45 C 327.71 415.50 328.45 416.07 329.67 417.38 C 330.89 418.69 332.44 420.64 333.33 422.31 C 334.22 423.99 334.56 425.73 335.01 427.41 C 335.45 429.09 335.78 430.92 336.00 432.40 C 336.21 433.87 336.14 434.81 336.27 436.26 C 336.40 437.71 336.59 439.46 336.76 441.10 C 336.92 442.74 337.02 444.58 337.28 446.10 C 337.54 447.63 337.97 448.90 338.33 450.24 C 338.70 451.57 339.13 452.96 339.46 454.13 C 339.80 455.31 340.08 456.13 340.36 457.28 C 340.64 458.43 340.94 459.79 341.15 461.02 C 341.36 462.26 341.62 463.51 341.64 464.68 C 341.65 465.86 341.45 467.10 341.22 468.07 C 340.99 469.04 340.84 469.45 340.25 470.49 C 339.67 471.54 338.83 473.08 337.71 474.32 C 336.59 475.57 335.36 476.84 333.55 477.97 C 331.73 479.09 329.24 480.06 326.81 481.08 C 324.39 482.10 321.36 483.31 318.99 484.09 C 316.62 484.87 315.29 485.31 312.61 485.76 C 309.92 486.20 306.42 486.51 302.89 486.77 C 299.37 487.03 295.44 487.54 291.46 487.31 C 287.49 487.08 282.85 486.11 279.03 485.38 C 275.20 484.66 272.82 484.37 268.50 482.94 C 264.18 481.50 258.19 479.48 253.12 476.79 C 248.05 474.10 243.00 470.30 238.08 466.78 C 233.16 463.26 227.76 459.00 223.57 455.68 C 219.39 452.36 216.81 450.71 212.95 446.85 C 209.09 443.00 204.11 438.10 200.43 432.56 C 196.75 427.01 193.37 420.27 190.86 413.58 C 188.35 406.88 186.79 399.44 185.36 392.39 C 183.93 385.34 182.69 377.54 182.28 371.29 C 181.87 365.03 182.32 361.09 182.90 354.88 C 183.48 348.66 184.42 340.77 185.74 334.01 C 187.07 327.25 188.53 320.53 190.87 314.34 C 193.21 308.14 196.88 301.68 199.77 296.86 C 202.65 292.04 204.76 289.61 208.18 285.44 C 211.59 281.26 216.01 275.89 220.26 271.80 C 224.52 267.72 228.89 263.91 233.68 260.93 C 238.48 257.95 243.87 255.65 249.03 253.92 C 254.19 252.19 260.09 251.14 264.64 250.53 C 269.18 249.92 272.07 249.61 276.32 250.27 C 280.57 250.93 286.04 252.26 290.14 254.50 C 294.23 256.73 297.89 260.26 300.89 263.69 C 303.89 267.13 306.46 271.51 308.15 275.09 C 309.84 278.68 310.58 281.22 311.04 285.20 C 311.50 289.18 311.65 294.51 310.92 298.98 C 310.20 303.45 308.61 307.85 306.71 312.03 C 304.80 316.22 302.12 320.38 299.49 324.09 C 296.87 327.81 293.50 331.36 290.95 334.31 C 288.41 337.26 286.91 339.12 284.22 341.78 C 281.53 344.43 278.06 347.60 274.83 350.22 C 271.60 352.85 268.06 355.20 264.82 357.53 C 261.59 359.87 258.03 362.15 255.43 364.22 C 252.83 366.28 251.63 367.78 249.21 369.93 C 246.78 372.07 243.44 374.71 240.87 377.10 C 238.30 379.48 235.76 381.77 233.79 384.25 C 231.82 386.72 230.17 389.32 229.05 391.93 C 227.94 394.54 227.41 397.55 227.10 399.91 C 226.78 402.28 226.75 403.89 227.18 406.13 C 227.60 408.38 228.12 411.20 229.67 413.36 C 231.21 415.51 233.86 417.28 236.45 419.07 C 239.03 420.86 242.39 422.92 245.17 424.09 C 247.95 425.25 249.89 425.42 253.14 426.09 C 256.39 426.75 260.85 427.65 264.65 428.09 C 268.45 428.53 271.90 429.04 275.94 428.72 C 279.99 428.40 285.02 427.33 288.91 426.16 C 292.81 425.00 295.37 423.93 299.32 421.73 C 303.27 419.53 308.38 416.21 312.59 412.96 C 316.81 409.71 320.70 405.91 324.62 402.23 C 328.54 398.56 332.38 394.57 336.11 390.94 C 339.83 387.31 343.88 383.62 346.97 380.44 C 350.07 377.26 351.85 375.15 354.65 371.85 C 357.46 368.56 360.76 364.12 363.79 360.67 C 366.82 357.21 369.88 353.78 372.84 351.14 C 375.80 348.50 378.93 346.41 381.54 344.82 C 384.15 343.24 386.01 342.41 388.49 341.64 C 390.97 340.86 394.02 340.15 396.44 340.19 C 398.86 340.23 400.98 340.99 403.00 341.88 C 405.02 342.77 406.77 344.24 408.56 345.52 C 410.35 346.80 412.26 348.51 413.74 349.56 C 415.23 350.60 415.95 351.19 417.47 351.79 C 418.99 352.40 421.15 352.84 422.87 353.19 C 424.58 353.54 426.10 353.86 427.78 353.91 C 429.46 353.96 431.36 353.91 432.95 353.49 C 434.54 353.08 435.62 352.26 437.32 351.41 C 439.03 350.56 441.30 349.65 443.18 348.37 C 445.06 347.10 446.88 345.65 448.61 343.77 C 450.33 341.89 451.92 339.50 453.53 337.11 C 455.13 334.71 456.96 331.63 458.24 329.40 C 459.53 327.16 460.14 325.81 461.24 323.71 C 462.35 321.61 463.56 319.01 464.87 316.80 C 466.18 314.59 467.82 312.26 469.08 310.46 C 470.35 308.65 471.49 307.12 472.46 305.98 C 473.43 304.84 473.85 304.17 474.90 303.61 C 475.95 303.05 477.54 302.66 478.76 302.63 C 479.99 302.61 481.23 303.04 482.23 303.44 C 483.24 303.83 483.89 304.49 484.77 305.01 C 485.65 305.52 486.90 305.99 487.52 306.53 C 488.15 307.06 488.04 307.47 488.52 308.23 C 489.00 309.00 489.89 309.91 490.39 311.11 C 490.89 312.31 491.42 313.64 491.52 315.44 C 491.62 317.24 491.38 319.85 491.00 321.91 C 490.62 323.96 490.27 325.19 489.24 327.77 C 488.21 330.35 486.85 334.07 484.82 337.38 C 482.78 340.70 479.92 344.17 477.04 347.64 C 474.15 351.10 470.68 355.13 467.51 358.16 C 464.34 361.20 462.08 362.99 458.03 365.85 C 453.97 368.72 448.45 372.49 443.19 375.33 C 437.93 378.18 432.43 380.84 426.47 382.93 C 420.51 385.01 414.21 386.78 407.42 387.84 C 400.62 388.91 392.06 389.40 385.69 389.30 C 379.32 389.20 375.62 388.72 369.21 387.25 C 362.81 385.78 354.25 383.38 347.26 380.49 C 340.27 377.60 333.44 373.97 327.27 369.91 C 321.09 365.85 314.78 360.37 310.21 356.11 C 305.64 351.86 303.25 349.36 299.84 344.38 C 296.43 339.40 292.61 332.31 289.75 326.25 C 286.89 320.18 284.70 313.98 282.70 307.98 C 280.70 301.99 278.66 296.01 277.74 290.26 C 276.82 284.52 276.99 278.35 277.16 273.50 C 277.33 268.65 277.74 265.60 278.74 261.16 C 279.74 256.72 281.38 251.42 283.18 246.87 C 284.98 242.33 287.01 237.73 289.55 233.87 C 292.10 230.02 295.62 226.37 298.43 223.73 C 301.24 221.08 303.50 220.13 306.41 218.01 C 309.32 215.89 312.78 213.37 315.92 211.02 C 319.05 208.67 322.27 206.27 325.22 203.92 C 328.18 201.57 330.91 199.10 333.63 196.92 C 336.35 194.74 339.29 192.60 341.54 190.86 C 343.79 189.12 344.86 187.99 347.10 186.48 C 349.34 184.97 352.46 183.49 354.98 181.81 C 357.51 180.14 360.06 178.26 362.25 176.45 C 364.44 174.64 366.49 172.55 368.14 170.98 C 369.80 169.40 370.52 168.52 372.18 166.98 C 373.83 165.45 376.24 163.49 378.08 161.79 C 379.91 160.08 381.49 158.25 383.19 156.75 C 384.90 155.24 386.44 153.91 388.30 152.75 C 390.17 151.60 392.51 150.42 394.36 149.80 C 396.22 149.19 397.37 148.78 399.45 149.04 C 401.53 149.31 404.40 150.19 406.84 151.41 C 409.28 152.62 411.81 154.05 414.08 156.32 C 416.35 158.59 418.72 162.27 420.46 165.01 C 422.20 167.75 423.05 169.65 424.52 172.78 C 425.99 175.91 427.89 179.80 429.27 183.78 C 430.66 187.75 431.95 192.09 432.84 196.63 C 433.73 201.17 434.36 206.83 434.62 211.02 C 434.88 215.21 434.36 217.61 434.39 221.77 C 434.41 225.93 434.74 231.33 434.77 235.95 C 434.79 240.58 434.89 244.99 434.54 249.52 C 434.19 254.05 433.34 258.66 432.68 263.13 C 432.02 267.60 431.21 272.57 430.57 276.34 C 429.92 280.10 429.34 282.29 428.79 285.73 C 428.25 289.17 427.46 293.48 427.30 296.99 C 427.13 300.50 427.48 303.73 427.80 306.81 C 428.12 309.88 428.82 313.00 429.22 315.45 C 429.62 317.89 429.83 319.21 430.20 321.46 C 430.56 323.71 431.02 326.39 431.41 328.94 C 431.81 331.50 432.38 334.25 432.57 336.80 C 432.76 339.36 432.44 341.86 432.54 344.30 C 432.64 346.75 433.07 349.40 433.16 351.48 C 433.24 353.57 433.38 354.72 433.05 356.83 C 432.71 358.94 432.12 361.51 431.15 364.15 C 430.17 366.79 428.88 369.78 427.22 372.68 C 425.56 375.58 423.21 379.06 421.18 381.56 C 419.15 384.07 417.90 385.27 415.04 387.71 C 412.18 390.16 408.11 393.61 404.04 396.23 C 399.97 398.85 395.37 401.33 390.65 403.42 C 385.92 405.50 380.73 407.20 375.69 408.73 C 370.65 410.26 364.77 411.32 360.43 412.59 C 356.08 413.86 353.67 414.90 349.61 416.38 C 345.55 417.86 340.36 419.84 336.09 421.45 C 331.81 423.05 328.13 424.63 323.97 426.01 C 319.82 427.38 314.72 428.56 311.16 429.69 C 307.60 430.81 305.67 431.58 302.62 432.74 C 299.56 433.90 295.78 435.23 292.82 436.65 C 289.85 438.08 287.35 439.81 284.83 441.30 C 282.32 442.79 280.14 444.19 277.74 445.59 C 275.34 446.99 272.41 448.50 270.45 449.69 C 268.49 450.88 267.41 451.44 265.98 452.74 C 264.55 454.04 263.08 455.92 261.88 457.47 C 260.68 459.02 259.45 460.58 258.77 462.06 C 258.08 463.55 257.71 465.16 257.79 466.39 C 257.86 467.62 258.25 468.38 259.23 469.45 C 260.20 470.52 261.65 471.97 263.65 472.81 C 265.65 473.65 268.27 474.36 271.22 474.49 C 274.17 474.63 278.22 474.17 281.36 473.63 C 284.50 473.08 286.46 472.67 290.05 471.23 C 293.64 469.79 298.66 467.50 302.91 464.98 C 307.16 462.46 311.44 459.78 315.55 456.10 C 319.65 452.41 323.86 447.81 327.54 442.89 C 331.22 437.97 335.03 431.75 337.64 426.55 C 340.25 421.35 341.54 417.74 343.21 411.71 C 344.88 405.68 346.94 397.69 347.66 390.39 C 348.39 383.08 348.38 375.23 347.55 367.88 C 346.73 360.54 344.73 352.38 342.73 346.32 C 340.74 340.25 338.81 336.82 335.58 331.49 C 332.35 326.15 328.05 319.33 323.35 314.29 C 318.66 309.25 312.87 304.97 307.41 301.26 C 301.96 297.55 296.25 294.32 290.61 292.02 C 284.98 289.72 278.47 288.23 273.60 287.45 C 268.74 286.67 266.10 287.01 261.41 287.32 C 256.73 287.63 250.42 288.10 245.48 289.29 C 240.55 290.48 235.97 292.39 231.81 294.45 C 227.66 296.52 223.49 299.28 220.54 301.67 C 217.58 304.05 216.37 306.04 214.09 308.78 C 211.80 311.52 209.15 315.10 206.84 318.11 C 204.53 321.12 202.41 323.96 200.23 326.84 C 198.05 329.72 195.84 332.69 193.77 335.40 C 191.71 338.10 189.37 340.76 187.81 343.08 C 186.26 345.40 185.74 346.95 184.46 349.30 C 183.18 351.66 181.42 354.56 180.12 357.21 C 178.81 359.85 177.71 362.56 176.65 365.19 C 175.59 367.82 174.53 370.74 173.77 373.00 C 173.00 375.27 172.59 376.56 172.05 378.78 C 171.51 380.99 170.83 383.87 170.53 386.29 C 170.24 388.71 170.11 390.89 170.28 393.32 C 170.45 395.76 170.80 398.39 171.58 400.89 C 172.36 403.40 173.58 406.17 174.96 408.38 C 176.35 410.58 177.58 412.17 179.88 414.13 C 182.17 416.09 185.26 418.34 188.73 420.15 C 192.19 421.96 196.44 423.72 200.65 424.98 C 204.86 426.23 209.98 427.18 213.97 427.69 C 217.97 428.21 220.40 428.29 224.61 428.08 C 228.83 427.87 234.39 427.14 239.26 426.43 C 244.13 425.72 248.94 424.96 253.83 423.80 C 258.72 422.64 264.28 420.89 268.59 419.48 C 272.91 418.07 275.51 417.26 279.71 415.33 C 283.90 413.39 289.16 410.38 293.77 407.86 C 298.38 405.34 302.98 402.52 307.38 400.20 C 311.79 397.89 316.17 395.63 320.19 393.98 C 324.20 392.32 328.26 391.26 331.49 390.25 C 334.72 389.24 336.54 388.74 339.55 387.90 C 342.56 387.06 346.26 386.26 349.56 385.22 C 352.87 384.17 356.15 382.76 359.38 381.62 C 362.61 380.48 366.23 379.29 368.94 378.40 C 371.66 377.51 373.08 377.13 375.67 376.28 C 378.26 375.43 381.68 374.26 384.47 373.31 C 387.26 372.37 389.75 371.61 392.40 370.62 C 395.06 369.63 397.90 368.36 400.41 367.39 C 402.92 366.42 405.48 365.52 407.47 364.80 C 409.47 364.08 410.50 364.08 412.39 363.09 C 414.29 362.10 416.67 360.57 418.86 358.85 C 421.04 357.13 423.36 355.12 425.51 352.78 C 427.65 350.45 429.98 347.08 431.71 344.85 C 433.43 342.61 434.27 341.69 435.86 339.36 C 437.45 337.03 439.55 333.92 441.23 330.87 C 442.91 327.81 444.48 324.14 445.95 321.04 C 447.43 317.94 448.72 315.29 450.07 312.29 C 451.43 309.28 452.99 305.58 454.09 303.02 C 455.19 300.45 455.61 299.00 456.68 296.88 C 457.74 294.75 459.13 292.26 460.49 290.25 C 461.85 288.24 463.37 286.53 464.84 284.82 C 466.32 283.12 468.01 281.21 469.32 280.00 C 470.62 278.78 471.56 278.25 472.69 277.52 C 473.82 276.79 475.05 275.65 476.10 275.60 C 477.15 275.56 478.08 276.33 479.00 277.26 C 479.93 278.18 480.93 279.52 481.64 281.15 C 482.34 282.78 482.90 285.17 483.24 287.02 C 483.57 288.87 483.69 289.96 483.67 292.26 C 483.65 294.56 483.78 297.76 483.13 300.80 C 482.47 303.85 481.07 307.23 479.74 310.55 C 478.41 313.87 476.66 317.65 475.14 320.74 C 473.61 323.82 472.62 325.82 470.59 329.07 C 468.55 332.31 466.13 336.45 462.93 340.20 C 459.73 343.96 455.76 348.05 451.39 351.60 C 447.02 355.15 441.20 358.82 436.71 361.51 C 432.23 364.19 429.74 365.77 424.47 367.71 C 419.20 369.65 411.72 371.61 405.11 373.14 C 398.50 374.67 391.28 375.79 384.80 376.90 C 378.31 378.01 372.60 379.23 366.21 379.82 C 359.83 380.41 352.20 380.46 346.50 380.46 C 340.80 380.45 337.59 380.11 332.04 379.80 C 326.48 379.50 319.41 379.09 313.19 378.63 C 306.97 378.17 300.65 377.70 294.72 377.05 C 288.79 376.41 282.56 375.46 277.63 374.77 C 272.70 374.08 269.82 373.57 265.16 372.93 C 260.50 372.30 254.72 371.82 249.68 370.97 C 244.63 370.12 239.61 368.76 234.88 367.85 C 230.16 366.95 225.74 366.16 221.34 365.53 C 216.93 364.89 212.20 364.59 208.43 364.05 C 204.66 363.50 202.38 362.93 198.71 362.27 C 195.05 361.60 190.43 360.90 186.44 360.06 C 182.45 359.21 178.63 358.46 174.77 357.19 C 170.91 355.93 166.53 354.00 163.29 352.47 C 160.04 350.94 158.26 350.10 155.29 348.00 C 152.33 345.90 148.47 342.90 145.49 339.86 C 142.51 336.82 140.07 333.11 137.41 329.76 C 134.75 326.41 132.13 323.00 129.53 319.76 C 126.92 316.51 123.95 313.05 121.76 310.28 C 119.57 307.52 118.34 305.90 116.38 303.14 C 114.42 300.38 112.07 296.62 110.00 293.73 C 107.92 290.83 105.92 288.40 103.93 285.75 C 101.95 283.10 99.71 280.03 98.06 277.84 C 96.42 275.64 95.73 274.50 94.07 272.60 C 92.40 270.71 90.07 268.12 88.09 266.47 C 86.11 264.82 84.92 263.39 82.19 262.68 C 79.46 261.96 73.46 262.28 71.72 262.19" fill="none" stroke="#fff" stroke-width="4.48" stroke-opacity="1" stroke-linecap="round" stroke-linejoin="round"/>
  </g>
</svg>