<?xml version="1.0" encoding="UTF-8"?>
<svg xmlns="http://www.w3.org/2000/svg" width="512" height="512" viewBox="0 0 512 512">
  <rect width="100%" height="100%" fill="#000"/>
  <g>
    <path d="M 256.00 256.00 C 253.42 256.27 245.91 256.14 240.50 257.60 C 235.09 259.07 228.46 261.56 223.54 264.79 C 218.61 268.02 214.26 272.38 210.94 276.98 C 207.62 281.57 205.00 286.97 203.61 292.35 C 202.21 297.74 201.91 303.76 202.57 309.30 C 203.22 314.83 205.07 320.49 207.54 325.57 C 210.00 330.64 213.34 335.67 217.37 339.73 C 221.41 343.80 226.37 347.50 231.75 349.97 C 237.14 352.44 243.51 354.02 249.69 354.58 C 255.87 355.14 262.56 354.70 268.83 353.34 C 275.11 351.99 281.52 349.52 287.35 346.45 C 293.17 343.37 298.81 339.34 303.77 334.89 C 308.73 330.45 313.25 325.28 317.10 319.80 C 320.96 314.31 324.45 308.25 326.91 301.99 C 329.36 295.73 330.87 288.88 331.81 282.24 C 332.75 275.60 332.97 268.74 332.54 262.12 C 332.11 255.51 330.99 248.89 329.24 242.56 C 327.49 236.23 325.00 229.94 322.04 224.15 C 319.08 218.35 315.47 212.80 311.49 207.80 C 307.51 202.81 302.94 198.24 298.14 194.17 C 293.34 190.11 288.15 186.32 282.67 183.39 C 277.18 180.47 271.25 178.14 265.23 176.63 C 259.22 175.11 252.81 174.30 246.58 174.31 C 240.36 174.31 233.94 175.15 227.89 176.67 C 221.83 178.20 215.71 180.38 210.24 183.47 C 204.78 186.57 199.46 190.56 195.10 195.23 C 190.74 199.91 187.00 205.66 184.10 211.50 C 181.21 217.34 178.95 223.83 177.72 230.28 C 176.49 236.73 176.44 243.60 176.72 250.20 C 176.99 256.81 178.17 263.54 179.36 269.91 C 180.54 276.29 182.36 282.41 183.82 288.44 C 185.28 294.48 186.94 300.40 188.12 306.14 C 189.29 311.87 190.25 317.49 190.85 322.86 C 191.45 328.24 192.07 333.50 191.72 338.39 C 191.37 343.28 190.26 347.99 188.76 352.20 C 187.27 356.41 185.39 360.47 182.74 363.66 C 180.10 366.86 176.59 369.56 172.88 371.35 C 169.17 373.14 164.80 374.12 160.49 374.40 C 156.17 374.68 151.47 374.42 146.99 373.06 C 142.51 371.70 137.79 369.43 133.63 366.23 C 129.46 363.02 125.34 358.71 122.01 353.84 C 118.68 348.97 115.76 343.06 113.64 336.99 C 111.52 330.92 109.91 324.23 109.30 317.41 C 108.69 310.60 108.84 303.18 109.96 296.08 C 111.09 288.98 113.13 281.69 116.07 274.81 C 119.00 267.94 122.98 261.00 127.56 254.84 C 132.13 248.68 137.62 242.83 143.51 237.85 C 149.41 232.88 156.22 228.71 162.92 224.99 C 169.62 221.27 176.74 218.22 183.71 215.53 C 190.69 212.83 197.86 210.82 204.80 208.82 C 211.74 206.81 218.75 205.29 225.35 203.49 C 231.96 201.69 238.33 200.02 244.43 198.04 C 250.53 196.05 256.35 193.77 261.94 191.57 C 267.54 189.36 273.01 187.32 277.99 184.80 C 282.97 182.29 287.50 179.36 291.83 176.49 C 296.17 173.63 300.35 170.78 304.02 167.60 C 307.69 164.42 311.12 161.02 313.84 157.44 C 316.57 153.85 318.68 150.00 320.37 146.07 C 322.05 142.15 323.46 138.02 323.97 133.89 C 324.48 129.76 324.36 125.41 323.40 121.31 C 322.44 117.21 320.66 113.00 318.22 109.28 C 315.78 105.55 312.46 102.07 308.78 98.98 C 305.10 95.88 300.81 92.96 296.16 90.73 C 291.50 88.49 286.32 86.65 280.86 85.57 C 275.40 84.48 269.39 84.05 263.41 84.20 C 257.42 84.35 251.08 85.25 244.96 86.44 C 238.84 87.63 232.64 89.58 226.68 91.34 C 220.73 93.10 214.91 95.20 209.24 97.01 C 203.57 98.82 197.96 100.74 192.66 102.18 C 187.35 103.63 182.19 105.05 177.41 105.70 C 172.63 106.35 168.09 106.45 163.99 106.10 C 159.88 105.75 156.07 104.83 152.79 103.60 C 149.51 102.37 146.50 100.79 144.31 98.72 C 142.12 96.64 140.75 93.87 139.66 91.16 C 138.58 88.44 138.25 85.30 137.80 82.42 C 137.35 79.54 137.24 76.66 136.95 73.88 C 136.66 71.10 136.42 68.37 136.07 65.75 C 135.71 63.14 135.48 60.52 134.85 58.21 C 134.21 55.90 133.41 53.77 132.26 51.91 C 131.12 50.05 129.72 48.35 127.98 47.05 C 126.25 45.75 124.30 44.57 121.88 44.10 C 119.45 43.62 116.58 43.36 113.44 44.18 C 110.30 45.01 106.59 46.88 103.05 49.06 C 99.51 51.25 95.73 54.46 92.19 57.27 C 88.65 60.09 85.20 63.15 81.82 65.97 C 78.44 68.78 75.07 71.58 71.90 74.15 C 68.72 76.73 65.69 79.45 62.79 81.42 C 59.89 83.39 57.07 84.86 54.51 85.96 C 51.94 87.06 49.44 87.85 47.40 88.04 C 45.35 88.22 43.42 87.98 42.23 87.05 C 41.04 86.12 40.09 84.52 40.24 82.46 C 40.40 80.40 41.38 77.49 43.16 74.69 C 44.95 71.89 47.84 68.68 50.95 65.65 C 54.05 62.62 58.05 59.45 61.79 56.50 C 65.53 53.55 69.51 50.71 73.37 47.95 C 77.24 45.19 81.29 42.54 84.98 39.94 C 88.68 37.34 92.28 34.80 95.53 32.33 C 98.78 29.85 101.64 27.42 104.50 25.07 C 107.36 22.73 110.40 20.44 112.69 18.25 C 114.98 16.06 117.00 13.70 118.22 11.93 C 119.45 10.17 119.74 9.10 120.03 7.64 C 120.32 6.18 120.47 4.34 119.94 3.16 C 119.41 1.97 118.34 1.00 116.84 0.52 C 115.34 0.05 113.33 -0.20 110.96 0.31 C 108.59 0.81 105.68 1.70 102.61 3.55 C 99.54 5.40 95.95 7.80 92.54 11.40 C 89.13 15.00 85.35 19.70 82.15 25.14 C 78.95 30.58 75.56 36.84 73.34 44.03 C 71.11 51.23 69.23 59.64 68.81 68.30 C 68.39 76.95 68.96 86.70 70.83 95.97 C 72.70 105.25 75.96 115.02 80.01 123.94 C 84.06 132.85 89.43 141.53 95.13 149.44 C 100.82 157.36 107.44 164.72 114.18 171.42 C 120.92 178.12 128.34 184.06 135.59 189.63 C 142.84 195.19 150.50 199.90 157.69 204.79 C 164.88 209.68 171.93 214.38 178.74 218.94 C 185.55 223.50 192.09 227.87 198.56 232.14 C 205.04 236.41 211.45 240.48 217.58 244.57 C 223.71 248.67 229.73 252.62 235.35 256.72 C 240.96 260.82 246.46 264.79 251.28 269.16 C 256.10 273.52 260.53 278.09 264.28 282.90 C 268.03 287.70 271.18 292.84 273.77 297.99 C 276.36 303.14 278.53 308.50 279.83 313.80 C 281.13 319.10 281.86 324.58 281.57 329.77 C 281.27 334.96 279.88 340.15 278.05 344.93 C 276.22 349.70 273.73 354.42 270.59 358.42 C 267.45 362.42 263.48 365.99 259.23 368.95 C 254.98 371.92 250.19 374.56 245.10 376.22 C 240.00 377.87 234.32 378.88 228.66 378.88 C 222.99 378.87 216.84 377.57 211.11 376.19 C 205.38 374.81 199.74 372.57 194.26 370.60 C 188.78 368.62 183.43 366.51 178.24 364.35 C 173.05 362.18 168.01 359.90 163.11 357.63 C 158.21 355.35 153.46 352.91 148.84 350.70 C 144.23 348.50 139.79 346.02 135.43 344.42 C 131.07 342.82 126.70 341.62 122.69 341.12 C 118.67 340.62 114.79 340.65 111.33 341.41 C 107.86 342.17 104.55 343.71 101.89 345.70 C 99.24 347.69 97.10 350.46 95.40 353.36 C 93.70 356.25 92.67 359.76 91.70 363.06 C 90.72 366.36 90.16 369.84 89.55 373.17 C 88.94 376.51 88.67 379.96 88.05 383.08 C 87.44 386.20 86.76 389.19 85.86 391.90 C 84.96 394.61 83.93 397.10 82.66 399.33 C 81.38 401.55 79.88 403.58 78.23 405.24 C 76.58 406.90 74.75 408.32 72.76 409.28 C 70.76 410.25 68.60 410.86 66.26 411.02 C 63.93 411.18 61.33 410.98 58.74 410.23 C 56.16 409.48 53.45 408.27 50.75 406.50 C 48.05 404.73 45.17 402.60 42.54 399.62 C 39.92 396.64 37.17 393.06 35.00 388.64 C 32.83 384.22 30.81 378.89 29.53 373.11 C 28.24 367.33 27.60 360.59 27.29 353.98 C 26.98 347.37 27.09 340.40 27.68 333.45 C 28.26 326.49 29.08 319.39 30.80 312.26 C 32.53 305.12 35.05 297.79 38.01 290.66 C 40.97 283.53 44.72 276.36 48.59 269.49 C 52.46 262.61 56.80 255.88 61.21 249.41 C 65.62 242.94 70.29 236.69 75.06 230.68 C 79.83 224.67 84.95 218.95 89.83 213.35 C 94.71 207.74 99.64 202.34 104.33 197.05 C 109.01 191.76 113.72 186.66 117.93 181.61 C 122.15 176.56 125.97 171.59 129.62 166.75 C 133.27 161.91 136.91 157.24 139.86 152.58 C 142.81 147.91 145.30 143.26 147.33 138.77 C 149.36 134.29 150.90 129.83 152.06 125.66 C 153.22 121.50 153.67 117.62 154.26 113.78 C 154.86 109.93 155.28 106.20 155.63 102.58 C 155.99 98.95 155.89 95.51 156.40 92.04 C 156.91 88.56 157.64 85.10 158.72 81.73 C 159.79 78.35 161.18 75.01 162.85 71.79 C 164.52 68.56 166.18 65.36 168.73 62.40 C 171.28 59.44 174.33 56.44 178.15 54.04 C 181.97 51.64 186.50 49.34 191.65 47.99 C 196.80 46.65 202.88 45.93 209.06 45.97 C 215.23 46.01 222.09 46.91 228.71 48.22 C 235.33 49.53 242.23 51.78 248.80 53.81 C 255.37 55.84 261.87 58.11 268.15 60.40 C 274.43 62.69 280.49 65.06 286.46 67.54 C 292.43 70.03 298.28 72.84 303.99 75.33 C 309.69 77.83 315.31 80.36 320.70 82.52 C 326.08 84.67 331.27 86.49 336.30 88.28 C 341.33 90.07 346.25 91.98 350.89 93.24 C 355.53 94.50 359.91 95.21 364.13 95.86 C 368.36 96.52 372.32 96.77 376.23 97.16 C 380.14 97.56 383.85 97.71 387.62 98.23 C 391.39 98.75 395.15 99.45 398.83 100.26 C 402.51 101.08 406.11 101.74 409.71 103.12 C 413.30 104.50 416.89 106.10 420.41 108.55 C 423.92 110.99 427.47 114.40 430.80 117.80 C 434.12 121.20 437.44 124.73 440.34 128.96 C 443.24 133.20 446.04 137.92 448.21 143.23 C 450.38 148.53 452.19 154.57 453.36 160.80 C 454.53 167.02 455.22 173.74 455.22 180.57 C 455.23 187.40 454.33 194.73 453.38 201.77 C 452.44 208.81 451.15 215.85 449.54 222.81 C 447.92 229.77 445.71 236.80 443.70 243.53 C 441.69 250.26 439.61 256.79 437.47 263.19 C 435.33 269.58 432.92 275.85 430.84 281.90 C 428.75 287.94 426.72 294.30 424.95 299.46 C 423.17 304.62 421.89 307.97 420.18 312.87 C 418.48 317.78 416.30 323.77 414.71 328.91 C 413.11 334.06 411.51 339.08 410.60 343.75 C 409.70 348.42 409.13 352.95 409.29 356.95 C 409.45 360.95 410.42 364.55 411.57 367.74 C 412.73 370.93 414.37 373.76 416.22 376.08 C 418.07 378.41 420.28 380.30 422.65 381.70 C 425.02 383.10 427.70 384.04 430.46 384.46 C 433.22 384.89 436.23 384.95 439.22 384.26 C 442.22 383.57 445.40 382.28 448.42 380.31 C 451.45 378.34 454.65 375.80 457.38 372.46 C 460.12 369.12 462.78 365.00 464.83 360.28 C 466.87 355.56 468.71 350.11 469.64 344.13 C 470.58 338.14 470.98 331.21 470.45 324.37 C 469.93 317.52 468.76 310.21 466.50 303.04 C 464.24 295.87 461.07 288.34 456.88 281.36 C 452.69 274.38 447.30 267.33 441.36 261.19 C 435.41 255.04 428.44 249.36 421.23 244.48 C 414.02 239.61 406.04 235.34 398.09 231.92 C 390.14 228.51 381.86 225.52 373.54 223.97 C 365.21 222.43 356.39 222.04 348.16 222.65 C 339.94 223.26 331.78 225.29 324.20 227.62 C 316.63 229.95 309.44 233.26 302.71 236.65 C 295.98 240.05 289.90 244.23 283.83 247.99 C 277.76 251.74 272.00 255.58 266.28 259.20 C 260.56 262.82 255.11 266.58 249.51 269.70 C 243.91 272.82 238.33 275.75 232.69 277.91 C 227.04 280.07 221.31 281.67 215.65 282.65 C 209.98 283.62 204.21 284.00 198.68 283.77 C 193.15 283.54 187.59 282.86 182.48 281.24 C 177.37 279.63 172.41 277.06 168.01 274.09 C 163.61 271.12 159.59 267.40 156.08 263.44 C 152.57 259.49 149.45 255.04 146.94 250.35 C 144.43 245.66 142.26 240.60 141.00 235.33 C 139.74 230.06 139.02 224.33 139.37 218.73 C 139.73 213.12 141.04 207.23 143.11 201.69 C 145.18 196.15 148.27 190.55 151.80 185.49 C 155.34 180.44 159.54 175.59 164.33 171.36 C 169.12 167.14 174.79 163.31 180.54 160.13 C 186.30 156.95 192.46 154.21 198.86 152.29 C 205.26 150.37 212.15 149.05 218.94 148.60 C 225.73 148.15 232.79 148.42 239.60 149.58 C 246.41 150.73 253.32 152.83 259.78 155.55 C 266.24 158.26 272.57 161.92 278.36 165.87 C 284.15 169.82 289.55 174.45 294.52 179.26 C 299.48 184.07 304.24 189.16 308.14 194.72 C 312.05 200.28 315.19 206.49 317.94 212.62 C 320.70 218.76 322.96 225.19 324.66 231.54 C 326.36 237.88 327.63 244.30 328.16 250.71 C 328.70 257.11 328.36 263.64 327.86 269.96 C 327.36 276.28 326.28 282.61 325.15 288.64 C 324.03 294.68 322.38 300.46 321.12 306.16 C 319.85 311.87 318.58 317.50 317.56 322.88 C 316.55 328.26 315.59 333.41 315.04 338.45 C 314.50 343.49 313.94 348.48 314.31 353.11 C 314.67 357.74 315.63 362.29 317.23 366.24 C 318.82 370.19 321.32 373.69 323.87 376.84 C 326.41 379.99 329.13 383.03 332.49 385.12 C 335.85 387.20 339.91 388.62 344.03 389.34 C 348.15 390.06 352.78 390.00 357.23 389.45 C 361.69 388.89 366.30 387.82 370.75 386.00 C 375.20 384.18 379.79 381.72 383.93 378.51 C 388.07 375.31 392.17 371.46 395.58 366.77 C 398.98 362.09 402.11 356.38 404.38 350.39 C 406.64 344.41 408.32 337.66 409.18 330.87 C 410.04 324.08 410.33 316.81 409.55 309.63 C 408.77 302.45 407.15 294.90 404.50 287.77 C 401.86 280.63 397.74 273.46 393.69 266.82 C 389.64 260.18 384.85 253.97 380.20 247.93 C 375.54 241.89 370.49 236.19 365.76 230.58 C 361.02 224.97 356.34 219.55 351.80 214.28 C 347.27 209.01 342.46 204.07 338.53 198.96 C 334.60 193.85 331.29 188.69 328.23 183.62 C 325.17 178.55 322.26 173.49 320.17 168.55 C 318.09 163.60 316.49 158.62 315.72 153.94 C 314.95 149.25 315.04 144.70 315.56 140.43 C 316.09 136.17 317.33 132.02 318.88 128.35 C 320.44 124.67 322.27 121.14 324.89 118.41 C 327.51 115.68 330.84 113.29 334.59 111.98 C 338.34 110.67 342.92 110.16 347.39 110.55 C 351.86 110.94 356.78 112.16 361.40 114.32 C 366.01 116.47 370.86 119.56 375.07 123.48 C 379.27 127.39 383.31 132.41 386.62 137.82 C 389.93 143.24 392.85 149.47 394.91 155.97 C 396.98 162.47 398.51 169.58 399.02 176.81 C 399.53 184.05 399.31 191.89 397.97 199.39 C 396.64 206.90 394.22 214.69 390.99 221.84 C 387.75 229.00 383.57 236.14 378.59 242.33 C 373.60 248.52 367.45 254.24 361.09 259.00 C 354.73 263.76 347.70 268.10 340.44 270.90 C 333.19 273.69 325.14 275.22 317.56 275.76 C 309.98 276.31 302.10 275.69 294.94 274.18 C 287.77 272.67 280.63 270.09 274.58 266.72 C 268.53 263.34 262.98 258.80 258.64 253.93 C 254.30 249.06 250.77 243.23 248.54 237.51 C 246.31 231.80 245.42 225.49 245.27 219.63 C 245.12 213.77 246.03 207.73 247.65 202.34 C 249.27 196.96 251.67 191.64 255.00 187.31 C 258.34 182.97 262.98 179.21 267.64 176.33 C 272.31 173.44 278.14 171.09 283.00 170.01 C 287.87 168.92 291.69 169.04 296.84 169.81 C 302.00 170.58 308.49 172.23 313.95 174.61 C 319.41 176.99 324.94 180.13 329.58 184.09 C 334.22 188.05 338.49 192.96 341.79 198.37 C 345.09 203.77 347.52 210.25 349.37 216.52 C 351.21 222.80 352.58 229.42 352.86 236.02 C 353.13 242.63 352.68 249.63 351.02 256.15 C 349.36 262.68 346.72 269.45 342.88 275.20 C 339.04 280.94 333.71 286.52 327.97 290.64 C 322.22 294.75 315.29 298.01 308.42 299.87 C 301.54 301.72 293.78 302.38 286.72 301.74 C 279.67 301.11 272.29 299.12 266.08 296.05 C 259.87 292.98 254.03 288.32 249.45 283.34 C 244.87 278.35 240.87 272.26 238.61 266.15 C 236.36 260.03 235.40 252.93 235.94 246.67 C 236.49 240.40 238.66 233.76 241.88 228.56 C 245.09 223.36 250.12 218.65 255.23 215.47 C 260.35 212.28 266.63 210.01 272.58 209.43 C 278.52 208.84 285.29 209.81 290.93 211.97 C 296.57 214.13 302.24 217.91 306.43 222.40 C 310.61 226.88 314.23 232.87 316.04 238.89 C 317.84 244.90 318.29 252.12 317.23 258.47 C 316.18 264.83 313.39 271.56 309.71 277.00 C 306.03 282.45 300.58 287.26 295.16 291.15 C 289.74 295.04 283.48 298.38 277.20 300.35 C 270.91 302.33 263.95 303.20 257.44 303.02 C 250.92 302.84 244.21 301.39 238.13 299.28 C 232.05 297.17 226.14 293.96 220.95 290.38 C 215.76 286.80 210.91 282.58 206.99 277.80 C 203.07 273.02 199.83 267.37 197.42 261.71 C 195.01 256.05 193.23 249.87 192.53 243.83 C 191.83 237.79 192.10 231.43 193.22 225.47 C 194.33 219.51 196.44 213.52 199.20 208.08 C 201.96 202.65 205.48 197.28 209.76 192.86 C 214.05 188.44 219.34 184.41 224.91 181.57 C 230.49 178.73 236.86 176.58 243.19 175.80 C 249.53 175.01 256.50 175.57 262.92 176.88 C 269.35 178.18 275.98 180.37 281.73 183.61 C 287.48 186.84 292.97 191.30 297.42 196.29 C 301.87 201.28 305.73 207.37 308.45 213.54 C 311.16 219.71 312.78 226.64 313.71 233.31 C 314.63 239.97 314.36 246.91 313.99 253.52 C 313.62 260.14 312.70 266.72 311.48 273.00 C 310.27 279.29 308.61 285.32 306.68 291.21 C 304.76 297.10 302.20 302.79 299.94 308.32 C 297.67 313.84 295.03 319.10 293.09 324.36 C 291.14 329.62 289.62 334.82 288.28 339.87 C 286.94 344.91 285.65 349.85 285.06 354.64 C 284.47 359.43 284.43 364.14 284.74 368.62 C 285.06 373.10 285.68 377.53 286.96 381.52 C 288.25 385.52 290.33 389.15 292.45 392.60 C 294.57 396.06 297.34 399.12 299.68 402.26 C 302.02 405.40 304.28 408.47 306.50 411.45 C 308.73 414.43 311.03 417.27 313.03 420.13 C 315.03 422.98 316.96 425.74 318.49 428.58 C 320.03 431.43 321.19 434.34 322.24 437.21 C 323.30 440.07 324.42 442.87 324.82 445.77 C 325.23 448.66 325.14 451.71 324.70 454.60 C 324.25 457.49 323.54 460.36 322.16 463.10 C 320.77 465.84 318.90 468.61 316.40 471.03 C 313.90 473.46 310.81 475.78 307.15 477.64 C 303.49 479.51 299.11 481.16 294.44 482.22 C 289.77 483.28 284.66 484.11 279.13 484.01 C 273.60 483.91 267.34 482.99 261.27 481.65 C 255.21 480.31 248.93 478.62 242.73 475.96 C 236.54 473.31 230.12 469.77 224.12 465.72 C 218.13 461.68 212.19 456.99 206.75 451.70 C 201.31 446.41 195.94 440.55 191.49 433.98 C 187.04 427.42 183.11 419.98 180.03 412.33 C 176.95 404.67 174.56 396.32 173.01 388.05 C 171.47 379.78 170.83 371.10 170.75 362.72 C 170.67 354.34 171.19 345.87 172.52 337.77 C 173.84 329.67 175.77 321.55 178.71 314.10 C 181.64 306.65 185.77 299.58 190.11 293.09 C 194.45 286.60 199.40 280.39 204.76 275.19 C 210.13 269.98 216.16 265.47 222.32 261.86 C 228.48 258.24 235.22 255.55 241.74 253.49 C 248.26 251.42 254.99 250.11 261.45 249.48 C 267.90 248.86 274.32 249.16 280.45 249.73 C 286.58 250.31 292.49 251.68 298.22 252.95 C 303.96 254.23 309.48 255.92 314.86 257.38 C 320.23 258.84 325.38 260.41 330.47 261.70 C 335.56 262.98 340.52 264.24 345.42 265.10 C 350.32 265.97 355.17 266.61 359.86 266.90 C 364.54 267.19 369.09 267.26 373.53 266.86 C 377.98 266.45 382.38 265.71 386.50 264.47 C 390.62 263.24 394.57 261.43 398.27 259.44 C 401.96 257.45 405.60 255.37 408.69 252.53 C 411.78 249.70 414.62 246.24 416.81 242.45 C 419.00 238.65 420.82 234.39 421.85 229.76 C 422.87 225.14 423.49 219.95 422.96 214.69 C 422.42 209.42 421.03 203.62 418.63 198.17 C 416.24 192.72 412.85 186.99 408.59 181.97 C 404.33 176.96 398.96 172.08 393.08 168.08 C 387.19 164.08 380.49 160.25 373.29 157.98 C 366.09 155.71 357.81 154.40 349.86 154.47 C 341.92 154.54 333.35 155.85 325.62 158.40 C 317.89 160.96 310.02 165.06 303.47 169.81 C 296.92 174.57 290.97 180.62 286.34 186.93 C 281.71 193.24 278.03 201.30 275.69 207.68 C 273.35 214.05 272.62 218.80 272.32 225.18 C 272.02 231.56 272.29 239.58 273.90 245.96 C 275.52 252.33 278.35 258.61 282.01 263.42 C 285.67 268.24 290.87 272.10 295.86 274.86 C 300.85 277.62 306.57 279.40 311.94 279.97 C 317.32 280.53 323.15 280.12 328.09 278.26 C 333.02 276.40 337.99 272.93 341.56 268.80 C 345.13 264.67 348.02 259.04 349.50 253.47 C 350.99 247.89 351.56 241.36 350.47 235.35 C 349.39 229.34 346.69 222.78 343.01 217.41 C 339.33 212.03 334.11 206.86 328.40 203.11 C 322.69 199.35 315.62 196.35 308.74 194.88 C 301.85 193.42 294.14 193.22 287.11 194.31 C 280.08 195.40 272.68 197.85 266.57 201.43 C 260.47 205.01 254.78 210.29 250.47 215.79 C 246.15 221.29 242.57 227.94 240.66 234.43 C 238.75 240.91 238.11 248.27 239.00 254.69 C 239.88 261.11 242.62 267.60 245.95 272.96 C 249.28 278.31 254.03 283.23 258.95 286.84 C 263.88 290.45 269.75 293.24 275.52 294.63 C 281.30 296.01 287.80 296.07 293.61 295.16 C 299.41 294.24 305.34 292.14 310.36 289.14 C 315.38 286.15 320.22 281.98 323.72 277.19 C 327.23 272.40 329.89 266.36 331.41 260.43 C 332.93 254.50 333.27 247.83 332.83 241.61 C 332.39 235.39 331.22 228.88 328.77 223.09 C 326.33 217.31 322.54 211.62 318.15 206.89 C 313.76 202.15 308.24 197.84 302.44 194.70 C 296.64 191.57 289.90 189.38 283.36 188.10 C 276.83 186.81 269.83 186.37 263.22 187.01 C 256.60 187.64 249.82 189.34 243.68 191.92 C 237.54 194.49 231.49 198.20 226.37 202.44 C 221.25 206.68 216.68 211.91 212.96 217.36 C 209.23 222.80 206.10 228.94 204.03 235.13 C 201.95 241.33 200.81 248.08 200.50 254.53 C 200.19 260.97 200.71 267.63 202.18 273.81 C 203.65 279.99 206.15 286.18 209.32 291.63 C 212.50 297.07 216.54 302.28 221.22 306.46 C 225.90 310.63 231.67 314.06 237.41 316.65 C 243.15 319.24 249.41 321.16 255.65 321.99 C 261.88 322.82 268.62 322.74 274.81 321.61 C 280.99 320.49 287.20 318.28 292.74 315.25 C 298.29 312.22 303.79 308.17 308.08 303.44 C 312.36 298.71 316.10 292.88 318.46 286.85 C 320.81 280.82 322.14 273.84 322.23 267.24 C 322.32 260.65 321.23 253.52 318.99 247.27 C 316.76 241.03 313.18 234.79 308.82 229.76 C 304.47 224.73 298.84 220.06 292.87 217.09 C 286.90 214.12 279.67 212.19 273.01 211.95 C 266.36 211.71 259.13 213.24 252.94 215.64 C 246.76 218.05 240.66 221.94 235.89 226.41 C 231.13 230.88 227.28 236.73 224.36 242.45 C 221.43 248.17 219.70 254.58 218.34 260.74 C 216.98 266.90 216.58 273.30 216.20 279.41 C 215.82 285.52 215.92 291.58 216.07 297.42 C 216.21 303.26 216.80 308.92 217.07 314.46 C 217.35 319.99 217.93 325.44 217.73 330.62 C 217.52 335.81 216.89 340.83 215.84 345.55 C 214.79 350.27 213.30 354.79 211.44 358.94 C 209.58 363.09 207.28 366.98 204.68 370.46 C 202.09 373.94 199.26 377.30 195.84 379.81 C 192.43 382.33 188.40 384.34 184.22 385.56 C 180.04 386.79 175.36 387.28 170.77 387.17 C 166.18 387.06 161.35 386.29 156.69 384.91 C 152.02 383.53 147.24 381.56 142.78 378.90 C 138.32 376.23 133.98 372.67 129.93 368.93 C 125.87 365.20 121.91 361.12 118.47 356.48 C 115.03 351.85 111.96 346.56 109.29 341.15 C 106.63 335.74 104.28 329.97 102.46 324.02 C 100.63 318.07 99.15 311.83 98.34 305.46 C 97.53 299.08 97.35 292.34 97.60 285.75 C 97.86 279.16 98.69 272.47 99.86 265.93 C 101.03 259.38 102.53 252.84 104.63 246.48 C 106.72 240.11 109.24 233.78 112.42 227.73 C 115.60 221.68 119.57 215.72 123.70 210.17 C 127.84 204.61 132.36 199.29 137.22 194.39 C 142.08 189.49 147.29 184.84 152.86 180.76 C 158.43 176.68 164.43 173.04 170.63 169.94 C 176.83 166.85 183.48 164.29 190.08 162.19 C 196.68 160.09 203.59 158.77 210.23 157.33 C 216.87 155.90 223.50 154.73 229.90 153.59 C 236.30 152.45 242.69 151.71 248.64 150.50 C 254.60 149.30 260.32 148.02 265.63 146.36 C 270.93 144.71 275.93 142.76 280.47 140.55 C 285.01 138.34 289.16 135.78 292.85 133.11 C 296.55 130.43 299.96 127.60 302.63 124.49 C 305.30 121.37 307.75 117.96 308.88 114.40 C 310.01 110.83 310.16 106.79 309.43 103.09 C 308.71 99.39 307.09 95.46 304.52 92.18 C 301.95 88.91 298.27 85.73 294.02 83.44 C 289.78 81.15 284.51 79.35 279.05 78.45 C 273.59 77.55 267.38 77.27 261.24 78.02 C 255.11 78.76 248.48 80.32 242.24 82.93 C 236.01 85.54 229.58 89.19 223.82 93.67 C 218.06 98.16 212.37 103.72 207.68 109.84 C 202.99 115.97 198.84 123.15 195.67 130.42 C 192.51 137.70 190.02 145.61 188.69 153.51 C 187.36 161.40 187.29 169.81 187.70 177.80 C 188.11 185.79 189.53 193.81 191.13 201.44 C 192.73 209.07 195.26 217.12 197.31 223.58 C 199.35 230.03 201.08 234.17 203.41 240.16 C 205.75 246.15 208.88 253.18 211.33 259.53 C 213.79 265.88 216.41 272.13 218.16 278.27 C 219.91 284.40 221.15 290.45 221.82 296.32 C 222.50 302.18 222.71 308.02 222.21 313.45 C 221.71 318.89 220.70 324.26 218.81 328.94 C 216.93 333.63 214.07 337.94 210.90 341.55 C 207.73 345.17 203.65 347.92 199.81 350.64 C 195.97 353.36 191.92 355.73 187.86 357.85 C 183.81 359.97 179.43 361.51 175.49 363.36 C 171.55 365.20 167.84 367.09 164.22 368.93 C 160.60 370.77 156.94 372.37 153.74 374.40 C 150.55 376.43 147.76 378.80 145.06 381.11 C 142.36 383.41 139.73 385.69 137.55 388.20 C 135.36 390.72 133.46 393.39 131.96 396.21 C 130.45 399.03 129.22 402.03 128.51 405.11 C 127.80 408.19 127.36 411.39 127.71 414.70 C 128.07 418.01 129.03 421.57 130.65 424.98 C 132.28 428.38 134.47 431.93 137.48 435.14 C 140.48 438.35 144.33 441.58 148.70 444.23 C 153.06 446.87 158.08 449.31 163.65 451.00 C 169.21 452.69 175.53 454.08 182.08 454.38 C 188.62 454.68 195.84 454.13 202.94 452.80 C 210.04 451.47 217.53 449.15 224.65 446.41 C 231.78 443.67 238.92 440.29 245.69 436.36 C 252.46 432.43 259.10 427.74 265.26 422.81 C 271.42 417.87 277.15 412.32 282.65 406.74 C 288.14 401.16 293.26 395.09 298.25 389.32 C 303.23 383.55 308.00 377.81 312.55 372.11 C 317.11 366.40 321.32 360.55 325.58 355.09 C 329.84 349.62 333.97 344.29 338.13 339.31 C 342.29 334.32 346.37 329.40 350.55 325.17 C 354.74 320.94 358.99 317.16 363.25 313.94 C 367.50 310.73 371.84 307.95 376.10 305.86 C 380.36 303.76 384.66 302.13 388.79 301.37 C 392.91 300.61 397.12 300.61 400.86 301.28 C 404.60 301.95 408.18 303.40 411.20 305.40 C 414.22 307.40 416.89 310.21 418.98 313.29 C 421.08 316.37 422.87 319.96 423.77 323.88 C 424.67 327.80 425.10 332.22 424.38 336.80 C 423.66 341.37 421.81 346.56 419.44 351.33 C 417.07 356.11 414.00 360.98 410.17 365.44 C 406.35 369.91 401.79 374.40 396.47 378.12 C 391.16 381.83 384.87 385.26 378.26 387.73 C 371.66 390.20 364.10 391.71 356.83 392.95 C 349.55 394.18 341.91 394.55 334.62 395.14 C 327.33 395.74 320.07 396.07 313.09 396.50 C 306.12 396.93 299.19 397.03 292.77 397.70 C 286.34 398.37 280.27 399.34 274.55 400.53 C 268.84 401.72 263.43 403.16 258.48 404.85 C 253.53 406.54 248.72 408.36 244.85 410.67 C 240.98 412.98 237.52 415.74 235.25 418.72 C 232.98 421.70 231.64 425.26 231.23 428.56 C 230.81 431.86 231.79 435.32 232.77 438.53 C 233.74 441.73 235.13 444.93 237.08 447.80 C 239.02 450.66 241.68 453.31 244.44 455.73 C 247.20 458.14 250.59 460.19 253.63 462.30 C 256.67 464.40 259.81 466.34 262.66 468.35 C 265.52 470.37 268.31 472.38 270.75 474.38 C 273.19 476.39 275.23 478.37 277.32 480.37 C 279.41 482.36 281.57 484.36 283.28 486.35 C 285.00 488.34 286.64 490.25 287.59 492.31 C 288.53 494.36 288.98 496.54 288.96 498.67 C 288.94 500.79 288.28 503.02 287.49 505.06 C 286.70 507.09 285.61 513.11 284.23 510.88 C 282.85 508.65 280.30 500.23 279.22 491.69 C 278.14 483.15 277.92 470.05 277.75 459.65 C 277.57 449.25 278.06 439.13 278.15 429.28 C 278.25 419.44 278.30 409.90 278.29 400.59 C 278.29 391.29 278.45 382.27 278.15 373.46 C 277.85 364.66 277.20 356.08 276.50 347.76 C 275.79 339.45 275.11 331.38 273.91 323.56 C 272.71 315.75 271.40 308.03 269.29 300.88 C 267.18 293.72 264.52 286.84 261.24 280.63 C 257.97 274.43 253.99 268.65 249.67 263.63 C 245.35 258.62 240.40 254.14 235.33 250.54 C 230.27 246.94 224.74 244.07 219.26 242.03 C 213.78 240.00 207.99 238.71 202.45 238.31 C 196.90 237.90 191.15 238.19 185.99 239.61 C 180.83 241.03 175.84 243.78 171.47 246.81 C 167.11 249.85 162.98 253.54 159.80 257.79 C 156.63 262.04 154.03 267.11 152.43 272.32 C 150.83 277.53 149.99 283.35 150.21 289.04 C 150.43 294.73 151.40 300.92 153.76 306.46 C 156.11 312.00 159.99 317.53 164.34 322.28 C 168.69 327.02 174.07 331.53 179.86 334.96 C 185.65 338.39 192.31 341.39 199.09 342.86 C 205.88 344.32 213.46 344.50 220.58 343.74 C 227.70 342.99 235.20 341.27 241.81 338.33 C 248.42 335.40 254.90 331.04 260.22 326.15 C 265.54 321.25 269.81 314.93 273.73 308.95 C 277.65 302.97 280.80 296.54 283.73 290.25 C 286.67 283.96 289.13 277.50 291.32 271.21 C 293.51 264.92 295.22 258.65 296.86 252.52 C 298.50 246.39 299.82 240.31 301.17 234.43 C 302.53 228.54 303.90 222.80 305.01 217.19 C 306.12 211.59 306.95 206.11 307.85 200.79 C 308.75 195.47 309.47 190.28 310.41 185.27 C 311.35 180.26 312.24 175.37 313.49 170.75 C 314.74 166.12 316.57 161.40 317.88 157.54 C 319.19 153.68 320.14 151.23 321.35 147.57 C 322.56 143.92 324.14 139.58 325.14 135.59 C 326.14 131.60 326.91 127.60 327.34 123.64 C 327.78 119.69 327.87 115.72 327.76 111.86 C 327.65 107.99 327.38 104.19 326.70 100.48 C 326.02 96.77 325.05 93.12 323.69 89.57 C 322.34 86.03 320.85 82.45 318.57 79.21 C 316.28 75.97 313.45 72.81 309.98 70.14 C 306.51 67.46 302.02 65.24 297.75 63.18 C 293.48 61.11 288.89 59.37 284.36 57.75 C 279.84 56.13 275.19 54.75 270.61 53.47 C 266.03 52.19 261.51 51.01 256.89 50.08 C 252.28 49.14 247.46 48.58 242.91 47.85 C 238.35 47.13 233.77 46.51 229.56 45.74 C 225.35 44.97 221.36 44.21 217.66 43.24 C 213.95 42.26 210.54 41.10 207.35 39.89 C 204.15 38.67 201.09 37.37 198.50 35.92 C 195.91 34.47 193.60 32.91 191.78 31.20 C 189.95 29.49 188.29 27.65 187.56 25.66 C 186.84 23.67 186.77 21.42 187.43 19.26 C 188.09 17.10 189.41 14.70 191.55 12.69 C 193.69 10.67 196.75 8.65 200.27 7.17 C 203.78 5.69 207.91 4.41 212.64 3.81 C 217.37 3.20 222.93 2.87 228.67 3.55 C 234.42 4.23 240.82 5.62 247.11 7.90 C 253.40 10.17 260.07 13.24 266.40 17.20 C 272.74 21.16 279.31 25.98 285.13 31.68 C 290.95 37.37 296.65 44.10 301.33 51.36 C 306.01 58.63 310.12 66.88 313.23 75.27 C 316.33 83.67 318.51 92.81 319.95 101.73 C 321.38 110.66 322.10 119.95 321.85 128.80 C 321.60 137.66 320.68 146.59 318.44 154.87 C 316.20 163.14 312.64 171.37 308.44 178.45 C 304.23 185.54 298.79 191.95 293.20 197.38 C 287.62 202.81 281.24 207.47 274.93 211.02 C 268.63 214.57 261.84 217.04 255.38 218.69 C 248.92 220.35 242.32 221.10 236.18 220.95 C 230.05 220.80 223.94 219.61 218.58 217.77 C 213.22 215.93 208.20 213.15 204.05 209.91 C 199.90 206.66 196.23 202.65 193.69 198.31 C 191.14 193.97 189.48 188.82 188.75 183.89 C 188.03 178.95 188.12 173.60 189.36 168.71 C 190.60 163.81 193.04 158.83 196.19 154.52 C 199.34 150.22 203.60 146.11 208.25 142.88 C 212.90 139.65 218.37 136.90 224.10 135.13 C 229.83 133.35 236.31 132.51 242.62 132.24 C 248.93 131.96 255.60 132.59 261.94 133.47 C 268.29 134.35 274.57 135.84 280.70 137.51 C 286.84 139.18 292.92 141.35 298.75 143.48 C 304.58 145.61 310.16 147.96 315.66 150.30 C 321.16 152.64 326.54 155.25 331.77 157.51 C 337.01 159.77 342.10 161.94 347.05 163.87 C 352.01 165.80 356.81 167.75 361.48 169.11 C 366.16 170.48 370.71 171.37 375.09 172.07 C 379.47 172.77 383.71 173.16 387.76 173.29 C 391.82 173.43 395.64 173.04 399.41 172.90 C 403.19 172.77 406.77 172.40 410.40 172.50 C 414.03 172.59 417.66 172.89 421.18 173.48 C 424.70 174.06 428.17 174.72 431.53 176.00 C 434.89 177.27 438.19 178.95 441.32 181.10 C 444.46 183.26 447.56 185.89 450.34 188.93 C 453.12 191.97 455.83 195.31 458.00 199.33 C 460.16 203.35 462.08 208.04 463.32 213.05 C 464.56 218.06 465.08 223.82 465.45 229.39 C 465.82 234.95 465.78 240.73 465.53 246.44 C 465.29 252.15 464.75 257.92 463.97 263.64 C 463.19 269.36 461.96 275.14 460.86 280.76 C 459.76 286.37 458.46 292.00 457.37 297.31 C 456.28 302.63 455.30 307.67 454.34 312.67 C 453.39 317.67 452.50 322.61 451.65 327.33 C 450.80 332.05 449.89 336.60 449.25 340.98 C 448.62 345.36 448.20 349.57 447.85 353.60 C 447.49 357.62 447.11 361.54 447.12 365.11 C 447.14 368.68 447.51 371.90 447.92 375.01 C 448.34 378.12 449.05 380.91 449.61 383.76 C 450.17 386.60 450.84 389.34 451.29 392.08 C 451.74 394.81 452.10 397.44 452.30 400.17 C 452.51 402.90 452.68 405.65 452.51 408.44 C 452.35 411.23 451.90 414.04 451.32 416.92 C 450.74 419.80 450.19 422.71 449.04 425.71 C 447.88 428.72 446.38 431.84 444.39 434.93 C 442.40 438.02 440.04 441.17 437.10 444.25 C 434.16 447.34 430.34 450.49 426.75 453.46 C 423.15 456.42 419.29 459.25 415.53 462.02 C 411.78 464.78 407.64 467.42 404.22 470.06 C 400.80 472.70 397.66 475.34 395.01 477.85 C 392.36 480.37 390.13 482.85 388.32 485.17 C 386.50 487.50 384.92 489.78 384.11 491.81 C 383.31 493.84 383.01 495.88 383.49 497.33 C 383.97 498.78 385.23 500.01 387.01 500.51 C 388.79 501.01 391.43 501.00 394.18 500.33 C 396.94 499.66 400.27 498.20 403.53 496.49 C 406.78 494.78 410.28 492.59 413.71 490.07 C 417.13 487.55 420.69 484.41 424.08 481.39 C 427.47 478.37 430.76 475.12 434.03 471.94 C 437.30 468.76 440.54 465.47 443.70 462.31 C 446.86 459.15 450.02 455.81 452.98 452.98 C 455.93 450.16 458.73 447.53 461.43 445.35 C 464.13 443.17 466.77 441.38 469.18 439.90 C 471.59 438.43 474.06 437.19 475.88 436.51 C 477.69 435.83 478.73 435.70 480.06 435.83 C 481.38 435.97 482.93 436.46 483.83 437.30 C 484.73 438.14 485.34 439.37 485.45 440.89 C 485.56 442.40 485.21 444.35 484.50 446.41 C 483.78 448.46 482.88 450.76 481.15 453.21 C 479.41 455.67 477.14 458.45 474.09 461.13 C 471.03 463.81 467.19 466.69 462.84 469.30 C 458.49 471.91 453.55 474.61 447.99 476.81 C 442.44 479.01 436.02 480.95 429.52 482.50 C 423.03 484.04 416.08 485.24 409.02 486.06 C 401.96 486.87 394.43 487.16 387.17 487.38 C 379.90 487.60 372.55 487.47 365.40 487.37 C 358.25 487.28 351.07 486.96 344.26 486.83 C 337.45 486.70 330.67 486.37 324.53 486.59 C 318.39 486.81 312.56 487.32 307.43 488.16 C 302.30 488.99 297.66 490.18 293.77 491.59 C 289.88 493.00 286.55 494.81 284.08 496.64 C 281.60 498.46 279.63 500.58 278.94 502.53 C 278.24 504.47 278.65 506.74 279.91 508.30 C 281.17 509.86 284.48 516.61 286.49 511.91 C 288.51 507.21 290.78 490.58 292.00 480.10 C 293.22 469.63 293.64 459.18 293.81 449.04 C 293.99 438.89 293.62 428.88 293.05 419.23 C 292.48 409.58 291.25 400.26 290.37 391.11 C 289.50 381.97 288.36 373.02 287.80 364.35 C 287.23 355.69 286.93 347.27 287.00 339.12 C 287.07 330.97 287.67 323.08 288.24 315.45 C 288.80 307.82 289.30 300.39 290.40 293.32 C 291.50 286.25 292.73 279.31 294.84 273.04 C 296.95 266.77 299.93 260.96 303.06 255.71 C 306.20 250.46 309.74 245.62 313.66 241.56 C 317.57 237.50 322.09 234.18 326.53 231.34 C 330.98 228.49 335.68 226.19 340.33 224.49 C 344.97 222.78 349.72 221.60 354.39 221.10 C 359.06 220.60 363.81 220.81 368.34 221.49 C 372.87 222.17 377.38 223.43 381.56 225.17 C 385.74 226.90 389.79 229.13 393.43 231.88 C 397.07 234.63 400.33 238.23 403.40 241.69 C 406.47 245.15 409.14 249.06 411.84 252.65 C 414.55 256.24 417.13 259.78 419.66 263.25 C 422.19 266.72 424.70 270.04 427.02 273.45 C 429.35 276.86 431.45 280.45 433.62 283.72 C 435.80 286.98 437.92 290.12 440.09 293.02 C 442.26 295.92 444.36 298.80 446.65 301.09 C 448.94 303.39 451.35 305.29 453.84 306.80 C 456.33 308.31 458.97 309.50 461.58 310.14 C 464.19 310.77 466.89 311.00 469.50 310.62 C 472.12 310.25 474.78 309.32 477.25 307.87 C 479.72 306.43 482.14 304.40 484.32 301.97 C 486.50 299.55 488.60 296.57 490.36 293.31 C 492.12 290.05 493.74 286.44 494.88 282.42 C 496.02 278.40 496.82 273.91 497.20 269.20 C 497.57 264.48 497.69 259.42 497.13 254.13 C 496.58 248.84 495.55 243.15 493.86 237.48 C 492.16 231.81 489.99 225.88 486.96 220.10 C 483.93 214.32 480.21 208.35 475.66 202.79 C 471.12 197.23 465.59 191.70 459.69 186.75 C 453.79 181.80 447.16 177.14 440.25 173.08 C 433.35 169.03 425.95 165.32 418.27 162.42 C 410.60 159.52 402.41 157.17 394.20 155.67 C 385.99 154.16 377.42 153.34 369.02 153.39 C 360.61 153.44 351.97 154.28 343.79 155.99 C 335.60 157.70 327.49 160.49 319.90 163.63 C 312.32 166.77 305.01 170.51 298.29 174.83 C 291.57 179.15 285.13 184.14 279.58 189.55 C 274.03 194.96 269.08 201.08 265.00 207.28 C 260.91 213.48 257.72 220.18 255.06 226.76 C 252.41 233.34 250.21 240.14 249.07 246.76 C 247.93 253.39 247.71 260.13 248.21 266.51 C 248.71 272.89 250.33 279.19 252.06 285.05 C 253.79 290.91 256.00 296.48 258.59 301.66 C 261.19 306.84 264.10 311.82 267.62 316.13 C 271.15 320.43 275.41 324.24 279.72 327.50 C 284.03 330.76 288.67 333.58 293.48 335.70 C 298.29 337.81 303.55 339.06 308.60 340.19 C 313.64 341.32 318.73 341.98 323.75 342.47 C 328.76 342.96 333.80 343.07 338.68 343.14 C 343.57 343.21 348.42 342.93 353.08 342.88 C 357.74 342.83 362.22 342.85 366.62 342.84 C 371.03 342.82 375.31 342.81 379.50 342.79 C 383.69 342.76 387.86 342.53 391.76 342.70 C 395.66 342.87 399.40 343.18 402.91 343.82 C 406.42 344.46 409.85 345.20 412.83 346.56 C 415.80 347.92 418.39 349.94 420.76 351.98 C 423.14 354.03 425.13 356.46 427.06 358.83 C 428.99 361.19 430.71 363.72 432.34 366.18 C 433.96 368.63 435.28 371.24 436.82 373.54 C 438.36 375.85 439.82 378.18 441.58 380.03 C 443.34 381.87 445.29 383.47 447.36 384.63 C 449.44 385.79 451.66 386.68 454.02 386.98 C 456.38 387.28 458.97 387.06 461.53 386.41 C 464.10 385.76 466.80 384.56 469.42 383.07 C 472.04 381.58 474.74 379.69 477.26 377.47 C 479.78 375.24 482.21 372.48 484.56 369.71 C 486.90 366.94 489.15 363.87 491.34 360.85 C 493.54 357.82 495.70 354.81 497.71 351.57 C 499.72 348.33 501.56 344.75 503.39 341.39 C 505.22 338.02 508.44 334.54 508.71 331.40 C 508.99 328.27 511.01 325.41 505.03 322.57 C 499.04 319.72 482.27 316.72 472.79 314.34 C 463.32 311.97 457.21 310.41 448.20 308.32 C 439.19 306.23 428.26 303.82 418.71 301.81 C 409.16 299.79 399.97 297.71 390.91 296.23 C 381.84 294.75 372.96 293.63 364.33 292.92 C 355.71 292.21 347.32 291.99 339.17 291.97 C 331.03 291.96 323.04 292.06 315.49 292.80 C 307.94 293.55 300.72 294.76 293.88 296.44 C 287.05 298.12 280.41 300.29 274.46 302.89 C 268.51 305.49 263.06 308.61 258.18 312.04 C 253.30 315.46 249.01 319.44 245.19 323.45 C 241.36 327.46 238.05 331.78 235.23 336.11 C 232.41 340.43 230.19 344.98 228.26 349.41 C 226.33 353.84 224.84 358.30 223.66 362.70 C 222.49 367.09 222.08 371.57 221.22 375.80 C 220.35 380.03 219.51 384.12 218.47 388.07 C 217.42 392.02 216.47 395.96 214.95 399.52 C 213.43 403.07 211.64 406.47 209.36 409.41 C 207.08 412.35 204.41 415.03 201.28 417.18 C 198.15 419.32 194.55 421.24 190.58 422.26 C 186.61 423.29 181.98 423.68 177.44 423.31 C 172.90 422.95 168.04 421.78 163.33 420.07 C 158.62 418.36 153.80 415.62 149.18 413.07 C 144.55 410.51 139.99 407.57 135.59 404.75 C 131.18 401.93 126.91 398.85 122.74 396.14 C 118.58 393.43 114.52 390.81 110.60 388.49 C 106.67 386.16 102.86 383.91 99.19 382.20 C 95.51 380.50 91.94 379.19 88.55 378.26 C 85.16 377.33 81.79 376.65 78.84 376.61 C 75.89 376.57 73.19 377.08 70.85 378.04 C 68.50 379.00 66.46 380.61 64.78 382.35 C 63.09 384.09 61.81 386.27 60.73 388.49 C 59.64 390.71 58.84 393.17 58.24 395.68 C 57.65 398.19 57.44 400.94 57.16 403.53 C 56.88 406.12 56.65 408.65 56.57 411.22 C 56.48 413.79 56.58 416.42 56.64 418.96 C 56.70 421.50 56.97 424.09 56.92 426.44 C 56.87 428.78 56.64 431.01 56.33 433.04 C 56.02 435.07 55.65 436.98 55.05 438.62 C 54.44 440.26 53.66 441.67 52.72 442.90 C 51.78 444.14 50.44 444.96 49.43 446.02 C 48.43 447.08 47.35 448.03 46.68 449.28 C 46.00 450.54 45.58 451.97 45.40 453.55 C 45.22 455.13 45.24 456.89 45.58 458.75 C 45.93 460.61 46.55 462.62 47.49 464.70 C 48.44 466.77 49.50 468.93 51.23 471.21 C 52.97 473.50 55.24 476.00 57.93 478.41 C 60.62 480.83 63.71 483.38 67.36 485.71 C 71.01 488.05 75.07 490.38 79.82 492.40 C 84.57 494.42 89.98 496.44 95.85 497.84 C 101.72 499.23 108.10 500.44 115.03 500.80 C 121.96 501.15 129.80 500.76 137.42 499.98 C 145.05 499.19 152.94 497.99 160.79 496.07 C 168.65 494.15 176.74 491.54 184.55 488.46 C 192.37 485.38 200.20 481.91 207.67 477.60 C 215.15 473.30 222.55 468.19 229.39 462.62 C 236.22 457.05 242.77 450.78 248.67 444.18 C 254.57 437.59 260.02 430.47 264.77 423.03 C 269.53 415.60 273.78 407.62 277.19 399.58 C 280.61 391.54 283.24 383.08 285.26 374.80 C 287.27 366.53 288.63 358.10 289.30 349.93 C 289.96 341.75 289.97 333.60 289.24 325.75 C 288.51 317.89 287.18 309.95 284.90 302.78 C 282.63 295.61 279.30 288.82 275.57 282.71 C 271.85 276.61 267.41 270.85 262.54 266.16 C 257.67 261.46 252.04 257.51 246.38 254.55 C 240.72 251.59 234.53 249.57 228.60 248.41 C 222.66 247.25 216.49 247.08 210.77 247.61 C 205.04 248.13 199.30 249.36 194.25 251.57 C 189.20 253.78 184.50 257.21 180.48 260.87 C 176.46 264.52 173.00 268.94 170.12 273.49 C 167.24 278.04 164.67 283.00 163.22 288.17 C 161.77 293.34 161.19 299.02 161.43 304.51 C 161.67 310.00 162.85 315.75 164.67 321.12 C 166.49 326.48 169.09 331.86 172.36 336.70 C 175.62 341.53 179.83 346.08 184.25 350.12 C 188.67 354.17 193.69 357.81 198.87 360.97 C 204.05 364.14 209.83 366.64 215.34 369.12 C 220.86 371.60 226.51 373.73 231.95 375.85 C 237.40 377.96 242.90 379.76 248.02 381.82 C 253.14 383.88 258.18 385.90 262.67 388.22 C 267.15 390.53 271.45 392.94 274.92 395.72 C 278.39 398.50 281.52 401.59 283.48 404.91 C 285.43 408.23 286.33 412.07 286.66 415.65 C 286.99 419.23 286.64 423.02 285.44 426.42 C 284.25 429.82 282.03 433.11 279.50 436.04 C 276.97 438.97 273.56 441.61 270.25 444.01 C 266.94 446.42 263.22 448.47 259.64 450.47 C 256.06 452.47 252.39 454.30 248.77 456.04 C 245.14 457.78 241.39 459.29 237.92 460.90 C 234.46 462.52 230.90 463.98 227.96 465.74 C 225.02 467.49 222.45 469.44 220.28 471.43 C 218.11 473.43 216.10 475.49 214.94 477.71 C 213.77 479.93 213.19 482.40 213.30 484.73 C 213.42 487.06 214.23 489.50 215.64 491.68 C 217.05 493.86 219.05 496.07 221.77 497.81 C 224.48 499.55 227.99 501.11 231.91 502.09 C 235.83 503.08 240.41 503.68 245.29 503.71 C 250.17 503.73 255.65 503.44 261.20 502.25 C 266.74 501.07 272.69 499.20 278.56 496.61 C 284.42 494.02 291.12 490.11 296.38 486.72 C 301.65 483.33 305.20 480.76 310.12 476.26 C 315.05 471.75 321.07 465.78 325.92 459.69 C 330.77 453.60 335.40 446.92 339.23 439.72 C 343.06 432.52 346.19 424.39 348.89 416.48 C 351.59 408.58 353.53 400.29 355.40 392.28 C 357.27 384.27 358.79 376.28 360.12 368.43 C 361.44 360.57 362.30 352.68 363.36 345.14 C 364.41 337.59 365.37 330.24 366.46 323.15 C 367.55 316.06 368.80 309.27 369.92 302.62 C 371.04 295.98 371.86 289.40 373.17 283.26 C 374.49 277.12 375.98 271.21 377.81 265.79 C 379.64 260.38 381.78 255.29 384.14 250.77 C 386.51 246.25 389.23 242.34 392.00 238.67 C 394.76 235.00 397.86 231.89 400.74 228.75 C 403.61 225.61 406.52 222.80 409.23 219.85 C 411.94 216.89 414.64 214.09 417.02 211.02 C 419.40 207.94 421.57 204.68 423.52 201.40 C 425.47 198.11 427.37 194.89 428.71 191.31 C 430.05 187.73 431.01 183.90 431.56 179.91 C 432.11 175.92 432.33 171.67 432.02 167.37 C 431.70 163.08 431.07 158.59 429.67 154.15 C 428.27 149.72 426.41 145.16 423.63 140.75 C 420.86 136.34 417.24 131.74 413.02 127.69 C 408.79 123.65 403.86 119.74 398.28 116.48 C 392.70 113.22 386.32 110.18 379.55 108.14 C 372.77 106.10 365.11 104.88 357.63 104.24 C 350.15 103.60 342.41 103.22 334.68 104.31 C 326.95 105.40 318.81 107.79 311.25 110.80 C 303.69 113.80 296.06 117.66 289.31 122.32 C 282.57 126.99 276.03 132.51 270.77 138.79 C 265.52 145.07 261.04 152.58 257.80 160.01 C 254.55 167.44 252.78 175.62 251.30 183.35 C 249.83 191.09 249.20 198.87 248.93 206.42 C 248.66 213.97 249.34 221.48 249.69 228.63 C 250.03 235.79 250.67 242.64 250.99 249.37 C 251.31 256.09 251.70 262.60 251.62 268.97 C 251.54 275.35 251.22 281.63 250.50 287.61 C 249.77 293.58 248.62 299.31 247.27 304.83 C 245.91 310.36 244.39 315.74 242.37 320.75 C 240.34 325.77 238.05 330.66 235.12 334.90 C 232.19 339.15 228.39 342.77 224.79 346.23 C 221.19 349.69 217.28 352.75 213.51 355.68 C 209.75 358.62 205.92 361.23 202.18 363.85 C 198.45 366.47 194.52 368.78 191.10 371.41 C 187.69 374.03 184.59 376.81 181.69 379.60 C 178.80 382.39 176.06 385.20 173.74 388.14 C 171.41 391.07 169.13 393.95 167.71 397.19 C 166.30 400.44 165.46 404.09 165.24 407.60 C 165.03 411.11 165.32 414.74 166.44 418.27 C 167.55 421.80 169.61 425.46 171.95 428.79 C 174.29 432.12 177.53 435.22 180.47 438.27 C 183.41 441.31 186.59 444.22 189.60 447.07 C 192.61 449.93 195.66 452.71 198.52 455.41 C 201.38 458.11 204.26 460.68 206.75 463.27 C 209.23 465.86 211.60 468.39 213.42 470.94 C 215.25 473.49 216.88 476.09 217.67 478.58 C 218.47 481.06 218.51 483.57 218.18 485.86 C 217.85 488.15 216.94 490.39 215.70 492.31 C 214.46 494.24 212.93 496.07 210.72 497.43 C 208.51 498.79 205.63 499.90 202.45 500.49 C 199.28 501.09 195.58 501.35 191.66 500.98 C 187.73 500.60 183.36 499.73 178.92 498.25 C 174.49 496.76 169.71 494.74 165.04 492.09 C 160.37 489.43 155.50 486.13 150.89 482.30 C 146.27 478.46 141.70 473.83 137.36 469.08 C 133.01 464.33 128.73 459.34 124.83 453.79 C 120.93 448.23 117.05 442.33 113.96 435.75 C 110.87 429.18 108.32 421.78 106.28 414.35 C 104.25 406.93 102.72 399.09 101.77 391.21 C 100.82 383.34 100.34 375.21 100.58 367.12 C 100.83 359.03 101.66 350.76 103.25 342.68 C 104.83 334.60 107.29 326.43 110.08 318.66 C 112.87 310.89 116.37 303.30 119.97 296.03 C 123.57 288.77 127.23 281.66 131.68 275.07 C 136.13 268.48 141.13 262.10 146.67 256.51 C 152.21 250.92 158.47 245.83 164.91 241.54 C 171.34 237.26 178.30 233.74 185.27 230.82 C 192.25 227.90 199.61 225.62 206.77 224.04 C 213.94 222.46 221.19 221.56 228.27 221.33 C 235.35 221.10 242.53 221.75 249.27 222.66 C 256.02 223.57 262.65 224.62 268.75 226.82 C 274.84 229.02 280.71 232.19 285.84 235.86 C 290.97 239.54 295.55 244.16 299.54 248.86 C 303.53 253.56 307.06 258.76 309.77 264.08 C 312.48 269.40 314.59 275.07 315.77 280.76 C 316.96 286.45 317.24 292.45 316.87 298.21 C 316.51 303.97 315.39 309.82 313.56 315.29 C 311.74 320.76 309.01 326.15 305.93 331.02 C 302.85 335.90 299.08 340.46 295.08 344.55 C 291.08 348.65 286.75 352.53 281.90 355.59 C 277.06 358.66 271.58 361.19 266.00 362.95 C 260.43 364.71 254.46 365.95 248.45 366.14 C 242.44 366.33 236.00 365.60 229.95 364.10 C 223.89 362.60 217.76 360.23 212.13 357.13 C 206.50 354.04 200.96 350.04 196.16 345.52 C 191.36 341.01 187.06 335.61 183.32 330.04 C 179.58 324.48 176.59 318.16 173.74 312.13 C 170.88 306.09 168.52 299.83 166.21 293.81 C 163.91 287.78 162.13 281.60 159.89 275.96 C 157.64 270.31 155.08 264.39 152.74 259.95 C 150.39 255.50 148.65 252.84 145.82 249.30 C 142.98 245.76 139.30 241.53 135.72 238.72 C 132.15 235.91 128.25 233.68 124.34 232.45 C 120.44 231.23 116.20 230.81 112.30 231.37 C 108.40 231.93 104.37 233.58 100.94 235.82 C 97.50 238.07 94.50 241.61 91.66 244.85 C 88.82 248.08 86.27 251.60 83.90 255.23 C 81.52 258.87 79.47 262.94 77.41 266.65 C 75.35 270.36 73.58 274.16 71.52 277.48 C 69.47 280.80 67.40 284.04 65.08 286.58 C 62.77 289.12 60.24 291.36 57.63 292.71 C 55.02 294.06 52.15 294.82 49.40 294.67 C 46.66 294.52 43.66 293.59 41.17 291.80 C 38.67 290.00 36.26 287.26 34.43 283.92 C 32.60 280.58 31.26 276.12 30.19 271.78 C 29.12 267.44 28.51 262.61 28.01 257.87 C 27.51 253.14 27.33 248.18 27.18 243.39 C 27.04 238.60 27.24 233.64 27.13 229.14 C 27.02 224.64 27.04 220.22 26.52 216.37 C 26.00 212.52 25.03 209.10 24.02 206.05 C 23.01 202.99 21.88 200.17 20.47 198.05 C 19.06 195.94 17.40 194.14 15.57 193.34 C 13.75 192.53 11.54 192.71 9.52 193.23 C 7.50 193.75 3.90 194.81 3.48 196.44 C 3.06 198.07 0.93 201.21 7.00 203.01 C 13.06 204.80 29.22 206.27 39.87 207.22 C 50.51 208.17 60.81 208.39 70.86 208.71 C 80.91 209.02 90.69 209.03 100.18 209.13 C 109.66 209.22 118.83 209.25 127.77 209.27 C 136.71 209.29 145.32 209.14 153.79 209.26 C 162.26 209.38 170.55 209.29 178.61 209.99 C 186.66 210.68 194.52 212.04 202.11 213.43 C 209.71 214.82 217.03 216.56 224.18 218.32 C 231.33 220.09 238.25 222.26 245.01 224.00 C 251.77 225.73 258.32 227.40 264.75 228.72 C 271.17 230.04 277.45 231.20 283.57 231.89 C 289.68 232.59 295.67 233.04 301.43 232.91 C 307.20 232.77 312.86 232.17 318.14 231.07 C 323.43 229.97 328.48 228.35 333.12 226.28 C 337.76 224.21 342.22 221.73 345.98 218.65 C 349.74 215.57 353.01 211.73 355.69 207.82 C 358.38 203.91 360.62 199.67 362.11 195.21 C 363.60 190.74 364.55 185.86 364.63 181.02 C 364.70 176.17 364.26 170.99 362.57 166.13 C 360.87 161.27 358.06 156.20 354.44 151.87 C 350.81 147.53 346.13 143.32 340.81 140.12 C 335.49 136.92 329.04 134.23 322.54 132.67 C 316.04 131.10 308.84 130.44 301.80 130.73 C 294.76 131.02 287.29 132.23 280.31 134.40 C 273.32 136.57 266.22 139.81 259.88 143.76 C 253.54 147.71 247.41 152.67 242.25 158.12 C 237.09 163.57 232.33 169.83 228.92 176.47 C 225.52 183.10 223.06 190.62 221.83 197.92 C 220.60 205.22 220.35 213.13 221.53 220.25 C 222.72 227.37 225.51 234.56 228.94 240.64 C 232.38 246.72 237.09 252.37 242.13 256.73 C 247.17 261.09 253.16 264.79 259.17 266.82 C 265.19 268.84 272.14 269.45 278.21 268.87 C 284.29 268.30 290.53 266.26 295.63 263.38 C 300.74 260.49 305.41 256.22 308.84 251.56 C 312.27 246.91 314.59 241.02 316.20 235.45 C 317.82 229.88 318.39 223.88 318.52 218.12 C 318.64 212.36 318.15 206.45 316.94 200.89 C 315.73 195.33 313.45 189.96 311.27 184.76 C 309.09 179.56 306.42 174.53 303.86 169.68 C 301.29 164.83 298.49 160.18 295.88 155.65 C 293.27 151.11 290.62 146.76 288.21 142.48 C 285.80 138.19 283.49 134.04 281.39 129.94 C 279.30 125.84 277.28 121.84 275.62 117.89 C 273.96 113.93 272.49 110.04 271.45 106.23 C 270.41 102.42 270.02 98.66 269.38 95.02 C 268.74 91.39 268.41 87.84 267.62 84.42 C 266.82 81.00 265.66 77.71 264.60 74.50 C 263.53 71.28 262.60 68.09 261.24 65.12 C 259.87 62.16 258.25 59.37 256.41 56.70 C 254.57 54.03 252.48 51.43 250.20 49.09 C 247.93 46.75 245.57 44.55 242.77 42.65 C 239.97 40.76 236.72 39.17 233.40 37.73 C 230.08 36.29 226.51 35.01 222.85 34.03 C 219.20 33.04 215.32 32.42 211.48 31.85 C 207.64 31.28 203.58 31.03 199.82 30.59 C 196.06 30.16 192.39 29.70 188.91 29.22 C 185.43 28.74 181.86 28.45 178.93 27.71 C 176.00 26.97 173.34 26.05 171.33 24.77 C 169.31 23.50 167.69 21.83 166.83 20.07 C 165.97 18.31 165.83 16.22 166.19 14.21 C 166.55 12.20 167.29 10.02 168.99 8.02 C 170.69 6.02 173.42 1.32 176.39 2.21 C 179.36 3.11 183.69 6.17 186.78 13.36 C 189.88 20.56 192.78 34.91 194.94 45.38 C 197.10 55.85 198.61 66.19 199.77 76.17 C 200.94 86.16 201.13 95.86 201.93 105.27 C 202.72 114.69 203.44 123.77 204.52 132.68 C 205.61 141.58 206.90 150.29 208.43 158.71 C 209.95 167.13 211.47 175.37 213.66 183.21 C 215.84 191.04 218.58 198.62 221.56 205.74 C 224.53 212.86 227.93 219.57 231.52 225.94 C 235.11 232.31 239.09 238.31 243.11 243.97 C 247.13 249.64 251.64 254.70 255.64 259.92 C 259.65 265.15 263.97 270.68 267.17 275.33 C 270.36 279.98 272.18 283.19 274.80 287.82 C 277.43 292.45 280.57 298.02 282.89 303.13 C 285.21 308.24 287.21 313.37 288.74 318.46 C 290.26 323.55 291.55 328.63 292.05 333.69 C 292.54 338.74 292.52 343.94 291.72 348.80 C 290.92 353.66 289.39 358.47 287.25 362.85 C 285.11 367.23 282.05 371.31 278.86 375.09 C 275.68 378.88 271.94 382.37 268.15 385.55 C 264.36 388.73 260.26 391.57 256.12 394.17 C 251.98 396.77 247.54 398.97 243.29 401.14 C 239.04 403.32 234.75 405.29 230.60 407.22 C 226.44 409.15 222.24 410.82 218.37 412.73 C 214.51 414.64 210.70 416.54 207.39 418.66 C 204.07 420.79 201.01 423.04 198.48 425.48 C 195.94 427.91 193.74 430.55 192.18 433.28 C 190.61 436.01 189.38 438.91 189.09 441.85 C 188.80 444.80 189.17 448.00 190.45 450.94 C 191.72 453.87 194.02 456.83 196.72 459.44 C 199.42 462.04 202.70 464.65 206.64 466.58 C 210.57 468.51 215.25 470.18 220.32 471.03 C 225.39 471.88 231.23 472.11 237.08 471.69 C 242.92 471.28 249.19 470.33 255.40 468.55 C 261.62 466.77 268.15 464.38 274.37 461.03 C 280.58 457.67 286.92 453.28 292.68 448.40 C 298.43 443.53 304.08 438.06 308.89 431.77 C 313.69 425.48 318.24 418.24 321.51 410.65 C 324.78 403.07 327.32 394.62 328.52 386.26 C 329.73 377.90 329.89 368.89 328.72 360.48 C 327.54 352.07 325.05 343.32 321.47 335.83 C 317.89 328.34 312.77 321.14 307.24 315.51 C 301.71 309.89 294.94 305.05 288.30 302.06 C 281.66 299.07 274.05 297.68 267.42 297.59 C 260.79 297.50 253.94 299.07 248.54 301.52 C 243.15 303.96 238.29 308.00 235.06 312.25 C 231.82 316.51 229.70 322.04 229.12 327.06 C 228.54 332.09 229.48 337.79 231.59 342.42 C 233.70 347.05 237.46 351.66 241.77 354.85 C 246.09 358.03 251.80 360.51 257.50 361.51 C 263.19 362.51 269.87 362.30 275.95 360.84 C 282.02 359.39 288.52 356.66 293.96 352.79 C 299.39 348.93 304.65 343.48 308.57 337.67 C 312.50 331.86 315.73 324.89 317.52 317.94 C 319.32 310.99 319.99 303.16 319.35 295.97 C 318.70 288.77 316.64 281.28 313.65 274.77 C 310.65 268.25 306.32 261.91 301.37 256.90 C 296.42 251.89 290.14 247.66 283.95 244.69 C 277.76 241.73 270.81 239.73 264.23 239.11 C 257.65 238.49 250.67 239.40 244.48 240.98 C 238.28 242.57 232.08 245.12 227.06 248.62 C 222.03 252.13 217.45 256.94 214.34 262.01 C 211.23 267.08 209.35 273.23 208.41 279.04 C 207.47 284.86 207.59 291.14 208.70 296.91 C 209.82 302.68 212.38 308.45 215.10 313.68 C 217.82 318.91 221.44 323.72 225.03 328.28 C 228.63 332.83 232.78 336.96 236.66 341.02 C 240.54 345.08 244.56 348.88 248.30 352.67 C 252.05 356.45 255.79 360.03 259.13 363.71 C 262.46 367.39 265.52 371.05 268.31 374.75 C 271.10 378.45 273.90 382.13 275.84 385.93 C 277.78 389.74 279.28 393.72 279.94 397.60 C 280.61 401.48 280.66 405.52 279.85 409.23 C 279.04 412.94 277.29 416.60 275.10 419.88 C 272.92 423.15 269.71 426.08 266.73 428.87 C 263.74 431.66 260.36 434.13 257.18 436.62 C 254.01 439.11 250.54 441.37 247.69 443.79 C 244.83 446.22 242.36 448.68 240.05 451.16 C 237.74 453.64 235.66 456.18 233.83 458.67 C 232.01 461.16 230.30 463.59 229.09 466.10 C 227.88 468.61 226.85 471.19 226.58 473.72 C 226.30 476.26 226.35 478.95 227.45 481.33 C 228.54 483.71 230.54 486.10 233.16 488.00 C 235.79 489.90 239.22 491.70 243.19 492.71 C 247.15 493.71 252.00 494.16 256.93 494.05 C 261.85 493.94 267.31 493.21 272.75 492.04 C 278.19 490.86 283.90 489.29 289.57 487.01 C 295.24 484.73 301.12 481.93 306.74 478.36 C 312.36 474.79 318.01 470.35 323.28 465.59 C 328.55 460.82 333.65 455.46 338.38 449.77 C 343.10 444.07 347.61 437.85 351.63 431.41 C 355.65 424.97 359.33 418.17 362.48 411.13 C 365.64 404.08 368.49 396.72 370.54 389.14 C 372.59 381.56 373.92 373.54 374.77 365.64 C 375.61 357.73 376.04 349.66 375.61 341.70 C 375.17 333.75 374.24 325.65 372.16 317.93 C 370.09 310.22 367.00 302.43 363.15 295.40 C 359.31 288.37 354.27 281.74 349.08 275.76 C 343.90 269.77 337.94 264.41 332.03 259.48 C 326.13 254.55 320.10 249.79 313.66 246.19 C 307.22 242.59 300.24 239.70 293.37 237.87 C 286.51 236.04 279.31 235.18 272.48 235.21 C 265.65 235.24 258.78 236.45 252.37 238.06 C 245.96 239.66 239.69 241.99 234.02 244.86 C 228.36 247.73 222.90 251.23 218.40 255.28 C 213.91 259.34 209.89 264.11 207.04 269.22 C 204.19 274.32 202.23 280.22 201.29 285.92 C 200.36 291.62 200.54 297.73 201.43 303.43 C 202.32 309.12 204.03 314.93 206.61 320.11 C 209.19 325.29 210.53 329.40 216.90 334.51 C 223.27 339.62 240.18 348.07 244.83 350.78" fill="none" stroke="#fff" stroke-width="4.48" stroke-opacity="1" stroke-linecap="round" stroke-linejoin="round"/>
  </g>
</svg>