<?xml version="1.0" encoding="UTF-8"?>
<svg xmlns="http://www.w3.org/2000/svg" width="512" height="512" viewBox="0 0 512 512">
  <rect width="100%" height="100%" fill="#000"/>
  <g>
    <path d="M 256.00 256.00 C 253.62 254.20 246.86 247.81 241.70 245.21 C 236.53 242.61 230.56 241.12 225.01 240.40 C 219.46 239.67 214.14 239.37 208.41 240.87 C 202.68 242.36 195.28 246.16 190.62 249.36 C 185.96 252.56 183.01 255.51 180.43 260.07 C 177.85 264.64 176.29 271.48 175.15 276.78 C 174.01 282.07 173.33 286.04 173.58 291.82 C 173.83 297.60 175.51 305.76 176.63 311.46 C 177.75 317.16 178.95 321.05 180.31 326.00 C 181.67 330.96 183.27 336.37 184.80 341.21 C 186.32 346.05 188.46 350.08 189.45 355.07 C 190.45 360.05 190.91 366.83 190.78 371.13 C 190.65 375.42 189.59 377.80 188.69 380.84 C 187.79 383.87 187.17 386.54 185.40 389.36 C 183.64 392.18 180.73 395.59 178.11 397.74 C 175.49 399.88 172.83 400.95 169.68 402.24 C 166.52 403.53 162.62 404.96 159.18 405.50 C 155.73 406.03 152.98 406.19 149.01 405.47 C 145.03 404.75 139.25 402.02 135.35 401.16 C 131.44 400.30 128.59 400.60 125.58 400.30 C 122.57 400.01 120.04 399.80 117.30 399.41 C 114.57 399.02 112.48 399.07 109.17 397.95 C 105.86 396.82 100.90 394.52 97.43 392.65 C 93.95 390.78 91.12 389.05 88.31 386.73 C 85.51 384.42 83.33 381.54 80.59 378.77 C 77.85 376.00 74.78 373.91 71.89 370.13 C 68.99 366.36 65.85 360.56 63.23 356.11 C 60.61 351.66 58.27 347.12 56.17 343.44 C 54.06 339.76 52.73 337.53 50.58 334.06 C 48.44 330.59 45.47 325.45 43.31 322.65 C 41.15 319.85 39.40 318.71 37.63 317.24 C 35.85 315.77 34.19 314.30 32.65 313.84 C 31.12 313.39 29.68 313.77 28.42 314.51 C 27.16 315.24 25.81 316.57 25.07 318.24 C 24.34 319.91 23.99 322.09 23.99 324.52 C 24.00 326.95 24.55 329.82 25.11 332.82 C 25.66 335.82 26.19 338.73 27.32 342.50 C 28.45 346.28 30.50 351.88 31.91 355.47 C 33.32 359.07 34.83 361.52 35.76 364.07 C 36.68 366.62 37.20 368.55 37.44 370.78 C 37.68 373.00 37.72 375.89 37.19 377.41 C 36.66 378.93 35.39 379.56 34.26 379.90 C 33.13 380.25 31.52 380.02 30.40 379.49 C 29.27 378.96 28.55 377.34 27.51 376.74 C 26.47 376.14 25.16 376.29 24.17 375.89 C 23.17 375.49 22.23 374.71 21.53 374.35 C 20.84 374.00 20.76 374.12 19.99 373.76 C 19.21 373.40 17.96 372.54 16.89 372.21 C 15.82 371.89 14.39 371.95 13.56 371.82 C 12.73 371.68 12.51 371.93 11.88 371.42 C 11.25 370.91 10.69 369.59 9.78 368.76 C 8.88 367.93 7.36 367.60 6.44 366.43 C 5.51 365.26 4.96 363.39 4.24 361.74 C 3.51 360.09 1.62 358.45 2.10 356.53 C 2.58 354.60 -0.67 352.08 7.13 350.20 C 14.93 348.33 36.51 346.57 48.90 345.26 C 61.28 343.94 71.22 342.70 81.46 342.29 C 91.69 341.89 100.99 342.17 110.31 342.81 C 119.63 343.46 128.48 344.16 137.37 346.18 C 146.27 348.20 156.25 352.04 163.68 354.94 C 171.10 357.84 176.78 360.34 181.94 363.58 C 187.10 366.82 191.25 370.74 194.65 374.40 C 198.06 378.06 200.16 381.58 202.37 385.53 C 204.59 389.49 206.39 394.32 207.96 398.12 C 209.54 401.92 210.69 405.21 211.82 408.34 C 212.96 411.48 213.61 414.17 214.76 416.93 C 215.91 419.69 217.15 421.69 218.75 424.88 C 220.34 428.08 222.46 432.96 224.34 436.09 C 226.21 439.23 228.20 441.21 230.00 443.69 C 231.80 446.18 233.91 448.12 235.14 451.00 C 236.37 453.88 237.08 458.35 237.38 460.97 C 237.68 463.59 237.24 464.91 236.95 466.72 C 236.67 468.52 236.10 469.97 235.69 471.79 C 235.28 473.62 234.78 475.81 234.51 477.67 C 234.25 479.52 233.73 481.37 234.10 482.92 C 234.46 484.47 235.62 485.64 236.70 486.97 C 237.78 488.31 239.03 489.55 240.58 490.94 C 242.13 492.32 244.30 493.81 246.00 495.28 C 247.70 496.75 249.21 498.48 250.78 499.74 C 252.35 501.00 254.25 501.71 255.41 502.84 C 256.57 503.96 257.17 505.34 257.74 506.48 C 258.31 507.62 258.77 511.21 258.83 509.67 C 258.89 508.12 258.29 505.04 258.09 497.19 C 257.89 489.35 257.30 473.74 257.63 462.61 C 257.97 451.48 259.27 441.86 260.11 430.41 C 260.96 418.96 262.15 404.61 262.70 393.90 C 263.25 383.20 263.33 375.24 263.39 366.21 C 263.46 357.18 263.09 348.29 263.09 339.73 C 263.08 331.17 263.78 323.57 263.36 314.83 C 262.94 306.09 261.86 295.35 260.56 287.30 C 259.26 279.26 257.77 273.06 255.56 266.56 C 253.35 260.07 250.44 253.86 247.30 248.35 C 244.16 242.83 240.79 238.33 236.73 233.48 C 232.67 228.63 227.35 223.30 222.94 219.23 C 218.54 215.17 214.74 211.87 210.32 209.10 C 205.91 206.32 201.72 203.96 196.46 202.57 C 191.19 201.18 183.99 200.58 178.73 200.76 C 173.48 200.93 169.38 202.67 164.91 203.62 C 160.45 204.58 156.17 204.66 151.95 206.48 C 147.73 208.30 143.73 212.02 139.59 214.55 C 135.45 217.08 130.88 219.92 127.10 221.67 C 123.31 223.41 120.21 224.01 116.88 225.02 C 113.55 226.03 110.45 227.17 107.12 227.71 C 103.78 228.24 100.28 228.02 96.89 228.22 C 93.50 228.42 89.98 228.54 86.77 228.91 C 83.55 229.28 80.11 229.66 77.59 230.45 C 75.07 231.23 73.91 232.20 71.65 233.61 C 69.39 235.02 66.54 236.51 64.03 238.89 C 61.51 241.27 58.34 244.82 56.57 247.87 C 54.81 250.93 54.29 254.05 53.45 257.21 C 52.61 260.37 51.71 262.22 51.53 266.84 C 51.34 271.47 51.36 279.39 52.34 284.97 C 53.32 290.56 54.67 295.28 57.43 300.34 C 60.19 305.40 64.71 310.15 68.88 315.33 C 73.06 320.51 76.57 326.17 82.48 331.43 C 88.39 336.69 97.02 342.97 104.36 346.88 C 111.71 350.80 118.42 353.22 126.53 354.92 C 134.65 356.62 144.45 356.96 153.05 357.05 C 161.65 357.14 169.29 357.30 178.11 355.46 C 186.94 353.62 198.08 350.03 206.00 346.03 C 213.92 342.04 220.25 337.27 225.65 331.48 C 231.04 325.69 235.48 319.09 238.35 311.29 C 241.23 303.50 242.79 292.63 242.90 284.74 C 243.02 276.84 240.96 270.16 239.03 263.93 C 237.09 257.70 234.15 252.50 231.30 247.36 C 228.46 242.22 225.47 238.13 221.94 233.09 C 218.42 228.05 213.59 221.62 210.16 217.13 C 206.74 212.65 204.55 209.80 201.38 206.18 C 198.21 202.56 194.83 198.62 191.15 195.41 C 187.47 192.20 183.61 189.35 179.28 186.90 C 174.95 184.46 169.41 182.05 165.19 180.76 C 160.97 179.47 158.11 178.87 153.95 179.15 C 149.79 179.42 144.51 181.08 140.25 182.41 C 136.00 183.74 132.50 184.17 128.43 187.12 C 124.36 190.07 119.44 196.22 115.84 200.11 C 112.24 204.00 109.67 207.20 106.84 210.46 C 104.01 213.73 101.96 216.31 98.84 219.70 C 95.73 223.08 91.33 227.76 88.17 230.77 C 85.00 233.79 82.31 236.28 79.87 237.79 C 77.42 239.31 75.88 239.66 73.51 239.86 C 71.15 240.06 68.26 239.85 65.67 238.97 C 63.08 238.09 60.02 236.60 57.95 234.58 C 55.88 232.56 54.58 229.35 53.25 226.86 C 51.93 224.37 50.73 222.75 49.99 219.63 C 49.25 216.52 48.20 212.69 48.80 208.18 C 49.41 203.67 51.60 197.63 53.62 192.59 C 55.65 187.55 57.63 182.74 60.94 177.96 C 64.26 173.19 68.63 168.33 73.51 163.94 C 78.40 159.55 83.65 155.86 90.26 151.60 C 96.87 147.34 105.56 141.85 113.17 138.40 C 120.78 134.94 128.19 132.58 135.92 130.88 C 143.65 129.17 150.82 128.09 159.57 128.17 C 168.32 128.24 179.78 129.83 188.41 131.31 C 197.04 132.79 203.98 134.21 211.34 137.04 C 218.71 139.88 226.07 143.86 232.60 148.32 C 239.14 152.79 244.99 157.21 250.55 163.83 C 256.11 170.45 262.11 180.20 265.96 188.06 C 269.80 195.91 272.43 203.56 273.63 210.98 C 274.83 218.41 274.36 225.75 273.18 232.60 C 272.01 239.46 270.07 245.76 266.59 252.09 C 263.11 258.41 257.15 265.65 252.29 270.55 C 247.42 275.45 242.72 279.02 237.40 281.49 C 232.09 283.96 226.37 285.15 220.40 285.40 C 214.43 285.64 207.15 284.84 201.58 282.95 C 196.01 281.05 191.24 277.53 186.98 274.03 C 182.73 270.54 178.88 266.66 176.06 261.97 C 173.23 257.28 171.11 252.16 170.02 245.87 C 168.93 239.59 168.80 230.81 169.53 224.27 C 170.26 217.73 172.12 212.24 174.40 206.64 C 176.67 201.03 179.50 195.56 183.17 190.65 C 186.84 185.74 191.05 181.35 196.40 177.17 C 201.75 172.99 209.49 168.73 215.27 165.57 C 221.06 162.41 225.86 160.82 231.11 158.22 C 236.35 155.63 241.81 152.73 246.76 150.02 C 251.70 147.30 256.20 144.63 260.77 141.91 C 265.35 139.19 270.39 136.42 274.22 133.72 C 278.04 131.01 280.79 128.30 283.73 125.67 C 286.67 123.04 289.54 121.07 291.88 117.95 C 294.22 114.83 296.53 110.38 297.77 106.97 C 299.01 103.56 299.61 100.52 299.32 97.48 C 299.02 94.43 297.65 91.52 295.99 88.69 C 294.32 85.85 292.77 82.88 289.32 80.47 C 285.87 78.06 280.08 75.41 275.31 74.25 C 270.54 73.10 266.08 72.77 260.70 73.53 C 255.33 74.30 249.12 76.34 243.04 78.86 C 236.97 81.38 230.58 84.18 224.24 88.65 C 217.89 93.13 210.15 99.29 204.98 105.72 C 199.82 112.15 196.45 119.57 193.24 127.23 C 190.03 134.89 186.86 143.40 185.71 151.68 C 184.57 159.97 185.19 167.74 186.37 176.94 C 187.54 186.15 190.24 198.36 192.77 206.92 C 195.30 215.48 198.38 221.40 201.55 228.31 C 204.71 235.22 207.70 241.45 211.75 248.39 C 215.80 255.32 221.45 263.58 225.85 269.93 C 230.26 276.28 234.09 281.19 238.20 286.49 C 242.31 291.78 246.46 297.12 250.51 301.70 C 254.55 306.28 257.54 310.08 262.47 313.96 C 267.39 317.84 274.36 322.33 280.04 325.00 C 285.72 327.67 291.22 328.82 296.54 329.99 C 301.85 331.15 306.69 332.07 311.91 331.99 C 317.13 331.91 322.48 330.47 327.84 329.48 C 333.21 328.50 339.00 327.47 344.10 326.10 C 349.20 324.73 353.81 322.65 358.43 321.28 C 363.04 319.92 367.15 319.01 371.81 317.89 C 376.48 316.77 382.13 315.26 386.44 314.57 C 390.75 313.88 394.27 313.86 397.67 313.76 C 401.07 313.65 403.95 313.93 406.85 313.92 C 409.75 313.91 412.03 313.88 415.08 313.69 C 418.13 313.50 422.07 312.97 425.14 312.79 C 428.21 312.61 430.81 313.02 433.49 312.58 C 436.18 312.14 438.71 310.91 441.25 310.15 C 443.79 309.39 445.97 309.31 448.74 308.02 C 451.51 306.73 455.39 304.74 457.87 302.42 C 460.35 300.10 462.08 297.26 463.60 294.11 C 465.11 290.96 466.06 287.39 466.95 283.51 C 467.84 279.64 468.41 275.59 468.96 270.86 C 469.51 266.13 470.33 260.10 470.25 255.14 C 470.16 250.18 469.18 245.54 468.47 241.10 C 467.75 236.67 466.77 233.06 465.94 228.56 C 465.12 224.06 463.88 218.46 463.54 214.10 C 463.20 209.75 464.05 206.17 463.92 202.41 C 463.80 198.65 462.89 195.01 462.79 191.54 C 462.69 188.07 463.01 184.85 463.33 181.58 C 463.66 178.31 464.61 174.79 464.74 171.94 C 464.86 169.08 464.69 167.11 464.09 164.46 C 463.49 161.80 462.00 158.97 461.15 155.98 C 460.31 153.00 460.48 150.34 459.04 146.56 C 457.60 142.77 455.33 137.12 452.52 133.27 C 449.71 129.43 446.06 126.92 442.19 123.50 C 438.33 120.07 433.90 115.92 429.32 112.71 C 424.75 109.50 420.71 107.11 414.72 104.24 C 408.73 101.36 400.52 97.71 393.39 95.46 C 386.26 93.20 379.57 91.48 371.95 90.71 C 364.32 89.95 356.36 90.01 347.63 90.87 C 338.89 91.73 328.29 93.40 319.53 95.85 C 310.76 98.30 302.86 101.84 295.03 105.56 C 287.20 109.29 279.48 113.28 272.54 118.21 C 265.59 123.15 259.27 128.23 253.34 135.17 C 247.41 142.11 241.09 151.86 236.95 159.86 C 232.82 167.86 230.14 175.17 228.52 183.16 C 226.91 191.15 226.70 200.03 227.26 207.80 C 227.83 215.57 229.68 222.45 231.89 229.76 C 234.10 237.08 237.63 245.14 240.51 251.67 C 243.38 258.20 245.84 263.74 249.16 268.94 C 252.47 274.14 256.07 277.74 260.41 282.86 C 264.75 287.97 270.80 294.82 275.20 299.63 C 279.60 304.44 282.81 308.17 286.82 311.72 C 290.83 315.28 294.88 318.41 299.26 320.94 C 303.65 323.47 308.05 325.38 313.13 326.90 C 318.21 328.43 324.58 329.77 329.72 330.09 C 334.86 330.41 339.45 329.69 343.98 328.84 C 348.51 327.99 352.61 327.07 356.90 324.96 C 361.19 322.85 365.88 320.29 369.72 316.18 C 373.56 312.07 377.21 305.70 379.95 300.32 C 382.69 294.95 384.70 289.89 386.15 283.92 C 387.61 277.95 388.82 270.69 388.69 264.49 C 388.56 258.30 387.62 253.21 385.36 246.73 C 383.10 240.25 378.94 231.81 375.13 225.59 C 371.32 219.38 367.66 214.04 362.52 209.46 C 357.38 204.87 351.73 201.22 344.27 198.10 C 336.81 194.97 326.25 191.49 317.75 190.71 C 309.25 189.93 301.09 191.57 293.27 193.43 C 285.45 195.29 277.56 198.38 270.82 201.87 C 264.09 205.37 258.26 208.93 252.88 214.39 C 247.51 219.86 241.81 227.80 238.58 234.67 C 235.35 241.55 234.10 248.91 233.50 255.64 C 232.90 262.38 233.14 269.13 234.99 275.07 C 236.85 281.00 240.58 286.09 244.62 291.27 C 248.65 296.45 254.24 302.26 259.19 306.12 C 264.14 309.99 268.83 312.98 274.34 314.45 C 279.84 315.92 286.45 315.83 292.21 314.95 C 297.97 314.07 303.45 312.77 308.91 309.18 C 314.37 305.58 320.62 298.58 324.97 293.37 C 329.32 288.16 332.24 283.13 335.01 277.92 C 337.79 272.72 339.93 268.31 341.61 262.13 C 343.29 255.96 344.06 247.11 345.08 240.90 C 346.10 234.68 347.31 230.27 347.73 224.83 C 348.16 219.39 347.62 213.73 347.66 208.24 C 347.70 202.74 347.94 197.39 347.98 191.87 C 348.02 186.35 348.13 179.91 347.89 175.11 C 347.65 170.31 346.73 166.91 346.52 163.08 C 346.31 159.24 346.44 155.86 346.62 152.12 C 346.80 148.38 347.39 144.82 347.61 140.64 C 347.83 136.47 347.90 131.31 347.92 127.08 C 347.95 122.84 348.09 118.92 347.76 115.22 C 347.44 111.53 347.41 108.62 345.98 104.91 C 344.54 101.20 341.47 96.38 339.18 92.95 C 336.88 89.52 334.88 86.98 332.21 84.34 C 329.54 81.69 326.22 79.39 323.14 77.10 C 320.06 74.81 317.29 72.90 313.73 70.60 C 310.18 68.29 304.94 65.70 301.80 63.27 C 298.67 60.85 297.23 58.25 294.92 56.05 C 292.62 53.86 289.45 52.11 287.98 50.10 C 286.50 48.10 286.26 45.69 286.06 44.02 C 285.87 42.34 285.91 41.24 286.80 40.03 C 287.69 38.83 289.78 37.99 291.42 36.79 C 293.06 35.60 294.15 33.73 296.65 32.86 C 299.16 31.98 302.79 31.51 306.47 31.57 C 310.15 31.63 315.10 32.69 318.72 33.22 C 322.35 33.75 324.73 33.99 328.22 34.75 C 331.72 35.51 336.36 37.13 339.71 37.75 C 343.05 38.38 345.90 38.47 348.29 38.50 C 350.68 38.52 351.99 38.15 354.03 37.90 C 356.08 37.65 358.53 36.99 360.55 37.00 C 362.57 37.02 363.08 36.85 366.15 37.99 C 369.23 39.14 375.12 41.78 378.99 43.87 C 382.87 45.96 386.14 47.83 389.41 50.54 C 392.68 53.25 395.45 55.88 398.61 60.13 C 401.77 64.38 405.19 69.86 408.38 76.03 C 411.57 82.20 415.28 90.21 417.75 97.15 C 420.22 104.09 421.66 110.47 423.20 117.67 C 424.73 124.86 426.33 132.76 426.96 140.34 C 427.60 147.92 427.72 154.50 427.03 163.14 C 426.35 171.78 424.62 183.80 422.86 192.17 C 421.09 200.54 418.77 206.16 416.45 213.37 C 414.13 220.59 411.98 227.81 408.92 235.47 C 405.87 243.14 401.81 252.37 398.14 259.34 C 394.47 266.32 390.26 271.38 386.91 277.33 C 383.55 283.27 380.81 289.18 378.02 295.01 C 375.22 300.84 372.36 306.26 370.14 312.30 C 367.91 318.35 365.93 325.74 364.67 331.26 C 363.42 336.78 362.75 341.12 362.62 345.44 C 362.49 349.76 363.37 353.64 363.92 357.17 C 364.46 360.71 364.79 363.23 365.91 366.64 C 367.03 370.05 369.54 374.13 370.64 377.64 C 371.73 381.14 372.10 384.54 372.46 387.67 C 372.82 390.80 373.05 392.98 372.79 396.41 C 372.52 399.84 372.10 404.75 370.88 408.26 C 369.67 411.77 367.44 414.28 365.49 417.45 C 363.55 420.62 361.35 424.56 359.20 427.29 C 357.06 430.02 354.72 431.13 352.62 433.83 C 350.51 436.52 348.32 440.71 346.58 443.43 C 344.84 446.16 343.17 447.95 342.20 450.17 C 341.23 452.40 341.06 454.91 340.77 456.79 C 340.48 458.68 340.08 460.18 340.47 461.49 C 340.86 462.79 341.29 463.93 343.12 464.63 C 344.95 465.33 348.25 466.23 351.46 465.69 C 354.68 465.15 358.78 463.67 362.40 461.40 C 366.01 459.13 369.06 455.98 373.16 452.09 C 377.26 448.19 382.76 442.41 387.00 438.05 C 391.25 433.69 395.06 430.19 398.61 425.91 C 402.16 421.64 404.90 417.30 408.32 412.39 C 411.73 407.48 415.92 401.07 419.09 396.46 C 422.26 391.85 424.84 389.06 427.32 384.73 C 429.81 380.39 432.24 375.52 433.99 370.44 C 435.74 365.35 436.55 360.33 437.82 354.21 C 439.09 348.09 440.86 340.33 441.59 333.72 C 442.32 327.12 442.21 321.21 442.20 314.56 C 442.19 307.91 442.61 300.92 441.52 293.83 C 440.43 286.74 439.21 279.74 435.66 272.04 C 432.11 264.34 425.60 254.72 420.22 247.64 C 414.83 240.56 409.69 235.03 403.35 229.56 C 397.02 224.09 389.52 218.90 382.22 214.81 C 374.93 210.73 368.44 207.67 359.59 205.05 C 350.74 202.43 337.95 199.24 329.13 199.12 C 320.31 198.99 313.55 201.39 306.68 204.28 C 299.81 207.16 293.83 211.20 287.92 216.42 C 282.01 221.64 275.06 229.19 271.24 235.62 C 267.41 242.05 266.49 248.56 264.98 254.99 C 263.47 261.41 262.38 267.87 262.19 274.18 C 262.00 280.49 262.95 286.60 263.84 292.84 C 264.73 299.07 265.74 305.97 267.52 311.61 C 269.30 317.25 272.42 321.83 274.52 326.67 C 276.62 331.51 278.43 336.17 280.10 340.64 C 281.78 345.12 282.80 349.16 284.54 353.50 C 286.28 357.85 288.60 362.63 290.53 366.69 C 292.46 370.75 293.98 374.62 296.10 377.85 C 298.22 381.08 300.82 382.87 303.26 386.07 C 305.69 389.27 307.89 394.45 310.70 397.06 C 313.50 399.67 316.52 400.74 320.09 401.73 C 323.65 402.72 327.86 403.33 332.09 402.99 C 336.33 402.66 340.54 401.49 345.47 399.73 C 350.40 397.97 356.90 395.43 361.67 392.43 C 366.44 389.44 370.11 386.05 374.09 381.76 C 378.06 377.47 382.19 371.39 385.52 366.70 C 388.85 362.01 390.85 358.52 394.05 353.61 C 397.26 348.70 401.39 342.30 404.77 337.23 C 408.14 332.16 411.44 327.46 414.29 323.19 C 417.14 318.92 419.40 315.14 421.86 311.62 C 424.32 308.10 426.56 305.01 429.02 302.07 C 431.49 299.12 434.29 296.45 436.65 293.93 C 439.01 291.41 440.98 289.03 443.18 286.93 C 445.37 284.82 447.85 283.94 449.81 281.30 C 451.77 278.65 453.45 274.22 454.94 271.06 C 456.43 267.90 457.41 265.59 458.75 262.35 C 460.09 259.11 461.82 255.22 462.96 251.63 C 464.10 248.04 465.25 244.82 465.60 240.80 C 465.96 236.77 465.51 231.95 465.11 227.50 C 464.72 223.04 464.14 218.52 463.22 214.07 C 462.31 209.61 461.17 205.24 459.63 200.74 C 458.10 196.24 455.84 191.95 454.01 187.06 C 452.19 182.16 450.27 175.88 448.69 171.38 C 447.11 166.87 445.61 163.87 444.51 160.05 C 443.41 156.24 443.06 152.18 442.09 148.49 C 441.11 144.80 439.21 141.55 438.66 137.92 C 438.11 134.29 438.69 129.75 438.78 126.71 C 438.86 123.67 438.88 121.69 439.16 119.69 C 439.44 117.69 439.48 116.36 440.46 114.70 C 441.44 113.03 443.35 110.06 445.06 109.70 C 446.78 109.35 448.36 110.84 450.74 112.56 C 453.11 114.28 456.85 117.24 459.32 120.00 C 461.78 122.75 463.38 125.47 465.52 129.10 C 467.66 132.73 470.23 138.17 472.14 141.77 C 474.04 145.36 475.21 147.91 476.95 150.66 C 478.69 153.42 480.88 156.71 482.57 158.30 C 484.27 159.89 486.00 160.75 487.15 160.19 C 488.30 159.63 489.30 156.94 489.48 154.94 C 489.66 152.93 488.86 150.69 488.24 148.16 C 487.63 145.62 487.37 143.44 485.77 139.75 C 484.18 136.05 481.58 129.83 478.65 125.99 C 475.72 122.15 472.64 119.93 468.21 116.70 C 463.77 113.48 457.14 109.71 452.06 106.63 C 446.98 103.55 442.62 101.15 437.71 98.24 C 432.81 95.32 427.03 92.19 422.63 89.17 C 418.23 86.15 415.19 82.70 411.33 80.12 C 407.46 77.54 403.36 76.07 399.46 73.70 C 395.56 71.33 392.02 68.63 387.93 65.89 C 383.85 63.15 378.65 59.68 374.93 57.26 C 371.22 54.84 369.09 53.24 365.65 51.37 C 362.20 49.49 358.47 47.44 354.25 46.02 C 350.04 44.59 345.37 44.00 340.36 42.80 C 335.36 41.61 328.80 40.05 324.22 38.86 C 319.65 37.66 315.88 36.97 312.92 35.64 C 309.96 34.30 308.91 32.40 306.47 30.86 C 304.04 29.31 300.37 27.95 298.31 26.37 C 296.25 24.79 295.53 22.95 294.13 21.40 C 292.73 19.85 291.11 18.29 289.91 17.05 C 288.72 15.81 288.24 15.06 286.95 13.96 C 285.67 12.85 283.99 11.48 282.20 10.43 C 280.41 9.38 278.65 8.67 276.23 7.65 C 273.80 6.63 270.71 4.83 267.63 4.33 C 264.55 3.84 261.85 4.34 257.75 4.67 C 253.65 5.00 247.81 5.49 243.01 6.32 C 238.22 7.15 233.69 8.04 228.98 9.65 C 224.27 11.27 219.53 13.34 214.76 16.01 C 209.99 18.69 205.81 22.11 200.36 25.70 C 194.91 29.28 187.41 33.58 182.05 37.55 C 176.69 41.51 172.73 45.51 168.20 49.48 C 163.67 53.44 159.47 57.63 154.86 61.33 C 150.25 65.04 144.78 68.53 140.54 71.71 C 136.31 74.89 133.16 77.52 129.45 80.42 C 125.73 83.32 121.92 86.74 118.26 89.14 C 114.61 91.53 111.05 92.78 107.53 94.78 C 104.02 96.79 100.47 99.13 97.16 101.16 C 93.85 103.19 90.64 104.84 87.64 106.96 C 84.64 109.07 81.65 111.74 79.15 113.83 C 76.66 115.92 75.25 117.13 72.67 119.48 C 70.08 121.84 66.23 124.92 63.64 127.98 C 61.06 131.04 59.10 134.08 57.15 137.83 C 55.20 141.59 53.65 145.03 51.95 150.50 C 50.25 155.97 47.56 163.95 46.97 170.64 C 46.38 177.33 47.48 183.92 48.41 190.66 C 49.33 197.40 50.36 204.18 52.51 211.09 C 54.67 217.99 56.93 224.53 61.34 232.09 C 65.75 239.64 72.89 249.35 78.99 256.43 C 85.08 263.51 91.16 269.15 97.91 274.56 C 104.66 279.96 112.26 284.55 119.50 288.88 C 126.75 293.21 132.96 297.06 141.38 300.53 C 149.81 304.00 161.68 307.59 170.06 309.71 C 178.44 311.83 184.29 312.12 191.67 313.24 C 199.04 314.37 207.06 315.42 214.31 316.47 C 221.56 317.52 228.00 318.41 235.17 319.53 C 242.33 320.66 250.97 321.68 257.30 323.22 C 263.63 324.75 268.22 326.77 273.13 328.72 C 278.04 330.68 281.97 332.19 286.75 334.94 C 291.53 337.68 297.83 341.71 301.81 345.18 C 305.79 348.64 308.54 352.19 310.62 355.71 C 312.71 359.22 313.78 362.27 314.34 366.27 C 314.89 370.26 315.46 375.41 313.94 379.70 C 312.42 383.99 308.36 388.74 305.22 392.01 C 302.08 395.28 299.13 397.03 295.11 399.34 C 291.09 401.64 285.65 403.88 281.12 405.84 C 276.59 407.79 272.98 409.64 267.91 411.07 C 262.84 412.51 255.87 413.73 250.69 414.45 C 245.51 415.16 241.33 415.00 236.85 415.37 C 232.36 415.75 228.11 416.43 223.78 416.70 C 219.46 416.97 215.25 416.54 210.90 416.99 C 206.54 417.44 201.28 418.14 197.66 419.40 C 194.05 420.65 191.63 422.76 189.21 424.50 C 186.80 426.24 184.54 427.61 183.17 429.83 C 181.80 432.06 180.57 435.39 180.99 437.85 C 181.41 440.32 183.77 442.43 185.68 444.63 C 187.60 446.82 189.91 449.09 192.47 451.03 C 195.03 452.96 197.55 454.61 201.03 456.24 C 204.51 457.86 209.56 459.09 213.34 460.77 C 217.13 462.45 220.79 464.70 223.71 466.29 C 226.64 467.88 228.19 468.92 230.90 470.30 C 233.60 471.68 236.62 473.26 239.95 474.57 C 243.29 475.87 247.07 477.79 250.92 478.13 C 254.77 478.47 258.78 477.21 263.05 476.61 C 267.32 476.00 271.18 476.12 276.52 474.49 C 281.86 472.87 289.30 469.29 295.08 466.89 C 300.85 464.48 305.98 462.56 311.16 460.04 C 316.33 457.52 321.50 454.70 326.13 451.78 C 330.75 448.87 333.91 446.00 338.88 442.55 C 343.86 439.09 351.06 434.07 355.98 431.05 C 360.91 428.03 364.78 425.99 368.43 424.43 C 372.09 422.87 375.09 422.18 377.92 421.69 C 380.74 421.20 383.49 420.78 385.38 421.48 C 387.27 422.19 388.67 424.30 389.28 425.93 C 389.89 427.55 389.74 429.02 389.06 431.25 C 388.38 433.49 387.62 436.88 385.19 439.34 C 382.76 441.79 379.40 443.87 374.50 445.99 C 369.61 448.10 362.32 451.13 355.83 452.03 C 349.33 452.93 342.80 452.57 335.53 451.37 C 328.26 450.18 320.69 448.25 312.21 444.86 C 303.74 441.47 292.71 435.99 284.67 431.05 C 276.63 426.11 270.28 421.19 263.97 415.24 C 257.67 409.28 252.03 402.20 246.84 395.34 C 241.65 388.47 237.74 381.97 232.82 374.06 C 227.91 366.15 222.12 355.47 217.34 347.87 C 212.55 340.27 208.21 334.59 204.13 328.45 C 200.04 322.32 196.54 316.59 192.85 311.07 C 189.16 305.55 185.52 301.19 181.99 295.35 C 178.45 289.51 174.74 281.82 171.64 276.04 C 168.54 270.25 165.77 265.96 163.40 260.65 C 161.04 255.34 158.65 249.74 157.45 244.19 C 156.26 238.64 156.23 233.52 156.23 227.36 C 156.23 221.20 156.60 213.30 157.45 207.24 C 158.31 201.17 159.89 195.97 161.36 190.97 C 162.83 185.97 164.91 182.20 166.28 177.25 C 167.66 172.29 168.69 165.76 169.63 161.24 C 170.58 156.72 171.69 153.80 171.94 150.13 C 172.20 146.47 171.68 142.77 171.15 139.27 C 170.62 135.76 170.41 132.30 168.75 129.10 C 167.08 125.89 164.04 122.13 161.17 120.03 C 158.31 117.94 154.88 117.13 151.56 116.51 C 148.24 115.89 144.63 115.88 141.23 116.29 C 137.82 116.71 134.98 117.10 131.13 119.01 C 127.28 120.92 121.85 124.02 118.11 127.76 C 114.36 131.51 111.43 136.40 108.65 141.49 C 105.88 146.57 103.15 151.41 101.45 158.26 C 99.75 165.10 98.66 174.86 98.45 182.55 C 98.24 190.25 99.50 197.19 100.20 204.43 C 100.89 211.68 101.11 218.92 102.61 226.01 C 104.11 233.11 106.24 239.78 109.21 247.01 C 112.19 254.23 116.98 262.58 120.46 269.36 C 123.94 276.14 126.53 281.71 130.09 287.66 C 133.66 293.61 137.79 299.66 141.88 305.05 C 145.97 310.43 149.61 314.88 154.61 319.95 C 159.61 325.02 166.15 331.28 171.87 335.48 C 177.59 339.69 182.97 342.51 188.93 345.20 C 194.88 347.88 201.19 350.16 207.59 351.60 C 213.99 353.04 219.93 353.84 227.34 353.84 C 234.74 353.83 244.50 353.04 252.02 351.57 C 259.55 350.09 266.19 347.77 272.49 344.99 C 278.79 342.21 284.07 339.65 289.81 334.89 C 295.54 330.13 302.57 322.53 306.89 316.42 C 311.21 310.31 313.52 304.72 315.74 298.24 C 317.96 291.76 319.91 284.36 320.19 277.54 C 320.47 270.73 320.36 264.09 317.45 257.35 C 314.53 250.62 307.53 242.51 302.70 237.14 C 297.86 231.78 293.94 228.18 288.42 225.15 C 282.89 222.13 276.21 219.79 269.52 218.99 C 262.84 218.18 255.63 218.26 248.30 220.35 C 240.97 222.44 231.59 227.13 225.55 231.51 C 219.52 235.90 215.73 241.60 212.10 246.67 C 208.47 251.75 205.99 256.86 203.75 261.95 C 201.51 267.05 199.44 271.34 198.66 277.25 C 197.88 283.15 198.63 290.99 199.06 297.38 C 199.50 303.77 200.28 309.99 201.28 315.59 C 202.27 321.18 203.65 325.36 205.02 330.93 C 206.39 336.50 208.44 343.74 209.50 349.00 C 210.55 354.27 210.76 358.38 211.33 362.50 C 211.90 366.63 212.69 370.03 212.93 373.76 C 213.18 377.49 212.67 380.80 212.80 384.90 C 212.92 389.00 213.71 394.77 213.68 398.37 C 213.66 401.98 212.93 403.40 212.64 406.54 C 212.35 409.68 211.94 414.00 211.94 417.20 C 211.95 420.40 212.47 422.72 212.68 425.73 C 212.88 428.74 213.11 432.45 213.16 435.27 C 213.21 438.09 213.00 440.34 212.99 442.65 C 212.98 444.96 213.51 446.82 213.11 449.12 C 212.70 451.42 211.78 454.31 210.54 456.46 C 209.31 458.61 207.54 460.63 205.72 462.00 C 203.89 463.36 201.58 463.75 199.60 464.64 C 197.61 465.54 195.59 466.08 193.81 467.37 C 192.02 468.65 189.99 470.60 188.87 472.36 C 187.74 474.12 187.11 476.02 187.06 477.91 C 187.01 479.81 187.29 482.01 188.56 483.72 C 189.83 485.43 191.84 486.53 194.67 488.19 C 197.50 489.84 201.48 492.63 205.56 493.64 C 209.64 494.65 214.27 494.41 219.15 494.24 C 224.03 494.06 229.16 493.88 234.83 492.56 C 240.50 491.25 246.59 489.75 253.15 486.35 C 259.70 482.96 267.64 476.95 274.16 472.20 C 280.68 467.46 286.58 463.44 292.26 457.89 C 297.94 452.35 302.75 446.57 308.25 438.91 C 313.75 431.26 320.87 420.57 325.27 411.96 C 329.66 403.36 332.35 395.70 334.62 387.27 C 336.88 378.84 338.05 369.85 338.87 361.38 C 339.69 352.92 339.76 345.43 339.54 336.47 C 339.33 327.52 338.28 316.09 337.59 307.67 C 336.90 299.24 336.47 292.97 335.40 285.92 C 334.33 278.86 332.72 271.93 331.15 265.34 C 329.57 258.76 327.95 253.22 325.95 246.40 C 323.95 239.58 321.40 231.04 319.16 224.43 C 316.91 217.81 315.23 212.03 312.49 206.70 C 309.75 201.38 306.85 197.25 302.71 192.48 C 298.57 187.72 292.80 181.87 287.64 178.12 C 282.48 174.37 277.26 172.27 271.76 169.99 C 266.26 167.70 260.30 165.77 254.64 164.40 C 248.98 163.03 244.10 161.61 237.81 161.76 C 231.51 161.91 223.03 163.04 216.87 165.28 C 210.71 167.52 205.74 171.12 200.84 175.20 C 195.94 179.29 190.86 184.31 187.48 189.78 C 184.10 195.25 181.74 200.51 180.56 208.04 C 179.39 215.57 180.01 227.12 180.42 234.96 C 180.84 242.80 181.36 248.56 183.05 255.06 C 184.75 261.56 187.38 267.98 190.60 273.96 C 193.83 279.94 197.44 285.65 202.40 290.93 C 207.36 296.22 214.79 301.45 220.35 305.67 C 225.91 309.89 230.74 313.21 235.74 316.27 C 240.74 319.32 245.02 320.83 250.34 324.00 C 255.66 327.17 262.82 332.12 267.65 335.27 C 272.47 338.41 275.68 340.15 279.30 342.87 C 282.91 345.58 286.14 348.58 289.32 351.55 C 292.50 354.51 295.76 357.01 298.39 360.65 C 301.02 364.29 303.62 369.31 305.11 373.37 C 306.60 377.42 307.25 381.33 307.30 384.97 C 307.36 388.61 306.11 391.88 305.44 395.20 C 304.77 398.52 304.22 401.33 303.29 404.91 C 302.36 408.49 300.72 413.42 299.87 416.70 C 299.02 419.97 298.15 421.90 298.18 424.56 C 298.21 427.23 299.24 430.40 300.05 432.68 C 300.86 434.96 301.67 436.12 303.04 438.25 C 304.42 440.37 306.78 443.23 308.31 445.41 C 309.85 447.59 310.70 449.50 312.27 451.33 C 313.83 453.15 316.20 454.70 317.68 456.36 C 319.16 458.02 319.96 459.65 321.16 461.28 C 322.36 462.90 323.83 464.54 324.89 466.11 C 325.96 467.68 326.50 469.43 327.57 470.70 C 328.63 471.97 329.89 472.69 331.28 473.74 C 332.67 474.78 334.35 476.12 335.89 476.96 C 337.42 477.81 338.58 478.26 340.48 478.79 C 342.37 479.33 345.30 479.94 347.25 480.18 C 349.21 480.43 350.51 479.82 352.20 480.26 C 353.90 480.70 356.29 482.04 357.43 482.84 C 358.57 483.64 358.59 483.94 359.05 485.08 C 359.51 486.22 360.48 488.23 360.22 489.68 C 359.95 491.14 358.88 492.70 357.44 493.82 C 356.00 494.95 353.41 495.34 351.57 496.46 C 349.73 497.57 348.52 499.34 346.38 500.51 C 344.24 501.68 341.66 502.48 338.73 503.47 C 335.80 504.46 331.53 505.49 328.81 506.46 C 326.08 507.42 324.43 509.52 322.39 509.26 C 320.36 509.01 318.38 511.66 316.61 504.93 C 314.84 498.20 313.55 481.51 311.78 468.87 C 310.01 456.23 307.95 440.92 305.99 429.08 C 304.02 417.23 301.62 407.76 300.00 397.80 C 298.37 387.84 297.16 378.46 296.24 369.31 C 295.31 360.15 295.04 352.41 294.46 342.85 C 293.87 333.30 293.23 320.60 292.74 311.96 C 292.25 303.32 292.14 298.06 291.51 291.02 C 290.88 283.98 289.54 277.53 288.96 269.74 C 288.38 261.95 288.48 251.45 288.03 244.28 C 287.58 237.11 286.54 232.28 286.27 226.72 C 285.99 221.16 286.34 216.24 286.38 210.94 C 286.43 205.65 286.15 200.61 286.52 194.96 C 286.90 189.32 287.75 182.28 288.62 177.06 C 289.48 171.83 289.99 167.55 291.71 163.61 C 293.42 159.67 296.29 156.71 298.91 153.42 C 301.52 150.13 304.30 146.82 307.42 143.89 C 310.55 140.95 314.33 137.88 317.64 135.80 C 320.96 133.73 323.43 132.12 327.32 131.45 C 331.20 130.78 336.32 130.44 340.98 131.78 C 345.63 133.13 350.48 136.21 355.24 139.52 C 360.00 142.84 365.17 147.90 369.53 151.66 C 373.89 155.43 377.63 158.62 381.40 162.12 C 385.17 165.63 388.60 169.73 392.16 172.70 C 395.72 175.66 399.29 178.18 402.75 179.91 C 406.20 181.64 409.97 182.11 412.90 183.09 C 415.82 184.07 417.95 185.46 420.28 185.78 C 422.62 186.11 425.02 186.56 426.90 185.04 C 428.78 183.53 430.73 179.89 431.55 176.69 C 432.37 173.49 432.60 169.81 431.82 165.85 C 431.05 161.90 429.51 157.00 426.87 152.97 C 424.23 148.94 421.24 145.64 415.99 141.69 C 410.74 137.73 402.26 132.54 395.35 129.23 C 388.45 125.92 382.12 122.81 374.56 121.82 C 367.00 120.82 359.04 121.37 350.00 123.26 C 340.96 125.16 329.07 128.82 320.31 133.18 C 311.56 137.54 304.20 143.62 297.46 149.44 C 290.72 155.26 284.99 161.56 279.88 168.09 C 274.76 174.62 269.99 180.61 266.75 188.63 C 263.51 196.64 261.08 207.92 260.45 216.18 C 259.83 224.44 261.66 231.08 263.00 238.18 C 264.34 245.29 265.92 252.91 268.50 258.81 C 271.09 264.72 274.21 268.82 278.49 273.63 C 282.77 278.43 289.56 283.41 294.19 287.65 C 298.83 291.89 302.72 295.62 306.31 299.07 C 309.91 302.53 312.35 305.25 315.77 308.37 C 319.18 311.49 323.12 314.36 326.79 317.79 C 330.47 321.22 334.51 325.73 337.82 328.97 C 341.12 332.21 343.67 334.73 346.63 337.21 C 349.59 339.69 353.06 341.01 355.55 343.85 C 358.04 346.69 360.18 350.69 361.58 354.26 C 362.99 357.83 363.75 361.68 364.00 365.28 C 364.25 368.88 363.22 372.76 363.07 375.88 C 362.91 378.99 363.02 380.57 363.06 383.99 C 363.09 387.40 362.81 392.99 363.28 396.37 C 363.74 399.74 364.54 401.91 365.83 404.22 C 367.13 406.54 369.38 408.34 371.04 410.26 C 372.71 412.19 374.50 413.64 375.81 415.78 C 377.13 417.92 378.60 420.67 378.95 423.10 C 379.31 425.53 378.78 427.86 377.93 430.34 C 377.09 432.82 375.68 435.58 373.90 438.00 C 372.11 440.42 370.89 442.37 367.24 444.87 C 363.59 447.37 357.33 450.98 352.01 453.01 C 346.69 455.05 341.30 456.26 335.32 457.08 C 329.35 457.90 323.49 458.81 316.17 457.93 C 308.85 457.04 299.15 454.71 291.40 451.76 C 283.65 448.80 276.62 444.42 269.65 440.21 C 262.67 436.00 255.78 431.94 249.53 426.47 C 243.28 421.01 237.70 414.76 232.15 407.41 C 226.61 400.06 220.48 390.48 216.25 382.37 C 212.02 374.26 209.21 366.62 206.78 358.75 C 204.36 350.88 202.58 342.89 201.68 335.15 C 200.78 327.40 201.13 320.66 201.38 312.29 C 201.63 303.93 202.54 293.19 203.21 284.96 C 203.88 276.73 204.29 269.82 205.40 262.91 C 206.52 256.01 208.20 250.47 209.90 243.52 C 211.59 236.58 214.09 227.79 215.57 221.24 C 217.05 214.68 217.95 209.49 218.77 204.19 C 219.60 198.88 220.27 194.50 220.51 189.38 C 220.74 184.27 221.03 178.74 220.19 173.50 C 219.35 168.25 217.37 162.30 215.46 157.90 C 213.55 153.49 211.36 150.15 208.73 147.07 C 206.10 143.99 202.60 142.06 199.69 139.42 C 196.78 136.77 194.30 134.09 191.26 131.20 C 188.23 128.32 184.26 124.66 181.48 122.14 C 178.70 119.62 176.60 118.01 174.57 116.08 C 172.54 114.15 171.07 112.79 169.31 110.57 C 167.55 108.36 165.21 105.67 164.00 102.78 C 162.79 99.90 161.94 96.20 162.06 93.25 C 162.18 90.30 163.02 87.60 164.74 85.09 C 166.46 82.59 168.80 80.75 172.36 78.21 C 175.92 75.66 181.37 71.90 186.09 69.84 C 190.81 67.78 195.75 67.05 200.68 65.86 C 205.60 64.67 210.74 63.59 215.66 62.71 C 220.58 61.84 225.15 61.48 230.20 60.60 C 235.24 59.71 241.67 58.54 245.95 57.39 C 250.23 56.23 252.86 55.01 255.90 53.65 C 258.93 52.29 262.02 50.77 264.18 49.22 C 266.35 47.66 268.25 46.30 268.88 44.32 C 269.52 42.35 269.27 39.40 267.98 37.39 C 266.69 35.37 264.07 33.32 261.15 32.23 C 258.24 31.14 254.68 30.64 250.49 30.84 C 246.31 31.05 241.85 31.78 236.06 33.47 C 230.28 35.16 221.90 38.43 215.80 40.97 C 209.71 43.51 204.76 45.85 199.50 48.69 C 194.23 51.54 189.46 54.67 184.23 58.06 C 179.01 61.45 172.97 65.42 168.16 69.04 C 163.35 72.66 159.66 76.50 155.37 79.77 C 151.08 83.04 146.57 85.90 142.40 88.65 C 138.23 91.41 134.67 93.46 130.37 96.29 C 126.08 99.12 120.78 102.68 116.64 105.63 C 112.51 108.58 108.83 110.79 105.56 113.99 C 102.28 117.20 99.89 121.29 96.99 124.86 C 94.09 128.43 91.36 131.73 88.14 135.43 C 84.91 139.13 80.48 143.84 77.65 147.07 C 74.82 150.29 73.27 153.11 71.13 154.76 C 69.00 156.42 66.94 157.16 64.83 156.98 C 62.72 156.81 60.15 155.00 58.49 153.70 C 56.84 152.40 55.59 150.87 54.90 149.20 C 54.21 147.53 54.43 146.15 54.34 143.67 C 54.25 141.20 52.97 137.83 54.36 134.33 C 55.74 130.83 59.35 126.59 62.63 122.68 C 65.91 118.76 69.85 114.47 74.03 110.83 C 78.20 107.19 82.46 103.91 87.66 100.83 C 92.86 97.76 98.90 95.20 105.23 92.36 C 111.56 89.52 119.67 86.34 125.65 83.78 C 131.64 81.21 136.21 79.16 141.14 76.96 C 146.06 74.76 150.91 72.81 155.22 70.59 C 159.54 68.37 163.13 66.20 167.03 63.65 C 170.94 61.10 175.89 57.63 178.65 55.31 C 181.42 52.99 182.05 51.66 183.63 49.73 C 185.20 47.80 187.22 45.82 188.09 43.75 C 188.97 41.67 189.00 38.80 188.90 37.28 C 188.79 35.77 188.44 35.36 187.45 34.66 C 186.46 33.95 184.78 33.49 182.94 33.03 C 181.09 32.57 179.46 31.59 176.39 31.87 C 173.32 32.15 168.15 33.21 164.50 34.72 C 160.85 36.23 157.92 38.42 154.48 40.92 C 151.04 43.42 147.55 46.26 143.86 49.73 C 140.17 53.20 136.48 56.60 132.36 61.72 C 128.23 66.83 122.81 74.29 119.11 80.42 C 115.42 86.55 112.39 92.02 110.19 98.51 C 107.99 105.01 106.97 112.33 105.90 119.38 C 104.82 126.43 103.42 132.26 103.75 140.83 C 104.07 149.40 106.14 161.81 107.83 170.82 C 109.52 179.83 111.18 187.07 113.86 194.88 C 116.54 202.69 119.63 209.64 123.93 217.68 C 128.22 225.72 134.31 235.71 139.63 243.13 C 144.95 250.55 149.90 256.81 155.84 262.19 C 161.77 267.56 168.71 271.18 175.22 275.37 C 181.74 279.55 188.02 283.58 194.91 287.28 C 201.80 290.99 209.83 294.56 216.59 297.58 C 223.35 300.59 229.26 303.14 235.45 305.37 C 241.64 307.61 247.96 309.26 253.72 310.99 C 259.48 312.72 264.07 314.01 270.00 315.76 C 275.93 317.51 283.37 320.40 289.28 321.51 C 295.20 322.61 300.25 322.44 305.49 322.39 C 310.74 322.33 315.18 322.54 320.75 321.17 C 326.32 319.81 333.67 317.18 338.90 314.19 C 344.14 311.19 348.22 307.10 352.17 303.21 C 356.13 299.31 359.62 295.51 362.63 290.80 C 365.63 286.10 368.46 281.04 370.19 274.96 C 371.92 268.88 373.40 260.79 373.00 254.33 C 372.61 247.88 370.18 241.94 367.82 236.24 C 365.47 230.53 362.72 225.15 358.88 220.09 C 355.04 215.03 351.09 210.31 344.81 205.88 C 338.52 201.45 328.95 196.03 321.19 193.53 C 313.42 191.02 305.75 190.45 298.22 190.84 C 290.69 191.23 283.16 193.68 276.02 195.86 C 268.88 198.05 262.18 200.22 255.39 203.95 C 248.60 207.68 240.87 213.43 235.28 218.24 C 229.69 223.06 225.97 227.95 221.85 232.83 C 217.72 237.72 214.33 242.25 210.53 247.55 C 206.72 252.84 202.36 259.32 199.03 264.59 C 195.70 269.85 193.38 274.55 190.53 279.12 C 187.69 283.69 185.16 288.03 181.96 291.99 C 178.76 295.94 175.07 299.38 171.35 302.85 C 167.62 306.33 163.14 310.36 159.60 312.82 C 156.06 315.27 153.69 316.27 150.10 317.57 C 146.51 318.86 141.66 320.04 138.09 320.59 C 134.51 321.13 132.29 321.96 128.64 320.83 C 124.99 319.71 119.78 316.54 116.18 313.86 C 112.59 311.17 109.87 308.28 107.08 304.73 C 104.29 301.18 101.33 297.11 99.46 292.56 C 97.58 288.02 96.62 283.26 95.82 277.46 C 95.03 271.67 94.81 263.81 94.70 257.77 C 94.59 251.73 94.85 246.69 95.14 241.21 C 95.44 235.73 96.04 230.74 96.46 224.91 C 96.88 219.08 97.13 211.54 97.66 206.21 C 98.19 200.88 99.24 197.32 99.63 192.95 C 100.03 188.57 99.85 184.08 100.06 179.95 C 100.26 175.82 100.77 172.41 100.89 168.17 C 101.00 163.93 100.59 158.30 100.75 154.51 C 100.90 150.73 101.54 148.52 101.81 145.46 C 102.07 142.40 101.65 139.21 102.33 136.13 C 103.01 133.05 104.68 130.31 105.87 127.00 C 107.07 123.69 108.17 119.61 109.48 116.27 C 110.78 112.93 112.51 109.51 113.71 106.95 C 114.91 104.39 116.46 103.12 116.65 100.91 C 116.85 98.71 115.62 95.78 114.88 93.71 C 114.13 91.63 113.50 89.64 112.18 88.49 C 110.86 87.34 108.89 86.67 106.93 86.81 C 104.97 86.94 103.09 87.89 100.44 89.31 C 97.79 90.73 93.85 92.68 91.01 95.33 C 88.16 97.98 85.81 101.31 83.37 105.18 C 80.93 109.05 78.35 113.54 76.34 118.56 C 74.34 123.58 72.68 128.53 71.36 135.29 C 70.04 142.06 68.74 151.55 68.44 159.14 C 68.15 166.72 68.32 173.27 69.59 180.79 C 70.87 188.31 73.17 196.74 76.09 204.27 C 79.02 211.80 82.36 218.18 87.15 225.98 C 91.94 233.78 98.39 244.60 104.85 251.07 C 111.30 257.54 118.13 261.40 125.88 264.78 C 133.64 268.16 141.89 270.49 151.38 271.35 C 160.87 272.22 173.68 271.25 182.83 269.95 C 191.98 268.65 199.41 266.57 206.29 263.53 C 213.16 260.50 219.38 256.47 224.07 251.74 C 228.77 247.00 231.68 241.38 234.46 235.12 C 237.25 228.86 239.89 220.18 240.79 214.18 C 241.69 208.18 241.19 203.89 239.86 199.11 C 238.54 194.33 235.85 189.37 232.86 185.48 C 229.87 181.60 226.48 178.37 221.92 175.79 C 217.35 173.22 210.49 170.83 205.47 170.05 C 200.44 169.28 196.38 169.97 191.76 171.15 C 187.13 172.34 182.18 174.48 177.72 177.17 C 173.26 179.86 169.29 182.95 164.99 187.29 C 160.70 191.63 155.42 197.85 151.95 203.22 C 148.49 208.58 145.82 213.64 144.19 219.46 C 142.57 225.27 142.11 231.14 142.22 238.10 C 142.34 245.06 142.94 254.49 144.89 261.21 C 146.85 267.92 150.12 272.96 153.95 278.41 C 157.78 283.86 162.60 289.14 167.87 293.91 C 173.14 298.69 178.59 303.58 185.55 307.04 C 192.51 310.50 201.97 313.06 209.65 314.67 C 217.33 316.29 224.31 316.95 231.64 316.74 C 238.98 316.53 246.66 315.12 253.66 313.42 C 260.67 311.71 267.08 309.40 273.67 306.53 C 280.26 303.67 287.37 299.70 293.20 296.24 C 299.04 292.78 303.71 289.31 308.67 285.79 C 313.64 282.27 318.08 278.65 322.99 275.12 C 327.90 271.60 333.51 267.77 338.14 264.66 C 342.77 261.54 346.85 258.88 350.77 256.41 C 354.68 253.94 357.97 251.45 361.64 249.83 C 365.31 248.21 368.48 247.34 372.78 246.70 C 377.08 246.06 383.14 246.45 387.44 245.97 C 391.73 245.49 395.07 243.73 398.56 243.83 C 402.04 243.92 405.18 245.20 408.33 246.55 C 411.48 247.91 414.58 249.11 417.44 251.95 C 420.30 254.78 423.65 259.57 425.49 263.57 C 427.33 267.57 428.28 271.20 428.49 275.95 C 428.70 280.70 428.09 286.63 426.74 292.06 C 425.39 297.50 423.10 302.81 420.39 308.56 C 417.68 314.31 413.80 320.99 410.49 326.57 C 407.18 332.15 404.14 337.33 400.55 342.05 C 396.95 346.76 393.02 350.36 388.93 354.86 C 384.83 359.36 379.77 364.74 375.98 369.06 C 372.19 373.39 369.04 376.85 366.19 380.81 C 363.34 384.76 361.08 389.16 358.88 392.79 C 356.69 396.41 354.55 399.22 353.02 402.57 C 351.49 405.93 350.34 409.77 349.71 412.90 C 349.07 416.03 349.18 418.74 349.24 421.35 C 349.29 423.96 349.63 426.37 350.03 428.58 C 350.42 430.79 351.05 432.56 351.63 434.63 C 352.21 436.70 353.18 439.01 353.50 440.98 C 353.82 442.95 353.65 444.56 353.56 446.44 C 353.47 448.32 353.72 450.24 352.95 452.24 C 352.18 454.23 351.81 456.21 348.94 458.42 C 346.06 460.64 340.25 463.81 335.70 465.51 C 331.16 467.21 326.80 467.98 321.67 468.61 C 316.54 469.24 311.33 470.11 304.91 469.30 C 298.49 468.49 290.21 465.77 283.14 463.73 C 276.08 461.70 268.95 459.67 262.53 457.09 C 256.12 454.52 250.76 451.74 244.67 448.28 C 238.58 444.81 232.35 440.75 225.99 436.32 C 219.64 431.90 212.63 426.03 206.53 421.71 C 200.43 417.38 194.68 413.84 189.39 410.37 C 184.10 406.91 179.57 404.01 174.78 400.90 C 170.00 397.79 165.72 394.60 160.67 391.73 C 155.62 388.85 149.10 384.95 144.48 383.66 C 139.86 382.36 136.27 383.27 132.93 383.94 C 129.59 384.61 126.59 385.74 124.45 387.66 C 122.30 389.59 120.75 392.93 120.06 395.47 C 119.37 398.00 120.23 400.23 120.32 402.87 C 120.40 405.50 120.71 408.77 120.57 411.26 C 120.42 413.75 119.80 415.54 119.43 417.79 C 119.07 420.05 119.32 422.98 118.40 424.79 C 117.47 426.61 114.90 427.18 113.88 428.68 C 112.85 430.18 112.76 432.07 112.25 433.77 C 111.75 435.47 111.94 437.57 110.85 438.87 C 109.76 440.17 107.52 441.33 105.72 441.59 C 103.92 441.86 102.34 440.90 100.03 440.46 C 97.72 440.01 94.20 439.90 91.84 438.94 C 89.49 437.99 88.17 436.68 85.90 434.70 C 83.62 432.73 80.55 429.30 78.18 427.10 C 75.81 424.90 73.90 423.39 71.69 421.52 C 69.48 419.66 67.17 417.80 64.89 415.91 C 62.61 414.03 59.70 411.68 58.01 410.21 C 56.33 408.74 55.89 407.67 54.79 407.10 C 53.69 406.53 51.91 406.27 51.41 406.78 C 50.92 407.29 51.07 408.51 51.82 410.16 C 52.57 411.81 53.87 414.13 55.91 416.67 C 57.95 419.21 60.91 422.62 64.07 425.41 C 67.22 428.21 70.76 431.05 74.86 433.44 C 78.96 435.84 83.81 437.25 88.68 439.77 C 93.54 442.28 99.46 446.09 104.06 448.53 C 108.65 450.97 112.34 452.27 116.25 454.43 C 120.16 456.58 123.75 459.26 127.51 461.47 C 131.26 463.67 134.57 465.67 138.80 467.68 C 143.04 469.69 148.21 471.87 152.92 473.53 C 157.62 475.20 162.14 476.66 167.02 477.68 C 171.91 478.71 176.11 479.51 182.25 479.68 C 188.38 479.85 196.72 479.79 203.85 478.70 C 210.98 477.60 218.08 474.96 225.02 473.12 C 231.95 471.28 238.77 470.01 245.43 467.67 C 252.10 465.32 258.29 461.96 265.03 459.06 C 271.76 456.16 279.67 452.85 285.84 450.27 C 292.01 447.69 296.71 446.01 302.05 443.58 C 307.38 441.15 312.77 437.98 317.82 435.69 C 322.88 433.40 327.18 431.76 332.40 429.85 C 337.62 427.94 344.26 425.38 349.14 424.25 C 354.03 423.11 358.24 423.12 361.70 423.03 C 365.16 422.93 367.23 423.10 369.91 423.69 C 372.59 424.29 375.86 425.60 377.79 426.60 C 379.72 427.60 381.09 428.10 381.49 429.69 C 381.89 431.27 381.34 433.67 380.19 436.12 C 379.04 438.56 377.69 441.80 374.58 444.38 C 371.47 446.96 366.77 449.94 361.52 451.61 C 356.26 453.27 349.66 454.05 343.04 454.37 C 336.43 454.70 329.06 454.66 321.82 453.55 C 314.58 452.45 307.74 451.30 299.61 447.74 C 291.49 444.19 280.62 437.81 273.07 432.21 C 265.52 426.62 259.87 420.63 254.32 414.18 C 248.76 407.73 243.76 401.00 239.74 393.52 C 235.71 386.03 232.72 378.45 230.17 369.27 C 227.63 360.09 225.30 347.47 224.44 338.42 C 223.58 329.38 223.98 322.57 225.03 315.00 C 226.08 307.42 227.47 300.46 230.75 292.98 C 234.03 285.50 240.08 276.25 244.72 270.12 C 249.35 263.99 253.70 260.69 258.56 256.21 C 263.43 251.74 268.93 246.92 273.91 243.25 C 278.88 239.59 283.27 237.72 288.39 234.22 C 293.51 230.73 299.90 225.89 304.64 222.27 C 309.39 218.66 313.35 216.41 316.85 212.54 C 320.36 208.68 323.47 203.68 325.68 199.08 C 327.89 194.47 328.85 189.98 330.11 184.92 C 331.37 179.86 332.55 173.58 333.23 168.71 C 333.91 163.83 334.49 159.99 334.20 155.65 C 333.91 151.32 332.57 146.91 331.49 142.67 C 330.42 138.43 329.95 134.38 327.74 130.21 C 325.53 126.05 322.17 121.23 318.25 117.68 C 314.33 114.12 309.36 110.96 304.23 108.87 C 299.11 106.78 293.79 105.85 287.50 105.15 C 281.21 104.45 273.23 103.77 266.50 104.70 C 259.77 105.62 253.70 108.57 247.12 110.69 C 240.54 112.81 233.20 114.95 227.01 117.39 C 220.81 119.83 215.80 122.44 209.93 125.34 C 204.06 128.23 197.41 131.63 191.79 134.78 C 186.18 137.92 181.37 141.52 176.23 144.20 C 171.10 146.88 165.83 149.13 160.98 150.85 C 156.12 152.57 151.60 153.29 147.12 154.53 C 142.65 155.77 138.02 157.95 134.15 158.29 C 130.28 158.63 126.88 157.39 123.89 156.55 C 120.89 155.71 118.61 154.64 116.18 153.24 C 113.76 151.85 111.17 149.99 109.34 148.16 C 107.52 146.34 105.90 144.76 105.23 142.29 C 104.56 139.82 104.47 136.55 105.34 133.34 C 106.21 130.14 107.73 127.10 110.48 123.07 C 113.22 119.04 117.84 112.82 121.80 109.17 C 125.76 105.53 129.49 103.63 134.24 101.21 C 138.99 98.78 144.82 96.55 150.28 94.64 C 155.75 92.74 159.67 90.49 167.02 89.78 C 174.36 89.07 186.12 89.16 194.36 90.37 C 202.60 91.57 209.21 93.88 216.45 97.00 C 223.68 100.11 231.05 104.50 237.78 109.06 C 244.52 113.62 250.36 117.98 256.85 124.37 C 263.35 130.77 271.43 140.28 276.76 147.42 C 282.09 154.55 284.97 160.71 288.83 167.18 C 292.70 173.65 295.83 179.49 299.93 186.25 C 304.04 193.00 309.32 201.71 313.46 207.72 C 317.61 213.73 320.93 217.85 324.80 222.32 C 328.68 226.79 333.03 230.43 336.70 234.54 C 340.37 238.65 343.54 242.09 346.82 246.97 C 350.09 251.85 354.04 258.29 356.36 263.83 C 358.67 269.36 359.79 274.91 360.71 280.20 C 361.63 285.48 361.31 290.55 361.89 295.55 C 362.47 300.55 363.53 305.10 364.21 310.21 C 364.89 315.32 365.10 321.53 365.97 326.19 C 366.84 330.85 368.49 334.19 369.41 338.16 C 370.33 342.12 370.73 346.21 371.47 350.00 C 372.21 353.79 372.60 357.56 373.87 360.90 C 375.13 364.24 377.28 367.57 379.04 370.02 C 380.81 372.48 382.36 373.93 384.48 375.65 C 386.59 377.38 388.69 379.60 391.74 380.36 C 394.79 381.11 399.31 380.87 402.76 380.18 C 406.21 379.50 409.24 378.24 412.43 376.23 C 415.63 374.23 418.96 371.58 421.93 368.17 C 424.90 364.76 428.05 360.92 430.24 355.79 C 432.43 350.65 433.99 343.68 435.05 337.35 C 436.11 331.03 437.25 324.64 436.60 317.84 C 435.95 311.04 433.78 303.94 431.16 296.56 C 428.54 289.19 425.56 281.40 420.86 273.57 C 416.16 265.75 408.34 256.62 402.96 249.63 C 397.59 242.63 393.48 237.43 388.61 231.63 C 383.74 225.82 378.62 220.56 373.74 214.79 C 368.87 209.03 363.45 202.55 359.37 197.04 C 355.29 191.54 352.82 186.37 349.24 181.77 C 345.66 177.17 341.79 173.39 337.88 169.44 C 333.97 165.50 330.37 161.84 325.78 158.10 C 321.20 154.36 315.16 150.13 310.39 146.99 C 305.61 143.85 301.66 141.86 297.13 139.27 C 292.59 136.69 287.63 133.92 283.15 131.48 C 278.67 129.04 274.68 127.43 270.26 124.61 C 265.85 121.78 260.40 117.62 256.64 114.53 C 252.87 111.44 250.31 108.92 247.68 106.08 C 245.05 103.23 242.50 100.34 240.85 97.45 C 239.19 94.56 238.58 91.83 237.75 88.73 C 236.92 85.63 235.32 81.77 235.85 78.87 C 236.39 75.97 238.65 73.76 240.95 71.32 C 243.25 68.88 245.94 65.72 249.66 64.22 C 253.39 62.72 258.13 62.06 263.31 62.32 C 268.49 62.58 275.10 63.82 280.75 65.78 C 286.40 67.74 291.73 71.15 297.20 74.08 C 302.68 77.02 307.80 79.18 313.60 83.40 C 319.40 87.62 326.95 94.17 332.02 99.41 C 337.10 104.64 340.26 109.25 344.07 114.81 C 347.87 120.37 351.45 126.42 354.86 132.74 C 358.27 139.07 361.83 145.56 364.55 152.75 C 367.28 159.94 368.92 169.14 371.21 175.89 C 373.50 182.64 375.85 187.70 378.29 193.25 C 380.72 198.79 383.41 204.31 385.84 209.17 C 388.26 214.04 389.97 218.69 392.85 222.41 C 395.73 226.13 399.74 228.96 403.12 231.49 C 406.50 234.02 409.93 236.35 413.12 237.57 C 416.32 238.80 419.19 239.08 422.30 238.83 C 425.40 238.57 428.92 237.44 431.76 236.05 C 434.59 234.65 437.14 232.54 439.31 230.46 C 441.47 228.39 443.26 226.37 444.75 223.58 C 446.24 220.80 447.88 218.09 448.24 213.77 C 448.60 209.44 447.81 202.73 446.90 197.62 C 445.99 192.51 444.84 187.78 442.78 183.12 C 440.71 178.46 437.79 174.00 434.51 169.65 C 431.23 165.30 427.33 161.46 423.12 157.01 C 418.91 152.57 413.38 147.26 409.25 142.99 C 405.12 138.72 402.03 134.97 398.35 131.39 C 394.67 127.82 391.48 124.97 387.15 121.54 C 382.83 118.11 376.68 114.35 372.41 110.80 C 368.14 107.25 364.90 103.39 361.55 100.23 C 358.21 97.07 354.91 94.72 352.35 91.85 C 349.79 88.99 347.98 86.18 346.19 83.07 C 344.40 79.95 342.24 75.83 341.61 73.17 C 340.99 70.50 341.93 68.70 342.43 67.06 C 342.92 65.42 343.43 64.70 344.57 63.33 C 345.72 61.96 347.17 60.23 349.28 58.87 C 351.39 57.50 355.24 56.17 357.22 55.11 C 359.20 54.06 360.03 53.58 361.14 52.53 C 362.26 51.48 363.47 50.06 363.91 48.83 C 364.35 47.61 363.95 46.73 363.79 45.17 C 363.63 43.60 363.09 41.15 362.97 39.45 C 362.85 37.74 364.00 36.50 363.09 34.96 C 362.17 33.41 359.87 31.76 357.47 30.17 C 355.08 28.58 351.76 26.70 348.70 25.40 C 345.64 24.10 342.69 23.38 339.12 22.39 C 335.55 21.39 331.11 20.33 327.28 19.43 C 323.44 18.53 320.33 17.81 316.11 16.99 C 311.90 16.16 305.82 15.15 301.98 14.48 C 298.13 13.82 296.15 13.62 293.06 13.01 C 289.97 12.40 286.22 11.67 283.43 10.84 C 280.65 10.01 278.94 8.81 276.34 8.05 C 273.74 7.28 270.91 6.79 267.84 6.26 C 264.77 5.72 261.62 4.74 257.94 4.84 C 254.25 4.95 250.03 5.79 245.74 6.89 C 241.44 7.99 237.50 9.09 232.18 11.45 C 226.85 13.82 219.60 17.40 213.77 21.08 C 207.95 24.76 202.52 28.65 197.23 33.53 C 191.95 38.41 187.21 43.50 182.06 50.37 C 176.91 57.24 170.64 66.72 166.34 74.75 C 162.04 82.78 158.97 90.28 156.24 98.54 C 153.52 106.79 151.67 115.93 149.99 124.30 C 148.32 132.68 147.02 140.10 146.18 148.77 C 145.34 157.45 145.10 167.76 144.96 176.33 C 144.83 184.91 144.73 192.59 145.38 200.21 C 146.03 207.83 147.83 214.92 148.86 222.08 C 149.88 229.24 150.10 235.50 151.54 243.18 C 152.98 250.85 155.05 261.03 157.48 268.11 C 159.91 275.19 163.48 279.88 166.11 285.68 C 168.73 291.48 170.54 296.99 173.22 302.91 C 175.90 308.82 179.26 315.59 182.17 321.17 C 185.08 326.76 187.57 331.63 190.70 336.41 C 193.84 341.19 197.22 345.81 200.98 349.88 C 204.74 353.94 207.95 357.57 213.25 360.81 C 218.56 364.04 226.79 367.14 232.79 369.29 C 238.79 371.43 243.51 373.19 249.26 373.70 C 255.02 374.21 261.38 372.92 267.32 372.33 C 273.26 371.75 278.58 371.05 284.92 370.17 C 291.25 369.30 299.31 368.11 305.33 367.09 C 311.36 366.06 315.83 364.83 321.07 364.03 C 326.32 363.23 332.01 362.62 336.79 362.30 C 341.57 361.98 344.84 363.02 349.73 362.08 C 354.62 361.15 361.36 358.12 366.12 356.68 C 370.89 355.24 374.54 354.30 378.33 353.45 C 382.11 352.59 384.92 352.22 388.84 351.55 C 392.75 350.88 398.02 349.78 401.82 349.44 C 405.62 349.10 408.55 349.29 411.62 349.52 C 414.69 349.75 417.40 351.07 420.25 350.85 C 423.09 350.62 425.85 349.41 428.71 348.19 C 431.58 346.98 434.67 345.54 437.44 343.58 C 440.21 341.61 442.72 339.06 445.35 336.42 C 447.99 333.77 451.03 331.06 453.25 327.68 C 455.48 324.29 457.25 321.12 458.70 316.11 C 460.16 311.10 461.73 303.89 461.99 297.62 C 462.24 291.36 461.70 284.88 460.22 278.50 C 458.75 272.11 456.39 265.78 453.15 259.31 C 449.92 252.85 446.14 246.23 440.82 239.69 C 435.49 233.14 427.38 225.80 421.21 220.05 C 415.04 214.29 409.52 210.20 403.80 205.18 C 398.09 200.16 392.92 195.34 386.90 189.95 C 380.89 184.55 373.03 177.64 367.72 172.80 C 362.41 167.96 359.07 164.78 355.02 160.91 C 350.98 157.03 346.80 153.51 343.45 149.53 C 340.11 145.55 337.36 141.56 334.93 137.03 C 332.51 132.51 329.94 126.51 328.90 122.37 C 327.87 118.23 328.14 115.01 328.73 112.19 C 329.32 109.37 330.88 107.62 332.44 105.46 C 334.00 103.31 336.33 101.54 338.09 99.26 C 339.85 96.98 341.83 94.04 343.00 91.78 C 344.17 89.52 344.92 87.96 345.10 85.70 C 345.28 83.44 345.07 80.99 344.08 78.21 C 343.10 75.43 340.80 71.80 339.18 69.01 C 337.57 66.22 336.90 63.70 334.36 61.49 C 331.83 59.28 327.87 57.24 323.99 55.74 C 320.12 54.25 316.33 53.46 311.12 52.53 C 305.91 51.60 298.79 50.35 292.75 50.18 C 286.71 50.00 281.11 50.58 274.91 51.50 C 268.71 52.42 262.01 53.41 255.54 55.71 C 249.08 58.00 243.08 61.22 236.13 65.26 C 229.17 69.30 220.07 75.21 213.80 79.92 C 207.54 84.63 203.74 88.68 198.53 93.53 C 193.32 98.39 187.28 104.05 182.54 109.03 C 177.81 114.02 174.49 117.99 170.13 123.45 C 165.77 128.91 160.48 135.83 156.38 141.80 C 152.29 147.76 148.68 153.35 145.58 159.22 C 142.49 165.09 139.96 169.90 137.80 177.00 C 135.64 184.11 133.66 194.34 132.61 201.85 C 131.57 209.36 131.41 215.28 131.56 222.05 C 131.71 228.81 131.93 235.71 133.51 242.44 C 135.09 249.18 136.96 255.94 141.05 262.47 C 145.14 269.00 152.36 276.12 158.05 281.61 C 163.74 287.10 169.13 291.60 175.20 295.41 C 181.28 299.22 187.67 301.89 194.50 304.48 C 201.33 307.06 208.46 309.68 216.18 310.93 C 223.90 312.19 233.47 312.04 240.83 312.01 C 248.18 311.98 251.05 311.22 260.33 310.75 C 269.61 310.28 290.49 309.45 296.52 309.20" fill="none" stroke="#fff" stroke-width="4.48" stroke-opacity="1" stroke-linecap="round" stroke-linejoin="round"/>
  </g>
</svg>