<?xml version="1.0" encoding="UTF-8"?>
<svg xmlns="http://www.w3.org/2000/svg" width="512" height="512" viewBox="0 0 512 512">
  <rect width="100%" height="100%" fill="#000"/>
  <g>
    <path d="M 256.00 256.00 C 253.22 255.65 244.71 256.10 239.31 253.90 C 233.91 251.70 227.97 246.80 223.61 242.80 C 219.26 238.80 215.93 234.62 213.20 229.90 C 210.47 225.18 208.06 219.72 207.24 214.49 C 206.42 209.26 206.99 203.93 208.28 198.51 C 209.58 193.09 212.00 186.77 215.01 181.99 C 218.01 177.22 222.04 173.01 226.29 169.86 C 230.53 166.71 235.03 164.66 240.49 163.07 C 245.94 161.48 252.76 159.94 259.01 160.34 C 265.26 160.75 271.60 162.58 277.98 165.51 C 284.35 168.44 292.21 173.23 297.25 177.92 C 302.30 182.62 305.24 187.68 308.26 193.68 C 311.27 199.67 314.36 206.82 315.35 213.89 C 316.35 220.96 315.73 229.44 314.25 236.08 C 312.77 242.71 309.85 247.99 306.48 253.69 C 303.11 259.40 298.87 265.85 294.01 270.29 C 289.14 274.73 283.21 278.17 277.29 280.35 C 271.37 282.52 264.75 283.67 258.47 283.33 C 252.19 282.98 245.58 280.66 239.61 278.28 C 233.64 275.90 227.57 273.03 222.66 269.05 C 217.74 265.07 213.10 260.05 210.11 254.40 C 207.13 248.75 205.35 241.45 204.76 235.14 C 204.16 228.84 205.06 222.34 206.53 216.59 C 208.00 210.83 210.08 205.63 213.60 200.62 C 217.11 195.61 222.80 190.38 227.62 186.51 C 232.43 182.64 236.87 179.35 242.48 177.40 C 248.08 175.45 255.07 175.16 261.25 174.81 C 267.44 174.46 273.79 174.17 279.59 175.30 C 285.38 176.43 290.95 178.60 296.03 181.59 C 301.12 184.57 305.44 188.71 310.08 193.20 C 314.73 197.70 320.47 203.03 323.90 208.55 C 327.34 214.08 328.95 220.01 330.70 226.35 C 332.45 232.68 333.90 239.95 334.40 246.57 C 334.90 253.18 334.55 259.69 333.71 266.06 C 332.87 272.43 330.68 278.86 329.36 284.77 C 328.05 290.68 327.10 295.73 325.81 301.52 C 324.53 307.32 322.92 314.02 321.64 319.53 C 320.35 325.05 318.95 329.74 318.11 334.61 C 317.28 339.47 316.12 343.98 316.62 348.74 C 317.11 353.50 319.19 359.39 321.06 363.15 C 322.93 366.90 324.67 369.50 327.85 371.26 C 331.02 373.03 335.71 374.08 340.12 373.74 C 344.52 373.40 349.92 371.59 354.28 369.24 C 358.64 366.89 362.77 364.22 366.26 359.64 C 369.75 355.06 373.06 348.03 375.24 341.74 C 377.41 335.45 378.75 328.19 379.30 321.88 C 379.85 315.56 380.00 310.51 378.54 303.85 C 377.08 297.20 374.24 288.97 370.54 281.95 C 366.84 274.92 362.18 267.16 356.33 261.68 C 350.48 256.20 342.73 252.16 335.46 249.08 C 328.19 245.99 319.90 243.83 312.70 243.17 C 305.49 242.51 298.79 243.26 292.22 245.10 C 285.64 246.94 278.76 249.92 273.26 254.22 C 267.76 258.53 262.63 265.29 259.20 270.92 C 255.77 276.55 253.62 282.18 252.70 288.01 C 251.79 293.84 252.15 300.64 253.71 305.88 C 255.28 311.13 258.28 315.47 262.10 319.49 C 265.93 323.52 271.31 327.58 276.67 330.02 C 282.03 332.46 288.56 334.15 294.26 334.13 C 299.95 334.11 305.88 332.59 310.84 329.90 C 315.81 327.21 320.00 322.25 324.04 317.97 C 328.08 313.69 332.44 309.52 335.08 304.23 C 337.73 298.94 339.40 292.85 339.94 286.24 C 340.47 279.64 339.86 271.31 338.28 264.60 C 336.69 257.88 334.33 251.76 330.44 245.95 C 326.55 240.15 320.70 234.05 314.93 229.77 C 309.16 225.49 302.56 222.28 295.82 220.26 C 289.09 218.24 281.54 217.45 274.53 217.67 C 267.53 217.89 260.29 219.11 253.77 221.60 C 247.25 224.08 240.94 228.12 235.41 232.59 C 229.88 237.05 224.30 242.98 220.59 248.37 C 216.89 253.77 215.00 258.99 213.17 264.96 C 211.35 270.94 209.73 278.21 209.66 284.22 C 209.59 290.23 210.97 295.63 212.74 301.01 C 214.51 306.40 217.14 311.42 220.29 316.53 C 223.43 321.65 227.00 327.89 231.59 331.73 C 236.17 335.57 241.94 338.05 247.80 339.57 C 253.66 341.08 260.56 340.82 266.76 340.83 C 272.96 340.85 278.91 341.34 285.01 339.67 C 291.11 338.01 298.24 334.76 303.36 330.85 C 308.47 326.93 312.22 321.67 315.70 316.18 C 319.19 310.69 322.57 304.49 324.28 297.89 C 325.98 291.29 326.51 283.68 325.93 276.56 C 325.36 269.44 323.53 261.43 320.83 255.19 C 318.13 248.95 314.46 243.89 309.75 239.14 C 305.03 234.39 298.98 229.35 292.55 226.69 C 286.13 224.03 278.07 223.12 271.21 223.16 C 264.34 223.20 257.50 224.33 251.38 226.92 C 245.26 229.52 239.59 234.45 234.46 238.74 C 229.33 243.03 223.93 247.58 220.60 252.66 C 217.27 257.75 216.36 263.56 214.48 269.26 C 212.59 274.95 210.84 281.83 209.28 286.84 C 207.72 291.85 206.50 295.03 205.12 299.32 C 203.74 303.60 202.13 307.85 201.01 312.53 C 199.89 317.21 199.81 322.74 198.41 327.39 C 197.01 332.03 194.57 336.35 192.59 340.41 C 190.62 344.47 189.35 348.67 186.57 351.74 C 183.79 354.81 179.38 356.96 175.89 358.85 C 172.39 360.74 169.38 361.98 165.59 363.07 C 161.79 364.16 157.32 365.43 153.09 365.38 C 148.87 365.33 144.39 364.22 140.22 362.76 C 136.05 361.30 131.96 359.73 128.07 356.62 C 124.19 353.51 120.03 348.92 116.90 344.09 C 113.78 339.26 110.75 333.76 109.34 327.66 C 107.93 321.57 108.38 314.46 108.43 307.50 C 108.48 300.53 108.15 292.87 109.65 285.87 C 111.15 278.86 113.78 272.10 117.44 265.45 C 121.10 258.80 126.37 251.69 131.62 245.97 C 136.87 240.25 142.49 235.58 148.94 231.12 C 155.39 226.65 162.78 221.89 170.30 219.18 C 177.82 216.46 186.35 214.78 194.07 214.83 C 201.80 214.89 209.49 217.52 216.63 219.50 C 223.77 221.48 230.37 224.11 236.89 226.72 C 243.41 229.33 249.75 231.86 255.74 235.15 C 261.73 238.44 267.02 243.17 272.83 246.47 C 278.64 249.78 284.80 252.37 290.61 254.98 C 296.42 257.60 302.50 260.07 307.70 262.18 C 312.91 264.30 316.92 266.53 321.84 267.68 C 326.76 268.84 332.07 269.22 337.24 269.11 C 342.40 269.01 348.34 268.48 352.82 267.04 C 357.30 265.61 360.57 263.43 364.12 260.48 C 367.67 257.53 371.23 253.30 374.11 249.34 C 377.00 245.38 379.20 240.88 381.43 236.71 C 383.67 232.55 385.80 228.51 387.53 224.33 C 389.27 220.16 390.53 215.90 391.85 211.65 C 393.17 207.41 393.70 202.23 395.45 198.84 C 397.21 195.44 400.23 193.41 402.37 191.28 C 404.51 189.14 405.82 187.55 408.32 186.03 C 410.81 184.50 414.24 182.78 417.34 182.15 C 420.43 181.51 423.95 180.61 426.89 182.23 C 429.83 183.85 432.59 188.24 434.98 191.85 C 437.36 195.47 439.81 199.27 441.19 203.93 C 442.58 208.60 443.09 214.06 443.29 219.83 C 443.48 225.60 443.21 232.16 442.36 238.53 C 441.51 244.91 440.02 251.65 438.20 258.08 C 436.39 264.52 433.64 271.15 431.45 277.13 C 429.25 283.11 427.64 288.12 425.04 293.94 C 422.45 299.77 418.47 306.75 415.90 312.08 C 413.32 317.42 412.23 321.16 409.62 325.95 C 407.00 330.73 402.97 335.92 400.21 340.78 C 397.45 345.63 395.39 350.32 393.06 355.07 C 390.72 359.81 388.10 365.00 386.20 369.26 C 384.29 373.52 383.12 376.69 381.65 380.60 C 380.17 384.52 378.31 388.95 377.36 392.75 C 376.41 396.54 375.92 400.16 375.93 403.36 C 375.94 406.56 376.75 409.38 377.41 411.94 C 378.07 414.50 378.36 416.92 379.90 418.73 C 381.45 420.54 384.56 421.62 386.68 422.79 C 388.80 423.96 390.32 425.22 392.64 425.74 C 394.96 426.27 397.95 426.35 400.60 425.94 C 403.25 425.52 405.70 424.74 408.56 423.27 C 411.41 421.80 414.47 419.62 417.73 417.10 C 420.98 414.57 424.90 411.85 428.09 408.12 C 431.28 404.39 434.08 399.33 436.87 394.73 C 439.66 390.14 442.16 385.17 444.83 380.54 C 447.50 375.90 450.46 371.87 452.86 366.92 C 455.27 361.98 457.37 355.83 459.26 350.86 C 461.16 345.89 462.10 341.15 464.23 337.10 C 466.37 333.04 469.76 329.80 472.05 326.54 C 474.34 323.28 475.99 319.60 477.98 317.55 C 479.98 315.51 482.26 314.69 484.01 314.26 C 485.76 313.83 487.41 314.13 488.49 314.96 C 489.57 315.79 490.06 317.01 490.49 319.22 C 490.91 321.43 491.72 324.85 491.06 328.20 C 490.39 331.55 488.86 335.17 486.49 339.33 C 484.11 343.49 480.79 348.50 476.81 353.15 C 472.83 357.80 468.51 362.83 462.61 367.24 C 456.71 371.65 448.86 376.29 441.41 379.62 C 433.95 382.95 426.16 385.26 417.87 387.22 C 409.58 389.17 400.28 391.04 391.67 391.34 C 383.06 391.64 374.79 390.53 366.21 389.02 C 357.62 387.52 348.22 386.11 340.15 382.32 C 332.07 378.53 324.64 372.26 317.74 366.26 C 310.85 360.26 304.32 353.13 298.77 346.31 C 293.21 339.49 288.34 332.30 284.41 325.33 C 280.48 318.35 277.30 311.79 275.20 304.48 C 273.10 297.18 271.90 288.82 271.80 281.50 C 271.69 274.17 272.98 267.09 274.57 260.53 C 276.15 253.97 278.57 247.80 281.30 242.15 C 284.04 236.50 287.83 231.69 290.97 226.64 C 294.11 221.59 296.85 216.31 300.12 211.86 C 303.39 207.42 307.42 203.77 310.57 199.99 C 313.72 196.21 316.32 192.99 319.03 189.19 C 321.74 185.39 324.68 180.76 326.84 177.18 C 329.01 173.60 330.68 171.48 332.03 167.71 C 333.38 163.93 334.27 158.77 334.92 154.55 C 335.57 150.33 335.70 146.37 335.91 142.38 C 336.13 138.38 336.37 134.18 336.21 130.58 C 336.05 126.99 335.49 123.99 334.97 120.78 C 334.45 117.57 333.25 114.49 333.10 111.32 C 332.95 108.15 333.42 105.01 334.07 101.77 C 334.72 98.52 335.78 94.80 337.00 91.86 C 338.21 88.92 339.46 86.19 341.36 84.14 C 343.26 82.09 345.79 80.67 348.39 79.55 C 351.00 78.43 353.59 77.40 356.97 77.43 C 360.34 77.46 364.73 78.46 368.63 79.73 C 372.52 81.01 376.31 82.74 380.35 85.08 C 384.39 87.42 389.14 90.10 392.88 93.77 C 396.61 97.44 399.81 101.97 402.75 107.10 C 405.69 112.22 408.62 118.01 410.54 124.53 C 412.46 131.05 414.01 138.51 414.27 146.23 C 414.54 153.94 413.70 162.83 412.15 170.81 C 410.60 178.79 408.34 186.33 404.98 194.11 C 401.62 201.90 397.15 210.60 392.00 217.52 C 386.84 224.44 380.62 230.54 374.03 235.64 C 367.44 240.75 359.77 244.86 352.47 248.15 C 345.17 251.43 338.01 253.88 330.25 255.33 C 322.48 256.78 313.70 257.40 305.88 256.85 C 298.06 256.30 290.10 254.26 283.33 252.05 C 276.57 249.84 270.44 247.11 265.28 243.57 C 260.11 240.04 255.72 235.67 252.34 230.84 C 248.95 226.02 246.61 220.33 244.95 214.63 C 243.29 208.93 241.99 202.07 242.37 196.63 C 242.74 191.19 244.81 186.42 247.20 181.99 C 249.59 177.56 252.65 173.13 256.71 170.03 C 260.76 166.93 266.28 164.99 271.54 163.40 C 276.81 161.80 282.46 160.15 288.30 160.47 C 294.13 160.79 301.19 162.94 306.55 165.33 C 311.92 167.72 316.06 170.46 320.48 174.82 C 324.90 179.17 329.59 185.70 333.08 191.46 C 336.56 197.22 339.53 202.95 341.39 209.38 C 343.24 215.81 344.65 223.25 344.22 230.06 C 343.79 236.86 341.72 243.84 338.83 250.23 C 335.93 256.62 331.32 263.19 326.85 268.40 C 322.38 273.61 317.76 277.89 311.99 281.50 C 306.22 285.12 298.86 288.10 292.25 290.07 C 285.64 292.04 278.65 293.55 272.32 293.30 C 265.99 293.05 259.99 291.60 254.25 288.56 C 248.52 285.53 242.16 280.37 237.89 275.08 C 233.63 269.79 230.37 262.44 228.65 256.83 C 226.94 251.22 226.92 247.18 227.62 241.43 C 228.32 235.68 230.25 227.83 232.86 222.32 C 235.46 216.80 238.83 212.32 243.27 208.36 C 247.71 204.40 253.70 200.03 259.51 198.53 C 265.33 197.03 272.24 197.93 278.15 199.37 C 284.07 200.80 289.91 203.55 295.00 207.13 C 300.10 210.72 305.45 215.74 308.74 220.88 C 312.03 226.01 313.83 231.75 314.73 237.94 C 315.64 244.14 315.79 251.69 314.17 258.04 C 312.55 264.40 308.85 270.67 305.01 276.09 C 301.17 281.51 296.93 286.83 291.12 290.57 C 285.32 294.31 276.95 297.37 270.19 298.52 C 263.43 299.68 256.65 298.73 250.55 297.49 C 244.45 296.26 239.02 294.09 233.60 291.11 C 228.18 288.13 222.39 284.01 218.03 279.61 C 213.67 275.21 211.10 269.97 207.43 264.71 C 203.75 259.45 199.31 252.91 195.99 248.06 C 192.67 243.21 190.22 239.76 187.51 235.60 C 184.79 231.43 182.55 226.80 179.68 223.06 C 176.81 219.32 173.84 216.19 170.29 213.17 C 166.74 210.14 162.19 207.08 158.37 204.92 C 154.55 202.76 151.35 201.42 147.35 200.21 C 143.35 199.00 138.51 197.36 134.36 197.65 C 130.22 197.93 126.18 199.83 122.47 201.92 C 118.76 204.00 115.41 207.10 112.09 210.16 C 108.77 213.22 104.98 216.55 102.57 220.25 C 100.16 223.95 99.17 228.56 97.63 232.36 C 96.09 236.17 95.24 239.54 93.33 243.08 C 91.42 246.63 88.53 250.03 86.17 253.65 C 83.81 257.26 81.62 261.38 79.18 264.78 C 76.75 268.17 73.94 271.28 71.56 274.02 C 69.19 276.77 67.16 279.70 64.94 281.26 C 62.72 282.81 60.63 283.07 58.25 283.36 C 55.86 283.65 52.80 283.72 50.61 282.98 C 48.41 282.23 46.73 281.13 45.08 278.90 C 43.43 276.67 42.08 273.08 40.71 269.61 C 39.35 266.13 38.02 262.06 36.88 258.06 C 35.75 254.05 35.02 249.14 33.93 245.59 C 32.84 242.05 31.38 239.63 30.35 236.79 C 29.33 233.95 28.52 230.91 27.76 228.57 C 27.00 226.22 26.99 224.07 25.82 222.72 C 24.65 221.36 22.46 221.05 20.74 220.44 C 19.01 219.82 17.06 218.85 15.45 219.02 C 13.84 219.20 12.38 219.99 11.07 221.51 C 9.76 223.04 8.72 225.52 7.62 228.18 C 6.51 230.83 5.18 234.20 4.46 237.42 C 3.74 240.64 3.32 243.36 3.30 247.51 C 3.29 251.67 3.26 256.92 4.38 262.33 C 5.49 267.74 7.10 274.14 9.99 279.99 C 12.88 285.84 16.89 291.96 21.72 297.43 C 26.55 302.90 32.82 308.12 38.97 312.81 C 45.12 317.51 51.13 321.88 58.62 325.61 C 66.12 329.34 75.35 332.46 83.96 335.18 C 92.56 337.90 101.35 341.00 110.27 341.94 C 119.19 342.88 128.50 342.06 137.49 340.84 C 146.49 339.62 155.89 337.85 164.24 334.62 C 172.60 331.39 180.63 326.32 187.61 321.47 C 194.59 316.62 200.64 311.34 206.13 305.52 C 211.61 299.70 216.43 293.27 220.51 286.55 C 224.59 279.83 227.85 271.60 230.60 265.21 C 233.36 258.83 235.05 254.06 237.05 248.24 C 239.06 242.41 240.23 236.11 242.62 230.27 C 245.00 224.42 248.68 218.66 251.36 213.16 C 254.05 207.65 256.36 202.04 258.74 197.24 C 261.11 192.43 262.86 188.66 265.62 184.32 C 268.38 179.99 271.55 175.03 275.31 171.23 C 279.06 167.44 283.48 163.53 288.16 161.55 C 292.85 159.56 298.01 159.56 303.43 159.30 C 308.85 159.04 315.11 158.95 320.67 160.00 C 326.23 161.06 331.76 162.69 336.80 165.62 C 341.85 168.54 346.88 172.82 350.94 177.55 C 355.01 182.28 358.79 187.92 361.19 194.00 C 363.59 200.08 364.84 207.45 365.34 214.02 C 365.84 220.59 366.04 226.84 364.18 233.42 C 362.32 240.00 358.31 247.39 354.17 253.51 C 350.02 259.62 344.90 265.51 339.31 270.10 C 333.73 274.69 327.61 278.87 320.66 281.04 C 313.71 283.20 305.15 283.68 297.60 283.09 C 290.05 282.50 281.92 280.58 275.34 277.49 C 268.76 274.40 262.30 269.82 258.14 264.54 C 253.97 259.27 251.45 252.21 250.35 245.84 C 249.25 239.48 250.10 232.17 251.56 226.37 C 253.02 220.58 255.61 215.23 259.10 211.09 C 262.60 206.94 267.43 203.37 272.52 201.52 C 277.61 199.66 284.33 199.06 289.65 199.96 C 294.97 200.86 300.10 203.40 304.43 206.92 C 308.77 210.44 313.29 215.35 315.64 221.07 C 317.99 226.80 319.16 234.91 318.55 241.29 C 317.94 247.66 315.37 253.74 311.99 259.32 C 308.60 264.89 303.65 270.20 298.22 274.74 C 292.78 279.28 285.78 284.53 279.38 286.58 C 272.97 288.62 266.37 287.84 259.78 287.01 C 253.19 286.17 245.16 283.93 239.84 281.55 C 234.51 279.17 231.33 276.77 227.82 272.72 C 224.32 268.66 220.50 263.19 218.79 257.21 C 217.08 251.23 216.85 243.13 217.57 236.81 C 218.28 230.50 219.93 224.25 223.09 219.34 C 226.24 214.42 231.38 211.06 236.51 207.34 C 241.63 203.63 247.93 199.10 253.83 197.04 C 259.74 194.98 265.57 194.79 271.94 194.97 C 278.30 195.15 285.77 195.37 292.01 198.11 C 298.26 200.85 304.77 206.05 309.42 211.42 C 314.07 216.79 317.77 224.03 319.92 230.32 C 322.08 236.61 322.25 242.72 322.36 249.16 C 322.47 255.59 322.48 262.58 320.58 268.95 C 318.69 275.32 315.11 282.31 310.99 287.37 C 306.87 292.44 301.52 296.11 295.85 299.35 C 290.19 302.60 283.10 305.35 276.99 306.86 C 270.88 308.38 265.26 308.92 259.20 308.44 C 253.14 307.96 246.54 306.47 240.63 303.99 C 234.72 301.51 228.32 297.87 223.72 293.56 C 219.12 289.25 215.52 283.80 213.05 278.15 C 210.57 272.50 209.69 265.93 208.86 259.66 C 208.03 253.38 208.41 246.63 208.05 240.51 C 207.69 234.40 206.67 228.67 206.71 222.97 C 206.76 217.27 208.02 211.64 208.29 206.30 C 208.56 200.95 208.29 196.22 208.34 190.92 C 208.38 185.62 208.74 179.42 208.58 174.48 C 208.43 169.54 207.91 165.91 207.41 161.30 C 206.91 156.69 206.57 151.14 205.57 146.80 C 204.57 142.46 203.50 138.66 201.42 135.26 C 199.33 131.86 196.39 128.79 193.06 126.42 C 189.72 124.05 185.71 122.17 181.41 121.03 C 177.10 119.89 171.79 119.36 167.21 119.59 C 162.63 119.81 158.24 120.26 153.90 122.36 C 149.56 124.45 144.78 127.69 141.16 132.16 C 137.54 136.64 134.76 143.15 132.17 149.19 C 129.58 155.24 126.84 161.72 125.63 168.45 C 124.43 175.17 124.20 182.27 124.93 189.56 C 125.65 196.86 127.06 205.00 129.96 212.22 C 132.87 219.44 136.99 226.54 142.36 232.88 C 147.73 239.23 155.03 246.05 162.20 250.27 C 169.36 254.48 177.34 256.71 185.34 258.20 C 193.35 259.68 202.70 260.32 210.21 259.18 C 217.72 258.03 224.53 254.94 230.41 251.33 C 236.30 247.73 241.37 242.20 245.53 237.54 C 249.69 232.89 252.71 228.86 255.38 223.40 C 258.05 217.94 260.32 210.37 261.53 204.77 C 262.75 199.17 262.52 194.22 262.65 189.81 C 262.77 185.40 262.92 182.91 262.28 178.33 C 261.64 173.75 259.96 167.34 258.82 162.34 C 257.68 157.35 256.37 152.49 255.44 148.36 C 254.52 144.22 254.08 141.26 253.26 137.54 C 252.44 133.82 251.15 129.84 250.53 126.02 C 249.90 122.21 249.51 118.39 249.51 114.65 C 249.50 110.91 249.58 107.12 250.49 103.59 C 251.39 100.06 253.12 96.52 254.94 93.47 C 256.76 90.42 258.86 87.68 261.40 85.29 C 263.93 82.90 267.11 81.04 270.14 79.12 C 273.17 77.20 275.59 75.03 279.59 73.77 C 283.58 72.51 289.23 71.76 294.12 71.58 C 299.02 71.40 304.02 71.36 308.94 72.68 C 313.87 73.99 318.60 76.60 323.68 79.47 C 328.75 82.34 334.43 85.78 339.38 89.90 C 344.34 94.02 349.28 98.52 353.43 104.19 C 357.58 109.86 361.78 116.87 364.27 123.91 C 366.76 130.96 367.77 138.70 368.39 146.46 C 369.00 154.22 368.61 162.44 367.95 170.48 C 367.30 178.53 366.72 186.86 364.48 194.71 C 362.23 202.57 358.44 210.49 354.48 217.62 C 350.53 224.76 345.76 231.31 340.75 237.53 C 335.74 243.75 330.34 250.24 324.42 254.94 C 318.50 259.63 311.97 262.86 305.23 265.71 C 298.48 268.56 290.89 270.49 283.97 272.05 C 277.04 273.61 270.16 275.08 263.65 275.08 C 257.15 275.08 251.07 273.55 244.95 272.03 C 238.82 270.52 232.30 268.87 226.89 265.99 C 221.49 263.10 216.41 258.93 212.52 254.73 C 208.63 250.53 205.91 245.82 203.55 240.79 C 201.20 235.76 199.21 230.20 198.37 224.56 C 197.54 218.93 197.84 212.55 198.55 206.97 C 199.26 201.40 200.16 196.15 202.65 191.10 C 205.15 186.05 209.77 180.90 213.50 176.68 C 217.23 172.47 220.70 168.75 225.03 165.81 C 229.35 162.88 233.85 160.45 239.45 159.10 C 245.05 157.75 252.52 157.68 258.63 157.70 C 264.73 157.71 269.88 157.88 276.06 159.17 C 282.24 160.46 289.47 162.80 295.70 165.43 C 301.93 168.07 308.59 171.05 313.44 175.00 C 318.30 178.95 321.21 183.91 324.84 189.11 C 328.48 194.31 332.81 200.21 335.25 206.21 C 337.69 212.20 339.02 218.53 339.47 225.06 C 339.91 231.59 339.39 238.56 337.93 245.37 C 336.46 252.17 333.69 259.91 330.68 265.90 C 327.67 271.88 323.79 277.10 319.87 281.28 C 315.96 285.46 312.62 287.99 307.20 290.99 C 301.78 293.99 294.20 297.46 287.34 299.30 C 280.49 301.13 272.94 302.43 266.08 302.02 C 259.22 301.62 252.49 299.51 246.17 296.85 C 239.85 294.19 233.17 290.59 228.15 286.07 C 223.12 281.56 219.46 275.31 216.01 269.75 C 212.55 264.18 209.74 258.31 207.40 252.67 C 205.06 247.04 203.09 241.86 201.97 235.94 C 200.84 230.03 201.07 222.89 200.66 217.18 C 200.24 211.46 199.41 206.67 199.46 201.66 C 199.52 196.66 200.89 191.65 201.00 187.14 C 201.11 182.63 200.55 179.09 200.12 174.61 C 199.69 170.14 199.06 164.90 198.41 160.29 C 197.76 155.67 197.45 150.77 196.19 146.92 C 194.93 143.08 192.80 140.64 190.84 137.23 C 188.89 133.82 186.93 129.66 184.47 126.48 C 182.01 123.30 178.83 120.44 176.11 118.14 C 173.38 115.84 170.74 114.56 168.11 112.71 C 165.47 110.85 162.71 109.05 160.30 107.00 C 157.89 104.96 155.43 102.70 153.65 100.43 C 151.87 98.16 150.71 96.03 149.62 93.40 C 148.53 90.77 147.37 87.26 147.12 84.63 C 146.87 82.01 147.33 80.37 148.12 77.64 C 148.90 74.90 149.65 71.22 151.82 68.22 C 154.00 65.23 157.64 62.26 161.17 59.69 C 164.70 57.12 168.53 54.51 173.00 52.82 C 177.47 51.14 182.70 50.72 188.00 49.58 C 193.29 48.44 199.15 46.25 204.77 45.98 C 210.39 45.71 216.12 47.69 221.73 47.96 C 227.33 48.22 233.08 47.60 238.41 47.58 C 243.73 47.55 249.01 48.23 253.67 47.80 C 258.33 47.36 262.63 45.77 266.35 44.97 C 270.07 44.17 273.43 44.16 275.97 43.00 C 278.51 41.83 280.58 39.83 281.59 37.98 C 282.60 36.14 283.13 33.89 282.01 31.92 C 280.89 29.96 278.05 27.68 274.86 26.18 C 271.66 24.68 267.79 22.81 262.83 22.93 C 257.87 23.05 251.19 25.00 245.11 26.88 C 239.03 28.76 232.65 30.80 226.35 34.19 C 220.05 37.59 213.34 42.53 207.32 47.24 C 201.30 51.96 195.55 57.73 190.23 62.49 C 184.91 67.25 179.96 71.45 175.40 75.82 C 170.83 80.19 167.16 83.88 162.82 88.71 C 158.47 93.54 153.47 100.32 149.33 104.80 C 145.18 109.28 141.77 112.33 137.95 115.58 C 134.12 118.82 129.70 121.80 126.37 124.26 C 123.04 126.71 121.56 128.52 117.99 130.29 C 114.43 132.07 108.63 133.61 104.99 134.91 C 101.34 136.20 98.90 137.72 96.10 138.07 C 93.30 138.41 90.61 137.08 88.18 136.96 C 85.76 136.84 83.81 137.33 81.54 137.34 C 79.27 137.35 77.13 137.11 74.57 137.02 C 72.01 136.94 68.97 136.57 66.18 136.84 C 63.39 137.10 60.63 137.54 57.82 138.63 C 55.01 139.72 51.93 141.40 49.33 143.38 C 46.72 145.37 44.23 147.38 42.19 150.55 C 40.15 153.72 38.31 158.00 37.10 162.40 C 35.90 166.80 35.26 171.50 34.95 176.96 C 34.65 182.43 34.26 188.66 35.28 195.20 C 36.29 201.74 38.48 208.84 41.02 216.21 C 43.57 223.57 46.75 232.19 50.54 239.41 C 54.33 246.64 58.96 253.13 63.76 259.57 C 68.56 266.02 74.10 272.26 79.35 278.08 C 84.60 283.90 90.03 288.87 95.28 294.49 C 100.53 300.10 106.41 306.40 110.86 311.78 C 115.31 317.15 118.97 321.44 121.99 326.75 C 125.01 332.06 126.83 338.63 128.99 343.64 C 131.15 348.65 133.51 352.66 134.96 356.82 C 136.41 360.97 137.35 364.77 137.68 368.57 C 138.01 372.38 137.83 376.35 136.95 379.65 C 136.08 382.94 134.50 386.43 132.45 388.33 C 130.39 390.23 127.74 390.83 124.62 391.03 C 121.49 391.23 117.52 390.80 113.71 389.52 C 109.90 388.25 105.15 386.17 101.75 383.38 C 98.35 380.60 95.37 377.56 93.30 372.79 C 91.23 368.02 90.08 361.42 89.33 354.78 C 88.58 348.14 88.12 340.49 88.80 332.96 C 89.49 325.42 90.29 317.25 93.43 309.57 C 96.58 301.89 101.91 293.67 107.69 286.89 C 113.47 280.12 120.97 273.93 128.10 268.93 C 135.23 263.92 142.90 259.67 150.46 256.88 C 158.03 254.09 165.79 252.48 173.48 252.18 C 181.16 251.89 189.61 252.96 196.58 255.12 C 203.55 257.27 210.12 261.04 215.30 265.12 C 220.48 269.21 224.25 274.37 227.67 279.61 C 231.09 284.86 234.46 290.86 235.83 296.57 C 237.19 302.28 236.90 308.76 235.85 313.87 C 234.81 318.99 232.46 323.41 229.57 327.27 C 226.68 331.13 222.67 334.72 218.50 337.05 C 214.33 339.38 209.60 340.81 204.56 341.26 C 199.52 341.71 193.48 340.88 188.28 339.76 C 183.08 338.63 177.59 336.56 173.35 334.49 C 169.12 332.42 166.96 330.40 162.85 327.35 C 158.73 324.30 152.82 320.23 148.68 316.20 C 144.55 312.17 141.05 308.02 138.02 303.17 C 134.99 298.33 132.73 292.05 130.51 287.11 C 128.28 282.16 126.90 278.33 124.65 273.52 C 122.39 268.70 119.63 262.20 116.97 258.20 C 114.32 254.20 111.89 252.01 108.74 249.53 C 105.59 247.05 101.43 244.79 98.06 243.31 C 94.70 241.82 91.82 240.69 88.54 240.64 C 85.26 240.60 81.66 241.60 78.39 243.04 C 75.12 244.47 71.43 247.04 68.92 249.23 C 66.40 251.42 64.70 253.23 63.30 256.20 C 61.90 259.17 61.04 263.05 60.52 267.04 C 60.01 271.03 59.83 275.54 60.22 280.12 C 60.62 284.71 61.93 289.51 62.91 294.57 C 63.89 299.64 65.20 305.78 66.13 310.51 C 67.06 315.24 67.82 318.77 68.50 322.94 C 69.18 327.12 70.15 331.50 70.20 335.56 C 70.25 339.61 69.60 343.93 68.81 347.26 C 68.02 350.60 66.70 352.96 65.45 355.57 C 64.21 358.17 62.80 361.54 61.34 362.89 C 59.88 364.24 58.62 363.57 56.68 363.68 C 54.75 363.79 51.79 364.75 49.74 363.54 C 47.68 362.34 46.23 359.49 44.35 356.46 C 42.47 353.42 40.03 349.70 38.46 345.32 C 36.88 340.94 35.54 336.22 34.92 330.17 C 34.30 324.13 33.24 316.49 34.73 309.04 C 36.23 301.60 40.25 292.66 43.91 285.48 C 47.58 278.31 51.16 272.49 56.72 265.98 C 62.28 259.48 70.24 252.27 77.27 246.46 C 84.29 240.65 91.03 234.81 98.89 231.13 C 106.75 227.46 115.66 225.43 124.44 224.41 C 133.21 223.40 142.68 223.95 151.54 225.07 C 160.41 226.19 169.91 228.13 177.62 231.12 C 185.32 234.11 191.76 238.46 197.78 243.00 C 203.80 247.54 209.22 252.50 213.74 258.37 C 218.26 264.23 222.23 272.39 224.90 278.20 C 227.57 284.01 228.61 287.97 229.77 293.23 C 230.94 298.49 231.21 304.61 231.88 309.76 C 232.55 314.91 233.55 319.30 233.79 324.14 C 234.03 328.97 233.18 334.10 233.35 338.75 C 233.52 343.40 234.33 347.51 234.80 352.05 C 235.27 356.58 235.61 361.55 236.17 365.96 C 236.73 370.36 237.31 374.51 238.18 378.46 C 239.04 382.41 239.77 386.07 241.37 389.65 C 242.97 393.23 245.41 396.91 247.78 399.93 C 250.15 402.94 252.23 405.07 255.60 407.72 C 258.96 410.37 263.76 413.54 267.97 415.82 C 272.18 418.09 276.38 420.22 280.85 421.37 C 285.32 422.52 289.98 422.76 294.78 422.73 C 299.57 422.71 304.96 422.20 309.61 421.24 C 314.26 420.28 318.18 419.00 322.67 416.99 C 327.16 414.98 331.78 412.29 336.55 409.20 C 341.32 406.11 346.53 402.59 351.30 398.45 C 356.07 394.30 360.97 389.71 365.15 384.33 C 369.33 378.94 373.43 372.14 376.38 366.16 C 379.34 360.19 381.64 355.14 382.87 348.46 C 384.09 341.78 383.85 333.45 383.72 326.07 C 383.59 318.68 383.94 311.18 382.08 304.14 C 380.23 297.10 376.66 290.33 372.59 283.83 C 368.52 277.32 363.14 270.50 357.67 265.13 C 352.20 259.75 346.70 254.91 339.79 251.58 C 332.87 248.25 324.07 246.17 316.16 245.16 C 308.25 244.16 299.53 244.12 292.34 245.56 C 285.14 247.00 278.77 250.15 272.98 253.79 C 267.19 257.43 260.90 262.10 257.58 267.40 C 254.26 272.70 253.40 279.42 253.07 285.57 C 252.73 291.73 253.17 299.21 255.59 304.34 C 258.00 309.46 262.93 313.03 267.57 316.30 C 272.21 319.57 277.88 322.86 283.43 323.93 C 288.98 325.00 295.18 323.96 300.86 322.72 C 306.54 321.48 312.73 319.68 317.51 316.51 C 322.28 313.34 326.35 308.82 329.50 303.70 C 332.66 298.58 335.35 292.19 336.44 285.79 C 337.53 279.39 337.57 271.93 336.02 265.30 C 334.46 258.68 331.28 251.82 327.12 246.03 C 322.95 240.24 317.06 234.65 311.02 230.57 C 304.98 226.49 297.56 223.10 290.85 221.55 C 284.15 219.99 276.91 220.09 270.78 221.23 C 264.65 222.38 259.00 224.52 254.07 228.40 C 249.15 232.27 244.62 238.66 241.24 244.47 C 237.85 250.27 235.05 256.93 233.74 263.23 C 232.44 269.53 232.05 276.52 233.41 282.26 C 234.76 287.99 238.25 292.73 241.87 297.65 C 245.50 302.58 250.30 308.39 255.15 311.81 C 260.00 315.23 265.03 317.24 270.98 318.16 C 276.93 319.08 284.94 319.26 290.86 317.30 C 296.79 315.35 301.94 310.59 306.53 306.41 C 311.12 302.24 315.39 297.77 318.39 292.24 C 321.40 286.71 324.08 280.06 324.55 273.25 C 325.03 266.44 323.42 257.80 321.25 251.36 C 319.07 244.93 315.78 239.71 311.49 234.65 C 307.20 229.59 300.86 223.88 295.50 221.00 C 290.14 218.13 285.43 218.20 279.31 217.41 C 273.20 216.62 265.12 215.06 258.83 216.26 C 252.53 217.47 246.60 220.54 241.55 224.64 C 236.49 228.74 231.35 235.01 228.48 240.84 C 225.61 246.66 224.18 253.41 224.33 259.62 C 224.48 265.82 226.61 272.19 229.39 278.04 C 232.17 283.89 236.29 290.36 241.01 294.72 C 245.73 299.08 251.95 302.51 257.70 304.18 C 263.44 305.85 269.98 306.09 275.47 304.73 C 280.96 303.38 285.99 299.90 290.65 296.06 C 295.31 292.22 300.40 286.85 303.43 281.67 C 306.46 276.49 308.01 270.96 308.84 264.99 C 309.66 259.01 309.30 252.03 308.39 245.83 C 307.48 239.62 305.95 233.52 303.37 227.75 C 300.80 221.98 297.18 215.84 292.95 211.19 C 288.72 206.55 283.37 203.00 277.99 199.86 C 272.62 196.73 266.89 194.29 260.71 192.39 C 254.54 190.49 247.40 188.31 240.93 188.47 C 234.47 188.62 227.68 190.80 221.92 193.32 C 216.15 195.85 211.08 199.81 206.36 203.62 C 201.64 207.43 197.41 211.27 193.59 216.21 C 189.77 221.15 185.63 227.19 183.43 233.29 C 181.22 239.39 180.40 246.42 180.35 252.83 C 180.30 259.24 181.46 265.81 183.12 271.75 C 184.79 277.69 186.36 283.39 190.31 288.50 C 194.26 293.61 201.16 298.69 206.82 302.41 C 212.49 306.13 217.55 309.49 224.29 310.80 C 231.03 312.12 240.03 311.06 247.28 310.28 C 254.53 309.51 261.68 308.48 267.79 306.14 C 273.90 303.80 279.27 300.85 283.96 296.25 C 288.64 291.65 293.10 284.38 295.91 278.55 C 298.72 272.72 300.16 267.37 300.83 261.28 C 301.51 255.19 301.52 248.21 299.97 242.00 C 298.41 235.79 295.55 228.99 291.50 224.01 C 287.46 219.03 281.41 214.81 275.68 212.12 C 269.95 209.42 263.28 207.94 257.14 207.85 C 250.99 207.76 244.48 209.38 238.80 211.60 C 233.12 213.81 227.66 217.09 223.08 221.15 C 218.49 225.22 213.97 230.17 211.28 236.00 C 208.59 241.83 207.13 249.84 206.94 256.14 C 206.75 262.44 207.95 267.76 210.15 273.78 C 212.35 279.80 215.92 286.98 220.14 292.26 C 224.36 297.53 230.14 301.77 235.48 305.42 C 240.82 309.08 246.69 311.86 252.18 314.20 C 257.68 316.53 262.76 317.96 268.47 319.45 C 274.18 320.95 281.34 321.85 286.45 323.16 C 291.56 324.47 294.55 326.20 299.13 327.32 C 303.71 328.43 309.51 328.39 313.92 329.84 C 318.33 331.29 321.69 333.62 325.60 336.02 C 329.50 338.42 334.29 341.23 337.36 344.25 C 340.42 347.28 341.67 350.77 343.96 354.15 C 346.25 357.53 349.43 360.72 351.11 364.54 C 352.80 368.35 353.34 373.30 354.08 377.03 C 354.82 380.76 355.03 383.61 355.57 386.90 C 356.11 390.18 356.19 393.90 357.33 396.76 C 358.47 399.63 360.65 402.00 362.41 404.09 C 364.18 406.17 365.57 407.81 367.91 409.27 C 370.25 410.73 373.35 412.43 376.45 412.86 C 379.55 413.30 382.65 413.24 386.51 411.90 C 390.37 410.55 395.76 407.60 399.63 404.80 C 403.50 402.00 406.25 399.46 409.73 395.09 C 413.21 390.72 418.00 384.28 420.53 378.60 C 423.06 372.93 423.83 367.65 424.89 361.05 C 425.95 354.45 427.16 346.37 426.88 338.99 C 426.60 331.61 424.61 324.17 423.20 316.78 C 421.80 309.38 419.80 301.70 418.46 294.64 C 417.12 287.58 416.37 280.82 415.16 274.41 C 413.95 267.99 411.99 262.16 411.20 256.15 C 410.42 250.14 410.27 243.95 410.44 238.34 C 410.61 232.72 411.50 226.95 412.24 222.47 C 412.99 217.99 413.51 214.90 414.91 211.43 C 416.31 207.97 418.54 204.31 420.63 201.67 C 422.71 199.03 424.85 197.11 427.41 195.60 C 429.98 194.09 433.00 192.53 436.02 192.61 C 439.04 192.68 442.52 194.30 445.52 196.05 C 448.51 197.79 451.46 200.64 453.99 203.09 C 456.53 205.55 458.72 207.83 460.74 210.78 C 462.76 213.72 464.40 217.65 466.12 220.78 C 467.84 223.90 469.28 226.79 471.06 229.52 C 472.84 232.26 475.09 235.28 476.81 237.20 C 478.53 239.12 479.72 240.08 481.38 241.05 C 483.04 242.01 485.03 242.84 486.79 242.98 C 488.55 243.12 490.55 242.77 491.97 241.87 C 493.39 240.96 494.15 239.77 495.31 237.54 C 496.46 235.31 498.37 231.87 498.89 228.51 C 499.41 225.15 498.58 221.45 498.43 217.40 C 498.29 213.36 499.01 208.93 498.02 204.23 C 497.04 199.53 494.95 194.20 492.51 189.22 C 490.08 184.24 487.22 179.53 483.38 174.34 C 479.54 169.15 474.69 162.78 469.48 158.09 C 464.27 153.40 458.29 150.11 452.14 146.20 C 446.00 142.29 438.69 137.87 432.61 134.63 C 426.54 131.38 421.93 129.18 415.69 126.72 C 409.46 124.25 402.35 121.46 395.20 119.84 C 388.05 118.22 380.60 117.41 372.79 116.99 C 364.98 116.58 356.35 116.54 348.34 117.35 C 340.33 118.16 332.40 119.66 324.74 121.86 C 317.08 124.05 309.73 126.58 302.39 130.52 C 295.06 134.46 287.34 140.14 280.74 145.50 C 274.14 150.86 268.05 156.67 262.80 162.66 C 257.55 168.65 253.22 174.82 249.22 181.42 C 245.23 188.01 240.81 195.10 238.84 202.23 C 236.86 209.36 237.22 217.18 237.37 224.19 C 237.52 231.20 238.08 237.87 239.76 244.29 C 241.44 250.71 244.19 257.34 247.44 262.72 C 250.68 268.11 254.74 272.67 259.24 276.60 C 263.75 280.52 269.25 284.12 274.48 286.28 C 279.71 288.45 285.04 289.37 290.61 289.58 C 296.18 289.78 302.45 288.14 307.91 287.51 C 313.36 286.88 318.58 286.73 323.35 285.79 C 328.12 284.86 332.01 283.22 336.55 281.92 C 341.09 280.62 346.01 279.10 350.58 278.00 C 355.14 276.90 359.37 275.93 363.94 275.32 C 368.52 274.72 373.59 274.04 378.01 274.39 C 382.43 274.75 386.60 276.16 390.45 277.45 C 394.30 278.75 397.78 280.28 401.11 282.17 C 404.43 284.05 407.61 286.19 410.38 288.76 C 413.16 291.33 415.76 294.23 417.76 297.60 C 419.76 300.96 421.46 304.86 422.38 308.93 C 423.31 313.01 423.88 317.60 423.33 322.06 C 422.77 326.52 421.20 331.24 419.06 335.71 C 416.93 340.17 413.99 344.38 410.50 348.85 C 407.02 353.32 403.03 358.19 398.14 362.51 C 393.25 366.83 387.36 371.22 381.18 374.76 C 374.99 378.30 368.01 381.56 361.04 383.73 C 354.07 385.89 346.83 387.09 339.35 387.73 C 331.87 388.37 323.72 388.45 316.15 387.58 C 308.59 386.71 301.09 384.60 293.96 382.50 C 286.83 380.41 279.99 378.47 273.35 375.02 C 266.71 371.57 260.05 366.89 254.14 361.81 C 248.24 356.72 242.63 350.61 237.91 344.50 C 233.19 338.39 228.88 332.15 225.80 325.13 C 222.73 318.11 220.49 309.97 219.49 302.37 C 218.49 294.78 218.79 286.66 219.81 279.55 C 220.83 272.44 222.68 266.35 225.59 259.71 C 228.49 253.06 232.47 245.08 237.24 239.69 C 242.02 234.30 248.30 230.41 254.26 227.37 C 260.21 224.33 267.51 222.31 272.98 221.43 C 278.45 220.55 282.28 220.53 287.09 222.07 C 291.91 223.60 297.42 227.00 301.88 230.64 C 306.33 234.28 310.69 239.06 313.81 243.93 C 316.94 248.79 318.66 254.50 320.64 259.82 C 322.62 265.14 324.59 270.20 325.69 275.84 C 326.78 281.48 327.43 288.04 327.20 293.64 C 326.96 299.24 325.06 304.21 324.28 309.44 C 323.50 314.67 323.36 319.95 322.52 325.01 C 321.68 330.07 320.08 334.98 319.24 339.79 C 318.39 344.61 317.62 349.33 317.47 353.91 C 317.32 358.49 317.87 363.06 318.34 367.27 C 318.81 371.49 319.10 375.37 320.31 379.22 C 321.51 383.06 323.40 387.26 325.60 390.36 C 327.79 393.46 330.78 395.67 333.49 397.82 C 336.19 399.97 338.46 402.05 341.84 403.26 C 345.21 404.47 349.54 405.08 353.75 405.08 C 357.97 405.08 362.60 405.02 367.13 403.26 C 371.67 401.50 376.56 397.74 380.95 394.52 C 385.34 391.29 390.16 388.81 393.49 383.90 C 396.83 379.00 398.94 371.60 400.95 365.06 C 402.96 358.53 405.03 351.89 405.54 344.70 C 406.06 337.51 405.20 329.41 404.04 321.93 C 402.87 314.44 401.69 306.98 398.57 299.77 C 395.45 292.56 390.58 285.31 385.33 278.65 C 380.08 272.00 373.58 264.96 367.08 259.86 C 360.59 254.75 353.66 251.13 346.34 248.02 C 339.02 244.92 330.84 242.41 323.16 241.24 C 315.49 240.07 307.31 240.44 300.31 241.02 C 293.30 241.60 287.13 242.27 281.15 244.74 C 275.18 247.21 268.98 251.09 264.47 255.84 C 259.95 260.59 256.48 267.34 254.07 273.24 C 251.66 279.13 250.10 285.80 250.01 291.21 C 249.93 296.62 251.37 300.96 253.56 305.71 C 255.75 310.46 259.09 315.74 263.15 319.69 C 267.21 323.65 272.84 327.12 277.93 329.44 C 283.01 331.75 288.30 333.09 293.64 333.57 C 298.99 334.06 304.59 333.41 310.01 332.37 C 315.42 331.33 321.14 328.99 326.14 327.32 C 331.14 325.64 335.36 324.20 340.01 322.32 C 344.67 320.44 349.50 317.69 354.07 316.05 C 358.65 314.41 362.97 313.43 367.46 312.49 C 371.95 311.54 376.54 310.59 381.01 310.40 C 385.49 310.21 390.64 310.37 394.29 311.34 C 397.93 312.31 400.53 314.20 402.88 316.22 C 405.23 318.23 407.13 320.39 408.37 323.44 C 409.62 326.49 410.30 330.90 410.36 334.53 C 410.42 338.15 409.88 341.22 408.73 345.21 C 407.58 349.20 406.30 353.74 403.46 358.45 C 400.62 363.16 396.10 369.51 391.68 373.48 C 387.27 377.46 383.00 379.51 376.95 382.28 C 370.89 385.05 362.82 388.52 355.35 390.10 C 347.88 391.67 340.06 392.33 332.14 391.73 C 324.22 391.12 315.65 389.28 307.85 386.46 C 300.06 383.64 291.62 379.93 285.37 374.81 C 279.12 369.69 274.37 362.75 270.35 355.75 C 266.34 348.75 263.03 340.62 261.28 332.81 C 259.53 325.00 259.93 316.50 259.84 308.91 C 259.76 301.32 258.80 293.71 260.78 287.28 C 262.75 280.86 267.84 275.55 271.68 270.36 C 275.52 265.17 279.57 260.49 283.81 256.15 C 288.05 251.82 292.43 247.86 297.13 244.36 C 301.84 240.85 307.14 238.10 312.03 235.13 C 316.91 232.17 322.13 229.47 326.44 226.57 C 330.75 223.67 334.09 220.48 337.90 217.73 C 341.72 214.98 345.60 213.06 349.31 210.08 C 353.03 207.09 357.06 203.36 360.18 199.81 C 363.31 196.26 366.03 192.50 368.07 188.78 C 370.11 185.06 371.15 181.21 372.45 177.49 C 373.74 173.76 375.24 170.42 375.84 166.41 C 376.45 162.41 376.70 157.85 376.06 153.46 C 375.41 149.06 373.71 144.49 371.98 140.06 C 370.24 135.64 368.69 130.93 365.65 126.90 C 362.62 122.87 358.00 119.42 353.79 115.88 C 349.58 112.35 345.33 108.90 340.39 105.68 C 335.44 102.47 329.95 98.67 324.12 96.60 C 318.29 94.52 311.75 93.62 305.42 93.21 C 299.09 92.80 292.66 93.00 286.14 94.12 C 279.62 95.25 273.05 97.56 266.30 99.98 C 259.55 102.39 252.19 104.80 245.64 108.62 C 239.09 112.43 232.44 117.53 226.99 122.87 C 221.54 128.21 217.52 134.56 212.93 140.64 C 208.34 146.72 203.90 153.54 199.45 159.35 C 195.00 165.15 190.22 170.32 186.22 175.47 C 182.22 180.62 179.13 185.40 175.45 190.25 C 171.78 195.11 167.91 200.32 164.18 204.60 C 160.45 208.88 157.36 213.07 153.07 215.95 C 148.79 218.84 142.99 220.30 138.46 221.91 C 133.93 223.52 129.65 225.33 125.92 225.61 C 122.18 225.89 119.11 225.45 116.04 223.59 C 112.97 221.73 109.75 218.06 107.50 214.44 C 105.24 210.81 103.20 205.90 102.50 201.85 C 101.81 197.79 103.06 193.70 103.31 190.11 C 103.56 186.51 103.45 184.34 103.99 180.28 C 104.52 176.21 106.00 170.34 106.52 165.74 C 107.05 161.14 106.83 156.83 107.16 152.68 C 107.48 148.52 108.23 144.55 108.48 140.81 C 108.72 137.08 109.01 133.30 108.61 130.27 C 108.22 127.24 107.62 124.67 106.11 122.60 C 104.60 120.54 101.60 118.56 99.55 117.88 C 97.50 117.20 96.11 117.80 93.82 118.54 C 91.53 119.27 88.60 119.86 85.80 122.28 C 83.01 124.69 79.64 128.65 77.03 133.04 C 74.42 137.42 72.09 142.84 70.15 148.57 C 68.21 154.31 66.33 160.98 65.41 167.46 C 64.48 173.94 63.99 180.31 64.62 187.46 C 65.24 194.61 66.64 202.77 69.15 210.36 C 71.66 217.95 75.35 225.91 79.67 233.01 C 83.98 240.11 88.94 246.81 95.01 252.94 C 101.08 259.06 108.77 265.28 116.08 269.75 C 123.39 274.22 130.95 277.31 138.87 279.76 C 146.80 282.22 155.42 283.76 163.62 284.47 C 171.83 285.19 180.44 285.17 188.09 284.04 C 195.73 282.90 203.08 280.71 209.51 277.64 C 215.95 274.57 221.56 270.59 226.69 265.64 C 231.83 260.70 237.31 254.12 240.34 247.99 C 243.38 241.86 244.47 235.17 244.89 228.87 C 245.31 222.57 244.06 216.06 242.88 210.20 C 241.69 204.35 240.74 198.43 237.78 193.73 C 234.81 189.02 229.67 184.67 225.11 181.97 C 220.55 179.28 215.51 178.18 210.41 177.54 C 205.30 176.89 199.78 176.84 194.48 178.10 C 189.18 179.35 183.37 181.62 178.63 185.06 C 173.89 188.50 169.21 193.23 166.04 198.74 C 162.87 204.24 160.60 211.55 159.61 218.09 C 158.62 224.63 159.25 231.48 160.10 238.00 C 160.94 244.51 162.28 251.24 164.68 257.18 C 167.07 263.11 170.08 268.59 174.44 273.60 C 178.80 278.61 185.13 283.37 190.84 287.21 C 196.54 291.06 202.05 294.97 208.68 296.69 C 215.30 298.41 223.67 297.99 230.58 297.53 C 237.49 297.08 243.88 296.51 250.15 293.94 C 256.42 291.37 262.93 286.75 268.20 282.09 C 273.47 277.44 278.77 271.76 281.76 266.01 C 284.74 260.26 285.96 253.83 286.10 247.59 C 286.23 241.36 284.50 234.48 282.56 228.59 C 280.61 222.70 277.72 216.97 274.43 212.26 C 271.14 207.54 267.04 204.23 262.79 200.30 C 258.55 196.36 252.99 191.78 248.96 188.64 C 244.94 185.49 242.77 184.02 238.66 181.44 C 234.54 178.85 228.91 175.89 224.29 173.10 C 219.66 170.32 214.93 167.40 210.88 164.74 C 206.84 162.07 203.15 159.72 200.02 157.11 C 196.88 154.49 194.34 152.37 192.06 149.02 C 189.78 145.68 187.60 140.78 186.34 137.02 C 185.08 133.27 184.18 130.39 184.49 126.49 C 184.81 122.59 186.54 117.55 188.24 113.61 C 189.95 109.66 191.97 106.18 194.71 102.81 C 197.45 99.43 201.43 96.51 204.68 93.34 C 207.92 90.18 210.87 86.48 214.19 83.83 C 217.51 81.17 221.28 79.40 224.60 77.41 C 227.93 75.42 231.42 74.03 234.15 71.88 C 236.89 69.72 239.01 66.76 241.04 64.47 C 243.07 62.18 244.79 60.35 246.32 58.15 C 247.86 55.96 249.86 53.51 250.25 51.30 C 250.64 49.09 249.39 47.01 248.66 44.91 C 247.94 42.81 247.68 40.33 245.91 38.69 C 244.14 37.05 241.04 36.12 238.03 35.08 C 235.02 34.03 231.48 33.14 227.86 32.43 C 224.24 31.72 220.39 30.61 216.31 30.81 C 212.22 31.02 207.77 32.78 203.35 33.67 C 198.93 34.57 194.10 35.29 189.79 36.18 C 185.49 37.07 181.70 38.18 177.50 39.03 C 173.31 39.88 168.34 40.65 164.60 41.27 C 160.87 41.88 158.20 42.59 155.11 42.70 C 152.02 42.82 148.86 42.06 146.07 41.95 C 143.29 41.85 141.01 42.32 138.43 42.06 C 135.85 41.81 132.29 41.13 130.60 40.42 C 128.91 39.70 129.23 38.64 128.30 37.80 C 127.37 36.95 125.55 36.26 125.01 35.34 C 124.46 34.41 124.95 33.34 125.01 32.26 C 125.06 31.18 125.32 30.02 125.34 28.83 C 125.36 27.64 125.61 26.09 125.13 25.13 C 124.65 24.17 123.77 23.87 122.44 23.07 C 121.12 22.26 118.86 20.62 117.16 20.31 C 115.47 19.99 114.39 20.53 112.29 21.16 C 110.20 21.80 107.29 22.23 104.59 24.13 C 101.90 26.03 98.87 29.83 96.11 32.56 C 93.36 35.30 91.05 37.06 88.07 40.53 C 85.08 44.00 81.57 48.98 78.21 53.36 C 74.84 57.74 70.92 61.66 67.90 66.82 C 64.88 71.97 62.50 77.80 60.11 84.30 C 57.72 90.79 55.06 98.68 53.55 105.80 C 52.04 112.91 51.79 119.88 51.05 126.99 C 50.32 134.09 49.30 141.23 49.13 148.45 C 48.95 155.67 48.82 163.37 49.99 170.31 C 51.16 177.24 53.61 182.79 56.16 190.08 C 58.71 197.37 61.10 206.53 65.29 214.05 C 69.47 221.56 75.53 228.34 81.28 235.18 C 87.02 242.02 93.45 249.03 99.76 255.09 C 106.08 261.15 112.59 266.59 119.16 271.53 C 125.72 276.47 132.44 280.54 139.17 284.72 C 145.89 288.91 152.99 292.90 159.49 296.63 C 165.98 300.36 172.01 303.47 178.15 307.11 C 184.28 310.75 191.23 314.15 196.28 318.45 C 201.33 322.75 205.17 328.29 208.45 332.93 C 211.73 337.57 214.06 342.03 215.96 346.26 C 217.86 350.49 219.03 354.02 219.84 358.32 C 220.66 362.62 221.38 368.02 220.84 372.07 C 220.29 376.12 218.83 379.76 216.59 382.63 C 214.34 385.50 211.25 388.01 207.36 389.28 C 203.47 390.55 198.13 390.89 193.23 390.24 C 188.34 389.59 182.86 388.45 178.00 385.38 C 173.13 382.31 168.27 377.16 164.04 371.83 C 159.81 366.49 155.56 360.24 152.59 353.36 C 149.63 346.48 147.08 338.26 146.26 330.55 C 145.43 322.83 145.60 314.71 147.63 307.09 C 149.67 299.47 154.01 291.50 158.48 284.80 C 162.96 278.11 168.27 271.74 174.47 266.93 C 180.67 262.11 188.38 258.15 195.70 255.91 C 203.02 253.67 211.10 253.18 218.38 253.46 C 225.67 253.74 233.28 254.88 239.42 257.57 C 245.56 260.26 250.93 265.10 255.24 269.61 C 259.55 274.11 263.13 279.07 265.31 284.60 C 267.49 290.13 267.92 296.96 268.31 302.78 C 268.70 308.60 268.23 314.58 267.64 319.52 C 267.06 324.46 266.48 327.87 264.79 332.42 C 263.10 336.97 259.86 342.46 257.50 346.80 C 255.15 351.13 252.91 354.39 250.66 358.44 C 248.41 362.48 246.10 367.16 244.00 371.06 C 241.90 374.97 239.63 378.29 238.06 381.86 C 236.48 385.44 235.53 388.98 234.55 392.51 C 233.57 396.03 232.37 399.60 232.17 403.01 C 231.97 406.43 232.53 410.05 233.34 413.00 C 234.16 415.95 235.12 418.11 237.06 420.71 C 239.00 423.31 242.05 426.39 245.00 428.61 C 247.94 430.82 250.48 432.99 254.72 433.99 C 258.97 434.99 265.19 434.95 270.47 434.63 C 275.74 434.32 281.17 433.95 286.37 432.10 C 291.56 430.25 296.66 427.56 301.63 423.52 C 306.60 419.47 311.79 414.06 316.19 407.82 C 320.59 401.57 325.43 392.89 328.05 386.05 C 330.67 379.22 331.43 374.32 331.92 366.81 C 332.42 359.31 332.55 348.97 331.04 341.02 C 329.52 333.08 327.05 325.88 322.84 319.15 C 318.62 312.41 312.00 305.34 305.75 300.60 C 299.51 295.86 292.15 292.43 285.38 290.71 C 278.60 288.99 271.45 289.03 265.08 290.26 C 258.70 291.49 251.49 294.47 247.13 298.07 C 242.77 301.66 240.76 306.80 238.91 311.83 C 237.07 316.86 235.22 323.13 236.05 328.26 C 236.89 333.39 240.37 338.75 243.92 342.62 C 247.47 346.50 252.29 349.98 257.33 351.52 C 262.37 353.06 268.55 352.71 274.14 351.88 C 279.72 351.05 285.35 349.65 290.86 346.54 C 296.37 343.42 303.04 338.63 307.19 333.18 C 311.34 327.73 314.30 320.84 315.78 313.83 C 317.25 306.83 317.44 298.46 316.04 291.18 C 314.65 283.89 311.34 276.05 307.41 270.12 C 303.49 264.18 298.37 259.28 292.48 255.56 C 286.59 251.83 278.96 249.04 272.06 247.76 C 265.16 246.48 257.35 246.15 251.08 247.86 C 244.82 249.57 239.45 254.32 234.47 258.04 C 229.50 261.76 224.45 265.27 221.22 270.18 C 217.99 275.08 215.43 281.86 215.10 287.46 C 214.77 293.06 216.45 298.76 219.24 303.79 C 222.04 308.82 227.12 313.30 231.86 317.63 C 236.60 321.96 242.42 326.76 247.67 329.77 C 252.93 332.77 257.55 335.03 263.41 335.65 C 269.26 336.26 276.46 334.46 282.81 333.46 C 289.15 332.45 295.40 331.33 301.49 329.63 C 307.59 327.94 314.01 325.54 319.39 323.28 C 324.76 321.03 328.83 318.10 333.72 316.09 C 338.60 314.07 344.00 313.17 348.67 311.22 C 353.34 309.26 357.67 306.35 361.76 304.36 C 365.84 302.38 369.28 300.30 373.19 299.32 C 377.11 298.33 381.47 298.40 385.24 298.43 C 389.01 298.46 392.34 298.54 395.82 299.48 C 399.29 300.42 403.00 302.12 406.09 304.06 C 409.17 305.99 411.86 308.62 414.35 311.10 C 416.84 313.59 419.65 316.16 421.02 318.96 C 422.40 321.77 422.07 324.51 422.58 327.92 C 423.09 331.32 424.27 334.93 424.09 339.38 C 423.92 343.82 422.77 349.89 421.51 354.57 C 420.25 359.24 419.17 363.23 416.53 367.42 C 413.90 371.62 409.66 375.64 405.72 379.75 C 401.78 383.87 398.19 388.19 392.89 392.12 C 387.59 396.04 379.65 400.60 373.93 403.28 C 368.21 405.96 364.64 406.89 358.59 408.19 C 352.53 409.49 344.76 410.83 337.59 411.09 C 330.42 411.35 322.71 410.07 315.56 409.74 C 308.42 409.41 301.44 409.48 294.73 409.09 C 288.02 408.69 282.14 408.05 275.30 407.36 C 268.46 406.68 260.36 405.78 253.70 404.98 C 247.05 404.18 241.18 403.48 235.38 402.55 C 229.58 401.62 224.20 400.24 218.92 399.40 C 213.63 398.56 208.47 397.76 203.68 397.52 C 198.89 397.29 194.21 397.64 190.17 397.98 C 186.14 398.31 182.78 398.68 179.48 399.52 C 176.18 400.35 172.82 401.28 170.37 402.99 C 167.92 404.70 166.22 407.22 164.81 409.79 C 163.40 412.36 162.63 415.59 161.91 418.40 C 161.19 421.22 160.44 423.71 160.49 426.70 C 160.55 429.69 161.00 433.13 162.25 436.35 C 163.50 439.57 166.18 442.99 167.99 446.01 C 169.81 449.04 170.04 451.97 173.14 454.50 C 176.24 457.04 182.26 459.60 186.60 461.24 C 190.94 462.87 194.13 463.47 199.18 464.29 C 204.22 465.11 210.90 466.09 216.86 466.15 C 222.82 466.22 228.76 465.63 234.93 464.67 C 241.10 463.70 247.31 463.00 253.86 460.37 C 260.42 457.74 267.85 453.41 274.28 448.88 C 280.72 444.35 286.97 439.36 292.46 433.18 C 297.96 427.00 303.16 419.43 307.26 411.79 C 311.35 404.15 315.11 395.87 317.03 387.34 C 318.95 378.82 319.41 369.08 318.77 360.64 C 318.14 352.19 316.10 344.24 313.21 336.65 C 310.33 329.06 305.99 321.53 301.46 315.10 C 296.92 308.67 291.79 302.70 286.01 298.08 C 280.23 293.46 273.45 290.21 266.76 287.38 C 260.06 284.54 252.29 281.58 245.83 281.08 C 239.38 280.58 233.11 282.13 228.03 284.40 C 222.95 286.67 218.43 290.64 215.35 294.70 C 212.26 298.76 210.50 303.56 209.53 308.76 C 208.56 313.96 208.35 320.62 209.52 325.90 C 210.68 331.19 213.13 336.31 216.52 340.47 C 219.91 344.62 224.76 347.98 229.87 350.82 C 234.97 353.67 241.23 356.40 247.16 357.53 C 253.08 358.66 259.14 358.88 265.40 357.60 C 271.66 356.33 278.61 352.90 284.72 349.89 C 290.82 346.88 296.75 343.81 302.01 339.54 C 307.27 335.28 312.15 330.09 316.29 324.31 C 320.43 318.53 324.30 311.42 326.86 304.86 C 329.42 298.30 330.80 290.96 331.64 284.95 C 332.48 278.94 332.31 274.95 331.91 268.81 C 331.50 262.66 331.12 254.43 329.19 248.07 C 327.27 241.70 323.15 236.48 320.38 230.62 C 317.60 224.76 314.83 218.86 312.53 212.90 C 310.23 206.95 308.21 200.46 306.58 194.88 C 304.94 189.29 303.46 184.59 302.71 179.40 C 301.97 174.20 302.34 168.70 302.12 163.71 C 301.90 158.72 301.47 153.83 301.38 149.45 C 301.29 145.07 300.64 141.07 301.57 137.43 C 302.50 133.79 305.17 130.83 306.97 127.60 C 308.76 124.37 310.40 120.90 312.34 118.03 C 314.29 115.16 316.51 113.12 318.64 110.39 C 320.78 107.65 323.38 104.25 325.17 101.61 C 326.96 98.97 328.16 96.87 329.37 94.54 C 330.58 92.21 331.66 90.21 332.45 87.63 C 333.24 85.05 334.31 82.03 334.11 79.07 C 333.92 76.11 332.75 72.63 331.29 69.87 C 329.83 67.11 328.14 64.85 325.36 62.52 C 322.57 60.20 318.85 57.49 314.60 55.93 C 310.34 54.37 305.09 53.66 299.83 53.18 C 294.56 52.70 289.29 52.20 283.01 53.05 C 276.74 53.90 268.97 55.96 262.17 58.28 C 255.37 60.59 248.88 63.60 242.24 66.92 C 235.60 70.24 228.44 74.14 222.33 78.19 C 216.21 82.25 211.03 86.79 205.56 91.24 C 200.08 95.69 194.87 100.97 189.46 104.89 C 184.06 108.80 178.38 111.58 173.11 114.73 C 167.84 117.88 162.44 121.37 157.83 123.78 C 153.22 126.19 149.25 128.01 145.45 129.18 C 141.65 130.34 138.01 130.91 135.03 130.76 C 132.05 130.60 129.82 129.49 127.56 128.25 C 125.31 127.00 122.94 125.56 121.51 123.29 C 120.09 121.02 119.64 117.53 119.02 114.62 C 118.40 111.72 117.52 109.18 117.81 105.87 C 118.10 102.57 119.91 98.05 120.73 94.81 C 121.56 91.57 121.91 89.16 122.77 86.42 C 123.63 83.68 125.20 80.92 125.89 78.38 C 126.59 75.84 126.91 73.62 126.93 71.19 C 126.96 68.76 126.75 65.61 126.07 63.80 C 125.39 62.00 124.71 60.85 122.83 60.37 C 120.94 59.88 117.65 59.70 114.74 60.89 C 111.84 62.08 108.59 64.13 105.40 67.51 C 102.22 70.89 98.63 75.95 95.63 81.18 C 92.63 86.41 89.41 92.09 87.41 98.89 C 85.42 105.69 84.31 113.88 83.68 121.98 C 83.05 130.07 82.63 139.74 83.63 147.47 C 84.64 155.19 86.62 160.88 89.69 168.31 C 92.77 175.75 96.78 184.76 102.07 192.09 C 107.35 199.42 114.35 206.55 121.38 212.30 C 128.42 218.05 136.28 222.99 144.29 226.60 C 152.29 230.20 161.26 232.16 169.43 233.92 C 177.61 235.68 185.83 237.44 193.35 237.15 C 200.88 236.86 208.06 234.81 214.61 232.18 C 221.16 229.56 227.76 225.37 232.65 221.39 C 237.55 217.42 241.43 212.88 243.96 208.33 C 246.49 203.77 247.33 199.13 247.83 194.06 C 248.34 189.00 248.18 182.62 246.98 177.94 C 245.77 173.26 243.55 169.50 240.62 166.00 C 237.69 162.50 233.67 159.41 229.40 156.94 C 225.13 154.47 220.30 152.12 215.02 151.18 C 209.74 150.25 203.17 150.51 197.73 151.33 C 192.29 152.15 186.95 153.64 182.39 156.11 C 177.83 158.57 174.48 162.29 170.35 166.11 C 166.22 169.93 160.86 173.35 157.63 179.02 C 154.40 184.69 152.05 193.12 150.95 200.14 C 149.85 207.16 150.36 213.87 151.03 221.16 C 151.70 228.45 152.97 236.75 154.98 243.87 C 156.99 250.98 159.18 258.11 163.10 263.85 C 167.02 269.58 173.03 273.99 178.51 278.27 C 183.99 282.55 189.63 287.22 195.96 289.54 C 202.30 291.85 209.47 292.48 216.52 292.18 C 223.57 291.88 231.45 290.39 238.24 287.76 C 245.02 285.13 251.73 280.80 257.24 276.40 C 262.74 271.99 268.01 266.66 271.27 261.32 C 274.53 255.97 276.15 249.95 276.80 244.32 C 277.44 238.69 276.84 232.90 275.14 227.55 C 273.44 222.19 270.54 216.63 266.62 212.19 C 262.70 207.74 256.75 203.96 251.63 200.87 C 246.51 197.77 241.26 195.13 235.89 193.62 C 230.52 192.11 225.00 191.48 219.41 191.82 C 213.81 192.17 207.67 194.30 202.32 195.70 C 196.96 197.11 192.57 199.30 187.29 200.27 C 182.01 201.25 175.90 201.20 170.63 201.54 C 165.36 201.89 160.29 202.42 155.68 202.36 C 151.08 202.30 147.16 202.13 142.99 201.19 C 138.81 200.25 134.26 198.09 130.62 196.74 C 126.98 195.39 124.09 194.91 121.13 193.09 C 118.17 191.26 114.85 188.56 112.88 185.79 C 110.90 183.02 110.39 180.34 109.29 176.48 C 108.18 172.63 105.90 167.25 106.22 162.66 C 106.54 158.08 109.49 153.27 111.22 148.99 C 112.96 144.71 114.32 140.63 116.62 136.98 C 118.92 133.33 121.14 130.38 125.03 127.07 C 128.91 123.76 134.58 120.27 139.91 117.13 C 145.25 113.98 151.15 110.50 157.05 108.21 C 162.94 105.92 168.60 104.59 175.28 103.41 C 181.96 102.23 189.99 101.56 197.12 101.14 C 204.25 100.71 211.21 100.36 218.07 100.84 C 224.93 101.32 231.84 102.24 238.29 104.01 C 244.75 105.78 250.58 108.89 256.80 111.45 C 263.01 114.01 269.36 116.26 275.58 119.36 C 281.81 122.46 288.48 127.00 294.13 130.05 C 299.79 133.10 303.96 135.57 309.50 137.67 C 315.04 139.76 321.96 141.20 327.38 142.62 C 332.81 144.03 337.74 145.60 342.07 146.16 C 346.40 146.71 349.73 146.66 353.35 145.95 C 356.97 145.24 360.99 143.89 363.80 141.92 C 366.60 139.95 368.52 136.56 370.16 134.12 C 371.79 131.68 373.12 130.20 373.62 127.29 C 374.12 124.39 374.33 120.31 373.15 116.70 C 371.98 113.08 369.44 109.18 366.59 105.60 C 363.74 102.02 360.40 98.10 356.05 95.22 C 351.70 92.35 346.17 90.02 340.50 88.33 C 334.82 86.65 328.65 85.22 322.00 85.10 C 315.34 84.99 307.61 85.95 300.57 87.65 C 293.53 89.34 286.64 91.65 279.78 95.26 C 272.91 98.87 265.19 103.68 259.38 109.30 C 253.57 114.91 249.14 121.97 244.91 128.93 C 240.68 135.89 236.41 143.50 234.00 151.05 C 231.58 158.61 230.67 166.24 230.43 174.25 C 230.19 182.26 230.44 191.72 232.54 199.11 C 234.65 206.50 238.89 212.62 243.06 218.60 C 247.23 224.57 252.12 230.45 257.56 234.94 C 263.01 239.44 269.84 243.25 275.71 245.55 C 281.59 247.86 287.02 248.76 292.80 248.76 C 298.59 248.76 304.96 247.23 310.43 245.55 C 315.90 243.88 321.26 241.92 325.62 238.69 C 329.98 235.47 333.57 230.43 336.60 226.21 C 339.64 221.99 342.24 218.15 343.83 213.38 C 345.41 208.62 346.51 203.06 346.12 197.61 C 345.74 192.17 343.45 186.24 341.50 180.73 C 339.55 175.21 337.53 169.38 334.42 164.52 C 331.31 159.67 327.26 155.41 322.84 151.61 C 318.41 147.80 312.51 144.82 307.86 141.68 C 303.20 138.55 299.65 135.67 294.91 132.80 C 290.17 129.93 283.87 126.90 279.44 124.46 C 275.01 122.03 272.52 121.49 268.34 118.18 C 264.16 114.87 256.69 106.88 254.36 104.62" fill="none" stroke="#fff" stroke-width="4.48" stroke-opacity="1" stroke-linecap="round" stroke-linejoin="round"/>
  </g>
</svg>