<?xml version="1.0" encoding="UTF-8"?>
<svg xmlns="http://www.w3.org/2000/svg" width="512" height="512" viewBox="0 0 512 512">
  <rect width="100%" height="100%" fill="#000"/>
  <g>
    <path d="M 256.00 256.00 C 253.50 256.70 246.13 257.84 241.02 260.22 C 235.90 262.60 229.80 266.52 225.29 270.28 C 220.79 274.04 217.14 278.24 213.99 282.78 C 210.84 287.32 208.00 292.49 206.38 297.55 C 204.76 302.61 203.88 307.93 204.27 313.15 C 204.67 318.37 206.47 323.99 208.73 328.86 C 210.99 333.73 213.90 338.56 217.85 342.36 C 221.80 346.17 227.16 349.40 232.43 351.67 C 237.71 353.95 243.42 355.53 249.48 356.01 C 255.54 356.50 262.49 356.03 268.78 354.57 C 275.07 353.12 281.42 350.38 287.22 347.27 C 293.02 344.17 298.85 340.72 303.57 335.94 C 308.30 331.16 312.66 324.14 315.57 318.61 C 318.48 313.08 319.80 308.91 321.03 302.75 C 322.25 296.59 323.34 288.55 322.91 281.66 C 322.48 274.77 320.90 267.86 318.46 261.41 C 316.01 254.95 312.59 248.33 308.26 242.94 C 303.93 237.54 298.14 232.74 292.50 229.02 C 286.86 225.29 280.76 222.05 274.42 220.58 C 268.07 219.10 260.92 219.28 254.43 220.17 C 247.95 221.05 241.36 223.22 235.50 225.89 C 229.64 228.55 224.21 232.13 219.30 236.16 C 214.38 240.19 209.87 245.36 206.00 250.08 C 202.12 254.80 198.99 259.49 196.06 264.47 C 193.13 269.45 190.71 274.91 188.43 279.97 C 186.15 285.04 184.04 290.44 182.37 294.86 C 180.70 299.29 179.95 302.20 178.40 306.52 C 176.85 310.84 174.83 316.23 173.09 320.78 C 171.35 325.33 169.62 329.76 167.98 333.83 C 166.34 337.91 165.17 341.74 163.23 345.23 C 161.30 348.71 158.95 352.05 156.38 354.74 C 153.81 357.43 150.67 359.28 147.82 361.37 C 144.96 363.46 141.85 365.18 139.25 367.26 C 136.65 369.33 134.31 371.52 132.24 373.83 C 130.16 376.14 128.49 378.81 126.78 381.10 C 125.06 383.38 123.21 385.13 121.93 387.54 C 120.66 389.95 119.46 392.81 119.15 395.57 C 118.84 398.33 119.39 401.08 120.07 404.09 C 120.76 407.11 121.73 410.81 123.28 413.66 C 124.84 416.51 126.68 418.48 129.39 421.20 C 132.10 423.92 135.54 427.20 139.54 429.99 C 143.54 432.77 148.50 435.57 153.40 437.90 C 158.30 440.24 163.73 442.09 168.93 443.97 C 174.13 445.85 179.56 447.67 184.58 449.19 C 189.60 450.71 194.36 451.66 199.06 453.12 C 203.75 454.58 208.36 456.33 212.75 457.94 C 217.14 459.56 221.46 461.23 225.38 462.81 C 229.31 464.39 233.22 465.71 236.30 467.41 C 239.38 469.11 241.93 471.09 243.87 473.01 C 245.81 474.93 247.08 476.97 247.93 478.92 C 248.77 480.88 249.14 482.99 248.96 484.74 C 248.78 486.50 247.80 488.04 246.86 489.44 C 245.92 490.84 244.69 491.80 243.33 493.14 C 241.98 494.48 240.33 496.10 238.73 497.50 C 237.13 498.91 235.05 500.15 233.74 501.57 C 232.43 503.00 231.52 504.65 230.86 506.06 C 230.20 507.47 229.65 511.46 229.76 510.02 C 229.87 508.58 231.23 505.11 231.53 497.41 C 231.82 489.72 231.43 474.68 231.53 463.83 C 231.62 452.98 231.81 442.50 232.12 432.30 C 232.43 422.10 232.76 412.35 233.40 402.64 C 234.05 392.93 234.68 383.16 235.99 374.04 C 237.29 364.93 239.18 356.27 241.22 347.94 C 243.25 339.60 245.46 331.57 248.21 324.03 C 250.96 316.48 254.59 308.77 257.72 302.68 C 260.86 296.60 263.33 292.68 267.04 287.51 C 270.76 282.35 275.45 276.36 280.01 271.67 C 284.56 266.98 289.40 262.71 294.36 259.39 C 299.32 256.08 304.70 253.92 309.77 251.78 C 314.83 249.65 319.83 247.66 324.77 246.59 C 329.70 245.52 334.43 245.11 339.35 245.33 C 344.26 245.56 349.62 246.57 354.25 247.93 C 358.89 249.29 363.18 251.37 367.15 253.52 C 371.11 255.66 374.52 258.25 378.04 260.80 C 381.55 263.35 384.79 266.53 388.21 268.83 C 391.64 271.13 395.16 273.17 398.56 274.59 C 401.95 276.02 405.28 276.81 408.59 277.40 C 411.89 277.99 415.48 278.25 418.40 278.13 C 421.31 278.02 423.37 277.78 426.06 276.71 C 428.76 275.65 432.05 274.04 434.57 271.76 C 437.08 269.48 439.43 266.66 441.13 263.04 C 442.82 259.43 444.21 254.81 444.72 250.07 C 445.24 245.32 445.00 239.90 444.22 234.56 C 443.43 229.22 441.99 223.55 440.00 218.03 C 438.01 212.51 435.25 206.86 432.29 201.45 C 429.32 196.04 425.79 190.65 422.23 185.56 C 418.67 180.46 414.66 175.75 410.92 170.88 C 407.19 166.01 403.45 161.01 399.83 156.34 C 396.22 151.67 392.71 147.11 389.21 142.84 C 385.72 138.57 382.36 134.71 378.88 130.74 C 375.41 126.77 371.32 122.35 368.35 119.02 C 365.38 115.68 363.55 113.82 361.08 110.71 C 358.61 107.60 355.85 103.78 353.52 100.37 C 351.18 96.96 348.86 93.47 347.09 90.23 C 345.31 86.98 343.89 83.84 342.87 80.92 C 341.85 77.99 341.27 75.30 340.98 72.66 C 340.69 70.03 340.49 67.35 341.14 65.11 C 341.78 62.86 343.15 60.78 344.84 59.21 C 346.53 57.64 348.99 56.67 351.27 55.68 C 353.56 54.69 355.81 53.70 358.54 53.27 C 361.27 52.84 364.44 52.78 367.65 53.12 C 370.86 53.45 374.38 54.09 377.78 55.29 C 381.17 56.49 384.58 58.37 388.00 60.33 C 391.42 62.29 395.10 64.67 398.30 67.04 C 401.50 69.41 403.92 71.26 407.20 74.55 C 410.48 77.85 414.64 82.23 417.98 86.80 C 421.32 91.37 424.70 96.35 427.22 101.98 C 429.74 107.60 431.69 113.92 433.12 120.56 C 434.56 127.19 435.52 134.31 435.83 141.81 C 436.13 149.32 435.97 157.68 434.96 165.59 C 433.95 173.50 432.37 181.41 429.75 189.27 C 427.12 197.14 423.48 205.40 419.22 212.79 C 414.96 220.18 409.74 227.17 404.16 233.61 C 398.59 240.05 392.35 246.17 385.78 251.42 C 379.22 256.66 372.22 261.23 364.79 265.07 C 357.36 268.91 348.98 272.16 341.20 274.48 C 333.43 276.79 325.04 278.34 318.13 278.97 C 311.21 279.61 306.33 279.47 299.71 278.30 C 293.08 277.13 284.92 274.69 278.37 271.94 C 271.82 269.19 265.75 265.68 260.39 261.79 C 255.03 257.90 250.17 253.44 246.20 248.61 C 242.23 243.78 238.69 238.36 236.56 232.82 C 234.44 227.28 233.40 221.13 233.43 215.35 C 233.47 209.58 234.68 203.30 236.78 198.18 C 238.87 193.05 242.21 188.60 245.97 184.59 C 249.74 180.59 254.55 176.82 259.35 174.13 C 264.16 171.45 269.43 169.50 274.80 168.50 C 280.18 167.51 285.96 167.66 291.59 168.16 C 297.22 168.66 303.10 169.92 308.59 171.52 C 314.07 173.13 319.88 175.40 324.50 177.78 C 329.13 180.16 332.41 182.16 336.33 185.82 C 340.25 189.49 344.39 194.85 348.02 199.77 C 351.65 204.69 355.03 210.14 358.09 215.32 C 361.15 220.50 364.39 225.35 366.36 230.84 C 368.33 236.33 369.28 242.40 369.92 248.28 C 370.55 254.17 370.89 260.15 370.17 266.15 C 369.45 272.14 368.00 278.29 365.61 284.25 C 363.23 290.20 359.94 296.66 355.86 301.88 C 351.79 307.10 346.62 311.50 341.15 315.57 C 335.67 319.64 329.37 323.47 323.01 326.29 C 316.64 329.12 309.86 331.30 302.95 332.52 C 296.05 333.74 288.69 334.19 281.59 333.62 C 274.49 333.04 266.46 331.00 260.35 329.07 C 254.25 327.15 250.22 325.52 244.96 322.07 C 239.71 318.62 233.32 313.61 228.82 308.36 C 224.31 303.11 220.73 296.78 217.92 290.58 C 215.11 284.37 213.53 277.60 211.95 271.12 C 210.36 264.65 209.35 258.08 208.41 251.74 C 207.46 245.40 206.81 239.10 206.29 233.11 C 205.76 227.12 205.60 221.44 205.26 215.80 C 204.91 210.17 204.53 204.66 204.21 199.27 C 203.88 193.88 203.55 188.52 203.31 183.47 C 203.07 178.43 203.51 173.53 202.79 169.00 C 202.07 164.47 200.41 160.38 199.00 156.27 C 197.59 152.16 196.10 147.97 194.32 144.36 C 192.54 140.76 190.15 137.43 188.32 134.62 C 186.49 131.82 185.24 130.05 183.32 127.53 C 181.40 125.01 178.71 122.22 176.80 119.50 C 174.89 116.78 173.04 114.02 171.87 111.20 C 170.71 108.37 169.89 105.60 169.82 102.54 C 169.76 99.49 170.31 96.09 171.47 92.86 C 172.64 89.62 174.31 86.13 176.83 83.14 C 179.34 80.15 182.99 77.42 186.57 74.91 C 190.15 72.41 193.67 69.79 198.31 68.12 C 202.95 66.44 208.72 65.33 214.39 64.86 C 220.05 64.39 225.98 64.47 232.32 65.29 C 238.65 66.11 245.85 67.44 252.41 69.77 C 258.98 72.09 265.54 75.33 271.71 79.25 C 277.87 83.17 284.44 88.46 289.39 93.29 C 294.35 98.11 297.48 102.06 301.44 108.19 C 305.41 114.33 310.02 122.43 313.17 130.11 C 316.32 137.78 318.69 146.21 320.35 154.24 C 322.00 162.26 323.04 170.27 323.09 178.26 C 323.14 186.24 322.27 194.38 320.63 202.13 C 318.99 209.88 316.64 217.80 313.28 224.75 C 309.91 231.70 305.01 238.03 300.43 243.82 C 295.86 249.62 291.00 254.91 285.82 259.54 C 280.64 264.17 274.68 267.80 269.34 271.60 C 264.00 275.40 259.02 279.07 253.79 282.34 C 248.55 285.62 243.09 288.61 237.93 291.27 C 232.77 293.93 227.87 295.89 222.83 298.28 C 217.78 300.67 212.09 303.33 207.68 305.59 C 203.27 307.86 200.29 309.46 196.39 311.88 C 192.49 314.29 188.05 317.33 184.27 320.09 C 180.48 322.84 176.98 325.55 173.68 328.40 C 170.39 331.25 167.11 334.06 164.51 337.18 C 161.91 340.31 160.16 343.98 158.09 347.16 C 156.01 350.33 153.96 353.12 152.04 356.26 C 150.12 359.40 148.26 362.95 146.58 366.02 C 144.90 369.09 143.75 372.11 141.96 374.70 C 140.18 377.29 138.01 379.66 135.90 381.57 C 133.78 383.49 131.71 384.93 129.27 386.18 C 126.83 387.44 124.16 388.73 121.26 389.10 C 118.36 389.47 115.20 389.20 111.89 388.40 C 108.59 387.60 104.52 386.01 101.42 384.31 C 98.32 382.61 96.09 381.07 93.27 378.22 C 90.46 375.37 87.25 371.42 84.55 367.22 C 81.84 363.02 79.06 358.29 77.05 353.04 C 75.05 347.79 73.37 341.99 72.51 335.71 C 71.65 329.44 71.42 322.25 71.91 315.40 C 72.40 308.55 73.66 301.59 75.44 294.63 C 77.22 287.66 79.52 280.49 82.59 273.61 C 85.65 266.73 89.40 259.77 93.84 253.34 C 98.27 246.92 103.59 240.76 109.20 235.06 C 114.82 229.36 121.12 223.96 127.52 219.15 C 133.93 214.34 140.62 209.69 147.63 206.19 C 154.64 202.69 161.94 199.91 169.58 198.17 C 177.21 196.43 186.38 195.70 193.45 195.74 C 200.52 195.78 205.23 196.84 212.00 198.43 C 218.78 200.02 227.20 202.28 234.10 205.30 C 241.00 208.31 247.87 212.04 253.41 216.52 C 258.95 220.99 263.46 226.58 267.35 232.16 C 271.23 237.74 274.69 243.80 276.72 250.00 C 278.74 256.19 279.54 262.94 279.49 269.31 C 279.44 275.67 278.42 282.53 276.42 288.19 C 274.42 293.84 271.29 298.93 267.48 303.25 C 263.66 307.56 258.78 311.45 253.53 314.06 C 248.27 316.68 241.77 318.18 235.96 318.95 C 230.14 319.73 224.33 319.56 218.63 318.70 C 212.93 317.83 207.20 315.86 201.76 313.75 C 196.32 311.65 190.55 308.57 185.98 306.04 C 181.40 303.51 178.40 301.55 174.29 298.58 C 170.18 295.62 165.33 291.75 161.31 288.25 C 157.29 284.75 153.86 281.03 150.16 277.57 C 146.45 274.12 142.75 270.41 139.07 267.52 C 135.40 264.62 131.86 262.26 128.11 260.20 C 124.37 258.14 120.24 256.43 116.59 255.17 C 112.95 253.90 109.67 253.10 106.25 252.63 C 102.83 252.16 99.44 252.42 96.10 252.34 C 92.76 252.26 89.36 252.16 86.20 252.15 C 83.04 252.13 80.13 252.50 77.14 252.24 C 74.16 251.98 71.13 251.28 68.29 250.61 C 65.44 249.93 62.56 249.29 60.07 248.18 C 57.58 247.07 55.17 245.56 53.34 243.94 C 51.52 242.31 50.29 240.99 49.12 238.43 C 47.94 235.87 46.78 232.34 46.29 228.57 C 45.80 224.81 45.82 220.30 46.17 215.84 C 46.53 211.38 47.00 206.63 48.41 201.82 C 49.81 197.01 52.18 191.85 54.62 186.98 C 57.06 182.10 59.93 177.42 63.06 172.59 C 66.19 167.76 69.84 162.70 73.40 158.00 C 76.95 153.29 80.84 148.64 84.40 144.35 C 87.96 140.07 91.62 136.32 94.76 132.31 C 97.90 128.30 100.71 124.09 103.25 120.32 C 105.79 116.54 108.13 113.06 109.99 109.66 C 111.85 106.27 113.57 103.01 114.41 99.94 C 115.26 96.86 115.15 93.55 115.05 91.21 C 114.96 88.88 114.73 87.55 113.85 85.93 C 112.96 84.32 111.29 82.53 109.72 81.52 C 108.15 80.51 106.26 80.24 104.41 79.86 C 102.56 79.48 100.49 79.61 98.63 79.23 C 96.78 78.86 95.13 77.99 93.28 77.61 C 91.43 77.24 89.26 77.43 87.52 77.00 C 85.78 76.57 84.22 75.79 82.84 75.04 C 81.45 74.30 80.07 73.50 79.21 72.53 C 78.34 71.57 77.87 70.67 77.64 69.27 C 77.41 67.87 77.16 66.01 77.81 64.14 C 78.46 62.27 79.78 60.28 81.55 58.05 C 83.32 55.81 85.57 53.08 88.42 50.72 C 91.26 48.37 95.29 45.94 98.62 43.91 C 101.94 41.87 104.60 40.33 108.35 38.51 C 112.10 36.68 117.00 34.80 121.12 32.95 C 125.25 31.10 129.06 29.15 133.10 27.41 C 137.15 25.67 141.51 24.17 145.39 22.51 C 149.27 20.85 153.13 19.04 156.39 17.44 C 159.64 15.84 162.05 14.42 164.92 12.89 C 167.78 11.36 171.23 9.71 173.56 8.25 C 175.89 6.79 177.49 5.48 178.89 4.14 C 180.29 2.79 180.76 -4.96 181.96 0.16 C 183.17 5.27 184.17 23.68 186.12 34.84 C 188.06 46.00 190.87 56.71 193.65 67.11 C 196.44 77.52 199.15 87.87 202.83 97.27 C 206.50 106.67 211.55 115.96 215.70 123.50 C 219.84 131.04 222.87 136.14 227.68 142.50 C 232.48 148.85 238.81 156.00 244.54 161.64 C 250.26 167.28 256.12 172.20 262.01 176.36 C 267.90 180.51 273.96 183.72 279.89 186.56 C 285.82 189.39 291.90 191.76 297.58 193.37 C 303.26 194.97 308.63 195.90 313.98 196.17 C 319.32 196.44 324.84 195.77 329.67 194.99 C 334.49 194.21 338.74 192.78 342.93 191.48 C 347.12 190.17 350.95 188.39 354.80 187.17 C 358.66 185.95 362.23 184.94 366.04 184.15 C 369.85 183.37 373.81 182.53 377.65 182.48 C 381.48 182.44 385.22 182.90 389.04 183.90 C 392.86 184.91 397.34 186.88 400.59 188.51 C 403.83 190.14 405.71 191.15 408.50 193.70 C 411.29 196.24 414.93 199.71 417.33 203.78 C 419.72 207.84 421.53 213.03 422.90 218.09 C 424.26 223.16 425.46 228.37 425.53 234.16 C 425.60 239.94 424.73 246.47 423.33 252.80 C 421.93 259.14 420.22 265.99 417.11 272.17 C 414.01 278.35 409.72 284.48 404.69 289.87 C 399.66 295.26 393.33 300.17 386.91 304.49 C 380.50 308.81 373.48 312.99 366.20 315.79 C 358.93 318.58 351.07 320.27 343.27 321.26 C 335.46 322.25 327.12 322.59 319.39 321.73 C 311.67 320.87 304.02 319.01 296.91 316.12 C 289.80 313.22 282.23 308.48 276.73 304.35 C 271.23 300.22 267.82 296.49 263.90 291.32 C 259.99 286.16 256.08 279.62 253.24 273.34 C 250.40 267.06 248.55 259.99 246.88 253.64 C 245.20 247.28 244.23 241.19 243.20 235.19 C 242.16 229.18 241.51 223.28 240.68 217.59 C 239.84 211.89 239.19 206.32 238.16 201.03 C 237.13 195.74 236.04 190.58 234.49 185.86 C 232.95 181.13 231.24 176.88 228.91 172.67 C 226.59 168.45 223.80 164.04 220.55 160.58 C 217.31 157.12 213.30 154.29 209.43 151.91 C 205.56 149.53 201.69 147.43 197.34 146.31 C 193.00 145.19 188.10 144.82 183.35 145.20 C 178.61 145.58 173.65 146.82 168.86 148.57 C 164.06 150.33 158.62 153.18 154.59 155.71 C 150.55 158.25 148.03 160.00 144.63 163.79 C 141.24 167.58 137.04 173.11 134.22 178.47 C 131.39 183.84 129.28 189.80 127.68 195.97 C 126.07 202.13 125.02 208.91 124.58 215.46 C 124.15 222.01 124.16 228.56 125.09 235.26 C 126.02 241.96 127.70 249.06 130.16 255.66 C 132.61 262.26 136.10 268.76 139.82 274.87 C 143.53 280.98 147.55 287.03 152.44 292.30 C 157.33 297.57 163.14 302.51 169.14 306.51 C 175.14 310.51 181.87 313.52 188.45 316.32 C 195.03 319.12 201.70 321.82 208.61 323.31 C 215.53 324.79 222.99 325.32 229.95 325.21 C 236.90 325.10 244.36 323.92 250.36 322.66 C 256.36 321.39 260.49 320.04 265.93 317.61 C 271.38 315.18 277.67 311.74 283.03 308.09 C 288.39 304.44 293.68 300.26 298.10 295.70 C 302.52 291.14 306.22 285.96 309.55 280.73 C 312.87 275.49 315.84 269.99 318.06 264.28 C 320.29 258.58 322.21 252.44 322.91 246.50 C 323.60 240.55 323.33 234.50 322.24 228.60 C 321.15 222.71 318.96 216.56 316.37 211.12 C 313.78 205.67 310.48 200.59 306.68 195.93 C 302.88 191.26 298.43 186.77 293.57 183.10 C 288.71 179.43 283.33 176.00 277.51 173.89 C 271.69 171.78 264.99 170.66 258.65 170.44 C 252.30 170.21 245.07 171.02 239.44 172.54 C 233.81 174.06 229.87 176.10 224.84 179.55 C 219.82 182.99 213.84 188.15 209.28 193.20 C 204.72 198.24 200.48 203.81 197.48 209.82 C 194.49 215.83 192.35 222.63 191.31 229.27 C 190.27 235.90 190.24 242.93 191.25 249.62 C 192.25 256.32 194.60 263.35 197.35 269.43 C 200.09 275.51 203.71 280.93 207.73 286.11 C 211.75 291.29 216.42 296.40 221.45 300.50 C 226.49 304.59 232.16 307.96 237.93 310.65 C 243.69 313.34 249.94 315.50 256.04 316.65 C 262.14 317.80 268.41 318.00 274.54 317.55 C 280.66 317.11 287.08 315.88 292.79 313.97 C 298.51 312.06 304.28 308.92 308.80 306.08 C 313.33 303.23 316.20 300.82 319.95 296.92 C 323.70 293.02 328.13 287.81 331.31 282.68 C 334.50 277.55 337.00 271.77 339.06 266.13 C 341.13 260.49 342.89 254.72 343.70 248.84 C 344.51 242.96 344.32 236.77 343.92 230.83 C 343.52 224.90 342.91 218.95 341.28 213.24 C 339.66 207.54 337.18 201.88 334.19 196.61 C 331.20 191.34 327.54 186.12 323.35 181.63 C 319.16 177.15 314.13 173.12 309.06 169.70 C 304.00 166.28 298.70 163.29 292.94 161.12 C 287.19 158.94 280.84 157.37 274.55 156.65 C 268.26 155.92 261.61 155.85 255.18 156.77 C 248.76 157.69 241.55 160.10 235.98 162.18 C 230.41 164.26 226.78 165.95 221.74 169.23 C 216.71 172.51 210.42 177.11 205.76 181.87 C 201.09 186.63 197.03 191.92 193.74 197.77 C 190.46 203.62 187.77 210.43 186.03 216.98 C 184.30 223.53 183.45 230.41 183.32 237.07 C 183.20 243.73 183.52 250.38 185.30 256.95 C 187.08 263.52 190.28 270.63 194.00 276.48 C 197.73 282.33 202.50 287.60 207.65 292.04 C 212.80 296.48 219.02 299.93 224.91 303.11 C 230.80 306.29 236.96 308.97 242.97 311.11 C 248.99 313.24 255.07 314.58 261.00 315.91 C 266.93 317.24 272.84 318.04 278.57 319.09 C 284.30 320.13 290.54 321.14 295.37 322.17 C 300.19 323.19 303.15 324.06 307.54 325.23 C 311.92 326.41 317.26 327.57 321.67 329.24 C 326.08 330.90 330.23 333.02 333.98 335.23 C 337.73 337.45 340.99 339.95 344.18 342.52 C 347.37 345.10 350.73 347.75 353.13 350.68 C 355.53 353.61 356.95 356.85 358.60 360.10 C 360.25 363.34 361.61 366.86 363.02 370.13 C 364.44 373.40 365.76 376.54 367.09 379.73 C 368.42 382.92 369.89 386.22 370.98 389.25 C 372.07 392.28 372.56 395.30 373.61 397.92 C 374.67 400.55 375.99 402.84 377.30 405.01 C 378.60 407.17 379.91 409.11 381.46 410.91 C 383.00 412.72 384.98 414.40 386.58 415.83 C 388.17 417.26 389.05 418.59 391.02 419.50 C 392.99 420.40 395.71 421.05 398.39 421.28 C 401.07 421.50 404.18 421.28 407.10 420.87 C 410.03 420.45 413.06 419.57 415.95 418.78 C 418.84 417.99 421.69 417.02 424.45 416.11 C 427.20 415.20 429.81 414.14 432.46 413.31 C 435.11 412.49 437.99 411.63 440.33 411.18 C 442.67 410.74 444.69 410.43 446.50 410.62 C 448.30 410.81 450.11 411.46 451.15 412.32 C 452.18 413.17 452.48 414.15 452.70 415.74 C 452.92 417.34 452.99 419.74 452.46 421.90 C 451.92 424.07 450.99 426.30 449.50 428.73 C 448.01 431.15 445.66 434.11 443.52 436.45 C 441.37 438.80 439.38 440.32 436.64 442.79 C 433.89 445.25 430.49 448.58 427.04 451.23 C 423.59 453.89 419.83 456.38 415.96 458.72 C 412.08 461.06 407.47 463.02 403.80 465.27 C 400.12 467.52 396.90 470.06 393.92 472.21 C 390.93 474.37 388.12 476.21 385.89 478.18 C 383.66 480.14 382.17 482.21 380.56 484.00 C 378.94 485.79 377.10 487.46 376.21 488.92 C 375.32 490.37 374.95 491.77 375.22 492.74 C 375.50 493.72 376.55 494.46 377.85 494.76 C 379.15 495.07 381.18 494.75 383.01 494.57 C 384.85 494.39 386.83 494.04 388.84 493.70 C 390.86 493.36 393.36 492.83 395.12 492.53 C 396.87 492.23 398.04 492.02 399.36 491.89 C 400.68 491.75 402.03 491.45 403.04 491.70 C 404.05 491.96 405.03 492.67 405.43 493.43 C 405.83 494.19 405.95 495.13 405.46 496.29 C 404.97 497.45 403.86 498.96 402.50 500.39 C 401.14 501.83 399.54 503.43 397.31 504.91 C 395.08 506.38 392.45 509.26 389.12 509.24 C 385.78 509.21 380.82 511.24 377.31 504.78 C 373.80 498.32 370.88 481.56 368.07 470.48 C 365.25 459.40 362.67 448.70 360.42 438.30 C 358.16 427.90 356.40 417.82 354.56 408.08 C 352.72 398.34 351.24 389.01 349.40 379.84 C 347.56 370.67 345.67 360.86 343.52 353.04 C 341.37 345.23 339.22 340.14 336.49 332.95 C 333.77 325.75 330.84 317.15 327.15 309.87 C 323.47 302.60 319.27 295.49 314.39 289.29 C 309.51 283.08 303.71 277.15 297.87 272.65 C 292.03 268.15 285.71 264.96 279.36 262.27 C 273.02 259.59 266.29 257.42 259.80 256.56 C 253.31 255.70 246.56 255.87 240.42 257.10 C 234.28 258.32 227.89 260.76 222.96 263.91 C 218.03 267.06 213.83 271.41 210.83 275.99 C 207.82 280.58 206.01 286.05 204.95 291.41 C 203.89 296.77 203.64 302.66 204.47 308.15 C 205.30 313.64 207.07 319.49 209.91 324.36 C 212.76 329.22 217.52 334.09 221.54 337.35 C 225.56 340.60 228.76 342.32 234.04 343.88 C 239.31 345.45 246.79 346.69 253.20 346.72 C 259.60 346.76 266.22 345.72 272.45 344.10 C 278.69 342.48 284.90 339.96 290.61 337.01 C 296.32 334.05 301.65 330.28 306.72 326.38 C 311.78 322.49 316.45 317.98 321.00 313.64 C 325.55 309.29 329.91 304.78 334.01 300.30 C 338.12 295.82 341.93 291.02 345.64 286.76 C 349.36 282.49 352.71 278.42 356.30 274.71 C 359.90 271.00 363.52 267.40 367.19 264.49 C 370.86 261.58 374.58 259.20 378.32 257.25 C 382.05 255.30 385.86 253.76 389.60 252.78 C 393.34 251.81 397.55 251.44 400.77 251.40 C 404.00 251.36 405.97 251.67 408.95 252.53 C 411.94 253.38 415.79 254.48 418.70 256.51 C 421.60 258.54 424.22 261.42 426.38 264.70 C 428.53 267.99 430.62 271.92 431.60 276.22 C 432.59 280.52 432.88 285.47 432.29 290.51 C 431.70 295.56 430.38 301.24 428.05 306.48 C 425.73 311.73 422.25 316.96 418.33 321.99 C 414.40 327.02 409.86 332.35 404.51 336.68 C 399.15 341.01 392.74 344.62 386.20 347.94 C 379.65 351.27 372.50 354.35 365.24 356.63 C 357.98 358.91 350.11 360.43 342.62 361.60 C 335.13 362.78 327.81 363.32 320.29 363.69 C 312.77 364.06 304.14 364.11 297.52 363.81 C 290.89 363.51 286.70 362.70 280.54 361.90 C 274.37 361.11 267.09 360.11 260.53 359.04 C 253.97 357.97 247.54 356.52 241.15 355.46 C 234.77 354.40 228.19 353.44 222.24 352.68 C 216.29 351.92 210.88 351.24 205.46 350.89 C 200.05 350.55 194.73 350.43 189.74 350.62 C 184.75 350.81 180.09 351.54 175.52 352.04 C 170.96 352.53 166.48 353.06 162.35 353.59 C 158.22 354.11 154.63 354.79 150.74 355.18 C 146.85 355.57 142.78 355.76 139.01 355.94 C 135.25 356.12 131.84 356.46 128.17 356.26 C 124.49 356.07 120.63 355.74 116.99 354.74 C 113.35 353.75 109.47 351.87 106.30 350.31 C 103.14 348.76 100.92 347.86 97.99 345.42 C 95.05 342.97 91.52 339.42 88.70 335.64 C 85.89 331.85 83.07 327.53 81.09 322.71 C 79.12 317.90 77.66 312.63 76.84 306.76 C 76.02 300.90 75.79 294.00 76.18 287.50 C 76.57 281.01 77.88 274.26 79.18 267.79 C 80.48 261.32 82.18 254.97 83.98 248.67 C 85.79 242.37 87.95 235.98 90.00 230.00 C 92.05 224.02 94.48 218.35 96.29 212.79 C 98.10 207.22 99.61 201.70 100.86 196.60 C 102.11 191.50 103.22 186.78 103.79 182.18 C 104.36 177.58 104.52 172.96 104.27 169.02 C 104.02 165.08 103.17 161.24 102.29 158.53 C 101.42 155.82 100.66 154.41 99.03 152.75 C 97.40 151.09 95.10 148.86 92.51 148.58 C 89.92 148.30 86.50 149.55 83.50 151.05 C 80.50 152.56 77.42 155.06 74.52 157.62 C 71.61 160.18 68.77 163.16 66.07 166.39 C 63.36 169.63 60.65 173.60 58.29 177.03 C 55.94 180.45 53.91 183.38 51.96 186.95 C 50.01 190.53 48.45 194.72 46.58 198.48 C 44.71 202.24 42.63 206.26 40.75 209.50 C 38.86 212.73 36.96 215.20 35.27 217.91 C 33.59 220.62 32.29 223.40 30.64 225.76 C 28.98 228.13 27.12 230.53 25.34 232.08 C 23.57 233.63 21.61 234.23 19.98 235.05 C 18.34 235.87 17.08 236.32 15.52 236.99 C 13.96 237.66 12.16 238.58 10.60 239.09 C 9.04 239.61 7.55 239.58 6.14 240.07 C 4.74 240.56 0.80 241.16 2.18 242.04 C 3.56 242.91 6.74 244.41 14.41 245.33 C 22.08 246.25 37.32 246.71 48.21 247.56 C 59.10 248.41 69.50 249.28 79.75 250.42 C 90.00 251.56 100.07 253.01 109.72 254.41 C 119.36 255.80 128.61 257.22 137.62 258.78 C 146.63 260.34 155.55 261.82 163.79 263.76 C 172.03 265.70 179.62 268.18 187.07 270.45 C 194.52 272.72 201.52 275.18 208.51 277.37 C 215.49 279.55 222.96 281.77 228.99 283.57 C 235.02 285.36 238.93 286.84 244.71 288.16 C 250.49 289.48 257.48 290.38 263.68 291.48 C 269.89 292.58 276.00 294.21 281.94 294.75 C 287.87 295.29 293.56 295.07 299.29 294.70 C 305.01 294.33 310.90 293.93 316.27 292.53 C 321.64 291.14 326.66 288.75 331.50 286.32 C 336.34 283.89 341.10 281.18 345.29 277.95 C 349.48 274.72 353.22 270.92 356.65 266.94 C 360.07 262.95 363.00 258.29 365.82 254.04 C 368.65 249.80 371.08 245.51 373.58 241.46 C 376.09 237.41 378.48 233.56 380.84 229.76 C 383.20 225.95 385.35 222.03 387.75 218.64 C 390.15 215.25 392.99 212.03 395.25 209.41 C 397.50 206.80 398.85 204.90 401.29 202.95 C 403.74 200.99 406.96 198.86 409.91 197.67 C 412.86 196.49 415.94 195.77 418.98 195.85 C 422.02 195.93 425.18 196.74 428.13 198.13 C 431.08 199.52 433.98 201.72 436.67 204.18 C 439.36 206.65 442.07 209.60 444.26 212.92 C 446.45 216.24 448.37 219.83 449.82 224.12 C 451.26 228.40 452.44 233.50 452.94 238.62 C 453.45 243.73 453.78 249.03 452.84 254.81 C 451.91 260.59 449.87 267.17 447.34 273.29 C 444.82 279.42 441.67 285.72 437.71 291.55 C 433.75 297.39 429.07 303.17 423.58 308.29 C 418.10 313.41 410.72 318.46 404.79 322.29 C 398.85 326.12 394.56 328.45 387.99 331.26 C 381.43 334.08 373.21 337.45 365.39 339.19 C 357.57 340.93 349.17 341.68 341.07 341.71 C 332.97 341.73 324.64 340.93 316.80 339.34 C 308.96 337.76 301.09 335.49 294.04 332.18 C 286.98 328.87 280.42 324.25 274.48 319.49 C 268.53 314.73 262.76 309.43 258.35 303.62 C 253.93 297.80 250.38 291.17 248.00 284.59 C 245.62 278.01 244.37 270.94 244.05 264.16 C 243.72 257.38 244.32 250.13 246.06 243.93 C 247.80 237.72 250.94 231.83 254.46 226.94 C 257.98 222.04 262.43 217.83 267.19 214.55 C 271.96 211.27 278.26 209.08 283.03 207.27 C 287.79 205.45 290.94 204.46 295.77 203.67 C 300.60 202.87 306.74 202.71 312.03 202.48 C 317.31 202.25 322.42 202.10 327.48 202.30 C 332.54 202.51 337.52 203.02 342.40 203.71 C 347.27 204.40 352.15 205.59 356.71 206.46 C 361.26 207.33 365.45 208.42 369.70 208.93 C 373.95 209.44 378.32 209.40 382.19 209.50 C 386.07 209.60 389.54 210.10 392.96 209.55 C 396.38 208.99 399.59 207.58 402.70 206.15 C 405.82 204.71 408.98 202.93 411.66 200.93 C 414.33 198.93 416.74 196.67 418.74 194.16 C 420.73 191.64 422.36 188.89 423.63 185.84 C 424.89 182.78 425.71 178.99 426.32 175.83 C 426.93 172.67 427.52 170.46 427.29 166.90 C 427.06 163.34 426.24 158.66 424.94 154.48 C 423.63 150.30 421.73 145.95 419.46 141.83 C 417.20 137.72 414.47 133.74 411.35 129.78 C 408.24 125.82 404.82 121.80 400.78 118.09 C 396.74 114.38 392.15 110.74 387.13 107.52 C 382.11 104.30 376.48 101.17 370.66 98.76 C 364.83 96.34 358.44 94.50 352.18 93.02 C 345.92 91.54 339.55 90.77 333.09 89.88 C 326.63 89.00 319.95 88.27 313.43 87.71 C 306.90 87.14 300.12 86.94 293.95 86.47 C 287.79 86.00 282.13 85.44 276.44 84.90 C 270.75 84.36 264.43 83.85 259.82 83.22 C 255.21 82.59 252.68 82.09 248.77 81.13 C 244.87 80.17 239.94 79.05 236.39 77.47 C 232.84 75.89 230.05 73.68 227.48 71.65 C 224.91 69.63 222.80 67.57 220.98 65.35 C 219.15 63.13 217.50 60.67 216.55 58.33 C 215.60 55.99 215.23 53.67 215.28 51.30 C 215.32 48.93 216.06 46.36 216.82 44.11 C 217.58 41.86 218.51 39.77 219.86 37.81 C 221.21 35.86 222.62 34.04 224.91 32.37 C 227.21 30.71 230.51 29.08 233.64 27.81 C 236.78 26.55 239.88 25.51 243.73 24.79 C 247.59 24.07 252.23 23.53 256.78 23.50 C 261.33 23.46 266.55 23.89 271.02 24.60 C 275.49 25.31 278.92 26.34 283.59 27.75 C 288.26 29.16 293.74 30.83 299.04 33.03 C 304.34 35.23 310.16 37.97 315.39 40.96 C 320.61 43.95 325.44 47.73 330.39 50.97 C 335.35 54.21 340.32 57.26 345.11 60.39 C 349.91 63.52 354.60 66.83 359.15 69.77 C 363.71 72.72 368.26 75.45 372.46 78.03 C 376.65 80.62 380.55 83.36 384.32 85.30 C 388.08 87.24 391.74 88.81 395.04 89.69 C 398.34 90.58 401.37 90.45 404.13 90.62 C 406.89 90.79 409.52 91.14 411.58 90.72 C 413.65 90.31 415.18 89.25 416.53 88.13 C 417.87 87.02 419.02 85.67 419.65 84.03 C 420.28 82.40 420.33 80.18 420.30 78.34 C 420.27 76.49 420.23 75.12 419.46 72.98 C 418.69 70.83 417.45 67.97 415.68 65.46 C 413.91 62.95 411.46 60.36 408.83 57.90 C 406.20 55.43 403.31 52.95 399.91 50.67 C 396.51 48.40 392.69 46.23 388.42 44.24 C 384.14 42.25 379.39 40.22 374.25 38.73 C 369.11 37.23 363.31 36.14 357.57 35.27 C 351.83 34.40 346.15 33.47 339.80 33.50 C 333.45 33.53 326.44 34.27 319.48 35.45 C 312.53 36.64 305.19 38.28 298.07 40.62 C 290.95 42.96 283.72 45.87 276.75 49.49 C 269.77 53.11 262.85 57.35 256.22 62.34 C 249.58 67.33 242.25 73.92 236.95 79.42 C 231.65 84.93 228.76 89.02 224.43 95.35 C 220.10 101.69 214.83 109.93 210.98 117.42 C 207.14 124.91 203.89 132.50 201.37 140.32 C 198.86 148.14 197.07 156.38 195.91 164.36 C 194.76 172.34 194.03 180.32 194.46 188.19 C 194.88 196.07 196.46 204.19 198.46 211.61 C 200.46 219.02 203.42 225.98 206.46 232.69 C 209.50 239.40 213.05 245.83 216.69 251.85 C 220.34 257.87 224.34 263.41 228.32 268.81 C 232.31 274.21 236.66 279.27 240.62 284.27 C 244.58 289.27 248.64 294.02 252.06 298.83 C 255.49 303.64 258.30 308.38 261.16 313.14 C 264.02 317.90 267.14 323.15 269.21 327.40 C 271.27 331.65 272.35 334.49 273.54 338.64 C 274.73 342.79 275.78 347.81 276.36 352.31 C 276.95 356.81 277.53 361.41 277.05 365.62 C 276.57 369.84 275.01 373.72 273.48 377.62 C 271.95 381.53 269.88 385.32 267.89 389.06 C 265.91 392.80 263.45 396.65 261.57 400.09 C 259.70 403.53 258.17 406.45 256.65 409.71 C 255.13 412.96 254.03 416.49 252.46 419.63 C 250.88 422.76 248.83 425.63 247.20 428.54 C 245.57 431.45 243.96 434.31 242.67 437.09 C 241.38 439.86 240.09 442.49 239.47 445.17 C 238.84 447.85 238.81 450.59 238.93 453.19 C 239.05 455.79 239.53 458.50 240.19 460.77 C 240.85 463.03 241.48 464.80 242.88 466.78 C 244.28 468.75 246.33 470.85 248.59 472.62 C 250.84 474.39 253.20 476.14 256.41 477.39 C 259.61 478.64 263.41 480.08 267.84 480.12 C 272.26 480.15 277.64 479.10 282.97 477.58 C 288.29 476.06 294.35 473.87 299.79 471.00 C 305.23 468.13 310.38 464.70 315.60 460.35 C 320.83 456.00 326.50 451.05 331.15 444.93 C 335.80 438.80 340.24 431.37 343.52 423.61 C 346.80 415.85 349.48 406.97 350.84 398.35 C 352.19 389.73 352.51 380.75 351.65 371.91 C 350.80 363.06 348.24 353.81 345.72 345.27 C 343.20 336.73 339.62 327.74 336.56 320.67 C 333.49 313.59 330.72 309.28 327.34 302.82 C 323.97 296.35 319.86 288.71 316.31 281.87 C 312.75 275.02 309.11 268.20 305.99 261.74 C 302.88 255.29 299.97 249.27 297.63 243.14 C 295.29 237.01 293.22 230.87 291.94 224.95 C 290.67 219.04 290.19 213.20 289.97 207.66 C 289.75 202.12 289.94 196.73 290.60 191.71 C 291.27 186.70 292.18 181.87 293.97 177.56 C 295.77 173.25 298.24 169.11 301.40 165.88 C 304.56 162.65 308.68 159.83 312.96 158.19 C 317.23 156.55 322.28 155.73 327.06 156.03 C 331.85 156.33 336.85 157.90 341.68 159.99 C 346.52 162.08 352.20 165.33 356.07 168.56 C 359.94 171.80 362.25 174.57 364.92 179.42 C 367.59 184.27 370.80 191.13 372.12 197.66 C 373.43 204.19 373.90 211.52 372.82 218.60 C 371.74 225.68 369.16 233.35 365.66 240.13 C 362.15 246.92 357.30 253.80 351.80 259.32 C 346.31 264.83 339.42 269.44 332.68 273.20 C 325.94 276.95 318.60 280.09 311.34 281.83 C 304.07 283.57 296.37 283.88 289.09 283.62 C 281.81 283.36 274.18 282.42 267.64 280.28 C 261.10 278.14 255.06 274.72 249.84 270.78 C 244.63 266.84 239.76 261.92 236.34 256.64 C 232.92 251.36 230.48 245.15 229.32 239.09 C 228.17 233.04 228.45 225.58 229.43 220.33 C 230.41 215.08 232.17 211.97 235.19 207.60 C 238.21 203.23 242.79 197.61 247.53 194.09 C 252.27 190.57 258.08 188.03 263.64 186.48 C 269.21 184.94 275.10 184.79 280.92 184.83 C 286.73 184.88 292.84 185.71 298.54 186.75 C 304.24 187.80 309.75 189.41 315.09 191.12 C 320.44 192.82 325.61 194.85 330.62 196.99 C 335.63 199.14 340.42 201.54 345.16 204.00 C 349.91 206.47 354.69 209.31 359.08 211.80 C 363.47 214.29 367.38 216.86 371.50 218.92 C 375.62 220.99 379.72 222.73 383.80 224.17 C 387.89 225.61 392.17 226.89 396.00 227.57 C 399.84 228.25 403.67 228.28 406.80 228.25 C 409.92 228.21 411.99 228.17 414.77 227.36 C 417.56 226.55 420.93 225.11 423.51 223.37 C 426.09 221.62 428.53 219.68 430.26 216.90 C 432.00 214.11 433.41 210.56 433.94 206.65 C 434.48 202.74 434.46 198.06 433.49 193.45 C 432.53 188.85 430.77 183.90 428.15 179.02 C 425.54 174.14 422.21 168.75 417.81 164.18 C 413.42 159.61 407.97 155.08 401.77 151.60 C 395.57 148.12 388.29 144.86 380.60 143.30 C 372.91 141.74 363.99 141.43 355.65 142.21 C 347.31 143.00 338.50 144.93 330.55 148.00 C 322.61 151.08 314.71 155.57 307.97 160.65 C 301.22 165.73 294.59 172.63 290.08 178.46 C 285.56 184.29 283.14 188.97 280.86 195.63 C 278.59 202.29 276.48 211.08 276.42 218.41 C 276.35 225.75 278.20 233.38 280.46 239.62 C 282.72 245.87 286.06 251.45 289.98 255.87 C 293.90 260.29 299.01 263.65 303.95 266.15 C 308.89 268.65 314.39 270.58 319.61 270.88 C 324.83 271.19 330.65 270.01 335.28 267.96 C 339.92 265.91 344.30 262.51 347.42 258.58 C 350.54 254.66 352.37 249.46 353.99 244.41 C 355.60 239.36 356.76 233.75 357.09 228.26 C 357.42 222.77 356.74 216.95 355.96 211.47 C 355.19 205.99 353.88 200.60 352.43 195.37 C 350.98 190.14 348.84 184.64 347.28 180.07 C 345.71 175.49 344.63 172.22 343.04 167.92 C 341.45 163.61 339.09 158.72 337.75 154.24 C 336.41 149.76 335.66 145.17 334.99 141.07 C 334.32 136.96 333.71 133.27 333.73 129.59 C 333.74 125.91 334.27 122.27 335.08 118.98 C 335.89 115.69 337.17 112.70 338.57 109.87 C 339.98 107.05 341.42 104.21 343.52 102.03 C 345.63 99.86 348.22 97.87 351.20 96.82 C 354.19 95.76 357.77 95.39 361.42 95.70 C 365.07 96.01 369.10 96.77 373.10 98.69 C 377.11 100.60 381.51 103.59 385.46 107.20 C 389.42 110.82 393.57 115.24 396.84 120.36 C 400.12 125.48 403.03 132.31 405.11 137.92 C 407.19 143.52 408.33 147.65 409.32 154.00 C 410.31 160.34 411.18 168.42 411.04 175.99 C 410.90 183.55 410.21 191.77 408.46 199.38 C 406.71 206.99 403.54 214.39 400.53 221.65 C 397.51 228.91 393.78 236.06 390.39 242.94 C 387.01 249.82 383.63 256.43 380.21 262.93 C 376.78 269.43 372.92 275.77 369.82 281.95 C 366.73 288.12 363.77 294.21 361.65 299.98 C 359.53 305.75 358.35 311.34 357.10 316.59 C 355.85 321.83 354.49 326.77 354.13 331.46 C 353.78 336.15 354.06 340.72 354.97 344.73 C 355.88 348.74 357.74 352.29 359.59 355.52 C 361.45 358.75 363.82 362.09 366.11 364.10 C 368.40 366.11 370.44 366.82 373.35 367.58 C 376.27 368.34 380.12 368.55 383.58 368.66 C 387.03 368.77 390.61 368.41 394.07 368.26 C 397.53 368.10 401.05 367.90 404.34 367.72 C 407.62 367.54 410.82 367.37 413.78 367.19 C 416.75 367.01 419.55 366.55 422.11 366.64 C 424.66 366.74 426.97 367.09 429.13 367.75 C 431.29 368.41 433.36 369.24 435.06 370.59 C 436.77 371.95 438.19 373.81 439.36 375.88 C 440.53 377.96 441.77 380.39 442.08 383.02 C 442.38 385.66 442.03 388.63 441.19 391.71 C 440.35 394.79 438.87 398.25 437.04 401.52 C 435.21 404.80 432.12 408.43 430.21 411.35 C 428.30 414.28 427.35 416.28 425.57 419.06 C 423.80 421.84 421.43 425.10 419.56 428.03 C 417.69 430.96 416.00 433.98 414.33 436.66 C 412.66 439.33 410.95 441.51 409.54 444.05 C 408.14 446.60 406.72 449.63 405.90 451.94 C 405.07 454.24 404.75 456.12 404.62 457.89 C 404.49 459.67 404.64 461.17 405.14 462.60 C 405.63 464.03 406.45 465.64 407.62 466.46 C 408.79 467.27 410.54 467.43 412.17 467.49 C 413.79 467.54 415.25 467.60 417.38 466.78 C 419.50 465.96 422.22 464.68 424.93 462.58 C 427.63 460.48 430.75 457.78 433.60 454.18 C 436.45 450.58 439.63 445.48 442.04 440.97 C 444.45 436.46 446.29 432.79 448.08 427.12 C 449.86 421.45 451.73 414.13 452.74 406.96 C 453.76 399.79 454.34 391.96 454.16 384.09 C 453.97 376.23 453.45 368.06 451.65 359.76 C 449.85 351.47 446.99 342.66 443.35 334.34 C 439.71 326.02 434.98 317.36 429.82 309.83 C 424.66 302.30 418.53 295.61 412.39 289.17 C 406.25 282.73 399.68 276.78 392.98 271.19 C 386.29 265.60 379.10 260.55 372.21 255.62 C 365.31 250.69 358.26 246.07 351.61 241.61 C 344.95 237.16 338.59 232.97 332.28 228.90 C 325.96 224.83 319.52 221.12 313.71 217.19 C 307.90 213.26 302.16 208.82 297.43 205.32 C 292.70 201.82 289.50 199.74 285.36 196.21 C 281.22 192.69 276.41 188.31 272.57 184.18 C 268.74 180.06 265.14 175.80 262.34 171.46 C 259.54 167.11 257.71 162.49 255.79 158.13 C 253.86 153.77 251.85 149.55 250.77 145.29 C 249.68 141.04 249.41 136.70 249.27 132.60 C 249.12 128.49 249.29 124.53 249.90 120.67 C 250.51 116.80 251.22 112.82 252.93 109.41 C 254.64 106.00 257.33 102.86 260.17 100.21 C 263.01 97.56 266.22 95.28 269.96 93.51 C 273.71 91.73 278.16 90.38 282.65 89.56 C 287.14 88.73 292.04 88.47 296.92 88.58 C 301.80 88.69 307.38 89.27 311.92 90.22 C 316.47 91.16 319.72 92.54 324.21 94.25 C 328.69 95.96 333.99 98.35 338.84 100.48 C 343.68 102.61 348.71 104.79 353.28 107.03 C 357.86 109.27 362.04 111.51 366.30 113.93 C 370.56 116.35 374.85 119.40 378.84 121.55 C 382.83 123.69 386.53 125.46 390.26 126.81 C 394.00 128.15 397.83 129.18 401.25 129.64 C 404.68 130.11 408.03 129.95 410.81 129.57 C 413.59 129.19 415.94 128.43 417.94 127.34 C 419.94 126.25 421.63 124.80 422.81 123.03 C 423.98 121.26 424.38 118.95 424.99 116.69 C 425.61 114.44 426.11 111.95 426.49 109.52 C 426.88 107.08 427.11 104.25 427.30 102.09 C 427.48 99.93 427.33 98.50 427.59 96.56 C 427.85 94.61 428.29 92.30 428.86 90.44 C 429.42 88.58 430.12 86.69 430.99 85.38 C 431.86 84.08 432.81 83.29 434.05 82.62 C 435.30 81.96 436.72 81.43 438.48 81.37 C 440.23 81.31 442.62 81.77 444.57 82.26 C 446.53 82.75 448.16 83.12 450.20 84.30 C 452.24 85.48 454.57 87.41 456.81 89.36 C 459.06 91.31 461.43 93.90 463.67 96.03 C 465.91 98.15 468.22 100.14 470.25 102.12 C 472.29 104.09 474.09 106.06 475.87 107.88 C 477.64 109.70 479.22 111.68 480.89 113.03 C 482.57 114.37 484.56 115.53 485.92 115.93 C 487.27 116.33 488.26 116.03 489.02 115.43 C 489.79 114.82 490.71 113.94 490.50 112.28 C 490.28 110.63 489.32 108.06 487.73 105.50 C 486.14 102.95 484.09 99.91 480.96 96.96 C 477.82 94.00 473.68 90.72 468.92 87.76 C 464.16 84.81 458.19 81.93 452.40 79.25 C 446.62 76.57 440.32 73.93 434.21 71.66 C 428.09 69.40 421.70 67.68 415.72 65.67 C 409.74 63.66 403.93 61.59 398.32 59.61 C 392.70 57.63 386.83 55.92 382.00 53.80 C 377.18 51.67 373.19 49.05 369.38 46.85 C 365.58 44.64 361.92 42.77 359.18 40.56 C 356.44 38.34 354.13 35.44 352.94 33.57 C 351.75 31.70 351.68 30.75 352.02 29.35 C 352.35 27.95 353.36 25.93 354.97 25.17 C 356.58 24.41 358.86 24.15 361.68 24.79 C 364.50 25.44 368.22 26.85 371.91 29.03 C 375.60 31.22 379.83 34.19 383.83 37.91 C 387.84 41.64 392.20 46.08 395.94 51.41 C 399.68 56.74 403.46 63.09 406.26 69.89 C 409.06 76.69 411.45 84.24 412.74 92.21 C 414.04 100.18 414.59 108.98 414.01 117.72 C 413.43 126.46 411.74 135.87 409.27 144.63 C 406.79 153.39 403.48 162.04 399.17 170.28 C 394.86 178.52 389.41 187.09 383.42 194.05 C 377.44 201.01 369.70 207.33 363.27 212.04 C 356.85 216.74 352.00 219.65 344.86 222.28 C 337.71 224.91 328.31 226.85 320.42 227.83 C 312.53 228.82 304.64 229.12 297.51 228.19 C 290.39 227.27 283.47 225.20 277.69 222.28 C 271.92 219.36 266.86 215.06 262.87 210.69 C 258.88 206.32 255.51 201.06 253.74 196.05 C 251.96 191.05 251.49 185.48 252.22 180.66 C 252.95 175.84 255.04 170.82 258.11 167.14 C 261.18 163.45 265.86 160.51 270.62 158.53 C 275.38 156.55 281.13 155.26 286.68 155.26 C 292.22 155.25 298.33 156.61 303.90 158.51 C 309.48 160.41 315.13 163.29 320.15 166.68 C 325.17 170.07 330.03 174.95 334.04 178.85 C 338.05 182.74 340.82 185.62 344.21 190.06 C 347.60 194.50 351.08 200.48 354.39 205.47 C 357.69 210.46 360.83 215.38 364.05 219.98 C 367.26 224.57 370.54 228.93 373.67 233.04 C 376.80 237.15 379.66 241.25 382.84 244.66 C 386.01 248.07 389.36 251.14 392.73 253.49 C 396.10 255.84 399.73 257.25 403.04 258.74 C 406.34 260.23 409.38 261.73 412.56 262.45 C 415.73 263.18 419.01 263.65 422.08 263.09 C 425.14 262.52 428.39 261.02 430.95 259.08 C 433.51 257.13 435.48 254.44 437.44 251.43 C 439.41 248.43 441.87 245.13 442.73 241.05 C 443.59 236.97 443.28 231.55 442.60 226.96 C 441.91 222.36 441.02 218.40 438.62 213.47 C 436.23 208.54 432.57 202.49 428.22 197.38 C 423.86 192.28 418.71 187.02 412.50 182.84 C 406.29 178.66 398.69 174.94 390.95 172.31 C 383.21 169.67 374.53 167.47 366.08 167.02 C 357.63 166.57 348.48 167.63 340.26 169.63 C 332.03 171.62 323.64 174.56 316.73 178.99 C 309.82 183.41 303.64 189.94 298.79 196.18 C 293.95 202.42 290.14 209.53 287.65 216.41 C 285.16 223.29 283.77 230.79 283.85 237.44 C 283.93 244.10 285.75 250.77 288.13 256.33 C 290.50 261.90 293.94 267.26 298.11 270.86 C 302.27 274.47 307.89 276.77 313.13 277.96 C 318.37 279.15 325.03 278.82 329.57 278.00 C 334.11 277.18 336.73 275.89 340.37 273.05 C 344.00 270.22 348.51 265.51 351.38 260.98 C 354.24 256.44 356.07 251.12 357.57 245.85 C 359.06 240.58 359.90 234.81 360.33 229.36 C 360.75 223.92 360.15 218.49 360.11 213.18 C 360.08 207.87 360.07 202.56 360.11 197.51 C 360.16 192.47 360.16 187.46 360.41 182.92 C 360.66 178.39 360.97 174.33 361.62 170.32 C 362.27 166.30 362.93 162.32 364.30 158.85 C 365.66 155.38 367.67 152.09 369.81 149.49 C 371.95 146.88 374.41 144.92 377.14 143.22 C 379.87 141.51 383.01 139.89 386.18 139.27 C 389.35 138.66 393.11 139.19 396.17 139.52 C 399.24 139.85 401.61 140.58 404.58 141.23 C 407.56 141.87 411.00 142.69 414.02 143.38 C 417.04 144.08 419.86 145.04 422.68 145.39 C 425.51 145.73 428.46 145.69 430.96 145.46 C 433.45 145.23 435.71 144.94 437.66 144.00 C 439.60 143.05 441.46 141.52 442.64 139.78 C 443.83 138.04 444.50 136.08 444.77 133.59 C 445.05 131.09 445.09 128.00 444.29 124.82 C 443.50 121.65 442.21 117.99 440.03 114.55 C 437.84 111.11 434.72 107.47 431.20 104.18 C 427.68 100.88 423.67 97.64 418.92 94.77 C 414.18 91.90 408.59 89.19 402.72 86.95 C 396.85 84.70 389.79 82.65 383.70 81.30 C 377.61 79.94 372.79 79.19 366.19 78.81 C 359.58 78.43 351.73 78.14 344.09 79.03 C 336.45 79.92 328.13 81.87 320.35 84.15 C 312.58 86.43 304.80 89.19 297.41 92.70 C 290.03 96.22 282.85 100.52 276.04 105.24 C 269.22 109.97 262.52 115.31 256.51 121.05 C 250.51 126.80 244.88 133.36 240.01 139.72 C 235.14 146.07 231.26 152.53 227.28 159.19 C 223.29 165.86 219.59 173.05 216.09 179.71 C 212.59 186.38 209.29 192.80 206.29 199.17 C 203.30 205.54 200.89 211.94 198.10 217.93 C 195.31 223.92 192.49 229.72 189.55 235.09 C 186.62 240.45 183.43 245.90 180.49 250.12 C 177.56 254.34 175.13 256.82 171.97 260.41 C 168.80 264.01 165.16 268.45 161.51 271.68 C 157.85 274.91 153.93 277.72 150.05 279.78 C 146.17 281.84 142.27 283.14 138.25 284.04 C 134.22 284.94 129.77 285.45 125.88 285.19 C 121.99 284.93 118.46 283.92 114.93 282.48 C 111.40 281.04 107.80 278.96 104.69 276.57 C 101.58 274.17 98.80 271.24 96.28 268.11 C 93.75 264.99 91.41 261.57 89.54 257.82 C 87.66 254.07 85.97 250.00 85.02 245.59 C 84.07 241.19 83.67 236.47 83.83 231.38 C 83.99 226.29 84.78 220.43 85.99 215.03 C 87.21 209.63 89.40 203.75 91.14 198.97 C 92.87 194.19 93.89 191.00 96.38 186.36 C 98.88 181.72 102.64 176.05 106.12 171.15 C 109.61 166.25 112.97 161.32 117.28 156.95 C 121.60 152.57 126.77 148.53 132.04 144.88 C 137.31 141.23 142.85 137.88 148.91 135.05 C 154.96 132.22 161.62 129.71 168.37 127.90 C 175.12 126.09 182.41 124.90 189.41 124.20 C 196.40 123.50 203.20 123.07 210.37 123.68 C 217.53 124.28 225.35 126.09 232.41 127.83 C 239.47 129.58 246.10 131.67 252.74 134.14 C 259.38 136.62 266.00 139.21 272.23 142.70 C 278.46 146.20 284.63 150.54 290.12 155.13 C 295.61 159.72 301.07 165.36 305.17 170.23 C 309.28 175.11 311.74 178.77 314.73 184.40 C 317.73 190.02 321.00 197.35 323.13 203.99 C 325.25 210.63 326.66 217.40 327.49 224.23 C 328.33 231.05 328.60 238.11 328.13 244.94 C 327.65 251.76 326.41 258.73 324.64 265.17 C 322.86 271.62 320.33 277.85 317.50 283.59 C 314.67 289.33 311.52 294.65 307.65 299.59 C 303.77 304.52 299.08 309.25 294.25 313.21 C 289.42 317.16 284.26 320.55 278.67 323.33 C 273.08 326.11 266.85 328.65 260.73 329.90 C 254.62 331.14 248.20 331.38 241.97 330.80 C 235.74 330.22 229.17 328.73 223.33 326.42 C 217.50 324.12 211.59 320.37 206.98 316.95 C 202.37 313.53 199.02 310.66 195.69 305.90 C 192.36 301.15 188.83 294.74 186.98 288.41 C 185.14 282.07 184.02 274.58 184.61 267.89 C 185.20 261.21 187.69 254.36 190.52 248.30 C 193.35 242.25 197.04 236.59 201.61 231.57 C 206.19 226.54 212.09 221.42 217.97 218.15 C 223.84 214.88 230.35 213.16 236.86 211.93 C 243.36 210.71 250.50 210.30 256.97 210.80 C 263.45 211.29 269.65 213.16 275.71 214.90 C 281.76 216.63 287.61 219.11 293.29 221.19 C 298.98 223.28 304.52 225.21 309.82 227.40 C 315.11 229.59 320.07 232.21 325.07 234.34 C 330.06 236.47 335.34 238.75 339.77 240.17 C 344.20 241.59 347.39 242.32 351.64 242.86 C 355.88 243.40 360.87 243.74 365.23 243.39 C 369.59 243.05 374.00 242.12 377.82 240.79 C 381.64 239.47 384.92 237.75 388.17 235.45 C 391.41 233.15 394.70 230.21 397.29 227.00 C 399.88 223.79 402.41 220.33 403.69 216.21 C 404.97 212.09 405.29 207.15 404.98 202.28 C 404.68 197.41 403.89 192.10 401.85 186.99 C 399.82 181.88 396.90 176.26 392.76 171.62 C 388.62 166.99 382.99 162.60 377.02 159.18 C 371.06 155.76 364.33 152.79 356.97 151.10 C 349.62 149.41 340.96 148.35 332.91 149.03 C 324.86 149.71 315.42 152.37 308.67 155.20 C 301.92 158.03 297.81 161.24 292.40 166.04 C 287.00 170.84 280.49 177.49 276.24 184.00 C 271.99 190.52 268.91 197.91 266.91 205.10 C 264.90 212.29 263.71 220.17 264.23 227.13 C 264.74 234.08 267.05 241.05 269.97 246.83 C 272.89 252.60 277.06 257.97 281.75 261.77 C 286.44 265.57 292.69 268.40 298.13 269.63 C 303.56 270.86 309.18 270.63 314.35 269.16 C 319.52 267.69 325.30 264.64 329.15 260.80 C 333.01 256.96 335.87 251.44 337.46 246.13 C 339.05 240.83 339.50 234.73 338.70 228.95 C 337.90 223.18 335.29 216.90 332.65 211.50 C 330.01 206.10 326.36 200.89 322.86 196.57 C 319.37 192.25 315.89 189.35 311.69 185.58 C 307.49 181.81 302.20 177.75 297.66 173.95 C 293.13 170.14 288.90 166.32 284.47 162.74 C 280.05 159.16 275.10 155.86 271.14 152.47 C 267.18 149.07 263.56 146.02 260.71 142.36 C 257.87 138.71 255.73 134.45 254.06 130.53 C 252.39 126.62 250.89 122.63 250.70 118.86 C 250.52 115.10 251.50 111.24 252.93 107.93 C 254.37 104.62 256.68 101.61 259.32 99.00 C 261.95 96.39 265.52 94.39 268.74 92.28 C 271.97 90.18 275.06 88.05 278.66 86.39 C 282.26 84.73 286.66 83.67 290.34 82.31 C 294.02 80.96 297.82 79.56 300.74 78.26 C 303.66 76.95 305.34 76.03 307.86 74.49 C 310.38 72.94 313.66 70.87 315.86 68.99 C 318.07 67.10 319.83 65.27 321.09 63.18 C 322.36 61.09 323.27 58.75 323.46 56.47 C 323.64 54.19 323.40 51.78 322.20 49.50 C 321.00 47.22 318.81 44.88 316.25 42.80 C 313.68 40.73 310.35 38.71 306.80 37.07 C 303.26 35.43 299.15 34.02 294.98 32.96 C 290.80 31.90 286.48 31.05 281.75 30.70 C 277.01 30.35 271.81 30.42 266.58 30.87 C 261.35 31.32 255.90 32.07 250.35 33.39 C 244.80 34.71 239.05 36.39 233.27 38.81 C 227.49 41.24 220.84 44.79 215.68 47.96 C 210.52 51.14 207.25 53.86 202.31 57.87 C 197.36 61.89 191.17 66.85 186.02 72.04 C 180.86 77.22 175.75 83.19 171.36 89.00 C 166.97 94.81 163.03 100.25 159.67 106.91 C 156.32 113.58 153.26 121.40 151.21 128.99 C 149.17 136.58 147.89 144.44 147.39 152.43 C 146.90 160.41 147.10 168.82 148.23 176.92 C 149.37 185.03 151.34 193.49 154.22 201.08 C 157.10 208.67 161.09 215.82 165.52 222.46 C 169.94 229.10 174.99 235.68 180.79 240.90 C 186.58 246.12 193.40 250.59 200.28 253.78 C 207.16 256.97 214.92 258.94 222.06 260.05 C 229.21 261.16 237.03 261.08 243.13 260.44 C 249.24 259.80 253.54 258.71 258.69 256.22 C 263.83 253.73 269.62 249.59 274.02 245.51 C 278.41 241.42 281.97 236.46 285.06 231.71 C 288.16 226.96 290.62 222.16 292.58 217.02 C 294.54 211.88 295.55 206.20 296.80 200.89 C 298.04 195.58 298.94 190.19 300.05 185.16 C 301.17 180.13 302.16 175.25 303.50 170.69 C 304.83 166.13 306.55 161.88 308.06 157.78 C 309.58 153.69 310.89 149.85 312.60 146.12 C 314.32 142.38 316.30 138.59 318.35 135.38 C 320.40 132.16 322.68 129.54 324.91 126.85 C 327.14 124.16 329.38 121.57 331.71 119.21 C 334.04 116.85 336.71 114.61 338.92 112.69 C 341.12 110.77 342.78 109.46 344.92 107.68 C 347.07 105.89 349.85 104.09 351.77 102.01 C 353.68 99.93 355.12 97.55 356.41 95.19 C 357.70 92.83 358.61 90.33 359.49 87.85 C 360.37 85.37 361.47 82.77 361.71 80.31 C 361.94 77.85 361.52 75.58 360.90 73.10 C 360.29 70.63 359.19 68.01 358.02 65.46 C 356.86 62.91 355.81 60.29 353.92 57.81 C 352.02 55.32 349.48 52.91 346.66 50.54 C 343.84 48.17 340.33 45.77 336.98 43.61 C 333.62 41.45 330.18 39.40 326.54 37.58 C 322.90 35.75 318.71 34.28 315.11 32.66 C 311.51 31.05 307.79 29.31 304.97 27.89 C 302.15 26.47 300.52 25.59 298.18 24.16 C 295.84 22.73 293.01 20.88 290.93 19.31 C 288.85 17.74 286.97 16.23 285.70 14.72 C 284.43 13.22 283.61 11.80 283.31 10.30 C 283.02 8.81 282.93 7.00 283.93 5.76 C 284.92 4.52 287.35 3.71 289.30 2.88 C 291.25 2.05 293.49 -2.01 295.63 0.79 C 297.78 3.58 300.18 11.20 302.16 19.64 C 304.14 28.07 306.24 40.96 307.51 51.40 C 308.78 61.84 309.60 72.23 309.79 82.29 C 309.99 92.35 309.53 102.15 308.67 111.75 C 307.80 121.35 306.67 130.89 304.60 139.90 C 302.54 148.92 299.29 158.51 296.28 165.85 C 293.26 173.18 290.87 178.08 286.50 183.92 C 282.13 189.76 275.89 196.16 270.08 200.89 C 264.28 205.62 257.89 209.62 251.68 212.28 C 245.46 214.94 238.73 216.46 232.78 216.87 C 226.82 217.27 221.10 216.23 215.94 214.72 C 210.79 213.21 205.82 210.85 201.85 207.79 C 197.88 204.74 194.63 200.54 192.13 196.38 C 189.64 192.22 187.67 187.47 186.89 182.84 C 186.11 178.20 186.38 173.24 187.44 168.56 C 188.50 163.88 190.48 159.04 193.25 154.77 C 196.01 150.50 199.91 146.41 204.04 142.94 C 208.17 139.47 212.71 136.09 218.03 133.94 C 223.35 131.80 230.44 130.64 235.95 130.04 C 241.46 129.44 245.30 129.23 251.11 130.34 C 256.92 131.45 264.56 133.74 270.81 136.69 C 277.06 139.64 283.03 143.75 288.61 148.04 C 294.19 152.34 299.61 157.14 304.28 162.46 C 308.96 167.78 313.23 173.92 316.66 179.97 C 320.09 186.03 322.88 192.22 324.85 198.77 C 326.81 205.33 327.76 212.40 328.46 219.30 C 329.15 226.20 329.82 233.41 329.05 240.17 C 328.28 246.93 326.10 253.47 323.83 259.85 C 321.57 266.23 318.80 272.66 315.47 278.45 C 312.13 284.23 308.09 289.57 303.81 294.57 C 299.53 299.57 294.58 304.20 289.77 308.43 C 284.96 312.67 279.30 316.56 274.93 319.98 C 270.56 323.41 267.60 325.77 263.56 329.00 C 259.52 332.24 254.41 335.81 250.69 339.39 C 246.97 342.97 244.03 346.75 241.24 350.48 C 238.46 354.20 235.88 357.84 233.97 361.74 C 232.05 365.65 230.43 369.84 229.74 373.90 C 229.05 377.96 228.96 382.15 229.81 386.09 C 230.67 390.02 232.48 394.10 234.86 397.52 C 237.24 400.95 240.50 404.05 244.10 406.65 C 247.70 409.24 252.04 411.46 256.46 413.09 C 260.87 414.73 265.80 415.65 270.60 416.44 C 275.39 417.24 280.43 417.47 285.22 417.87 C 290.01 418.27 294.66 418.55 299.34 418.86 C 304.02 419.17 309.37 419.45 313.29 419.75 C 317.21 420.04 319.50 419.96 322.85 420.61 C 326.19 421.27 330.43 422.33 333.35 423.69 C 336.26 425.06 338.56 426.76 340.36 428.79 C 342.15 430.83 343.58 433.48 344.12 435.89 C 344.66 438.30 344.34 440.67 343.61 443.25 C 342.88 445.83 341.56 448.71 339.73 451.37 C 337.90 454.04 335.12 456.91 332.62 459.27 C 330.13 461.63 327.31 463.38 324.73 465.52 C 322.15 467.67 319.41 469.98 317.16 472.14 C 314.91 474.30 312.99 476.47 311.23 478.47 C 309.47 480.48 307.77 482.35 306.60 484.17 C 305.43 485.99 304.47 487.61 304.23 489.39 C 303.99 491.16 304.49 493.38 305.15 494.82 C 305.81 496.27 306.65 497.07 308.18 498.08 C 309.71 499.08 311.90 500.34 314.32 500.86 C 316.74 501.39 319.58 501.44 322.70 501.22 C 325.81 501.00 329.52 500.44 333.01 499.54 C 336.50 498.64 339.93 497.38 343.64 495.82 C 347.35 494.25 351.40 492.06 355.27 490.15 C 359.14 488.24 363.21 486.07 366.88 484.34 C 370.54 482.61 374.11 481.07 377.26 479.78 C 380.42 478.49 383.38 477.23 385.82 476.59 C 388.26 475.94 390.27 475.62 391.88 475.90 C 393.49 476.19 394.78 477.18 395.47 478.28 C 396.16 479.38 396.61 480.90 396.02 482.51 C 395.43 484.13 393.53 486.44 391.92 487.98 C 390.32 489.53 389.37 490.29 386.38 491.78 C 383.40 493.27 378.86 495.76 374.01 496.90 C 369.17 498.03 363.39 498.52 357.30 498.60 C 351.21 498.67 344.62 498.77 337.47 497.36 C 330.33 495.94 321.93 493.33 314.40 490.09 C 306.87 486.85 299.39 482.95 292.30 477.92 C 285.20 472.90 278.07 466.64 271.82 459.93 C 265.58 453.22 259.56 445.64 254.82 437.65 C 250.07 429.67 246.17 420.94 243.35 412.03 C 240.54 403.11 238.46 393.21 237.92 384.15 C 237.37 375.09 238.36 366.05 240.08 357.68 C 241.79 349.30 244.53 340.99 248.21 333.91 C 251.89 326.84 257.62 319.99 262.15 315.23 C 266.69 310.47 270.16 308.03 275.43 305.36 C 280.71 302.69 288.05 300.33 293.81 299.19 C 299.57 298.04 304.84 297.67 310.00 298.50 C 315.16 299.32 320.67 301.54 324.78 304.15 C 328.88 306.76 332.38 310.23 334.64 314.17 C 336.90 318.10 338.03 323.05 338.36 327.73 C 338.70 332.41 338.28 337.47 336.64 342.25 C 335.00 347.03 331.98 352.23 328.52 356.42 C 325.05 360.62 320.71 364.30 315.84 367.43 C 310.97 370.56 305.21 373.50 299.30 375.20 C 293.39 376.90 286.90 377.61 280.39 377.62 C 273.88 377.63 266.92 376.88 260.22 375.26 C 253.52 373.65 245.94 370.61 240.22 367.95 C 234.50 365.28 230.77 363.24 225.90 359.27 C 221.03 355.30 215.38 349.80 210.99 344.12 C 206.59 338.43 202.68 331.77 199.53 325.16 C 196.38 318.55 193.74 311.40 192.10 304.46 C 190.46 297.52 189.56 290.44 189.70 283.51 C 189.83 276.58 191.25 269.58 192.92 262.86 C 194.58 256.13 197.24 249.47 199.66 243.14 C 202.09 236.81 204.95 230.73 207.45 224.87 C 209.95 219.02 212.22 213.41 214.68 207.99 C 217.13 202.57 219.95 197.45 222.17 192.34 C 224.39 187.23 226.24 182.23 228.02 177.33 C 229.79 172.43 231.76 169.14 232.83 162.93 C 233.90 156.73 234.17 143.91 234.44 140.10" fill="none" stroke="#fff" stroke-width="4.48" stroke-opacity="1" stroke-linecap="round" stroke-linejoin="round"/>
  </g>
</svg>