<?xml version="1.0" encoding="UTF-8"?>
<svg xmlns="http://www.w3.org/2000/svg" width="512" height="512" viewBox="0 0 512 512">
  <rect width="100%" height="100%" fill="#000"/>
  <g>
    <path d="M 256.00 256.00 C 258.20 253.86 263.61 246.73 269.23 243.14 C 274.85 239.56 283.11 235.43 289.74 234.51 C 296.38 233.58 302.73 235.98 309.03 237.59 C 315.32 239.20 321.91 240.91 327.52 244.15 C 333.13 247.39 338.98 252.33 342.69 257.03 C 346.40 261.72 347.86 266.76 349.76 272.34 C 351.65 277.92 353.77 283.98 354.07 290.49 C 354.37 297.00 353.90 304.73 351.57 311.41 C 349.24 318.09 344.70 325.06 340.07 330.58 C 335.44 336.10 329.35 340.82 323.79 344.52 C 318.22 348.23 313.59 351.32 306.69 352.81 C 299.79 354.31 290.78 354.36 282.41 353.52 C 274.04 352.68 264.44 351.15 256.50 347.75 C 248.56 344.36 241.22 338.95 234.77 333.14 C 228.31 327.32 221.80 319.44 217.78 312.86 C 213.77 306.28 211.51 300.98 210.68 293.63 C 209.85 286.29 210.66 276.68 212.81 268.80 C 214.97 260.91 219.03 252.99 223.60 246.31 C 228.17 239.64 233.86 233.40 240.25 228.76 C 246.65 224.11 255.35 220.47 261.97 218.46 C 268.59 216.46 273.61 215.54 279.97 216.73 C 286.32 217.92 294.08 221.47 300.11 225.61 C 306.15 229.74 312.56 235.54 316.18 241.54 C 319.80 247.54 321.05 254.84 321.82 261.59 C 322.60 268.34 321.57 275.70 320.82 282.04 C 320.07 288.39 319.03 293.07 317.33 299.67 C 315.63 306.27 312.89 315.01 310.64 321.64 C 308.39 328.27 306.58 333.71 303.81 339.45 C 301.05 345.19 297.31 350.99 294.05 356.09 C 290.78 361.19 287.34 365.70 284.21 370.06 C 281.08 374.42 278.18 378.27 275.27 382.25 C 272.37 386.23 269.66 390.02 266.80 393.92 C 263.94 397.82 260.85 401.77 258.11 405.65 C 255.36 409.52 252.85 413.55 250.32 417.16 C 247.80 420.77 245.09 424.05 242.97 427.28 C 240.85 430.51 240.05 433.97 237.60 436.55 C 235.15 439.13 231.98 440.96 228.27 442.78 C 224.56 444.60 220.36 447.21 215.35 447.48 C 210.34 447.74 204.13 446.34 198.21 444.37 C 192.28 442.41 185.48 438.99 179.82 435.68 C 174.17 432.36 169.52 429.91 164.29 424.48 C 159.05 419.05 152.79 410.91 148.41 403.11 C 144.03 395.30 140.83 386.66 137.99 377.65 C 135.14 368.64 133.09 358.05 131.35 349.07 C 129.60 340.09 128.32 331.64 127.51 323.77 C 126.70 315.90 126.44 309.35 126.50 301.84 C 126.55 294.33 128.00 286.16 127.83 278.72 C 127.66 271.28 126.31 263.93 125.48 257.22 C 124.65 250.51 124.02 244.28 122.85 238.47 C 121.68 232.66 120.09 226.74 118.46 222.36 C 116.83 217.98 115.18 215.62 113.08 212.17 C 110.98 208.72 108.36 204.65 105.85 201.65 C 103.35 198.66 100.38 196.93 98.07 194.19 C 95.75 191.46 94.26 188.60 91.96 185.27 C 89.65 181.94 86.07 177.63 84.24 174.24 C 82.40 170.84 81.47 168.34 80.97 164.91 C 80.46 161.48 80.92 157.88 81.20 153.65 C 81.49 149.42 81.85 144.25 82.66 139.55 C 83.47 134.85 85.06 129.76 86.05 125.47 C 87.04 121.18 87.81 117.32 88.61 113.84 C 89.40 110.36 90.52 107.54 90.80 104.59 C 91.07 101.64 90.86 98.40 90.26 96.11 C 89.66 93.81 88.78 91.98 87.20 90.82 C 85.61 89.67 83.06 88.86 80.78 89.17 C 78.50 89.48 76.14 90.95 73.52 92.69 C 70.89 94.42 68.11 95.88 65.05 99.57 C 61.99 103.27 58.10 109.19 55.17 114.87 C 52.24 120.54 50.01 127.39 47.47 133.62 C 44.92 139.85 42.11 146.11 39.88 152.24 C 37.65 158.37 35.90 165.26 34.08 170.39 C 32.26 175.51 30.71 178.79 28.98 183.00 C 27.25 187.22 25.36 191.96 23.71 195.70 C 22.05 199.43 20.70 202.04 19.05 205.42 C 17.40 208.80 15.59 213.75 13.81 215.98 C 12.02 218.21 9.92 218.31 8.37 218.80 C 6.81 219.30 5.76 219.71 4.48 218.97 C 3.20 218.22 -3.07 215.88 0.69 214.32 C 4.45 212.76 16.00 210.12 27.04 209.63 C 38.09 209.14 54.24 210.58 66.97 211.38 C 79.69 212.18 92.56 213.01 103.38 214.43 C 114.20 215.84 122.17 217.19 131.89 219.88 C 141.60 222.57 152.06 226.27 161.66 230.59 C 171.27 234.91 181.40 240.32 189.49 245.80 C 197.58 251.28 204.85 257.12 210.20 263.47 C 215.55 269.83 219.09 277.60 221.59 283.91 C 224.09 290.22 224.43 295.21 225.20 301.33 C 225.97 307.46 226.85 314.61 226.21 320.65 C 225.57 326.69 223.44 332.35 221.36 337.57 C 219.29 342.79 217.35 348.29 213.77 351.97 C 210.20 355.65 204.43 357.96 199.90 359.65 C 195.38 361.33 191.43 361.67 186.63 362.08 C 181.82 362.49 176.46 362.54 171.08 362.10 C 165.69 361.65 159.58 360.92 154.32 359.40 C 149.06 357.87 144.47 355.25 139.49 352.94 C 134.52 350.64 129.01 347.58 124.47 345.57 C 119.93 343.56 116.60 342.19 112.26 340.90 C 107.91 339.61 102.64 338.67 98.40 337.82 C 94.15 336.97 90.16 336.13 86.79 335.80 C 83.42 335.47 81.18 335.72 78.18 335.84 C 75.19 335.95 71.70 336.65 68.83 336.48 C 65.96 336.32 63.52 335.30 60.98 334.86 C 58.43 334.42 56.38 334.08 53.57 333.84 C 50.76 333.61 46.90 333.96 44.11 333.44 C 41.33 332.91 39.14 332.05 36.88 330.67 C 34.62 329.30 32.44 327.11 30.53 325.18 C 28.63 323.26 27.52 321.53 25.46 319.15 C 23.40 316.77 20.10 313.85 18.18 310.89 C 16.27 307.93 15.50 305.26 13.94 301.39 C 12.39 297.53 9.20 293.25 8.87 287.70 C 8.54 282.14 10.73 274.04 11.95 268.05 C 13.17 262.07 13.94 258.03 16.20 251.80 C 18.46 245.56 21.39 237.55 25.51 230.64 C 29.63 223.73 34.85 216.68 40.92 210.34 C 46.99 204.01 53.63 197.79 61.93 192.62 C 70.24 187.45 81.35 182.58 90.76 179.32 C 100.16 176.06 108.37 174.18 118.35 173.07 C 128.32 171.96 140.20 171.17 150.61 172.67 C 161.02 174.17 171.80 177.37 180.81 182.07 C 189.82 186.77 197.86 193.88 204.67 200.86 C 211.48 207.84 216.68 216.90 221.68 223.95 C 226.69 231.01 231.43 236.14 234.72 243.20 C 238.00 250.25 240.40 258.91 241.42 266.29 C 242.43 273.67 242.19 281.02 240.79 287.46 C 239.40 293.91 236.04 299.56 233.05 304.96 C 230.07 310.37 226.42 315.90 222.89 319.90 C 219.36 323.90 216.07 325.71 211.89 328.95 C 207.71 332.19 202.26 335.82 197.81 339.34 C 193.36 342.86 188.87 346.45 185.17 350.08 C 181.47 353.71 177.93 357.38 175.60 361.13 C 173.26 364.88 171.96 368.63 171.18 372.56 C 170.39 376.50 169.89 380.44 170.90 384.76 C 171.90 389.07 174.16 393.97 177.23 398.45 C 180.29 402.93 184.56 407.89 189.28 411.65 C 194.01 415.41 200.55 418.21 205.58 421.00 C 210.61 423.78 215.30 426.24 219.48 428.35 C 223.66 430.47 226.66 431.54 230.65 433.67 C 234.64 435.81 238.94 438.54 243.41 441.17 C 247.88 443.80 253.27 447.06 257.46 449.44 C 261.64 451.82 265.77 453.13 268.53 455.47 C 271.30 457.81 272.76 461.31 274.04 463.48 C 275.33 465.66 275.82 466.21 276.25 468.52 C 276.68 470.83 277.32 475.02 276.64 477.32 C 275.96 479.63 274.73 480.92 272.17 482.35 C 269.62 483.79 265.61 485.41 261.31 485.92 C 257.00 486.43 251.53 486.73 246.36 485.41 C 241.20 484.08 236.30 481.56 230.31 477.96 C 224.33 474.36 216.57 470.14 210.47 463.79 C 204.37 457.44 198.51 448.66 193.72 439.86 C 188.93 431.06 184.69 420.92 181.75 410.99 C 178.80 401.06 176.11 389.67 176.05 380.29 C 176.00 370.90 178.18 363.67 181.42 354.69 C 184.66 345.71 189.74 334.56 195.47 326.40 C 201.21 318.23 208.56 310.76 215.81 305.67 C 223.06 300.59 231.06 297.82 238.98 295.89 C 246.89 293.96 256.30 293.71 263.31 294.10 C 270.32 294.49 275.31 295.69 281.04 298.21 C 286.77 300.73 293.18 305.01 297.69 309.20 C 302.19 313.39 305.81 318.27 308.06 323.36 C 310.30 328.45 310.25 334.37 311.16 339.75 C 312.07 345.12 312.58 350.63 313.51 355.60 C 314.45 360.57 315.34 365.06 316.79 369.56 C 318.25 374.06 319.91 378.92 322.25 382.62 C 324.58 386.32 327.62 389.27 330.81 391.77 C 334.01 394.27 337.53 396.56 341.41 397.64 C 345.29 398.72 349.79 399.10 354.11 398.26 C 358.42 397.41 362.56 395.47 367.31 392.57 C 372.07 389.67 378.02 385.81 382.65 380.86 C 387.29 375.92 391.97 369.87 395.12 362.88 C 398.27 355.89 400.14 347.30 401.57 338.90 C 403.00 330.51 404.10 320.44 403.71 312.52 C 403.32 304.60 402.19 299.03 399.24 291.40 C 396.29 283.76 391.79 274.36 386.03 266.72 C 380.27 259.08 372.51 251.18 364.69 245.56 C 356.87 239.95 348.26 236.12 339.11 233.03 C 329.96 229.94 318.51 227.47 309.80 227.04 C 301.09 226.60 294.61 228.45 286.84 230.43 C 279.06 232.42 270.50 235.83 263.14 238.95 C 255.79 242.06 249.38 245.47 242.72 249.11 C 236.06 252.75 229.52 256.77 223.18 260.78 C 216.83 264.79 210.19 269.79 204.65 273.16 C 199.12 276.53 195.26 278.64 189.98 281.02 C 184.69 283.39 178.52 285.77 172.97 287.44 C 167.42 289.10 161.94 290.32 156.67 291.01 C 151.41 291.70 146.50 291.86 141.36 291.57 C 136.23 291.28 130.18 290.80 125.86 289.28 C 121.53 287.75 118.64 285.58 115.42 282.42 C 112.20 279.26 109.26 274.89 106.53 270.31 C 103.80 265.74 101.04 260.41 99.05 254.96 C 97.06 249.51 94.67 243.79 94.58 237.62 C 94.48 231.45 96.73 224.04 98.48 217.92 C 100.24 211.80 101.15 206.72 105.12 200.91 C 109.10 195.10 115.45 188.36 122.35 183.05 C 129.25 177.74 137.73 172.17 146.52 169.04 C 155.32 165.90 165.63 164.57 175.13 164.22 C 184.64 163.88 195.06 165.47 203.56 166.97 C 212.07 168.47 218.34 169.93 226.16 173.21 C 233.98 176.50 242.78 182.13 250.49 186.67 C 258.21 191.22 266.45 194.96 272.44 200.49 C 278.43 206.02 282.56 212.93 286.44 219.86 C 290.32 226.79 292.99 235.37 295.72 242.09 C 298.46 248.81 300.98 253.50 302.85 260.17 C 304.73 266.84 305.87 275.08 306.98 282.10 C 308.08 289.13 308.57 295.68 309.47 302.33 C 310.38 308.99 311.48 316.09 312.40 322.05 C 313.31 328.01 314.08 333.12 314.96 338.09 C 315.84 343.06 316.50 347.39 317.68 351.88 C 318.86 356.38 320.07 360.83 322.04 365.05 C 324.02 369.28 326.58 374.10 329.52 377.23 C 332.47 380.36 335.87 382.02 339.72 383.84 C 343.56 385.65 348.42 387.69 352.60 388.10 C 356.78 388.52 360.11 387.39 364.81 386.35 C 369.51 385.32 375.66 383.82 380.79 381.89 C 385.92 379.96 390.99 377.90 395.57 374.77 C 400.16 371.64 404.44 367.53 408.30 363.10 C 412.17 358.67 415.80 353.32 418.75 348.18 C 421.70 343.05 423.32 337.85 426.00 332.30 C 428.69 326.75 432.42 320.78 434.85 314.89 C 437.29 309.01 438.94 303.06 440.62 296.98 C 442.31 290.90 443.68 284.16 444.97 278.40 C 446.26 272.63 447.38 267.17 448.34 262.38 C 449.31 257.60 449.39 253.68 450.76 249.68 C 452.12 245.67 454.39 241.29 456.52 238.36 C 458.66 235.42 461.32 233.75 463.55 232.07 C 465.79 230.39 467.88 229.40 469.93 228.29 C 471.98 227.17 474.05 226.77 475.86 225.41 C 477.67 224.04 478.99 222.03 480.80 220.08 C 482.61 218.13 485.23 215.91 486.69 213.71 C 488.15 211.52 488.52 209.47 489.55 206.91 C 490.58 204.35 492.15 201.22 492.85 198.36 C 493.54 195.50 493.07 192.06 493.72 189.75 C 494.38 187.43 496.36 187.17 496.80 184.48 C 497.23 181.80 496.74 177.30 496.32 173.64 C 495.90 169.98 494.95 166.24 494.26 162.54 C 493.58 158.83 493.23 155.15 492.22 151.41 C 491.20 147.68 489.14 143.27 488.18 140.12 C 487.22 136.97 486.91 134.83 486.45 132.51 C 485.99 130.19 485.36 128.22 485.40 126.18 C 485.45 124.15 486.44 122.08 486.73 120.31 C 487.02 118.54 486.63 116.51 487.13 115.56 C 487.63 114.62 488.79 114.56 489.73 114.65 C 490.67 114.73 491.46 115.13 492.77 116.09 C 494.08 117.04 495.88 118.89 497.58 120.35 C 499.29 121.81 501.40 123.39 502.99 124.86 C 504.58 126.33 505.64 127.72 507.13 129.20 C 508.62 130.68 516.86 132.64 511.93 133.72 C 507.00 134.81 489.73 134.92 477.54 135.71 C 465.35 136.50 451.30 136.87 438.80 138.47 C 426.31 140.06 414.27 142.31 402.57 145.27 C 390.87 148.23 379.50 152.52 368.60 156.23 C 357.70 159.95 346.29 163.81 337.17 167.56 C 328.06 171.31 322.32 174.62 313.93 178.72 C 305.54 182.82 295.35 187.82 286.84 192.16 C 278.33 196.49 270.57 200.66 262.86 204.72 C 255.16 208.78 247.66 212.83 240.61 216.51 C 233.55 220.19 226.58 223.93 220.53 226.80 C 214.48 229.66 210.21 231.87 204.30 233.68 C 198.38 235.49 191.45 236.69 185.05 237.65 C 178.65 238.61 171.83 238.71 165.88 239.44 C 159.94 240.16 154.52 241.44 149.37 242.01 C 144.23 242.59 139.30 242.72 135.03 242.89 C 130.76 243.07 127.75 242.14 123.73 243.07 C 119.71 244.00 115.35 246.51 110.92 248.48 C 106.50 250.45 100.92 252.36 97.19 254.88 C 93.46 257.41 90.97 260.09 88.53 263.62 C 86.09 267.15 84.57 272.15 82.58 276.06 C 80.58 279.97 78.55 283.63 76.55 287.10 C 74.54 290.57 72.90 294.50 70.55 296.89 C 68.21 299.27 65.43 300.15 62.47 301.43 C 59.52 302.71 55.84 304.41 52.81 304.55 C 49.77 304.68 46.71 303.52 44.25 302.23 C 41.79 300.94 39.79 299.44 38.05 296.80 C 36.32 294.16 34.91 290.85 33.87 286.38 C 32.82 281.92 31.44 276.19 31.78 270.01 C 32.12 263.82 33.62 256.15 35.92 249.26 C 38.22 242.37 41.65 235.03 45.58 228.66 C 49.52 222.30 53.81 217.08 59.52 211.05 C 65.23 205.03 72.52 198.10 79.84 192.52 C 87.17 186.93 95.05 181.73 103.47 177.55 C 111.88 173.37 120.74 169.82 130.33 167.45 C 139.93 165.08 151.98 163.75 161.03 163.30 C 170.07 162.85 176.06 163.56 184.59 164.72 C 193.12 165.89 203.03 167.50 212.23 170.27 C 221.42 173.04 231.46 177.66 239.75 181.34 C 248.04 185.03 255.53 187.64 261.96 192.38 C 268.39 197.12 273.66 203.94 278.31 209.79 C 282.97 215.64 286.56 221.00 289.88 227.46 C 293.19 233.93 296.21 241.40 298.23 248.57 C 300.25 255.75 301.37 262.90 301.99 270.51 C 302.61 278.13 302.81 287.26 301.93 294.26 C 301.06 301.26 298.56 306.73 296.74 312.49 C 294.93 318.26 293.14 323.12 291.03 328.85 C 288.93 334.57 286.61 341.24 284.10 346.87 C 281.59 352.49 278.74 357.29 275.98 362.58 C 273.22 367.87 269.44 373.62 267.53 378.62 C 265.62 383.61 265.70 388.50 264.52 392.56 C 263.34 396.62 260.96 399.30 260.43 402.97 C 259.89 406.65 260.25 411.04 261.31 414.60 C 262.38 418.16 263.75 421.51 266.81 424.32 C 269.87 427.12 275.49 429.39 279.67 431.42 C 283.86 433.45 287.84 435.52 291.91 436.49 C 295.98 437.46 299.08 437.69 304.07 437.23 C 309.06 436.77 315.94 435.54 321.86 433.73 C 327.77 431.92 333.58 429.82 339.56 426.40 C 345.55 422.98 352.34 418.38 357.77 413.21 C 363.20 408.05 368.59 401.72 372.13 395.42 C 375.66 389.12 377.46 383.39 378.97 375.41 C 380.47 367.42 381.39 356.95 381.14 347.51 C 380.89 338.08 378.81 328.23 377.46 318.78 C 376.10 309.33 374.47 299.66 373.01 290.84 C 371.54 282.02 370.23 273.19 368.65 265.86 C 367.07 258.52 365.42 253.75 363.51 246.85 C 361.60 239.94 359.49 231.63 357.20 224.44 C 354.91 217.25 352.36 210.23 349.78 203.72 C 347.20 197.21 343.88 191.73 341.70 185.38 C 339.51 179.04 337.61 171.12 336.67 165.64 C 335.73 160.15 335.47 156.94 336.04 152.45 C 336.60 147.96 338.40 143.04 340.06 138.69 C 341.72 134.35 342.97 129.57 346.00 126.36 C 349.03 123.16 354.12 120.75 358.22 119.45 C 362.33 118.16 366.49 117.63 370.63 118.60 C 374.77 119.57 378.74 121.87 383.08 125.26 C 387.43 128.65 393.04 133.04 396.68 138.95 C 400.33 144.87 402.97 152.80 404.94 160.76 C 406.90 168.72 408.03 178.14 408.48 186.72 C 408.93 195.29 408.29 204.50 407.63 212.23 C 406.97 219.97 405.79 225.70 404.54 233.13 C 403.28 240.57 402.08 249.13 400.11 256.83 C 398.13 264.52 395.11 272.10 392.69 279.32 C 390.28 286.55 387.67 293.60 385.62 300.18 C 383.57 306.76 381.61 313.23 380.41 318.78 C 379.21 324.33 379.21 328.16 378.40 333.49 C 377.60 338.82 376.25 345.44 375.59 350.76 C 374.93 356.08 375.04 360.75 374.44 365.42 C 373.85 370.08 373.33 374.22 372.02 378.74 C 370.71 383.27 368.23 388.37 366.60 392.55 C 364.96 396.74 364.33 399.72 362.22 403.84 C 360.11 407.96 356.70 412.96 353.96 417.30 C 351.22 421.64 349.23 426.16 345.78 429.89 C 342.34 433.61 337.99 436.88 333.28 439.66 C 328.58 442.43 322.76 444.49 317.54 446.51 C 312.32 448.54 308.40 450.62 301.96 451.80 C 295.52 452.98 286.40 453.83 278.91 453.58 C 271.43 453.33 264.57 452.18 257.05 450.30 C 249.53 448.42 241.26 445.72 233.80 442.31 C 226.33 438.90 218.34 434.66 212.25 429.85 C 206.16 425.03 202.11 420.46 197.24 413.43 C 192.37 406.39 186.63 396.57 183.04 387.62 C 179.45 378.67 177.06 369.26 175.69 359.71 C 174.31 350.15 173.70 340.10 174.79 330.29 C 175.88 320.48 179.32 309.33 182.24 300.85 C 185.16 292.37 187.77 286.38 192.31 279.42 C 196.84 272.46 202.73 264.42 209.45 259.07 C 216.17 253.71 224.70 250.02 232.64 247.31 C 240.58 244.59 249.00 243.81 257.07 242.79 C 265.13 241.77 274.17 240.72 281.01 241.18 C 287.84 241.63 292.20 243.16 298.08 245.52 C 303.95 247.87 310.51 251.74 316.26 255.32 C 322.01 258.90 327.57 262.96 332.60 267.02 C 337.63 271.08 342.43 275.52 346.44 279.67 C 350.45 283.83 353.31 288.20 356.63 291.94 C 359.95 295.68 363.07 298.70 366.37 302.10 C 369.66 305.51 372.89 309.54 376.41 312.37 C 379.93 315.20 383.89 317.27 387.49 319.08 C 391.09 320.89 393.96 322.18 397.99 323.24 C 402.03 324.30 407.84 325.25 411.71 325.45 C 415.57 325.65 417.76 324.92 421.18 324.44 C 424.60 323.96 428.83 322.65 432.22 322.58 C 435.61 322.50 438.81 323.63 441.51 324.02 C 444.20 324.40 446.27 323.57 448.39 324.89 C 450.51 326.21 452.70 329.39 454.22 331.94 C 455.75 334.48 456.96 336.98 457.54 340.16 C 458.12 343.35 458.34 346.94 457.70 351.04 C 457.06 355.15 455.93 360.32 453.70 364.79 C 451.47 369.26 447.78 373.36 444.33 377.88 C 440.87 382.39 436.18 387.48 432.97 391.87 C 429.76 396.26 428.18 400.18 425.05 404.21 C 421.93 408.24 417.59 412.29 414.25 416.06 C 410.90 419.83 407.99 423.38 404.97 426.83 C 401.95 430.27 398.07 433.42 396.15 436.74 C 394.23 440.06 393.82 444.13 393.45 446.73 C 393.09 449.32 393.59 450.66 393.96 452.31 C 394.34 453.95 394.87 455.02 395.72 456.59 C 396.56 458.16 398.23 460.05 399.02 461.74 C 399.81 463.44 399.94 464.93 400.45 466.77 C 400.96 468.61 401.91 471.15 402.08 472.80 C 402.25 474.45 402.69 475.13 401.47 476.66 C 400.25 478.19 397.56 479.98 394.75 481.97 C 391.95 483.96 388.53 486.46 384.63 488.59 C 380.73 490.71 376.33 493.20 371.35 494.72 C 366.37 496.25 359.85 496.63 354.74 497.76 C 349.63 498.89 345.55 500.19 340.68 501.52 C 335.80 502.84 330.12 504.27 325.48 505.70 C 320.83 507.12 316.63 512.34 312.83 510.06 C 309.03 507.77 306.14 501.40 302.65 491.97 C 299.17 482.54 294.64 465.25 291.93 453.49 C 289.23 441.74 288.17 432.47 286.42 421.45 C 284.68 410.43 282.63 398.45 281.44 387.38 C 280.25 376.30 278.81 365.34 279.27 355.01 C 279.74 344.68 282.38 335.12 284.26 325.39 C 286.15 315.66 288.44 304.66 290.59 296.64 C 292.73 288.62 294.07 283.74 297.11 277.29 C 300.15 270.84 304.43 263.51 308.81 257.95 C 313.19 252.39 318.73 248.27 323.38 243.95 C 328.03 239.63 332.26 235.13 336.69 232.02 C 341.12 228.91 345.71 226.52 349.97 225.29 C 354.23 224.07 357.95 224.46 362.24 224.65 C 366.53 224.85 371.23 224.67 375.71 226.48 C 380.18 228.28 385.60 231.27 389.10 235.47 C 392.60 239.67 394.55 246.18 396.69 251.66 C 398.83 257.14 401.27 262.97 401.91 268.34 C 402.56 273.72 401.87 278.32 400.57 283.93 C 399.28 289.54 397.96 295.80 394.14 302.02 C 390.33 308.25 384.27 315.65 377.66 321.27 C 371.05 326.90 362.59 332.26 354.49 335.78 C 346.38 339.29 336.89 341.55 329.04 342.36 C 321.18 343.16 315.01 342.80 307.35 340.62 C 299.69 338.43 290.97 334.30 283.07 329.25 C 275.17 324.21 265.97 317.46 259.97 310.33 C 253.96 303.20 249.66 294.53 247.04 286.46 C 244.42 278.38 243.72 269.09 244.23 261.89 C 244.73 254.69 246.91 249.40 250.06 243.25 C 253.21 237.10 257.84 229.97 263.14 224.99 C 268.43 220.01 275.56 216.19 281.83 213.38 C 288.10 210.57 294.36 209.36 300.75 208.11 C 307.14 206.86 314.69 206.51 320.17 205.89 C 325.66 205.27 328.45 204.89 333.66 204.39 C 338.88 203.88 346.05 203.66 351.45 202.88 C 356.85 202.09 361.46 201.79 366.05 199.69 C 370.65 197.59 375.58 193.47 379.04 190.27 C 382.50 187.06 384.92 183.79 386.83 180.44 C 388.75 177.10 389.98 174.43 390.53 170.22 C 391.08 166.00 390.83 160.06 390.14 155.15 C 389.45 150.25 388.11 145.51 386.39 140.76 C 384.68 136.02 382.97 131.22 379.83 126.68 C 376.69 122.14 372.06 116.93 367.55 113.53 C 363.05 110.12 358.88 108.40 352.78 106.25 C 346.69 104.09 338.97 101.84 330.99 100.60 C 323.01 99.36 313.58 98.02 304.89 98.80 C 296.19 99.58 287.15 102.56 278.81 105.26 C 270.48 107.96 262.08 111.70 254.86 115.02 C 247.65 118.33 242.18 120.94 235.54 125.14 C 228.90 129.33 221.88 135.67 215.05 140.18 C 208.21 144.69 201.09 148.66 194.54 152.20 C 187.99 155.74 182.04 158.90 175.74 161.43 C 169.45 163.95 162.27 166.11 156.77 167.32 C 151.26 168.53 147.27 168.57 142.73 168.69 C 138.20 168.81 133.21 169.26 129.57 168.04 C 125.93 166.82 123.59 163.73 120.90 161.37 C 118.20 159.02 115.90 156.20 113.41 153.89 C 110.92 151.58 107.80 149.59 105.96 147.54 C 104.11 145.49 103.96 143.78 102.33 141.59 C 100.71 139.41 98.29 136.60 96.21 134.43 C 94.14 132.26 92.50 130.21 89.91 128.55 C 87.32 126.89 83.31 125.34 80.68 124.47 C 78.05 123.61 76.25 123.59 74.16 123.37 C 72.06 123.15 70.58 122.74 68.13 123.15 C 65.68 123.56 62.56 124.49 59.45 125.82 C 56.33 127.15 52.12 128.10 49.43 131.13 C 46.73 134.17 45.23 139.18 43.25 144.05 C 41.27 148.91 38.89 154.56 37.55 160.32 C 36.20 166.08 35.27 171.55 35.19 178.62 C 35.11 185.70 35.49 194.83 37.08 202.78 C 38.67 210.72 41.08 218.31 44.74 226.29 C 48.40 234.27 53.15 242.86 59.06 250.65 C 64.98 258.44 72.52 267.15 80.25 273.00 C 87.99 278.85 96.22 282.24 105.47 285.74 C 114.72 289.24 125.78 291.70 135.73 293.98 C 145.69 296.26 155.46 299.52 165.17 299.43 C 174.89 299.33 185.06 296.40 194.01 293.43 C 202.97 290.45 212.51 286.48 218.90 281.56 C 225.29 276.65 229.21 270.81 232.35 263.94 C 235.49 257.08 237.68 248.09 237.74 240.39 C 237.81 232.70 235.09 224.53 232.73 217.78 C 230.37 211.02 227.64 204.83 223.56 199.86 C 219.49 194.89 213.54 190.72 208.29 187.95 C 203.05 185.18 197.63 183.23 192.08 183.23 C 186.52 183.23 180.49 184.70 174.97 187.93 C 169.45 191.15 163.31 196.69 158.96 202.57 C 154.60 208.46 150.74 215.81 148.83 223.21 C 146.92 230.61 147.01 239.77 147.49 246.99 C 147.96 254.20 148.93 259.66 151.69 266.51 C 154.45 273.35 159.18 281.30 164.06 288.04 C 168.95 294.78 174.61 301.53 181.00 306.93 C 187.40 312.34 194.78 317.64 202.45 320.47 C 210.11 323.30 219.47 324.02 227.00 323.93 C 234.54 323.83 240.21 321.34 247.66 319.90 C 255.11 318.46 264.08 318.21 271.71 315.29 C 279.34 312.38 286.98 307.01 293.45 302.39 C 299.93 297.77 305.52 293.15 310.55 287.60 C 315.59 282.04 319.82 274.43 323.67 269.06 C 327.52 263.69 330.20 260.11 333.64 255.37 C 337.07 250.63 341.08 245.80 344.29 240.63 C 347.49 235.46 349.29 228.84 352.87 224.35 C 356.45 219.87 361.35 216.43 365.74 213.72 C 370.13 211.02 375.13 209.08 379.22 208.12 C 383.30 207.16 386.05 207.36 390.24 207.96 C 394.44 208.56 399.97 209.93 404.38 211.74 C 408.79 213.55 412.92 215.57 416.70 218.81 C 420.47 222.04 424.20 226.55 427.03 231.17 C 429.86 235.79 431.73 241.90 433.68 246.53 C 435.62 251.16 437.60 254.54 438.71 258.96 C 439.81 263.38 438.87 268.63 440.30 273.03 C 441.73 277.44 445.88 281.02 447.28 285.37 C 448.68 289.73 448.24 294.49 448.71 299.17 C 449.18 303.86 449.66 309.41 450.10 313.49 C 450.53 317.56 450.91 320.24 451.34 323.63 C 451.76 327.03 451.90 330.98 452.64 333.86 C 453.37 336.75 454.48 338.92 455.75 340.94 C 457.03 342.96 458.57 344.54 460.27 345.98 C 461.97 347.42 464.08 348.80 465.96 349.56 C 467.84 350.31 469.88 350.50 471.54 350.50 C 473.20 350.50 474.08 351.13 475.91 349.57 C 477.74 348.01 480.52 344.57 482.51 341.15 C 484.51 337.73 486.31 333.28 487.88 329.06 C 489.46 324.84 490.73 319.42 491.97 315.82 C 493.22 312.21 493.92 310.20 495.35 307.42 C 496.78 304.64 498.93 301.75 500.54 299.13 C 502.16 296.51 503.53 293.42 505.03 291.69 C 506.54 289.97 510.81 289.42 509.56 288.77 C 508.31 288.12 505.09 288.35 497.52 287.79 C 489.96 287.23 475.88 287.02 464.16 285.42 C 452.45 283.81 439.47 280.62 427.26 278.17 C 415.05 275.71 402.26 273.41 390.92 270.71 C 379.58 268.01 369.09 264.89 359.21 261.96 C 349.33 259.02 340.00 255.94 331.66 253.12 C 323.31 250.30 317.09 247.83 309.12 245.03 C 301.15 242.24 291.87 239.53 283.84 236.35 C 275.81 233.17 267.57 229.92 260.94 225.96 C 254.31 222.00 249.52 216.87 244.07 212.59 C 238.62 208.32 232.60 204.23 228.26 200.32 C 223.93 196.42 221.51 193.53 218.06 189.15 C 214.61 184.77 210.01 178.90 207.56 174.02 C 205.11 169.15 204.24 164.99 203.36 159.90 C 202.48 154.81 201.70 148.67 202.27 143.51 C 202.85 138.35 204.96 133.13 206.81 128.94 C 208.65 124.74 210.24 121.92 213.33 118.34 C 216.43 114.76 220.91 110.93 225.36 107.47 C 229.82 104.02 234.68 100.25 240.07 97.60 C 245.47 94.95 252.00 92.78 257.75 91.59 C 263.50 90.41 268.83 90.00 274.57 90.48 C 280.31 90.97 285.96 92.44 292.17 94.52 C 298.38 96.60 305.46 99.24 311.84 102.95 C 318.21 106.65 324.81 110.64 330.43 116.75 C 336.04 122.86 341.46 131.66 345.52 139.62 C 349.58 147.58 352.75 156.40 354.79 164.52 C 356.83 172.64 358.07 179.74 357.77 188.35 C 357.47 196.95 355.12 207.19 352.99 216.13 C 350.86 225.07 348.13 233.71 344.99 241.96 C 341.85 250.21 337.60 257.93 334.13 265.63 C 330.66 273.33 326.95 281.62 324.16 288.15 C 321.36 294.68 319.91 298.80 317.36 304.81 C 314.81 310.82 311.46 318.30 308.88 324.21 C 306.29 330.12 303.59 334.89 301.85 340.26 C 300.10 345.63 298.40 351.27 298.40 356.43 C 298.40 361.58 300.25 367.02 301.84 371.18 C 303.44 375.34 305.08 378.54 307.97 381.36 C 310.86 384.19 315.02 386.42 319.20 388.14 C 323.39 389.87 328.31 391.59 333.08 391.72 C 337.85 391.85 342.74 391.41 347.83 388.93 C 352.92 386.45 359.16 380.95 363.63 376.83 C 368.10 372.70 371.57 369.97 374.64 364.16 C 377.70 358.34 380.82 350.13 382.03 341.95 C 383.24 333.76 383.07 323.82 381.91 315.04 C 380.76 306.26 377.78 297.87 375.10 289.29 C 372.42 280.71 369.18 271.22 365.83 263.54 C 362.49 255.85 358.78 250.27 355.04 243.19 C 351.31 236.11 347.67 228.09 343.45 221.04 C 339.23 214.00 333.57 207.44 329.73 200.93 C 325.88 194.42 323.13 187.95 320.39 181.96 C 317.65 175.97 314.60 170.03 313.27 165.01 C 311.95 159.98 312.50 156.35 312.44 151.81 C 312.38 147.27 312.56 142.60 312.91 137.78 C 313.26 132.95 313.67 127.46 314.54 122.85 C 315.41 118.24 317.12 114.00 318.15 110.10 C 319.18 106.21 320.32 102.94 320.72 99.45 C 321.12 95.97 321.00 92.88 320.57 89.18 C 320.13 85.49 319.06 80.94 318.12 77.29 C 317.18 73.64 316.41 70.56 314.94 67.30 C 313.46 64.04 312.04 60.52 309.27 57.72 C 306.49 54.93 302.00 52.43 298.29 50.53 C 294.58 48.63 291.22 47.60 286.99 46.33 C 282.77 45.05 278.60 43.29 272.95 42.89 C 267.29 42.48 259.81 42.64 253.06 43.88 C 246.32 45.12 239.67 46.81 232.46 50.34 C 225.26 53.87 216.29 60.02 209.82 65.07 C 203.36 70.11 199.12 74.48 193.67 80.61 C 188.21 86.74 181.93 94.00 177.10 101.87 C 172.26 109.74 167.64 118.72 164.65 127.82 C 161.66 136.93 160.23 146.84 159.16 156.52 C 158.10 166.20 157.19 176.99 158.26 185.90 C 159.33 194.80 161.80 202.10 165.59 209.94 C 169.39 217.77 175.32 226.20 181.02 232.92 C 186.72 239.64 193.13 244.65 199.80 250.24 C 206.47 255.84 213.38 262.64 221.06 266.49 C 228.74 270.34 238.44 271.78 245.87 273.34 C 253.30 274.91 258.56 276.24 265.62 275.91 C 272.67 275.57 281.17 273.60 288.20 271.34 C 295.22 269.08 301.85 265.83 307.76 262.36 C 313.68 258.90 319.13 254.90 323.71 250.54 C 328.29 246.18 332.37 241.21 335.25 236.20 C 338.14 231.19 339.63 226.14 341.01 220.50 C 342.38 214.85 344.02 208.32 343.51 202.31 C 343.00 196.31 340.41 190.47 337.97 184.46 C 335.53 178.45 332.20 171.97 328.87 166.28 C 325.54 160.58 321.62 154.81 317.97 150.31 C 314.32 145.82 310.97 143.16 306.97 139.32 C 302.98 135.47 297.57 131.13 294.00 127.24 C 290.43 123.35 288.30 119.56 285.56 115.98 C 282.82 112.40 279.37 109.38 277.56 105.76 C 275.74 102.14 274.97 97.89 274.66 94.27 C 274.35 90.65 274.26 86.99 275.71 84.05 C 277.17 81.10 280.38 78.77 283.39 76.59 C 286.39 74.41 289.36 72.27 293.72 70.98 C 298.07 69.69 303.87 68.18 309.50 68.83 C 315.13 69.47 322.05 71.76 327.50 74.84 C 332.95 77.91 337.75 81.98 342.23 87.29 C 346.70 92.61 350.69 98.91 354.37 106.72 C 358.06 114.53 362.68 124.46 364.33 134.15 C 365.98 143.83 366.34 154.90 364.26 164.83 C 362.18 174.76 356.84 185.74 351.85 193.73 C 346.85 201.72 341.30 206.73 334.29 212.77 C 327.29 218.82 318.01 225.42 309.82 229.98 C 301.63 234.54 293.39 237.05 285.17 240.13 C 276.95 243.21 268.30 245.83 260.50 248.48 C 252.70 251.12 244.89 253.73 238.35 256.01 C 231.81 258.29 227.17 259.53 221.27 262.16 C 215.37 264.79 208.53 268.54 202.96 271.80 C 197.38 275.06 192.31 277.82 187.81 281.72 C 183.30 285.62 179.31 290.27 175.92 295.21 C 172.54 300.14 169.56 306.17 167.51 311.34 C 165.45 316.50 163.92 320.82 163.61 326.21 C 163.30 331.61 163.95 337.76 165.66 343.69 C 167.36 349.62 170.45 356.43 173.82 361.82 C 177.19 367.20 181.19 372.25 185.88 375.99 C 190.57 379.73 196.55 381.75 201.95 384.27 C 207.34 386.78 211.82 389.71 218.23 391.09 C 224.64 392.46 232.53 393.20 240.42 392.49 C 248.31 391.79 257.80 389.98 265.59 386.85 C 273.39 383.71 280.51 379.50 287.19 373.69 C 293.88 367.88 301.19 358.92 305.70 351.98 C 310.22 345.03 312.21 339.60 314.29 332.02 C 316.37 324.43 318.51 315.25 318.19 306.47 C 317.86 297.69 315.84 287.69 312.34 279.34 C 308.84 270.99 303.27 262.86 297.20 256.37 C 291.13 249.88 282.41 244.46 275.92 240.42 C 269.44 236.39 265.03 233.08 258.28 232.14 C 251.52 231.20 242.68 232.75 235.40 234.79 C 228.13 236.83 220.15 239.80 214.63 244.39 C 209.11 248.99 204.99 255.92 202.30 262.37 C 199.60 268.82 198.05 276.66 198.48 283.08 C 198.90 289.49 201.20 295.10 204.84 300.87 C 208.48 306.64 214.52 313.39 220.33 317.71 C 226.14 322.03 232.59 325.36 239.72 326.78 C 246.84 328.20 255.43 328.14 263.06 326.22 C 270.68 324.29 279.82 319.72 285.47 315.26 C 291.12 310.79 293.34 305.43 296.95 299.44 C 300.57 293.44 305.14 286.52 307.17 279.28 C 309.19 272.05 309.43 263.73 309.11 256.03 C 308.79 248.33 307.54 240.34 305.26 233.07 C 302.97 225.80 299.54 217.73 295.41 212.43 C 291.29 207.12 286.66 204.00 280.50 201.22 C 274.35 198.45 265.89 196.21 258.48 195.76 C 251.07 195.32 243.13 196.52 236.04 198.56 C 228.94 200.59 222.47 204.54 215.91 207.96 C 209.35 211.38 202.12 215.86 196.66 219.09 C 191.19 222.31 188.21 224.50 183.11 227.32 C 178.01 230.14 171.52 233.52 166.05 236.01 C 160.59 238.50 155.72 240.55 150.31 242.27 C 144.90 243.99 138.55 246.03 133.62 246.33 C 128.68 246.62 124.32 245.43 120.70 244.03 C 117.09 242.63 114.78 240.91 111.94 237.91 C 109.10 234.92 105.53 230.53 103.65 226.07 C 101.76 221.60 100.69 216.32 100.64 211.10 C 100.59 205.89 101.34 200.45 103.36 194.77 C 105.38 189.10 109.18 182.15 112.74 177.05 C 116.31 171.94 119.69 168.86 124.76 164.15 C 129.82 159.44 136.30 152.67 143.13 148.80 C 149.96 144.94 157.28 142.72 165.74 140.97 C 174.21 139.22 184.65 138.34 193.89 138.31 C 203.14 138.28 212.91 139.43 221.21 140.79 C 229.52 142.15 235.97 144.10 243.73 146.47 C 251.50 148.85 259.95 152.21 267.81 155.04 C 275.67 157.87 283.78 160.70 290.91 163.45 C 298.04 166.21 304.27 169.63 310.62 171.57 C 316.96 173.52 323.71 174.42 328.99 175.14 C 334.27 175.86 337.68 176.03 342.31 175.90 C 346.95 175.78 352.57 175.85 356.82 174.39 C 361.08 172.93 364.90 169.94 367.85 167.15 C 370.80 164.37 372.99 161.59 374.52 157.66 C 376.04 153.73 377.55 147.79 377.01 143.58 C 376.47 139.37 374.21 136.75 371.26 132.40 C 368.32 128.04 364.44 121.54 359.34 117.45 C 354.25 113.37 347.83 110.29 340.71 107.88 C 333.59 105.46 324.77 102.95 316.61 102.97 C 308.46 102.99 299.60 105.78 291.77 108.01 C 283.93 110.23 277.39 112.05 269.61 116.31 C 261.83 120.56 252.12 126.72 245.09 133.56 C 238.05 140.39 232.10 148.65 227.40 157.33 C 222.70 166.00 219.13 176.34 216.91 185.63 C 214.69 194.92 213.58 204.91 214.07 213.08 C 214.56 221.26 216.48 227.42 219.84 234.66 C 223.19 241.91 228.74 250.91 234.22 256.53 C 239.70 262.16 245.83 265.80 252.70 268.43 C 259.57 271.06 268.07 272.26 275.43 272.32 C 282.80 272.38 290.70 270.64 296.89 268.79 C 303.08 266.95 307.19 264.06 312.56 261.24 C 317.94 258.43 324.29 255.56 329.16 251.92 C 334.03 248.27 337.76 243.35 341.80 239.39 C 345.84 235.43 349.62 232.04 353.41 228.17 C 357.19 224.30 361.03 219.21 364.52 216.19 C 368.02 213.16 370.53 212.09 374.39 210.01 C 378.24 207.93 383.78 205.54 387.65 203.70 C 391.52 201.86 394.10 200.33 397.61 198.95 C 401.12 197.57 404.96 195.70 408.72 195.41 C 412.48 195.12 416.73 196.31 420.17 197.22 C 423.62 198.12 426.23 198.55 429.39 200.86 C 432.55 203.17 436.39 207.04 439.14 211.10 C 441.89 215.16 444.37 219.73 445.89 225.22 C 447.42 230.71 448.16 237.57 448.29 244.03 C 448.42 250.48 447.26 257.98 446.68 263.95 C 446.10 269.92 447.00 273.64 444.80 279.86 C 442.61 286.08 438.19 294.52 433.51 301.25 C 428.82 307.97 423.34 314.34 416.69 320.20 C 410.05 326.07 401.90 331.84 393.65 336.43 C 385.40 341.02 375.59 345.17 367.21 347.72 C 358.83 350.28 351.87 351.16 343.38 351.76 C 334.89 352.36 325.30 352.06 316.27 351.33 C 307.25 350.60 297.52 349.97 289.22 347.37 C 280.93 344.76 274.05 340.09 266.49 335.70 C 258.93 331.31 250.31 325.69 243.88 321.04 C 237.46 316.38 233.74 312.42 227.92 307.78 C 222.10 303.15 215.09 297.66 208.96 293.25 C 202.84 288.83 196.86 285.10 191.17 281.31 C 185.48 277.52 180.31 273.62 174.82 270.51 C 169.33 267.39 162.99 264.71 158.23 262.63 C 153.48 260.55 150.73 259.96 146.30 258.03 C 141.86 256.10 136.59 253.12 131.64 251.04 C 126.68 248.97 121.48 246.67 116.57 245.58 C 111.66 244.49 106.56 244.29 102.17 244.50 C 97.79 244.72 93.71 245.83 90.23 246.85 C 86.75 247.87 84.46 248.77 81.29 250.60 C 78.12 252.44 73.72 255.07 71.21 257.85 C 68.71 260.63 67.75 263.16 66.24 267.28 C 64.73 271.41 62.69 277.29 62.17 282.61 C 61.65 287.94 62.15 293.90 63.12 299.24 C 64.10 304.58 65.17 309.23 68.00 314.68 C 70.83 320.13 75.05 326.27 80.11 331.94 C 85.17 337.61 91.64 343.84 98.36 348.70 C 105.07 353.56 112.43 357.67 120.39 361.07 C 128.36 364.47 137.82 367.92 146.15 369.10 C 154.48 370.29 161.37 369.99 170.39 368.20 C 179.40 366.40 191.06 362.92 200.22 358.33 C 209.39 353.74 219.10 347.94 225.36 340.66 C 231.62 333.39 235.70 323.70 237.76 314.68 C 239.82 305.66 238.49 294.45 237.70 286.56 C 236.91 278.68 235.99 273.64 233.02 267.38 C 230.05 261.11 224.39 254.36 219.89 248.98 C 215.38 243.61 211.38 238.27 205.98 235.13 C 200.59 231.99 193.47 230.02 187.52 230.15 C 181.56 230.28 175.01 233.73 170.25 235.91 C 165.49 238.08 162.76 239.51 158.96 243.20 C 155.15 246.89 150.83 252.84 147.44 258.07 C 144.04 263.30 141.11 269.05 138.60 274.58 C 136.09 280.11 134.26 285.75 132.37 291.27 C 130.49 296.79 128.92 303.29 127.28 307.70 C 125.64 312.11 124.34 314.28 122.53 317.70 C 120.73 321.13 118.34 324.57 116.44 328.26 C 114.54 331.95 113.11 336.29 111.12 339.86 C 109.14 343.42 106.88 347.14 104.52 349.66 C 102.15 352.18 99.52 353.32 96.94 354.97 C 94.35 356.63 92.01 358.95 89.02 359.60 C 86.03 360.25 82.13 359.30 78.98 358.87 C 75.84 358.44 73.34 358.08 70.15 357.02 C 66.96 355.97 62.89 354.29 59.82 352.53 C 56.75 350.77 54.00 348.66 51.73 346.46 C 49.46 344.26 48.21 342.05 46.19 339.33 C 44.17 336.60 41.64 333.69 39.61 330.09 C 37.59 326.49 35.83 322.60 34.05 317.73 C 32.27 312.85 29.96 306.37 28.94 300.84 C 27.92 295.31 27.84 290.18 27.92 284.53 C 27.99 278.89 27.54 273.84 29.41 266.98 C 31.29 260.11 35.06 250.64 39.15 243.34 C 43.23 236.05 47.79 229.90 53.92 223.21 C 60.05 216.52 68.16 209.02 75.93 203.20 C 83.71 197.38 92.82 192.56 100.57 188.28 C 108.33 183.99 113.86 180.71 122.46 177.51 C 131.07 174.30 142.42 170.37 152.19 169.02 C 161.95 167.68 171.55 167.82 181.05 169.44 C 190.55 171.06 200.49 174.67 209.18 178.74 C 217.88 182.80 226.45 188.73 233.21 193.82 C 239.96 198.92 245.11 202.76 249.70 209.29 C 254.29 215.83 259.04 225.04 260.75 233.06 C 262.46 241.08 261.31 249.90 259.96 257.41 C 258.61 264.92 256.67 272.71 252.67 278.12 C 248.67 283.53 241.60 287.38 235.94 289.88 C 230.28 292.38 225.02 293.71 218.71 293.10 C 212.41 292.49 204.11 289.65 198.11 286.22 C 192.11 282.80 186.60 278.31 182.71 272.56 C 178.81 266.82 175.99 258.94 174.75 251.74 C 173.52 244.54 173.95 236.20 175.30 229.36 C 176.64 222.52 178.70 216.53 182.83 210.70 C 186.95 204.87 193.36 198.36 200.05 194.38 C 206.75 190.39 215.20 188.10 223.01 186.80 C 230.81 185.49 239.22 185.13 246.91 186.55 C 254.59 187.97 262.62 192.63 269.10 195.32 C 275.59 198.01 279.41 200.08 285.84 202.68 C 292.27 205.28 300.64 208.48 307.70 210.89 C 314.77 213.30 321.80 215.34 328.23 217.12 C 334.66 218.89 340.42 220.33 346.26 221.53 C 352.09 222.74 358.19 224.63 363.23 224.34 C 368.26 224.05 372.45 221.76 376.47 219.78 C 380.50 217.79 383.69 215.16 387.39 212.43 C 391.09 209.70 395.56 206.10 398.67 203.38 C 401.79 200.65 403.23 198.37 406.09 196.09 C 408.96 193.80 412.93 191.51 415.85 189.67 C 418.77 187.84 420.66 185.93 423.61 185.09 C 426.56 184.26 430.22 184.26 433.54 184.67 C 436.85 185.08 440.17 186.15 443.49 187.55 C 446.82 188.95 450.45 190.30 453.48 193.08 C 456.51 195.87 459.37 200.63 461.67 204.25 C 463.97 207.87 465.11 210.92 467.26 214.78 C 469.41 218.64 472.55 223.73 474.57 227.39 C 476.59 231.06 477.94 233.30 479.39 236.77 C 480.83 240.24 481.92 244.85 483.25 248.22 C 484.58 251.60 485.72 255.13 487.36 257.03 C 489.00 258.93 491.08 258.84 493.09 259.60 C 495.11 260.37 497.62 262.18 499.46 261.64 C 501.30 261.09 502.84 258.40 504.14 256.32 C 505.44 254.25 506.52 252.27 507.25 249.17 C 507.98 246.08 508.28 241.38 508.51 237.76 C 508.74 234.14 508.74 231.87 508.64 227.45 C 508.54 223.03 508.76 216.62 507.91 211.23 C 507.05 205.84 505.95 200.55 503.50 195.13 C 501.05 189.71 497.29 184.49 493.21 178.69 C 489.13 172.89 484.20 165.45 479.02 160.34 C 473.85 155.24 468.77 152.20 462.15 148.06 C 455.54 143.92 447.39 139.39 439.35 135.51 C 431.31 131.63 422.99 127.47 413.92 124.80 C 404.85 122.14 395.22 120.00 384.93 119.52 C 374.64 119.05 361.83 120.56 352.18 121.96 C 342.54 123.36 335.89 124.80 327.05 127.93 C 318.22 131.07 307.72 135.17 299.17 140.79 C 290.62 146.41 282.31 154.20 275.78 161.64 C 269.25 169.08 264.34 176.96 259.99 185.43 C 255.64 193.90 251.81 204.27 249.67 212.45 C 247.53 220.63 247.43 226.67 247.15 234.51 C 246.87 242.35 247.69 251.51 247.99 259.47 C 248.30 267.44 248.95 274.98 248.98 282.30 C 249.00 289.62 248.69 296.58 248.12 303.39 C 247.55 310.20 246.29 317.45 245.54 323.18 C 244.78 328.90 244.90 332.62 243.58 337.73 C 242.25 342.84 240.11 348.79 237.60 353.86 C 235.10 358.92 232.00 364.38 228.54 368.14 C 225.08 371.89 221.64 374.60 216.82 376.38 C 212.00 378.16 205.10 378.57 199.64 378.81 C 194.19 379.05 189.79 378.75 184.10 377.84 C 178.41 376.92 171.11 376.01 165.49 373.31 C 159.87 370.61 155.39 366.26 150.38 361.62 C 145.38 356.98 139.79 351.33 135.45 345.46 C 131.11 339.59 127.23 332.70 124.34 326.41 C 121.46 320.12 120.11 314.30 118.14 307.73 C 116.18 301.16 114.72 293.69 112.56 286.98 C 110.40 280.27 107.89 273.15 105.19 267.47 C 102.49 261.80 98.86 257.43 96.37 252.94 C 93.89 248.44 92.47 243.95 90.29 240.49 C 88.11 237.03 85.87 234.83 83.30 232.18 C 80.74 229.52 77.89 225.63 74.89 224.56 C 71.89 223.49 68.43 224.21 65.29 225.77 C 62.14 227.33 58.61 230.30 56.00 233.94 C 53.40 237.58 50.78 242.93 49.66 247.60 C 48.54 252.26 48.77 256.50 49.27 261.91 C 49.76 267.31 50.42 273.47 52.63 280.04 C 54.85 286.61 58.66 294.43 62.55 301.34 C 66.44 308.25 69.87 315.49 75.96 321.49 C 82.05 327.50 91.52 333.37 99.07 337.34 C 106.63 341.32 112.49 343.69 121.28 345.33 C 130.08 346.97 141.72 347.12 151.86 347.16 C 161.99 347.21 172.11 347.04 182.10 345.60 C 192.09 344.17 202.65 341.77 211.82 338.55 C 220.99 335.33 229.75 330.64 237.11 326.29 C 244.47 321.94 250.33 318.11 255.98 312.45 C 261.64 306.79 267.31 299.63 271.03 292.32 C 274.76 285.00 277.14 276.59 278.32 268.56 C 279.50 260.53 279.48 251.79 278.12 244.14 C 276.76 236.48 273.21 228.81 270.15 222.61 C 267.09 216.42 264.73 211.03 259.77 206.98 C 254.81 202.94 247.21 199.82 240.39 198.34 C 233.58 196.87 225.73 196.86 218.91 198.12 C 212.08 199.38 205.11 201.92 199.44 205.89 C 193.76 209.87 188.32 216.27 184.87 221.95 C 181.42 227.63 179.55 233.16 178.73 239.98 C 177.91 246.81 178.18 255.42 179.95 262.88 C 181.71 270.35 185.17 277.86 189.32 284.77 C 193.47 291.68 198.60 298.99 204.83 304.35 C 211.07 309.72 219.63 314.20 226.75 316.96 C 233.86 319.72 240.04 321.15 247.52 320.93 C 255.00 320.70 264.48 318.79 271.61 315.62 C 278.74 312.44 285.43 308.01 290.29 301.88 C 295.15 295.76 299.12 286.71 300.79 278.86 C 302.47 271.02 301.99 261.76 300.34 254.82 C 298.70 247.87 295.58 242.59 290.91 237.19 C 286.24 231.80 279.05 225.82 272.32 222.46 C 265.59 219.09 258.00 216.89 250.55 217.01 C 243.11 217.14 234.17 219.63 227.65 223.19 C 221.13 226.75 215.18 232.82 211.43 238.39 C 207.68 243.96 205.92 249.85 205.17 256.61 C 204.42 263.36 205.69 271.99 206.93 278.92 C 208.17 285.85 209.91 291.90 212.61 298.20 C 215.32 304.49 218.59 311.75 223.16 316.66 C 227.73 321.58 234.11 325.36 240.06 327.69 C 246.01 330.03 251.99 330.74 258.85 330.66 C 265.70 330.58 274.28 329.80 281.20 327.24 C 288.12 324.68 294.59 320.43 300.39 315.28 C 306.19 310.13 312.30 303.43 316.02 296.34 C 319.73 289.26 322.11 280.14 322.69 272.77 C 323.27 265.39 321.86 258.88 319.50 252.09 C 317.14 245.29 313.47 237.99 308.53 231.99 C 303.60 225.99 297.12 219.89 289.91 216.10 C 282.70 212.30 273.24 210.16 265.30 209.23 C 257.35 208.29 248.95 208.51 242.24 210.47 C 235.53 212.44 230.06 215.95 225.03 221.04 C 220.00 226.12 215.20 234.32 212.05 240.99 C 208.90 247.67 206.47 253.80 206.11 261.09 C 205.74 268.38 207.24 277.57 209.87 284.72 C 212.50 291.88 217.37 299.26 221.90 304.02 C 226.42 308.78 231.08 311.01 237.03 313.28 C 242.98 315.55 250.19 317.37 257.60 317.64 C 265.01 317.91 274.10 316.35 281.50 314.90 C 288.89 313.44 295.50 311.12 301.99 308.91 C 308.48 306.70 314.94 303.98 320.44 301.64 C 325.94 299.29 329.77 297.07 334.99 294.87 C 340.21 292.66 345.93 290.15 351.77 288.40 C 357.61 286.65 364.46 285.13 370.02 284.37 C 375.58 283.60 380.47 283.69 385.14 283.80 C 389.81 283.92 394.23 283.73 398.03 285.05 C 401.83 286.37 405.47 288.50 407.96 291.71 C 410.46 294.93 411.89 299.72 413.01 304.34 C 414.14 308.96 414.61 314.41 414.74 319.43 C 414.86 324.45 415.33 329.11 413.77 334.46 C 412.20 339.82 408.64 346.32 405.33 351.55 C 402.03 356.79 398.80 361.69 393.95 365.89 C 389.11 370.08 383.68 373.75 376.28 376.72 C 368.89 379.69 358.51 382.29 349.61 383.71 C 340.71 385.13 331.99 386.12 322.88 385.22 C 313.78 384.32 303.20 381.20 294.98 378.30 C 286.76 375.40 280.23 373.04 273.57 367.81 C 266.91 362.58 260.33 354.54 255.01 346.90 C 249.70 339.27 244.82 330.39 241.68 322.00 C 238.54 313.61 236.71 304.99 236.16 296.57 C 235.61 288.15 236.32 278.64 238.36 271.46 C 240.39 264.29 243.67 259.08 248.35 253.51 C 253.04 247.94 260.29 242.21 266.47 238.05 C 272.64 233.90 279.39 231.32 285.40 228.58 C 291.41 225.85 297.07 224.01 302.51 221.65 C 307.94 219.28 313.12 216.92 318.00 214.39 C 322.88 211.85 327.33 209.55 331.77 206.44 C 336.21 203.33 341.04 199.57 344.64 195.70 C 348.23 191.83 351.53 187.87 353.36 183.23 C 355.19 178.58 355.93 173.00 355.64 167.85 C 355.34 162.70 353.16 156.98 351.57 152.33 C 349.98 147.67 348.75 144.42 346.09 139.91 C 343.42 135.39 339.70 129.81 335.60 125.22 C 331.51 120.64 326.20 116.43 321.53 112.41 C 316.86 108.39 311.50 104.97 307.57 101.10 C 303.64 97.22 300.66 92.65 297.96 89.15 C 295.26 85.64 293.32 83.62 291.40 80.06 C 289.47 76.50 288.14 71.20 286.41 67.79 C 284.68 64.38 281.50 62.22 281.01 59.59 C 280.51 56.96 282.22 54.10 283.44 52.00 C 284.66 49.90 286.21 48.34 288.32 46.99 C 290.43 45.64 292.71 44.88 296.13 43.90 C 299.55 42.91 304.43 41.25 308.84 41.05 C 313.26 40.84 317.51 41.34 322.61 42.67 C 327.71 44.01 333.94 46.17 339.46 49.06 C 344.99 51.95 350.94 55.75 355.75 60.01 C 360.56 64.26 364.29 68.53 368.34 74.60 C 372.38 80.66 376.78 88.35 380.00 96.40 C 383.21 104.45 385.69 113.60 387.64 122.89 C 389.59 132.17 391.56 142.41 391.68 152.10 C 391.80 161.79 389.92 172.36 388.36 181.04 C 386.79 189.71 385.37 195.76 382.29 204.14 C 379.21 212.52 374.64 223.18 369.87 231.32 C 365.11 239.46 360.08 246.49 353.69 252.99 C 347.30 259.49 339.28 265.67 331.53 270.32 C 323.77 274.98 314.83 278.59 307.16 280.92 C 299.48 283.25 293.12 283.63 285.48 284.31 C 277.84 284.98 269.13 284.91 261.32 284.97 C 253.51 285.03 246.18 285.38 238.63 284.67 C 231.07 283.96 223.27 281.69 215.99 280.72 C 208.72 279.74 200.77 279.47 194.97 278.82 C 189.17 278.17 186.23 276.92 181.21 276.82 C 176.18 276.73 170.33 277.51 164.82 278.26 C 159.31 279.01 153.18 279.75 148.17 281.30 C 143.16 282.85 138.48 285.16 134.77 287.56 C 131.06 289.95 128.17 292.54 125.92 295.67 C 123.67 298.80 122.54 301.86 121.26 306.34 C 119.98 310.82 118.06 316.97 118.25 322.56 C 118.44 328.14 119.96 334.43 122.38 339.86 C 124.80 345.28 128.28 349.92 132.75 355.09 C 137.23 360.25 143.39 366.67 149.24 370.84 C 155.09 375.01 160.66 377.57 167.87 380.10 C 175.07 382.62 184.24 384.83 192.46 386.00 C 200.69 387.17 208.88 387.05 217.23 387.10 C 225.59 387.14 234.57 386.73 242.60 386.24 C 250.63 385.75 258.58 384.81 265.41 384.15 C 272.25 383.48 277.30 382.50 283.61 382.25 C 289.91 382.00 297.44 382.02 303.23 382.67 C 309.02 383.32 313.70 384.48 318.35 386.14 C 323.00 387.80 327.19 390.48 331.13 392.64 C 335.07 394.79 339.45 396.36 341.99 399.06 C 344.52 401.76 345.70 405.48 346.36 408.84 C 347.02 412.21 347.56 415.52 345.93 419.25 C 344.31 422.98 340.49 428.07 336.61 431.22 C 332.72 434.37 328.81 436.74 322.63 438.13 C 316.45 439.52 306.93 439.96 299.53 439.56 C 292.12 439.16 285.95 438.32 278.21 435.73 C 270.47 433.14 260.70 429.73 253.08 424.01 C 245.46 418.28 238.33 409.58 232.50 401.37 C 226.67 393.15 221.75 384.23 218.11 374.70 C 214.47 365.16 212.30 352.98 210.65 344.15 C 209.01 335.33 208.55 330.21 208.24 321.75 C 207.94 313.30 208.37 302.36 208.83 293.42 C 209.30 284.49 209.86 276.40 211.02 268.14 C 212.18 259.88 214.94 251.63 215.79 243.86 C 216.63 236.10 215.98 228.11 216.09 221.56 C 216.19 215.01 216.52 210.81 216.41 204.57 C 216.30 198.33 215.89 190.10 215.44 184.13 C 214.98 178.16 214.01 173.97 213.67 168.75 C 213.33 163.53 213.10 158.20 213.42 152.80 C 213.73 147.39 214.56 141.05 215.57 136.32 C 216.58 131.60 217.12 128.15 219.48 124.43 C 221.85 120.70 226.08 117.45 229.74 113.96 C 233.41 110.47 237.04 106.45 241.47 103.48 C 245.90 100.51 250.78 97.82 256.34 96.13 C 261.89 94.44 269.17 93.18 274.79 93.35 C 280.41 93.52 284.31 95.53 290.05 97.16 C 295.80 98.78 302.97 99.90 309.28 103.11 C 315.58 106.32 321.81 111.71 327.90 116.42 C 334.00 121.13 340.48 125.71 345.84 131.39 C 351.21 137.07 356.56 144.08 360.10 150.50 C 363.64 156.93 364.85 162.78 367.09 169.93 C 369.33 177.08 372.19 185.56 373.53 193.39 C 374.87 201.23 374.99 208.72 375.13 216.93 C 375.26 225.15 375.95 234.45 374.34 242.70 C 372.73 250.95 368.60 259.43 365.45 266.45 C 362.30 273.47 359.96 278.57 355.43 284.81 C 350.89 291.04 344.94 298.74 338.24 303.86 C 331.54 308.97 323.05 312.42 315.23 315.50 C 307.41 318.58 299.42 320.86 291.34 322.32 C 283.27 323.78 274.04 324.60 266.78 324.26 C 259.51 323.91 254.82 321.99 247.75 320.25 C 240.68 318.51 231.26 316.69 224.36 313.80 C 217.45 310.91 212.18 307.50 206.33 302.91 C 200.48 298.33 194.08 291.78 189.25 286.27 C 184.42 280.76 180.50 275.24 177.34 269.86 C 174.18 264.49 171.93 260.13 170.30 254.01 C 168.67 247.90 166.84 240.12 167.57 233.18 C 168.31 226.23 171.41 219.14 174.68 212.34 C 177.96 205.53 182.79 198.29 187.23 192.35 C 191.67 186.40 196.51 180.95 201.33 176.64 C 206.16 172.33 210.43 169.77 216.17 166.48 C 221.90 163.18 228.62 159.25 235.73 156.87 C 242.84 154.49 251.25 152.32 258.82 152.21 C 266.39 152.10 273.98 153.97 281.14 156.20 C 288.31 158.44 295.49 161.91 301.82 165.63 C 308.16 169.34 313.96 173.19 319.15 178.48 C 324.35 183.78 329.36 190.56 332.98 197.38 C 336.61 204.21 339.39 211.88 340.89 219.43 C 342.39 226.98 343.09 235.19 341.96 242.68 C 340.83 250.17 337.77 258.01 334.10 264.36 C 330.43 270.72 325.80 275.90 319.95 280.80 C 314.09 285.70 306.28 290.76 298.96 293.76 C 291.63 296.76 283.86 298.81 276.00 298.80 C 268.15 298.80 259.14 296.87 251.80 293.72 C 244.47 290.57 237.12 284.79 231.98 279.92 C 226.83 275.06 223.53 271.05 220.93 264.53 C 218.33 258.00 216.61 248.55 216.36 240.78 C 216.10 233.01 216.98 225.03 219.40 217.92 C 221.83 210.81 226.34 203.59 230.94 198.13 C 235.53 192.68 241.49 188.27 246.96 185.20 C 252.43 182.14 257.18 180.64 263.76 179.75 C 270.35 178.87 279.33 179.10 286.46 179.90 C 293.60 180.70 300.04 181.93 306.56 184.57 C 313.09 187.21 319.52 191.50 325.61 195.74 C 331.71 199.98 338.49 205.27 343.14 210.01 C 347.80 214.75 350.12 219.15 353.54 224.18 C 356.96 229.21 360.00 235.14 363.67 240.20 C 367.35 245.26 371.40 250.68 375.58 254.54 C 379.77 258.39 384.46 261.22 388.81 263.33 C 393.15 265.45 397.99 266.92 401.64 267.20 C 405.29 267.47 407.54 266.70 410.71 264.99 C 413.88 263.28 417.69 260.40 420.65 256.93 C 423.62 253.46 426.46 248.83 428.50 244.16 C 430.54 239.49 431.85 234.32 432.89 228.92 C 433.93 223.51 434.39 216.88 434.75 211.74 C 435.12 206.61 435.28 203.15 435.09 198.10 C 434.89 193.04 433.80 186.56 433.57 181.42 C 433.35 176.29 433.42 171.41 433.73 167.29 C 434.04 163.18 434.47 159.72 435.44 156.73 C 436.41 153.75 438.06 151.48 439.54 149.38 C 441.02 147.28 442.15 145.49 444.31 144.12 C 446.47 142.75 449.90 141.15 452.51 141.16 C 455.12 141.18 457.31 142.68 459.99 144.20 C 462.66 145.73 465.83 147.19 468.57 150.31 C 471.31 153.42 474.32 158.49 476.44 162.88 C 478.55 167.27 480.04 170.86 481.25 176.64 C 482.46 182.42 483.99 190.00 483.73 197.56 C 483.47 205.12 482.32 213.74 479.69 222.00 C 477.06 230.26 473.18 239.19 467.95 247.10 C 462.72 255.01 455.03 262.84 448.32 269.48 C 441.60 276.12 435.32 281.23 427.64 286.96 C 419.96 292.68 411.37 298.88 402.22 303.83 C 393.07 308.78 382.73 314.33 372.71 316.66 C 362.69 319.00 352.17 318.45 342.08 317.85 C 331.99 317.25 320.83 315.17 312.17 313.05 C 303.51 310.93 297.60 308.41 290.13 305.12 C 282.65 301.84 274.64 298.05 267.32 293.33 C 260.00 288.61 252.72 282.35 246.23 276.79 C 239.73 271.22 233.94 265.45 228.37 259.93 C 222.81 254.41 217.90 247.77 212.84 243.65 C 207.79 239.53 203.13 238.38 198.06 235.19 C 192.99 231.99 187.57 227.89 182.43 224.49 C 177.29 221.10 171.87 217.79 167.23 214.83 C 162.59 211.86 158.92 208.88 154.59 206.72 C 150.26 204.55 145.68 202.65 141.23 201.85 C 136.78 201.04 132.11 200.60 127.87 201.87 C 123.64 203.14 119.71 205.92 115.83 209.46 C 111.95 212.99 107.76 218.39 104.60 223.10 C 101.43 227.80 98.68 232.08 96.85 237.68 C 95.03 243.27 94.08 250.74 93.66 256.67 C 93.23 262.61 93.39 267.05 94.32 273.28 C 95.25 279.51 96.71 287.35 99.24 294.08 C 101.77 300.80 105.03 307.55 109.50 313.61 C 113.97 319.67 119.73 325.11 126.04 330.43 C 132.35 335.74 140.56 341.53 147.38 345.52 C 154.21 349.52 159.32 352.17 166.97 354.40 C 174.63 356.62 184.54 358.84 193.30 358.87 C 202.06 358.91 210.75 356.49 219.54 354.61 C 228.34 352.74 237.76 350.53 246.06 347.64 C 254.37 344.75 263.01 341.66 269.37 337.27 C 275.73 332.88 279.09 327.19 284.21 321.30 C 289.32 315.41 295.62 308.81 300.06 301.91 C 304.50 295.02 308.81 287.82 310.84 279.95 C 312.86 272.09 312.18 262.72 312.21 254.73 C 312.24 246.74 312.38 238.84 311.01 232.01 C 309.65 225.19 307.72 219.64 304.02 213.77 C 300.32 207.91 294.36 201.59 288.82 196.84 C 283.28 192.08 277.32 187.97 270.77 185.25 C 264.23 182.53 256.69 180.31 249.54 180.54 C 242.39 180.77 234.25 183.93 227.89 186.64 C 221.52 189.35 216.99 192.26 211.35 196.80 C 205.70 201.34 199.01 207.94 194.02 213.88 C 189.02 219.81 184.93 225.87 181.39 232.39 C 177.86 238.91 175.38 246.58 172.79 253.01 C 170.21 259.44 168.43 265.90 165.88 270.97 C 163.34 276.05 160.75 279.42 157.52 283.48 C 154.30 287.53 150.37 291.66 146.55 295.30 C 142.74 298.93 138.60 302.35 134.62 305.29 C 130.65 308.23 126.42 310.79 122.70 312.93 C 118.97 315.07 115.58 316.68 112.26 318.15 C 108.93 319.62 105.87 320.42 102.73 321.76 C 99.60 323.09 96.48 324.08 93.43 326.16 C 90.38 328.24 86.77 331.52 84.45 334.24 C 82.12 336.96 80.92 339.27 79.49 342.46 C 78.06 345.65 76.78 350.07 75.87 353.38 C 74.97 356.69 74.08 358.63 74.08 362.32 C 74.09 366.01 74.22 370.92 75.91 375.53 C 77.59 380.14 81.28 385.31 84.20 389.97 C 87.13 394.63 90.82 399.36 93.47 403.51 C 96.11 407.66 97.86 411.57 100.07 414.88 C 102.28 418.19 104.84 420.54 106.73 423.36 C 108.63 426.19 110.52 428.89 111.44 431.82 C 112.36 434.75 112.11 438.28 112.25 440.94 C 112.39 443.59 112.60 445.27 112.27 447.76 C 111.94 450.24 110.92 453.66 110.25 455.85 C 109.58 458.04 109.49 459.93 108.27 460.91 C 107.05 461.90 104.27 461.28 102.91 461.78 C 101.55 462.27 101.11 463.07 100.11 463.89 C 99.11 464.72 98.18 466.17 96.91 466.75 C 95.64 467.32 93.37 466.56 92.49 467.34 C 91.62 468.11 91.27 469.73 91.65 471.39 C 92.03 473.05 93.40 475.56 94.79 477.31 C 96.17 479.06 97.56 480.08 99.97 481.90 C 102.38 483.72 105.30 486.35 109.23 488.24 C 113.16 490.12 118.77 491.60 123.53 493.23 C 128.29 494.87 131.64 497.15 137.79 498.04 C 143.95 498.93 152.34 499.12 160.45 498.56 C 168.56 498.01 177.45 497.65 186.46 494.72 C 195.46 491.80 205.59 486.68 214.48 481.03 C 223.37 475.38 232.74 467.88 239.78 460.81 C 246.83 453.74 251.74 447.19 256.75 438.62 C 261.76 430.04 266.62 419.51 269.84 409.39 C 273.07 399.26 275.10 388.26 276.09 377.86 C 277.07 367.45 277.07 357.13 275.76 346.94 C 274.44 336.76 271.22 324.89 268.19 316.73 C 265.15 308.58 262.32 303.64 257.55 298.02 C 252.77 292.41 246.07 286.71 239.55 283.07 C 233.02 279.43 227.54 275.92 218.39 276.19 C 209.24 276.46 190.26 283.26 184.63 284.68" fill="none" stroke="#fff" stroke-width="4.48" stroke-opacity="1" stroke-linecap="round" stroke-linejoin="round"/>
  </g>
</svg>