<?xml version="1.0" encoding="UTF-8"?>
<svg xmlns="http://www.w3.org/2000/svg" width="512" height="512" viewBox="0 0 512 512">
  <rect width="100%" height="100%" fill="#000"/>
  <g>
    <path d="M 256.00 256.00 C 253.74 257.29 247.41 261.29 242.42 263.74 C 237.43 266.19 231.47 269.44 226.07 270.69 C 220.66 271.94 215.59 271.70 209.99 271.24 C 204.40 270.77 197.29 269.33 192.47 267.90 C 187.66 266.48 185.14 265.32 181.09 262.71 C 177.03 260.09 171.84 256.25 168.13 252.20 C 164.43 248.15 161.38 243.27 158.86 238.42 C 156.34 233.57 154.33 227.59 153.01 223.11 C 151.69 218.63 151.16 216.00 150.93 211.54 C 150.70 207.07 150.99 201.33 151.64 196.33 C 152.30 191.33 153.91 186.50 154.87 181.51 C 155.83 176.53 156.39 170.78 157.41 166.41 C 158.43 162.04 159.72 159.17 160.99 155.29 C 162.27 151.42 164.00 147.31 165.05 143.16 C 166.10 139.01 166.75 134.46 167.29 130.38 C 167.83 126.30 168.78 121.88 168.27 118.70 C 167.75 115.52 166.10 113.47 164.21 111.31 C 162.31 109.15 159.62 107.29 156.92 105.74 C 154.22 104.19 151.13 102.65 147.98 102.02 C 144.83 101.39 141.15 101.37 138.05 101.95 C 134.94 102.52 132.50 104.05 129.33 105.47 C 126.16 106.89 122.52 108.55 119.01 110.46 C 115.49 112.38 111.54 114.19 108.24 116.97 C 104.94 119.74 101.99 123.62 99.23 127.13 C 96.46 130.64 94.32 133.64 91.65 138.03 C 88.98 142.41 85.32 148.15 83.21 153.45 C 81.11 158.74 80.10 163.92 79.02 169.78 C 77.95 175.63 77.31 182.93 76.75 188.57 C 76.20 194.21 75.31 197.41 75.69 203.63 C 76.07 209.85 77.48 218.74 79.03 225.89 C 80.57 233.03 82.03 239.89 84.96 246.51 C 87.88 253.14 92.80 260.01 96.57 265.67 C 100.34 271.32 103.30 275.13 107.58 280.43 C 111.86 285.72 116.63 292.27 122.25 297.45 C 127.87 302.64 134.48 307.49 141.31 311.53 C 148.13 315.57 156.74 318.72 163.19 321.70 C 169.64 324.68 173.78 327.33 180.01 329.40 C 186.25 331.47 193.77 333.37 200.59 334.13 C 207.42 334.89 213.82 334.64 220.97 333.96 C 228.13 333.29 237.09 331.67 243.52 330.10 C 249.95 328.53 253.82 327.17 259.55 324.53 C 265.28 321.90 272.08 318.27 277.90 314.29 C 283.72 310.30 289.66 305.62 294.47 300.61 C 299.29 295.60 303.04 289.59 306.78 284.24 C 310.53 278.89 314.27 273.57 316.94 268.50 C 319.60 263.43 320.72 258.76 322.75 253.81 C 324.78 248.87 327.21 243.99 329.14 238.84 C 331.06 233.69 332.70 228.08 334.28 222.93 C 335.86 217.78 337.26 212.15 338.62 207.93 C 339.99 203.72 340.85 201.11 342.47 197.66 C 344.09 194.21 345.77 190.53 348.32 187.21 C 350.87 183.90 354.50 180.42 357.77 177.74 C 361.03 175.06 365.16 173.05 367.91 171.13 C 370.66 169.21 372.08 168.03 374.26 166.22 C 376.45 164.42 378.92 162.27 381.00 160.32 C 383.09 158.37 385.19 157.04 386.76 154.52 C 388.33 151.99 389.55 147.94 390.43 145.17 C 391.31 142.41 391.84 140.87 392.04 137.93 C 392.25 134.98 392.21 130.95 391.64 127.49 C 391.08 124.03 389.88 120.66 388.65 117.17 C 387.42 113.68 385.87 109.81 384.25 106.55 C 382.63 103.30 381.50 100.59 378.93 97.65 C 376.36 94.71 372.31 91.74 368.83 88.89 C 365.35 86.03 362.59 83.04 358.05 80.53 C 353.51 78.02 346.69 75.46 341.59 73.83 C 336.50 72.20 333.05 71.27 327.47 70.74 C 321.89 70.21 314.69 70.14 308.12 70.65 C 301.56 71.17 294.74 72.17 288.08 73.83 C 281.41 75.50 274.22 78.21 268.13 80.63 C 262.05 83.05 257.50 85.05 251.56 88.35 C 245.61 91.66 238.57 95.95 232.48 100.45 C 226.38 104.95 220.39 109.84 214.98 115.35 C 209.57 120.86 204.04 127.87 200.00 133.53 C 195.96 139.18 193.70 142.89 190.75 149.29 C 187.79 155.69 184.26 164.41 182.26 171.93 C 180.26 179.44 179.47 186.71 178.74 194.37 C 178.02 202.03 177.84 210.90 177.91 217.88 C 177.98 224.86 177.81 229.96 179.15 236.22 C 180.48 242.49 183.29 249.03 185.93 255.48 C 188.57 261.94 191.71 269.19 194.97 274.95 C 198.23 280.71 201.87 285.73 205.50 290.03 C 209.12 294.33 212.10 297.24 216.73 300.76 C 221.37 304.29 227.56 308.40 233.30 311.19 C 239.04 313.98 245.04 315.72 251.19 317.51 C 257.33 319.29 264.04 321.16 270.16 321.89 C 276.28 322.63 282.66 322.07 287.91 321.90 C 293.15 321.72 296.63 321.81 301.64 320.83 C 306.66 319.86 312.67 318.03 318.01 316.05 C 323.35 314.08 329.02 311.89 333.68 308.99 C 338.35 306.08 342.33 302.06 346.00 298.63 C 349.66 295.20 352.77 292.64 355.68 288.40 C 358.59 284.16 361.23 278.31 363.45 273.19 C 365.68 268.06 367.70 263.08 369.03 257.66 C 370.37 252.25 371.20 245.61 371.44 240.69 C 371.68 235.77 371.27 233.20 370.48 228.13 C 369.69 223.07 368.33 215.82 366.69 210.32 C 365.05 204.83 363.19 200.35 360.64 195.18 C 358.10 190.01 354.52 183.90 351.40 179.32 C 348.29 174.74 346.11 171.33 341.94 167.70 C 337.78 164.07 331.86 160.24 326.42 157.55 C 320.98 154.87 315.23 153.20 309.30 151.59 C 303.36 149.98 296.57 148.35 290.82 147.88 C 285.08 147.42 280.83 147.86 274.83 148.81 C 268.82 149.76 261.22 151.57 254.81 153.58 C 248.39 155.59 242.27 157.62 236.34 160.88 C 230.41 164.14 224.03 169.42 219.24 173.12 C 214.44 176.82 211.77 178.66 207.59 183.09 C 203.41 187.52 197.82 193.86 194.16 199.71 C 190.49 205.57 188.15 212.02 185.60 218.23 C 183.04 224.44 180.40 231.19 178.84 236.96 C 177.27 242.74 176.51 247.04 176.22 252.89 C 175.92 258.74 176.09 265.78 177.08 272.04 C 178.06 278.30 180.21 284.48 182.12 290.46 C 184.03 296.44 186.54 302.88 188.51 307.91 C 190.48 312.95 192.18 316.13 193.94 320.67 C 195.70 325.21 197.58 330.44 199.06 335.17 C 200.55 339.89 202.22 344.61 202.84 349.01 C 203.47 353.40 203.03 357.97 202.80 361.54 C 202.57 365.11 202.34 367.45 201.44 370.44 C 200.55 373.43 199.40 376.35 197.42 379.47 C 195.45 382.58 192.43 386.38 189.61 389.12 C 186.79 391.86 183.37 394.27 180.50 395.93 C 177.62 397.60 175.72 398.37 172.34 399.11 C 168.97 399.84 164.45 400.84 160.26 400.35 C 156.08 399.87 151.73 398.37 147.24 396.20 C 142.74 394.03 137.31 390.42 133.31 387.33 C 129.30 384.25 126.35 381.84 123.20 377.71 C 120.06 373.58 116.87 368.20 114.42 362.54 C 111.96 356.87 110.07 350.48 108.47 343.73 C 106.87 336.98 105.21 329.17 104.81 322.03 C 104.42 314.89 105.41 307.22 106.09 300.88 C 106.77 294.54 107.85 290.22 108.89 283.98 C 109.92 277.75 111.09 270.16 112.30 263.47 C 113.52 256.78 115.17 250.06 116.18 243.85 C 117.20 237.64 117.68 231.31 118.37 226.23 C 119.07 221.14 120.14 218.09 120.37 213.33 C 120.61 208.56 120.32 202.28 119.78 197.64 C 119.24 193.00 118.40 189.02 117.13 185.50 C 115.87 181.97 113.30 179.26 112.20 176.50 C 111.09 173.74 111.51 171.77 110.51 168.92 C 109.51 166.07 107.29 162.64 106.19 159.39 C 105.08 156.14 104.12 152.89 103.86 149.44 C 103.60 145.99 104.02 141.87 104.63 138.69 C 105.24 135.51 106.52 133.80 107.52 130.35 C 108.53 126.90 108.82 121.86 110.64 117.98 C 112.46 114.11 115.42 110.50 118.45 107.10 C 121.47 103.70 125.33 100.43 128.79 97.60 C 132.25 94.77 134.96 92.66 139.21 90.10 C 143.46 87.54 149.09 84.44 154.30 82.23 C 159.50 80.01 164.79 78.12 170.44 76.81 C 176.10 75.50 182.82 74.78 188.22 74.36 C 193.61 73.94 197.14 74.08 202.79 74.29 C 208.45 74.50 215.56 74.40 222.14 75.62 C 228.72 76.84 235.32 79.62 242.29 81.62 C 249.27 83.61 257.87 85.18 263.98 87.59 C 270.09 90.00 273.42 92.73 278.94 96.08 C 284.47 99.43 291.35 103.15 297.10 107.69 C 302.85 112.23 308.64 117.80 313.44 123.33 C 318.25 128.86 322.46 135.35 325.91 140.86 C 329.36 146.38 331.54 150.60 334.13 156.42 C 336.73 162.25 339.45 169.00 341.48 175.83 C 343.50 182.65 345.58 190.33 346.29 197.39 C 347.00 204.45 345.94 212.00 345.74 218.18 C 345.53 224.36 346.07 228.35 345.07 234.46 C 344.06 240.57 341.71 248.42 339.69 254.84 C 337.67 261.26 335.11 266.95 332.97 272.98 C 330.83 279.01 328.59 285.70 326.85 291.03 C 325.12 296.35 324.28 300.06 322.55 304.90 C 320.82 309.75 317.79 314.96 316.47 320.10 C 315.14 325.24 315.09 330.84 314.57 335.73 C 314.05 340.62 313.50 344.99 313.34 349.43 C 313.19 353.87 312.84 358.77 313.63 362.36 C 314.42 365.96 316.26 368.13 318.09 371.00 C 319.91 373.86 321.98 377.12 324.56 379.54 C 327.15 381.97 330.11 383.96 333.58 385.56 C 337.05 387.16 341.64 388.69 345.38 389.13 C 349.12 389.56 352.02 388.55 356.04 388.16 C 360.05 387.77 364.95 388.32 369.48 386.77 C 374.02 385.22 379.04 382.06 383.26 378.86 C 387.48 375.67 391.50 371.27 394.78 367.61 C 398.06 363.94 400.30 361.45 402.94 356.89 C 405.58 352.33 408.72 345.98 410.60 340.24 C 412.47 334.50 413.43 328.60 414.18 322.43 C 414.92 316.27 415.26 309.13 415.06 303.24 C 414.86 297.34 414.21 293.13 412.96 287.07 C 411.71 281.01 409.73 273.49 407.56 266.89 C 405.39 260.28 403.23 253.81 399.95 247.45 C 396.66 241.08 391.87 234.33 387.87 228.70 C 383.86 223.08 380.26 218.67 375.91 213.71 C 371.55 208.76 366.70 203.70 361.74 198.98 C 356.79 194.25 351.54 189.79 346.15 185.35 C 340.76 180.92 334.26 175.97 329.41 172.38 C 324.56 168.78 321.91 166.68 317.06 163.80 C 312.22 160.91 305.70 157.69 300.33 155.09 C 294.97 152.48 289.82 150.45 284.85 148.17 C 279.88 145.88 274.71 143.26 270.51 141.39 C 266.31 139.51 263.54 139.07 259.65 136.92 C 255.77 134.77 251.01 131.24 247.19 128.49 C 243.36 125.74 239.99 123.03 236.71 120.43 C 233.42 117.82 229.95 115.45 227.46 112.86 C 224.98 110.28 223.78 107.58 221.81 104.91 C 219.84 102.24 216.88 99.62 215.64 96.84 C 214.39 94.05 214.24 91.06 214.34 88.20 C 214.44 85.35 215.43 82.19 216.24 79.73 C 217.05 77.28 217.60 75.88 219.20 73.47 C 220.79 71.06 223.06 67.53 225.79 65.25 C 228.52 62.98 231.79 61.55 235.57 59.82 C 239.35 58.08 244.63 55.97 248.47 54.86 C 252.32 53.75 254.70 53.68 258.63 53.15 C 262.56 52.62 267.67 52.04 272.05 51.68 C 276.43 51.31 280.83 51.29 284.92 50.96 C 289.01 50.63 293.33 50.20 296.58 49.70 C 299.82 49.19 301.79 48.62 304.38 47.94 C 306.96 47.26 309.78 46.28 312.10 45.62 C 314.43 44.97 316.33 44.91 318.33 43.99 C 320.32 43.06 322.33 41.52 324.07 40.07 C 325.82 38.62 327.38 36.70 328.80 35.29 C 330.21 33.88 331.20 32.67 332.58 31.59 C 333.96 30.50 335.47 29.64 337.08 28.75 C 338.69 27.87 340.11 26.61 342.26 26.28 C 344.41 25.94 347.45 26.52 349.99 26.75 C 352.53 26.99 354.60 27.06 357.49 27.71 C 360.39 28.36 364.02 28.96 367.35 30.65 C 370.68 32.34 374.02 34.89 377.48 37.85 C 380.94 40.80 384.84 44.92 388.13 48.41 C 391.42 51.90 393.90 54.82 397.23 58.79 C 400.57 62.76 404.78 67.81 408.13 72.23 C 411.49 76.66 414.24 81.28 417.37 85.34 C 420.49 89.41 424.05 93.21 426.88 96.60 C 429.72 99.99 431.60 102.74 434.37 105.70 C 437.15 108.66 441.01 112.21 443.54 114.37 C 446.07 116.53 447.64 117.40 449.56 118.65 C 451.47 119.91 453.14 121.24 455.04 121.90 C 456.95 122.57 458.96 122.37 460.96 122.65 C 462.95 122.93 465.28 123.49 467.01 123.59 C 468.74 123.68 469.76 123.31 471.35 123.24 C 472.94 123.16 475.22 123.21 476.55 123.12 C 477.87 123.02 478.03 122.41 479.32 122.67 C 480.60 122.92 482.56 123.59 484.26 124.65 C 485.95 125.71 487.71 126.74 489.48 129.02 C 491.26 131.30 493.43 135.44 494.91 138.34 C 496.39 141.24 497.02 143.13 498.37 146.42 C 499.72 149.70 501.72 154.36 503.00 158.05 C 504.29 161.75 505.02 164.99 506.08 168.59 C 507.14 172.20 508.41 176.50 509.34 179.68 C 510.28 182.85 516.83 184.82 511.69 187.65 C 506.55 190.48 489.30 193.38 478.50 196.66 C 467.70 199.93 457.19 204.00 446.89 207.32 C 436.60 210.64 425.65 213.82 416.75 216.59 C 407.85 219.36 401.58 220.65 393.47 223.95 C 385.36 227.26 376.09 232.21 368.10 236.43 C 360.11 240.64 352.67 245.02 345.52 249.22 C 338.37 253.43 331.29 257.82 325.19 261.64 C 319.08 265.46 314.68 268.65 308.89 272.13 C 303.10 275.61 296.73 279.26 290.44 282.53 C 284.16 285.81 277.29 288.90 271.21 291.78 C 265.12 294.66 259.79 297.65 253.93 299.82 C 248.06 301.99 241.07 303.44 236.01 304.80 C 230.95 306.17 228.22 307.03 223.55 307.99 C 218.87 308.96 213.34 310.08 207.96 310.58 C 202.58 311.07 196.50 311.25 191.26 310.96 C 186.02 310.67 180.79 309.40 176.54 308.84 C 172.28 308.29 169.95 309.03 165.73 307.63 C 161.50 306.23 155.51 303.29 151.17 300.43 C 146.83 297.58 143.07 294.39 139.70 290.51 C 136.32 286.62 133.35 281.45 130.92 277.13 C 128.48 272.80 126.52 269.50 125.08 264.57 C 123.63 259.64 123.04 253.04 122.23 247.53 C 121.42 242.03 120.82 236.60 120.23 231.55 C 119.63 226.49 119.27 221.50 118.66 217.21 C 118.05 212.92 117.44 209.91 116.59 205.82 C 115.74 201.73 114.81 196.72 113.57 192.66 C 112.32 188.61 110.42 184.88 109.13 181.49 C 107.83 178.11 107.30 174.62 105.78 172.33 C 104.26 170.04 102.06 169.22 99.98 167.78 C 97.91 166.33 95.73 164.47 93.34 163.66 C 90.94 162.86 88.21 162.56 85.62 162.93 C 83.04 163.29 80.30 164.58 77.82 165.85 C 75.33 167.13 73.36 168.32 70.71 170.58 C 68.06 172.85 64.35 175.80 61.92 179.45 C 59.49 183.10 57.55 187.83 56.12 192.47 C 54.70 197.11 53.83 202.64 53.37 207.30 C 52.91 211.96 52.90 215.14 53.36 220.42 C 53.83 225.71 54.80 232.72 56.17 238.99 C 57.55 245.25 59.85 251.89 61.63 258.02 C 63.40 264.16 65.23 270.23 66.83 275.81 C 68.44 281.38 69.52 286.16 71.27 291.49 C 73.03 296.83 75.06 302.49 77.36 307.83 C 79.66 313.18 82.88 318.69 85.10 323.58 C 87.31 328.46 89.15 333.12 90.67 337.15 C 92.19 341.18 93.24 344.12 94.22 347.77 C 95.21 351.42 96.45 355.83 96.58 359.05 C 96.71 362.28 95.53 364.51 95.00 367.11 C 94.47 369.72 94.34 372.75 93.41 374.68 C 92.48 376.62 91.06 377.20 89.42 378.71 C 87.79 380.21 85.46 382.22 83.60 383.73 C 81.75 385.25 79.78 386.29 78.29 387.81 C 76.80 389.33 75.46 391.19 74.66 392.87 C 73.87 394.54 73.86 396.00 73.53 397.85 C 73.20 399.69 72.68 401.71 72.67 403.93 C 72.65 406.15 72.73 408.50 73.42 411.17 C 74.11 413.84 75.09 416.91 76.81 419.93 C 78.53 422.95 81.64 426.59 83.74 429.29 C 85.84 431.99 86.52 433.83 89.41 436.13 C 92.31 438.43 96.58 440.50 101.13 443.07 C 105.68 445.64 111.32 449.28 116.71 451.56 C 122.11 453.84 128.33 455.56 133.51 456.75 C 138.69 457.93 141.96 458.19 147.80 458.66 C 153.63 459.13 161.70 459.50 168.50 459.56 C 175.30 459.61 181.66 459.75 188.59 459.01 C 195.52 458.27 203.62 456.58 210.08 455.10 C 216.53 453.63 220.82 452.51 227.33 450.17 C 233.85 447.83 242.35 444.62 249.17 441.07 C 255.99 437.51 262.06 433.63 268.27 428.84 C 274.49 424.05 281.70 417.51 286.48 412.31 C 291.26 407.10 293.14 403.43 296.95 397.60 C 300.76 391.76 305.84 384.29 309.35 377.30 C 312.86 370.31 315.92 363.42 318.02 355.67 C 320.12 347.93 321.34 338.23 321.97 330.80 C 322.60 323.38 322.31 318.36 321.82 311.13 C 321.33 303.90 320.75 294.88 319.02 287.43 C 317.28 279.98 314.48 272.90 311.42 266.45 C 308.37 260.01 304.59 253.58 300.70 248.77 C 296.80 243.96 292.81 241.45 288.05 237.60 C 283.30 233.75 277.52 228.89 272.17 225.66 C 266.82 222.43 261.70 220.10 255.97 218.20 C 250.24 216.30 243.13 214.81 237.79 214.23 C 232.46 213.65 229.41 213.67 223.95 214.73 C 218.48 215.78 210.48 217.76 205.00 220.56 C 199.52 223.37 195.43 227.50 191.06 231.57 C 186.69 235.64 181.99 240.52 178.79 245.00 C 175.59 249.49 173.47 253.28 171.88 258.48 C 170.30 263.69 169.00 270.45 169.28 276.23 C 169.55 282.01 171.27 287.68 173.53 293.19 C 175.80 298.69 179.47 304.97 182.85 309.26 C 186.24 313.55 189.12 315.99 193.86 318.94 C 198.59 321.88 205.11 324.47 211.26 326.92 C 217.42 329.36 224.39 331.99 230.77 333.62 C 237.14 335.25 243.78 336.08 249.51 336.68 C 255.24 337.29 259.62 337.16 265.16 337.23 C 270.69 337.30 277.16 336.87 282.72 337.12 C 288.28 337.36 293.11 338.47 298.50 338.70 C 303.90 338.93 309.99 337.92 315.09 338.49 C 320.19 339.07 325.20 340.86 329.11 342.15 C 333.02 343.44 335.41 344.41 338.55 346.23 C 341.68 348.06 344.72 351.16 347.91 353.12 C 351.09 355.08 354.29 356.68 357.68 357.99 C 361.07 359.30 364.98 359.94 368.23 360.98 C 371.48 362.03 373.95 363.80 377.18 364.25 C 380.41 364.69 384.19 363.64 387.59 363.65 C 391.00 363.66 394.28 364.89 397.63 364.33 C 400.97 363.76 404.61 361.60 407.64 360.26 C 410.67 358.93 412.94 358.54 415.81 356.33 C 418.68 354.12 421.81 350.34 424.85 347.01 C 427.90 343.68 431.33 340.38 434.09 336.38 C 436.85 332.37 439.70 327.42 441.41 322.99 C 443.13 318.56 443.60 314.97 444.37 309.80 C 445.15 304.62 445.91 297.80 446.05 291.94 C 446.20 286.09 446.58 280.69 445.24 274.66 C 443.90 268.63 440.37 261.40 438.01 255.74 C 435.65 250.08 434.20 246.39 431.08 240.73 C 427.95 235.06 423.78 227.75 419.26 221.76 C 414.74 215.77 409.72 209.67 403.95 204.79 C 398.19 199.90 390.54 196.00 384.67 192.46 C 378.79 188.92 375.13 186.28 368.71 183.55 C 362.28 180.82 353.49 177.84 346.12 176.09 C 338.75 174.35 331.69 173.07 324.48 173.10 C 317.27 173.13 309.38 174.46 302.87 176.26 C 296.35 178.06 291.72 180.47 285.40 183.91 C 279.08 187.34 270.68 191.99 264.95 196.84 C 259.22 201.70 254.90 207.11 251.02 213.02 C 247.15 218.93 243.94 226.34 241.70 232.31 C 239.46 238.29 239.03 243.08 237.58 248.87 C 236.13 254.66 234.02 260.89 232.99 267.03 C 231.95 273.16 231.95 279.73 231.38 285.69 C 230.82 291.65 230.29 297.76 229.61 302.81 C 228.94 307.86 228.15 311.15 227.34 315.97 C 226.53 320.79 226.13 327.07 224.74 331.74 C 223.35 336.42 221.25 340.09 219.02 344.02 C 216.79 347.95 213.50 352.33 211.37 355.33 C 209.23 358.33 208.29 359.34 206.23 362.02 C 204.18 364.71 201.60 368.69 199.02 371.42 C 196.45 374.16 193.26 375.89 190.76 378.43 C 188.26 380.96 185.75 384.10 184.02 386.64 C 182.29 389.18 181.55 390.97 180.39 393.68 C 179.22 396.39 177.68 399.70 177.04 402.90 C 176.40 406.09 176.26 410.03 176.54 412.87 C 176.82 415.71 177.67 417.45 178.75 419.92 C 179.82 422.39 181.35 425.12 182.99 427.67 C 184.63 430.22 186.40 432.42 188.58 435.22 C 190.77 438.03 192.93 442.01 196.09 444.50 C 199.25 446.99 203.07 448.74 207.55 450.17 C 212.03 451.59 218.17 452.63 222.96 453.06 C 227.75 453.48 231.33 453.17 236.29 452.69 C 241.25 452.21 247.04 451.36 252.73 450.16 C 258.43 448.96 264.32 447.60 270.46 445.48 C 276.59 443.36 284.12 440.31 289.54 437.44 C 294.95 434.57 298.23 431.79 302.94 428.25 C 307.65 424.71 312.85 420.20 317.80 416.18 C 322.76 412.16 327.55 408.10 332.65 404.12 C 337.75 400.13 344.14 395.50 348.40 392.29 C 352.66 389.08 354.31 387.66 358.21 384.84 C 362.11 382.03 367.68 378.29 371.80 375.41 C 375.91 372.53 379.07 369.45 382.88 367.57 C 386.69 365.68 391.43 364.99 394.65 364.10 C 397.88 363.20 399.62 362.40 402.22 362.21 C 404.83 362.02 408.16 362.22 410.28 362.96 C 412.41 363.69 413.46 364.98 414.97 366.62 C 416.49 368.26 418.16 370.89 419.37 372.81 C 420.58 374.72 421.50 375.75 422.22 378.11 C 422.94 380.47 423.52 384.12 423.72 386.97 C 423.91 389.81 424.09 392.29 423.40 395.20 C 422.71 398.10 421.04 401.59 419.56 404.41 C 418.08 407.22 416.85 409.29 414.50 412.11 C 412.15 414.93 408.93 418.07 405.46 421.33 C 401.99 424.59 397.77 428.50 393.68 431.64 C 389.59 434.78 384.67 437.91 380.91 440.15 C 377.15 442.39 374.69 443.33 371.11 445.07 C 367.54 446.81 363.01 448.69 359.45 450.58 C 355.90 452.48 352.58 454.24 349.79 456.44 C 346.99 458.64 344.51 461.73 342.66 463.79 C 340.81 465.84 339.62 466.74 338.67 468.79 C 337.72 470.84 337.18 474.23 336.94 476.06 C 336.71 477.90 336.61 478.60 337.28 479.82 C 337.94 481.03 339.79 482.54 340.95 483.37 C 342.10 484.19 342.42 484.39 344.20 484.77 C 345.98 485.14 348.85 485.93 351.63 485.63 C 354.41 485.33 357.64 484.33 360.89 482.97 C 364.14 481.62 367.72 479.90 371.12 477.50 C 374.52 475.10 378.02 471.54 381.30 468.57 C 384.58 465.60 387.30 463.67 390.79 459.68 C 394.28 455.70 398.84 450.31 402.25 444.66 C 405.66 439.00 408.59 432.49 411.23 425.76 C 413.88 419.04 416.89 410.82 418.13 404.30 C 419.38 397.77 418.65 393.83 418.71 386.62 C 418.78 379.40 419.47 369.26 418.50 360.99 C 417.52 352.73 415.48 345.00 412.87 337.02 C 410.26 329.05 406.22 320.08 402.84 313.14 C 399.46 306.20 396.77 301.36 392.58 295.38 C 388.40 289.40 383.45 282.88 377.72 277.25 C 371.99 271.63 364.88 266.34 358.19 261.61 C 351.50 256.88 343.97 252.19 337.60 248.86 C 331.23 245.52 326.46 243.50 319.97 241.60 C 313.48 239.69 305.75 238.64 298.69 237.44 C 291.63 236.24 284.48 234.72 277.60 234.39 C 270.71 234.06 263.22 234.54 257.37 235.46 C 251.51 236.37 247.89 237.79 242.46 239.90 C 237.03 242.01 229.94 244.96 224.80 248.11 C 219.65 251.26 215.63 254.92 211.57 258.82 C 207.51 262.71 203.27 267.35 200.41 271.49 C 197.56 275.62 196.17 278.81 194.45 283.63 C 192.73 288.44 190.49 294.74 190.11 300.36 C 189.73 305.98 191.16 311.85 192.17 317.34 C 193.18 322.83 194.47 328.67 196.17 333.28 C 197.86 337.90 199.69 340.87 202.35 345.04 C 205.01 349.21 208.46 354.12 212.12 358.30 C 215.77 362.48 219.65 367.08 224.26 370.12 C 228.87 373.16 234.87 375.16 239.77 376.53 C 244.68 377.90 248.58 377.86 253.70 378.34 C 258.83 378.81 264.88 379.43 270.52 379.38 C 276.16 379.32 282.07 379.01 287.54 378.01 C 293.02 377.01 298.47 375.12 303.39 373.37 C 308.31 371.61 312.35 370.33 317.08 367.46 C 321.82 364.60 326.81 359.73 331.79 356.17 C 336.77 352.60 342.34 349.93 346.99 346.09 C 351.64 342.25 356.35 337.34 359.69 333.11 C 363.02 328.89 364.20 325.39 366.99 320.72 C 369.77 316.06 373.46 310.05 376.41 305.11 C 379.35 300.17 381.94 295.62 384.68 291.08 C 387.41 286.55 390.41 281.78 392.81 277.88 C 395.20 273.99 396.76 271.32 399.03 267.69 C 401.30 264.07 403.88 259.94 406.42 256.15 C 408.97 252.35 411.94 248.30 414.28 244.91 C 416.61 241.53 418.13 238.63 420.43 235.85 C 422.72 233.06 425.71 230.12 428.04 228.20 C 430.38 226.29 432.22 225.50 434.44 224.34 C 436.67 223.19 438.99 222.05 441.40 221.29 C 443.80 220.52 446.40 219.67 448.87 219.74 C 451.34 219.81 453.97 221.04 456.24 221.68 C 458.50 222.33 460.20 222.52 462.47 223.63 C 464.74 224.73 467.66 226.36 469.83 228.31 C 472.01 230.27 473.94 232.62 475.54 235.34 C 477.14 238.06 478.65 241.44 479.44 244.62 C 480.22 247.80 479.94 250.74 480.25 254.42 C 480.57 258.09 480.81 262.76 481.33 266.66 C 481.84 270.56 483.04 274.03 483.35 277.81 C 483.66 281.59 483.16 286.11 483.20 289.35 C 483.24 292.59 483.35 294.37 483.60 297.24 C 483.85 300.11 484.33 303.62 484.67 306.56 C 485.01 309.50 485.04 312.12 485.64 314.89 C 486.24 317.66 487.23 321.44 488.27 323.19 C 489.30 324.95 490.51 324.78 491.83 325.44 C 493.16 326.09 495.11 326.88 496.23 327.12 C 497.35 327.36 497.24 327.39 498.54 326.86 C 499.85 326.34 502.50 325.62 504.06 323.98 C 505.63 322.34 506.87 319.72 507.93 317.04 C 508.99 314.35 509.87 311.30 510.42 307.87 C 510.98 304.44 511.24 300.99 511.26 296.44 C 511.28 291.89 511.27 285.51 510.52 280.56 C 509.76 275.60 508.82 272.34 506.73 266.73 C 504.64 261.11 501.61 253.38 497.96 246.89 C 494.31 240.40 489.99 233.94 484.81 227.77 C 479.63 221.61 472.62 214.92 466.88 209.90 C 461.13 204.88 456.98 201.54 450.33 197.64 C 443.67 193.74 435.15 189.61 426.96 186.51 C 418.77 183.42 409.91 181.16 401.20 179.09 C 392.49 177.01 382.50 174.90 374.71 174.06 C 366.92 173.23 362.08 173.23 354.48 174.08 C 346.87 174.93 337.25 176.68 329.07 179.19 C 320.89 181.70 312.94 185.99 305.41 189.15 C 297.87 192.32 289.92 195.43 283.87 198.20 C 277.82 200.96 274.63 202.44 269.12 205.76 C 263.61 209.09 256.74 214.42 250.80 218.15 C 244.86 221.88 239.09 225.65 233.49 228.13 C 227.90 230.60 222.79 231.54 217.23 232.99 C 211.67 234.44 205.31 235.86 200.14 236.80 C 194.96 237.73 191.15 237.97 186.18 238.60 C 181.20 239.24 175.16 240.81 170.30 240.61 C 165.44 240.41 160.86 239.10 157.02 237.42 C 153.18 235.73 150.04 233.25 147.25 230.51 C 144.47 227.77 142.60 224.62 140.29 220.97 C 137.99 217.31 134.74 213.11 133.40 208.57 C 132.06 204.02 131.85 198.59 132.28 193.70 C 132.70 188.80 134.41 183.56 135.93 179.19 C 137.46 174.83 138.52 171.44 141.43 167.50 C 144.33 163.56 148.62 159.38 153.37 155.54 C 158.11 151.70 163.92 147.49 169.89 144.45 C 175.85 141.41 183.27 138.97 189.16 137.29 C 195.05 135.62 199.05 134.64 205.23 134.40 C 211.40 134.15 219.10 134.66 226.20 135.82 C 233.30 136.98 241.19 138.98 247.85 141.34 C 254.50 143.71 260.87 146.93 266.12 150.02 C 271.36 153.10 274.69 155.34 279.32 159.86 C 283.94 164.37 289.69 171.34 293.86 177.13 C 298.04 182.92 301.25 187.93 304.37 194.60 C 307.49 201.27 310.71 210.70 312.59 217.12 C 314.47 223.54 314.75 226.91 315.64 233.12 C 316.53 239.32 317.55 247.58 317.90 254.37 C 318.25 261.15 318.09 267.63 317.74 273.84 C 317.39 280.06 316.01 286.40 315.81 291.65 C 315.61 296.90 316.38 300.59 316.55 305.32 C 316.72 310.05 316.41 315.25 316.85 320.05 C 317.29 324.85 317.87 329.59 319.19 334.13 C 320.51 338.68 323.20 343.67 324.78 347.35 C 326.36 351.02 326.62 353.24 328.68 356.17 C 330.75 359.10 334.07 362.50 337.17 364.92 C 340.27 367.34 343.69 369.25 347.27 370.68 C 350.85 372.10 355.15 373.47 358.63 373.46 C 362.11 373.45 364.69 372.29 368.16 370.63 C 371.62 368.98 375.65 366.71 379.42 363.52 C 383.19 360.32 387.47 356.30 390.78 351.45 C 394.10 346.60 397.29 339.47 399.32 334.40 C 401.34 329.33 402.25 326.54 402.93 321.03 C 403.61 315.51 404.04 308.05 403.39 301.33 C 402.74 294.60 401.20 287.45 399.02 280.67 C 396.83 273.89 393.28 266.57 390.26 260.67 C 387.24 254.77 385.15 250.41 380.90 245.26 C 376.66 240.10 370.61 234.70 364.77 229.72 C 358.93 224.75 352.62 219.01 345.87 215.40 C 339.11 211.79 331.50 209.60 324.23 208.04 C 316.96 206.49 308.69 206.14 302.23 206.08 C 295.77 206.01 291.84 206.27 285.45 207.63 C 279.07 208.99 270.51 211.19 263.93 214.22 C 257.35 217.24 251.57 221.33 245.97 225.76 C 240.38 230.18 234.61 236.32 230.36 240.75 C 226.10 245.18 223.51 247.81 220.42 252.33 C 217.33 256.85 213.84 262.48 211.83 267.85 C 209.82 273.22 208.82 278.86 208.35 284.54 C 207.89 290.22 208.29 296.68 209.02 301.91 C 209.74 307.13 210.99 311.18 212.70 315.89 C 214.41 320.60 216.97 325.47 219.28 330.18 C 221.59 334.89 224.16 339.65 226.54 344.15 C 228.92 348.65 231.46 353.23 233.57 357.17 C 235.67 361.11 237.41 363.98 239.16 367.78 C 240.91 371.58 242.61 376.17 244.07 379.98 C 245.54 383.78 247.21 387.04 247.96 390.61 C 248.70 394.17 248.75 398.26 248.53 401.37 C 248.32 404.47 247.49 406.26 246.66 409.25 C 245.83 412.24 244.71 416.15 243.56 419.32 C 242.40 422.50 240.94 425.36 239.74 428.31 C 238.53 431.27 237.06 434.64 236.34 437.06 C 235.62 439.49 235.43 440.49 235.41 442.87 C 235.39 445.25 235.83 448.89 236.24 451.34 C 236.64 453.80 236.66 455.39 237.83 457.58 C 239.00 459.77 241.18 462.73 243.25 464.49 C 245.32 466.24 247.51 467.11 250.26 468.12 C 253.01 469.13 256.67 469.64 259.75 470.56 C 262.84 471.47 265.39 472.76 268.79 473.60 C 272.18 474.43 277.18 475.07 280.13 475.57 C 283.09 476.07 283.91 476.15 286.49 476.61 C 289.07 477.07 292.54 477.73 295.62 478.33 C 298.70 478.93 302.43 479.28 304.95 480.21 C 307.48 481.15 309.61 482.78 310.77 483.96 C 311.93 485.13 311.97 485.73 311.91 487.25 C 311.85 488.77 311.59 491.43 310.43 493.10 C 309.27 494.77 307.06 496.23 304.96 497.27 C 302.87 498.32 300.64 498.90 297.87 499.38 C 295.10 499.85 292.08 500.02 288.33 500.14 C 284.59 500.26 280.40 500.80 275.40 500.09 C 270.39 499.39 263.99 498.01 258.30 495.90 C 252.61 493.79 247.21 490.97 241.27 487.43 C 235.32 483.89 227.86 479.07 222.62 474.67 C 217.39 470.27 214.36 466.69 209.87 461.04 C 205.38 455.39 199.86 448.26 195.68 440.78 C 191.49 433.30 187.86 424.47 184.75 416.15 C 181.63 407.84 178.78 398.44 176.98 390.90 C 175.17 383.36 174.28 378.40 173.91 370.91 C 173.54 363.41 173.75 354.26 174.74 345.93 C 175.73 337.60 177.28 328.79 179.86 320.90 C 182.43 313.02 186.67 304.98 190.18 298.62 C 193.69 292.25 196.25 287.96 200.92 282.70 C 205.59 277.44 212.54 271.63 218.23 267.05 C 223.91 262.47 229.01 258.80 235.04 255.22 C 241.07 251.65 248.89 248.03 254.41 245.60 C 259.93 243.16 263.00 242.35 268.16 240.61 C 273.31 238.87 280.13 236.67 285.35 235.15 C 290.57 233.63 294.50 232.83 299.46 231.49 C 304.43 230.15 310.55 228.63 315.15 227.10 C 319.74 225.58 322.81 223.71 327.04 222.35 C 331.27 220.99 336.47 220.15 340.53 218.94 C 344.59 217.73 347.85 216.69 351.41 215.10 C 354.96 213.50 358.95 211.39 361.86 209.38 C 364.76 207.37 366.45 205.54 368.86 203.05 C 371.26 200.55 373.98 197.56 376.28 194.39 C 378.59 191.22 380.92 187.43 382.68 184.01 C 384.44 180.60 386.29 177.06 386.86 173.88 C 387.42 170.70 386.43 168.28 386.08 164.94 C 385.73 161.61 385.67 157.80 384.75 153.86 C 383.84 149.93 382.32 145.81 380.60 141.33 C 378.87 136.84 376.67 130.78 374.39 126.97 C 372.11 123.16 370.04 121.58 366.90 118.48 C 363.77 115.38 359.14 111.84 355.59 108.35 C 352.04 104.87 349.05 100.74 345.58 97.58 C 342.10 94.43 337.72 91.94 334.76 89.44 C 331.80 86.94 329.92 85.05 327.84 82.58 C 325.75 80.11 323.85 77.32 322.26 74.62 C 320.67 71.92 319.69 69.12 318.30 66.36 C 316.91 63.60 315.00 60.12 313.91 58.04 C 312.81 55.97 312.56 55.66 311.75 53.91 C 310.94 52.16 309.02 49.87 309.03 47.53 C 309.04 45.18 310.47 41.60 311.80 39.84 C 313.12 38.08 315.13 38.18 316.99 36.99 C 318.86 35.79 320.79 33.38 322.98 32.67 C 325.16 31.97 327.14 32.46 330.12 32.76 C 333.11 33.07 337.26 33.60 340.91 34.51 C 344.55 35.43 348.34 36.86 351.99 38.27 C 355.63 39.68 359.24 41.09 362.77 42.98 C 366.30 44.87 369.60 46.78 373.17 49.59 C 376.74 52.41 380.57 56.39 384.17 59.86 C 387.76 63.34 391.08 67.41 394.74 70.43 C 398.40 73.44 403.00 75.71 406.15 77.96 C 409.30 80.21 410.56 81.95 413.62 83.92 C 416.67 85.88 421.38 88.20 424.47 89.75 C 427.56 91.29 429.62 92.15 432.16 93.20 C 434.70 94.25 437.99 95.54 439.71 96.06 C 441.42 96.59 441.36 96.61 442.45 96.38 C 443.54 96.14 445.14 95.49 446.24 94.64 C 447.33 93.80 448.60 92.56 449.01 91.32 C 449.43 90.07 448.90 88.63 448.74 87.17 C 448.58 85.71 448.66 84.61 448.03 82.56 C 447.41 80.51 446.68 77.46 445.01 74.88 C 443.33 72.31 440.59 69.53 437.97 67.11 C 435.35 64.68 432.28 62.54 429.29 60.35 C 426.31 58.16 423.99 55.90 420.05 53.96 C 416.11 52.02 410.86 50.31 405.65 48.70 C 400.45 47.09 394.81 45.66 388.80 44.28 C 382.79 42.91 375.26 41.39 369.58 40.45 C 363.89 39.52 360.65 38.66 354.71 38.69 C 348.76 38.71 340.90 39.87 333.92 40.62 C 326.94 41.36 319.84 41.83 312.82 43.16 C 305.81 44.50 298.27 46.66 291.84 48.62 C 285.41 50.59 280.53 51.92 274.26 54.97 C 267.99 58.02 260.94 62.73 254.25 66.93 C 247.56 71.13 240.47 75.76 234.13 80.18 C 227.80 84.60 221.36 89.15 216.26 93.47 C 211.16 97.78 208.34 101.82 203.54 106.07 C 198.74 110.32 192.57 114.77 187.46 118.94 C 182.35 123.11 177.57 127.05 172.88 131.07 C 168.20 135.09 163.39 139.65 159.34 143.06 C 155.28 146.46 152.57 148.75 148.56 151.51 C 144.55 154.28 139.47 157.53 135.28 159.66 C 131.09 161.79 127.11 163.08 123.41 164.27 C 119.71 165.47 116.21 166.17 113.08 166.84 C 109.95 167.50 107.22 168.42 104.64 168.27 C 102.05 168.11 99.60 167.02 97.56 165.88 C 95.51 164.74 93.88 163.26 92.37 161.43 C 90.86 159.59 89.38 157.45 88.51 154.87 C 87.64 152.29 86.91 148.88 87.15 145.95 C 87.40 143.02 88.77 140.61 89.98 137.29 C 91.19 133.96 92.83 129.61 94.39 126.00 C 95.96 122.39 97.02 119.33 99.37 115.62 C 101.71 111.92 105.74 106.95 108.47 103.79 C 111.20 100.63 112.70 99.47 115.76 96.67 C 118.82 93.87 123.39 90.18 126.83 86.98 C 130.27 83.78 133.11 80.52 136.40 77.47 C 139.69 74.43 143.73 71.18 146.58 68.71 C 149.43 66.23 151.12 64.71 153.50 62.61 C 155.88 60.51 158.90 58.40 160.88 56.11 C 162.86 53.81 163.79 51.10 165.38 48.85 C 166.97 46.59 168.83 44.40 170.42 42.56 C 172.02 40.71 173.20 39.62 174.95 37.78 C 176.71 35.95 178.59 33.43 180.94 31.55 C 183.30 29.67 186.34 28.08 189.11 26.51 C 191.87 24.93 194.61 23.35 197.53 22.13 C 200.46 20.91 203.06 20.08 206.66 19.19 C 210.27 18.30 215.08 17.21 219.17 16.78 C 223.27 16.34 226.99 16.66 231.22 16.59 C 235.45 16.52 240.45 16.39 244.56 16.36 C 248.67 16.33 251.25 16.18 255.87 16.42 C 260.50 16.66 267.02 16.96 272.31 17.81 C 277.59 18.67 282.30 19.88 287.60 21.56 C 292.89 23.24 299.34 25.79 304.07 27.90 C 308.81 30.02 311.59 31.44 316.01 34.26 C 320.42 37.09 325.61 40.73 330.54 44.84 C 335.48 48.95 340.76 53.64 345.63 58.90 C 350.50 64.17 355.80 71.03 359.76 76.43 C 363.72 81.82 366.28 85.58 369.39 91.25 C 372.50 96.93 375.69 103.60 378.43 110.48 C 381.17 117.37 384.40 125.02 385.84 132.56 C 387.27 140.10 387.19 148.49 387.05 155.72 C 386.92 162.94 386.48 168.58 385.03 175.91 C 383.58 183.23 380.94 192.02 378.34 199.66 C 375.75 207.30 373.09 214.69 369.45 221.74 C 365.82 228.79 360.81 236.23 356.55 241.96 C 352.30 247.69 348.80 251.42 343.91 256.11 C 339.03 260.79 333.20 265.80 327.23 270.09 C 321.27 274.38 314.58 278.63 308.13 281.82 C 301.69 285.01 295.01 287.54 288.57 289.22 C 282.12 290.89 275.41 291.28 269.47 291.87 C 263.53 292.46 258.75 293.10 252.92 292.76 C 247.10 292.41 240.62 291.11 234.53 289.80 C 228.45 288.49 222.14 287.04 216.40 284.91 C 210.66 282.77 204.45 279.53 200.11 277.00 C 195.77 274.47 194.08 273.03 190.38 269.74 C 186.69 266.46 181.59 261.80 177.93 257.30 C 174.27 252.81 170.73 247.94 168.44 242.79 C 166.15 237.65 164.91 231.27 164.21 226.45 C 163.52 221.63 163.59 218.46 164.26 213.87 C 164.93 209.28 166.03 203.96 168.22 198.92 C 170.41 193.87 173.64 188.42 177.41 183.60 C 181.18 178.78 186.32 173.50 190.83 170.00 C 195.33 166.50 199.24 164.55 204.46 162.59 C 209.68 160.63 215.89 158.93 222.16 158.25 C 228.42 157.57 235.50 157.69 242.04 158.52 C 248.59 159.35 255.77 160.93 261.43 163.24 C 267.08 165.55 270.95 168.35 275.96 172.38 C 280.97 176.42 286.94 182.10 291.47 187.45 C 296.00 192.79 299.92 198.47 303.17 204.47 C 306.42 210.46 309.38 217.45 310.97 223.41 C 312.56 229.37 312.60 234.04 312.71 240.22 C 312.83 246.41 312.71 253.99 311.65 260.52 C 310.59 267.06 308.29 273.37 306.36 279.43 C 304.43 285.50 302.28 291.99 300.07 296.90 C 297.87 301.80 295.44 304.30 293.13 308.86 C 290.82 313.42 288.58 319.00 286.21 324.24 C 283.84 329.48 280.74 335.02 278.90 340.31 C 277.07 345.61 275.88 351.66 275.20 356.00 C 274.52 360.35 274.55 362.27 274.81 366.37 C 275.07 370.46 275.78 376.55 276.77 380.58 C 277.75 384.60 279.04 387.38 280.73 390.54 C 282.42 393.70 284.72 397.08 286.92 399.52 C 289.13 401.96 290.93 403.63 293.94 405.17 C 296.95 406.71 301.02 407.74 304.99 408.75 C 308.95 409.76 313.23 410.89 317.76 411.22 C 322.28 411.54 327.81 411.29 332.13 410.69 C 336.45 410.09 339.59 409.27 343.67 407.61 C 347.76 405.95 352.27 403.57 356.67 400.74 C 361.07 397.91 365.90 394.32 370.07 390.62 C 374.25 386.92 378.34 382.35 381.71 378.53 C 385.07 374.72 387.28 371.72 390.26 367.75 C 393.24 363.78 396.46 359.24 399.61 354.73 C 402.75 350.23 406.30 345.33 409.14 340.73 C 411.99 336.13 414.32 331.27 416.69 327.13 C 419.06 322.98 421.38 318.81 423.38 315.85 C 425.38 312.88 426.46 311.74 428.72 309.32 C 430.97 306.90 434.44 303.92 436.91 301.32 C 439.37 298.73 441.06 295.99 443.53 293.73 C 446.00 291.47 449.40 289.66 451.71 287.77 C 454.01 285.87 455.27 283.95 457.36 282.36 C 459.44 280.76 461.99 279.89 464.23 278.20 C 466.47 276.51 468.81 274.10 470.82 272.21 C 472.83 270.31 474.77 268.58 476.30 266.84 C 477.83 265.09 478.80 264.15 479.99 261.75 C 481.17 259.35 482.72 255.43 483.42 252.46 C 484.12 249.48 483.75 246.89 484.18 243.89 C 484.60 240.88 485.51 237.36 485.98 234.44 C 486.44 231.52 486.57 229.05 486.96 226.34 C 487.36 223.63 487.98 220.97 488.35 218.19 C 488.72 215.42 488.98 212.39 489.19 209.71 C 489.41 207.03 489.24 204.13 489.64 202.12 C 490.05 200.12 490.88 199.03 491.62 197.68 C 492.37 196.33 493.41 195.13 494.14 194.02 C 494.86 192.90 495.27 191.72 495.97 190.99 C 496.68 190.25 497.57 189.80 498.35 189.60 C 499.12 189.41 499.49 189.01 500.62 189.82 C 501.75 190.62 503.72 192.21 505.13 194.41 C 506.53 196.61 508.08 199.71 509.06 203.00 C 510.04 206.30 510.52 210.60 511.00 214.18 C 511.47 217.76 517.19 220.82 511.91 224.49 C 506.63 228.15 489.90 232.67 479.32 236.16 C 468.75 239.66 458.60 242.72 448.44 245.47 C 438.28 248.21 427.12 250.71 418.35 252.65 C 409.58 254.58 404.24 255.84 395.81 257.06 C 387.38 258.27 376.83 259.33 367.77 259.95 C 358.71 260.57 349.93 260.87 341.46 260.78 C 332.98 260.69 324.03 260.34 316.91 259.40 C 309.80 258.46 305.05 257.05 298.74 255.16 C 292.44 253.28 285.12 251.22 279.07 248.11 C 273.01 245.01 267.57 240.71 262.41 236.56 C 257.25 232.40 251.40 227.63 248.11 223.19 C 244.83 218.76 244.33 214.83 242.70 209.93 C 241.06 205.02 238.89 199.10 238.30 193.76 C 237.72 188.42 237.97 182.77 239.19 177.88 C 240.41 172.99 243.04 168.76 245.61 164.41 C 248.18 160.07 251.57 155.05 254.63 151.80 C 257.68 148.55 259.84 146.93 263.93 144.92 C 268.02 142.91 273.72 140.30 279.16 139.74 C 284.60 139.19 290.86 140.36 296.55 141.58 C 302.25 142.80 308.34 144.86 313.32 147.07 C 318.29 149.28 321.58 151.38 326.38 154.83 C 331.18 158.27 337.50 163.00 342.10 167.74 C 346.69 172.49 350.38 177.95 353.95 183.28 C 357.53 188.61 360.99 194.77 363.55 199.71 C 366.11 204.64 367.17 208.16 369.31 212.89 C 371.45 217.62 374.22 223.22 376.36 228.10 C 378.50 232.99 379.99 237.31 382.13 242.23 C 384.27 247.15 387.02 253.51 389.20 257.64 C 391.37 261.76 393.10 263.67 395.18 266.98 C 397.27 270.30 399.35 274.50 401.72 277.51 C 404.10 280.52 406.93 282.15 409.41 285.02 C 411.90 287.89 414.58 291.85 416.64 294.73 C 418.70 297.60 420.41 299.39 421.79 302.25 C 423.17 305.10 424.19 308.31 424.93 311.88 C 425.68 315.44 426.00 319.53 426.26 323.61 C 426.51 327.69 426.62 332.74 426.48 336.36 C 426.35 339.98 426.60 341.74 425.45 345.32 C 424.31 348.89 421.86 353.75 419.60 357.80 C 417.33 361.85 414.65 365.59 411.86 369.62 C 409.07 373.66 405.38 378.23 402.87 381.99 C 400.35 385.75 398.93 388.56 396.76 392.18 C 394.60 395.81 392.19 400.39 389.88 403.73 C 387.57 407.06 384.30 409.20 382.90 412.19 C 381.50 415.18 381.99 418.81 381.46 421.66 C 380.93 424.51 380.04 426.98 379.73 429.30 C 379.41 431.63 379.38 433.70 379.58 435.61 C 379.79 437.53 379.85 439.50 380.97 440.79 C 382.09 442.08 384.60 442.82 386.31 443.37 C 388.02 443.91 388.97 444.39 391.24 444.07 C 393.52 443.75 397.09 442.52 399.96 441.45 C 402.82 440.38 405.17 439.61 408.44 437.64 C 411.72 435.66 416.54 432.43 419.61 429.60 C 422.69 426.77 424.32 424.90 426.92 420.67 C 429.51 416.44 432.78 409.69 435.20 404.21 C 437.62 398.73 439.44 393.65 441.45 387.77 C 443.46 381.89 446.06 374.77 447.24 368.93 C 448.43 363.10 448.28 358.96 448.55 352.75 C 448.82 346.55 449.31 339.00 448.87 331.67 C 448.44 324.35 447.36 316.40 445.94 308.81 C 444.51 301.23 442.78 293.59 440.33 286.19 C 437.87 278.78 434.56 270.62 431.19 264.36 C 427.82 258.10 424.90 254.32 420.12 248.61 C 415.33 242.89 408.72 235.84 402.50 230.06 C 396.27 224.28 389.62 218.86 382.78 213.95 C 375.94 209.03 367.34 204.51 361.46 200.58 C 355.58 196.66 353.17 193.88 347.51 190.39 C 341.86 186.90 334.24 182.84 327.54 179.65 C 320.85 176.46 313.73 173.75 307.35 171.25 C 300.96 168.74 294.26 166.95 289.22 164.62 C 284.19 162.28 281.77 159.86 277.13 157.23 C 272.50 154.60 266.09 151.48 261.43 148.85 C 256.76 146.22 253.15 144.10 249.15 141.47 C 245.15 138.84 240.70 135.46 237.44 133.07 C 234.18 130.69 232.86 129.30 229.60 127.17 C 226.34 125.04 221.98 122.10 217.88 120.30 C 213.77 118.50 209.38 117.41 204.97 116.39 C 200.55 115.36 195.56 114.37 191.39 114.15 C 187.22 113.93 184.02 114.15 179.95 115.09 C 175.87 116.03 171.56 117.74 166.95 119.81 C 162.34 121.87 156.94 124.40 152.29 127.49 C 147.64 130.58 142.75 134.67 139.06 138.36 C 135.36 142.05 133.25 145.02 130.13 149.63 C 127.02 154.23 122.82 160.36 120.36 165.97 C 117.90 171.58 116.49 176.92 115.36 183.26 C 114.23 189.60 113.89 197.78 113.59 203.99 C 113.29 210.20 112.83 214.37 113.53 220.53 C 114.23 226.68 115.47 234.34 117.77 240.94 C 120.07 247.53 123.65 254.02 127.34 260.09 C 131.03 266.17 135.57 272.40 139.90 277.39 C 144.23 282.38 148.02 285.78 153.33 290.04 C 158.64 294.31 165.51 299.14 171.76 302.99 C 178.01 306.85 184.67 310.00 190.84 313.18 C 197.01 316.36 203.49 319.24 208.76 322.09 C 214.04 324.94 217.52 327.58 222.50 330.28 C 227.48 332.98 233.58 335.70 238.64 338.28 C 243.69 340.87 247.81 343.38 252.83 345.81 C 257.85 348.24 264.38 350.98 268.77 352.87 C 273.15 354.76 275.37 355.07 279.15 357.15 C 282.93 359.23 287.41 362.89 291.45 365.34 C 295.50 367.79 299.62 369.63 303.42 371.83 C 307.21 374.03 310.72 376.56 314.22 378.56 C 317.71 380.57 321.41 382.19 324.39 383.83 C 327.38 385.47 329.17 387.21 332.13 388.39 C 335.09 389.57 338.52 390.23 342.13 390.89 C 345.74 391.55 349.95 391.72 353.78 392.33 C 357.61 392.94 361.70 394.14 365.11 394.54 C 368.52 394.93 370.91 394.83 374.25 394.70 C 377.60 394.57 381.59 394.14 385.17 393.77 C 388.75 393.40 392.40 392.71 395.76 392.48 C 399.11 392.26 402.58 392.40 405.30 392.44 C 408.02 392.48 410.06 392.36 412.07 392.72 C 414.09 393.09 415.42 393.73 417.39 394.63 C 419.37 395.54 422.39 396.96 423.91 398.16 C 425.42 399.36 425.84 400.38 426.48 401.84 C 427.13 403.30 427.21 404.64 427.78 406.91 C 428.35 409.18 429.87 412.89 429.91 415.47 C 429.95 418.04 428.36 419.97 428.04 422.35 C 427.72 424.73 427.95 427.89 427.98 429.76 C 428.02 431.63 428.10 432.43 428.28 433.58 C 428.46 434.73 428.48 435.48 429.06 436.67 C 429.65 437.85 430.66 439.75 431.78 440.70 C 432.89 441.65 434.65 442.26 435.74 442.35 C 436.83 442.44 436.85 441.85 438.32 441.23 C 439.79 440.62 442.48 440.02 444.56 438.67 C 446.63 437.32 448.50 434.74 450.77 433.15 C 453.04 431.56 456.09 430.55 458.17 429.13 C 460.25 427.71 461.42 426.37 463.26 424.64 C 465.10 422.91 467.19 420.50 469.21 418.73 C 471.24 416.97 473.53 415.26 475.41 414.07 C 477.29 412.89 479.34 412.00 480.49 411.63 C 481.65 411.25 481.92 411.49 482.36 411.84 C 482.80 412.18 483.60 412.36 483.14 413.69 C 482.69 415.02 480.92 417.73 479.62 419.81 C 478.32 421.89 477.03 424.01 475.33 426.18 C 473.62 428.35 472.11 430.29 469.40 432.81 C 466.69 435.34 463.34 438.53 459.06 441.33 C 454.78 444.13 449.23 447.30 443.74 449.60 C 438.24 451.89 431.53 453.57 426.09 455.08 C 420.65 456.58 417.14 457.68 411.09 458.62 C 405.04 459.56 397.20 460.36 389.79 460.73 C 382.37 461.09 374.31 461.61 366.61 460.81 C 358.92 460.02 350.49 458.06 343.60 455.97 C 336.70 453.87 332.33 451.49 325.24 448.22 C 318.16 444.96 308.95 441.06 301.09 436.40 C 293.23 431.74 285.01 426.47 278.09 420.26 C 271.18 414.05 265.09 406.44 259.62 399.14 C 254.16 391.84 249.00 383.47 245.33 376.46 C 241.66 369.46 239.70 364.49 237.61 357.12 C 235.52 349.76 233.87 340.57 232.79 332.27 C 231.71 323.97 230.66 315.00 231.14 307.35 C 231.61 299.69 233.82 292.62 235.64 286.34 C 237.46 280.07 239.29 275.36 242.08 269.70 C 244.87 264.03 248.35 257.50 252.39 252.34 C 256.43 247.19 261.42 242.59 266.31 238.77 C 271.20 234.94 277.13 231.78 281.75 229.38 C 286.38 226.98 289.38 225.49 294.07 224.37 C 298.76 223.24 304.99 222.46 309.89 222.60 C 314.79 222.75 318.41 223.59 323.46 225.23 C 328.50 226.88 335.67 229.76 340.15 232.46 C 344.64 235.15 347.00 237.84 350.39 241.41 C 353.77 244.97 357.88 249.09 360.46 253.85 C 363.04 258.61 364.71 264.54 365.88 269.96 C 367.04 275.38 367.29 281.33 367.44 286.38 C 367.58 291.44 367.52 295.26 366.77 300.29 C 366.02 305.32 365.28 311.19 362.94 316.56 C 360.60 321.94 356.58 327.49 352.73 332.54 C 348.88 337.59 343.89 342.81 339.84 346.87 C 335.79 350.94 332.67 353.77 328.42 356.94 C 324.16 360.11 319.34 363.03 314.30 365.90 C 309.26 368.78 303.18 371.42 298.18 374.20 C 293.18 376.98 288.41 380.04 284.30 382.59 C 280.18 385.13 277.18 387.23 273.49 389.45 C 269.80 391.67 265.65 393.59 262.18 395.88 C 258.72 398.18 255.28 400.46 252.70 403.20 C 250.12 405.94 248.13 409.58 246.73 412.32 C 245.32 415.05 244.73 416.64 244.26 419.63 C 243.80 422.62 243.39 426.97 243.94 430.26 C 244.49 433.54 245.98 436.47 247.59 439.33 C 249.20 442.18 251.33 445.34 253.60 447.39 C 255.88 449.44 257.74 450.82 261.23 451.63 C 264.71 452.44 269.65 452.79 274.52 452.25 C 279.38 451.72 284.69 450.08 290.40 448.43 C 296.10 446.77 303.53 444.62 308.75 442.34 C 313.97 440.05 317.13 438.88 321.74 434.71 C 326.35 430.54 331.97 423.40 336.43 417.30 C 340.88 411.20 345.07 404.95 348.47 398.09 C 351.87 391.22 354.95 383.79 356.84 376.13 C 358.74 368.47 359.35 359.36 359.85 352.15 C 360.34 344.94 360.51 339.88 359.81 332.85 C 359.12 325.82 357.77 317.55 355.66 309.95 C 353.55 302.34 350.66 294.12 347.16 287.22 C 343.66 280.33 338.87 273.98 334.67 268.59 C 330.47 263.20 326.77 259.65 321.97 254.89 C 317.18 250.13 311.49 244.76 305.90 240.00 C 300.32 235.24 293.95 230.57 288.45 226.32 C 282.94 222.08 277.56 217.75 272.86 214.55 C 268.17 211.35 264.80 210.02 260.27 207.11 C 255.74 204.19 250.27 200.48 245.69 197.04 C 241.10 193.59 236.40 190.14 232.75 186.43 C 229.10 182.72 226.35 178.33 223.78 174.77 C 221.21 171.21 219.23 168.72 217.33 165.06 C 215.43 161.40 213.54 156.79 212.37 152.82 C 211.21 148.85 211.04 144.92 210.33 141.24 C 209.61 137.56 208.64 133.88 208.09 130.72 C 207.54 127.56 207.49 125.37 207.05 122.27 C 206.60 119.17 206.24 115.60 205.43 112.11 C 204.61 108.63 203.45 104.61 202.17 101.35 C 200.89 98.09 199.29 94.93 197.76 92.55 C 196.22 90.18 194.93 89.18 192.98 87.12 C 191.04 85.06 188.57 82.27 186.06 80.20 C 183.55 78.12 180.33 76.30 177.91 74.67 C 175.49 73.04 173.40 71.85 171.55 70.42 C 169.69 68.98 168.34 67.69 166.79 66.07 C 165.24 64.45 163.37 62.36 162.24 60.68 C 161.11 59.00 160.66 57.43 160.02 56.00 C 159.38 54.58 158.24 53.68 158.39 52.16 C 158.53 50.63 159.81 48.81 160.89 46.86 C 161.97 44.90 163.16 42.60 164.86 40.43 C 166.55 38.27 168.78 35.91 171.07 33.88 C 173.36 31.85 176.09 29.92 178.59 28.24 C 181.09 26.56 183.16 25.12 186.07 23.79 C 188.99 22.47 192.86 21.29 196.10 20.28 C 199.33 19.27 202.52 18.81 205.47 17.71 C 208.41 16.60 211.73 14.96 213.78 13.65 C 215.83 12.35 216.63 11.03 217.76 9.88 C 218.89 8.73 219.69 8.00 220.57 6.73 C 221.45 5.46 222.51 2.13 223.06 2.28 C 223.61 2.43 223.61 1.88 223.86 7.65 C 224.12 13.41 224.17 26.74 224.60 36.88 C 225.02 47.02 225.53 58.21 226.43 68.49 C 227.33 78.77 228.26 89.03 229.98 98.57 C 231.70 108.10 233.88 116.86 236.75 125.70 C 239.62 134.54 243.97 144.45 247.21 151.62 C 250.45 158.79 252.42 162.84 256.18 168.73 C 259.94 174.62 264.83 181.59 269.75 186.97 C 274.67 192.36 280.52 196.54 285.70 201.05 C 290.87 205.55 296.31 210.61 300.81 213.98 C 305.30 217.35 308.07 218.76 312.65 221.27 C 317.24 223.78 323.32 227.41 328.33 229.02 C 333.34 230.63 338.13 231.08 342.71 230.95 C 347.29 230.82 352.13 229.78 355.83 228.26 C 359.53 226.73 361.81 224.16 364.90 221.80 C 368.00 219.43 372.00 217.52 374.41 214.07 C 376.82 210.63 378.65 205.78 379.38 201.15 C 380.11 196.53 379.64 190.84 378.79 186.33 C 377.94 181.81 376.34 178.58 374.26 174.06 C 372.19 169.54 369.75 163.65 366.34 159.22 C 362.94 154.79 358.59 150.99 353.84 147.49 C 349.09 143.99 342.91 140.64 337.83 138.24 C 332.74 135.84 328.96 134.55 323.33 133.08 C 317.70 131.61 310.67 130.25 304.05 129.44 C 297.44 128.63 290.48 127.86 283.65 128.22 C 276.82 128.58 269.03 129.94 263.06 131.61 C 257.08 133.27 253.27 134.87 247.80 138.20 C 242.34 141.54 235.58 146.55 230.29 151.62 C 224.99 156.70 220.44 162.92 216.05 168.67 C 211.65 174.42 207.01 180.73 203.90 186.14 C 200.80 191.54 199.33 195.11 197.41 201.09 C 195.49 207.06 193.38 215.05 192.39 222.00 C 191.40 228.95 191.20 235.88 191.46 242.79 C 191.71 249.69 192.93 257.58 193.91 263.44 C 194.88 269.30 195.20 273.00 197.31 277.97 C 199.42 282.94 202.95 288.27 206.56 293.26 C 210.17 298.26 214.36 303.57 218.97 307.95 C 223.58 312.32 229.35 316.64 234.21 319.52 C 239.07 322.40 243.01 323.72 248.11 325.24 C 253.22 326.76 258.98 327.90 264.84 328.65 C 270.70 329.40 277.32 330.37 283.27 329.75 C 289.22 329.13 295.48 326.60 300.56 324.93 C 305.64 323.26 309.10 321.86 313.74 319.71 C 318.38 317.57 323.62 315.00 328.42 312.07 C 333.22 309.14 338.39 305.79 342.51 302.14 C 346.64 298.49 349.75 294.35 353.19 290.17 C 356.63 286.00 360.24 280.91 363.16 277.11 C 366.09 273.31 367.75 270.73 370.75 267.38 C 373.74 264.03 377.75 260.36 381.11 257.00 C 384.47 253.64 387.80 249.90 390.90 247.22 C 393.99 244.54 397.07 242.91 399.70 240.93 C 402.34 238.94 403.85 236.86 406.72 235.31 C 409.59 233.77 413.57 232.59 416.93 231.66 C 420.30 230.74 423.67 229.62 426.90 229.78 C 430.14 229.93 433.74 231.63 436.35 232.60 C 438.97 233.56 440.21 233.39 442.59 235.56 C 444.97 237.73 448.59 242.21 450.64 245.62 C 452.69 249.03 454.00 252.01 454.88 256.01 C 455.76 260.01 456.03 265.31 455.92 269.61 C 455.81 273.91 455.68 276.85 454.22 281.81 C 452.76 286.76 449.75 293.89 447.17 299.33 C 444.59 304.77 442.03 309.43 438.73 314.43 C 435.44 319.43 430.67 324.80 427.38 329.33 C 424.09 333.87 422.19 337.20 418.99 341.63 C 415.79 346.06 412.14 351.44 408.18 355.91 C 404.23 360.38 398.89 364.05 395.26 368.45 C 391.62 372.85 388.90 378.35 386.37 382.33 C 383.84 386.31 381.96 388.85 380.09 392.32 C 378.22 395.80 376.09 399.76 375.14 403.15 C 374.20 406.55 374.02 410.01 374.40 412.70 C 374.78 415.40 376.27 417.46 377.43 419.33 C 378.59 421.20 379.58 422.88 381.37 423.93 C 383.15 424.99 385.26 425.35 388.13 425.67 C 390.99 425.99 395.36 426.46 398.55 425.85 C 401.74 425.24 404.49 423.69 407.27 422.01 C 410.05 420.34 412.21 418.64 415.22 415.79 C 418.22 412.95 422.22 409.00 425.29 404.94 C 428.36 400.89 431.15 396.66 433.64 391.45 C 436.13 386.24 438.57 379.10 440.23 373.70 C 441.88 368.30 443.01 364.92 443.59 359.07 C 444.17 353.22 444.22 345.52 443.70 338.59 C 443.18 331.65 442.15 324.70 440.48 317.47 C 438.82 310.24 436.27 301.77 433.71 295.21 C 431.14 288.64 428.66 284.20 425.07 278.07 C 421.49 271.94 417.14 264.58 412.20 258.44 C 407.26 252.30 401.64 246.38 395.44 241.22 C 389.23 236.06 381.22 231.36 374.96 227.47 C 368.70 223.59 364.00 221.32 357.85 217.92 C 351.71 214.53 344.73 210.61 338.09 207.10 C 331.44 203.60 324.15 200.38 317.99 196.89 C 311.82 193.39 306.60 189.99 301.10 186.13 C 295.61 182.26 289.70 177.10 285.00 173.72 C 280.31 170.33 276.68 168.93 272.92 165.82 C 269.15 162.72 265.46 158.66 262.41 155.08 C 259.36 151.51 257.02 148.13 254.62 144.39 C 252.22 140.65 249.32 136.05 248.03 132.63 C 246.74 129.20 247.71 127.28 246.90 123.84 C 246.09 120.39 243.84 115.75 243.17 111.96 C 242.49 108.17 243.19 104.38 242.83 101.09 C 242.48 97.81 241.65 94.72 241.03 92.26 C 240.41 89.80 240.06 88.70 239.13 86.32 C 238.20 83.93 236.74 80.64 235.46 77.96 C 234.19 75.28 233.12 72.56 231.49 70.24 C 229.85 67.92 227.70 65.42 225.63 64.03 C 223.57 62.63 222.25 62.58 219.10 61.87 C 215.94 61.16 210.92 59.91 206.70 59.80 C 202.48 59.68 198.24 60.16 193.75 61.16 C 189.26 62.16 184.08 64.08 179.77 65.77 C 175.46 67.47 172.11 68.52 167.88 71.32 C 163.65 74.12 158.89 78.48 154.38 82.55 C 149.86 86.62 144.70 90.46 140.79 95.72 C 136.88 100.98 133.84 108.37 130.90 114.11 C 127.95 119.85 125.62 124.33 123.10 130.15 C 120.58 135.97 117.55 142.49 115.75 149.01 C 113.96 155.54 113.25 162.73 112.34 169.31 C 111.43 175.89 110.74 182.68 110.30 188.51 C 109.86 194.33 110.07 198.15 109.69 204.26 C 109.31 210.38 108.31 218.68 108.04 225.21 C 107.77 231.73 108.39 237.34 108.06 243.44 C 107.73 249.54 106.71 256.72 106.07 261.79 C 105.44 266.86 104.89 269.30 104.27 273.86 C 103.64 278.42 103.24 284.52 102.32 289.14 C 101.40 293.75 100.07 297.70 98.75 301.54 C 97.43 305.39 96.01 309.30 94.43 312.21 C 92.84 315.12 91.12 316.62 89.22 318.99 C 87.32 321.36 85.14 324.34 83.02 326.44 C 80.90 328.54 78.76 330.28 76.50 331.57 C 74.25 332.86 71.84 333.63 69.47 334.20 C 67.10 334.78 64.46 335.05 62.27 335.02 C 60.08 334.99 58.48 334.67 56.33 334.03 C 54.18 333.38 51.61 332.09 49.40 331.14 C 47.18 330.19 45.08 329.10 43.04 328.34 C 41.00 327.58 38.74 327.09 37.14 326.58 C 35.54 326.06 35.02 325.48 33.43 325.26 C 31.85 325.04 29.42 324.69 27.62 325.25 C 25.83 325.81 23.80 327.53 22.66 328.62 C 21.51 329.71 21.24 330.61 20.76 331.77 C 20.29 332.94 20.24 333.77 19.82 335.61 C 19.39 337.46 18.39 340.31 18.21 342.85 C 18.02 345.38 18.15 348.04 18.71 350.80 C 19.27 353.56 20.17 356.36 21.58 359.42 C 22.98 362.47 24.72 365.66 27.13 369.11 C 29.55 372.56 32.93 376.28 36.07 380.11 C 39.21 383.95 42.07 388.39 45.99 392.12 C 49.90 395.86 55.05 399.65 59.55 402.52 C 64.05 405.40 67.60 406.76 72.98 409.39 C 78.36 412.02 85.05 415.71 91.82 418.30 C 98.59 420.90 106.23 423.33 113.61 424.94 C 120.99 426.54 129.05 427.40 136.10 427.92 C 143.15 428.43 148.80 428.70 155.93 428.02 C 163.06 427.35 171.44 426.26 178.89 423.86 C 186.33 421.46 193.36 417.70 200.61 413.61 C 207.86 409.51 216.00 403.72 222.41 399.29 C 228.82 394.86 233.19 391.94 239.06 387.01 C 244.93 382.08 251.99 375.73 257.62 369.71 C 263.26 363.68 268.46 357.58 272.85 350.87 C 277.25 344.16 280.70 335.77 283.98 329.46 C 287.26 323.15 290.02 319.00 292.55 312.99 C 295.09 306.99 296.86 299.76 299.21 293.41 C 301.56 287.05 304.25 280.78 306.66 274.87 C 309.07 268.96 311.55 262.90 313.65 257.95 C 315.75 253.00 317.14 249.63 319.28 245.15 C 321.43 240.68 323.80 235.42 326.52 231.11 C 329.24 226.81 332.57 223.05 335.59 219.33 C 338.61 215.61 341.73 211.41 344.62 208.81 C 347.51 206.20 349.58 205.46 352.92 203.69 C 356.25 201.92 360.64 199.78 364.64 198.19 C 368.64 196.60 372.89 194.75 376.93 194.15 C 380.97 193.56 385.37 194.30 388.86 194.61 C 392.36 194.93 394.68 195.02 397.93 196.05 C 401.18 197.08 404.92 199.08 408.37 200.78 C 411.82 202.48 414.71 202.68 418.63 206.25 C 422.56 209.83 429.72 219.58 431.94 222.24" fill="none" stroke="#fff" stroke-width="4.48" stroke-opacity="1" stroke-linecap="round" stroke-linejoin="round"/>
  </g>
</svg>