<?xml version="1.0" encoding="UTF-8"?>
<svg xmlns="http://www.w3.org/2000/svg" width="512" height="512" viewBox="0 0 512 512">
  <rect width="100%" height="100%" fill="#000"/>
  <g>
    <path d="M 256.00 256.00 C 257.80 256.79 262.78 258.37 266.80 260.77 C 270.82 263.16 276.24 266.95 280.09 270.36 C 283.95 273.77 287.52 277.59 289.93 281.23 C 292.34 284.88 293.50 288.06 294.58 292.25 C 295.65 296.45 296.48 301.99 296.40 306.40 C 296.32 310.81 295.37 314.77 294.11 318.71 C 292.85 322.65 291.00 326.24 288.85 330.04 C 286.71 333.84 283.99 338.25 281.25 341.51 C 278.51 344.76 275.20 347.41 272.39 349.58 C 269.57 351.75 267.73 352.82 264.35 354.50 C 260.97 356.19 256.67 359.03 252.08 359.69 C 247.50 360.36 241.78 359.16 236.83 358.47 C 231.88 357.78 227.20 357.08 222.39 355.58 C 217.59 354.08 212.48 352.16 207.98 349.47 C 203.49 346.79 199.52 343.44 195.43 339.47 C 191.34 335.50 186.69 330.44 183.43 325.64 C 180.18 320.84 177.72 315.86 175.88 310.66 C 174.04 305.47 173.23 299.40 172.37 294.48 C 171.51 289.56 170.95 285.88 170.73 281.12 C 170.51 276.36 170.60 271.34 171.06 265.94 C 171.51 260.55 172.11 253.96 173.47 248.75 C 174.84 243.55 176.91 239.35 179.24 234.71 C 181.56 230.08 184.26 225.03 187.43 220.92 C 190.60 216.81 194.55 213.94 198.26 210.07 C 201.98 206.20 205.36 201.34 209.73 197.73 C 214.09 194.11 219.61 190.93 224.46 188.38 C 229.31 185.83 234.16 183.82 238.83 182.43 C 243.50 181.04 248.28 180.47 252.46 180.03 C 256.64 179.60 259.57 179.47 263.93 179.81 C 268.30 180.15 273.77 180.94 278.64 182.06 C 283.51 183.19 288.74 184.75 293.15 186.55 C 297.55 188.35 301.14 190.38 305.07 192.86 C 309.00 195.34 313.25 198.24 316.73 201.42 C 320.20 204.60 323.10 207.75 325.94 211.96 C 328.78 216.16 331.83 221.85 333.77 226.63 C 335.70 231.41 336.75 235.71 337.54 240.64 C 338.33 245.57 338.91 251.73 338.52 256.20 C 338.13 260.67 336.87 263.12 335.19 267.45 C 333.50 271.78 331.19 277.83 328.42 282.19 C 325.64 286.55 322.59 290.15 318.54 293.61 C 314.49 297.08 308.97 300.31 304.14 302.99 C 299.31 305.67 294.65 308.02 289.58 309.69 C 284.52 311.36 279.09 312.56 273.76 313.01 C 268.44 313.45 262.75 312.91 257.63 312.35 C 252.50 311.79 248.03 310.90 243.00 309.65 C 237.98 308.40 232.22 307.25 227.48 304.85 C 222.75 302.45 217.85 298.23 214.60 295.25 C 211.35 292.28 210.38 290.73 207.99 286.99 C 205.59 283.25 202.44 277.17 200.24 272.81 C 198.03 268.44 195.72 265.07 194.75 260.81 C 193.78 256.56 194.26 251.91 194.42 247.29 C 194.58 242.66 194.60 237.77 195.70 233.06 C 196.80 228.34 199.00 223.34 201.00 218.98 C 203.00 214.61 205.12 210.81 207.70 206.88 C 210.28 202.96 213.11 198.92 216.49 195.41 C 219.88 191.90 224.61 188.28 228.02 185.82 C 231.44 183.35 232.72 182.32 236.98 180.61 C 241.24 178.89 248.62 176.70 253.58 175.53 C 258.54 174.37 261.88 173.67 266.74 173.61 C 271.60 173.56 278.03 173.97 282.75 175.22 C 287.46 176.47 290.85 178.45 295.05 181.12 C 299.24 183.80 304.22 187.78 307.93 191.29 C 311.63 194.79 314.61 198.06 317.27 202.17 C 319.93 206.28 322.03 210.90 323.88 215.92 C 325.72 220.94 327.23 226.94 328.34 232.31 C 329.45 237.67 329.99 243.62 330.53 248.12 C 331.08 252.63 331.85 255.00 331.60 259.33 C 331.35 263.67 330.75 269.43 329.03 274.13 C 327.31 278.84 324.11 283.38 321.29 287.58 C 318.47 291.78 315.62 295.66 312.11 299.33 C 308.60 303.01 304.43 306.84 300.22 309.61 C 296.01 312.37 291.52 314.05 286.84 315.94 C 282.15 317.82 277.05 319.97 272.11 320.92 C 267.17 321.86 262.09 321.69 257.18 321.58 C 252.27 321.48 247.06 320.85 242.65 320.27 C 238.24 319.70 235.03 319.39 230.70 318.11 C 226.37 316.83 220.95 315.05 216.67 312.59 C 212.39 310.13 208.65 306.79 205.03 303.33 C 201.41 299.88 197.85 295.96 194.94 291.84 C 192.04 287.71 189.51 283.08 187.58 278.59 C 185.65 274.09 184.50 269.61 183.37 264.87 C 182.24 260.13 181.18 254.97 180.79 250.15 C 180.39 245.34 180.22 240.73 180.97 235.97 C 181.73 231.21 183.76 226.22 185.32 221.61 C 186.87 217.00 188.68 212.21 190.31 208.32 C 191.95 204.43 192.70 202.03 195.14 198.25 C 197.58 194.47 201.99 189.44 204.95 185.65 C 207.90 181.86 210.01 178.83 212.88 175.51 C 215.75 172.18 219.10 168.75 222.16 165.72 C 225.23 162.68 228.26 159.92 231.28 157.29 C 234.30 154.67 237.41 152.96 240.27 149.96 C 243.14 146.97 246.05 142.72 248.47 139.32 C 250.89 135.93 252.56 132.30 254.81 129.58 C 257.06 126.86 260.41 125.29 261.97 123.00 C 263.53 120.71 263.18 118.24 264.16 115.82 C 265.15 113.40 267.29 111.00 267.90 108.48 C 268.52 105.97 268.04 103.05 267.86 100.75 C 267.69 98.45 267.41 96.78 266.85 94.70 C 266.30 92.62 265.67 90.56 264.51 88.26 C 263.36 85.96 262.13 82.76 259.90 80.91 C 257.67 79.06 254.28 78.16 251.13 77.15 C 247.99 76.15 244.56 75.35 241.04 74.89 C 237.52 74.43 233.40 74.48 230.01 74.38 C 226.62 74.28 224.14 73.81 220.70 74.29 C 217.26 74.77 213.22 76.04 209.37 77.27 C 205.52 78.51 201.48 79.99 197.61 81.70 C 193.75 83.41 189.93 84.90 186.19 87.54 C 182.45 90.18 178.69 93.51 175.17 97.54 C 171.65 101.58 167.96 106.66 165.06 111.73 C 162.17 116.80 159.98 122.27 157.80 127.96 C 155.62 133.65 153.64 139.86 151.96 145.84 C 150.29 151.82 148.71 157.57 147.73 163.82 C 146.75 170.07 146.21 177.52 146.07 183.33 C 145.93 189.13 146.13 192.96 146.88 198.62 C 147.63 204.29 149.28 211.17 150.57 217.31 C 151.85 223.45 152.83 229.43 154.58 235.48 C 156.34 241.52 158.84 248.24 161.12 253.58 C 163.39 258.92 165.95 262.86 168.23 267.53 C 170.51 272.19 172.77 277.00 174.78 281.56 C 176.80 286.12 178.86 290.10 180.33 294.91 C 181.80 299.73 182.48 305.88 183.61 310.44 C 184.74 315.00 186.58 318.84 187.11 322.28 C 187.63 325.72 186.66 327.80 186.77 331.07 C 186.88 334.33 187.42 338.24 187.74 341.87 C 188.05 345.49 188.43 349.21 188.66 352.83 C 188.89 356.45 189.43 360.28 189.10 363.60 C 188.77 366.91 187.50 370.07 186.68 372.74 C 185.86 375.42 185.10 377.81 184.18 379.65 C 183.26 381.48 182.62 382.02 181.18 383.75 C 179.73 385.47 177.44 387.98 175.52 390.00 C 173.61 392.03 171.17 393.95 169.69 395.88 C 168.22 397.80 167.47 399.68 166.66 401.55 C 165.86 403.43 165.75 405.48 164.88 407.13 C 164.01 408.79 162.07 409.79 161.44 411.50 C 160.80 413.20 161.00 415.38 161.06 417.38 C 161.13 419.38 161.33 421.18 161.82 423.48 C 162.31 425.78 162.73 428.69 163.99 431.19 C 165.25 433.68 167.35 436.20 169.39 438.44 C 171.43 440.68 173.57 442.72 176.23 444.63 C 178.90 446.54 182.09 448.20 185.40 449.91 C 188.70 451.63 192.68 453.60 196.07 454.93 C 199.46 456.27 202.29 457.28 205.73 457.91 C 209.17 458.54 212.67 458.35 216.72 458.71 C 220.77 459.07 225.61 459.61 230.01 460.08 C 234.42 460.55 239.40 460.91 243.17 461.54 C 246.94 462.17 249.64 463.32 252.64 463.86 C 255.65 464.41 258.07 464.16 261.18 464.80 C 264.29 465.44 268.59 467.08 271.29 467.69 C 273.99 468.31 275.63 467.91 277.39 468.48 C 279.15 469.04 280.82 469.85 281.86 471.09 C 282.89 472.33 283.33 474.71 283.60 475.91 C 283.88 477.11 284.50 477.23 283.51 478.28 C 282.52 479.32 279.70 481.12 277.66 482.18 C 275.63 483.24 274.14 484.30 271.31 484.65 C 268.48 484.99 264.40 484.82 260.68 484.26 C 256.97 483.70 253.17 482.38 249.01 481.28 C 244.84 480.19 240.17 479.63 235.67 477.69 C 231.17 475.76 226.47 472.48 222.00 469.67 C 217.52 466.87 213.05 464.71 208.81 460.85 C 204.56 457.00 199.85 450.92 196.53 446.55 C 193.22 442.17 191.79 439.50 188.91 434.59 C 186.02 429.69 182.03 423.20 179.21 417.12 C 176.40 411.04 174.00 404.20 172.01 398.09 C 170.03 391.98 168.50 386.72 167.28 380.45 C 166.07 374.18 165.15 367.13 164.72 360.50 C 164.29 353.86 164.06 347.10 164.70 340.63 C 165.34 334.15 166.52 328.12 168.56 321.65 C 170.60 315.18 174.26 308.08 176.92 301.80 C 179.58 295.53 181.60 289.66 184.52 284.01 C 187.44 278.36 191.39 272.36 194.45 267.89 C 197.51 263.42 199.35 261.21 202.88 257.21 C 206.41 253.20 211.43 247.66 215.64 243.86 C 219.84 240.06 223.81 237.68 228.13 234.41 C 232.44 231.14 237.14 227.27 241.53 224.26 C 245.91 221.24 250.41 219.05 254.42 216.32 C 258.43 213.60 261.83 210.79 265.59 207.93 C 269.36 205.06 273.55 202.03 277.00 199.14 C 280.46 196.26 283.30 193.57 286.32 190.60 C 289.34 187.62 293.06 184.05 295.13 181.29 C 297.20 178.54 297.36 176.71 298.74 174.05 C 300.11 171.38 301.87 168.45 303.38 165.30 C 304.89 162.14 306.83 158.40 307.82 155.11 C 308.80 151.81 308.76 148.57 309.32 145.53 C 309.87 142.49 311.05 139.64 311.14 136.86 C 311.22 134.07 310.50 131.36 309.82 128.80 C 309.14 126.23 307.84 124.00 307.04 121.46 C 306.23 118.93 305.66 116.18 305.01 113.57 C 304.36 110.96 304.05 107.83 303.16 105.83 C 302.26 103.83 300.25 103.65 299.63 101.56 C 299.01 99.47 299.55 95.95 299.42 93.28 C 299.30 90.60 299.03 87.96 298.88 85.51 C 298.73 83.06 298.45 80.64 298.51 78.58 C 298.58 76.52 298.62 74.66 299.29 73.15 C 299.97 71.64 301.27 70.75 302.56 69.51 C 303.84 68.27 305.22 67.03 307.01 65.70 C 308.81 64.37 311.26 62.48 313.34 61.54 C 315.41 60.61 317.24 60.02 319.46 60.08 C 321.68 60.15 324.37 61.21 326.67 61.93 C 328.97 62.66 330.59 63.40 333.27 64.43 C 335.95 65.46 339.64 67.29 342.74 68.12 C 345.84 68.94 349.13 68.53 351.87 69.40 C 354.62 70.26 356.73 72.16 359.21 73.31 C 361.68 74.46 364.00 75.15 366.73 76.30 C 369.46 77.45 373.13 79.30 375.58 80.19 C 378.03 81.09 379.22 81.39 381.44 81.67 C 383.66 81.94 386.72 81.96 388.90 81.85 C 391.09 81.75 392.91 81.10 394.56 81.06 C 396.20 81.01 397.34 81.50 398.76 81.57 C 400.18 81.65 402.11 82.05 403.07 81.51 C 404.03 80.98 404.07 79.37 404.50 78.37 C 404.93 77.37 405.81 76.38 405.65 75.50 C 405.48 74.62 404.27 74.33 403.50 73.11 C 402.73 71.90 402.05 69.77 401.01 68.23 C 399.97 66.69 398.81 65.25 397.27 63.88 C 395.73 62.51 393.99 61.57 391.76 60.02 C 389.54 58.46 386.81 56.14 383.91 54.55 C 381.01 52.97 377.48 51.64 374.35 50.50 C 371.23 49.37 369.25 48.36 365.16 47.76 C 361.07 47.16 354.91 46.99 349.82 46.92 C 344.72 46.84 339.84 46.95 334.58 47.30 C 329.31 47.65 323.62 47.79 318.23 49.03 C 312.85 50.27 308.02 52.59 302.25 54.74 C 296.47 56.90 289.58 59.07 283.59 61.94 C 277.61 64.81 271.82 68.24 266.34 71.97 C 260.86 75.70 255.71 79.78 250.71 84.32 C 245.70 88.85 240.01 94.68 236.31 99.20 C 232.62 103.72 231.41 106.32 228.53 111.42 C 225.64 116.51 221.90 123.63 219.00 129.76 C 216.11 135.90 213.42 142.43 211.16 148.23 C 208.91 154.04 207.34 159.09 205.49 164.60 C 203.64 170.10 201.86 175.47 200.06 181.28 C 198.25 187.08 196.20 193.72 194.66 199.44 C 193.12 205.16 192.24 210.51 190.82 215.58 C 189.40 220.65 187.73 225.14 186.14 229.85 C 184.56 234.57 183.16 239.55 181.31 243.89 C 179.45 248.24 176.62 252.36 175.04 255.94 C 173.45 259.52 173.07 261.74 171.80 265.40 C 170.54 269.06 169.31 274.03 167.46 277.88 C 165.60 281.72 162.70 285.29 160.67 288.46 C 158.64 291.63 157.05 294.59 155.27 296.89 C 153.49 299.20 152.00 300.75 149.98 302.30 C 147.96 303.85 145.66 304.70 143.15 306.18 C 140.65 307.67 137.30 309.53 134.95 311.19 C 132.61 312.86 130.91 314.04 129.10 316.16 C 127.29 318.28 125.65 321.65 124.10 323.91 C 122.54 326.17 120.54 327.19 119.78 329.74 C 119.03 332.29 119.38 335.87 119.56 339.21 C 119.74 342.55 120.26 346.66 120.86 349.78 C 121.46 352.90 121.72 355.13 123.17 357.93 C 124.61 360.72 127.43 363.41 129.53 366.54 C 131.63 369.68 132.83 373.55 135.79 376.73 C 138.75 379.91 143.06 383.33 147.28 385.61 C 151.50 387.90 156.00 389.04 161.09 390.44 C 166.17 391.83 171.93 393.11 177.80 393.98 C 183.68 394.86 190.86 395.67 196.31 395.70 C 201.77 395.73 205.00 395.86 210.52 394.17 C 216.03 392.49 223.45 388.68 229.40 385.59 C 235.35 382.50 241.09 379.77 246.24 375.62 C 251.40 371.48 256.46 366.46 260.34 360.73 C 264.22 354.99 267.06 347.55 269.53 341.24 C 272.00 334.93 273.86 329.26 275.15 322.85 C 276.44 316.45 277.93 309.14 277.26 302.80 C 276.58 296.47 273.78 290.23 271.12 284.83 C 268.46 279.44 264.09 274.14 261.27 270.44 C 258.46 266.73 257.77 264.89 254.23 262.59 C 250.68 260.29 244.67 257.90 239.99 256.64 C 235.32 255.39 230.42 255.12 226.16 255.08 C 221.91 255.04 218.26 254.90 214.48 256.41 C 210.70 257.92 206.86 261.09 203.48 264.13 C 200.10 267.17 196.80 271.02 194.20 274.65 C 191.60 278.29 189.43 282.06 187.88 285.94 C 186.33 289.82 185.53 293.57 184.89 297.93 C 184.24 302.30 184.25 307.46 184.01 312.12 C 183.78 316.79 183.56 322.39 183.48 325.91 C 183.40 329.43 183.56 330.44 183.52 333.26 C 183.49 336.07 183.22 339.15 183.25 342.79 C 183.28 346.43 183.55 351.17 183.69 355.07 C 183.83 358.97 183.66 362.80 184.08 366.18 C 184.51 369.56 186.26 372.51 186.23 375.36 C 186.21 378.20 184.49 380.73 183.92 383.25 C 183.36 385.77 183.42 388.05 182.82 390.47 C 182.23 392.90 181.69 395.74 180.35 397.79 C 179.00 399.83 176.35 401.14 174.74 402.75 C 173.13 404.37 172.12 406.03 170.67 407.48 C 169.22 408.92 167.68 410.15 166.04 411.41 C 164.40 412.67 162.52 413.72 160.85 415.03 C 159.17 416.33 157.37 417.82 155.98 419.24 C 154.59 420.66 153.71 421.97 152.51 423.55 C 151.30 425.13 149.42 427.10 148.76 428.70 C 148.11 430.30 148.52 431.73 148.58 433.15 C 148.64 434.57 148.45 435.50 149.13 437.22 C 149.82 438.94 151.71 441.75 152.68 443.49 C 153.66 445.22 153.30 446.23 154.96 447.63 C 156.61 449.03 159.58 450.41 162.59 451.88 C 165.59 453.36 169.60 455.02 172.98 456.48 C 176.36 457.94 179.21 459.69 182.86 460.64 C 186.52 461.59 190.45 461.75 194.90 462.17 C 199.35 462.58 204.56 463.32 209.56 463.16 C 214.57 463.00 220.01 461.78 224.93 461.21 C 229.86 460.63 234.29 460.49 239.11 459.71 C 243.94 458.93 249.13 457.72 253.87 456.51 C 258.61 455.31 263.43 453.48 267.55 452.46 C 271.67 451.44 274.95 451.18 278.59 450.40 C 282.23 449.63 286.09 448.43 289.41 447.80 C 292.73 447.17 295.34 446.72 298.52 446.61 C 301.70 446.51 305.77 446.65 308.48 447.17 C 311.19 447.70 312.45 448.80 314.77 449.78 C 317.08 450.76 320.35 451.95 322.36 453.07 C 324.36 454.19 325.56 455.32 326.81 456.53 C 328.05 457.74 329.11 459.12 329.83 460.33 C 330.54 461.53 331.27 462.81 331.10 463.76 C 330.92 464.71 329.51 465.02 328.77 466.02 C 328.03 467.02 327.44 468.29 326.68 469.74 C 325.91 471.19 325.13 473.12 324.17 474.71 C 323.21 476.30 322.00 477.86 320.93 479.28 C 319.87 480.70 318.73 482.08 317.77 483.24 C 316.81 484.41 315.54 485.29 315.17 486.27 C 314.80 487.25 315.07 487.90 315.55 489.14 C 316.02 490.38 317.07 493.05 318.01 493.72 C 318.95 494.38 319.61 493.55 321.18 493.14 C 322.75 492.72 325.33 491.66 327.43 491.22 C 329.53 490.78 331.61 491.30 333.78 490.51 C 335.95 489.73 337.69 488.27 340.46 486.49 C 343.23 484.70 347.20 482.33 350.41 479.82 C 353.61 477.31 356.58 474.36 359.70 471.44 C 362.81 468.52 366.25 465.45 369.10 462.31 C 371.96 459.18 373.83 456.12 376.82 452.62 C 379.80 449.12 383.97 445.10 387.02 441.32 C 390.07 437.55 392.49 433.58 395.13 429.99 C 397.78 426.39 400.45 422.85 402.89 419.73 C 405.34 416.60 407.31 414.25 409.81 411.24 C 412.31 408.24 415.45 404.67 417.90 401.71 C 420.34 398.75 422.24 396.17 424.47 393.51 C 426.70 390.84 428.60 387.74 431.26 385.74 C 433.93 383.75 437.94 382.77 440.45 381.56 C 442.96 380.35 444.56 378.80 446.32 378.49 C 448.08 378.19 449.95 379.17 451.02 379.74 C 452.08 380.30 452.38 380.97 452.71 381.89 C 453.04 382.81 453.24 383.92 453.00 385.25 C 452.75 386.58 451.92 388.30 451.22 389.86 C 450.53 391.41 449.96 392.78 448.82 394.58 C 447.68 396.38 445.98 398.32 444.40 400.67 C 442.82 403.03 441.65 406.13 439.33 408.70 C 437.02 411.27 433.74 413.60 430.51 416.08 C 427.27 418.56 424.09 421.49 419.90 423.58 C 415.72 425.68 410.47 427.19 405.39 428.65 C 400.30 430.10 394.75 431.26 389.41 432.30 C 384.07 433.34 378.90 434.43 373.36 434.88 C 367.82 435.34 361.42 435.43 356.17 435.03 C 350.93 434.64 347.68 433.62 341.88 432.50 C 336.07 431.38 327.73 430.17 321.35 428.32 C 314.96 426.47 309.51 424.20 303.59 421.40 C 297.68 418.60 291.63 415.17 285.86 411.50 C 280.10 407.83 274.57 403.70 269.02 399.37 C 263.46 395.05 257.30 390.62 252.54 385.55 C 247.78 380.48 244.04 374.50 240.45 368.95 C 236.86 363.39 233.59 358.37 231.00 352.21 C 228.41 346.05 226.47 338.43 224.91 331.99 C 223.36 325.55 222.03 318.91 221.68 313.57 C 221.33 308.23 221.96 305.44 222.82 299.97 C 223.68 294.49 224.73 286.58 226.85 280.71 C 228.98 274.85 232.41 269.39 235.56 264.78 C 238.71 260.17 241.68 256.72 245.76 253.04 C 249.84 249.35 255.35 245.04 260.06 242.67 C 264.76 240.30 269.34 239.65 273.99 238.80 C 278.63 237.96 283.55 237.52 287.92 237.61 C 292.29 237.70 296.35 238.20 300.22 239.35 C 304.08 240.50 308.44 242.42 311.12 244.51 C 313.80 246.61 314.21 248.33 316.30 251.94 C 318.39 255.56 321.83 261.64 323.65 266.20 C 325.47 270.76 326.77 274.70 327.22 279.30 C 327.66 283.89 327.50 289.04 326.33 293.78 C 325.16 298.52 322.57 303.15 320.19 307.71 C 317.82 312.28 315.53 317.46 312.08 321.17 C 308.63 324.88 303.96 327.83 299.50 330.00 C 295.04 332.16 290.25 332.91 285.32 334.18 C 280.39 335.44 274.75 337.16 269.91 337.59 C 265.07 338.02 261.26 337.57 256.26 336.76 C 251.26 335.95 245.17 334.99 239.92 332.73 C 234.67 330.46 229.47 326.38 224.76 323.17 C 220.05 319.97 215.03 317.67 211.66 313.48 C 208.30 309.28 206.36 303.20 204.58 298.02 C 202.81 292.84 201.82 288.03 201.03 282.41 C 200.25 276.79 199.48 270.03 199.88 264.30 C 200.28 258.57 201.27 252.83 203.41 248.01 C 205.55 243.19 209.49 239.42 212.71 235.39 C 215.93 231.35 219.51 226.79 222.75 223.78 C 225.98 220.77 228.01 219.48 232.11 217.31 C 236.21 215.14 242.40 211.96 247.34 210.75 C 252.29 209.54 256.77 209.55 261.78 210.05 C 266.78 210.56 272.56 211.98 277.37 213.78 C 282.18 215.59 286.85 218.04 290.64 220.87 C 294.44 223.71 297.34 226.72 300.14 230.82 C 302.95 234.92 305.46 240.60 307.46 245.46 C 309.47 250.32 311.49 255.03 312.19 259.98 C 312.89 264.93 312.26 270.96 311.67 275.14 C 311.09 279.33 310.17 281.14 308.68 285.07 C 307.20 289.01 305.46 294.75 302.77 298.73 C 300.09 302.72 296.34 305.78 292.58 308.97 C 288.83 312.16 284.35 315.56 280.24 317.88 C 276.13 320.19 272.25 321.62 267.92 322.85 C 263.60 324.08 259.11 325.13 254.28 325.26 C 249.45 325.40 244.04 324.58 238.95 323.68 C 233.86 322.77 228.55 321.65 223.76 319.82 C 218.96 317.98 214.35 315.98 210.20 312.68 C 206.04 309.38 201.71 303.65 198.82 300.01 C 195.93 296.37 195.18 294.56 192.87 290.86 C 190.56 287.17 186.70 282.52 184.96 277.86 C 183.22 273.21 182.68 268.07 182.41 262.94 C 182.14 257.80 182.49 252.01 183.35 247.05 C 184.20 242.10 185.62 237.82 187.55 233.23 C 189.48 228.63 191.96 223.73 194.95 219.48 C 197.93 215.23 201.61 211.18 205.45 207.74 C 209.28 204.31 213.26 201.10 217.97 198.85 C 222.68 196.60 228.96 195.40 233.70 194.25 C 238.43 193.11 241.36 191.98 246.38 191.96 C 251.39 191.94 258.22 192.97 263.78 194.15 C 269.35 195.32 275.04 196.91 279.77 199.03 C 284.51 201.15 288.42 203.36 292.20 206.86 C 295.99 210.37 299.71 215.55 302.50 220.06 C 305.30 224.57 307.33 229.21 308.99 233.92 C 310.66 238.63 312.37 243.47 312.48 248.33 C 312.59 253.19 311.10 258.11 309.64 263.07 C 308.19 268.02 306.46 273.58 303.74 278.05 C 301.03 282.52 296.30 286.65 293.36 289.88 C 290.42 293.12 289.25 294.48 286.09 297.46 C 282.94 300.44 278.35 304.58 274.43 307.76 C 270.52 310.94 266.43 313.70 262.60 316.55 C 258.78 319.40 255.09 322.07 251.50 324.85 C 247.91 327.63 244.23 330.59 241.07 333.24 C 237.90 335.89 235.47 338.36 232.52 340.75 C 229.56 343.15 226.09 345.08 223.34 347.59 C 220.59 350.10 217.86 352.85 216.01 355.81 C 214.16 358.78 213.34 362.89 212.22 365.37 C 211.11 367.84 210.11 368.30 209.33 370.65 C 208.54 373.00 207.58 376.44 207.51 379.47 C 207.43 382.50 207.93 385.87 208.87 388.81 C 209.81 391.75 211.73 394.69 213.13 397.13 C 214.53 399.57 215.31 401.17 217.26 403.45 C 219.22 405.74 222.14 408.33 224.87 410.84 C 227.59 413.36 230.49 416.82 233.61 418.54 C 236.72 420.27 240.16 420.13 243.54 421.18 C 246.93 422.22 250.56 423.79 253.93 424.81 C 257.29 425.84 260.83 426.50 263.75 427.32 C 266.68 428.14 268.75 428.93 271.46 429.74 C 274.17 430.54 277.30 431.13 280.00 432.17 C 282.69 433.20 285.41 434.83 287.61 435.97 C 289.81 437.10 291.40 437.64 293.21 438.98 C 295.02 440.32 296.91 442.46 298.45 444.01 C 300.00 445.57 301.35 446.91 302.49 448.29 C 303.63 449.68 304.71 451.05 305.30 452.33 C 305.90 453.60 306.11 454.61 306.06 455.94 C 306.02 457.26 305.43 459.07 305.03 460.27 C 304.64 461.48 303.70 461.92 303.70 463.17 C 303.69 464.41 304.49 466.36 305.00 467.73 C 305.52 469.09 305.98 470.22 306.77 471.36 C 307.57 472.50 308.99 473.72 309.76 474.59 C 310.54 475.45 310.63 475.78 311.41 476.56 C 312.19 477.34 313.29 478.60 314.46 479.26 C 315.63 479.93 316.68 480.25 318.43 480.55 C 320.18 480.85 322.96 481.20 324.96 481.06 C 326.95 480.91 328.68 480.04 330.40 479.70 C 332.11 479.36 332.88 480.01 335.22 479.02 C 337.57 478.03 341.12 475.76 344.46 473.76 C 347.80 471.77 351.80 469.83 355.27 467.04 C 358.75 464.26 362.22 460.75 365.31 457.06 C 368.40 453.36 371.00 449.66 373.82 444.88 C 376.65 440.10 379.80 433.84 382.24 428.37 C 384.68 422.91 386.78 417.90 388.47 412.10 C 390.17 406.29 391.52 400.13 392.41 393.53 C 393.29 386.92 393.94 379.17 393.77 372.48 C 393.61 365.80 392.10 358.93 391.41 353.42 C 390.72 347.92 390.58 344.94 389.63 339.46 C 388.68 333.98 388.12 326.78 385.70 320.56 C 383.28 314.33 378.67 308.07 375.13 302.11 C 371.59 296.15 368.38 290.21 364.47 284.81 C 360.56 279.41 356.20 274.22 351.66 269.70 C 347.11 265.17 342.17 260.99 337.20 257.65 C 332.22 254.31 327.54 252.19 321.80 249.67 C 316.06 247.15 308.76 244.61 302.76 242.54 C 296.76 240.46 290.83 238.45 285.80 237.24 C 280.76 236.03 277.65 235.82 272.54 235.26 C 267.44 234.71 260.27 234.31 255.17 233.91 C 250.07 233.52 246.44 233.19 241.95 232.90 C 237.47 232.61 232.91 232.68 228.26 232.17 C 223.62 231.66 218.80 230.41 214.11 229.82 C 209.41 229.23 204.36 229.67 200.12 228.64 C 195.87 227.61 192.50 225.33 188.64 223.66 C 184.78 221.99 180.41 220.66 176.96 218.62 C 173.50 216.58 170.61 214.04 167.91 211.43 C 165.20 208.81 162.80 205.36 160.72 202.96 C 158.64 200.56 157.16 199.16 155.42 197.03 C 153.68 194.89 151.31 193.03 150.27 190.15 C 149.24 187.26 149.26 183.18 149.22 179.72 C 149.18 176.26 148.87 173.07 150.03 169.39 C 151.19 165.70 153.65 161.12 156.18 157.61 C 158.71 154.11 162.25 151.10 165.19 148.34 C 168.13 145.57 170.68 143.70 173.82 141.03 C 176.96 138.36 180.53 134.76 184.02 132.30 C 187.50 129.84 191.10 128.08 194.71 126.27 C 198.32 124.47 201.57 123.03 205.68 121.45 C 209.78 119.87 214.48 118.05 219.31 116.80 C 224.14 115.55 229.28 114.47 234.66 113.96 C 240.03 113.45 245.92 113.02 251.56 113.74 C 257.21 114.46 263.18 116.62 268.53 118.28 C 273.88 119.95 278.78 121.38 283.67 123.73 C 288.56 126.08 293.30 129.22 297.85 132.38 C 302.40 135.55 307.15 139.16 310.99 142.71 C 314.82 146.26 317.39 149.57 320.85 153.66 C 324.31 157.74 328.98 163.41 331.74 167.23 C 334.50 171.04 335.08 172.91 337.43 176.54 C 339.79 180.17 343.32 184.63 345.88 188.98 C 348.43 193.34 350.32 198.41 352.74 202.65 C 355.17 206.89 357.62 211.09 360.44 214.40 C 363.26 217.71 366.76 219.87 369.67 222.51 C 372.58 225.16 375.02 227.96 377.90 230.26 C 380.77 232.57 384.01 234.64 386.94 236.35 C 389.86 238.06 392.72 239.55 395.44 240.52 C 398.16 241.50 400.94 241.93 403.27 242.19 C 405.59 242.46 407.20 242.82 409.39 242.12 C 411.58 241.41 414.55 239.85 416.43 237.96 C 418.31 236.08 419.63 233.43 420.65 230.79 C 421.67 228.15 422.10 225.44 422.57 222.13 C 423.04 218.83 424.29 214.89 423.46 210.95 C 422.63 207.01 420.31 202.52 417.58 198.48 C 414.84 194.43 410.63 190.48 407.05 186.68 C 403.48 182.88 400.25 179.26 396.13 175.69 C 392.01 172.12 387.47 167.99 382.34 165.27 C 377.21 162.56 370.48 160.91 365.36 159.42 C 360.25 157.92 357.10 156.93 351.66 156.32 C 346.22 155.72 339.25 154.93 332.72 155.79 C 326.18 156.64 319.13 159.22 312.45 161.45 C 305.78 163.69 298.42 165.46 292.64 169.20 C 286.87 172.94 282.13 178.83 277.81 183.89 C 273.49 188.95 269.43 193.89 266.74 199.54 C 264.04 205.19 262.91 212.16 261.64 217.79 C 260.37 223.41 259.34 227.75 259.11 233.29 C 258.89 238.83 259.63 246.23 260.30 251.05 C 260.97 255.86 261.23 258.48 263.14 262.20 C 265.04 265.91 268.42 269.81 271.71 273.34 C 275.01 276.87 279.32 280.58 282.93 283.37 C 286.54 286.16 290.01 287.70 293.38 290.09 C 296.75 292.48 299.98 295.61 303.15 297.71 C 306.32 299.81 309.15 300.85 312.41 302.69 C 315.66 304.53 319.34 306.81 322.70 308.74 C 326.07 310.67 329.41 312.59 332.59 314.27 C 335.77 315.95 338.79 317.18 341.77 318.81 C 344.75 320.44 348.07 322.67 350.47 324.06 C 352.87 325.46 354.12 325.61 356.17 327.18 C 358.23 328.75 360.44 331.31 362.79 333.49 C 365.13 335.67 368.08 338.07 370.22 340.27 C 372.36 342.46 374.51 344.44 375.62 346.65 C 376.73 348.86 376.62 350.84 376.87 353.54 C 377.13 356.23 377.59 359.62 377.14 362.83 C 376.68 366.04 375.32 369.43 374.16 372.81 C 373.00 376.19 371.98 379.95 370.16 383.10 C 368.34 386.25 365.65 389.42 363.25 391.69 C 360.85 393.96 358.99 394.61 355.74 396.72 C 352.49 398.83 348.26 402.34 343.74 404.34 C 339.23 406.35 333.90 407.88 328.62 408.75 C 323.35 409.62 317.91 409.99 312.10 409.55 C 306.30 409.12 299.60 407.62 293.79 406.15 C 287.99 404.68 282.72 403.53 277.28 400.73 C 271.84 397.93 266.02 393.76 261.15 389.35 C 256.29 384.94 251.76 379.69 248.09 374.29 C 244.43 368.90 241.56 362.04 239.17 356.99 C 236.79 351.95 235.31 349.65 233.79 344.04 C 232.27 338.42 230.49 330.10 230.05 323.29 C 229.61 316.48 230.25 309.57 231.15 303.16 C 232.06 296.76 233.15 290.21 235.46 284.83 C 237.77 279.45 241.26 275.01 245.02 270.87 C 248.79 266.72 253.64 262.71 258.05 259.97 C 262.46 257.23 266.75 255.57 271.49 254.42 C 276.22 253.27 281.41 252.36 286.47 253.08 C 291.53 253.80 297.59 256.36 301.86 258.74 C 306.14 261.13 309.24 264.49 312.10 267.40 C 314.96 270.31 317.08 272.39 319.01 276.20 C 320.94 280.01 322.95 285.60 323.69 290.26 C 324.43 294.92 324.38 299.90 323.42 304.14 C 322.47 308.38 320.15 311.96 317.98 315.70 C 315.80 319.45 313.57 323.14 310.37 326.62 C 307.17 330.10 302.86 333.77 298.80 336.58 C 294.75 339.39 290.33 341.28 286.04 343.47 C 281.75 345.66 277.49 347.88 273.06 349.73 C 268.63 351.58 263.31 353.22 259.46 354.57 C 255.61 355.91 253.58 356.87 249.95 357.80 C 246.32 358.72 241.94 358.83 237.68 360.12 C 233.41 361.42 228.46 364.07 224.37 365.58 C 220.27 367.10 216.73 367.98 213.09 369.22 C 209.45 370.45 205.74 371.47 202.52 372.99 C 199.30 374.52 196.63 376.83 193.76 378.37 C 190.90 379.92 187.55 380.70 185.34 382.27 C 183.12 383.84 182.14 386.27 180.47 387.80 C 178.79 389.33 176.82 390.09 175.29 391.44 C 173.76 392.79 172.71 394.85 171.26 395.92 C 169.81 396.98 168.31 396.75 166.60 397.83 C 164.88 398.91 162.68 400.95 160.99 402.38 C 159.30 403.81 158.05 405.42 156.46 406.43 C 154.87 407.44 153.41 407.87 151.46 408.44 C 149.51 409.01 146.94 409.61 144.74 409.87 C 142.55 410.12 140.32 410.03 138.29 409.96 C 136.26 409.89 134.81 409.79 132.56 409.46 C 130.31 409.12 127.56 408.64 124.80 407.96 C 122.05 407.27 118.35 406.44 116.04 405.38 C 113.73 404.31 113.06 403.58 110.93 401.58 C 108.81 399.59 105.68 396.28 103.29 393.42 C 100.90 390.57 98.73 387.87 96.58 384.45 C 94.43 381.04 92.47 376.94 90.39 372.94 C 88.32 368.94 85.78 364.61 84.11 360.47 C 82.45 356.33 81.43 352.48 80.39 348.10 C 79.34 343.73 79.23 338.38 77.82 334.21 C 76.41 330.03 73.63 326.56 71.92 323.06 C 70.22 319.56 69.18 315.99 67.58 313.23 C 65.98 310.47 64.00 308.47 62.32 306.50 C 60.64 304.53 58.97 302.72 57.49 301.41 C 56.02 300.11 54.92 299.32 53.46 298.66 C 52.00 297.99 50.27 297.23 48.71 297.40 C 47.15 297.57 45.58 298.07 44.08 299.67 C 42.59 301.27 40.41 304.46 39.74 307.00 C 39.06 309.55 39.35 312.37 40.03 314.95 C 40.71 317.52 42.02 319.37 43.82 322.45 C 45.61 325.53 48.25 329.97 50.81 333.41 C 53.38 336.85 56.48 340.12 59.20 343.08 C 61.93 346.03 63.70 348.12 67.15 351.13 C 70.60 354.15 74.80 358.09 79.88 361.17 C 84.96 364.24 91.36 367.59 97.64 369.58 C 103.93 371.56 110.82 372.21 117.60 373.09 C 124.37 373.97 131.33 374.74 138.30 374.86 C 145.27 374.98 152.21 374.91 159.43 373.83 C 166.65 372.76 174.79 370.86 181.62 368.41 C 188.45 365.97 194.30 362.89 200.43 359.18 C 206.56 355.47 213.16 350.55 218.41 346.15 C 223.65 341.75 228.45 337.02 231.90 332.79 C 235.34 328.56 236.76 325.97 239.09 320.78 C 241.41 315.59 244.32 307.91 245.87 301.66 C 247.43 295.41 247.96 289.16 248.40 283.27 C 248.85 277.39 249.64 271.53 248.53 266.36 C 247.42 261.18 243.84 256.47 241.75 252.22 C 239.66 247.96 238.33 244.54 235.99 240.85 C 233.66 237.16 231.18 233.14 227.74 230.07 C 224.29 227.01 219.36 224.20 215.32 222.47 C 211.28 220.73 207.33 220.05 203.50 219.65 C 199.67 219.25 196.13 219.71 192.32 220.08 C 188.51 220.46 184.15 220.64 180.64 221.88 C 177.12 223.13 174.20 225.43 171.24 227.56 C 168.28 229.68 165.23 231.76 162.88 234.62 C 160.52 237.48 159.02 240.90 157.11 244.72 C 155.20 248.54 152.89 253.21 151.40 257.54 C 149.91 261.86 148.44 266.45 148.16 270.65 C 147.88 274.84 148.94 278.56 149.71 282.73 C 150.48 286.90 151.94 291.76 152.79 295.69 C 153.64 299.62 153.37 302.82 154.83 306.31 C 156.28 309.80 158.94 312.85 161.49 316.63 C 164.05 320.41 166.62 325.59 170.16 328.99 C 173.69 332.39 178.33 334.47 182.69 337.04 C 187.06 339.61 191.73 342.37 196.34 344.41 C 200.95 346.45 205.23 348.18 210.36 349.30 C 215.49 350.42 221.43 351.04 227.11 351.14 C 232.80 351.24 238.65 350.99 244.47 349.89 C 250.29 348.78 256.41 346.97 262.05 344.53 C 267.69 342.09 273.87 338.19 278.33 335.24 C 282.78 332.29 285.29 330.30 288.78 326.82 C 292.27 323.34 296.15 319.27 299.28 314.38 C 302.41 309.49 305.00 302.80 307.56 297.49 C 310.12 292.18 312.67 287.54 314.65 282.53 C 316.62 277.52 318.34 272.32 319.41 267.41 C 320.48 262.49 320.58 257.85 321.05 253.03 C 321.51 248.21 322.11 243.10 322.19 238.48 C 322.26 233.85 321.78 229.46 321.51 225.30 C 321.24 221.14 320.69 217.01 320.57 213.50 C 320.45 209.99 321.11 207.92 320.79 204.24 C 320.47 200.55 319.31 195.67 318.67 191.40 C 318.02 187.13 317.23 182.41 316.90 178.62 C 316.58 174.84 316.62 171.98 316.70 168.69 C 316.78 165.39 316.98 162.27 317.40 158.84 C 317.82 155.41 318.37 151.10 319.24 148.10 C 320.11 145.09 321.20 143.19 322.62 140.79 C 324.05 138.39 325.71 135.71 327.80 133.71 C 329.90 131.70 333.00 130.26 335.19 128.77 C 337.38 127.27 339.23 125.83 340.95 124.76 C 342.67 123.69 343.35 123.09 345.52 122.37 C 347.68 121.65 350.91 120.37 353.92 120.43 C 356.93 120.50 360.66 121.68 363.56 122.74 C 366.46 123.81 368.65 125.17 371.32 126.81 C 373.99 128.46 376.77 130.13 379.58 132.61 C 382.38 135.08 385.38 137.74 388.16 141.67 C 390.95 145.59 394.20 151.34 396.31 156.18 C 398.42 161.01 399.65 165.61 400.84 170.68 C 402.04 175.76 403.15 181.74 403.50 186.62 C 403.84 191.51 403.68 194.72 402.92 200.01 C 402.17 205.30 400.67 212.51 398.96 218.34 C 397.26 224.17 395.00 229.55 392.67 234.99 C 390.34 240.44 387.77 245.52 385.00 250.99 C 382.24 256.47 379.44 262.70 376.08 267.84 C 372.73 272.99 368.52 277.26 364.88 281.85 C 361.24 286.44 357.72 291.21 354.25 295.38 C 350.77 299.56 347.90 302.90 344.01 306.91 C 340.13 310.91 334.89 315.43 330.95 319.39 C 327.01 323.36 323.20 327.57 320.39 330.71 C 317.57 333.85 316.69 335.39 314.07 338.23 C 311.44 341.08 307.01 344.83 304.62 347.77 C 302.24 350.71 301.17 352.94 299.74 355.89 C 298.31 358.84 297.04 362.14 296.04 365.48 C 295.05 368.82 294.28 372.79 293.76 375.95 C 293.24 379.11 292.67 381.67 292.93 384.44 C 293.19 387.22 294.18 389.82 295.31 392.58 C 296.44 395.34 298.29 398.67 299.70 401.00 C 301.11 403.34 302.44 404.93 303.78 406.58 C 305.13 408.23 305.71 409.41 307.76 410.90 C 309.81 412.39 313.92 414.06 316.08 415.50 C 318.24 416.93 319.00 418.15 320.70 419.51 C 322.41 420.87 324.59 421.97 326.31 423.65 C 328.04 425.32 329.69 427.62 331.03 429.55 C 332.36 431.48 333.42 433.42 334.34 435.23 C 335.25 437.05 335.97 439.03 336.50 440.45 C 337.04 441.86 337.50 442.06 337.54 443.73 C 337.58 445.41 337.11 448.68 336.74 450.50 C 336.36 452.32 335.69 453.34 335.28 454.67 C 334.87 456.00 335.20 456.94 334.27 458.48 C 333.34 460.01 331.87 462.10 329.71 463.88 C 327.56 465.65 324.13 467.99 321.32 469.13 C 318.51 470.26 316.18 469.98 312.87 470.70 C 309.57 471.41 305.44 472.78 301.49 473.43 C 297.53 474.08 293.50 474.86 289.15 474.58 C 284.81 474.30 280.21 473.03 275.41 471.77 C 270.62 470.50 265.24 469.05 260.37 467.00 C 255.50 464.94 250.36 461.74 246.18 459.43 C 242.00 457.13 239.60 456.37 235.29 453.15 C 230.99 449.93 224.92 444.89 220.35 440.13 C 215.77 435.37 211.77 429.92 207.86 424.59 C 203.94 419.27 199.73 414.29 196.87 408.17 C 194.01 402.05 192.13 394.59 190.70 387.88 C 189.26 381.18 188.73 374.78 188.26 367.94 C 187.80 361.11 187.78 354.08 187.92 346.88 C 188.07 339.68 187.89 331.66 189.13 324.75 C 190.38 317.84 193.03 311.82 195.39 305.42 C 197.75 299.02 200.84 291.52 203.29 286.33 C 205.73 281.14 207.24 278.92 210.05 274.30 C 212.86 269.68 216.96 263.47 220.15 258.61 C 223.34 253.75 226.33 249.54 229.18 245.17 C 232.03 240.80 234.39 236.98 237.25 232.39 C 240.11 227.80 243.82 221.96 246.34 217.62 C 248.86 213.28 250.78 210.08 252.37 206.32 C 253.96 202.57 255.09 198.95 255.86 195.12 C 256.62 191.28 256.66 187.42 256.95 183.33 C 257.25 179.23 257.65 174.05 257.61 170.54 C 257.57 167.02 257.32 165.38 256.72 162.24 C 256.13 159.10 255.09 154.76 254.04 151.71 C 252.99 148.67 252.17 146.60 250.42 143.99 C 248.66 141.37 246.08 138.28 243.53 136.01 C 240.97 133.74 238.11 132.11 235.08 130.36 C 232.05 128.61 228.48 127.08 225.35 125.51 C 222.21 123.93 219.13 122.13 216.25 120.91 C 213.38 119.69 210.99 119.38 208.10 118.17 C 205.21 116.96 201.28 115.02 198.91 113.63 C 196.54 112.24 195.87 111.56 193.87 109.84 C 191.87 108.12 188.90 105.35 186.93 103.30 C 184.95 101.24 183.23 99.49 182.00 97.52 C 180.77 95.55 180.26 93.28 179.56 91.47 C 178.85 89.65 178.24 88.46 177.77 86.62 C 177.30 84.78 176.58 82.32 176.73 80.42 C 176.88 78.52 177.76 77.21 178.66 75.22 C 179.56 73.24 180.89 70.63 182.12 68.52 C 183.35 66.40 184.26 64.29 186.04 62.51 C 187.81 60.74 190.56 59.19 192.78 57.87 C 195.00 56.55 196.48 55.58 199.36 54.59 C 202.24 53.61 206.45 52.45 210.06 51.95 C 213.66 51.45 217.18 51.81 220.99 51.61 C 224.80 51.42 228.86 51.05 232.92 50.80 C 236.97 50.54 241.16 49.94 245.32 50.10 C 249.49 50.25 253.30 50.93 257.89 51.72 C 262.48 52.51 268.02 53.10 272.84 54.83 C 277.66 56.56 282.05 59.51 286.83 62.09 C 291.60 64.66 297.62 67.57 301.46 70.30 C 305.31 73.03 306.33 74.93 309.91 78.45 C 313.49 81.97 318.97 87.24 322.96 91.42 C 326.95 95.60 330.56 98.94 333.84 103.52 C 337.12 108.10 339.79 113.53 342.65 118.88 C 345.52 124.22 348.66 129.90 351.03 135.59 C 353.39 141.27 355.26 147.21 356.85 152.99 C 358.43 158.76 359.69 164.06 360.55 170.25 C 361.41 176.43 362.20 183.43 362.01 190.11 C 361.82 196.78 360.90 203.88 359.41 210.30 C 357.92 216.71 355.37 223.70 353.09 228.62 C 350.80 233.54 349.08 235.22 345.72 239.83 C 342.36 244.44 337.45 251.65 332.93 256.28 C 328.42 260.90 323.94 264.40 318.64 267.59 C 313.35 270.78 307.09 273.66 301.16 275.41 C 295.24 277.16 288.88 277.86 283.08 278.10 C 277.29 278.34 271.77 278.04 266.41 276.84 C 261.04 275.65 255.55 273.08 250.90 270.94 C 246.26 268.79 242.48 266.93 238.51 263.96 C 234.54 260.99 229.99 256.73 227.10 253.13 C 224.20 249.54 222.55 246.53 221.17 242.40 C 219.78 238.27 219.08 233.03 218.76 228.37 C 218.43 223.72 218.52 218.87 219.22 214.46 C 219.91 210.05 221.37 206.32 222.94 201.92 C 224.51 197.52 226.07 192.08 228.62 188.05 C 231.18 184.03 234.56 180.61 238.26 177.77 C 241.96 174.93 246.45 172.17 250.82 171.01 C 255.18 169.85 259.76 170.83 264.45 170.80 C 269.14 170.77 273.87 170.07 278.95 170.85 C 284.03 171.63 290.44 173.70 294.92 175.48 C 299.39 177.26 302.13 178.97 305.81 181.53 C 309.48 184.08 313.61 187.43 316.98 190.81 C 320.34 194.19 323.19 197.85 326.02 201.81 C 328.86 205.77 331.48 210.17 333.99 214.56 C 336.50 218.95 339.12 223.67 341.08 228.15 C 343.04 232.63 344.51 237.02 345.75 241.43 C 346.99 245.84 347.29 250.29 348.51 254.63 C 349.73 258.97 351.99 263.06 353.07 267.47 C 354.14 271.88 354.56 277.34 354.96 281.08 C 355.35 284.82 354.63 286.57 355.44 289.92 C 356.25 293.27 358.55 297.76 359.82 301.17 C 361.09 304.59 361.97 307.54 363.05 310.39 C 364.12 313.24 364.94 315.65 366.27 318.29 C 367.60 320.93 369.39 323.89 371.04 326.22 C 372.69 328.56 374.29 330.56 376.15 332.31 C 378.01 334.06 380.03 335.43 382.19 336.73 C 384.35 338.02 386.76 338.98 389.10 340.08 C 391.45 341.18 393.74 342.87 396.24 343.32 C 398.74 343.76 401.94 343.10 404.10 342.75 C 406.26 342.40 406.95 342.57 409.18 341.19 C 411.40 339.81 414.76 336.71 417.45 334.46 C 420.13 332.22 423.25 330.40 425.30 327.70 C 427.34 325.00 428.24 321.56 429.71 318.25 C 431.17 314.93 433.20 311.63 434.08 307.83 C 434.95 304.02 435.01 299.71 434.96 295.42 C 434.91 291.13 434.51 286.65 433.80 282.07 C 433.09 277.48 432.31 272.82 430.70 267.92 C 429.10 263.02 426.17 257.05 424.16 252.64 C 422.15 248.23 421.55 245.83 418.62 241.45 C 415.68 237.07 411.25 231.00 406.55 226.38 C 401.86 221.76 396.17 217.16 390.44 213.73 C 384.72 210.29 378.44 208.29 372.21 205.76 C 365.98 203.23 359.59 200.39 353.08 198.54 C 346.57 196.69 339.52 195.29 333.13 194.64 C 326.74 194.00 320.49 194.17 314.73 194.67 C 308.98 195.17 304.30 196.59 298.60 197.64 C 292.90 198.69 285.44 199.32 280.51 200.96 C 275.58 202.61 273.30 204.82 269.02 207.51 C 264.75 210.20 258.93 213.58 254.84 217.09 C 250.75 220.60 248.06 224.09 244.49 228.57 C 240.92 233.04 236.47 239.32 233.43 243.94 C 230.39 248.57 228.29 251.47 226.25 256.33 C 224.21 261.20 221.60 268.02 221.19 273.14 C 220.78 278.26 222.65 282.40 223.79 287.06 C 224.94 291.72 226.36 296.40 228.07 301.08 C 229.79 305.76 231.46 311.02 234.08 315.12 C 236.69 319.23 240.84 323.03 243.75 325.70 C 246.66 328.37 247.77 329.27 251.55 331.12 C 255.32 332.98 261.87 335.17 266.40 336.81 C 270.93 338.46 273.90 340.56 278.73 341.00 C 283.56 341.43 290.38 340.34 295.39 339.43 C 300.39 338.52 304.46 337.46 308.77 335.52 C 313.07 333.58 317.23 330.77 321.23 327.79 C 325.23 324.80 329.74 321.41 332.77 317.61 C 335.80 313.81 337.42 309.59 339.41 305.00 C 341.40 300.40 343.52 294.59 344.71 290.06 C 345.91 285.53 346.26 282.55 346.59 277.81 C 346.92 273.07 347.69 266.90 346.70 261.60 C 345.72 256.30 342.86 251.06 340.69 245.99 C 338.52 240.92 336.57 235.71 333.70 231.20 C 330.83 226.69 326.69 223.05 323.46 218.93 C 320.23 214.81 317.60 210.57 314.31 206.48 C 311.02 202.39 307.20 197.86 303.73 194.39 C 300.26 190.92 296.84 188.73 293.47 185.64 C 290.10 182.55 286.87 178.91 283.49 175.84 C 280.10 172.77 275.74 169.53 273.16 167.23 C 270.58 164.93 270.28 163.92 268.01 162.05 C 265.75 160.19 262.76 158.32 259.57 156.04 C 256.38 153.76 252.13 150.99 248.90 148.38 C 245.67 145.76 242.68 142.68 240.19 140.37 C 237.70 138.07 236.11 136.65 233.94 134.54 C 231.77 132.43 228.79 130.05 227.15 127.69 C 225.51 125.34 225.16 122.88 224.09 120.41 C 223.02 117.93 221.68 115.13 220.74 112.87 C 219.79 110.60 218.90 108.70 218.42 106.81 C 217.94 104.93 217.73 103.65 217.84 101.56 C 217.95 99.48 218.27 96.79 219.08 94.30 C 219.90 91.82 221.46 88.75 222.75 86.65 C 224.05 84.56 224.73 83.12 226.85 81.76 C 228.97 80.39 232.58 79.75 235.48 78.47 C 238.38 77.19 241.14 75.26 244.25 74.08 C 247.36 72.91 250.45 71.97 254.12 71.41 C 257.79 70.85 262.11 70.55 266.24 70.73 C 270.38 70.91 274.70 71.21 278.94 72.46 C 283.18 73.72 287.60 76.58 291.68 78.28 C 295.76 79.97 299.49 80.90 303.39 82.63 C 307.30 84.35 310.95 85.77 315.12 88.62 C 319.29 91.47 324.29 95.61 328.41 99.70 C 332.54 103.80 336.11 108.77 339.86 113.19 C 343.62 117.61 347.41 121.83 350.95 126.21 C 354.49 130.59 357.82 135.52 361.08 139.47 C 364.34 143.42 367.12 146.76 370.50 149.91 C 373.87 153.06 377.98 155.86 381.33 158.36 C 384.68 160.85 388.15 163.07 390.59 164.86 C 393.03 166.65 393.73 167.75 395.98 169.10 C 398.23 170.45 401.41 171.84 404.08 172.97 C 406.75 174.09 409.50 175.49 412.01 175.83 C 414.53 176.18 417.30 175.73 419.16 175.02 C 421.01 174.30 421.80 172.95 423.14 171.54 C 424.47 170.14 426.21 168.38 427.15 166.59 C 428.09 164.79 428.99 163.09 428.76 160.79 C 428.54 158.48 426.94 155.84 425.82 152.73 C 424.69 149.61 423.69 145.42 422.01 142.10 C 420.33 138.78 417.93 135.45 415.76 132.79 C 413.59 130.14 412.34 128.81 409.00 126.15 C 405.66 123.49 400.34 119.52 395.73 116.84 C 391.13 114.16 386.28 111.81 381.37 110.10 C 376.45 108.39 371.39 107.35 366.23 106.57 C 361.07 105.80 356.35 105.81 350.40 105.44 C 344.46 105.07 336.84 104.25 330.56 104.38 C 324.27 104.50 319.02 104.93 312.68 106.17 C 306.34 107.41 298.90 109.22 292.52 111.81 C 286.15 114.41 279.61 118.55 274.44 121.74 C 269.27 124.92 266.19 127.37 261.48 130.94 C 256.77 134.51 250.59 139.00 246.17 143.16 C 241.75 147.31 238.86 151.39 234.96 155.85 C 231.06 160.31 226.04 165.50 222.79 169.90 C 219.54 174.30 218.35 177.48 215.47 182.23 C 212.59 186.97 208.17 193.31 205.51 198.38 C 202.85 203.44 201.82 208.04 199.54 212.61 C 197.25 217.17 194.27 221.23 191.80 225.75 C 189.32 230.27 186.68 236.01 184.70 239.74 C 182.72 243.47 181.50 244.73 179.91 248.13 C 178.32 251.52 176.90 256.23 175.18 260.12 C 173.45 264.01 172.00 268.24 169.57 271.46 C 167.14 274.68 163.49 277.00 160.59 279.44 C 157.68 281.89 154.98 284.09 152.16 286.14 C 149.33 288.19 146.72 290.03 143.63 291.74 C 140.55 293.45 136.71 295.77 133.67 296.40 C 130.62 297.04 128.26 296.05 125.37 295.55 C 122.49 295.06 119.48 294.20 116.36 293.41 C 113.25 292.63 109.31 291.96 106.67 290.83 C 104.04 289.70 102.75 288.68 100.56 286.63 C 98.36 284.58 95.40 281.43 93.49 278.53 C 91.58 275.64 90.27 272.74 89.10 269.27 C 87.94 265.80 86.95 261.87 86.49 257.71 C 86.03 253.55 85.97 248.79 86.33 244.32 C 86.70 239.86 87.14 235.44 88.67 230.94 C 90.21 226.44 93.31 221.90 95.53 217.32 C 97.75 212.74 99.17 207.58 101.98 203.45 C 104.78 199.32 108.66 195.87 112.37 192.56 C 116.08 189.25 119.61 186.22 124.23 183.59 C 128.85 180.95 134.66 178.74 140.09 176.74 C 145.52 174.73 150.87 172.67 156.81 171.56 C 162.74 170.45 169.69 170.59 175.70 170.09 C 181.72 169.59 186.96 169.06 192.89 168.58 C 198.83 168.10 204.97 167.58 211.31 167.21 C 217.65 166.83 225.05 166.63 230.94 166.33 C 236.82 166.04 241.55 165.64 246.63 165.42 C 251.72 165.19 256.67 165.64 261.43 165.00 C 266.20 164.35 271.38 162.20 275.24 161.55 C 279.10 160.89 281.52 161.81 284.57 161.07 C 287.63 160.32 290.22 158.17 293.55 157.07 C 296.88 155.97 301.61 155.84 304.56 154.46 C 307.50 153.07 309.14 150.87 311.23 148.76 C 313.32 146.65 315.61 144.40 317.08 141.79 C 318.55 139.18 319.26 136.16 320.06 133.10 C 320.86 130.04 322.32 126.61 321.89 123.44 C 321.45 120.28 319.20 116.92 317.44 114.12 C 315.68 111.32 313.11 108.96 311.30 106.66 C 309.49 104.36 309.12 102.37 306.58 100.32 C 304.04 98.26 299.96 96.04 296.06 94.34 C 292.17 92.65 287.86 90.85 283.21 90.14 C 278.56 89.44 272.94 89.34 268.17 90.12 C 263.39 90.90 259.29 92.77 254.57 94.83 C 249.85 96.89 244.58 99.83 239.85 102.49 C 235.12 105.14 230.52 107.02 226.19 110.77 C 221.86 114.53 217.62 119.91 213.88 125.03 C 210.14 130.15 206.71 135.79 203.74 141.49 C 200.77 147.20 197.88 153.79 196.06 159.26 C 194.24 164.73 193.29 168.52 192.83 174.30 C 192.37 180.08 192.84 187.41 193.30 193.95 C 193.76 200.49 194.11 207.71 195.58 213.53 C 197.05 219.34 199.90 223.98 202.11 228.86 C 204.32 233.74 206.34 237.87 208.86 242.82 C 211.37 247.76 214.54 253.58 217.22 258.55 C 219.89 263.52 222.61 267.87 224.90 272.63 C 227.19 277.40 229.00 282.75 230.95 287.12 C 232.90 291.50 234.97 295.30 236.60 298.90 C 238.24 302.50 239.46 304.99 240.78 308.73 C 242.10 312.48 243.64 317.38 244.52 321.37 C 245.40 325.37 246.17 329.03 246.06 332.71 C 245.94 336.40 244.45 339.88 243.83 343.48 C 243.22 347.09 243.26 350.72 242.35 354.35 C 241.45 357.99 239.91 362.16 238.39 365.31 C 236.87 368.45 235.66 371.06 233.22 373.21 C 230.79 375.36 227.03 376.65 223.79 378.18 C 220.54 379.72 217.28 381.52 213.77 382.44 C 210.25 383.35 206.14 383.63 202.71 383.66 C 199.29 383.69 196.34 383.36 193.24 382.63 C 190.13 381.89 187.71 380.51 184.08 379.26 C 180.45 378.00 175.21 376.90 171.46 375.08 C 167.72 373.26 165.10 370.81 161.64 368.33 C 158.17 365.85 153.90 363.42 150.69 360.19 C 147.47 356.96 145.06 352.93 142.36 348.93 C 139.65 344.92 136.46 340.63 134.47 336.15 C 132.48 331.67 131.69 326.90 130.41 322.04 C 129.12 317.18 127.65 311.40 126.77 306.96 C 125.89 302.53 125.78 299.90 125.13 295.43 C 124.48 290.96 123.28 285.24 122.88 280.12 C 122.48 275.01 122.23 269.53 122.72 264.76 C 123.21 259.98 125.08 256.32 125.83 251.47 C 126.57 246.63 126.38 240.51 127.18 235.70 C 127.98 230.90 129.86 226.93 130.63 222.63 C 131.40 218.34 131.08 214.13 131.80 209.92 C 132.52 205.71 134.39 201.41 134.95 197.35 C 135.50 193.29 135.40 189.15 135.12 185.54 C 134.85 181.92 134.04 178.37 133.31 175.64 C 132.58 172.91 131.99 171.27 130.75 169.15 C 129.50 167.02 127.25 164.81 125.83 162.87 C 124.41 160.94 123.74 158.99 122.21 157.55 C 120.67 156.12 118.80 154.81 116.62 154.26 C 114.43 153.70 111.46 154.17 109.09 154.20 C 106.73 154.23 104.90 153.72 102.44 154.42 C 99.98 155.13 96.73 156.48 94.33 158.42 C 91.94 160.36 89.96 163.30 88.06 166.05 C 86.17 168.80 84.17 171.92 82.96 174.93 C 81.76 177.94 81.60 180.41 80.82 184.09 C 80.04 187.78 79.15 192.65 78.29 197.04 C 77.44 201.43 75.61 205.79 75.70 210.45 C 75.79 215.12 77.32 220.03 78.82 225.02 C 80.33 230.02 82.45 235.33 84.71 240.43 C 86.97 245.52 89.31 250.66 92.38 255.59 C 95.44 260.51 99.23 265.15 103.10 269.97 C 106.97 274.79 111.03 280.04 115.59 284.50 C 120.15 288.97 125.93 293.37 130.43 296.74 C 134.94 300.10 137.69 302.36 142.64 304.69 C 147.59 307.03 154.13 309.32 160.15 310.76 C 166.17 312.19 172.40 313.25 178.75 313.30 C 185.09 313.35 192.08 311.68 198.21 311.04 C 204.34 310.40 209.61 310.63 215.51 309.47 C 221.40 308.32 228.05 306.00 233.58 304.09 C 239.12 302.17 243.75 300.61 248.72 298.00 C 253.69 295.39 258.95 292.07 263.41 288.44 C 267.88 284.81 272.01 280.18 275.52 276.22 C 279.03 272.26 282.00 268.07 284.47 264.68 C 286.94 261.28 288.42 259.85 290.35 255.84 C 292.28 251.83 295.19 245.61 296.04 240.63 C 296.88 235.65 295.67 230.73 295.41 225.96 C 295.16 221.19 295.14 216.51 294.52 212.02 C 293.89 207.53 293.00 203.46 291.68 199.01 C 290.36 194.56 288.31 189.25 286.57 185.32 C 284.83 181.40 283.08 178.71 281.23 175.47 C 279.39 172.23 277.98 168.87 275.50 165.89 C 273.01 162.91 268.84 160.21 266.31 157.58 C 263.79 154.95 262.76 152.38 260.35 150.13 C 257.93 147.88 254.36 146.67 251.79 144.08 C 249.23 141.48 247.28 137.42 244.98 134.57 C 242.69 131.71 240.03 129.35 238.02 126.97 C 236.01 124.59 234.53 122.53 232.90 120.27 C 231.28 118.01 229.70 115.73 228.27 113.41 C 226.84 111.09 225.21 108.71 224.33 106.35 C 223.45 104.00 222.85 101.81 222.98 99.30 C 223.12 96.80 224.61 93.63 225.13 91.33 C 225.65 89.03 225.49 87.26 226.10 85.50 C 226.71 83.73 227.42 82.66 228.79 80.73 C 230.16 78.80 232.04 75.77 234.33 73.91 C 236.62 72.06 239.14 70.54 242.52 69.60 C 245.90 68.66 250.41 68.52 254.61 68.27 C 258.81 68.01 263.53 67.83 267.70 68.08 C 271.87 68.33 275.22 68.54 279.61 69.77 C 284.00 71.01 289.11 73.37 294.05 75.49 C 298.99 77.61 304.36 79.42 309.25 82.50 C 314.14 85.59 319.87 90.16 323.39 93.98 C 326.90 97.79 327.82 100.19 330.32 105.39 C 332.82 110.58 336.37 118.74 338.41 125.17 C 340.44 131.60 341.84 137.21 342.53 143.96 C 343.22 150.70 343.08 158.55 342.56 165.64 C 342.04 172.73 341.61 179.64 339.42 186.49 C 337.23 193.34 333.13 200.49 329.42 206.74 C 325.72 213.00 321.36 219.08 317.21 224.02 C 313.05 228.97 309.24 232.79 304.48 236.39 C 299.72 239.98 294.12 242.92 288.67 245.60 C 283.21 248.29 276.78 250.64 271.76 252.49 C 266.73 254.33 263.05 255.14 258.50 256.67 C 253.96 258.20 248.96 259.82 244.49 261.67 C 240.03 263.51 236.01 266.17 231.71 267.73 C 227.40 269.29 222.76 269.29 218.67 271.03 C 214.58 272.78 210.75 275.92 207.16 278.21 C 203.57 280.50 200.21 282.23 197.14 284.75 C 194.08 287.27 191.45 290.29 188.79 293.31 C 186.12 296.34 183.24 299.81 181.17 302.92 C 179.10 306.03 177.40 309.03 176.37 311.98 C 175.34 314.93 174.93 317.36 175.00 320.64 C 175.07 323.93 176.10 327.98 176.79 331.69 C 177.48 335.39 177.59 339.60 179.14 342.88 C 180.69 346.15 183.49 348.45 186.09 351.33 C 188.70 354.21 191.80 357.40 194.75 360.13 C 197.70 362.86 200.29 365.48 203.80 367.70 C 207.30 369.92 211.38 371.44 215.77 373.43 C 220.16 375.41 225.59 378.17 230.15 379.59 C 234.70 381.02 238.76 381.50 243.10 381.99 C 247.44 382.48 252.20 382.67 256.18 382.54 C 260.17 382.40 262.53 381.84 267.00 381.19 C 271.48 380.53 278.32 380.09 283.05 378.62 C 287.77 377.15 290.92 375.18 295.37 372.38 C 299.81 369.59 305.39 365.06 309.73 361.84 C 314.07 358.62 317.75 356.36 321.41 353.08 C 325.07 349.81 328.38 346.30 331.69 342.20 C 334.99 338.10 338.59 333.52 341.23 328.49 C 343.87 323.47 345.58 317.14 347.50 312.07 C 349.42 307.01 351.60 302.58 352.75 298.13 C 353.89 293.68 353.86 290.58 354.39 285.37 C 354.91 280.16 355.63 272.37 355.89 266.88 C 356.14 261.38 356.75 257.55 355.91 252.41 C 355.07 247.28 352.54 241.15 350.87 236.06 C 349.20 230.96 348.30 226.51 345.88 221.85 C 343.46 217.19 339.43 212.19 336.35 208.08 C 333.28 203.97 330.95 200.59 327.43 197.21 C 323.91 193.83 319.48 190.60 315.26 187.81 C 311.04 185.02 305.97 182.71 302.11 180.48 C 298.25 178.25 295.99 176.33 292.09 174.42 C 288.19 172.50 283.66 170.43 278.69 168.99 C 273.72 167.54 267.74 166.26 262.27 165.75 C 256.80 165.24 251.05 165.33 245.89 165.90 C 240.73 166.48 235.99 167.58 231.32 169.21 C 226.64 170.83 222.46 173.07 217.83 175.65 C 213.21 178.23 207.34 181.23 203.57 184.68 C 199.80 188.13 197.73 191.68 195.21 196.35 C 192.70 201.02 190.08 207.45 188.48 212.70 C 186.88 217.94 186.24 223.27 185.62 227.83 C 185.00 232.39 184.18 235.38 184.76 240.08 C 185.34 244.79 187.21 250.79 189.10 256.05 C 190.99 261.32 193.14 266.93 196.10 271.68 C 199.05 276.43 202.59 280.86 206.82 284.55 C 211.05 288.24 216.73 291.52 221.46 293.82 C 226.20 296.11 230.29 297.38 235.22 298.33 C 240.16 299.27 245.68 299.71 251.09 299.51 C 256.51 299.30 262.47 298.84 267.71 297.07 C 272.95 295.31 278.56 291.44 282.52 288.92 C 286.49 286.41 288.48 285.20 291.49 281.99 C 294.51 278.78 298.57 273.99 300.63 269.66 C 302.69 265.34 303.46 260.62 303.86 256.04 C 304.26 251.46 304.48 247.00 303.04 242.18 C 301.60 237.36 298.68 231.47 295.20 227.13 C 291.72 222.79 286.61 219.33 282.17 216.14 C 277.73 212.95 273.02 209.61 268.57 207.98 C 264.13 206.34 260.31 206.17 255.48 206.35 C 250.65 206.53 244.66 207.39 239.60 209.05 C 234.54 210.72 228.75 213.89 225.11 216.34 C 221.46 218.78 220.09 220.05 217.71 223.72 C 215.33 227.39 212.75 233.59 210.84 238.33 C 208.92 243.08 206.93 247.33 206.22 252.20 C 205.51 257.07 206.14 262.54 206.56 267.55 C 206.98 272.57 207.64 277.59 208.75 282.29 C 209.86 286.99 211.90 291.38 213.22 295.74 C 214.55 300.09 215.22 304.23 216.72 308.42 C 218.22 312.60 220.37 316.70 222.23 320.86 C 224.08 325.02 226.27 329.81 227.85 333.39 C 229.43 336.97 230.69 339.16 231.70 342.32 C 232.70 345.49 233.12 348.80 233.87 352.41 C 234.63 356.01 235.32 360.23 236.23 363.94 C 237.13 367.64 238.74 371.69 239.32 374.63 C 239.90 377.56 239.90 379.08 239.72 381.57 C 239.54 384.06 238.86 387.17 238.24 389.57 C 237.62 391.98 237.29 393.79 236.00 396.00 C 234.71 398.20 231.75 400.83 230.50 402.79 C 229.25 404.76 229.29 405.69 228.50 407.78 C 227.70 409.87 226.76 413.38 225.70 415.34 C 224.64 417.30 223.27 417.75 222.16 419.54 C 221.04 421.34 220.01 424.30 218.99 426.11 C 217.97 427.92 216.94 428.82 216.03 430.40 C 215.12 431.99 214.27 433.97 213.51 435.63 C 212.75 437.29 211.83 438.84 211.46 440.36 C 211.10 441.89 211.10 443.14 211.33 444.77 C 211.57 446.41 212.09 448.50 212.89 450.18 C 213.69 451.86 215.11 453.37 216.12 454.83 C 217.12 456.30 218.19 457.80 218.93 459.00 C 219.66 460.19 219.28 460.87 220.54 462.00 C 221.80 463.13 224.28 464.30 226.46 465.78 C 228.64 467.25 230.89 469.38 233.62 470.85 C 236.35 472.33 240.57 473.60 242.83 474.61 C 245.08 475.62 245.53 476.17 247.18 476.91 C 248.83 477.66 251.03 478.11 252.73 479.09 C 254.43 480.07 256.04 481.84 257.39 482.79 C 258.73 483.74 259.96 483.97 260.79 484.77 C 261.62 485.57 261.68 486.51 262.38 487.58 C 263.07 488.65 264.82 490.16 264.97 491.17 C 265.11 492.17 264.28 492.67 263.27 493.62 C 262.26 494.58 260.45 495.86 258.89 496.88 C 257.33 497.91 255.67 499.43 253.92 499.76 C 252.18 500.09 250.65 499.08 248.43 498.86 C 246.20 498.65 243.68 499.28 240.56 498.46 C 237.44 497.64 233.23 495.52 229.71 493.96 C 226.19 492.41 222.75 490.76 219.41 489.13 C 216.08 487.51 213.22 485.80 209.72 484.21 C 206.21 482.63 201.41 480.92 198.40 479.61 C 195.40 478.30 194.46 477.17 191.69 476.36 C 188.92 475.55 184.77 475.21 181.76 474.74 C 178.74 474.26 176.13 474.23 173.61 473.52 C 171.08 472.81 168.64 471.18 166.63 470.48 C 164.62 469.78 163.12 469.31 161.54 469.32 C 159.96 469.34 158.37 470.08 157.15 470.58 C 155.93 471.08 154.79 471.71 154.21 472.33 C 153.63 472.94 152.36 472.84 153.67 474.27 C 154.99 475.70 160.70 479.81 162.10 480.91" fill="none" stroke="#fff" stroke-width="4.48" stroke-opacity="1" stroke-linecap="round" stroke-linejoin="round"/>
  </g>
</svg>