<?xml version="1.0" encoding="UTF-8"?>
<svg xmlns="http://www.w3.org/2000/svg" width="512" height="512" viewBox="0 0 512 512">
  <rect width="100%" height="100%" fill="#000"/>
  <g>
    <path d="M 256.00 256.00 C 256.71 258.38 259.74 265.56 260.24 270.26 C 260.73 274.96 259.56 279.52 258.98 284.20 C 258.41 288.89 257.94 293.83 256.77 298.39 C 255.60 302.94 254.38 307.55 251.95 311.52 C 249.53 315.49 246.08 319.20 242.20 322.20 C 238.31 325.21 233.39 328.41 228.65 329.55 C 223.92 330.69 218.32 329.39 213.77 329.05 C 209.23 328.71 205.37 328.78 201.38 327.49 C 197.39 326.20 193.80 323.86 189.83 321.32 C 185.87 318.78 181.12 315.72 177.57 312.27 C 174.03 308.81 171.25 305.27 168.56 300.56 C 165.87 295.86 162.98 289.46 161.42 284.05 C 159.86 278.64 159.27 273.46 159.19 268.08 C 159.11 262.71 160.12 257.22 160.95 251.81 C 161.77 246.41 162.68 241.00 164.15 235.67 C 165.62 230.33 167.17 224.39 169.75 219.80 C 172.32 215.21 175.40 212.15 179.59 208.13 C 183.78 204.11 190.16 199.06 194.90 195.67 C 199.65 192.28 203.02 189.00 208.06 187.78 C 213.10 186.56 219.30 187.80 225.13 188.36 C 230.97 188.92 237.72 189.52 243.05 191.12 C 248.37 192.73 252.34 195.09 257.09 198.00 C 261.85 200.91 266.59 204.00 271.58 208.59 C 276.57 213.19 282.98 220.17 287.03 225.55 C 291.09 230.94 293.46 236.05 295.91 240.91 C 298.36 245.77 300.77 250.04 301.74 254.73 C 302.71 259.43 302.27 264.22 301.73 269.10 C 301.20 273.98 300.41 278.68 298.52 284.02 C 296.63 289.37 293.33 296.57 290.39 301.18 C 287.45 305.78 284.64 308.45 280.87 311.66 C 277.11 314.87 271.68 317.62 267.81 320.43 C 263.95 323.23 261.25 326.02 257.70 328.50 C 254.16 330.98 250.82 333.91 246.53 335.31 C 242.25 336.70 236.65 336.30 231.99 336.87 C 227.32 337.44 222.84 338.08 218.54 338.73 C 214.24 339.37 209.96 340.40 206.16 340.74 C 202.37 341.08 199.73 340.69 195.76 340.78 C 191.80 340.86 186.28 340.89 182.38 341.26 C 178.47 341.63 175.64 342.27 172.34 342.98 C 169.04 343.68 165.64 344.26 162.58 345.48 C 159.52 346.70 156.66 348.57 153.98 350.30 C 151.29 352.03 148.15 353.54 146.48 355.86 C 144.82 358.18 144.59 361.29 144.00 364.20 C 143.42 367.12 142.90 370.31 142.99 373.36 C 143.08 376.41 143.67 379.59 144.55 382.50 C 145.42 385.40 146.00 387.50 148.22 390.79 C 150.44 394.07 154.71 399.04 157.88 402.23 C 161.05 405.42 163.70 407.98 167.23 409.91 C 170.77 411.83 175.05 412.67 179.09 413.76 C 183.14 414.85 186.89 416.04 191.50 416.44 C 196.10 416.84 200.70 416.51 206.72 416.16 C 212.74 415.81 221.49 415.36 227.60 414.35 C 233.72 413.34 238.25 411.84 243.40 410.10 C 248.56 408.35 253.63 406.10 258.51 403.91 C 263.40 401.71 267.95 399.35 272.72 396.92 C 277.50 394.50 282.48 391.53 287.14 389.36 C 291.80 387.18 295.59 386.54 300.69 383.89 C 305.79 381.23 313.03 375.96 317.74 373.44 C 322.45 370.92 324.92 370.14 328.94 368.76 C 332.96 367.39 338.09 366.18 341.87 365.21 C 345.65 364.23 348.47 364.17 351.61 362.90 C 354.75 361.62 357.64 358.71 360.72 357.55 C 363.81 356.38 366.37 356.39 370.12 355.90 C 373.87 355.41 379.46 355.00 383.23 354.63 C 387.00 354.27 389.91 353.74 392.77 353.71 C 395.63 353.67 397.59 354.19 400.37 354.42 C 403.14 354.64 406.80 354.79 409.42 355.06 C 412.04 355.33 414.77 354.73 416.10 356.04 C 417.43 357.35 416.85 360.15 417.42 362.93 C 417.98 365.72 419.50 369.73 419.48 372.74 C 419.46 375.76 418.76 378.24 417.29 381.02 C 415.83 383.80 413.37 386.97 410.67 389.44 C 407.97 391.91 404.26 392.93 401.09 395.84 C 397.92 398.76 395.24 404.02 391.65 406.93 C 388.06 409.84 384.42 410.77 379.56 413.32 C 374.70 415.86 367.81 420.22 362.47 422.21 C 357.12 424.19 352.89 424.48 347.51 425.21 C 342.14 425.94 336.12 426.79 330.22 426.59 C 324.31 426.38 318.21 425.38 312.10 423.99 C 306.00 422.59 300.36 420.31 293.58 418.22 C 286.80 416.14 277.58 414.14 271.42 411.47 C 265.26 408.81 261.49 405.72 256.62 402.22 C 251.76 398.71 246.73 394.92 242.23 390.44 C 237.73 385.97 233.61 380.79 229.64 375.39 C 225.67 370.00 221.39 363.96 218.43 358.08 C 215.47 352.19 213.75 347.10 211.88 340.09 C 210.01 333.08 208.42 323.12 207.24 316.00 C 206.05 308.88 204.87 303.21 204.75 297.38 C 204.64 291.54 205.46 286.48 206.53 281.00 C 207.60 275.51 209.04 269.72 211.15 264.46 C 213.27 259.20 216.04 253.88 219.24 249.45 C 222.44 245.03 225.75 241.22 230.36 237.89 C 234.98 234.57 241.85 231.62 246.93 229.52 C 252.01 227.41 256.28 226.30 260.85 225.26 C 265.42 224.22 269.56 223.19 274.36 223.27 C 279.16 223.36 285.27 224.37 289.65 225.78 C 294.02 227.19 296.89 229.45 300.60 231.76 C 304.31 234.06 308.05 235.51 311.91 239.61 C 315.77 243.71 320.32 251.76 323.78 256.35 C 327.25 260.94 330.59 262.79 332.70 267.15 C 334.81 271.51 335.71 277.73 336.44 282.53 C 337.17 287.32 337.18 291.12 337.10 295.91 C 337.01 300.70 336.61 306.40 335.94 311.26 C 335.28 316.12 333.69 320.76 333.09 325.08 C 332.49 329.40 333.11 333.04 332.35 337.17 C 331.59 341.30 329.20 345.98 328.51 349.87 C 327.82 353.76 328.61 357.16 328.21 360.52 C 327.82 363.88 326.51 367.33 326.14 370.03 C 325.77 372.73 324.98 374.04 325.97 376.75 C 326.97 379.45 329.85 384.05 332.09 386.24 C 334.34 388.44 336.82 388.77 339.46 389.92 C 342.10 391.08 344.99 392.51 347.93 393.18 C 350.88 393.85 354.00 393.54 357.12 393.93 C 360.23 394.32 363.90 395.10 366.64 395.51 C 369.38 395.91 371.13 395.65 373.54 396.35 C 375.96 397.05 378.96 398.68 381.11 399.70 C 383.26 400.73 385.12 401.10 386.45 402.52 C 387.78 403.93 388.50 406.14 389.08 408.17 C 389.65 410.19 390.03 412.89 389.92 414.67 C 389.80 416.44 389.11 416.74 388.40 418.82 C 387.69 420.89 387.62 424.40 385.64 427.12 C 383.67 429.84 379.14 433.10 376.56 435.14 C 373.97 437.18 372.89 438.09 370.16 439.37 C 367.42 440.65 363.69 441.52 360.14 442.81 C 356.59 444.09 352.55 445.94 348.85 447.08 C 345.15 448.21 341.79 448.31 337.93 449.61 C 334.06 450.91 328.99 453.10 325.64 454.86 C 322.28 456.63 320.28 458.57 317.78 460.20 C 315.28 461.83 312.54 462.94 310.64 464.66 C 308.73 466.38 308.12 468.73 306.35 470.50 C 304.57 472.28 301.80 473.83 299.99 475.32 C 298.18 476.81 298.07 477.61 295.48 479.43 C 292.90 481.25 287.46 485.09 284.51 486.23 C 281.55 487.37 279.72 485.60 277.75 486.27 C 275.77 486.95 274.26 489.16 272.64 490.27 C 271.02 491.38 269.78 492.04 268.05 492.91 C 266.31 493.78 264.11 494.59 262.25 495.50 C 260.40 496.41 259.90 497.52 256.91 498.35 C 253.92 499.18 247.81 500.25 244.31 500.49 C 240.82 500.72 239.29 500.53 235.94 499.77 C 232.60 499.00 228.24 497.23 224.24 495.90 C 220.23 494.56 215.88 493.42 211.91 491.74 C 207.95 490.07 203.95 487.91 200.44 485.83 C 196.93 483.75 194.38 482.12 190.86 479.25 C 187.34 476.37 183.40 472.28 179.32 468.58 C 175.24 464.89 170.41 461.48 166.41 457.08 C 162.40 452.68 158.64 447.61 155.31 442.19 C 151.98 436.78 148.96 430.54 146.44 424.58 C 143.92 418.63 141.66 412.82 140.20 406.45 C 138.73 400.08 137.93 393.70 137.66 386.36 C 137.40 379.02 137.99 369.96 138.61 362.42 C 139.23 354.88 140.54 347.61 141.38 341.12 C 142.22 334.62 142.80 329.68 143.64 323.45 C 144.48 317.21 145.71 309.93 146.41 303.72 C 147.11 297.50 147.08 292.29 147.84 286.17 C 148.60 280.04 150.00 272.92 150.99 266.96 C 151.97 261.00 152.61 255.56 153.74 250.41 C 154.87 245.27 156.95 240.82 157.79 236.11 C 158.64 231.40 158.74 226.47 158.83 222.15 C 158.92 217.82 158.61 214.35 158.34 210.15 C 158.07 205.95 158.48 201.61 157.20 196.94 C 155.92 192.28 152.55 185.85 150.67 182.13 C 148.78 178.42 147.39 177.24 145.89 174.68 C 144.39 172.12 143.20 168.56 141.68 166.78 C 140.16 165.01 138.90 165.24 136.76 164.03 C 134.62 162.83 131.54 159.81 128.85 159.53 C 126.15 159.26 123.58 161.30 120.61 162.40 C 117.64 163.49 114.10 164.29 111.02 166.12 C 107.95 167.96 104.90 170.61 102.16 173.38 C 99.42 176.15 96.90 179.68 94.59 182.72 C 92.28 185.76 89.92 188.02 88.31 191.61 C 86.69 195.19 86.27 199.79 84.92 204.22 C 83.58 208.66 81.10 212.80 80.25 218.22 C 79.39 223.64 79.04 231.13 79.78 236.74 C 80.51 242.36 82.95 247.00 84.65 251.89 C 86.36 256.78 87.47 261.32 90.02 266.11 C 92.57 270.89 96.35 276.27 99.95 280.61 C 103.54 284.96 106.57 287.96 111.58 292.17 C 116.60 296.38 124.37 302.22 130.02 305.89 C 135.67 309.56 140.37 311.62 145.50 314.17 C 150.64 316.72 155.41 319.33 160.82 321.20 C 166.23 323.07 171.97 325.05 177.95 325.39 C 183.93 325.74 190.72 324.40 196.70 323.26 C 202.68 322.12 207.41 320.60 213.84 318.55 C 220.28 316.50 229.00 313.72 235.32 310.97 C 241.65 308.22 246.80 304.65 251.79 302.04 C 256.78 299.44 261.36 298.03 265.26 295.33 C 269.16 292.63 272.36 289.77 275.22 285.84 C 278.08 281.91 280.39 276.49 282.41 271.77 C 284.43 267.05 285.59 262.67 287.33 257.52 C 289.06 252.38 291.60 246.41 292.83 240.89 C 294.06 235.37 294.93 228.98 294.70 224.42 C 294.48 219.86 292.80 217.51 291.47 213.54 C 290.15 209.56 288.32 204.77 286.73 200.58 C 285.14 196.39 283.96 192.00 281.92 188.37 C 279.88 184.74 277.78 182.02 274.50 178.82 C 271.22 175.61 266.12 172.27 262.24 169.14 C 258.37 166.00 254.98 162.65 251.24 159.99 C 247.51 157.32 244.02 154.59 239.82 153.15 C 235.62 151.72 230.70 151.61 226.04 151.36 C 221.39 151.11 216.45 151.53 211.90 151.64 C 207.35 151.74 202.75 151.18 198.74 151.99 C 194.74 152.80 191.78 155.24 187.86 156.52 C 183.94 157.79 179.07 158.35 175.24 159.66 C 171.42 160.97 168.77 162.81 164.92 164.40 C 161.07 165.99 155.78 167.32 152.15 169.19 C 148.52 171.06 146.54 173.62 143.16 175.62 C 139.78 177.62 135.18 179.48 131.88 181.20 C 128.58 182.93 126.09 184.89 123.33 185.97 C 120.58 187.05 117.98 186.73 115.36 187.68 C 112.74 188.64 110.29 190.94 107.62 191.69 C 104.95 192.43 101.76 191.76 99.33 192.17 C 96.90 192.57 95.40 193.41 93.04 194.10 C 90.67 194.78 87.68 195.68 85.12 196.28 C 82.56 196.88 80.04 197.13 77.67 197.70 C 75.29 198.27 72.93 199.03 70.87 199.70 C 68.80 200.36 67.07 200.76 65.26 201.69 C 63.44 202.62 62.19 203.88 59.98 205.28 C 57.77 206.69 54.66 208.44 51.99 210.14 C 49.32 211.83 45.83 213.56 43.96 215.46 C 42.09 217.36 42.16 219.11 40.77 221.52 C 39.39 223.92 36.64 226.62 35.66 229.91 C 34.68 233.21 34.89 237.57 34.92 241.29 C 34.94 245.02 35.41 248.66 35.81 252.27 C 36.21 255.88 37.22 259.10 37.32 262.94 C 37.42 266.78 36.55 271.65 36.40 275.30 C 36.24 278.96 36.58 281.55 36.39 284.88 C 36.20 288.21 35.29 292.32 35.26 295.29 C 35.23 298.26 36.50 300.71 36.21 302.70 C 35.92 304.69 34.96 305.99 33.55 307.24 C 32.13 308.49 29.22 309.63 27.73 310.19 C 26.25 310.76 25.71 311.08 24.64 310.64 C 23.56 310.20 22.37 308.36 21.26 307.54 C 20.16 306.72 19.08 306.92 18.01 305.71 C 16.95 304.51 15.95 302.70 14.87 300.32 C 13.79 297.95 12.19 294.82 11.55 291.47 C 10.90 288.12 10.93 284.29 11.00 280.23 C 11.06 276.17 11.12 271.68 11.94 267.10 C 12.75 262.53 13.65 257.74 15.89 252.78 C 18.12 247.81 21.42 242.19 25.35 237.31 C 29.27 232.43 34.27 227.65 39.44 223.48 C 44.61 219.30 49.25 215.99 56.38 212.27 C 63.51 208.55 74.06 203.90 82.22 201.17 C 90.38 198.45 97.59 196.71 105.34 195.92 C 113.10 195.12 121.41 195.27 128.76 196.39 C 136.11 197.52 142.59 199.83 149.46 202.66 C 156.33 205.49 163.78 209.72 169.99 213.36 C 176.20 217.01 182.13 219.96 186.71 224.53 C 191.29 229.10 194.87 235.25 197.47 240.77 C 200.08 246.28 200.93 252.14 202.34 257.60 C 203.75 263.06 205.79 268.75 205.92 273.54 C 206.05 278.33 204.29 282.21 203.11 286.34 C 201.94 290.47 201.52 294.64 198.86 298.33 C 196.20 302.01 190.54 305.43 187.18 308.47 C 183.82 311.51 181.49 314.43 178.70 316.57 C 175.92 318.71 173.45 320.94 170.47 321.31 C 167.49 321.68 164.51 319.96 160.82 318.78 C 157.12 317.61 152.07 315.65 148.29 314.26 C 144.50 312.87 141.61 312.11 138.10 310.44 C 134.60 308.76 130.27 306.56 127.25 304.20 C 124.23 301.85 122.16 299.65 119.98 296.30 C 117.80 292.94 115.90 288.14 114.16 284.08 C 112.42 280.02 110.45 276.02 109.55 271.95 C 108.65 267.87 108.83 264.26 108.77 259.62 C 108.70 254.98 107.66 249.87 109.16 244.11 C 110.66 238.36 114.21 230.47 117.78 225.09 C 121.36 219.72 126.01 215.88 130.59 211.86 C 135.17 207.84 140.31 204.20 145.25 200.97 C 150.19 197.74 155.19 195.00 160.24 192.46 C 165.28 189.92 169.86 187.57 175.51 185.72 C 181.15 183.88 187.60 181.86 194.10 181.39 C 200.61 180.92 208.16 181.94 214.53 182.90 C 220.90 183.86 226.99 185.12 232.33 187.13 C 237.67 189.13 241.81 192.08 246.59 194.91 C 251.36 197.74 256.85 200.16 260.98 204.11 C 265.10 208.06 268.29 212.89 271.36 218.61 C 274.43 224.33 277.80 232.09 279.38 238.44 C 280.97 244.80 281.27 250.95 280.88 256.74 C 280.49 262.53 279.23 268.73 277.04 273.18 C 274.84 277.63 271.28 280.18 267.72 283.46 C 264.17 286.73 259.89 290.52 255.70 292.85 C 251.52 295.18 247.96 297.02 242.60 297.44 C 237.23 297.85 228.98 296.94 223.51 295.34 C 218.04 293.74 214.20 290.38 209.80 287.85 C 205.40 285.33 200.96 282.99 197.10 280.17 C 193.25 277.35 189.45 274.24 186.67 270.91 C 183.90 267.59 182.29 264.04 180.45 260.23 C 178.60 256.42 176.96 252.91 175.58 248.05 C 174.21 243.20 172.36 236.14 172.22 231.12 C 172.07 226.10 174.06 222.56 174.71 217.94 C 175.36 213.33 174.63 207.91 176.12 203.44 C 177.60 198.98 180.75 195.20 183.64 191.13 C 186.52 187.06 189.28 182.23 193.45 179.05 C 197.62 175.86 203.05 174.39 208.64 172.02 C 214.24 169.66 221.71 166.60 227.04 164.87 C 232.38 163.13 235.78 162.47 240.65 161.61 C 245.53 160.75 251.26 159.51 256.30 159.71 C 261.34 159.92 265.73 161.95 270.91 162.84 C 276.09 163.74 282.15 163.40 287.38 165.06 C 292.61 166.73 297.57 169.95 302.30 172.84 C 307.03 175.73 311.84 178.77 315.76 182.42 C 319.69 186.07 322.28 190.95 325.85 194.75 C 329.43 198.54 333.89 201.49 337.21 205.19 C 340.52 208.89 343.39 212.70 345.72 216.97 C 348.05 221.24 348.97 225.63 351.21 230.80 C 353.44 235.97 356.67 243.27 359.11 247.98 C 361.55 252.68 363.38 255.48 365.84 259.03 C 368.30 262.58 371.34 266.32 373.87 269.27 C 376.39 272.22 378.39 274.40 381.00 276.73 C 383.61 279.06 386.59 281.13 389.51 283.28 C 392.42 285.43 395.21 288.78 398.48 289.66 C 401.76 290.53 406.00 289.03 409.15 288.55 C 412.31 288.07 415.11 287.97 417.41 286.79 C 419.71 285.61 421.11 282.39 422.96 281.48 C 424.82 280.57 426.62 281.33 428.56 281.34 C 430.51 281.35 432.62 281.63 434.63 281.54 C 436.63 281.44 438.57 280.73 440.59 280.77 C 442.61 280.81 444.99 280.64 446.74 281.77 C 448.50 282.89 450.14 285.83 451.13 287.51 C 452.12 289.20 451.89 289.97 452.68 291.87 C 453.48 293.78 455.24 296.08 455.90 298.95 C 456.57 301.82 457.02 305.90 456.67 309.08 C 456.32 312.26 455.14 314.68 453.83 318.02 C 452.52 321.37 450.66 325.42 448.80 329.14 C 446.95 332.87 445.26 336.89 442.70 340.37 C 440.14 343.85 436.62 346.71 433.43 350.01 C 430.24 353.32 427.68 357.27 423.56 360.21 C 419.44 363.14 414.65 365.24 408.72 367.61 C 402.78 369.98 394.76 372.87 387.96 374.41 C 381.16 375.95 374.56 376.68 367.91 376.84 C 361.26 377.00 354.74 376.20 348.06 375.37 C 341.38 374.55 334.42 373.79 327.83 371.88 C 321.24 369.97 315.02 366.56 308.53 363.90 C 302.04 361.24 295.38 359.11 288.90 355.92 C 282.41 352.74 275.16 348.51 269.61 344.80 C 264.06 341.10 260.50 336.82 255.58 333.69 C 250.66 330.56 245.02 328.73 240.11 326.04 C 235.20 323.34 230.65 319.71 226.13 317.54 C 221.61 315.36 217.70 314.64 212.99 313.00 C 208.28 311.36 202.90 308.76 197.88 307.70 C 192.87 306.64 187.05 306.85 182.90 306.64 C 178.75 306.43 176.15 305.53 172.96 306.42 C 169.78 307.31 166.66 310.09 163.80 311.98 C 160.94 313.87 158.54 315.91 155.78 317.76 C 153.03 319.61 149.79 321.55 147.26 323.08 C 144.72 324.62 142.81 324.58 140.56 326.96 C 138.31 329.35 135.34 334.30 133.78 337.40 C 132.22 340.50 132.27 342.86 131.20 345.54 C 130.14 348.23 128.31 350.77 127.39 353.49 C 126.47 356.21 125.92 359.35 125.70 361.88 C 125.47 364.41 125.28 365.67 126.03 368.67 C 126.79 371.67 128.65 376.22 130.23 379.88 C 131.81 383.53 133.16 387.36 135.50 390.59 C 137.84 393.83 141.70 396.33 144.27 399.30 C 146.84 402.27 148.88 405.84 150.91 408.41 C 152.94 410.98 154.60 412.56 156.43 414.71 C 158.26 416.86 159.69 418.44 161.90 421.32 C 164.11 424.20 167.63 428.98 169.69 431.98 C 171.75 434.99 173.07 437.12 174.27 439.34 C 175.47 441.55 176.48 443.64 176.88 445.29 C 177.28 446.94 177.42 447.81 176.69 449.25 C 175.95 450.68 173.68 452.97 172.48 453.90 C 171.28 454.82 171.19 454.41 169.48 454.79 C 167.76 455.18 164.63 455.44 162.20 456.21 C 159.78 456.98 156.93 458.78 154.91 459.40 C 152.90 460.02 151.91 459.51 150.11 459.92 C 148.31 460.34 145.55 461.00 144.10 461.89 C 142.66 462.79 142.49 464.63 141.42 465.27 C 140.34 465.90 138.40 465.22 137.67 465.69 C 136.93 466.16 136.52 467.01 137.02 468.08 C 137.52 469.15 139.49 470.62 140.66 472.11 C 141.84 473.60 142.52 475.26 144.04 477.03 C 145.57 478.79 148.05 481.33 149.81 482.71 C 151.58 484.10 152.57 484.26 154.66 485.34 C 156.75 486.42 159.02 487.99 162.37 489.19 C 165.71 490.40 170.95 491.42 174.72 492.59 C 178.49 493.75 181.96 495.13 184.99 496.19 C 188.01 497.25 190.22 498.26 192.87 498.97 C 195.51 499.67 198.13 499.51 200.87 500.40 C 203.60 501.29 206.15 503.12 209.27 504.31 C 212.38 505.50 216.59 506.71 219.54 507.54 C 222.49 508.36 224.90 508.61 226.97 509.26 C 229.03 509.91 230.17 514.41 231.94 511.45 C 233.70 508.49 235.03 499.12 237.54 491.50 C 240.04 483.87 243.68 474.21 246.96 465.72 C 250.24 457.24 253.80 449.58 257.22 440.61 C 260.64 431.63 264.75 420.55 267.47 411.87 C 270.20 403.19 271.75 396.01 273.56 388.54 C 275.38 381.08 277.70 374.10 278.37 367.10 C 279.04 360.10 277.81 353.09 277.59 346.54 C 277.38 339.98 277.71 334.25 277.06 327.79 C 276.41 321.33 275.53 314.87 273.68 307.77 C 271.84 300.68 268.93 291.33 265.99 285.20 C 263.05 279.08 259.58 275.59 256.02 271.02 C 252.47 266.45 248.03 261.85 244.65 257.77 C 241.27 253.69 239.32 249.15 235.74 246.53 C 232.16 243.91 227.84 243.82 223.18 242.05 C 218.52 240.28 212.93 236.56 207.76 235.92 C 202.59 235.28 196.73 237.11 192.16 238.20 C 187.60 239.28 184.31 239.83 180.37 242.43 C 176.43 245.03 171.63 250.09 168.53 253.80 C 165.43 257.52 162.73 260.48 161.77 264.71 C 160.81 268.94 162.51 273.43 162.77 279.17 C 163.03 284.91 162.50 293.68 163.33 299.15 C 164.16 304.63 165.59 307.93 167.72 312.02 C 169.86 316.11 172.65 319.72 176.14 323.72 C 179.63 327.72 184.52 332.91 188.67 336.01 C 192.82 339.12 196.65 340.41 201.06 342.32 C 205.47 344.23 209.51 346.37 215.12 347.48 C 220.73 348.59 228.99 349.06 234.73 348.98 C 240.47 348.90 244.70 348.40 249.57 347.00 C 254.44 345.60 258.96 342.81 263.94 340.58 C 268.93 338.35 274.63 336.62 279.49 333.61 C 284.36 330.60 288.69 326.44 293.15 322.52 C 297.61 318.60 302.42 314.80 306.24 310.09 C 310.06 305.38 313.17 298.92 316.08 294.24 C 318.99 289.56 321.20 286.11 323.71 281.99 C 326.23 277.87 328.47 273.47 331.16 269.53 C 333.85 265.58 336.78 261.82 339.86 258.30 C 342.95 254.77 346.03 251.17 349.66 248.36 C 353.28 245.55 357.85 243.26 361.60 241.42 C 365.35 239.59 369.17 238.33 372.18 237.35 C 375.19 236.37 376.61 235.88 379.67 235.54 C 382.72 235.21 387.27 234.91 390.52 235.34 C 393.76 235.77 396.22 237.31 399.16 238.11 C 402.09 238.91 405.71 238.23 408.14 240.17 C 410.56 242.11 412.25 246.15 413.70 249.76 C 415.15 253.36 416.03 257.70 416.82 261.81 C 417.62 265.91 418.69 270.11 418.48 274.38 C 418.26 278.64 417.02 282.75 415.55 287.39 C 414.07 292.02 412.26 297.12 409.64 302.19 C 407.03 307.27 404.82 313.22 399.85 317.85 C 394.89 322.48 386.07 327.01 379.84 329.96 C 373.61 332.91 368.73 334.32 362.47 335.56 C 356.21 336.79 348.86 337.16 342.27 337.36 C 335.68 337.55 328.88 337.87 322.94 336.73 C 316.99 335.58 312.10 333.12 306.58 330.49 C 301.06 327.86 295.58 324.99 289.82 320.95 C 284.06 316.90 276.51 311.13 272.04 306.22 C 267.57 301.30 265.68 297.12 262.99 291.46 C 260.30 285.80 257.27 277.85 255.92 272.27 C 254.57 266.69 254.31 262.91 254.89 258.01 C 255.47 253.11 257.50 247.92 259.40 242.89 C 261.29 237.86 263.10 232.71 266.26 227.82 C 269.41 222.94 274.27 216.81 278.32 213.58 C 282.37 210.36 286.43 210.08 290.57 208.48 C 294.70 206.88 298.97 204.84 303.14 204.00 C 307.31 203.16 311.62 202.97 315.58 203.43 C 319.54 203.90 323.18 205.14 326.89 206.79 C 330.60 208.44 333.92 210.14 337.85 213.33 C 341.79 216.52 346.84 222.31 350.50 225.94 C 354.16 229.56 357.71 231.60 359.83 235.09 C 361.94 238.59 362.20 242.92 363.18 246.91 C 364.15 250.90 365.62 254.58 365.68 259.04 C 365.75 263.50 365.13 268.26 363.59 273.69 C 362.05 279.11 359.14 286.26 356.43 291.57 C 353.71 296.88 350.52 301.10 347.27 305.55 C 344.03 309.99 340.47 314.51 336.93 318.22 C 333.39 321.92 330.42 325.05 326.04 327.79 C 321.66 330.52 316.00 332.76 310.65 334.62 C 305.30 336.48 300.03 338.24 293.94 338.93 C 287.85 339.62 279.87 339.82 274.09 338.78 C 268.32 337.74 264.16 335.55 259.27 332.68 C 254.38 329.82 249.40 325.54 244.74 321.59 C 240.08 317.64 234.66 313.70 231.31 308.99 C 227.97 304.29 226.34 298.56 224.66 293.34 C 222.98 288.13 221.53 283.86 221.24 277.71 C 220.95 271.56 221.89 262.62 222.94 256.44 C 223.99 250.25 225.35 245.61 227.57 240.60 C 229.78 235.59 232.93 230.18 236.22 226.38 C 239.52 222.59 243.25 220.78 247.34 217.82 C 251.42 214.85 256.30 210.94 260.75 208.61 C 265.19 206.28 269.09 204.29 274.00 203.83 C 278.91 203.36 285.23 205.13 290.20 205.83 C 295.17 206.52 299.32 206.61 303.80 208.01 C 308.29 209.40 312.92 211.69 317.12 214.18 C 321.31 216.66 325.32 219.53 328.97 222.91 C 332.61 226.29 336.11 229.82 338.99 234.46 C 341.86 239.11 344.70 245.78 346.19 250.78 C 347.69 255.79 347.68 259.65 347.96 264.49 C 348.24 269.33 348.52 275.06 347.86 279.82 C 347.20 284.58 345.53 288.60 344.00 293.05 C 342.48 297.49 340.68 302.14 338.70 306.49 C 336.71 310.85 335.99 315.29 332.08 319.17 C 328.17 323.04 320.90 326.88 315.22 329.74 C 309.53 332.61 303.31 335.08 297.98 336.37 C 292.65 337.66 288.68 337.86 283.24 337.48 C 277.80 337.09 270.70 335.46 265.35 334.05 C 259.99 332.64 255.73 331.63 251.09 328.99 C 246.45 326.36 241.63 323.23 237.52 318.25 C 233.42 313.27 228.93 304.99 226.47 299.13 C 224.01 293.27 223.41 288.18 222.75 283.10 C 222.10 278.02 222.01 273.72 222.53 268.65 C 223.05 263.57 223.88 257.51 225.90 252.65 C 227.91 247.78 231.82 243.40 234.60 239.47 C 237.38 235.55 239.11 232.94 242.56 229.08 C 246.02 225.22 251.06 219.95 255.33 216.31 C 259.59 212.67 264.08 209.93 268.17 207.26 C 272.26 204.58 276.38 202.83 279.86 200.27 C 283.33 197.72 286.42 194.91 289.02 191.93 C 291.61 188.94 292.75 185.58 295.44 182.34 C 298.13 179.11 302.55 175.90 305.17 172.53 C 307.79 169.15 309.32 165.40 311.16 162.09 C 313.00 158.79 314.90 155.34 316.21 152.70 C 317.51 150.05 317.91 148.47 318.97 146.23 C 320.03 143.99 320.99 141.86 322.56 139.26 C 324.14 136.66 326.39 133.27 328.42 130.61 C 330.45 127.95 332.90 125.70 334.74 123.31 C 336.59 120.92 337.71 118.30 339.48 116.29 C 341.25 114.27 343.29 112.53 345.38 111.23 C 347.47 109.93 350.03 109.14 352.01 108.49 C 353.99 107.84 355.15 107.27 357.25 107.33 C 359.35 107.39 361.50 108.20 364.59 108.84 C 367.69 109.48 372.50 110.44 375.83 111.15 C 379.16 111.86 381.77 112.33 384.57 113.09 C 387.36 113.84 389.87 114.78 392.59 115.67 C 395.31 116.56 398.01 117.33 400.90 118.44 C 403.79 119.56 406.85 120.58 409.93 122.36 C 413.00 124.14 416.35 126.37 419.37 129.13 C 422.38 131.90 425.31 136.01 428.00 138.93 C 430.69 141.86 433.11 144.26 435.52 146.66 C 437.94 149.07 440.01 151.70 442.49 153.39 C 444.97 155.07 447.97 155.39 450.40 156.75 C 452.83 158.11 455.32 160.57 457.06 161.52 C 458.80 162.48 459.26 161.45 460.83 162.48 C 462.40 163.51 464.62 165.97 466.50 167.72 C 468.38 169.47 470.12 171.69 472.12 173.00 C 474.12 174.31 476.56 174.48 478.49 175.58 C 480.42 176.67 481.78 178.43 483.68 179.59 C 485.57 180.75 487.77 181.08 489.86 182.54 C 491.95 183.99 494.61 186.33 496.23 188.32 C 497.85 190.31 498.55 192.62 499.57 194.46 C 500.60 196.30 501.25 197.11 502.40 199.34 C 503.56 201.56 505.48 205.06 506.51 207.81 C 507.54 210.55 507.86 212.93 508.57 215.82 C 509.28 218.72 510.88 221.05 510.77 225.16 C 510.66 229.27 508.86 235.99 507.91 240.46 C 506.96 244.94 506.57 247.63 505.05 252.02 C 503.53 256.42 501.18 262.44 498.79 266.82 C 496.41 271.20 493.60 274.11 490.74 278.31 C 487.89 282.50 485.74 287.39 481.67 291.98 C 477.60 296.57 472.79 300.97 466.33 305.85 C 459.87 310.73 449.88 317.18 442.89 321.27 C 435.90 325.36 430.51 327.88 424.40 330.38 C 418.28 332.87 412.56 334.26 406.22 336.26 C 399.87 338.25 393.04 340.85 386.31 342.35 C 379.58 343.85 372.40 344.36 365.83 345.26 C 359.26 346.16 353.80 346.75 346.90 347.76 C 340.01 348.78 331.24 350.20 324.45 351.37 C 317.65 352.54 311.66 353.56 306.11 354.77 C 300.55 355.98 295.97 356.93 291.12 358.62 C 286.28 360.31 280.72 362.80 277.02 364.93 C 273.31 367.06 272.17 368.95 268.90 371.40 C 265.62 373.84 260.47 376.93 257.36 379.59 C 254.26 382.25 252.56 385.11 250.28 387.36 C 248.00 389.60 245.89 390.95 243.68 393.07 C 241.46 395.19 239.17 397.81 236.98 400.08 C 234.79 402.36 232.66 404.81 230.55 406.71 C 228.45 408.61 227.38 410.06 224.34 411.47 C 221.30 412.88 215.79 414.02 212.32 415.18 C 208.84 416.33 206.59 417.86 203.49 418.40 C 200.40 418.93 197.20 418.92 193.75 418.41 C 190.30 417.89 186.33 416.80 182.78 415.30 C 179.22 413.79 175.95 411.97 172.40 409.37 C 168.85 406.77 165.76 402.87 161.47 399.70 C 157.19 396.53 150.46 393.40 146.71 390.35 C 142.97 387.31 141.58 384.00 139.00 381.42 C 136.42 378.84 134.22 377.48 131.23 374.90 C 128.23 372.32 124.12 368.43 121.03 365.95 C 117.93 363.46 115.36 361.98 112.65 359.98 C 109.95 357.98 107.74 355.31 104.79 353.93 C 101.84 352.54 97.81 352.23 94.94 351.67 C 92.07 351.11 89.89 350.88 87.59 350.55 C 85.28 350.23 82.88 349.61 81.11 349.71 C 79.34 349.81 78.09 350.71 76.97 351.16 C 75.84 351.60 75.49 351.62 74.35 352.38 C 73.21 353.15 71.54 354.59 70.15 355.73 C 68.76 356.87 67.17 357.97 66.03 359.25 C 64.88 360.53 64.25 362.32 63.28 363.43 C 62.31 364.54 61.50 364.91 60.20 365.89 C 58.90 366.87 56.58 368.28 55.47 369.30 C 54.36 370.33 54.27 370.86 53.54 372.06 C 52.81 373.26 52.15 375.63 51.09 376.51 C 50.04 377.38 48.09 377.16 47.19 377.31 C 46.29 377.46 46.61 377.22 45.67 377.42 C 44.74 377.62 42.91 378.29 41.57 378.49 C 40.24 378.69 38.96 378.27 37.68 378.62 C 36.41 378.96 34.83 379.19 33.91 380.55 C 32.99 381.92 31.86 384.68 32.16 386.82 C 32.47 388.95 34.26 391.45 35.75 393.36 C 37.24 395.26 39.18 396.17 41.09 398.24 C 43.00 400.30 44.69 403.31 47.20 405.75 C 49.70 408.18 52.64 410.51 56.12 412.85 C 59.59 415.20 62.77 417.52 68.05 419.82 C 73.34 422.11 81.50 425.19 87.82 426.62 C 94.14 428.04 100.20 427.32 105.97 428.38 C 111.73 429.44 116.84 431.56 122.40 432.98 C 127.96 434.40 133.87 435.91 139.31 436.91 C 144.74 437.92 149.58 438.58 155.03 439.02 C 160.49 439.47 166.05 438.99 172.04 439.57 C 178.02 440.15 185.83 441.66 190.96 442.49 C 196.08 443.32 199.08 443.69 202.80 444.56 C 206.51 445.43 210.50 446.67 213.26 447.73 C 216.03 448.79 217.77 449.67 219.40 450.92 C 221.02 452.18 221.73 453.18 223.01 455.25 C 224.30 457.31 225.91 461.06 227.09 463.32 C 228.27 465.57 229.01 467.37 230.10 468.78 C 231.18 470.18 232.11 470.36 233.60 471.76 C 235.10 473.17 237.38 475.55 239.09 477.18 C 240.80 478.81 242.03 480.34 243.87 481.53 C 245.71 482.71 248.35 483.18 250.13 484.29 C 251.91 485.40 253.07 486.88 254.57 488.19 C 256.07 489.50 256.57 491.40 259.13 492.14 C 261.69 492.89 266.63 492.60 269.93 492.63 C 273.23 492.67 276.10 492.60 278.92 492.35 C 281.75 492.11 283.77 491.60 286.89 491.17 C 290.02 490.74 294.07 489.76 297.69 489.76 C 301.31 489.76 305.75 490.65 308.63 491.17 C 311.51 491.68 312.86 492.29 314.97 492.87 C 317.08 493.44 319.52 494.21 321.29 494.61 C 323.06 495.02 324.50 494.80 325.61 495.28 C 326.72 495.76 327.61 496.82 327.94 497.48 C 328.26 498.14 327.67 498.32 327.58 499.26 C 327.49 500.19 328.56 501.76 327.39 503.09 C 326.22 504.41 322.36 505.81 320.55 507.23 C 318.74 508.65 317.84 514.31 316.51 511.60 C 315.19 508.89 313.84 498.84 312.61 490.96 C 311.38 483.08 309.82 473.89 309.15 464.32 C 308.48 454.76 308.14 442.70 308.58 433.57 C 309.03 424.44 310.66 417.08 311.82 409.54 C 312.98 402.01 314.21 395.09 315.55 388.36 C 316.89 381.63 318.24 375.02 319.86 369.16 C 321.47 363.30 323.09 358.21 325.24 353.20 C 327.39 348.18 329.86 343.80 332.74 339.07 C 335.63 334.35 339.28 329.00 342.54 324.85 C 345.80 320.70 348.86 317.13 352.30 314.19 C 355.75 311.25 359.97 309.44 363.21 307.22 C 366.45 305.00 368.65 303.37 371.74 300.87 C 374.83 298.37 378.68 294.41 381.75 292.24 C 384.83 290.07 387.03 290.44 390.19 287.84 C 393.35 285.25 397.72 280.10 400.72 276.68 C 403.73 273.27 406.19 270.38 408.23 267.36 C 410.26 264.33 411.25 261.70 412.95 258.52 C 414.65 255.34 417.03 251.50 418.43 248.28 C 419.83 245.07 420.32 242.64 421.34 239.21 C 422.36 235.78 423.96 231.95 424.54 227.71 C 425.12 223.48 425.34 218.19 424.84 213.80 C 424.34 209.40 422.78 205.42 421.55 201.34 C 420.31 197.25 419.35 193.17 417.41 189.29 C 415.47 185.42 412.81 181.62 409.89 178.09 C 406.98 174.56 404.26 171.32 399.91 168.11 C 395.56 164.89 389.47 161.45 383.79 158.80 C 378.10 156.14 372.40 153.70 365.82 152.18 C 359.24 150.65 351.15 149.75 344.29 149.64 C 337.44 149.52 330.86 150.11 324.68 151.48 C 318.51 152.85 312.78 155.58 307.25 157.86 C 301.73 160.14 297.43 162.17 291.53 165.19 C 285.64 168.21 277.25 171.98 271.87 175.96 C 266.49 179.95 263.40 184.31 259.25 189.09 C 255.11 193.88 250.10 199.30 247.01 204.67 C 243.91 210.05 242.04 215.96 240.67 221.34 C 239.29 226.72 239.12 231.76 238.76 236.94 C 238.39 242.12 237.84 246.37 238.50 252.41 C 239.17 258.45 240.87 267.43 242.74 273.18 C 244.61 278.94 247.28 282.47 249.71 286.92 C 252.15 291.37 254.39 296.15 257.38 299.89 C 260.36 303.64 263.78 306.70 267.61 309.39 C 271.44 312.07 276.43 314.33 280.35 316.00 C 284.27 317.68 286.80 318.22 291.11 319.43 C 295.41 320.65 301.46 322.82 306.19 323.29 C 310.91 323.76 315.08 323.19 319.46 322.24 C 323.84 321.29 328.38 319.53 332.48 317.61 C 336.58 315.70 340.63 313.58 344.08 310.75 C 347.53 307.92 350.20 304.44 353.20 300.61 C 356.20 296.79 359.86 292.22 362.06 287.81 C 364.26 283.41 365.44 278.89 366.39 274.18 C 367.35 269.47 367.96 264.62 367.79 259.56 C 367.61 254.49 366.27 248.67 365.36 243.78 C 364.45 238.89 363.97 234.92 362.35 230.22 C 360.73 225.51 358.34 220.69 355.65 215.55 C 352.96 210.40 349.33 204.18 346.21 199.34 C 343.09 194.50 340.30 190.34 336.92 186.51 C 333.53 182.67 329.83 179.58 325.89 176.35 C 321.96 173.11 317.63 169.71 313.30 167.09 C 308.97 164.46 304.28 162.37 299.90 160.60 C 295.52 158.82 292.32 158.09 287.02 156.45 C 281.72 154.80 273.32 152.18 268.10 150.71 C 262.87 149.25 259.49 149.04 255.69 147.65 C 251.89 146.26 248.99 144.20 245.28 142.38 C 241.57 140.56 237.32 138.23 233.43 136.75 C 229.54 135.28 225.45 134.70 221.95 133.51 C 218.46 132.32 215.09 131.09 212.45 129.63 C 209.81 128.17 207.83 126.51 206.13 124.75 C 204.42 122.99 202.97 121.27 202.21 119.07 C 201.44 116.87 201.26 114.25 201.54 111.57 C 201.82 108.89 203.22 105.40 203.89 102.99 C 204.55 100.58 204.68 99.24 205.55 97.11 C 206.41 94.98 208.17 92.43 209.08 90.20 C 209.98 87.97 210.53 86.12 210.97 83.74 C 211.40 81.36 211.90 78.45 211.67 75.90 C 211.44 73.35 210.00 70.36 209.59 68.42 C 209.17 66.48 209.57 66.25 209.17 64.28 C 208.76 62.31 208.02 58.88 207.16 56.60 C 206.31 54.33 205.53 52.10 204.03 50.63 C 202.54 49.15 200.17 48.94 198.21 47.75 C 196.25 46.55 194.31 44.34 192.28 43.45 C 190.26 42.55 187.59 42.85 186.07 42.38 C 184.55 41.91 184.39 41.48 183.14 40.63 C 181.90 39.78 179.69 38.79 178.60 37.27 C 177.51 35.75 176.74 33.18 176.62 31.51 C 176.51 29.84 177.04 28.45 177.90 27.25 C 178.75 26.04 180.21 25.19 181.75 24.28 C 183.30 23.36 184.86 22.75 187.16 21.78 C 189.46 20.80 192.06 19.31 195.56 18.42 C 199.06 17.52 203.40 16.90 208.16 16.41 C 212.92 15.91 219.00 14.71 224.12 15.45 C 229.23 16.19 233.84 18.38 238.83 20.84 C 243.83 23.29 248.85 26.88 254.08 30.16 C 259.32 33.45 265.27 36.64 270.26 40.55 C 275.26 44.45 279.80 49.07 284.08 53.60 C 288.37 58.12 291.46 61.81 295.98 67.71 C 300.50 73.61 307.09 82.41 311.20 89.01 C 315.31 95.60 318.24 100.74 320.64 107.26 C 323.04 113.78 324.53 121.27 325.60 128.14 C 326.66 135.02 326.98 141.68 327.04 148.53 C 327.10 155.37 326.77 161.86 325.96 169.22 C 325.15 176.58 323.15 185.79 322.18 192.69 C 321.20 199.58 320.93 204.83 320.11 210.59 C 319.30 216.34 318.32 221.78 317.29 227.20 C 316.26 232.63 315.08 237.66 313.93 243.12 C 312.79 248.58 310.73 254.50 310.42 259.95 C 310.12 265.41 311.17 270.64 312.11 275.88 C 313.05 281.13 314.58 287.03 316.06 291.41 C 317.55 295.80 319.17 298.88 321.03 302.21 C 322.90 305.54 324.96 308.59 327.24 311.41 C 329.52 314.22 332.27 316.67 334.72 319.10 C 337.17 321.53 339.20 324.15 341.95 325.97 C 344.71 327.78 347.51 328.76 351.24 329.99 C 354.97 331.22 360.28 332.56 364.32 333.33 C 368.37 334.10 371.94 334.77 375.50 334.59 C 379.05 334.41 382.70 333.32 385.65 332.24 C 388.61 331.15 390.81 329.86 393.23 328.07 C 395.65 326.28 397.52 323.64 400.16 321.48 C 402.80 319.31 406.21 318.80 409.09 315.08 C 411.96 311.35 415.57 303.99 417.39 299.13 C 419.20 294.27 419.42 290.22 419.99 285.91 C 420.56 281.61 420.46 277.23 420.80 273.28 C 421.14 269.33 421.51 266.20 422.05 262.20 C 422.58 258.20 423.31 253.51 424.04 249.28 C 424.76 245.05 425.51 240.58 426.42 236.84 C 427.32 233.10 428.19 229.70 429.46 226.86 C 430.72 224.02 432.60 222.02 434.01 219.78 C 435.42 217.54 436.26 215.26 437.90 213.40 C 439.53 211.54 441.82 209.50 443.82 208.60 C 445.81 207.71 447.53 207.42 449.86 208.04 C 452.20 208.66 455.66 210.37 457.84 212.32 C 460.01 214.27 461.62 216.60 462.93 219.75 C 464.24 222.89 465.42 226.97 465.70 231.17 C 465.98 235.37 465.41 240.05 464.61 244.95 C 463.81 249.85 462.31 255.27 460.91 260.56 C 459.50 265.85 459.17 271.02 456.17 276.68 C 453.17 282.34 447.66 289.16 442.90 294.52 C 438.13 299.88 432.88 304.76 427.59 308.83 C 422.30 312.90 417.12 316.29 411.16 318.97 C 405.19 321.65 398.67 323.33 391.82 324.89 C 384.97 326.46 377.46 327.98 370.07 328.35 C 362.69 328.73 355.29 328.39 347.50 327.15 C 339.70 325.91 330.34 323.34 323.31 320.90 C 316.29 318.46 310.87 316.07 305.36 312.51 C 299.85 308.95 294.22 304.28 290.24 299.56 C 286.25 294.84 283.40 289.56 281.45 284.19 C 279.50 278.82 279.02 272.97 278.53 267.34 C 278.03 261.71 277.02 255.99 278.48 250.42 C 279.94 244.85 284.21 238.14 287.29 233.92 C 290.36 229.70 293.28 227.10 296.94 225.09 C 300.59 223.09 304.97 222.22 309.21 221.90 C 313.46 221.58 318.04 221.93 322.39 223.16 C 326.74 224.40 331.09 226.31 335.30 229.29 C 339.51 232.28 344.54 237.16 347.65 241.09 C 350.75 245.02 352.54 248.47 353.92 252.89 C 355.31 257.31 355.59 263.17 355.96 267.64 C 356.33 272.11 356.95 275.39 356.15 279.71 C 355.35 284.03 352.97 288.71 351.16 293.57 C 349.35 298.42 348.63 303.88 345.31 308.84 C 341.98 313.81 335.67 319.33 331.20 323.36 C 326.72 327.39 323.13 330.80 318.46 333.03 C 313.78 335.25 308.20 335.59 303.15 336.71 C 298.10 337.83 293.74 339.14 288.15 339.74 C 282.55 340.34 275.35 340.81 269.59 340.30 C 263.82 339.78 259.33 338.40 253.56 336.67 C 247.78 334.94 240.52 332.25 234.93 329.90 C 229.33 327.54 224.55 325.92 219.98 322.54 C 215.41 319.16 211.06 314.12 207.50 309.64 C 203.94 305.15 201.00 300.25 198.62 295.60 C 196.25 290.96 194.62 286.66 193.24 281.78 C 191.85 276.90 191.13 272.40 190.31 266.32 C 189.49 260.25 188.53 251.34 188.32 245.32 C 188.11 239.30 188.66 234.86 189.04 230.20 C 189.42 225.54 190.08 221.49 190.60 217.36 C 191.13 213.23 192.18 209.47 192.19 205.43 C 192.21 201.40 191.45 197.06 190.71 193.14 C 189.97 189.22 189.11 184.97 187.75 181.91 C 186.40 178.85 184.85 176.82 182.56 174.78 C 180.27 172.74 176.89 171.22 174.02 169.69 C 171.15 168.16 168.46 166.78 165.34 165.59 C 162.22 164.40 158.66 162.79 155.31 162.57 C 151.95 162.34 148.92 163.11 145.19 164.24 C 141.45 165.38 136.79 167.12 132.89 169.37 C 128.99 171.63 125.19 174.21 121.77 177.76 C 118.35 181.31 114.79 185.81 112.35 190.66 C 109.91 195.51 107.93 201.68 107.15 206.88 C 106.36 212.08 106.96 216.55 107.65 221.86 C 108.34 227.18 109.57 232.42 111.28 238.78 C 112.99 245.14 115.40 253.91 117.89 260.00 C 120.38 266.09 123.22 270.25 126.21 275.33 C 129.20 280.42 131.50 286.07 135.81 290.51 C 140.11 294.94 146.29 298.67 152.03 301.95 C 157.77 305.23 164.03 308.09 170.26 310.19 C 176.48 312.30 181.71 314.45 189.35 314.61 C 197.00 314.77 209.12 312.75 216.13 311.15 C 223.13 309.55 226.11 307.44 231.37 304.99 C 236.63 302.54 242.88 299.79 247.69 296.45 C 252.50 293.11 256.75 289.10 260.23 284.94 C 263.72 280.78 266.70 276.49 268.60 271.49 C 270.49 266.50 271.11 261.23 271.62 254.96 C 272.12 248.70 272.51 239.64 271.64 233.92 C 270.78 228.19 268.60 224.49 266.45 220.63 C 264.29 216.77 261.65 213.74 258.73 210.75 C 255.80 207.75 252.73 204.99 248.90 202.66 C 245.07 200.32 241.02 197.88 235.75 196.76 C 230.48 195.64 222.79 195.22 217.29 195.94 C 211.80 196.66 207.00 198.71 202.77 201.08 C 198.54 203.46 195.02 206.46 191.91 210.18 C 188.79 213.91 186.18 219.21 184.10 223.45 C 182.03 227.70 180.27 230.95 179.45 235.66 C 178.63 240.38 178.55 245.60 179.17 251.75 C 179.80 257.89 181.42 266.54 183.21 272.52 C 184.99 278.50 187.12 282.93 189.88 287.63 C 192.64 292.33 196.15 296.70 199.75 300.71 C 203.36 304.73 207.59 308.82 211.51 311.71 C 215.44 314.60 218.60 315.80 223.28 318.07 C 227.97 320.34 233.78 323.77 239.62 325.34 C 245.47 326.91 252.75 327.38 258.33 327.50 C 263.92 327.62 268.38 327.13 273.13 326.05 C 277.89 324.96 282.35 323.11 286.87 320.99 C 291.38 318.88 296.19 316.65 300.22 313.37 C 304.24 310.09 307.70 305.25 311.04 301.32 C 314.38 297.39 316.43 294.09 320.23 289.80 C 324.03 285.50 329.88 279.95 333.82 275.57 C 337.77 271.19 340.92 266.87 343.90 263.53 C 346.87 260.20 348.85 258.86 351.68 255.56 C 354.50 252.26 358.27 246.92 360.86 243.73 C 363.44 240.53 364.52 238.69 367.19 236.39 C 369.86 234.09 373.80 231.47 376.86 229.92 C 379.91 228.37 382.48 227.60 385.52 227.10 C 388.55 226.60 392.14 227.02 395.06 226.89 C 397.98 226.77 400.28 225.64 403.02 226.34 C 405.75 227.03 408.71 229.63 411.49 231.07 C 414.27 232.50 416.68 233.17 419.70 234.95 C 422.71 236.72 426.82 240.09 429.59 241.72 C 432.37 243.35 434.14 243.61 436.34 244.70 C 438.55 245.80 440.64 247.03 442.81 248.31 C 444.98 249.59 447.50 251.58 449.37 252.37 C 451.23 253.15 452.18 252.91 453.99 253.02 C 455.79 253.12 457.75 252.98 460.19 252.99 C 462.63 253.01 466.25 253.49 468.63 253.12 C 471.00 252.75 472.82 251.69 474.42 250.78 C 476.01 249.86 477.23 249.42 478.20 247.62 C 479.17 245.82 479.47 242.63 480.25 240.00 C 481.02 237.36 482.93 235.09 482.88 231.82 C 482.82 228.54 481.89 224.92 479.93 220.36 C 477.97 215.81 474.73 208.97 471.12 204.50 C 467.51 200.03 462.68 197.56 458.26 193.55 C 453.84 189.54 449.69 184.41 444.61 180.44 C 439.53 176.47 433.85 172.55 427.77 169.71 C 421.69 166.87 415.59 164.86 408.13 163.39 C 400.66 161.91 390.82 160.79 382.98 160.85 C 375.13 160.92 367.94 162.85 361.07 163.77 C 354.20 164.68 348.72 165.20 341.75 166.36 C 334.78 167.51 326.51 169.25 319.24 170.68 C 311.97 172.10 304.25 173.46 298.13 174.92 C 292.01 176.37 288.66 177.76 282.52 179.40 C 276.38 181.04 267.73 183.23 261.30 184.77 C 254.87 186.31 249.18 187.75 243.93 188.64 C 238.68 189.54 234.52 189.78 229.79 190.16 C 225.06 190.53 220.33 190.65 215.55 190.89 C 210.76 191.13 205.23 191.84 201.10 191.60 C 196.97 191.36 194.47 190.23 190.76 189.44 C 187.06 188.65 182.42 187.43 178.87 186.83 C 175.32 186.24 172.95 186.01 169.47 185.88 C 166.00 185.74 161.76 185.93 158.02 186.02 C 154.28 186.11 150.37 186.25 147.03 186.44 C 143.70 186.62 141.64 186.45 138.02 187.12 C 134.41 187.79 129.24 188.64 125.32 190.47 C 121.41 192.30 117.74 195.77 114.54 198.12 C 111.34 200.47 108.50 202.44 106.12 204.57 C 103.73 206.70 102.49 208.61 100.23 210.89 C 97.96 213.16 94.82 215.74 92.53 218.22 C 90.23 220.71 88.42 222.88 86.48 225.78 C 84.53 228.69 83.09 232.45 80.87 235.66 C 78.66 238.87 75.30 242.83 73.21 245.05 C 71.12 247.27 70.10 248.06 68.36 248.99 C 66.62 249.91 64.79 250.01 62.76 250.60 C 60.73 251.19 58.33 252.15 56.20 252.54 C 54.07 252.93 51.63 253.72 49.98 252.93 C 48.34 252.15 47.57 249.49 46.33 247.81 C 45.09 246.13 44.11 244.74 42.55 242.85 C 40.98 240.97 38.28 239.06 36.93 236.50 C 35.58 233.94 35.06 230.36 34.45 227.49 C 33.84 224.62 33.71 221.53 33.27 219.28 C 32.83 217.04 32.08 216.55 31.83 214.02 C 31.59 211.50 31.82 206.88 31.81 204.15 C 31.81 201.41 32.37 199.09 31.80 197.60 C 31.24 196.11 29.61 196.04 28.41 195.20 C 27.21 194.37 25.60 192.82 24.60 192.59 C 23.60 192.37 23.78 192.93 22.41 193.86 C 21.04 194.79 17.90 196.14 16.38 198.17 C 14.87 200.20 14.00 203.37 13.33 206.05 C 12.66 208.73 13.05 211.85 12.35 214.26 C 11.65 216.67 9.74 218.13 9.12 220.53 C 8.51 222.94 9.33 225.59 8.65 228.68 C 7.96 231.77 5.09 235.44 5.01 239.08 C 4.94 242.71 6.87 245.62 8.20 250.50 C 9.54 255.39 11.01 263.11 13.05 268.37 C 15.08 273.63 17.64 277.67 20.42 282.08 C 23.20 286.48 26.12 290.69 29.72 294.82 C 33.32 298.95 37.26 302.90 41.99 306.86 C 46.72 310.82 51.80 314.35 58.10 318.56 C 64.40 322.78 72.90 328.43 79.79 332.14 C 86.69 335.85 92.69 338.64 99.46 340.82 C 106.24 342.99 113.58 344.29 120.47 345.18 C 127.36 346.07 133.90 345.84 140.83 346.16 C 147.75 346.49 154.82 347.73 162.00 347.14 C 169.18 346.54 176.06 344.73 183.91 342.62 C 191.77 340.51 202.46 337.73 209.12 334.48 C 215.78 331.23 218.81 326.84 223.88 323.14 C 228.95 319.43 235.13 316.21 239.54 312.24 C 243.96 308.28 246.62 304.05 250.35 299.37 C 254.09 294.68 259.41 289.25 261.95 284.16 C 264.49 279.07 264.79 274.44 265.59 268.84 C 266.39 263.24 266.68 255.90 266.75 250.58 C 266.81 245.26 267.15 241.66 265.97 236.92 C 264.79 232.19 261.90 226.31 259.67 222.17 C 257.44 218.02 255.76 215.23 252.59 212.04 C 249.43 208.84 244.89 205.07 240.68 202.97 C 236.46 200.87 232.28 200.66 227.30 199.44 C 222.33 198.22 215.82 196.46 210.84 195.64 C 205.87 194.83 202.29 194.28 197.48 194.54 C 192.67 194.80 186.48 196.85 181.99 197.18 C 177.51 197.51 174.15 196.62 170.56 196.49 C 166.97 196.37 164.04 196.45 160.46 196.41 C 156.88 196.37 152.91 196.43 149.10 196.25 C 145.28 196.06 141.17 195.49 137.58 195.28 C 133.98 195.07 130.79 195.19 127.51 195.00 C 124.23 194.80 121.08 194.94 117.88 194.11 C 114.69 193.29 111.15 191.11 108.33 190.02 C 105.52 188.94 103.48 188.82 101.00 187.59 C 98.52 186.35 95.06 184.17 93.46 182.60 C 91.87 181.04 92.12 180.12 91.41 178.17 C 90.70 176.22 89.92 173.60 89.20 170.91 C 88.47 168.22 86.99 164.72 87.04 162.04 C 87.08 159.36 88.39 157.60 89.46 154.83 C 90.52 152.05 91.45 148.67 93.42 145.40 C 95.39 142.13 98.62 138.68 101.29 135.23 C 103.97 131.78 105.83 127.73 109.49 124.68 C 113.16 121.62 118.59 119.33 123.28 116.90 C 127.97 114.48 132.47 112.09 137.63 110.13 C 142.79 108.16 148.67 106.26 154.22 105.11 C 159.77 103.96 164.53 103.46 170.92 103.22 C 177.31 102.99 186.38 103.30 192.56 103.71 C 198.74 104.12 202.47 104.49 208.01 105.69 C 213.54 106.88 220.00 109.25 225.77 110.89 C 231.55 112.53 237.19 113.39 242.64 115.53 C 248.10 117.67 253.80 120.58 258.51 123.75 C 263.22 126.91 266.35 129.48 270.92 134.51 C 275.50 139.55 281.77 147.75 285.97 153.94 C 290.16 160.12 292.82 166.14 296.10 171.62 C 299.39 177.11 303.12 181.59 305.66 186.86 C 308.19 192.13 309.53 198.06 311.32 203.23 C 313.11 208.41 314.81 212.61 316.41 217.90 C 318.01 223.19 318.98 230.01 320.93 234.97 C 322.88 239.93 325.66 243.56 328.12 247.66 C 330.57 251.77 332.91 256.19 335.66 259.61 C 338.41 263.03 341.54 265.44 344.60 268.19 C 347.66 270.95 350.89 274.28 354.01 276.14 C 357.14 277.99 359.75 278.58 363.36 279.33 C 366.97 280.09 372.10 281.23 375.68 280.66 C 379.26 280.10 382.20 277.72 384.83 275.91 C 387.45 274.11 389.60 271.95 391.43 269.83 C 393.27 267.71 394.30 266.46 395.82 263.20 C 397.34 259.94 399.60 254.57 400.55 250.27 C 401.50 245.97 401.87 242.44 401.53 237.41 C 401.18 232.38 400.05 224.98 398.50 220.07 C 396.94 215.17 395.01 212.14 392.20 207.98 C 389.38 203.82 385.43 198.62 381.61 195.10 C 377.79 191.57 374.23 189.27 369.29 186.83 C 364.35 184.39 357.84 182.33 351.98 180.47 C 346.11 178.62 340.67 177.01 334.12 175.70 C 327.57 174.39 318.99 173.64 312.67 172.62 C 306.35 171.61 301.72 170.11 296.18 169.61 C 290.64 169.11 284.97 169.20 279.42 169.62 C 273.88 170.04 268.24 171.66 262.91 172.12 C 257.57 172.58 252.91 172.72 247.40 172.38 C 241.90 172.03 234.64 170.84 229.86 170.05 C 225.08 169.26 222.14 169.35 218.73 167.64 C 215.32 165.92 212.40 162.22 209.43 159.75 C 206.46 157.27 203.40 155.16 200.93 152.79 C 198.47 150.42 196.27 148.16 194.63 145.51 C 193.00 142.85 191.56 140.24 191.11 136.85 C 190.67 133.47 191.61 128.73 191.95 125.19 C 192.29 121.66 191.87 118.64 193.17 115.67 C 194.48 112.70 197.29 109.83 199.78 107.40 C 202.27 104.97 204.88 103.40 208.12 101.10 C 211.36 98.81 215.50 95.41 219.22 93.63 C 222.94 91.84 226.01 91.47 230.42 90.39 C 234.84 89.31 241.18 87.91 245.70 87.15 C 250.22 86.38 253.19 85.50 257.55 85.81 C 261.90 86.12 266.90 87.40 271.83 89.00 C 276.76 90.60 282.30 93.56 287.13 95.43 C 291.95 97.29 296.18 97.74 300.77 100.20 C 305.36 102.66 309.91 106.40 314.67 110.20 C 319.43 114.00 325.33 118.19 329.32 123.02 C 333.32 127.84 335.82 133.56 338.63 139.14 C 341.45 144.72 344.38 150.50 346.24 156.50 C 348.09 162.50 349.45 169.05 349.78 175.15 C 350.10 181.25 349.75 186.23 348.20 193.08 C 346.64 199.93 343.17 209.90 340.47 216.26 C 337.78 222.61 335.18 226.42 332.03 231.19 C 328.88 235.97 326.08 241.03 321.57 244.92 C 317.07 248.81 310.20 251.97 304.99 254.53 C 299.78 257.09 295.67 258.95 290.31 260.28 C 284.95 261.60 278.90 263.00 272.84 262.46 C 266.78 261.92 259.12 259.59 253.93 257.05 C 248.74 254.52 244.82 250.75 241.71 247.26 C 238.60 243.77 236.75 240.31 235.27 236.11 C 233.79 231.91 232.55 226.43 232.82 222.05 C 233.09 217.68 235.45 213.90 236.88 209.88 C 238.32 205.86 238.76 201.51 241.45 197.93 C 244.14 194.36 248.66 190.49 253.03 188.42 C 257.40 186.34 262.67 185.98 267.68 185.47 C 272.70 184.97 278.14 184.74 283.13 185.39 C 288.13 186.03 292.75 187.70 297.64 189.37 C 302.53 191.04 307.86 193.22 312.46 195.40 C 317.06 197.57 320.76 199.94 325.22 202.43 C 329.69 204.93 335.38 207.08 339.24 210.37 C 343.09 213.67 345.93 217.81 348.37 222.21 C 350.80 226.60 352.76 231.73 353.85 236.77 C 354.94 241.80 354.81 247.12 354.90 252.42 C 354.99 257.71 355.01 263.44 354.39 268.55 C 353.77 273.67 353.00 278.06 351.17 283.11 C 349.33 288.16 346.45 294.45 343.39 298.85 C 340.33 303.25 336.76 306.01 332.81 309.51 C 328.86 313.00 324.50 316.75 319.69 319.82 C 314.87 322.89 309.79 325.92 303.94 327.92 C 298.08 329.92 291.20 331.24 284.54 331.83 C 277.88 332.43 270.09 332.52 263.97 331.49 C 257.86 330.46 253.10 327.58 247.86 325.66 C 242.62 323.74 237.20 322.45 232.55 319.97 C 227.90 317.50 224.00 314.17 219.95 310.79 C 215.89 307.42 211.74 303.81 208.22 299.73 C 204.70 295.64 201.66 291.53 198.81 286.29 C 195.97 281.05 192.87 274.10 191.16 268.29 C 189.46 262.48 189.12 256.94 188.60 251.44 C 188.08 245.95 187.92 240.05 188.05 235.32 C 188.17 230.58 188.26 227.21 189.35 223.04 C 190.44 218.87 192.37 214.67 194.57 210.30 C 196.78 205.93 198.96 200.74 202.60 196.81 C 206.24 192.89 211.76 189.60 216.43 186.75 C 221.09 183.90 225.66 181.86 230.60 179.71 C 235.54 177.55 241.15 175.67 246.07 173.85 C 251.00 172.02 255.05 170.11 260.15 168.76 C 265.25 167.41 272.10 166.72 276.68 165.76 C 281.25 164.80 282.85 163.54 287.59 163.00 C 292.34 162.46 300.07 163.55 305.15 162.52 C 310.22 161.49 313.87 158.21 318.04 156.81 C 322.21 155.41 326.69 155.18 330.18 154.11 C 333.67 153.03 335.90 151.81 338.95 150.36 C 342.01 148.91 346.09 147.49 348.51 145.41 C 350.92 143.33 352.63 140.47 353.43 137.90 C 354.24 135.33 353.44 132.49 353.35 129.99 C 353.26 127.49 353.16 125.68 352.89 122.90 C 352.62 120.11 352.37 116.48 351.72 113.28 C 351.07 110.07 350.64 106.81 348.99 103.66 C 347.35 100.50 345.00 97.37 341.84 94.35 C 338.69 91.33 333.72 87.73 330.06 85.53 C 326.39 83.33 323.81 82.54 319.84 81.15 C 315.86 79.76 311.20 78.16 306.21 77.19 C 301.22 76.22 295.03 75.54 289.90 75.36 C 284.77 75.18 280.45 74.92 275.45 76.11 C 270.46 77.30 265.97 79.84 259.92 82.49 C 253.87 85.14 244.72 88.91 239.14 92.01 C 233.57 95.11 230.89 97.05 226.45 101.08 C 222.02 105.11 216.67 111.06 212.52 116.17 C 208.37 121.28 204.98 126.21 201.57 131.72 C 198.16 137.22 194.02 142.99 192.07 149.21 C 190.12 155.42 190.68 161.93 189.88 169.01 C 189.07 176.08 187.17 184.56 187.22 191.64 C 187.26 198.73 189.03 205.10 190.16 211.51 C 191.28 217.93 192.22 224.13 193.97 230.14 C 195.72 236.14 198.41 242.21 200.67 247.55 C 202.93 252.89 205.05 256.73 207.51 262.17 C 209.96 267.62 212.82 274.98 215.41 280.24 C 218.00 285.49 220.99 289.44 223.04 293.71 C 225.09 297.98 226.16 301.84 227.71 305.86 C 229.26 309.88 230.96 313.37 232.33 317.83 C 233.70 322.28 235.29 328.06 235.92 332.58 C 236.55 337.10 235.92 340.81 236.09 344.95 C 236.27 349.09 237.32 353.72 236.98 357.41 C 236.63 361.11 235.55 364.09 234.03 367.12 C 232.51 370.15 230.37 372.97 227.84 375.61 C 225.31 378.26 221.98 380.80 218.86 383.00 C 215.74 385.21 212.04 387.39 209.12 388.86 C 206.21 390.32 205.14 391.07 201.36 391.80 C 197.59 392.52 190.72 392.69 186.47 393.21 C 182.23 393.73 179.46 394.60 175.89 394.90 C 172.33 395.20 168.49 394.99 165.10 395.01 C 161.72 395.04 159.03 395.37 155.58 395.05 C 152.13 394.74 147.78 394.25 144.41 393.10 C 141.04 391.96 138.85 389.70 135.37 388.17 C 131.88 386.64 126.82 385.25 123.51 383.92 C 120.20 382.60 117.86 381.39 115.51 380.22 C 113.17 379.04 111.57 378.43 109.45 376.88 C 107.34 375.32 104.95 372.44 102.82 370.90 C 100.68 369.35 98.76 368.02 96.62 367.61 C 94.49 367.20 91.88 367.89 90.00 368.42 C 88.12 368.96 86.73 369.14 85.36 370.82 C 84.00 372.49 82.51 376.19 81.81 378.47 C 81.11 380.76 80.59 382.26 81.17 384.53 C 81.74 386.79 84.23 389.26 85.25 392.06 C 86.27 394.86 86.27 398.38 87.31 401.33 C 88.35 404.27 89.86 407.13 91.50 409.73 C 93.15 412.34 95.93 414.84 97.17 416.94 C 98.42 419.05 98.49 420.44 98.96 422.37 C 99.44 424.31 99.08 426.41 100.02 428.57 C 100.96 430.73 103.39 433.50 104.61 435.35 C 105.83 437.19 106.37 437.30 107.36 439.62 C 108.34 441.95 110.17 447.25 110.53 449.32 C 110.89 451.39 109.97 451.04 109.51 452.04 C 109.05 453.04 108.35 454.39 107.77 455.32 C 107.18 456.26 106.60 456.84 106.00 457.63 C 105.40 458.42 104.46 459.05 104.16 460.08 C 103.85 461.10 103.65 462.68 104.18 463.77 C 104.72 464.86 106.29 465.39 107.36 466.64 C 108.43 467.89 109.39 469.77 110.60 471.27 C 111.82 472.78 112.99 474.19 114.65 475.66 C 116.32 477.14 118.52 478.54 120.57 480.13 C 122.63 481.71 124.55 483.64 126.98 485.19 C 129.40 486.73 131.01 487.78 135.13 489.39 C 139.25 491.00 146.32 493.63 151.70 494.85 C 157.07 496.07 162.22 496.62 167.38 496.73 C 172.53 496.83 177.00 496.39 182.63 495.49 C 188.26 494.59 195.49 493.48 201.18 491.33 C 206.87 489.17 210.57 486.31 216.76 482.56 C 222.96 478.80 232.22 473.41 238.35 468.80 C 244.49 464.19 248.78 459.98 253.58 454.90 C 258.37 449.82 262.86 444.28 267.12 438.32 C 271.38 432.36 275.51 425.82 279.13 419.14 C 282.75 412.46 285.82 404.60 288.84 398.24 C 291.86 391.87 294.71 387.88 297.26 380.93 C 299.82 373.98 301.96 363.37 304.18 356.53 C 306.39 349.69 308.64 345.60 310.58 339.90 C 312.52 334.20 314.01 327.74 315.80 322.35 C 317.59 316.96 318.89 312.41 321.34 307.56 C 323.79 302.71 327.47 297.18 330.50 293.27 C 333.52 289.36 335.87 287.04 339.49 284.09 C 343.11 281.14 348.49 277.72 352.21 275.58 C 355.93 273.45 358.58 271.89 361.79 271.28 C 365.01 270.67 368.47 271.03 371.50 271.94 C 374.54 272.84 377.04 275.13 380.00 276.72 C 382.95 278.32 386.91 279.26 389.23 281.52 C 391.55 283.77 392.56 286.92 393.93 290.24 C 395.29 293.56 396.91 297.86 397.43 301.45 C 397.95 305.05 398.18 307.80 397.05 311.81 C 395.92 315.83 393.53 321.47 390.63 325.55 C 387.74 329.62 383.52 332.87 379.70 336.25 C 375.87 339.63 373.14 343.10 367.70 345.82 C 362.25 348.54 353.72 351.41 347.03 352.56 C 340.34 353.71 334.09 353.43 327.58 352.70 C 321.06 351.97 314.33 350.17 307.93 348.17 C 301.53 346.17 295.20 343.66 289.19 340.69 C 283.18 337.72 276.90 334.60 271.85 330.36 C 266.79 326.11 262.47 321.19 258.85 315.20 C 255.24 309.21 252.08 300.60 250.17 294.40 C 248.25 288.19 247.83 283.16 247.35 277.97 C 246.88 272.78 246.25 268.17 247.34 263.27 C 248.43 258.37 251.65 252.96 253.89 248.56 C 256.14 244.17 257.92 240.19 260.80 236.88 C 263.67 233.58 266.61 231.10 271.12 228.72 C 275.63 226.33 283.13 223.91 287.87 222.57 C 292.61 221.23 295.63 220.70 299.57 220.67 C 303.51 220.65 307.55 221.67 311.52 222.43 C 315.49 223.19 319.40 224.21 323.39 225.24 C 327.38 226.28 331.60 227.18 335.46 228.63 C 339.33 230.08 342.71 231.94 346.59 233.94 C 350.48 235.94 355.38 239.48 358.79 240.63 C 362.19 241.78 363.92 240.45 367.01 240.83 C 370.10 241.22 374.06 242.54 377.34 242.93 C 380.61 243.31 381.71 243.54 386.67 243.15 C 391.63 242.76 403.70 241.02 407.10 240.59" fill="none" stroke="#fff" stroke-width="4.48" stroke-opacity="1" stroke-linecap="round" stroke-linejoin="round"/>
  </g>
</svg>