<?xml version="1.0" encoding="UTF-8"?>
<svg xmlns="http://www.w3.org/2000/svg" width="512" height="512" viewBox="0 0 512 512">
  <rect width="100%" height="100%" fill="#000"/>
  <g>
    <path d="M 256.00 256.00 C 253.66 257.46 246.50 261.96 241.97 264.74 C 237.44 267.53 233.93 270.84 228.82 272.70 C 223.71 274.55 216.29 276.26 211.30 275.87 C 206.31 275.48 203.36 272.62 198.87 270.37 C 194.37 268.11 188.86 265.93 184.30 262.33 C 179.75 258.73 174.95 253.24 171.53 248.74 C 168.11 244.25 165.70 240.33 163.78 235.37 C 161.86 230.41 160.25 224.53 160.03 218.98 C 159.80 213.42 161.58 206.71 162.44 202.04 C 163.30 197.37 163.99 195.46 165.18 190.95 C 166.37 186.44 167.57 180.10 169.60 174.99 C 171.62 169.87 175.55 164.70 177.34 160.25 C 179.14 155.80 178.43 152.11 180.35 148.29 C 182.28 144.47 187.18 141.33 188.92 137.36 C 190.67 133.39 190.31 128.10 190.83 124.47 C 191.34 120.85 192.00 118.95 192.00 115.63 C 192.00 112.31 191.59 107.79 190.82 104.56 C 190.05 101.34 189.26 98.52 187.37 96.30 C 185.48 94.08 182.23 92.87 179.47 91.23 C 176.71 89.59 174.26 87.54 170.83 86.44 C 167.39 85.35 162.15 84.85 158.86 84.68 C 155.57 84.52 154.74 84.62 151.08 85.45 C 147.42 86.28 141.24 87.33 136.91 89.67 C 132.58 92.01 128.59 95.95 125.10 99.51 C 121.60 103.06 119.58 106.25 115.93 111.01 C 112.27 115.77 106.58 121.96 103.18 128.09 C 99.79 134.21 96.87 141.74 95.54 147.77 C 94.21 153.79 96.06 158.10 95.21 164.22 C 94.36 170.34 90.63 177.70 90.42 184.49 C 90.22 191.29 92.62 198.40 93.98 205.00 C 95.34 211.59 97.48 217.80 98.57 224.04 C 99.67 230.29 99.31 235.86 100.55 242.47 C 101.79 249.09 102.91 257.24 106.02 263.75 C 109.14 270.26 115.47 276.08 119.24 281.52 C 123.00 286.96 124.84 291.28 128.61 296.36 C 132.37 301.45 137.20 307.25 141.83 312.01 C 146.46 316.77 151.72 321.06 156.38 324.90 C 161.03 328.74 164.93 331.37 169.75 335.07 C 174.56 338.77 180.41 342.91 185.27 347.11 C 190.12 351.30 195.35 356.65 198.89 360.25 C 202.44 363.85 203.35 365.34 206.53 368.70 C 209.71 372.06 214.92 376.75 217.95 380.43 C 220.99 384.10 222.81 387.50 224.72 390.74 C 226.63 393.98 228.44 396.60 229.41 399.88 C 230.38 403.15 229.65 407.20 230.55 410.39 C 231.44 413.58 233.25 416.47 234.75 419.02 C 236.25 421.56 237.80 422.94 239.54 425.64 C 241.27 428.35 242.92 432.41 245.14 435.25 C 247.36 438.09 250.18 440.66 252.87 442.70 C 255.55 444.74 257.79 445.42 261.23 447.49 C 264.67 449.57 269.41 453.13 273.51 455.15 C 277.61 457.16 281.71 458.71 285.81 459.57 C 289.90 460.43 293.71 460.51 298.07 460.31 C 302.44 460.11 306.97 459.79 312.00 458.38 C 317.03 456.97 323.73 453.66 328.24 451.86 C 332.75 450.06 334.53 449.69 339.06 447.56 C 343.58 445.42 350.19 441.91 355.40 439.06 C 360.60 436.20 365.77 433.40 370.28 430.44 C 374.79 427.48 378.59 424.17 382.46 421.32 C 386.33 418.47 390.03 415.54 393.48 413.33 C 396.94 411.13 399.88 408.93 403.19 408.09 C 406.50 407.24 410.36 408.85 413.36 408.26 C 416.36 407.66 418.87 405.59 421.18 404.52 C 423.49 403.44 424.44 402.74 427.22 401.81 C 430.01 400.87 435.15 399.29 437.88 398.94 C 440.61 398.59 441.58 399.82 443.60 399.71 C 445.63 399.60 447.82 399.35 450.01 398.27 C 452.19 397.19 454.40 395.27 456.72 393.20 C 459.04 391.13 462.15 388.92 463.94 385.85 C 465.72 382.78 465.47 378.87 467.41 374.78 C 469.35 370.70 473.34 365.62 475.59 361.35 C 477.85 357.07 479.11 353.66 480.93 349.13 C 482.75 344.60 484.60 338.95 486.52 334.15 C 488.44 329.36 491.13 324.66 492.44 320.36 C 493.76 316.06 493.35 312.00 494.40 308.37 C 495.44 304.75 497.58 301.62 498.71 298.62 C 499.85 295.62 499.81 292.46 501.20 290.38 C 502.58 288.29 505.29 286.76 507.03 286.09 C 508.76 285.43 516.52 286.90 511.58 286.36 C 506.65 285.83 487.06 284.32 477.40 282.87 C 467.74 281.42 462.83 279.82 453.62 277.69 C 444.41 275.55 431.42 272.87 422.12 270.07 C 412.82 267.27 405.58 263.67 397.81 260.87 C 390.04 258.07 383.37 256.58 375.53 253.27 C 367.68 249.96 358.23 245.23 350.72 241.03 C 343.22 236.83 337.12 231.38 330.48 228.08 C 323.83 224.78 316.62 222.99 310.85 221.22 C 305.08 219.46 301.65 218.92 295.87 217.49 C 290.10 216.06 282.51 214.57 276.21 212.64 C 269.91 210.72 264.13 207.69 258.08 205.92 C 252.04 204.15 246.10 202.86 239.96 202.04 C 233.82 201.22 226.85 200.72 221.26 201.01 C 215.68 201.30 210.88 202.62 206.45 203.79 C 202.02 204.96 199.20 205.93 194.69 208.03 C 190.18 210.13 184.32 213.08 179.40 216.40 C 174.48 219.71 168.99 224.84 165.19 227.92 C 161.39 231.00 159.68 231.86 156.59 234.87 C 153.50 237.88 150.50 241.85 146.64 245.99 C 142.78 250.14 137.11 255.79 133.42 259.73 C 129.74 263.68 127.64 266.33 124.53 269.64 C 121.43 272.95 117.80 276.74 114.78 279.59 C 111.77 282.43 109.22 284.94 106.46 286.72 C 103.71 288.49 101.59 289.36 98.26 290.26 C 94.92 291.16 89.97 292.24 86.44 292.11 C 82.91 291.98 79.75 290.04 77.09 289.47 C 74.44 288.91 73.58 290.14 70.52 288.72 C 67.47 287.31 62.18 283.70 58.77 281.00 C 55.35 278.31 52.44 275.04 50.05 272.55 C 47.67 270.07 46.31 267.97 44.45 266.09 C 42.60 264.21 40.86 263.26 38.92 261.29 C 36.98 259.32 34.37 256.38 32.81 254.27 C 31.25 252.16 31.25 250.08 29.56 248.64 C 27.87 247.19 24.75 245.95 22.66 245.60 C 20.56 245.26 19.26 245.72 16.99 246.55 C 14.71 247.38 10.99 249.10 9.02 250.59 C 7.06 252.09 6.15 253.84 5.19 255.53 C 4.23 257.21 2.06 258.32 3.26 260.69 C 4.47 263.06 6.70 267.69 12.42 269.75 C 18.14 271.81 28.11 271.71 37.59 273.03 C 47.07 274.36 59.02 275.38 69.30 277.71 C 79.58 280.04 90.54 284.79 99.25 287.01 C 107.95 289.22 113.55 289.54 121.53 291.00 C 129.50 292.47 138.83 294.13 147.10 295.80 C 155.36 297.48 164.13 298.97 171.12 301.03 C 178.11 303.10 182.94 305.44 189.05 308.19 C 195.16 310.94 201.19 315.24 207.79 317.54 C 214.39 319.84 222.67 320.67 228.63 321.97 C 234.59 323.26 237.60 324.71 243.55 325.32 C 249.49 325.94 258.14 325.41 264.28 325.67 C 270.41 325.93 275.21 327.50 280.35 326.88 C 285.48 326.26 289.98 324.30 295.07 321.95 C 300.15 319.61 305.89 316.91 310.85 312.82 C 315.80 308.73 320.92 301.76 324.79 297.40 C 328.67 293.04 331.00 291.41 334.09 286.65 C 337.18 281.90 340.12 273.71 343.35 268.88 C 346.58 264.04 350.49 261.22 353.48 257.65 C 356.47 254.08 358.59 250.73 361.31 247.48 C 364.03 244.22 367.02 241.57 369.81 238.12 C 372.59 234.66 375.47 229.54 378.02 226.75 C 380.57 223.96 382.20 222.99 385.10 221.38 C 388.01 219.77 391.87 218.93 395.46 217.09 C 399.06 215.24 403.50 212.61 406.65 210.32 C 409.79 208.03 412.40 205.56 414.34 203.36 C 416.28 201.16 416.66 199.33 418.31 197.13 C 419.95 194.92 422.28 192.88 424.19 190.11 C 426.10 187.33 428.44 183.79 429.76 180.48 C 431.07 177.17 431.38 174.11 432.11 170.25 C 432.83 166.38 433.87 161.68 434.09 157.31 C 434.30 152.94 434.21 148.06 433.37 144.02 C 432.53 139.99 431.12 137.21 429.05 133.10 C 426.98 128.98 423.46 123.64 420.93 119.35 C 418.40 115.07 416.11 110.69 413.87 107.38 C 411.63 104.06 410.10 102.82 407.49 99.45 C 404.88 96.07 400.83 90.99 398.21 87.12 C 395.59 83.26 393.86 79.40 391.79 76.25 C 389.71 73.10 387.28 71.49 385.75 68.24 C 384.22 64.99 384.26 59.94 382.60 56.76 C 380.94 53.58 377.03 51.36 375.80 49.15 C 374.56 46.95 375.39 45.80 375.17 43.53 C 374.94 41.26 374.77 37.36 374.45 35.54 C 374.14 33.71 373.41 33.69 373.28 32.56 C 373.14 31.44 373.00 29.89 373.65 28.77 C 374.30 27.65 374.93 26.42 377.16 25.84 C 379.40 25.25 384.65 25.39 387.06 25.24 C 389.48 25.09 389.49 24.71 391.64 24.94 C 393.79 25.16 397.05 25.29 399.97 26.58 C 402.88 27.87 406.13 30.68 409.12 32.67 C 412.10 34.66 414.74 36.31 417.88 38.52 C 421.02 40.73 424.80 43.76 427.96 45.95 C 431.11 48.15 434.12 50.16 436.78 51.68 C 439.44 53.21 441.25 53.52 443.91 55.09 C 446.58 56.65 449.97 59.33 452.78 61.08 C 455.60 62.83 458.41 64.62 460.80 65.59 C 463.18 66.56 465.39 66.21 467.07 66.91 C 468.75 67.60 469.77 68.95 470.86 69.74 C 471.95 70.52 472.74 71.85 473.62 71.61 C 474.50 71.37 475.41 68.91 476.15 68.32 C 476.89 67.73 477.56 68.39 478.06 68.06 C 478.55 67.73 478.35 66.25 479.11 66.34 C 479.86 66.44 481.80 68.53 482.57 68.63 C 483.34 68.73 482.58 66.32 483.73 66.94 C 484.87 67.57 487.49 70.34 489.45 72.39 C 491.40 74.43 493.53 77.04 495.44 79.22 C 497.34 81.40 499.08 81.54 500.85 85.48 C 502.62 89.41 504.21 97.43 506.06 102.81 C 507.92 108.18 515.35 113.81 511.98 117.74 C 508.60 121.67 495.59 123.15 485.81 126.38 C 476.03 129.60 463.60 132.80 453.30 137.10 C 443.00 141.39 432.17 147.73 424.02 152.14 C 415.87 156.54 411.77 158.71 404.42 163.51 C 397.07 168.31 387.89 174.93 379.94 180.94 C 372.00 186.95 363.40 194.29 356.75 199.57 C 350.11 204.85 345.69 207.47 340.09 212.64 C 334.49 217.81 328.74 224.97 323.18 230.58 C 317.61 236.19 311.67 241.79 306.70 246.30 C 301.74 250.82 298.03 252.97 293.38 257.69 C 288.73 262.42 283.50 269.32 278.80 274.66 C 274.10 280.01 269.29 285.52 265.18 289.75 C 261.06 293.97 258.35 296.45 254.12 300.02 C 249.89 303.59 244.36 307.62 239.79 311.17 C 235.23 314.73 231.30 318.02 226.72 321.34 C 222.14 324.67 216.80 328.71 212.32 331.12 C 207.84 333.54 204.01 334.40 199.84 335.84 C 195.67 337.29 191.77 338.63 187.27 339.81 C 182.78 341.00 176.53 341.74 172.89 342.95 C 169.25 344.16 168.14 345.24 165.44 347.07 C 162.74 348.90 159.39 351.18 156.68 353.92 C 153.97 356.65 151.01 360.91 149.18 363.48 C 147.35 366.05 146.95 366.66 145.69 369.35 C 144.43 372.03 142.58 376.06 141.62 379.59 C 140.66 383.12 140.33 387.10 139.92 390.52 C 139.52 393.94 138.52 396.50 139.19 400.12 C 139.85 403.75 141.95 408.69 143.90 412.27 C 145.85 415.84 148.25 418.89 150.89 421.56 C 153.53 424.23 155.96 426.15 159.73 428.29 C 163.51 430.44 168.22 432.30 173.53 434.43 C 178.84 436.56 185.95 439.95 191.57 441.07 C 197.20 442.18 201.04 441.60 207.27 441.12 C 213.51 440.65 221.88 439.86 228.99 438.21 C 236.09 436.57 243.17 433.43 249.88 431.23 C 256.59 429.03 262.84 428.32 269.25 424.99 C 275.67 421.66 282.53 415.99 288.36 411.26 C 294.20 406.53 299.39 400.62 304.26 396.61 C 309.12 392.60 313.09 390.77 317.54 387.19 C 321.99 383.60 326.71 379.57 330.97 375.09 C 335.22 370.62 339.24 364.39 343.06 360.34 C 346.89 356.29 350.36 354.89 353.92 350.80 C 357.48 346.70 360.51 340.28 364.44 335.78 C 368.37 331.28 373.43 327.85 377.48 323.77 C 381.54 319.69 385.68 314.85 388.78 311.28 C 391.88 307.72 393.46 305.97 396.08 302.39 C 398.70 298.81 401.57 293.99 404.48 289.78 C 407.39 285.58 410.96 281.18 413.55 277.16 C 416.14 273.13 418.13 269.50 420.01 265.65 C 421.90 261.80 423.49 258.10 424.86 254.04 C 426.23 249.98 427.42 245.37 428.23 241.27 C 429.05 237.16 429.59 233.40 429.75 229.42 C 429.90 225.44 429.43 222.04 429.17 217.39 C 428.91 212.73 428.37 205.88 428.19 201.48 C 428.01 197.07 428.16 194.97 428.08 190.98 C 428.00 186.99 427.79 181.33 427.69 177.53 C 427.60 173.73 427.19 170.90 427.49 168.18 C 427.79 165.46 428.26 164.01 429.49 161.21 C 430.72 158.41 433.44 154.09 434.88 151.39 C 436.33 148.69 437.30 147.66 438.16 145.03 C 439.02 142.40 438.97 138.08 440.06 135.61 C 441.15 133.13 443.11 131.28 444.70 130.16 C 446.29 129.04 447.68 128.06 449.59 128.89 C 451.50 129.72 454.21 132.89 456.17 135.11 C 458.13 137.34 459.57 139.02 461.36 142.22 C 463.15 145.43 465.37 149.80 466.89 154.34 C 468.42 158.89 469.79 163.83 470.51 169.49 C 471.23 175.16 471.51 181.29 471.20 188.33 C 470.90 195.36 470.32 204.92 468.69 211.70 C 467.05 218.48 464.39 222.49 461.37 229.00 C 458.36 235.51 455.14 244.14 450.59 250.77 C 446.05 257.40 439.99 263.21 434.10 268.77 C 428.21 274.34 421.57 280.67 415.28 284.17 C 408.99 287.66 403.61 288.23 396.37 289.74 C 389.14 291.26 380.40 293.21 371.85 293.23 C 363.30 293.26 352.74 291.46 345.06 289.88 C 337.39 288.31 332.38 286.89 325.80 283.79 C 319.23 280.68 311.81 276.74 305.63 271.25 C 299.44 265.76 292.68 256.33 288.70 250.82 C 284.73 245.31 283.89 243.20 281.76 238.18 C 279.64 233.15 277.59 226.56 275.95 220.66 C 274.30 214.75 272.76 207.84 271.90 202.77 C 271.04 197.69 270.76 194.82 270.81 190.19 C 270.86 185.56 272.16 180.08 272.19 174.97 C 272.22 169.86 271.66 164.14 270.98 159.52 C 270.30 154.90 268.83 151.46 268.12 147.24 C 267.40 143.02 267.80 138.43 266.68 134.20 C 265.57 129.98 262.86 125.53 261.40 121.90 C 259.95 118.27 259.01 116.21 257.95 112.41 C 256.89 108.62 255.54 103.27 255.03 99.14 C 254.51 95.01 254.30 91.18 254.87 87.64 C 255.43 84.11 257.61 81.51 258.41 77.94 C 259.20 74.37 258.72 69.21 259.62 66.25 C 260.52 63.28 261.99 62.60 263.82 60.16 C 265.64 57.72 268.06 53.75 270.56 51.61 C 273.06 49.48 275.72 48.62 278.84 47.36 C 281.95 46.11 286.02 45.04 289.24 44.08 C 292.47 43.12 294.68 42.58 298.20 41.58 C 301.72 40.59 306.23 38.70 310.38 38.11 C 314.53 37.51 318.97 38.24 323.10 38.04 C 327.23 37.83 331.51 36.99 335.18 36.88 C 338.84 36.77 341.62 37.82 345.10 37.40 C 348.58 36.97 352.75 34.98 356.06 34.34 C 359.37 33.70 362.70 33.72 364.97 33.55 C 367.24 33.38 367.70 34.03 369.68 33.31 C 371.66 32.58 374.86 30.50 376.84 29.22 C 378.82 27.94 380.71 26.84 381.55 25.63 C 382.39 24.42 381.80 23.29 381.89 21.96 C 381.98 20.62 382.38 19.55 382.08 17.64 C 381.78 15.73 381.42 12.41 380.08 10.48 C 378.75 8.55 376.91 7.06 374.08 6.06 C 371.25 5.07 366.86 5.48 363.11 4.50 C 359.35 3.52 355.18 -1.38 351.56 0.18 C 347.93 1.75 344.78 6.29 341.36 13.91 C 337.94 21.53 333.72 35.05 331.02 45.90 C 328.33 56.75 326.94 69.56 325.21 79.01 C 323.48 88.47 321.67 94.13 320.64 102.63 C 319.61 111.12 318.99 121.95 319.04 129.98 C 319.09 138.02 319.48 144.59 320.95 150.84 C 322.42 157.08 325.44 161.86 327.86 167.46 C 330.28 173.06 332.51 179.61 335.49 184.44 C 338.47 189.27 342.22 193.67 345.72 196.45 C 349.23 199.23 352.07 199.26 356.52 201.13 C 360.97 203.01 367.40 205.74 372.44 207.70 C 377.48 209.66 382.97 212.46 386.78 212.88 C 390.60 213.30 392.68 211.52 395.34 210.21 C 398.01 208.90 400.61 207.75 402.76 205.01 C 404.91 202.26 406.76 197.02 408.27 193.73 C 409.78 190.45 410.98 188.65 411.81 185.30 C 412.64 181.95 413.25 177.38 413.23 173.63 C 413.21 169.89 413.19 167.11 411.70 162.81 C 410.22 158.50 407.01 151.90 404.30 147.81 C 401.60 143.73 399.37 142.38 395.46 138.30 C 391.55 134.21 386.32 126.74 380.85 123.27 C 375.37 119.81 368.23 119.31 362.62 117.50 C 357.00 115.70 353.49 113.48 347.15 112.43 C 340.81 111.39 332.41 111.16 324.58 111.25 C 316.74 111.34 307.31 111.52 300.16 112.99 C 293.00 114.46 288.06 117.07 281.66 120.06 C 275.26 123.04 267.94 125.89 261.76 130.90 C 255.57 135.91 249.00 143.98 244.54 150.11 C 240.07 156.24 237.61 161.02 234.95 167.69 C 232.30 174.36 229.99 182.47 228.62 190.12 C 227.25 197.78 226.84 206.75 226.73 213.61 C 226.63 220.48 226.46 225.10 227.99 231.32 C 229.51 237.54 232.66 245.12 235.88 250.92 C 239.11 256.71 242.98 262.26 247.31 266.08 C 251.65 269.90 256.63 271.28 261.88 273.83 C 267.13 276.38 273.16 279.71 278.82 281.36 C 284.49 283.01 290.80 283.15 295.89 283.71 C 300.97 284.27 304.38 284.66 309.33 284.73 C 314.28 284.79 319.91 284.04 325.59 284.11 C 331.26 284.17 338.81 284.94 343.38 285.12 C 347.95 285.30 349.53 284.48 353.01 285.18 C 356.49 285.87 360.50 287.72 364.26 289.29 C 368.01 290.86 372.05 293.07 375.54 294.59 C 379.02 296.11 381.97 296.61 385.17 298.39 C 388.38 300.17 391.38 302.31 394.77 305.27 C 398.17 308.22 402.67 313.46 405.53 316.13 C 408.40 318.79 410.25 319.32 411.95 321.27 C 413.64 323.21 414.42 324.74 415.69 327.79 C 416.96 330.83 418.70 335.30 419.56 339.56 C 420.42 343.81 420.78 349.18 420.84 353.29 C 420.89 357.41 420.45 360.13 419.89 364.24 C 419.32 368.35 418.53 374.02 417.45 377.97 C 416.36 381.92 414.79 385.07 413.38 387.95 C 411.98 390.83 410.49 392.01 409.01 395.25 C 407.52 398.48 407.76 403.70 404.47 407.35 C 401.17 411.01 393.63 414.61 389.22 417.17 C 384.81 419.73 382.33 420.77 378.04 422.73 C 373.74 424.68 369.03 427.27 363.44 428.92 C 357.84 430.57 350.18 432.09 344.48 432.62 C 338.78 433.15 335.37 432.99 329.26 432.09 C 323.15 431.20 315.22 429.74 307.81 427.25 C 300.40 424.76 291.27 420.37 284.79 417.15 C 278.31 413.94 275.08 411.14 268.95 407.94 C 262.81 404.73 255.13 401.06 247.98 397.93 C 240.83 394.79 232.46 392.13 226.04 389.13 C 219.62 386.12 214.42 383.18 209.46 379.89 C 204.49 376.60 200.84 373.32 196.27 369.38 C 191.70 365.45 186.53 359.18 182.02 356.29 C 177.52 353.40 173.23 353.19 169.25 352.05 C 165.26 350.92 162.29 349.97 158.12 349.50 C 153.94 349.03 147.74 348.49 144.21 349.23 C 140.67 349.97 139.73 352.27 136.91 353.94 C 134.08 355.62 129.67 356.38 127.26 359.27 C 124.86 362.16 123.02 367.69 122.48 371.27 C 121.94 374.86 123.29 377.54 124.02 380.76 C 124.75 383.99 125.15 386.85 126.85 390.63 C 128.56 394.42 130.87 399.55 134.26 403.48 C 137.64 407.41 143.43 411.25 147.13 414.21 C 150.84 417.17 151.72 418.92 156.50 421.25 C 161.29 423.58 169.83 426.77 175.86 428.17 C 181.89 429.57 187.15 429.58 192.69 429.66 C 198.24 429.74 202.40 429.85 209.12 428.64 C 215.84 427.43 225.94 425.24 233.03 422.41 C 240.11 419.58 245.63 414.81 251.62 411.65 C 257.61 408.50 263.13 407.10 268.96 403.49 C 274.80 399.87 281.35 395.19 286.63 389.95 C 291.90 384.71 296.93 377.78 300.62 372.05 C 304.31 366.33 305.34 361.84 308.78 355.59 C 312.22 349.33 318.03 341.18 321.25 334.51 C 324.48 327.84 325.85 321.20 328.14 315.56 C 330.43 309.93 332.11 305.99 335.02 300.71 C 337.92 295.42 341.80 288.87 345.58 283.85 C 349.36 278.83 354.29 274.40 357.69 270.58 C 361.10 266.76 362.86 264.21 366.00 260.95 C 369.13 257.69 372.77 253.72 376.51 251.03 C 380.25 248.35 384.86 246.46 388.43 244.84 C 392.01 243.22 394.42 241.77 397.95 241.32 C 401.48 240.87 405.32 241.74 409.60 242.13 C 413.87 242.51 420.15 243.75 423.59 243.62 C 427.03 243.50 427.41 242.31 430.24 241.38 C 433.07 240.45 437.77 239.37 440.55 238.04 C 443.33 236.72 444.66 234.84 446.91 233.43 C 449.16 232.01 452.25 230.94 454.05 229.54 C 455.84 228.14 456.72 227.12 457.68 225.04 C 458.64 222.96 459.20 220.62 459.82 217.08 C 460.45 213.54 461.15 208.19 461.44 203.80 C 461.73 199.41 462.28 195.42 461.56 190.76 C 460.84 186.09 460.28 180.35 457.12 175.80 C 453.96 171.26 447.02 167.14 442.60 163.47 C 438.18 159.81 436.18 156.92 430.59 153.81 C 425.01 150.70 416.40 147.28 409.10 144.82 C 401.79 142.36 394.01 139.99 386.76 139.04 C 379.51 138.08 373.54 137.27 365.61 139.08 C 357.69 140.89 347.06 145.67 339.21 149.91 C 331.35 154.15 324.55 159.74 318.47 164.53 C 312.39 169.32 307.63 173.23 302.73 178.67 C 297.83 184.10 293.95 191.40 289.08 197.14 C 284.21 202.89 278.00 208.09 273.53 213.12 C 269.06 218.14 266.29 222.00 262.25 227.30 C 258.21 232.60 253.40 239.83 249.28 244.93 C 245.17 250.02 241.46 253.89 237.57 257.86 C 233.68 261.84 230.16 265.00 225.95 268.76 C 221.73 272.52 217.29 276.69 212.30 280.42 C 207.30 284.16 200.87 288.71 195.97 291.15 C 191.06 293.59 187.21 293.81 182.86 295.06 C 178.51 296.31 174.27 298.07 169.89 298.66 C 165.50 299.26 160.50 299.01 156.56 298.63 C 152.62 298.25 149.90 298.00 146.24 296.38 C 142.58 294.77 138.22 292.20 134.60 288.95 C 130.97 285.70 127.42 281.06 124.50 276.89 C 121.59 272.73 119.43 268.17 117.10 263.96 C 114.77 259.76 111.72 256.65 110.54 251.66 C 109.37 246.67 109.41 239.46 110.06 234.01 C 110.72 228.56 113.14 223.87 114.46 218.96 C 115.79 214.05 115.20 209.07 117.99 204.55 C 120.79 200.03 126.28 196.04 131.22 191.86 C 136.16 187.68 142.05 182.64 147.66 179.47 C 153.27 176.29 158.44 174.22 164.89 172.82 C 171.33 171.42 179.10 170.99 186.34 171.06 C 193.57 171.13 201.71 171.73 208.31 173.24 C 214.90 174.75 219.47 177.12 225.90 180.13 C 232.33 183.15 240.44 186.93 246.88 191.32 C 253.33 195.71 259.13 201.93 264.57 206.47 C 270.01 211.01 275.12 214.06 279.52 218.58 C 283.91 223.09 287.07 228.85 290.95 233.55 C 294.84 238.24 299.56 243.20 302.82 246.73 C 306.09 250.25 306.96 251.73 310.56 254.72 C 314.17 257.71 319.68 261.96 324.43 264.65 C 329.18 267.35 334.28 269.46 339.08 270.88 C 343.87 272.30 348.83 272.71 353.19 273.19 C 357.55 273.67 361.35 274.26 365.25 273.77 C 369.14 273.28 373.36 271.79 376.56 270.27 C 379.75 268.76 381.33 266.99 384.42 264.70 C 387.52 262.41 392.26 259.60 395.14 256.53 C 398.03 253.46 399.86 249.73 401.75 246.29 C 403.65 242.85 405.22 239.54 406.51 235.90 C 407.80 232.25 408.56 228.35 409.48 224.44 C 410.41 220.53 411.39 216.67 412.07 212.44 C 412.75 208.21 413.31 203.57 413.57 199.06 C 413.83 194.54 414.25 190.41 413.63 185.33 C 413.01 180.26 410.75 173.76 409.84 168.63 C 408.92 163.50 408.55 158.24 408.15 154.57 C 407.75 150.91 407.83 149.91 407.43 146.64 C 407.02 143.36 406.20 138.40 405.72 134.91 C 405.24 131.42 404.38 128.30 404.54 125.72 C 404.69 123.13 405.73 121.67 406.63 119.39 C 407.53 117.10 409.21 114.67 409.95 111.99 C 410.69 109.30 410.74 105.48 411.07 103.28 C 411.41 101.08 411.43 100.30 411.98 98.79 C 412.53 97.27 413.84 95.98 414.36 94.20 C 414.89 92.43 414.53 89.92 415.13 88.13 C 415.74 86.34 417.14 85.40 418.02 83.45 C 418.90 81.51 420.16 79.18 420.42 76.44 C 420.68 73.71 420.32 70.05 419.58 67.03 C 418.84 64.02 417.17 61.25 415.99 58.36 C 414.81 55.47 413.70 51.87 412.51 49.67 C 411.32 47.48 410.05 46.98 408.86 45.19 C 407.67 43.40 407.26 40.86 405.37 38.94 C 403.48 37.02 400.50 35.97 397.52 33.68 C 394.55 31.40 390.42 27.69 387.52 25.21 C 384.62 22.73 383.54 20.77 380.10 18.83 C 376.67 16.88 371.80 14.83 366.91 13.53 C 362.02 12.23 355.35 11.80 350.77 11.03 C 346.19 10.26 344.16 9.33 339.43 8.92 C 334.71 8.51 328.62 8.16 322.40 8.56 C 316.19 8.96 307.95 10.53 302.13 11.31 C 296.31 12.10 293.30 12.55 287.46 13.28 C 281.61 14.00 273.83 14.34 267.05 15.65 C 260.27 16.97 252.38 19.58 246.77 21.19 C 241.16 22.80 237.76 24.22 233.39 25.33 C 229.03 26.43 224.66 26.82 220.55 27.81 C 216.44 28.80 212.40 31.17 208.74 31.24 C 205.08 31.32 201.43 29.08 198.60 28.28 C 195.77 27.47 194.13 27.21 191.74 26.43 C 189.35 25.64 186.29 24.69 184.26 23.57 C 182.24 22.45 181.23 20.40 179.57 19.69 C 177.91 18.98 176.07 19.84 174.30 19.31 C 172.53 18.78 170.92 16.81 168.93 16.51 C 166.94 16.20 164.89 17.01 162.35 17.48 C 159.81 17.95 156.91 18.23 153.68 19.33 C 150.44 20.42 146.55 22.06 142.94 24.05 C 139.32 26.04 135.48 29.01 131.98 31.25 C 128.48 33.50 125.83 34.95 121.94 37.51 C 118.05 40.06 112.89 44.16 108.65 46.58 C 104.41 49.00 99.67 50.33 96.50 52.04 C 93.32 53.75 91.84 56.02 89.61 56.85 C 87.38 57.68 85.58 56.26 83.11 57.02 C 80.64 57.78 77.02 60.48 74.77 61.43 C 72.52 62.39 71.18 62.67 69.60 62.74 C 68.01 62.80 66.88 61.73 65.25 61.83 C 63.61 61.93 61.12 63.29 59.79 63.35 C 58.46 63.41 58.33 62.88 57.28 62.18 C 56.23 61.47 54.37 59.98 53.49 59.13 C 52.61 58.28 52.49 57.84 52.01 57.08 C 51.53 56.32 50.25 55.73 50.61 54.55 C 50.96 53.38 52.77 51.98 54.14 50.02 C 55.50 48.05 56.57 45.08 58.79 42.76 C 61.02 40.44 64.80 37.78 67.49 36.09 C 70.18 34.41 71.06 34.44 74.91 32.66 C 78.76 30.88 86.00 27.55 90.59 25.40 C 95.18 23.24 98.13 21.44 102.44 19.73 C 106.75 18.02 111.85 16.78 116.46 15.13 C 121.07 13.48 125.87 11.09 130.10 9.82 C 134.33 8.55 138.49 8.83 141.82 7.52 C 145.15 6.22 147.31 -0.22 150.08 1.98 C 152.86 4.19 156.18 12.46 158.47 20.75 C 160.75 29.04 162.02 42.36 163.81 51.74 C 165.59 61.11 166.91 67.89 169.16 77.00 C 171.42 86.10 175.13 96.69 177.34 106.38 C 179.54 116.07 181.56 126.81 182.40 135.15 C 183.24 143.49 182.10 148.89 182.36 156.44 C 182.62 163.99 184.02 172.20 183.94 180.45 C 183.85 188.69 182.62 198.91 181.83 205.91 C 181.05 212.91 180.75 217.28 179.24 222.44 C 177.73 227.60 175.74 231.76 172.76 236.88 C 169.79 241.99 164.63 248.61 161.38 253.13 C 158.13 257.65 156.60 260.70 153.29 264.00 C 149.97 267.29 145.27 270.77 141.48 272.89 C 137.69 275.02 133.77 275.94 130.53 276.75 C 127.29 277.56 125.51 278.23 122.04 277.75 C 118.56 277.28 113.07 276.06 109.67 273.93 C 106.27 271.79 104.03 267.81 101.62 264.96 C 99.21 262.11 97.15 260.40 95.21 256.84 C 93.27 253.27 90.71 248.23 89.97 243.57 C 89.23 238.91 90.40 234.15 90.78 228.88 C 91.16 223.61 90.65 217.43 92.24 211.94 C 93.84 206.46 97.33 201.67 100.34 195.98 C 103.36 190.28 105.88 183.19 110.36 177.78 C 114.84 172.37 122.02 167.18 127.22 163.53 C 132.43 159.87 135.76 158.11 141.61 155.83 C 147.46 153.54 154.96 150.94 162.34 149.80 C 169.73 148.67 178.78 148.49 185.91 149.04 C 193.04 149.59 198.11 151.29 205.12 153.10 C 212.14 154.90 221.39 156.05 228.00 159.87 C 234.60 163.70 240.05 170.86 244.77 176.04 C 249.50 181.23 252.85 184.95 256.34 191.00 C 259.83 197.05 263.52 205.78 265.70 212.36 C 267.87 218.93 268.73 224.43 269.40 230.46 C 270.07 236.49 271.32 242.87 269.72 248.55 C 268.13 254.23 263.29 259.31 259.82 264.54 C 256.36 269.77 252.63 276.40 248.93 279.92 C 245.24 283.45 242.62 284.54 237.67 285.68 C 232.72 286.82 224.91 287.10 219.23 286.75 C 213.56 286.39 208.29 285.21 203.61 283.55 C 198.93 281.89 195.71 279.81 191.15 276.77 C 186.59 273.73 180.95 269.40 176.24 265.29 C 171.53 261.19 166.22 256.06 162.90 252.12 C 159.59 248.19 158.63 245.43 156.35 241.67 C 154.07 237.92 151.00 234.10 149.22 229.59 C 147.44 225.08 146.83 218.91 145.69 214.64 C 144.56 210.36 144.04 207.47 142.43 203.93 C 140.81 200.38 138.64 196.67 136.00 193.38 C 133.37 190.09 129.63 186.41 126.62 184.18 C 123.62 181.94 120.70 181.36 118.00 179.97 C 115.30 178.58 113.53 177.13 110.42 175.86 C 107.31 174.59 102.63 172.55 99.34 172.36 C 96.06 172.16 93.30 173.55 90.72 174.69 C 88.15 175.84 86.39 177.22 83.87 179.21 C 81.34 181.20 78.27 183.86 75.56 186.63 C 72.85 189.40 69.69 192.86 67.59 195.83 C 65.49 198.79 64.27 200.02 62.97 204.42 C 61.66 208.83 60.00 215.81 59.74 222.28 C 59.48 228.75 60.45 237.14 61.41 243.23 C 62.37 249.32 62.43 253.13 65.50 258.82 C 68.56 264.50 74.92 271.38 79.80 277.34 C 84.68 283.30 89.57 290.38 94.78 294.58 C 99.99 298.79 104.18 299.71 111.05 302.57 C 117.91 305.44 127.46 310.39 135.97 311.78 C 144.49 313.17 154.67 312.14 162.16 310.93 C 169.65 309.72 174.40 307.38 180.92 304.52 C 187.45 301.67 194.56 298.14 201.30 293.78 C 208.03 289.43 215.92 282.75 221.35 278.40 C 226.77 274.06 229.08 272.01 233.85 267.73 C 238.61 263.44 244.76 257.26 249.94 252.70 C 255.13 248.15 260.82 244.35 264.95 240.38 C 269.08 236.41 270.43 232.54 274.70 228.90 C 278.98 225.26 285.52 221.73 290.61 218.54 C 295.69 215.36 301.07 211.69 305.24 209.77 C 309.41 207.85 311.43 208.45 315.61 207.01 C 319.78 205.57 325.86 203.60 330.27 201.15 C 334.68 198.69 337.96 195.42 342.04 192.30 C 346.13 189.18 351.21 184.88 354.79 182.44 C 358.37 180.00 360.28 180.15 363.52 177.64 C 366.77 175.13 371.58 171.21 374.27 167.40 C 376.95 163.58 378.49 158.12 379.61 154.77 C 380.73 151.42 380.57 150.63 380.99 147.30 C 381.40 143.97 382.21 138.80 382.11 134.79 C 382.02 130.78 381.45 126.60 380.41 123.24 C 379.38 119.89 378.01 118.29 375.92 114.65 C 373.83 111.01 370.83 105.25 367.87 101.39 C 364.92 97.53 361.93 94.45 358.21 91.50 C 354.48 88.55 350.07 86.17 345.52 83.67 C 340.97 81.17 336.50 78.54 330.92 76.52 C 325.34 74.50 317.56 72.74 312.03 71.55 C 306.51 70.36 303.39 69.55 297.79 69.37 C 292.19 69.20 284.88 69.25 278.43 70.48 C 271.98 71.72 265.00 74.99 259.09 76.80 C 253.18 78.62 248.38 79.40 242.99 81.36 C 237.59 83.33 232.34 85.57 226.73 88.57 C 221.12 91.57 214.67 95.72 209.30 99.35 C 203.92 102.97 199.64 106.28 194.48 110.31 C 189.32 114.33 182.77 118.43 178.35 123.51 C 173.93 128.58 170.72 135.12 167.96 140.74 C 165.20 146.36 163.96 150.68 161.78 157.23 C 159.60 163.77 156.10 172.63 154.87 180.00 C 153.63 187.38 153.75 194.76 154.37 201.49 C 154.99 208.21 156.74 213.63 158.58 220.37 C 160.42 227.10 162.41 235.00 165.40 241.90 C 168.40 248.80 173.23 256.34 176.56 261.78 C 179.88 267.22 181.39 270.06 185.37 274.54 C 189.35 279.01 194.74 284.45 200.45 288.63 C 206.16 292.81 213.08 296.87 219.61 299.61 C 226.14 302.35 233.63 303.85 239.63 305.07 C 245.63 306.28 249.71 306.97 255.61 306.90 C 261.52 306.83 268.93 306.56 275.08 304.65 C 281.22 302.75 287.31 299.00 292.47 295.46 C 297.64 291.92 301.73 287.87 306.07 283.40 C 310.42 278.94 314.99 274.19 318.54 268.68 C 322.10 263.18 325.82 255.85 327.39 250.39 C 328.97 244.93 327.91 241.02 327.99 235.92 C 328.08 230.82 329.11 225.48 327.88 219.78 C 326.65 214.09 323.64 206.81 320.63 201.73 C 317.62 196.65 313.59 193.95 309.80 189.32 C 306.02 184.68 302.43 178.30 297.91 173.94 C 293.39 169.58 287.69 165.48 282.71 163.14 C 277.73 160.81 273.59 160.26 268.03 159.94 C 262.47 159.63 255.48 160.23 249.35 161.26 C 243.23 162.28 237.09 164.10 231.27 166.10 C 225.44 168.09 220.21 169.90 214.41 173.25 C 208.61 176.60 201.84 181.66 196.46 186.20 C 191.09 190.74 185.58 195.77 182.15 200.49 C 178.72 205.21 177.76 209.47 175.86 214.53 C 173.97 219.58 172.15 224.94 170.79 230.80 C 169.44 236.67 168.04 244.48 167.72 249.71 C 167.39 254.94 168.78 256.93 168.84 262.17 C 168.90 267.42 168.39 275.30 168.09 281.18 C 167.79 287.07 167.13 292.59 167.03 297.49 C 166.94 302.39 167.78 305.95 167.54 310.60 C 167.30 315.25 166.29 321.00 165.59 325.38 C 164.88 329.76 164.49 332.60 163.33 336.88 C 162.16 341.15 160.37 347.29 158.60 351.03 C 156.82 354.77 155.40 356.31 152.68 359.31 C 149.97 362.30 145.60 366.97 142.30 369.02 C 139.00 371.08 135.53 371.40 132.88 371.62 C 130.22 371.85 129.15 371.03 126.37 370.35 C 123.59 369.68 119.94 368.81 116.19 367.56 C 112.45 366.31 107.37 365.13 103.92 362.85 C 100.46 360.56 98.04 357.47 95.45 353.84 C 92.87 350.20 90.69 346.52 88.41 341.01 C 86.14 335.50 83.35 326.67 81.80 320.78 C 80.25 314.88 79.17 311.60 79.10 305.63 C 79.04 299.66 79.87 292.05 81.39 284.95 C 82.92 277.84 85.39 269.10 88.25 262.98 C 91.11 256.87 94.87 253.81 98.57 248.24 C 102.28 242.66 105.86 235.09 110.48 229.53 C 115.09 223.97 120.78 219.26 126.28 214.87 C 131.77 210.48 137.21 206.50 143.43 203.18 C 149.64 199.86 156.48 197.77 163.57 194.94 C 170.65 192.11 179.59 188.58 185.94 186.20 C 192.29 183.81 196.46 183.07 201.68 180.62 C 206.89 178.18 211.63 174.20 217.22 171.51 C 222.82 168.81 229.97 166.67 235.26 164.47 C 240.55 162.27 244.10 160.48 248.99 158.31 C 253.87 156.14 259.93 153.88 264.57 151.46 C 269.22 149.05 273.46 146.31 276.86 143.80 C 280.25 141.29 282.25 139.46 284.94 136.42 C 287.62 133.37 290.93 129.46 292.97 125.55 C 295.01 121.63 295.83 115.98 297.19 112.92 C 298.56 109.86 300.56 109.72 301.15 107.20 C 301.73 104.68 301.25 101.42 300.70 97.83 C 300.14 94.23 299.25 88.87 297.81 85.64 C 296.36 82.42 294.19 80.98 292.03 78.45 C 289.87 75.93 288.47 72.70 284.85 70.50 C 281.23 68.30 275.59 66.31 270.28 65.25 C 264.97 64.19 258.01 64.26 252.99 64.15 C 247.98 64.05 245.39 62.71 240.20 64.61 C 235.00 66.52 227.80 72.20 221.82 75.57 C 215.85 78.93 209.27 81.23 204.35 84.80 C 199.43 88.37 196.41 92.19 192.31 96.96 C 188.21 101.74 183.23 107.03 179.74 113.44 C 176.25 119.86 172.94 128.70 171.35 135.45 C 169.75 142.19 169.80 146.38 170.16 153.93 C 170.52 161.48 171.60 172.62 173.52 180.74 C 175.45 188.86 179.07 195.89 181.71 202.64 C 184.34 209.39 185.86 214.95 189.34 221.24 C 192.81 227.53 197.75 235.15 202.59 240.36 C 207.42 245.57 213.15 249.45 218.34 252.50 C 223.53 255.55 228.07 256.90 233.73 258.65 C 239.39 260.39 246.11 263.15 252.30 262.97 C 258.50 262.78 265.76 259.95 270.87 257.54 C 275.99 255.13 279.26 252.30 282.99 248.50 C 286.72 244.69 290.28 239.46 293.26 234.71 C 296.23 229.96 299.54 224.57 300.83 219.99 C 302.12 215.40 301.21 212.24 301.02 207.20 C 300.84 202.16 300.13 195.33 299.72 189.75 C 299.32 184.18 299.54 179.24 298.61 173.75 C 297.68 168.27 295.34 161.78 294.14 156.84 C 292.94 151.90 291.94 148.33 291.42 144.10 C 290.89 139.87 291.28 135.51 291.00 131.44 C 290.72 127.38 289.95 123.30 289.73 119.71 C 289.52 116.12 288.82 113.24 289.72 109.90 C 290.61 106.56 293.51 102.83 295.11 99.65 C 296.70 96.47 297.65 93.47 299.28 90.84 C 300.91 88.20 303.07 86.10 304.87 83.86 C 306.68 81.62 309.13 79.61 310.10 77.38 C 311.07 75.15 310.52 72.89 310.69 70.48 C 310.85 68.08 312.13 65.34 311.11 62.93 C 310.08 60.53 306.97 57.93 304.53 56.05 C 302.09 54.17 299.34 52.96 296.46 51.67 C 293.58 50.38 291.05 49.46 287.26 48.32 C 283.48 47.18 278.78 46.15 273.76 44.83 C 268.74 43.51 261.32 41.48 257.12 40.39 C 252.91 39.30 251.73 38.79 248.56 38.28 C 245.38 37.77 241.81 37.66 238.07 37.31 C 234.33 36.97 229.97 37.06 226.11 36.23 C 222.24 35.39 218.19 33.56 214.87 32.32 C 211.55 31.09 208.18 30.03 206.19 28.80 C 204.20 27.57 203.59 26.53 202.92 24.94 C 202.26 23.36 202.28 21.27 202.22 19.29 C 202.17 17.31 203.09 15.11 202.58 13.06 C 202.06 11.00 200.31 9.07 199.13 6.97 C 197.95 4.88 196.91 -2.72 195.49 0.48 C 194.06 3.68 192.14 16.61 190.60 26.18 C 189.07 35.76 187.76 47.63 186.27 57.94 C 184.77 68.25 183.00 79.87 181.65 88.04 C 180.30 96.22 180.01 99.85 178.14 106.99 C 176.28 114.12 172.84 123.23 170.46 130.85 C 168.09 138.47 165.74 146.50 163.89 152.71 C 162.03 158.93 161.79 162.59 159.34 168.13 C 156.89 173.67 151.74 180.09 149.18 185.96 C 146.62 191.84 145.62 198.12 144.00 203.38 C 142.38 208.64 140.94 212.21 139.45 217.53 C 137.97 222.84 135.78 229.03 135.08 235.27 C 134.39 241.51 134.80 249.21 135.30 254.97 C 135.81 260.73 136.73 264.56 138.12 269.83 C 139.52 275.10 141.55 281.07 143.67 286.59 C 145.78 292.12 148.08 298.23 150.79 302.96 C 153.50 307.69 156.40 310.25 159.91 314.99 C 163.42 319.72 167.99 326.23 171.86 331.37 C 175.74 336.52 179.26 341.94 183.16 345.84 C 187.06 349.73 191.20 351.71 195.25 354.77 C 199.30 357.84 202.86 361.79 207.45 364.22 C 212.04 366.64 217.91 367.41 222.78 369.32 C 227.66 371.24 231.43 374.21 236.71 375.69 C 241.98 377.18 248.81 377.45 254.44 378.22 C 260.07 378.99 265.71 379.48 270.49 380.30 C 275.26 381.11 278.17 382.73 283.10 383.09 C 288.04 383.46 294.71 382.54 300.09 382.46 C 305.48 382.39 311.27 382.39 315.40 382.62 C 319.53 382.85 321.00 383.63 324.87 383.84 C 328.75 384.06 334.09 383.48 338.66 383.91 C 343.22 384.33 348.70 385.50 352.26 386.39 C 355.83 387.29 357.68 388.04 360.04 389.27 C 362.41 390.49 363.93 391.80 366.47 393.75 C 369.01 395.69 372.53 399.06 375.28 400.93 C 378.03 402.79 380.91 403.56 382.96 404.93 C 385.02 406.31 385.62 408.19 387.61 409.16 C 389.59 410.13 392.45 409.72 394.89 410.73 C 397.32 411.75 400.06 415.14 402.21 415.26 C 404.37 415.38 405.17 412.58 407.83 411.46 C 410.49 410.35 414.76 410.04 418.16 408.57 C 421.56 407.09 425.16 404.93 428.23 402.60 C 431.30 400.26 433.47 397.59 436.56 394.55 C 439.66 391.52 444.28 388.43 446.79 384.39 C 449.29 380.36 449.46 374.49 451.60 370.35 C 453.74 366.21 456.90 363.46 459.65 359.56 C 462.39 355.66 465.60 350.91 468.07 346.95 C 470.53 342.98 472.20 339.25 474.45 335.79 C 476.69 332.33 479.07 329.32 481.52 326.19 C 483.96 323.07 487.05 320.66 489.13 317.05 C 491.22 313.43 492.28 307.64 494.04 304.51 C 495.80 301.38 497.67 300.71 499.71 298.26 C 501.76 295.82 504.47 292.20 506.31 289.85 C 508.14 287.49 511.01 285.89 510.73 284.12 C 510.44 282.35 511.62 281.13 504.60 279.24 C 497.57 277.35 479.64 274.12 468.55 272.77 C 457.46 271.43 447.25 271.92 438.06 271.16 C 428.88 270.40 421.65 269.81 413.44 268.21 C 405.24 266.61 396.87 263.37 388.83 261.54 C 380.79 259.72 372.49 258.60 365.20 257.25 C 357.90 255.91 352.05 254.96 345.05 253.48 C 338.06 252.00 330.29 250.34 323.22 248.37 C 316.15 246.40 309.38 244.71 302.63 241.65 C 295.89 238.59 288.54 233.21 282.75 230.00 C 276.96 226.79 272.52 225.22 267.89 222.39 C 263.25 219.57 258.39 216.86 254.93 213.06 C 251.47 209.26 249.00 203.67 247.12 199.59 C 245.25 195.51 244.35 193.11 243.66 188.57 C 242.97 184.02 242.37 177.38 242.97 172.32 C 243.57 167.25 245.54 162.50 247.26 158.17 C 248.99 153.85 250.68 149.85 253.31 146.36 C 255.93 142.86 258.80 139.42 263.02 137.22 C 267.24 135.02 273.43 133.57 278.65 133.17 C 283.87 132.77 288.79 133.05 294.34 134.81 C 299.88 136.57 306.73 139.98 311.90 143.72 C 317.08 147.46 321.47 152.75 325.40 157.25 C 329.33 161.76 332.58 165.16 335.49 170.77 C 338.39 176.38 340.79 184.04 342.83 190.90 C 344.87 197.77 346.80 205.60 347.74 211.98 C 348.68 218.36 349.58 223.19 348.47 229.20 C 347.35 235.21 343.99 241.68 341.06 248.02 C 338.12 254.37 335.05 262.02 330.85 267.27 C 326.66 272.53 321.54 276.37 315.89 279.56 C 310.25 282.76 303.55 285.40 297.00 286.45 C 290.44 287.49 282.25 287.01 276.54 285.85 C 270.84 284.68 267.67 282.31 262.77 279.45 C 257.88 276.60 251.75 273.05 247.17 268.74 C 242.59 264.43 238.60 258.62 235.30 253.59 C 231.99 248.55 228.99 244.04 227.35 238.53 C 225.70 233.01 224.85 226.53 225.42 220.50 C 225.98 214.47 228.42 207.75 230.73 202.33 C 233.04 196.92 236.55 192.04 239.26 187.99 C 241.97 183.94 243.32 180.76 246.98 178.04 C 250.64 175.33 255.98 173.29 261.23 171.69 C 266.48 170.08 273.27 169.11 278.48 168.39 C 283.70 167.68 287.27 166.91 292.52 167.39 C 297.77 167.86 304.56 169.80 309.98 171.24 C 315.41 172.69 320.07 174.81 325.07 176.04 C 330.07 177.28 334.53 177.95 339.98 178.63 C 345.43 179.31 352.76 179.54 357.77 180.14 C 362.78 180.75 366.36 181.72 370.04 182.27 C 373.72 182.81 375.92 183.66 379.87 183.42 C 383.82 183.17 389.67 182.17 393.76 180.81 C 397.85 179.45 401.71 177.38 404.42 175.28 C 407.12 173.18 408.58 170.56 410.01 168.22 C 411.45 165.88 411.85 164.11 413.01 161.25 C 414.18 158.39 416.46 154.24 417.00 151.06 C 417.53 147.87 416.79 146.00 416.23 142.14 C 415.66 138.28 415.01 132.40 413.61 127.91 C 412.21 123.42 410.16 119.12 407.83 115.22 C 405.50 111.33 403.16 108.24 399.62 104.55 C 396.08 100.86 390.88 96.46 386.60 93.10 C 382.31 89.73 377.80 86.62 373.91 84.37 C 370.02 82.12 367.41 82.08 363.28 79.61 C 359.14 77.15 353.63 72.39 349.10 69.56 C 344.56 66.73 339.62 64.91 336.07 62.64 C 332.53 60.36 330.49 58.28 327.82 55.90 C 325.15 53.52 321.93 51.23 320.05 48.37 C 318.18 45.52 317.08 41.62 316.56 38.77 C 316.04 35.91 316.51 33.18 316.95 31.23 C 317.38 29.28 318.37 28.58 319.18 27.05 C 319.99 25.51 320.42 23.47 321.81 22.00 C 323.21 20.54 326.02 19.09 327.55 18.26 C 329.07 17.42 329.45 17.50 330.96 16.99 C 332.47 16.48 334.16 15.95 336.61 15.18 C 339.06 14.41 343.10 13.28 345.65 12.38 C 348.19 11.48 349.76 10.34 351.89 9.78 C 354.01 9.21 356.77 9.55 358.40 8.99 C 360.02 8.43 360.82 7.43 361.64 6.41 C 362.46 5.39 362.96 1.56 363.32 2.87 C 363.68 4.18 363.11 7.50 363.79 14.27 C 364.48 21.03 366.08 35.10 367.43 43.47 C 368.79 51.84 371.05 56.49 371.91 64.49 C 372.77 72.49 372.46 82.44 372.60 91.47 C 372.74 100.51 372.72 110.86 372.76 118.69 C 372.81 126.52 373.49 130.93 372.88 138.47 C 372.28 146.01 371.10 155.35 369.12 163.92 C 367.14 172.49 363.52 182.81 361.00 189.91 C 358.49 197.00 356.68 200.12 354.05 206.49 C 351.43 212.85 348.84 220.73 345.25 228.07 C 341.65 235.42 335.87 244.14 332.50 250.54 C 329.13 256.94 327.83 260.60 325.04 266.46 C 322.24 272.32 318.44 279.64 315.74 285.69 C 313.04 291.74 310.72 297.45 308.83 302.76 C 306.94 308.06 304.90 312.39 304.40 317.53 C 303.91 322.66 305.61 328.53 305.86 333.56 C 306.12 338.59 305.73 342.90 305.92 347.70 C 306.11 352.50 306.54 357.97 306.99 362.37 C 307.44 366.76 307.16 369.85 308.62 374.07 C 310.08 378.29 314.07 383.29 315.73 387.68 C 317.39 392.06 317.46 397.04 318.57 400.39 C 319.69 403.75 320.77 405.32 322.42 407.81 C 324.07 410.29 326.74 412.53 328.49 415.30 C 330.23 418.07 331.61 421.82 332.89 424.40 C 334.17 426.98 335.14 428.53 336.17 430.77 C 337.19 433.01 338.41 435.47 339.04 437.85 C 339.68 440.23 340.58 442.74 339.98 445.03 C 339.38 447.32 336.66 449.29 335.44 451.58 C 334.22 453.88 332.90 456.12 332.66 458.80 C 332.42 461.49 333.99 465.32 334.01 467.71 C 334.02 470.11 332.36 471.50 332.78 473.17 C 333.20 474.84 335.15 475.94 336.54 477.76 C 337.93 479.57 339.49 482.59 341.11 484.06 C 342.72 485.53 343.70 486.20 346.21 486.56 C 348.73 486.92 353.01 486.10 356.22 486.23 C 359.42 486.37 362.34 487.31 365.42 487.38 C 368.51 487.44 371.35 488.09 374.72 486.63 C 378.10 485.17 382.23 481.56 385.65 478.62 C 389.08 475.68 392.19 472.15 395.27 469.00 C 398.35 465.86 401.22 463.67 404.13 459.75 C 407.05 455.84 409.73 451.28 412.75 445.52 C 415.77 439.75 419.55 431.31 422.28 425.19 C 425.01 419.06 427.28 415.05 429.11 408.79 C 430.93 402.53 432.35 395.25 433.24 387.63 C 434.14 380.01 435.04 370.42 434.47 363.08 C 433.90 355.74 432.66 351.29 429.82 343.61 C 426.98 335.93 421.59 325.13 417.44 317.01 C 413.28 308.88 410.25 302.09 404.90 294.87 C 399.56 287.64 391.69 278.80 385.37 273.66 C 379.06 268.51 374.05 267.25 367.02 264.01 C 359.99 260.78 350.67 255.88 343.18 254.23 C 335.70 252.58 328.36 253.32 322.11 254.10 C 315.86 254.88 312.12 256.97 305.70 258.91 C 299.28 260.85 290.06 262.67 283.59 265.72 C 277.13 268.78 271.96 273.90 266.91 277.23 C 261.86 280.56 257.86 281.83 253.30 285.70 C 248.73 289.57 243.94 295.75 239.53 300.47 C 235.12 305.18 230.34 310.16 226.81 313.99 C 223.28 317.82 221.21 320.30 218.35 323.44 C 215.48 326.57 212.89 328.93 209.63 332.80 C 206.37 336.67 202.05 343.11 198.80 346.67 C 195.56 350.22 192.85 351.43 190.16 354.14 C 187.48 356.85 185.98 359.93 182.67 362.94 C 179.36 365.96 174.09 369.86 170.32 372.25 C 166.55 374.64 163.03 375.65 160.05 377.29 C 157.08 378.93 155.41 380.76 152.48 382.10 C 149.56 383.44 145.68 385.31 142.50 385.34 C 139.32 385.37 136.86 383.00 133.42 382.29 C 129.97 381.57 125.65 382.08 121.83 381.05 C 118.01 380.02 114.12 377.70 110.52 376.11 C 106.91 374.52 103.65 373.18 100.19 371.51 C 96.73 369.85 92.71 368.14 89.74 366.10 C 86.77 364.05 85.04 361.58 82.39 359.24 C 79.74 356.89 76.42 354.34 73.83 352.05 C 71.25 349.75 69.19 347.80 66.87 345.46 C 64.56 343.12 62.37 339.92 59.94 337.99 C 57.52 336.07 54.69 334.79 52.32 333.91 C 49.96 333.03 48.13 333.54 45.76 332.69 C 43.38 331.84 40.77 329.39 38.06 328.83 C 35.35 328.26 31.92 329.07 29.49 329.33 C 27.05 329.59 25.47 330.67 23.45 330.39 C 21.43 330.11 19.49 328.99 17.36 327.64 C 15.23 326.29 12.67 323.65 10.69 322.29 C 8.71 320.94 7.21 321.51 5.49 319.52 C 3.77 317.53 -3.16 312.68 0.37 310.37 C 3.91 308.05 18.33 306.29 26.70 305.62 C 35.08 304.94 41.97 305.54 50.65 306.31 C 59.32 307.09 69.71 309.14 78.75 310.27 C 87.79 311.40 97.41 311.51 104.88 313.10 C 112.35 314.70 116.98 317.07 123.59 319.84 C 130.20 322.62 138.34 325.91 144.53 329.76 C 150.71 333.61 156.34 339.14 160.70 342.95 C 165.06 346.76 167.87 348.64 170.68 352.62 C 173.48 356.60 175.89 362.35 177.54 366.82 C 179.18 371.28 180.94 375.81 180.54 379.43 C 180.15 383.06 177.76 385.79 175.17 388.55 C 172.58 391.31 168.72 394.63 165.01 396.00 C 161.31 397.37 156.30 397.05 152.92 396.79 C 149.55 396.53 148.34 396.65 144.78 394.43 C 141.22 392.20 135.40 387.30 131.58 383.44 C 127.76 379.58 124.49 375.81 121.85 371.27 C 119.22 366.73 117.30 362.60 115.76 356.21 C 114.22 349.82 112.90 341.06 112.59 332.94 C 112.28 324.82 112.46 315.06 113.89 307.47 C 115.33 299.88 118.33 293.58 121.20 287.41 C 124.07 281.25 127.39 276.64 131.13 270.48 C 134.87 264.33 139.29 256.88 143.63 250.47 C 147.97 244.07 152.97 237.36 157.17 232.08 C 161.36 226.79 164.52 223.46 168.80 218.78 C 173.08 214.09 178.13 208.63 182.86 203.98 C 187.58 199.32 193.03 194.87 197.15 190.85 C 201.27 186.84 204.04 183.89 207.59 179.89 C 211.14 175.88 215.35 171.02 218.47 166.80 C 221.58 162.59 224.17 158.21 226.26 154.59 C 228.36 150.98 228.67 148.90 231.04 145.12 C 233.40 141.33 237.43 136.29 240.46 131.91 C 243.49 127.52 246.77 122.14 249.22 118.81 C 251.67 115.49 252.72 114.70 255.16 111.98 C 257.60 109.25 260.36 104.91 263.86 102.48 C 267.36 100.05 271.95 98.57 276.15 97.40 C 280.35 96.22 284.89 96.09 289.08 95.41 C 293.27 94.74 296.96 93.82 301.29 93.34 C 305.62 92.85 310.63 91.77 315.07 92.52 C 319.51 93.27 323.01 95.29 327.92 97.84 C 332.83 100.39 340.00 104.57 344.54 107.82 C 349.09 111.08 351.86 114.05 355.19 117.38 C 358.53 120.71 361.42 123.03 364.57 127.81 C 367.72 132.59 371.46 139.36 374.11 146.03 C 376.75 152.71 378.78 161.26 380.43 167.85 C 382.08 174.44 383.44 179.05 384.00 185.58 C 384.56 192.10 384.62 199.71 383.79 207.01 C 382.95 214.30 381.24 222.06 378.99 229.34 C 376.75 236.61 373.23 244.52 370.33 250.65 C 367.43 256.78 365.55 260.95 361.61 266.13 C 357.67 271.31 351.78 276.70 346.70 281.74 C 341.63 286.77 335.53 291.70 331.18 296.33 C 326.83 300.97 324.31 305.22 320.61 309.53 C 316.92 313.85 313.31 318.09 309.01 322.23 C 304.72 326.36 299.20 331.19 294.86 334.34 C 290.52 337.49 287.10 338.37 282.97 341.14 C 278.84 343.91 274.10 347.29 270.08 350.97 C 266.05 354.64 261.97 360.10 258.82 363.18 C 255.67 366.26 254.88 367.56 251.18 369.45 C 247.49 371.35 241.43 372.69 236.65 374.54 C 231.86 376.39 226.53 379.18 222.48 380.55 C 218.43 381.93 216.59 382.31 212.35 382.79 C 208.11 383.26 202.04 383.11 197.03 383.40 C 192.02 383.69 186.62 384.47 182.31 384.53 C 177.99 384.60 175.05 384.73 171.15 383.78 C 167.24 382.83 163.24 380.53 158.88 378.83 C 154.53 377.13 149.14 374.89 145.00 373.59 C 140.87 372.29 138.29 372.79 134.06 371.02 C 129.83 369.26 123.79 364.54 119.62 363.00 C 115.45 361.45 112.54 362.25 109.04 361.73 C 105.53 361.21 102.09 360.40 98.58 359.88 C 95.08 359.36 91.08 358.83 88.00 358.61 C 84.92 358.39 82.36 358.27 80.10 358.56 C 77.84 358.85 76.50 359.65 74.44 360.33 C 72.39 361.01 69.64 361.87 67.78 362.64 C 65.92 363.42 64.99 364.24 63.28 364.98 C 61.58 365.71 59.15 366.22 57.55 367.03 C 55.94 367.85 55.15 369.13 53.64 369.86 C 52.13 370.59 50.32 372.14 48.49 371.41 C 46.67 370.69 44.69 367.43 42.68 365.51 C 40.66 363.58 38.21 362.78 36.38 359.85 C 34.54 356.91 33.18 352.21 31.69 347.90 C 30.20 343.58 28.13 338.66 27.46 333.97 C 26.79 329.28 27.23 325.48 27.68 319.77 C 28.14 314.06 28.99 306.90 30.20 299.70 C 31.40 292.49 32.41 282.93 34.90 276.52 C 37.39 270.11 40.68 266.92 45.14 261.23 C 49.60 255.55 55.25 248.56 61.67 242.38 C 68.09 236.21 76.81 228.99 83.68 224.19 C 90.55 219.39 95.39 217.00 102.90 213.57 C 110.41 210.14 120.32 205.66 128.75 203.60 C 137.18 201.55 146.39 201.32 153.46 201.24 C 160.53 201.16 164.53 202.87 171.18 203.13 C 177.84 203.40 185.88 202.67 193.38 202.85 C 200.89 203.04 209.67 203.26 216.21 204.24 C 222.75 205.22 226.37 207.10 232.62 208.73 C 238.87 210.36 246.83 211.63 253.68 214.01 C 260.54 216.38 267.91 220.36 273.76 222.99 C 279.62 225.61 283.48 227.32 288.82 229.76 C 294.15 232.19 300.47 234.73 305.77 237.59 C 311.08 240.46 316.32 244.62 320.63 246.93 C 324.93 249.24 327.19 249.66 331.60 251.45 C 336.01 253.24 342.66 255.28 347.08 257.68 C 351.50 260.07 354.86 263.56 358.12 265.80 C 361.38 268.05 363.26 268.92 366.64 271.16 C 370.02 273.40 375.23 275.99 378.41 279.25 C 381.59 282.51 382.78 286.86 385.72 290.73 C 388.67 294.60 393.64 299.18 396.07 302.46 C 398.51 305.75 399.69 306.76 400.33 310.45 C 400.97 314.15 400.14 320.24 399.92 324.62 C 399.70 329.00 400.10 332.90 399.01 336.72 C 397.91 340.53 396.15 343.11 393.35 347.51 C 390.55 351.92 386.20 358.34 382.21 363.14 C 378.21 367.94 373.76 372.74 369.37 376.31 C 364.98 379.88 361.62 381.58 355.86 384.57 C 350.11 387.56 341.67 392.10 334.83 394.23 C 327.99 396.35 320.69 396.85 314.84 397.33 C 308.99 397.81 306.15 397.92 299.75 397.10 C 293.34 396.28 283.77 394.59 276.42 392.42 C 269.06 390.25 262.13 387.36 255.63 384.08 C 249.13 380.79 243.02 377.56 237.44 372.69 C 231.85 367.81 226.53 361.16 222.13 354.83 C 217.73 348.49 214.09 340.97 211.05 334.68 C 208.01 328.38 205.43 324.20 203.89 317.05 C 202.35 309.91 201.11 298.98 201.81 291.81 C 202.52 284.64 205.53 279.26 208.10 274.04 C 210.67 268.82 213.74 265.20 217.25 260.51 C 220.76 255.82 224.61 250.44 229.15 245.90 C 233.70 241.36 239.46 236.54 244.52 233.28 C 249.57 230.02 254.05 228.91 259.47 226.34 C 264.89 223.77 271.43 220.92 277.05 217.86 C 282.67 214.80 288.73 210.84 293.19 207.98 C 297.66 205.11 300.07 203.83 303.84 200.69 C 307.60 197.55 312.35 192.53 315.78 189.13 C 319.22 185.73 321.62 183.41 324.45 180.28 C 327.28 177.16 330.53 173.65 332.78 170.38 C 335.03 167.12 335.90 164.71 337.97 160.68 C 340.04 156.66 343.39 150.59 345.20 146.24 C 347.00 141.89 348.60 138.53 348.80 134.58 C 348.99 130.63 348.64 126.54 346.37 122.51 C 344.10 118.49 339.28 114.59 335.18 110.41 C 331.08 106.24 325.70 100.58 321.79 97.46 C 317.88 94.33 316.08 93.05 311.72 91.66 C 307.37 90.27 301.50 89.37 295.69 89.12 C 289.87 88.87 282.61 89.41 276.84 90.16 C 271.06 90.92 267.11 91.93 261.04 93.66 C 254.98 95.38 247.05 97.45 240.44 100.51 C 233.84 103.56 227.01 107.87 221.42 112.00 C 215.83 116.12 211.01 120.05 206.89 125.24 C 202.77 130.43 199.97 136.19 196.70 143.14 C 193.44 150.09 189.38 159.89 187.31 166.97 C 185.24 174.04 183.93 178.18 184.28 185.56 C 184.62 192.95 187.01 203.38 189.37 211.27 C 191.73 219.15 195.10 227.02 198.43 232.88 C 201.77 238.74 204.87 241.98 209.36 246.40 C 213.85 250.82 219.42 255.82 225.38 259.41 C 231.33 263.00 238.82 266.02 245.09 267.96 C 251.36 269.91 256.81 270.84 263.00 271.07 C 269.18 271.31 276.23 270.67 282.19 269.36 C 288.15 268.06 294.48 265.59 298.76 263.25 C 303.04 260.90 305.39 259.40 307.88 255.30 C 310.36 251.20 312.10 244.85 313.66 238.67 C 315.23 232.49 316.61 224.53 317.26 218.22 C 317.90 211.92 317.66 206.36 317.53 200.85 C 317.40 195.33 316.79 190.09 316.47 185.13 C 316.15 180.17 315.90 176.07 315.60 171.09 C 315.31 166.11 315.17 159.44 314.69 155.24 C 314.22 151.05 313.01 149.71 312.76 145.93 C 312.51 142.14 312.70 136.77 313.19 132.54 C 313.69 128.32 314.46 124.16 315.73 120.60 C 316.99 117.03 319.10 113.81 320.80 111.15 C 322.51 108.48 324.17 107.71 325.98 104.61 C 327.78 101.50 329.85 95.44 331.64 92.52 C 333.43 89.60 335.32 88.89 336.73 87.07 C 338.14 85.25 338.59 83.59 340.08 81.61 C 341.58 79.63 343.87 77.46 345.69 75.20 C 347.50 72.93 349.36 70.39 350.98 68.02 C 352.60 65.65 354.59 63.88 355.42 60.96 C 356.24 58.05 356.02 52.97 355.93 50.53 C 355.83 48.09 355.34 48.48 354.83 46.33 C 354.32 44.17 354.46 40.31 352.89 37.61 C 351.32 34.90 347.74 32.21 345.44 30.10 C 343.13 27.99 341.87 26.94 339.05 24.94 C 336.23 22.93 333.62 19.12 328.53 18.05 C 323.44 16.99 314.11 18.39 308.52 18.54 C 302.92 18.69 300.63 18.83 294.97 18.97 C 289.30 19.11 281.19 18.07 274.53 19.37 C 267.87 20.68 261.02 23.97 255.01 26.81 C 248.99 29.65 244.03 31.93 238.45 36.40 C 232.87 40.88 226.86 47.05 221.55 53.68 C 216.25 60.30 210.95 68.67 206.62 76.16 C 202.29 83.64 198.20 91.66 195.58 98.59 C 192.96 105.52 192.34 110.52 190.89 117.74 C 189.44 124.96 187.79 133.65 186.86 141.92 C 185.93 150.18 184.99 159.80 185.31 167.34 C 185.63 174.88 186.97 180.13 188.77 187.14 C 190.57 194.16 192.60 202.06 196.13 209.42 C 199.66 216.79 205.74 225.43 209.97 231.32 C 214.19 237.21 217.14 240.08 221.51 244.77 C 225.87 249.47 230.69 255.31 236.17 259.50 C 241.65 263.69 248.83 267.52 254.40 269.90 C 259.97 272.29 263.71 273.73 269.58 273.80 C 275.44 273.87 283.54 271.66 289.58 270.33 C 295.63 268.99 301.35 267.84 305.84 265.81 C 310.33 263.77 312.56 261.64 316.51 258.10 C 320.47 254.56 325.55 248.78 329.59 244.57 C 333.62 240.36 337.53 236.82 340.73 232.85 C 343.93 228.88 346.09 224.44 348.79 220.75 C 351.49 217.06 354.24 214.01 356.94 210.70 C 359.64 207.38 362.61 203.55 365.00 200.86 C 367.40 198.18 368.28 196.82 371.30 194.59 C 374.32 192.36 379.17 189.38 383.13 187.47 C 387.10 185.55 391.36 183.72 395.09 183.11 C 398.83 182.50 401.92 183.83 405.52 183.81 C 409.12 183.79 412.93 182.44 416.71 183.01 C 420.48 183.58 424.93 185.54 428.18 187.25 C 431.43 188.95 434.20 189.88 436.22 193.25 C 438.23 196.62 438.96 202.48 440.28 207.48 C 441.60 212.47 443.13 217.54 444.13 223.24 C 445.13 228.94 446.32 235.91 446.26 241.69 C 446.20 247.46 445.47 251.58 443.77 257.90 C 442.06 264.23 439.45 272.60 436.02 279.64 C 432.58 286.67 427.22 294.64 423.15 300.12 C 419.07 305.59 416.67 308.06 411.57 312.47 C 406.47 316.87 399.57 322.89 392.54 326.54 C 385.52 330.19 376.22 332.02 369.40 334.37 C 362.59 336.73 358.28 339.25 351.64 340.68 C 344.99 342.12 337.28 342.67 329.52 343.01 C 321.75 343.34 312.13 343.54 305.03 342.69 C 297.94 341.85 293.30 340.25 286.94 337.96 C 280.58 335.68 273.61 332.44 266.89 328.96 C 260.17 325.49 252.06 321.05 246.63 317.12 C 241.19 313.19 239.19 309.38 234.28 305.37 C 229.36 301.37 221.93 297.60 217.14 293.08 C 212.35 288.57 208.31 282.95 205.55 278.29 C 202.80 273.63 202.46 270.23 200.63 265.12 C 198.80 260.01 196.19 253.60 194.56 247.63 C 192.92 241.66 191.61 235.22 190.81 229.33 C 190.02 223.44 189.42 217.70 189.77 212.29 C 190.13 206.89 191.06 201.71 192.94 196.90 C 194.83 192.09 198.46 187.78 201.10 183.46 C 203.74 179.13 204.96 175.48 208.80 170.93 C 212.64 166.38 218.45 160.14 224.13 156.16 C 229.81 152.17 237.26 148.70 242.88 147.02 C 248.50 145.33 252.06 145.95 257.86 146.07 C 263.67 146.20 269.47 145.20 277.73 147.77 C 285.98 150.33 302.43 159.17 307.38 161.46" fill="none" stroke="#fff" stroke-width="4.48" stroke-opacity="1" stroke-linecap="round" stroke-linejoin="round"/>
  </g>
</svg>