<?xml version="1.0" encoding="UTF-8"?>
<svg xmlns="http://www.w3.org/2000/svg" width="512" height="512" viewBox="0 0 512 512">
  <rect width="100%" height="100%" fill="#000"/>
  <g>
    <path d="M 256.00 256.00 C 257.87 253.44 263.97 246.58 267.20 240.63 C 270.44 234.68 273.81 227.06 275.42 220.30 C 277.04 213.55 277.11 206.70 276.91 200.10 C 276.71 193.50 276.23 186.70 274.22 180.70 C 272.20 174.70 269.03 168.63 264.81 164.10 C 260.60 159.56 254.99 155.94 248.94 153.47 C 242.90 150.99 235.54 149.09 228.56 149.24 C 221.58 149.40 213.36 151.77 207.06 154.40 C 200.77 157.03 195.92 159.90 190.80 165.04 C 185.67 170.18 180.12 178.02 176.32 185.25 C 172.52 192.47 169.43 200.25 167.98 208.38 C 166.54 216.51 166.46 225.69 167.66 234.03 C 168.87 242.37 171.30 250.80 175.22 258.43 C 179.14 266.07 185.06 273.83 191.17 279.84 C 197.27 285.85 204.62 290.67 211.86 294.48 C 219.09 298.29 227.50 301.07 234.59 302.73 C 241.69 304.39 247.47 304.90 254.42 304.44 C 261.37 303.98 269.44 302.71 276.32 299.98 C 283.19 297.25 289.77 292.62 295.69 288.06 C 301.60 283.50 307.32 278.37 311.82 272.60 C 316.32 266.84 319.55 259.79 322.69 253.47 C 325.84 247.15 328.77 241.09 330.69 234.68 C 332.60 228.27 334.26 221.65 334.17 215.03 C 334.08 208.41 332.24 200.83 330.17 194.97 C 328.10 189.11 325.54 185.21 321.76 179.89 C 317.98 174.56 312.80 167.83 307.50 163.02 C 302.20 158.21 296.48 154.20 289.95 151.03 C 283.41 147.87 275.45 145.38 268.29 144.03 C 261.12 142.68 254.30 141.96 246.95 142.93 C 239.61 143.90 231.16 146.54 224.21 149.83 C 217.26 153.12 211.06 157.41 205.26 162.68 C 199.46 167.95 194.21 174.96 189.39 181.47 C 184.58 187.98 179.59 195.18 176.35 201.73 C 173.10 208.29 171.67 213.94 169.92 220.82 C 168.18 227.71 166.78 235.48 165.87 243.05 C 164.96 250.62 164.63 258.57 164.48 266.25 C 164.33 273.93 164.55 281.87 164.99 289.15 C 165.42 296.42 166.76 303.29 167.09 309.90 C 167.41 316.51 167.85 322.96 166.93 328.81 C 166.00 334.67 163.66 340.04 161.52 345.04 C 159.38 350.05 156.94 355.25 154.10 358.85 C 151.25 362.45 148.08 364.68 144.45 366.63 C 140.83 368.58 136.58 370.15 132.32 370.54 C 128.06 370.93 123.45 370.22 118.90 368.97 C 114.34 367.72 109.29 366.10 105.00 363.02 C 100.72 359.94 96.88 355.43 93.18 350.48 C 89.48 345.52 85.28 339.86 82.82 333.29 C 80.37 326.72 78.78 319.03 78.44 311.06 C 78.10 303.10 79.07 293.22 80.80 285.52 C 82.53 277.82 85.24 272.16 88.80 264.88 C 92.36 257.60 96.90 249.04 102.18 241.84 C 107.45 234.63 113.71 227.73 120.46 221.64 C 127.21 215.56 134.60 209.74 142.67 205.34 C 150.74 200.94 159.72 197.04 168.88 195.27 C 178.05 193.50 188.52 193.19 197.68 194.71 C 206.84 196.23 215.75 199.82 223.85 204.41 C 231.96 208.99 240.79 216.13 246.32 222.20 C 251.86 228.27 254.27 233.98 257.06 240.81 C 259.85 247.64 262.95 255.66 263.08 263.17 C 263.20 270.69 260.80 279.05 257.81 285.91 C 254.83 292.77 250.05 299.32 245.15 304.32 C 240.26 309.31 234.65 313.41 228.45 315.89 C 222.25 318.37 214.59 319.72 207.94 319.20 C 201.30 318.68 194.65 315.82 188.60 312.77 C 182.54 309.73 176.64 305.93 171.61 300.93 C 166.58 295.94 161.64 288.68 158.42 282.81 C 155.20 276.94 153.45 272.05 152.28 265.71 C 151.11 259.36 150.49 252.04 151.42 244.72 C 152.34 237.40 154.59 228.87 157.83 221.80 C 161.08 214.74 165.77 208.25 170.90 202.33 C 176.04 196.41 182.33 191.04 188.64 186.29 C 194.94 181.55 201.74 177.11 208.72 173.86 C 215.71 170.61 222.98 168.32 230.54 166.77 C 238.10 165.23 246.82 164.34 254.08 164.58 C 261.34 164.81 267.25 165.83 274.09 168.18 C 280.94 170.53 288.63 174.21 295.16 178.68 C 301.69 183.14 308.80 188.56 313.28 194.98 C 317.77 201.40 320.31 209.37 322.06 217.20 C 323.81 225.02 323.52 233.80 323.78 241.93 C 324.04 250.06 323.91 258.05 323.63 265.97 C 323.36 273.89 322.60 282.15 322.13 289.44 C 321.66 296.74 320.90 303.83 320.82 309.74 C 320.74 315.65 320.94 319.54 321.65 324.89 C 322.36 330.25 323.45 336.54 325.08 341.88 C 326.71 347.22 328.58 352.87 331.42 356.92 C 334.25 360.98 337.83 364.31 342.09 366.20 C 346.35 368.09 351.72 368.91 356.96 368.27 C 362.20 367.63 368.31 365.25 373.55 362.34 C 378.79 359.43 384.25 356.32 388.39 350.82 C 392.52 345.32 396.32 337.13 398.37 329.32 C 400.41 321.52 400.59 311.74 400.66 303.97 C 400.73 296.21 400.75 290.31 398.79 282.72 C 396.83 275.13 393.36 266.06 388.91 258.42 C 384.46 250.78 378.60 243.22 372.10 236.87 C 365.61 230.51 358.08 224.42 349.96 220.29 C 341.84 216.17 332.48 213.38 323.39 212.11 C 314.30 210.84 303.83 210.43 295.42 212.67 C 287.02 214.91 279.17 220.01 272.96 225.57 C 266.75 231.13 261.55 239.37 258.17 246.02 C 254.78 252.67 252.71 258.65 252.67 265.46 C 252.63 272.27 254.55 280.75 257.92 286.87 C 261.29 293.00 267.39 297.93 272.89 302.22 C 278.39 306.50 284.53 310.76 290.92 312.57 C 297.31 314.37 304.70 313.88 311.23 313.03 C 317.76 312.18 323.97 310.39 330.09 307.47 C 336.22 304.54 342.99 300.21 347.98 295.48 C 352.96 290.74 356.36 284.19 360.01 279.07 C 363.66 273.95 366.87 270.13 369.86 264.77 C 372.85 259.41 375.29 252.52 377.95 246.90 C 380.61 241.27 382.85 235.73 385.84 231.02 C 388.83 226.31 392.13 221.72 395.88 218.64 C 399.63 215.57 404.20 213.14 408.35 212.56 C 412.49 211.97 416.72 213.60 420.74 215.15 C 424.76 216.71 428.74 219.67 432.45 221.89 C 436.17 224.11 439.92 226.66 443.02 228.46 C 446.12 230.27 448.04 231.55 451.03 232.71 C 454.02 233.87 457.74 235.27 460.96 235.45 C 464.18 235.64 467.33 234.83 470.36 233.83 C 473.39 232.83 476.54 231.51 479.13 229.45 C 481.73 227.39 484.07 224.43 485.95 221.47 C 487.83 218.51 489.66 215.43 490.41 211.69 C 491.16 207.95 491.00 203.81 490.45 199.03 C 489.90 194.24 487.90 187.84 487.13 182.97 C 486.36 178.10 485.94 173.45 485.83 169.82 C 485.72 166.18 485.72 164.03 486.48 161.13 C 487.23 158.24 488.50 154.30 490.35 152.42 C 492.20 150.54 495.09 149.65 497.58 149.84 C 500.07 150.03 502.93 151.52 505.31 153.56 C 507.70 155.60 516.38 159.15 511.88 162.06 C 507.39 164.97 490.13 168.77 478.35 171.01 C 466.57 173.25 453.04 174.68 441.22 175.49 C 429.41 176.30 417.33 176.53 407.47 175.88 C 397.60 175.23 390.05 174.49 382.02 171.59 C 373.99 168.70 365.45 163.30 359.28 158.52 C 353.12 153.74 348.49 148.11 345.04 142.90 C 341.59 137.69 339.25 131.95 338.57 127.25 C 337.89 122.55 338.60 117.70 340.95 114.71 C 343.30 111.71 348.14 109.89 352.67 109.28 C 357.21 108.67 363.10 108.84 368.16 111.06 C 373.23 113.28 378.80 118.21 383.05 122.58 C 387.31 126.95 390.77 130.82 393.70 137.27 C 396.64 143.71 399.61 152.69 400.67 161.24 C 401.72 169.78 401.87 179.43 400.02 188.53 C 398.18 197.62 394.56 207.40 389.61 215.81 C 384.66 224.22 377.88 232.63 370.33 239.00 C 362.77 245.36 353.21 250.37 344.26 254.02 C 335.32 257.67 325.65 260.29 316.68 260.92 C 307.71 261.54 297.96 259.91 290.44 257.77 C 282.92 255.63 277.13 252.56 271.54 248.06 C 265.95 243.56 261.28 236.71 256.90 230.77 C 252.53 224.83 248.81 218.34 245.29 212.41 C 241.76 206.48 238.92 200.68 235.75 195.19 C 232.59 189.69 229.65 184.45 226.30 179.42 C 222.96 174.40 219.48 169.55 215.71 165.03 C 211.94 160.52 207.85 155.77 203.68 152.35 C 199.52 148.93 195.09 146.97 190.72 144.52 C 186.35 142.08 181.57 139.60 177.46 137.69 C 173.35 135.78 169.89 134.94 166.07 133.08 C 162.24 131.22 157.81 129.15 154.53 126.53 C 151.25 123.92 148.30 120.89 146.39 117.39 C 144.48 113.88 142.95 109.39 143.08 105.50 C 143.20 101.60 144.88 97.95 147.16 94.01 C 149.44 90.08 152.36 85.22 156.76 81.87 C 161.17 78.53 167.44 76.19 173.60 73.95 C 179.75 71.71 187.24 69.29 193.71 68.45 C 200.19 67.62 205.20 67.88 212.45 68.96 C 219.71 70.04 229.10 72.41 237.25 74.94 C 245.40 77.46 253.64 79.91 261.37 84.12 C 269.11 88.33 276.78 93.95 283.65 100.21 C 290.53 106.47 297.29 114.02 302.62 121.70 C 307.95 129.37 312.40 137.81 315.63 146.25 C 318.87 154.69 320.91 163.31 322.03 172.36 C 323.15 181.41 322.91 191.89 322.36 200.56 C 321.81 209.23 321.06 216.41 318.73 224.40 C 316.40 232.39 312.40 240.97 308.38 248.50 C 304.36 256.02 299.72 263.18 294.60 269.53 C 289.47 275.89 283.83 281.80 277.62 286.61 C 271.41 291.43 264.27 296.27 257.32 298.43 C 250.38 300.60 242.88 300.99 235.98 299.61 C 229.08 298.22 221.96 294.54 215.92 290.11 C 209.89 285.68 203.63 279.54 199.76 273.02 C 195.90 266.51 193.56 257.55 192.72 251.04 C 191.88 244.54 192.71 240.17 194.73 234.00 C 196.75 227.83 199.95 219.72 204.83 214.00 C 209.72 208.28 217.05 203.00 224.04 199.70 C 231.03 196.39 239.05 194.42 246.77 194.18 C 254.48 193.93 262.92 195.97 270.34 198.23 C 277.75 200.48 284.79 203.75 291.26 207.71 C 297.73 211.67 304.58 216.06 309.15 222.00 C 313.73 227.95 316.67 236.50 318.72 243.37 C 320.76 250.23 322.57 256.31 321.42 263.20 C 320.28 270.10 316.36 278.63 311.86 284.74 C 307.37 290.85 300.98 295.81 294.45 299.85 C 287.91 303.89 280.01 307.94 272.65 308.97 C 265.29 310.01 257.62 307.87 250.30 306.07 C 242.97 304.27 235.26 301.84 228.72 298.17 C 222.18 294.51 215.56 289.90 211.06 284.08 C 206.56 278.25 203.29 269.72 201.71 263.21 C 200.13 256.71 200.17 251.72 201.60 245.05 C 203.03 238.38 206.17 229.55 210.29 223.17 C 214.40 216.79 220.67 211.72 226.28 206.77 C 231.88 201.82 237.83 197.68 243.94 193.47 C 250.04 189.27 257.13 185.61 262.91 181.53 C 268.69 177.46 273.48 172.97 278.61 169.02 C 283.74 165.07 289.57 161.86 293.70 157.83 C 297.83 153.80 301.38 149.14 303.38 144.82 C 305.38 140.51 305.80 136.62 305.68 131.96 C 305.56 127.29 304.75 121.57 302.65 116.84 C 300.55 112.10 296.22 107.85 293.08 103.55 C 289.95 99.26 287.03 95.14 283.85 91.07 C 280.68 86.99 276.92 82.74 274.04 79.10 C 271.16 75.47 268.69 72.70 266.57 69.26 C 264.46 65.82 262.69 61.86 261.35 58.48 C 260.02 55.10 258.23 52.01 258.56 48.97 C 258.89 45.93 261.31 42.65 263.31 40.24 C 265.31 37.83 267.23 36.34 270.58 34.50 C 273.92 32.66 278.43 29.85 283.38 29.21 C 288.32 28.56 294.37 29.13 300.27 30.62 C 306.16 32.11 312.63 34.23 318.76 38.15 C 324.90 42.08 331.42 47.64 337.09 54.16 C 342.75 60.69 348.28 68.98 352.76 77.29 C 357.24 85.60 361.34 94.76 363.98 104.04 C 366.62 113.32 368.14 123.81 368.59 132.95 C 369.04 142.09 368.71 149.46 366.71 158.86 C 364.70 168.26 361.10 180.25 356.55 189.33 C 352.01 198.40 345.79 205.88 339.44 213.31 C 333.08 220.74 325.95 227.97 318.42 233.91 C 310.89 239.84 301.97 244.08 294.24 248.90 C 286.52 253.72 279.65 258.82 272.07 262.80 C 264.50 266.78 255.79 269.29 248.78 272.78 C 241.77 276.27 235.31 280.07 230.00 283.74 C 224.70 287.41 220.82 290.27 216.95 294.82 C 213.07 299.37 209.22 305.56 206.74 311.04 C 204.26 316.52 203.23 321.99 202.08 327.73 C 200.92 333.47 200.13 339.83 199.82 345.49 C 199.52 351.14 199.80 356.08 200.26 361.65 C 200.72 367.21 202.34 373.54 202.61 378.87 C 202.87 384.21 202.46 389.07 201.85 393.65 C 201.24 398.22 200.38 402.15 198.94 406.32 C 197.51 410.48 195.33 415.23 193.25 418.63 C 191.17 422.03 189.36 424.41 186.49 426.72 C 183.61 429.02 180.22 431.62 176.00 432.45 C 171.79 433.29 166.48 432.86 161.18 431.74 C 155.88 430.61 149.53 427.59 144.21 425.71 C 138.88 423.84 134.04 422.35 129.24 420.50 C 124.43 418.66 120.03 416.25 115.39 414.65 C 110.75 413.05 105.48 411.30 101.38 410.89 C 97.28 410.48 93.78 411.57 90.78 412.20 C 87.78 412.83 85.52 413.44 83.38 414.67 C 81.24 415.90 79.16 417.35 77.94 419.56 C 76.71 421.76 75.81 424.69 76.02 427.88 C 76.23 431.07 77.24 435.25 79.20 438.71 C 81.16 442.16 84.65 445.44 87.76 448.58 C 90.88 451.73 94.29 454.37 97.87 457.58 C 101.45 460.79 105.53 464.74 109.24 467.83 C 112.95 470.93 116.57 473.56 120.13 476.18 C 123.70 478.80 127.68 480.89 130.63 483.54 C 133.58 486.20 135.91 489.47 137.83 492.10 C 139.76 494.73 141.67 497.32 142.19 499.34 C 142.70 501.36 141.42 502.33 140.92 504.20 C 140.42 506.07 139.94 512.66 139.18 510.56 C 138.41 508.47 136.31 501.08 136.31 491.64 C 136.31 482.21 138.42 466.36 139.19 453.96 C 139.97 441.55 140.52 427.76 140.97 417.20 C 141.42 406.64 141.68 399.92 141.90 390.58 C 142.11 381.24 142.53 370.76 142.26 361.14 C 141.99 351.53 141.31 341.91 140.27 332.90 C 139.24 323.89 138.11 314.81 136.06 307.08 C 134.00 299.35 130.84 292.96 127.93 286.53 C 125.02 280.10 121.91 273.94 118.59 268.49 C 115.28 263.04 111.69 257.54 108.05 253.81 C 104.41 250.08 100.65 247.82 96.75 246.10 C 92.85 244.38 88.24 243.90 84.65 243.50 C 81.06 243.09 78.66 242.82 75.20 243.66 C 71.73 244.50 67.25 246.09 63.84 248.54 C 60.43 250.99 56.90 254.40 54.74 258.37 C 52.59 262.34 51.70 267.18 50.91 272.38 C 50.11 277.59 49.70 283.69 49.98 289.61 C 50.27 295.53 50.68 301.89 52.64 307.88 C 54.60 313.88 57.48 319.57 61.75 325.60 C 66.02 331.62 72.29 338.86 78.25 344.03 C 84.22 349.20 90.03 352.68 97.55 356.63 C 105.06 360.59 114.44 365.31 123.35 367.74 C 132.27 370.16 141.65 370.36 151.03 371.19 C 160.42 372.03 170.19 373.24 179.66 372.76 C 189.12 372.28 198.94 370.84 207.82 368.31 C 216.71 365.78 225.21 362.29 232.95 357.56 C 240.68 352.83 248.22 346.78 254.25 339.91 C 260.28 333.04 265.19 323.62 269.14 316.32 C 273.10 309.01 276.57 303.79 277.98 296.08 C 279.39 288.38 278.98 278.22 277.60 270.09 C 276.23 261.95 273.70 254.16 269.74 247.29 C 265.78 240.43 259.64 234.06 253.85 228.88 C 248.05 223.71 241.52 218.80 234.97 216.25 C 228.43 213.70 221.11 213.24 214.58 213.56 C 208.05 213.89 201.82 215.40 195.78 218.20 C 189.75 220.99 183.08 226.00 178.36 230.35 C 173.64 234.70 170.32 238.83 167.46 244.30 C 164.60 249.77 161.65 256.29 161.20 263.16 C 160.75 270.03 162.17 278.31 164.74 285.52 C 167.30 292.72 171.50 300.38 176.59 306.40 C 181.68 312.42 188.32 317.42 195.28 321.65 C 202.24 325.88 210.44 329.63 218.36 331.79 C 226.27 333.94 234.78 335.13 242.79 334.58 C 250.79 334.04 258.52 330.75 266.40 328.51 C 274.29 326.27 283.24 323.75 290.10 321.12 C 296.96 318.48 301.51 315.85 307.54 312.71 C 313.57 309.57 320.23 305.32 326.28 302.26 C 332.33 299.21 338.07 296.30 343.84 294.39 C 349.62 292.48 355.36 291.96 360.93 290.81 C 366.50 289.66 371.95 288.20 377.27 287.47 C 382.60 286.75 388.01 286.90 392.87 286.47 C 397.73 286.05 402.05 285.32 406.43 284.91 C 410.80 284.49 415.29 284.10 419.13 283.99 C 422.96 283.88 425.71 284.70 429.43 284.25 C 433.15 283.81 437.66 283.35 441.43 281.32 C 445.21 279.28 449.26 275.77 452.09 272.05 C 454.91 268.33 457.07 264.18 458.41 258.99 C 459.74 253.80 460.67 247.33 460.09 240.91 C 459.51 234.48 457.56 227.11 454.93 220.45 C 452.29 213.79 449.25 207.40 444.26 200.97 C 439.27 194.54 431.46 187.08 424.99 181.88 C 418.51 176.68 413.17 173.18 405.40 169.77 C 397.63 166.37 387.25 164.42 378.37 161.48 C 369.48 158.53 360.57 155.10 352.09 152.11 C 343.60 149.13 334.98 146.20 327.45 143.56 C 319.92 140.93 313.55 139.04 306.92 136.29 C 300.29 133.54 294.35 129.56 287.68 127.08 C 281.01 124.60 273.51 123.35 266.88 121.42 C 260.26 119.48 253.64 117.49 247.94 115.48 C 242.23 113.46 237.09 111.57 232.64 109.34 C 228.19 107.12 225.30 104.71 221.24 102.14 C 217.19 99.58 212.22 96.85 208.31 93.97 C 204.40 91.08 200.39 88.05 197.77 84.82 C 195.15 81.59 193.14 78.21 192.58 74.60 C 192.02 70.98 192.84 66.54 194.42 63.14 C 196.00 59.75 199.22 57.31 202.07 54.22 C 204.93 51.13 207.75 47.19 211.56 44.59 C 215.36 41.99 220.24 39.91 224.92 38.64 C 229.60 37.36 234.19 37.43 239.63 36.95 C 245.06 36.47 251.18 35.37 257.51 35.76 C 263.84 36.15 270.89 37.73 277.61 39.29 C 284.33 40.85 291.13 42.66 297.84 45.10 C 304.55 47.53 311.33 50.48 317.87 53.90 C 324.41 57.32 331.08 60.58 337.09 65.62 C 343.09 70.66 348.80 77.29 353.89 84.12 C 358.98 90.96 363.89 99.20 367.65 106.64 C 371.41 114.08 373.60 120.77 376.44 128.77 C 379.28 136.77 382.56 146.03 384.69 154.63 C 386.81 163.22 387.80 171.83 389.19 180.33 C 390.58 188.83 391.47 197.95 393.05 205.63 C 394.64 213.31 396.34 220.27 398.69 226.43 C 401.03 232.58 403.84 238.03 407.10 242.56 C 410.36 247.08 414.56 250.36 418.26 253.60 C 421.97 256.83 425.94 260.40 429.33 261.96 C 432.71 263.52 435.19 263.53 438.57 262.93 C 441.94 262.34 446.13 260.21 449.56 258.39 C 453.00 256.58 456.13 253.59 459.16 252.07 C 462.18 250.54 464.84 250.41 467.70 249.26 C 470.56 248.11 473.26 246.28 476.32 245.16 C 479.38 244.05 483.00 243.71 486.06 242.56 C 489.12 241.41 492.21 239.21 494.69 238.26 C 497.17 237.30 498.72 236.53 500.95 236.82 C 503.17 237.10 507.27 238.51 508.04 239.96 C 508.81 241.41 512.45 243.34 505.58 245.51 C 498.72 247.67 479.23 250.59 466.84 252.95 C 454.44 255.32 442.58 257.15 431.24 259.71 C 419.91 262.26 409.04 265.02 398.84 268.28 C 388.64 271.55 378.76 275.18 370.05 279.28 C 361.34 283.39 353.83 288.10 346.57 292.93 C 339.32 297.77 332.30 302.86 326.53 308.28 C 320.77 313.71 315.19 319.99 311.98 325.47 C 308.76 330.96 308.64 335.43 307.25 341.17 C 305.86 346.92 303.86 354.22 303.65 359.92 C 303.43 365.62 304.31 370.76 305.95 375.37 C 307.59 379.97 310.52 383.99 313.51 387.55 C 316.50 391.11 319.76 394.95 323.91 396.73 C 328.06 398.50 333.02 398.82 338.41 398.19 C 343.80 397.56 350.74 396.01 356.26 392.93 C 361.78 389.84 367.16 384.69 371.52 379.70 C 375.87 374.71 379.29 369.41 382.39 362.96 C 385.50 356.52 388.39 348.86 390.14 341.02 C 391.90 333.18 392.06 324.00 392.92 315.91 C 393.78 307.82 394.63 300.17 395.30 292.46 C 395.97 284.74 396.93 277.12 396.95 269.63 C 396.98 262.13 395.70 254.82 395.44 247.46 C 395.19 240.10 395.01 232.09 395.42 225.49 C 395.83 218.88 396.52 212.65 397.90 207.85 C 399.27 203.05 401.28 200.35 403.66 196.69 C 406.04 193.03 409.64 189.02 412.19 185.88 C 414.75 182.74 416.62 180.53 419.02 177.85 C 421.41 175.17 423.80 172.09 426.58 169.82 C 429.36 167.54 433.26 166.72 435.68 164.22 C 438.10 161.73 439.26 157.90 441.09 154.84 C 442.91 151.78 445.24 148.73 446.64 145.88 C 448.03 143.04 448.81 140.91 449.43 137.77 C 450.06 134.64 450.31 130.44 450.36 127.09 C 450.41 123.74 450.35 121.30 449.74 117.68 C 449.13 114.06 447.86 109.49 446.68 105.35 C 445.51 101.22 443.98 96.85 442.70 92.87 C 441.41 88.88 439.91 85.03 438.99 81.43 C 438.08 77.83 437.48 74.24 437.19 71.26 C 436.90 68.27 437.31 66.01 437.24 63.54 C 437.18 61.08 436.36 58.38 436.79 56.46 C 437.23 54.55 438.45 52.89 439.87 52.07 C 441.28 51.26 442.94 51.27 445.29 51.60 C 447.65 51.92 450.96 51.92 453.99 54.02 C 457.01 56.12 460.34 60.41 463.45 64.17 C 466.56 67.94 469.75 71.41 472.65 76.61 C 475.55 81.82 478.78 88.43 480.84 95.42 C 482.90 102.41 484.57 110.08 485.02 118.55 C 485.47 127.02 485.30 136.70 483.54 146.26 C 481.78 155.82 478.39 167.16 474.47 175.92 C 470.55 184.68 466.87 191.08 460.03 198.82 C 453.20 206.56 442.83 215.55 433.45 222.34 C 424.08 229.13 414.01 235.50 403.77 239.57 C 393.53 243.65 382.29 244.97 372.01 246.78 C 361.74 248.59 351.86 249.49 342.13 250.46 C 332.39 251.43 322.80 252.36 313.62 252.59 C 304.44 252.82 295.70 251.80 287.06 251.86 C 278.42 251.92 269.86 252.12 261.79 252.97 C 253.72 253.82 245.55 255.56 238.66 256.96 C 231.78 258.36 226.67 259.13 220.48 261.34 C 214.29 263.55 207.11 266.61 201.53 270.22 C 195.96 273.82 190.92 278.14 187.02 282.96 C 183.11 287.78 180.98 293.93 178.12 299.15 C 175.25 304.36 172.79 309.33 169.83 314.23 C 166.88 319.14 163.68 324.33 160.40 328.59 C 157.11 332.84 153.86 335.98 150.13 339.75 C 146.40 343.52 141.53 348.31 138.00 351.21 C 134.48 354.11 132.39 355.04 128.99 357.14 C 125.59 359.24 121.51 362.24 117.61 363.80 C 113.70 365.36 109.72 366.39 105.56 366.49 C 101.40 366.60 96.83 366.51 92.64 364.45 C 88.46 362.39 83.84 358.61 80.44 354.12 C 77.03 349.62 73.73 344.24 72.22 337.47 C 70.72 330.71 70.02 321.92 71.42 313.50 C 72.81 305.09 76.86 294.83 80.60 286.99 C 84.33 279.16 87.59 273.07 93.84 266.50 C 100.08 259.92 108.90 252.10 118.06 247.55 C 127.21 242.99 138.56 240.38 148.74 239.17 C 158.93 237.96 169.74 238.25 179.15 240.28 C 188.57 242.31 197.64 246.68 205.22 251.35 C 212.79 256.02 219.99 262.13 224.60 268.32 C 229.21 274.52 231.97 281.68 232.88 288.54 C 233.80 295.39 231.90 303.69 230.12 309.47 C 228.33 315.24 226.03 319.14 222.18 323.18 C 218.33 327.22 212.33 331.07 207.02 333.69 C 201.70 336.31 196.12 338.27 190.29 338.92 C 184.45 339.56 177.92 339.26 172.00 337.56 C 166.09 335.86 159.88 333.01 154.79 328.72 C 149.71 324.44 145.14 318.03 141.49 311.86 C 137.85 305.69 134.68 298.89 132.91 291.70 C 131.14 284.51 130.10 276.37 130.86 268.72 C 131.62 261.07 134.68 252.73 137.47 245.81 C 140.27 238.89 142.95 233.28 147.63 227.20 C 152.32 221.12 158.83 214.82 165.57 209.33 C 172.31 203.85 180.03 197.83 188.09 194.28 C 196.15 190.72 205.49 189.14 213.90 187.99 C 222.32 186.84 230.43 186.50 238.58 187.39 C 246.73 188.29 255.11 190.95 262.83 193.35 C 270.54 195.74 277.90 198.95 284.88 201.76 C 291.86 204.57 298.61 207.69 304.69 210.21 C 310.78 212.73 315.58 214.08 321.37 216.87 C 327.15 219.66 333.73 223.49 339.40 226.95 C 345.08 230.41 350.12 234.68 355.42 237.63 C 360.71 240.58 366.01 243.06 371.15 244.66 C 376.30 246.25 381.42 246.96 386.30 247.21 C 391.18 247.45 396.16 247.58 400.44 246.11 C 404.71 244.64 408.68 241.70 411.95 238.40 C 415.21 235.09 417.90 230.40 420.03 226.28 C 422.16 222.17 423.95 218.64 424.71 213.69 C 425.46 208.74 426.12 202.58 424.56 196.61 C 423.00 190.64 419.46 183.76 415.37 177.88 C 411.28 171.99 406.65 165.92 400.02 161.30 C 393.38 156.67 384.54 152.54 375.57 150.12 C 366.61 147.69 356.01 146.35 346.24 146.74 C 336.47 147.13 326.30 149.41 316.96 152.45 C 307.62 155.49 298.09 159.81 290.20 164.96 C 282.30 170.11 275.11 177.14 269.60 183.36 C 264.09 189.58 260.95 194.99 257.11 202.30 C 253.27 209.62 248.76 219.05 246.55 227.27 C 244.35 235.49 244.01 243.64 243.88 251.62 C 243.75 259.59 244.31 267.67 245.77 275.12 C 247.22 282.56 249.46 290.08 252.60 296.28 C 255.74 302.48 260.02 307.58 264.60 312.32 C 269.18 317.07 274.26 321.69 280.08 324.74 C 285.90 327.78 293.60 329.62 299.50 330.61 C 305.40 331.60 309.67 332.02 315.47 330.67 C 321.28 329.32 328.69 326.58 334.32 322.51 C 339.95 318.43 345.52 312.59 349.23 306.23 C 352.94 299.87 355.16 291.85 356.57 284.37 C 357.99 276.88 359.76 268.82 357.72 261.34 C 355.68 253.85 350.48 245.70 344.34 239.46 C 338.20 233.23 328.96 227.17 320.89 223.92 C 312.82 220.68 303.51 220.11 295.92 219.98 C 288.33 219.84 282.26 220.48 275.34 223.13 C 268.42 225.77 260.61 230.68 254.40 235.86 C 248.19 241.05 242.60 247.95 238.09 254.23 C 233.59 260.52 229.37 266.82 227.38 273.58 C 225.39 280.34 225.56 287.89 226.15 294.79 C 226.73 301.68 228.56 308.61 230.88 314.96 C 233.19 321.31 236.60 327.47 240.01 332.90 C 243.42 338.33 247.54 343.40 251.33 347.56 C 255.12 351.73 258.17 354.75 262.75 357.88 C 267.32 361.02 273.06 364.11 278.76 366.39 C 284.46 368.67 290.92 370.28 296.95 371.57 C 302.98 372.86 308.90 373.98 314.94 374.13 C 320.99 374.27 327.23 373.33 333.22 372.46 C 339.20 371.58 345.21 370.29 350.86 368.87 C 356.50 367.45 361.82 366.71 367.11 363.94 C 372.39 361.18 377.97 356.72 382.57 352.28 C 387.17 347.84 391.06 341.84 394.70 337.30 C 398.33 332.77 400.83 329.43 404.35 325.06 C 407.87 320.69 412.06 315.63 415.81 311.08 C 419.56 306.53 423.15 301.18 426.86 297.76 C 430.56 294.33 434.45 291.64 438.06 290.52 C 441.66 289.40 445.19 290.35 448.48 291.03 C 451.78 291.70 455.32 292.30 457.84 294.56 C 460.37 296.81 462.66 300.38 463.64 304.56 C 464.63 308.74 464.84 314.48 463.77 319.66 C 462.70 324.84 460.61 329.88 457.22 335.64 C 453.84 341.39 449.16 348.47 443.45 354.19 C 437.74 359.91 430.79 365.76 422.97 369.97 C 415.15 374.17 405.91 377.38 396.52 379.42 C 387.12 381.45 376.48 382.72 366.61 382.18 C 356.74 381.64 346.69 379.36 337.30 376.19 C 327.91 373.03 318.92 368.46 310.28 363.17 C 301.63 357.89 291.87 350.79 285.44 344.51 C 279.01 338.22 275.55 333.07 271.70 325.48 C 267.85 317.89 264.82 307.68 262.37 298.97 C 259.91 290.25 257.96 281.68 256.97 273.19 C 255.98 264.70 256.45 255.84 256.41 248.01 C 256.38 240.18 257.05 233.25 256.77 226.19 C 256.49 219.14 255.31 212.25 254.74 205.69 C 254.17 199.12 254.40 193.08 253.34 186.80 C 252.28 180.52 249.80 173.44 248.37 168.00 C 246.94 162.55 246.84 158.78 244.76 154.13 C 242.68 149.47 239.08 144.70 235.90 140.06 C 232.71 135.42 228.73 130.72 225.65 126.29 C 222.57 121.86 219.71 117.54 217.42 113.50 C 215.14 109.46 212.67 106.08 211.94 102.05 C 211.22 98.01 212.35 93.41 213.06 89.29 C 213.77 85.18 214.43 81.16 216.21 77.36 C 217.99 73.55 220.81 69.41 223.73 66.47 C 226.65 63.52 230.05 61.70 233.73 59.68 C 237.42 57.66 241.00 55.79 245.83 54.33 C 250.65 52.86 256.40 50.95 262.68 50.89 C 268.97 50.84 276.69 51.97 283.52 53.98 C 290.35 55.99 297.07 59.02 303.69 62.97 C 310.31 66.92 317.30 72.07 323.24 77.68 C 329.18 83.28 334.30 89.23 339.32 96.60 C 344.33 103.96 349.91 112.82 353.34 121.85 C 356.78 130.89 358.73 141.92 359.91 150.79 C 361.10 159.65 361.14 166.21 360.43 175.05 C 359.72 183.88 358.08 194.70 355.63 203.79 C 353.19 212.89 349.48 221.37 345.76 229.61 C 342.05 237.86 337.81 245.80 333.33 253.28 C 328.86 260.76 323.34 267.39 318.91 274.49 C 314.47 281.58 310.59 288.98 306.72 295.87 C 302.85 302.76 299.05 309.32 295.69 315.82 C 292.33 322.32 289.18 329.31 286.54 334.89 C 283.91 340.48 281.16 343.89 279.90 349.32 C 278.63 354.74 278.65 361.90 278.96 367.45 C 279.27 372.99 280.22 377.83 281.78 382.61 C 283.33 387.38 285.72 391.74 288.28 396.11 C 290.85 400.48 293.82 405.50 297.15 408.85 C 300.47 412.20 304.36 414.05 308.22 416.23 C 312.08 418.40 315.99 420.26 320.30 421.90 C 324.62 423.54 329.42 425.08 334.11 426.07 C 338.80 427.05 343.62 428.22 348.45 427.80 C 353.28 427.39 357.82 425.91 363.11 423.59 C 368.39 421.28 375.09 418.00 380.17 413.92 C 385.25 409.83 389.27 404.34 393.57 399.09 C 397.86 393.84 401.80 387.80 405.95 382.40 C 410.10 377.01 414.46 371.54 418.47 366.73 C 422.48 361.92 426.01 357.57 430.02 353.54 C 434.04 349.51 438.79 345.64 442.57 342.55 C 446.34 339.46 449.59 337.52 452.69 334.99 C 455.79 332.46 458.13 329.50 461.14 327.35 C 464.15 325.20 467.84 323.13 470.75 322.08 C 473.66 321.03 476.14 320.45 478.60 321.06 C 481.05 321.66 483.80 323.24 485.47 325.70 C 487.13 328.16 488.47 331.87 488.59 335.82 C 488.71 339.77 488.04 344.41 486.16 349.38 C 484.28 354.36 481.51 360.39 477.30 365.66 C 473.09 370.94 466.90 376.59 460.89 381.02 C 454.88 385.45 449.24 389.18 441.25 392.24 C 433.25 395.30 422.81 398.47 412.93 399.37 C 403.06 400.28 392.17 399.74 382.00 397.69 C 371.83 395.64 361.25 391.98 351.90 387.07 C 342.55 382.16 333.13 375.81 325.91 368.21 C 318.69 360.61 312.96 350.49 308.58 341.44 C 304.21 332.39 301.32 323.22 299.66 313.91 C 298.00 304.61 297.64 293.46 298.61 285.61 C 299.58 277.75 301.77 272.19 305.46 266.78 C 309.15 261.37 315.10 256.24 320.75 253.16 C 326.40 250.08 333.28 248.60 339.36 248.28 C 345.44 247.95 352.10 248.59 357.24 251.21 C 362.39 253.83 367.33 258.73 370.24 263.98 C 373.15 269.23 374.43 276.05 374.72 282.70 C 375.01 289.34 374.88 297.19 371.99 303.85 C 369.10 310.50 363.47 317.44 357.39 322.63 C 351.30 327.82 342.69 332.20 335.46 334.97 C 328.24 337.75 322.13 339.61 314.03 339.29 C 305.93 338.97 294.80 336.84 286.87 333.06 C 278.93 329.27 271.97 323.03 266.43 316.60 C 260.90 310.16 255.99 302.44 253.64 294.44 C 251.29 286.43 251.20 276.48 252.35 268.56 C 253.50 260.64 256.33 252.89 260.55 246.92 C 264.77 240.94 271.17 235.73 277.65 232.72 C 284.13 229.70 293.09 228.78 299.42 228.82 C 305.76 228.85 310.45 229.84 315.66 232.92 C 320.88 236.00 327.11 241.54 330.70 247.30 C 334.29 253.06 336.34 260.46 337.20 267.47 C 338.06 274.48 337.91 282.40 335.85 289.38 C 333.80 296.36 329.56 303.40 324.85 309.34 C 320.15 315.28 314.20 320.86 307.62 325.02 C 301.05 329.17 293.16 332.58 285.42 334.26 C 277.67 335.95 268.46 335.82 261.15 335.14 C 253.83 334.46 248.22 332.92 241.52 330.18 C 234.82 327.45 226.97 323.63 220.94 318.73 C 214.91 313.83 209.29 307.58 205.34 300.77 C 201.39 293.96 199.18 285.58 197.23 277.87 C 195.27 270.17 194.20 262.42 193.60 254.56 C 193.00 246.69 192.12 237.92 193.62 230.67 C 195.13 223.41 198.57 217.10 202.63 211.02 C 206.69 204.93 212.85 198.73 217.99 194.17 C 223.12 189.61 227.39 186.58 233.46 183.66 C 239.52 180.73 247.18 177.97 254.37 176.62 C 261.56 175.27 269.24 174.59 276.60 175.56 C 283.96 176.52 292.14 178.77 298.54 182.40 C 304.94 186.02 310.28 191.15 315.01 197.31 C 319.74 203.48 324.22 211.76 326.91 219.37 C 329.61 226.98 331.04 234.92 331.19 242.97 C 331.33 251.01 330.34 260.09 327.77 267.64 C 325.21 275.19 320.40 282.59 315.80 288.27 C 311.19 293.94 306.37 297.86 300.15 301.67 C 293.93 305.49 286.13 309.67 278.48 311.14 C 270.84 312.62 262.16 312.24 254.27 310.52 C 246.39 308.80 237.94 304.83 231.17 300.81 C 224.41 296.80 218.35 292.10 213.70 286.42 C 209.04 280.74 205.80 273.69 203.25 266.74 C 200.70 259.79 199.57 252.01 198.39 244.71 C 197.21 237.42 197.09 229.33 196.16 222.95 C 195.22 216.58 194.02 212.26 192.77 206.46 C 191.51 200.66 190.05 193.89 188.60 188.14 C 187.15 182.39 186.10 176.87 184.08 171.96 C 182.05 167.05 179.80 162.55 176.46 158.68 C 173.12 154.81 168.37 150.72 164.02 148.75 C 159.66 146.79 155.05 146.72 150.32 146.89 C 145.59 147.06 140.55 148.07 135.63 149.78 C 130.71 151.49 125.15 154.78 120.83 157.16 C 116.50 159.53 113.53 160.99 109.70 164.04 C 105.86 167.09 101.73 172.31 97.81 175.44 C 93.89 178.57 89.80 180.78 86.18 182.81 C 82.57 184.84 79.69 186.46 76.11 187.61 C 72.52 188.76 68.35 189.70 64.67 189.69 C 60.99 189.67 57.00 188.74 54.03 187.52 C 51.06 186.29 49.15 184.19 46.84 182.35 C 44.53 180.52 42.31 178.84 40.17 176.52 C 38.02 174.19 35.76 170.21 34.00 168.40 C 32.23 166.60 31.32 166.41 29.57 165.70 C 27.82 165.00 25.64 164.08 23.51 164.16 C 21.37 164.24 18.99 164.41 16.74 166.17 C 14.49 167.94 12.04 171.28 10.01 174.74 C 7.98 178.19 6.10 182.06 4.55 186.93 C 3.00 191.79 -2.73 198.53 0.69 203.94 C 4.11 209.34 14.85 214.90 25.08 219.38 C 35.31 223.86 50.95 228.15 62.07 230.80 C 73.18 233.45 81.22 234.12 91.74 235.30 C 102.26 236.49 114.44 236.59 125.19 237.91 C 135.94 239.22 146.38 240.69 156.25 243.18 C 166.12 245.68 175.94 249.16 184.42 252.89 C 192.91 256.61 200.06 260.60 207.17 265.54 C 214.28 270.47 222.16 276.33 227.06 282.49 C 231.97 288.65 234.46 295.78 236.59 302.51 C 238.73 309.23 239.45 316.81 239.89 322.83 C 240.32 328.86 240.08 333.23 239.19 338.66 C 238.31 344.08 237.43 350.59 234.58 355.38 C 231.72 360.17 226.92 364.52 222.06 367.40 C 217.20 370.27 211.35 372.28 205.42 372.63 C 199.50 372.99 192.78 371.92 186.52 369.52 C 180.25 367.11 173.48 362.89 167.84 358.19 C 162.20 353.49 156.47 348.03 152.65 341.33 C 148.83 334.62 146.69 325.29 144.94 317.93 C 143.20 310.58 142.35 304.75 142.18 297.17 C 142.01 289.59 143.15 280.40 143.92 272.46 C 144.68 264.51 146.87 256.74 146.78 249.49 C 146.68 242.24 144.87 235.39 143.36 228.96 C 141.86 222.53 139.98 216.07 137.75 210.90 C 135.53 205.74 133.24 201.39 130.00 197.96 C 126.76 194.53 122.43 191.98 118.33 190.32 C 114.24 188.67 109.74 188.04 105.45 188.01 C 101.16 187.98 96.64 188.59 92.60 190.13 C 88.55 191.67 84.82 194.17 81.16 197.24 C 77.50 200.30 73.65 204.09 70.62 208.50 C 67.58 212.90 64.82 217.80 62.97 223.65 C 61.12 229.51 59.52 236.53 59.51 243.63 C 59.50 250.74 60.89 258.83 62.90 266.29 C 64.91 273.75 67.25 281.53 71.58 288.39 C 75.91 295.25 81.86 301.61 88.90 307.44 C 95.95 313.28 105.96 319.25 113.83 323.38 C 121.70 327.51 127.80 329.70 136.12 332.24 C 144.44 334.79 154.66 336.67 163.76 338.67 C 172.87 340.67 182.02 342.42 190.74 344.25 C 199.46 346.07 208.21 347.53 216.08 349.62 C 223.95 351.71 231.38 353.70 237.93 356.77 C 244.49 359.83 250.70 363.85 255.42 368.02 C 260.14 372.20 263.88 377.18 266.25 381.81 C 268.62 386.43 269.75 391.67 269.64 395.78 C 269.52 399.90 267.55 402.81 265.57 406.49 C 263.60 410.17 261.12 414.53 257.79 417.86 C 254.46 421.19 249.56 423.54 245.58 426.49 C 241.59 429.45 237.26 432.58 233.88 435.59 C 230.49 438.60 227.03 441.29 225.28 444.55 C 223.52 447.81 223.10 451.75 223.35 455.16 C 223.60 458.58 224.87 461.69 226.79 465.03 C 228.71 468.37 232.07 472.20 234.88 475.19 C 237.69 478.18 240.33 481.11 243.65 482.95 C 246.97 484.79 249.65 485.98 254.78 486.23 C 259.92 486.48 267.69 485.78 274.45 484.46 C 281.21 483.14 288.41 481.44 295.34 478.32 C 302.27 475.20 309.72 471.26 316.02 465.76 C 322.32 460.26 328.03 453.03 333.13 445.32 C 338.24 437.61 343.40 428.69 346.64 419.48 C 349.89 410.28 351.43 400.05 352.60 390.09 C 353.77 380.14 354.08 369.01 353.66 359.75 C 353.25 350.48 352.89 343.06 350.12 334.53 C 347.34 326.00 342.57 316.35 337.04 308.57 C 331.51 300.79 324.53 293.14 316.93 287.85 C 309.34 282.55 299.69 278.54 291.48 276.81 C 283.27 275.08 275.20 275.81 267.66 277.46 C 260.13 279.11 252.39 282.63 246.27 286.70 C 240.16 290.76 234.67 296.26 230.95 301.85 C 227.22 307.43 224.78 314.43 223.90 320.19 C 223.01 325.95 224.00 330.76 225.64 336.43 C 227.29 342.11 229.91 349.17 233.76 354.24 C 237.61 359.32 243.24 363.39 248.75 366.90 C 254.26 370.42 260.62 373.38 266.81 375.32 C 273.00 377.25 279.57 377.43 285.90 378.51 C 292.22 379.59 298.54 381.11 304.77 381.79 C 311.00 382.48 317.60 382.15 323.30 382.64 C 329.00 383.13 334.37 383.83 338.97 384.72 C 343.57 385.62 347.08 386.54 350.89 388.01 C 354.71 389.47 358.70 391.18 361.87 393.54 C 365.04 395.90 367.62 399.01 369.93 402.18 C 372.24 405.35 374.12 409.19 375.73 412.56 C 377.33 415.93 377.97 419.67 379.56 422.41 C 381.15 425.16 383.09 427.18 385.27 429.04 C 387.45 430.90 389.78 432.51 392.63 433.59 C 395.47 434.67 398.61 436.03 402.33 435.50 C 406.05 434.98 411.19 432.43 414.95 430.43 C 418.70 428.44 420.96 426.60 424.85 423.53 C 428.74 420.45 434.23 416.68 438.27 411.98 C 442.30 407.29 445.62 400.91 449.07 395.36 C 452.51 389.81 456.01 384.27 458.94 378.71 C 461.88 373.15 464.36 367.77 466.68 362.02 C 469.00 356.27 470.92 349.81 472.84 344.23 C 474.75 338.64 476.42 333.77 478.17 328.50 C 479.92 323.24 481.55 316.96 483.33 312.63 C 485.12 308.30 486.63 305.37 488.86 302.54 C 491.09 299.71 494.20 297.34 496.72 295.65 C 499.23 293.96 501.76 292.88 503.94 292.40 C 506.11 291.91 512.94 292.16 509.77 292.76 C 506.60 293.36 495.20 294.83 484.89 296.01 C 474.58 297.19 459.77 298.68 447.91 299.82 C 436.04 300.96 424.61 301.01 413.70 302.84 C 402.80 304.68 391.65 308.40 382.47 310.83 C 373.29 313.25 366.83 314.99 358.63 317.37 C 350.42 319.76 341.65 322.37 333.25 325.14 C 324.86 327.91 316.20 331.09 308.24 333.99 C 300.28 336.88 292.85 340.00 285.49 342.51 C 278.13 345.03 270.78 346.92 264.08 349.08 C 257.38 351.24 251.47 353.52 245.32 355.48 C 239.16 357.44 233.10 358.89 227.17 360.82 C 221.25 362.75 215.08 365.82 209.76 367.06 C 204.43 368.30 200.71 367.99 195.23 368.26 C 189.75 368.53 182.76 369.21 176.88 368.69 C 170.99 368.17 165.49 367.01 159.92 365.14 C 154.36 363.28 148.67 361.12 143.47 357.49 C 138.27 353.85 132.73 348.73 128.73 343.32 C 124.72 337.92 121.88 331.60 119.45 325.06 C 117.01 318.51 114.73 311.40 114.14 304.03 C 113.55 296.66 114.68 288.80 115.90 280.84 C 117.12 272.88 118.93 263.61 121.48 256.25 C 124.02 248.90 126.69 243.22 131.18 236.72 C 135.67 230.22 141.76 222.83 148.42 217.23 C 155.07 211.64 162.97 206.92 171.12 203.17 C 179.27 199.42 188.48 196.36 197.33 194.72 C 206.18 193.08 215.73 193.14 224.22 193.35 C 232.71 193.57 240.31 194.39 248.26 196.02 C 256.21 197.65 264.38 201.46 271.91 203.13 C 279.43 204.80 287.02 204.97 293.42 206.05 C 299.81 207.13 304.24 208.56 310.27 209.61 C 316.30 210.65 323.41 211.44 329.61 212.32 C 335.80 213.20 341.46 214.58 347.42 214.86 C 353.37 215.14 359.65 213.81 365.32 213.99 C 370.98 214.16 376.39 216.28 381.41 215.89 C 386.43 215.50 390.98 213.27 395.44 211.64 C 399.89 210.02 404.32 208.17 408.14 206.16 C 411.96 204.15 415.33 201.68 418.38 199.58 C 421.43 197.49 423.63 195.84 426.43 193.57 C 429.23 191.30 432.08 188.02 435.18 185.95 C 438.29 183.88 442.17 182.85 445.08 181.16 C 447.98 179.47 450.08 176.88 452.62 175.80 C 455.16 174.72 457.24 174.11 460.30 174.69 C 463.36 175.26 467.84 177.53 470.99 179.25 C 474.15 180.97 476.49 182.37 479.23 185.01 C 481.98 187.65 485.12 191.65 487.46 195.10 C 489.79 198.55 491.64 201.61 493.26 205.72 C 494.88 209.84 496.57 214.41 497.17 219.80 C 497.77 225.19 497.26 231.71 496.85 238.05 C 496.44 244.40 496.40 250.84 494.71 257.88 C 493.02 264.92 490.22 273.05 486.70 280.31 C 483.19 287.58 479.04 294.73 473.64 301.46 C 468.23 308.19 461.37 314.79 454.28 320.68 C 447.18 326.57 439.66 332.33 431.06 336.80 C 422.46 341.26 411.52 344.91 402.67 347.49 C 393.81 350.06 386.87 351.16 377.93 352.24 C 368.99 353.32 358.71 354.35 349.02 353.98 C 339.32 353.61 329.03 352.47 319.75 350.02 C 310.47 347.58 301.57 343.77 293.32 339.33 C 285.08 334.89 277.28 329.47 270.28 323.39 C 263.28 317.31 255.93 310.16 251.30 302.85 C 246.67 295.54 243.99 287.45 242.52 279.52 C 241.05 271.59 241.36 262.49 242.48 255.28 C 243.61 248.07 245.84 242.03 249.26 236.27 C 252.68 230.50 257.47 224.44 263.02 220.71 C 268.57 216.97 275.84 214.90 282.56 213.87 C 289.28 212.85 296.61 212.90 303.35 214.57 C 310.09 216.24 318.05 219.07 322.99 223.91 C 327.93 228.75 330.95 236.45 332.99 243.61 C 335.03 250.77 335.70 259.14 335.23 266.87 C 334.76 274.60 332.26 283.22 330.18 290.00 C 328.09 296.78 325.73 301.49 322.73 307.57 C 319.72 313.64 316.10 320.42 312.15 326.45 C 308.20 332.49 303.00 338.00 299.02 343.77 C 295.04 349.54 291.27 355.52 288.28 361.09 C 285.29 366.65 283.65 372.22 281.07 377.16 C 278.48 382.11 274.73 386.31 272.76 390.76 C 270.80 395.22 269.76 399.48 269.27 403.89 C 268.78 408.30 269.16 412.96 269.83 417.23 C 270.51 421.50 271.65 426.26 273.31 429.51 C 274.97 432.75 276.71 434.28 279.79 436.69 C 282.86 439.10 287.05 442.55 291.77 443.98 C 296.50 445.40 302.32 446.32 308.14 445.23 C 313.96 444.14 320.78 441.42 326.71 437.44 C 332.64 433.46 338.99 428.28 343.71 421.36 C 348.43 414.43 352.78 405.14 355.05 395.88 C 357.31 386.63 358.20 375.79 357.31 365.83 C 356.43 355.87 352.83 344.82 349.73 336.13 C 346.64 327.43 343.65 320.91 338.75 313.66 C 333.84 306.41 326.88 299.02 320.32 292.62 C 313.75 286.22 306.57 280.41 299.36 275.27 C 292.14 270.14 284.65 265.46 277.02 261.83 C 269.40 258.20 261.25 254.91 253.60 253.50 C 245.94 252.10 238.51 252.62 231.08 253.41 C 223.66 254.20 215.36 255.54 209.03 258.26 C 202.70 260.97 197.21 265.45 193.12 269.69 C 189.03 273.93 187.36 278.48 184.50 283.71 C 181.64 288.95 178.67 295.25 175.98 301.10 C 173.30 306.95 170.71 313.47 168.40 318.83 C 166.08 324.19 164.30 328.38 162.08 333.25 C 159.86 338.13 157.10 343.06 155.07 348.10 C 153.05 353.13 152.29 359.23 149.93 363.46 C 147.57 367.68 144.48 370.83 140.92 373.43 C 137.36 376.04 132.43 378.00 128.58 379.08 C 124.73 380.15 121.79 379.94 117.80 379.88 C 113.82 379.83 109.18 379.45 104.67 378.76 C 100.16 378.06 95.00 376.42 90.75 375.71 C 86.51 375.00 82.99 374.80 79.21 374.48 C 75.43 374.17 71.30 373.67 68.07 373.82 C 64.85 373.97 62.35 374.46 59.85 375.37 C 57.34 376.28 54.64 377.29 53.03 379.28 C 51.43 381.27 50.15 383.92 50.23 387.32 C 50.32 390.72 52.37 395.83 53.53 399.68 C 54.69 403.52 56.19 406.76 57.19 410.38 C 58.19 413.99 58.73 417.96 59.53 421.38 C 60.33 424.81 61.56 427.97 61.98 430.92 C 62.40 433.86 62.10 436.28 62.07 439.06 C 62.04 441.83 62.08 445.37 61.80 447.56 C 61.51 449.76 60.74 450.42 60.38 452.25 C 60.02 454.08 60.04 456.76 59.65 458.56 C 59.25 460.36 58.93 462.08 58.00 463.03 C 57.06 463.98 55.52 463.93 54.03 464.25 C 52.54 464.57 50.98 465.61 49.08 464.97 C 47.18 464.33 45.13 461.99 42.64 460.41 C 40.15 458.83 36.87 457.79 34.14 455.48 C 31.41 453.16 28.81 450.60 26.25 446.51 C 23.70 442.41 20.82 436.89 18.80 430.91 C 16.77 424.93 15.20 418.06 14.09 410.63 C 12.98 403.21 12.44 393.84 12.12 386.34 C 11.80 378.84 11.27 373.56 12.19 365.64 C 13.10 357.71 15.16 347.85 17.60 338.78 C 20.03 329.70 23.69 320.33 26.81 311.17 C 29.92 302.01 33.94 292.08 36.28 283.81 C 38.61 275.53 39.77 268.56 40.80 261.51 C 41.83 254.45 42.54 247.52 42.44 241.48 C 42.34 235.43 41.21 229.99 40.19 225.23 C 39.18 220.47 38.06 216.44 36.34 212.92 C 34.62 209.40 31.81 206.08 29.88 204.13 C 27.94 202.17 26.93 201.61 24.75 201.17 C 22.57 200.72 19.43 200.78 16.77 201.45 C 14.11 202.12 11.14 202.97 8.81 205.19 C 6.48 207.41 4.22 210.54 2.81 214.75 C 1.40 218.95 0.10 224.23 0.36 230.43 C 0.62 236.62 2.31 244.67 4.36 251.91 C 6.42 259.15 8.94 266.77 12.71 273.86 C 16.48 280.96 21.92 288.29 26.99 294.48 C 32.06 300.67 36.22 305.51 43.12 311.02 C 50.02 316.52 59.85 322.23 68.38 327.53 C 76.91 332.84 85.98 338.31 94.29 342.84 C 102.60 347.37 110.81 350.45 118.26 354.69 C 125.71 358.93 132.83 363.62 138.98 368.27 C 145.14 372.92 150.34 377.95 155.18 382.58 C 160.02 387.20 165.18 391.69 168.03 396.02 C 170.89 400.35 171.81 404.91 172.33 408.57 C 172.84 412.22 172.70 415.18 171.11 417.95 C 169.51 420.71 165.85 422.84 162.75 425.17 C 159.65 427.49 156.27 430.13 152.51 431.91 C 148.75 433.69 143.67 434.56 140.18 435.86 C 136.68 437.17 134.19 438.16 131.55 439.74 C 128.90 441.33 126.16 443.11 124.30 445.37 C 122.45 447.63 120.63 450.52 120.41 453.33 C 120.19 456.14 121.83 459.41 122.97 462.24 C 124.12 465.06 125.17 467.34 127.27 470.28 C 129.37 473.22 132.01 477.00 135.57 479.88 C 139.13 482.75 143.20 485.58 148.63 487.54 C 154.05 489.50 161.19 491.10 168.12 491.66 C 175.06 492.22 182.39 492.18 190.25 490.91 C 198.11 489.64 206.76 487.51 215.28 484.04 C 223.80 480.56 233.37 476.11 241.38 470.06 C 249.39 464.01 257.19 456.17 263.35 447.75 C 269.52 439.34 275.31 428.64 278.37 419.56 C 281.43 410.47 281.67 402.68 281.72 393.25 C 281.77 383.83 281.25 372.52 278.66 363.00 C 276.06 353.49 271.21 343.81 266.14 336.18 C 261.08 328.55 254.79 322.88 248.25 317.21 C 241.72 311.54 233.59 306.53 226.93 302.16 C 220.27 297.79 214.54 293.94 208.29 290.99 C 202.03 288.04 195.45 286.51 189.39 284.47 C 183.33 282.43 177.23 280.50 171.92 278.74 C 166.61 276.99 162.55 276.16 157.55 273.94 C 152.55 271.71 146.81 268.39 141.94 265.41 C 137.07 262.43 132.37 259.86 128.32 256.05 C 124.28 252.24 120.82 247.27 117.69 242.55 C 114.55 237.83 112.19 232.64 109.49 227.73 C 106.80 222.83 104.18 217.30 101.49 213.14 C 98.81 208.98 96.45 205.90 93.39 202.77 C 90.33 199.65 86.25 196.16 83.12 194.39 C 79.98 192.63 77.77 191.87 74.58 192.19 C 71.38 192.51 67.36 194.38 63.95 196.31 C 60.53 198.25 57.34 200.83 54.08 203.79 C 50.81 206.75 46.99 210.01 44.37 214.05 C 41.75 218.10 40.50 223.58 38.36 228.05 C 36.23 232.52 33.48 236.41 31.57 240.85 C 29.65 245.29 28.36 250.19 26.89 254.69 C 25.42 259.18 24.42 263.76 22.75 267.82 C 21.08 271.88 18.51 276.23 16.89 279.04 C 15.27 281.86 14.83 283.23 13.02 284.72 C 11.20 286.20 8.14 287.33 6.00 287.97 C 3.86 288.61 -5.39 288.27 0.18 288.56 C 5.75 288.86 27.05 288.56 39.44 289.74 C 51.83 290.93 63.36 292.75 74.52 295.68 C 85.69 298.61 97.18 302.76 106.44 307.32 C 115.69 311.88 123.02 317.77 130.04 323.06 C 137.06 328.34 143.99 333.94 148.54 339.05 C 153.10 344.16 155.23 348.69 157.35 353.69 C 159.47 358.70 161.11 364.42 161.28 369.07 C 161.45 373.73 160.58 378.21 158.38 381.61 C 156.18 385.00 151.65 387.52 148.07 389.46 C 144.50 391.40 141.09 393.16 136.91 393.26 C 132.73 393.35 127.68 391.09 123.00 390.02 C 118.33 388.95 113.29 387.55 108.86 386.85 C 104.43 386.16 100.10 385.79 96.43 385.85 C 92.77 385.92 89.52 386.26 86.87 387.25 C 84.21 388.24 82.40 389.54 80.52 391.79 C 78.64 394.03 76.40 397.61 75.59 400.69 C 74.78 403.78 74.80 406.66 75.67 410.30 C 76.53 413.94 77.48 418.32 80.79 422.51 C 84.10 426.70 90.11 431.64 95.51 435.45 C 100.91 439.26 106.18 442.98 113.17 445.39 C 120.16 447.80 129.49 449.66 137.43 449.92 C 145.37 450.17 152.01 449.02 160.83 446.89 C 169.64 444.76 180.77 441.52 190.32 437.12 C 199.87 432.73 209.58 427.01 218.14 420.52 C 226.70 414.02 234.75 406.18 241.68 398.16 C 248.61 390.15 255.49 381.64 259.72 372.41 C 263.95 363.17 265.98 352.64 267.07 342.74 C 268.17 332.85 266.86 322.45 266.30 313.04 C 265.74 303.62 265.37 294.80 263.71 286.24 C 262.05 277.67 258.66 268.91 256.34 261.65 C 254.02 254.40 251.84 249.33 249.80 242.69 C 247.76 236.05 245.67 228.66 244.10 221.82 C 242.53 214.98 241.62 208.29 240.37 201.65 C 239.11 195.01 237.53 188.21 236.55 181.97 C 235.56 175.73 235.15 170.00 234.46 164.23 C 233.77 158.46 233.71 152.69 232.41 147.36 C 231.11 142.02 229.05 136.76 226.66 132.21 C 224.28 127.66 221.10 123.32 218.09 120.08 C 215.08 116.83 212.08 115.18 208.62 112.74 C 205.16 110.29 201.86 106.79 197.32 105.40 C 192.77 104.02 186.70 104.10 181.34 104.44 C 175.98 104.77 170.74 105.44 165.16 107.42 C 159.59 109.40 153.22 111.99 147.88 116.33 C 142.53 120.68 137.03 126.99 133.10 133.50 C 129.16 140.01 126.25 147.40 124.26 155.40 C 122.27 163.39 120.78 173.18 121.17 181.48 C 121.55 189.78 122.85 197.01 126.56 205.19 C 130.26 213.38 137.07 222.93 143.42 230.57 C 149.77 238.20 156.83 245.20 164.65 251.01 C 172.47 256.81 181.80 262.10 190.34 265.41 C 198.88 268.73 207.42 270.99 215.89 270.88 C 224.35 270.77 233.36 267.53 241.13 264.77 C 248.89 262.01 256.56 259.07 262.47 254.30 C 268.39 249.53 273.48 242.20 276.62 236.16 C 279.75 230.13 280.76 224.40 281.28 218.09 C 281.79 211.77 282.03 204.37 279.71 198.28 C 277.39 192.19 272.48 186.23 267.35 181.55 C 262.23 176.88 255.71 172.25 248.97 170.23 C 242.24 168.21 234.07 167.72 226.96 169.43 C 219.85 171.15 212.19 175.51 206.32 180.52 C 200.44 185.52 195.26 192.51 191.70 199.47 C 188.13 206.43 185.23 214.35 184.93 222.29 C 184.63 230.22 187.28 239.73 189.90 247.07 C 192.51 254.40 195.95 260.04 200.62 266.29 C 205.29 272.55 211.50 279.72 217.92 284.60 C 224.34 289.48 231.91 293.08 239.13 295.55 C 246.35 298.02 253.61 298.99 261.25 299.43 C 268.88 299.87 277.50 299.73 284.95 298.19 C 292.41 296.66 299.84 293.83 305.97 290.20 C 312.09 286.57 317.19 281.51 321.68 276.41 C 326.18 271.31 330.30 265.34 332.96 259.60 C 335.63 253.86 336.26 248.06 337.67 241.96 C 339.09 235.87 341.15 229.56 341.43 223.04 C 341.72 216.52 340.74 209.23 339.36 202.81 C 337.98 196.40 336.06 190.42 333.13 184.53 C 330.21 178.65 326.30 172.71 321.82 167.53 C 317.34 162.34 311.88 157.26 306.26 153.42 C 300.64 149.58 294.66 146.80 288.10 144.48 C 281.55 142.15 273.70 139.97 266.91 139.46 C 260.13 138.95 254.38 140.47 247.38 141.42 C 240.38 142.37 232.14 142.49 224.92 145.15 C 217.71 147.80 210.43 152.17 204.10 157.35 C 197.77 162.54 191.42 169.05 186.94 176.26 C 182.47 183.47 179.42 192.42 177.26 200.61 C 175.10 208.80 173.97 216.99 173.98 225.40 C 174.00 233.80 174.89 243.08 177.34 251.04 C 179.80 259.01 184.03 266.54 188.73 273.17 C 193.43 279.81 199.74 286.34 205.55 290.88 C 211.36 295.41 216.59 298.23 223.61 300.38 C 230.62 302.54 239.75 304.34 247.64 303.82 C 255.53 303.29 263.70 300.55 270.95 297.22 C 278.20 293.89 285.40 288.92 291.15 283.85 C 296.90 278.78 301.70 273.27 305.48 266.79 C 309.25 260.30 312.56 252.33 313.81 244.92 C 315.07 237.52 314.30 229.76 313.02 222.38 C 311.75 215.00 308.47 207.01 306.14 200.63 C 303.82 194.25 301.94 189.56 299.08 184.11 C 296.22 178.66 292.04 173.20 289.00 167.95 C 285.97 162.69 282.97 157.92 280.87 152.59 C 278.77 147.27 277.07 141.31 276.40 135.99 C 275.73 130.66 275.79 125.37 276.85 120.63 C 277.92 115.88 279.83 110.98 282.78 107.52 C 285.73 104.05 290.01 101.52 294.54 99.85 C 299.07 98.19 304.81 97.58 309.98 97.52 C 315.15 97.45 319.93 98.49 325.55 99.45 C 331.17 100.40 337.90 101.74 343.68 103.26 C 349.46 104.78 354.87 106.75 360.24 108.54 C 365.62 110.33 370.92 112.58 375.93 113.99 C 380.94 115.40 385.68 116.14 390.29 117.01 C 394.90 117.88 399.88 119.20 403.61 119.22 C 407.34 119.24 410.26 118.75 412.68 117.13 C 415.09 115.52 417.03 112.15 418.11 109.54 C 419.18 106.94 419.35 104.82 419.14 101.51 C 418.93 98.19 417.97 93.72 416.84 89.65 C 415.70 85.58 414.04 80.87 412.34 77.10 C 410.65 73.32 408.86 70.59 406.67 67.01 C 404.48 63.44 401.36 59.19 399.21 55.66 C 397.07 52.13 395.16 48.82 393.79 45.83 C 392.43 42.84 391.41 40.09 391.01 37.73 C 390.60 35.37 390.32 33.23 391.37 31.67 C 392.43 30.11 395.15 28.91 397.32 28.35 C 399.49 27.79 401.49 27.69 404.41 28.30 C 407.32 28.91 411.19 30.38 414.83 32.01 C 418.46 33.64 422.21 35.45 426.20 38.08 C 430.20 40.71 434.73 43.81 438.81 47.80 C 442.89 51.79 447.33 56.76 450.68 62.00 C 454.02 67.25 456.06 73.20 458.87 79.25 C 461.68 85.30 464.84 91.47 467.52 98.29 C 470.20 105.12 473.10 113.39 474.97 120.18 C 476.84 126.97 477.56 132.12 478.74 139.04 C 479.92 145.97 481.51 153.89 482.03 161.71 C 482.54 169.54 481.69 178.48 481.81 186.01 C 481.93 193.55 482.14 200.41 482.73 206.92 C 483.32 213.43 484.44 219.40 485.37 225.05 C 486.30 230.71 486.73 236.25 488.33 240.86 C 489.93 245.47 492.87 249.15 494.99 252.70 C 497.11 256.25 499.11 260.21 501.06 262.15 C 503.02 264.10 504.92 265.28 506.72 264.37 C 508.52 263.46 517.60 259.09 511.87 256.71 C 506.13 254.33 485.07 250.87 472.31 250.09 C 459.56 249.31 446.95 250.18 435.33 252.01 C 423.70 253.85 412.99 257.47 402.57 261.12 C 392.15 264.77 381.93 269.42 372.81 273.92 C 363.69 278.42 355.42 282.98 347.85 288.14 C 340.29 293.30 332.84 299.75 327.41 304.91 C 321.98 310.06 319.50 313.66 315.27 319.09 C 311.04 324.52 305.37 331.71 302.05 337.49 C 298.73 343.27 297.07 348.31 295.33 353.78 C 293.58 359.25 292.61 365.13 291.58 370.32 C 290.54 375.52 290.45 380.12 289.12 384.97 C 287.79 389.81 285.94 394.81 283.58 399.41 C 281.22 404.01 278.22 408.45 274.97 412.54 C 271.73 416.64 267.85 420.62 264.12 423.99 C 260.40 427.36 256.81 430.58 252.64 432.76 C 248.47 434.94 244.57 436.69 239.11 437.07 C 233.65 437.44 226.44 436.39 219.88 435.00 C 213.31 433.62 206.20 432.06 199.72 428.77 C 193.24 425.49 186.54 421.05 181.03 415.31 C 175.52 409.57 170.35 402.29 166.67 394.34 C 162.98 386.39 160.47 377.02 158.93 367.63 C 157.39 358.23 156.76 347.50 157.44 337.98 C 158.12 328.46 159.96 318.55 163.02 310.52 C 166.08 302.49 170.11 296.19 175.81 289.81 C 181.52 283.43 189.33 276.55 197.28 272.25 C 205.22 267.94 214.90 265.23 223.47 263.98 C 232.04 262.74 240.56 263.48 248.70 264.78 C 256.84 266.08 265.09 269.07 272.30 271.78 C 279.51 274.49 285.73 277.91 291.97 281.04 C 298.21 284.16 303.99 287.59 309.76 290.53 C 315.54 293.48 321.73 296.13 326.62 298.72 C 331.51 301.30 334.15 304.04 339.11 306.06 C 344.07 308.08 350.67 310.03 356.36 310.84 C 362.05 311.65 367.75 311.73 373.25 310.94 C 378.76 310.15 384.39 307.66 389.39 306.10 C 394.39 304.55 398.55 303.08 403.24 301.62 C 407.92 300.17 413.15 298.10 417.49 297.35 C 421.84 296.60 425.63 296.30 429.31 297.12 C 433.00 297.94 436.64 299.72 439.60 302.26 C 442.56 304.80 445.70 308.65 447.05 312.38 C 448.41 316.12 447.95 319.94 447.72 324.66 C 447.50 329.37 447.77 335.15 445.71 340.65 C 443.65 346.15 439.62 352.15 435.37 357.67 C 431.12 363.19 425.92 368.73 420.22 373.78 C 414.53 378.84 407.47 383.54 401.19 388.00 C 394.92 392.45 388.61 396.58 382.57 400.52 C 376.53 404.45 370.48 407.77 364.93 411.62 C 359.37 415.47 353.63 420.01 349.23 423.60 C 344.83 427.20 341.36 429.78 338.54 433.18 C 335.71 436.59 333.31 440.52 332.28 444.04 C 331.24 447.56 331.01 451.41 332.31 454.29 C 333.62 457.18 336.65 459.87 340.11 461.34 C 343.58 462.82 348.67 463.23 353.11 463.15 C 357.55 463.06 362.18 462.08 366.76 460.82 C 371.33 459.57 376.04 457.72 380.55 455.62 C 385.05 453.52 389.85 450.96 393.79 448.22 C 397.73 445.49 400.39 442.09 404.17 439.20 C 407.95 436.31 412.46 433.30 416.46 430.89 C 420.47 428.49 424.47 426.40 428.23 424.76 C 431.98 423.11 435.80 421.75 438.97 421.02 C 442.14 420.29 444.94 420.45 447.26 420.39 C 449.58 420.33 451.08 420.11 452.88 420.67 C 454.69 421.23 456.63 422.79 458.09 423.75 C 459.55 424.71 460.13 425.88 461.64 426.43 C 463.15 426.98 465.04 427.70 467.16 427.06 C 469.27 426.43 471.85 424.12 474.30 422.62 C 476.75 421.12 479.26 419.93 481.85 418.07 C 484.44 416.21 487.35 413.97 489.86 411.47 C 492.36 408.97 494.52 406.53 496.89 403.06 C 499.25 399.59 501.94 395.25 504.07 390.64 C 506.19 386.04 511.64 380.70 509.62 375.43 C 507.61 370.15 501.40 363.86 491.99 359.00 C 482.59 354.13 464.75 349.26 453.18 346.24 C 441.62 343.22 433.23 341.88 422.61 340.89 C 411.99 339.89 399.82 339.65 389.47 340.27 C 379.11 340.89 369.60 342.69 360.49 344.58 C 351.39 346.47 342.47 348.65 334.85 351.62 C 327.23 354.58 320.35 358.11 314.77 362.39 C 309.20 366.67 305.19 372.51 301.41 377.30 C 297.62 382.09 294.22 386.42 292.07 391.13 C 289.93 395.84 288.83 401.31 288.53 405.57 C 288.24 409.84 289.39 412.87 290.31 416.73 C 291.23 420.59 292.34 425.28 294.06 428.75 C 295.79 432.23 297.46 435.13 300.64 437.58 C 303.83 440.03 308.30 442.90 313.16 443.45 C 318.03 444.00 323.93 442.85 329.84 440.87 C 335.76 438.89 342.74 435.43 348.65 431.56 C 354.56 427.69 360.22 422.89 365.30 417.64 C 370.38 412.39 375.20 406.06 379.13 400.06 C 383.06 394.06 386.29 388.64 388.87 381.63 C 391.44 374.61 393.59 366.63 394.60 357.98 C 395.60 349.33 396.75 338.76 394.89 329.73 C 393.03 320.71 388.56 311.97 383.44 303.81 C 378.32 295.66 371.63 287.05 364.18 280.79 C 356.73 274.53 347.27 269.99 338.74 266.26 C 330.21 262.53 325.28 261.04 312.99 258.41 C 300.70 255.79 272.99 251.82 264.99 250.50" fill="none" stroke="#fff" stroke-width="4.48" stroke-opacity="1" stroke-linecap="round" stroke-linejoin="round"/>
  </g>
</svg>