<?xml version="1.0" encoding="UTF-8"?>
<svg xmlns="http://www.w3.org/2000/svg" width="512" height="512" viewBox="0 0 512 512">
  <rect width="100%" height="100%" fill="#000"/>
  <g>
    <path d="M 256.00 256.00 C 256.77 258.66 259.40 266.78 260.60 271.97 C 261.80 277.16 262.81 282.49 263.21 287.13 C 263.61 291.77 264.17 295.46 262.98 299.79 C 261.79 304.11 258.39 308.91 256.05 313.09 C 253.71 317.26 252.10 321.40 248.94 324.84 C 245.79 328.27 241.03 331.50 237.14 333.68 C 233.24 335.86 229.77 336.92 225.58 337.92 C 221.40 338.93 216.70 339.70 212.02 339.72 C 207.35 339.75 202.00 338.97 197.54 338.06 C 193.09 337.16 189.90 336.56 185.28 334.27 C 180.67 331.99 174.03 327.54 169.86 324.36 C 165.70 321.19 163.19 318.19 160.31 315.22 C 157.43 312.25 154.87 310.03 152.60 306.55 C 150.33 303.06 149.13 298.06 146.67 294.31 C 144.20 290.56 140.67 287.78 137.83 284.04 C 135.00 280.29 132.05 274.71 129.68 271.83 C 127.31 268.95 126.10 268.23 123.62 266.74 C 121.14 265.25 117.84 263.63 114.80 262.86 C 111.77 262.09 108.42 262.06 105.43 262.12 C 102.44 262.17 99.81 262.41 96.87 263.18 C 93.93 263.95 90.33 265.63 87.79 266.73 C 85.26 267.84 83.66 268.49 81.67 269.81 C 79.67 271.13 77.64 272.40 75.82 274.65 C 74.00 276.90 72.00 280.35 70.75 283.31 C 69.50 286.26 68.86 288.80 68.32 292.40 C 67.78 296.01 67.37 301.20 67.53 304.95 C 67.69 308.69 67.93 310.93 69.28 314.88 C 70.63 318.82 73.66 324.56 75.63 328.60 C 77.61 332.64 78.52 335.25 81.13 339.09 C 83.74 342.93 87.52 348.08 91.31 351.63 C 95.10 355.18 98.58 357.63 103.88 360.40 C 109.18 363.17 116.50 365.75 123.08 368.25 C 129.67 370.74 137.10 373.50 143.40 375.38 C 149.70 377.25 155.03 378.68 160.88 379.50 C 166.73 380.31 172.18 380.22 178.50 380.25 C 184.83 380.28 191.68 380.54 198.84 379.66 C 206.01 378.77 215.11 376.45 221.48 374.94 C 227.84 373.43 231.63 371.70 237.04 370.60 C 242.46 369.49 248.58 368.96 253.95 368.31 C 259.33 367.66 264.07 367.53 269.29 366.72 C 274.51 365.90 279.68 364.87 285.30 363.41 C 290.91 361.94 297.90 359.28 302.99 357.92 C 308.08 356.56 311.69 355.51 315.83 355.26 C 319.97 355.00 324.17 355.61 327.84 356.41 C 331.51 357.21 334.86 358.75 337.86 360.04 C 340.85 361.34 342.95 361.96 345.81 364.19 C 348.66 366.43 353.12 370.76 354.98 373.45 C 356.83 376.14 356.77 377.38 356.94 380.33 C 357.11 383.28 357.01 388.09 355.99 391.15 C 354.98 394.20 352.93 396.27 350.85 398.68 C 348.78 401.09 347.38 403.27 343.56 405.61 C 339.74 407.96 332.77 411.27 327.93 412.77 C 323.08 414.26 319.26 414.53 314.48 414.59 C 309.71 414.65 304.61 414.17 299.29 413.13 C 293.98 412.09 288.52 410.57 282.61 408.36 C 276.69 406.15 270.12 403.55 263.81 399.89 C 257.50 396.22 250.10 390.92 244.75 386.37 C 239.39 381.81 235.44 377.07 231.66 372.56 C 227.87 368.06 225.24 363.80 222.04 359.33 C 218.84 354.86 215.24 350.85 212.46 345.76 C 209.69 340.66 208.31 333.92 205.38 328.78 C 202.45 323.64 198.06 320.31 194.89 314.93 C 191.71 309.55 189.19 301.59 186.33 296.52 C 183.47 291.46 180.84 288.16 177.75 284.52 C 174.65 280.89 171.23 277.76 167.77 274.72 C 164.30 271.67 160.67 268.86 156.96 266.28 C 153.26 263.69 149.41 261.04 145.56 259.19 C 141.71 257.34 137.65 256.17 133.85 255.17 C 130.06 254.17 126.14 254.06 122.77 253.21 C 119.40 252.35 116.90 250.00 113.62 250.05 C 110.33 250.10 106.16 252.26 103.07 253.52 C 99.97 254.79 97.84 256.46 95.03 257.63 C 92.22 258.81 89.17 259.42 86.20 260.58 C 83.23 261.74 79.72 263.00 77.21 264.59 C 74.70 266.17 72.87 267.68 71.15 270.10 C 69.43 272.51 67.89 275.95 66.89 279.09 C 65.88 282.22 65.60 284.84 65.14 288.93 C 64.67 293.01 63.99 299.45 64.09 303.62 C 64.20 307.79 64.72 309.88 65.77 313.95 C 66.83 318.02 68.96 323.66 70.42 328.05 C 71.88 332.44 72.51 336.57 74.53 340.29 C 76.55 344.01 78.86 346.42 82.54 350.36 C 86.23 354.30 92.11 360.08 96.65 363.95 C 101.20 367.82 104.87 370.76 109.82 373.59 C 114.77 376.41 120.71 378.87 126.34 380.88 C 131.98 382.88 137.63 384.40 143.61 385.62 C 149.59 386.84 154.72 388.63 162.23 388.21 C 169.74 387.80 181.20 385.12 188.65 383.15 C 196.09 381.18 200.84 379.47 206.91 376.41 C 212.98 373.35 219.25 368.53 225.07 364.78 C 230.88 361.03 236.71 357.66 241.78 353.91 C 246.86 350.17 251.36 346.72 255.51 342.32 C 259.66 337.92 262.35 332.56 266.71 327.53 C 271.06 322.51 277.19 316.49 281.65 312.18 C 286.10 307.88 289.84 305.56 293.42 301.70 C 297.01 297.85 299.94 293.10 303.16 289.06 C 306.37 285.03 309.96 281.31 312.73 277.49 C 315.50 273.67 316.45 270.47 319.76 266.15 C 323.08 261.82 328.96 255.36 332.61 251.54 C 336.26 247.72 338.37 245.60 341.66 243.20 C 344.95 240.81 348.92 239.17 352.34 237.15 C 355.77 235.13 358.56 232.95 362.19 231.10 C 365.83 229.25 370.14 226.95 374.14 226.05 C 378.15 225.16 382.69 225.17 386.22 225.73 C 389.74 226.28 392.08 228.10 395.30 229.38 C 398.52 230.66 402.74 231.72 405.53 233.42 C 408.33 235.12 410.05 236.90 412.07 239.59 C 414.08 242.28 416.52 245.61 417.62 249.57 C 418.73 253.53 418.28 259.06 418.71 263.36 C 419.14 267.66 419.67 271.41 420.20 275.37 C 420.74 279.34 421.79 283.26 421.90 287.14 C 422.01 291.03 421.31 294.67 420.84 298.70 C 420.38 302.72 420.96 306.90 419.12 311.28 C 417.28 315.66 413.12 320.61 409.82 324.98 C 406.51 329.35 403.54 333.74 399.30 337.52 C 395.06 341.30 389.35 344.70 384.39 347.67 C 379.44 350.64 375.22 353.77 369.57 355.34 C 363.92 356.91 357.75 356.63 350.48 357.11 C 343.21 357.60 332.89 358.92 325.96 358.25 C 319.03 357.57 314.70 355.16 308.90 353.05 C 303.09 350.95 296.50 349.24 291.14 345.60 C 285.78 341.96 280.73 336.20 276.75 331.22 C 272.76 326.25 269.45 321.10 267.23 315.75 C 265.02 310.39 264.92 305.34 263.44 299.10 C 261.97 292.86 259.26 284.49 258.38 278.31 C 257.49 272.12 257.95 267.43 258.13 261.99 C 258.32 256.54 258.95 250.54 259.49 245.63 C 260.03 240.72 260.96 237.18 261.39 232.54 C 261.82 227.90 262.20 222.98 262.06 217.76 C 261.92 212.54 260.74 206.22 260.54 201.23 C 260.34 196.24 261.47 192.15 260.88 187.82 C 260.29 183.49 258.17 179.22 256.98 175.25 C 255.78 171.28 255.19 167.57 253.69 164.03 C 252.19 160.48 249.77 157.29 247.96 153.98 C 246.15 150.67 245.19 146.90 242.82 144.17 C 240.44 141.44 237.18 139.16 233.70 137.60 C 230.22 136.04 225.48 135.85 221.94 134.82 C 218.40 133.80 216.07 131.71 212.46 131.45 C 208.85 131.20 204.72 132.56 200.27 133.28 C 195.82 134.01 190.40 134.48 185.77 135.81 C 181.13 137.14 176.61 138.77 172.48 141.26 C 168.35 143.75 164.36 147.52 161.00 150.73 C 157.64 153.95 154.51 156.35 152.31 160.56 C 150.12 164.77 149.21 169.85 147.82 175.99 C 146.43 182.12 144.03 190.61 143.98 197.38 C 143.93 204.14 146.25 210.14 147.54 216.57 C 148.84 223.00 149.68 230.02 151.75 235.97 C 153.82 241.92 156.93 247.35 159.97 252.28 C 163.02 257.22 165.73 260.87 170.01 265.57 C 174.28 270.28 180.41 276.79 185.64 280.51 C 190.87 284.24 195.71 285.58 201.37 287.93 C 207.03 290.27 213.86 293.62 219.59 294.59 C 225.33 295.55 230.16 294.51 235.77 293.71 C 241.38 292.91 248.09 291.62 253.26 289.79 C 258.43 287.96 262.02 285.81 266.77 282.71 C 271.52 279.61 278.07 275.36 281.76 271.20 C 285.45 267.04 287.00 262.48 288.92 257.75 C 290.83 253.03 292.00 247.45 293.23 242.84 C 294.45 238.23 296.01 234.58 296.28 230.12 C 296.54 225.65 296.58 221.23 294.84 216.05 C 293.10 210.86 288.70 203.97 285.85 199.03 C 283.01 194.09 280.60 189.77 277.75 186.38 C 274.90 182.99 272.13 181.14 268.76 178.67 C 265.38 176.20 261.51 173.29 257.51 171.56 C 253.51 169.82 249.74 169.38 244.75 168.27 C 239.76 167.17 233.07 165.02 227.55 164.92 C 222.04 164.83 216.69 166.33 211.66 167.70 C 206.64 169.07 201.99 171.25 197.39 173.14 C 192.79 175.02 188.45 176.76 184.05 179.02 C 179.66 181.28 175.65 183.52 171.02 186.69 C 166.39 189.87 160.11 194.33 156.26 198.06 C 152.41 201.80 150.19 204.80 147.93 209.10 C 145.66 213.40 144.05 219.30 142.66 223.85 C 141.28 228.41 140.11 231.99 139.61 236.44 C 139.11 240.89 139.46 244.67 139.66 250.55 C 139.85 256.42 139.66 265.65 140.78 271.68 C 141.91 277.71 143.90 282.11 146.42 286.73 C 148.94 291.36 152.44 295.24 155.93 299.44 C 159.43 303.64 163.38 308.36 167.40 311.93 C 171.41 315.50 175.48 318.11 180.04 320.86 C 184.59 323.61 189.01 326.88 194.74 328.43 C 200.46 329.98 208.28 330.08 214.37 330.17 C 220.46 330.26 225.81 330.18 231.29 328.96 C 236.77 327.74 241.75 325.23 247.22 322.85 C 252.69 320.46 258.91 317.69 264.11 314.66 C 269.32 311.63 274.53 308.85 278.44 304.65 C 282.35 300.46 284.99 294.57 287.57 289.49 C 290.14 284.41 292.71 279.60 293.89 274.19 C 295.08 268.77 295.26 262.53 294.69 257.00 C 294.12 251.46 292.66 246.04 290.46 240.99 C 288.27 235.94 285.06 231.40 281.51 226.68 C 277.97 221.96 273.35 216.16 269.17 212.66 C 265.00 209.16 260.89 207.23 256.45 205.68 C 252.02 204.13 247.49 203.59 242.54 203.34 C 237.59 203.10 231.68 203.37 226.78 204.21 C 221.88 205.06 218.09 206.12 213.16 208.41 C 208.23 210.71 201.32 214.93 197.21 217.99 C 193.10 221.04 191.04 223.40 188.51 226.74 C 185.98 230.09 183.84 233.88 182.03 238.04 C 180.23 242.20 178.88 246.88 177.68 251.71 C 176.47 256.54 175.33 261.47 174.81 267.04 C 174.29 272.61 173.96 279.40 174.57 285.13 C 175.17 290.86 176.50 296.46 178.43 301.40 C 180.36 306.35 183.63 310.74 186.12 314.77 C 188.61 318.81 190.50 321.97 193.35 325.61 C 196.19 329.26 199.00 333.20 203.21 336.66 C 207.41 340.12 214.33 343.54 218.58 346.39 C 222.83 349.25 224.33 351.37 228.68 353.80 C 233.03 356.23 239.84 359.22 244.69 360.97 C 249.54 362.73 253.47 363.71 257.78 364.33 C 262.10 364.95 266.13 364.97 270.58 364.72 C 275.02 364.47 279.15 364.41 284.46 362.82 C 289.78 361.23 297.30 357.91 302.49 355.19 C 307.67 352.47 311.41 349.58 315.57 346.51 C 319.74 343.44 324.31 340.53 327.48 336.76 C 330.65 333.00 332.39 328.51 334.57 323.90 C 336.76 319.30 338.85 315.24 340.59 309.12 C 342.33 302.99 344.54 293.94 345.01 287.15 C 345.49 280.36 344.30 274.09 343.44 268.39 C 342.58 262.69 341.44 258.40 339.86 252.96 C 338.28 247.52 336.13 241.31 333.95 235.76 C 331.77 230.21 329.39 225.28 326.80 219.68 C 324.21 214.08 321.28 206.79 318.40 202.16 C 315.53 197.54 312.87 195.49 309.56 191.94 C 306.25 188.39 302.54 184.11 298.54 180.86 C 294.53 177.61 289.81 174.66 285.53 172.45 C 281.26 170.24 278.12 169.11 272.89 167.58 C 267.67 166.05 259.70 164.20 254.17 163.27 C 248.64 162.35 244.70 162.05 239.72 162.05 C 234.75 162.04 229.52 162.55 224.33 163.26 C 219.13 163.98 213.39 164.38 208.56 166.36 C 203.72 168.34 200.11 171.46 195.31 175.15 C 190.52 178.84 183.45 183.98 179.80 188.50 C 176.16 193.03 175.04 197.31 173.46 202.29 C 171.88 207.28 170.96 212.92 170.30 218.40 C 169.64 223.89 168.49 229.74 169.49 235.19 C 170.49 240.64 173.33 245.36 176.30 251.11 C 179.27 256.86 183.00 265.12 187.31 269.69 C 191.62 274.26 197.20 275.86 202.18 278.51 C 207.15 281.16 212.08 283.74 217.17 285.59 C 222.27 287.43 226.86 288.90 232.75 289.57 C 238.64 290.24 246.70 290.50 252.52 289.62 C 258.34 288.74 262.33 286.76 267.66 284.30 C 272.99 281.85 279.51 278.42 284.50 274.89 C 289.49 271.35 294.10 267.26 297.61 263.09 C 301.13 258.92 303.82 254.48 305.60 249.87 C 307.37 245.25 308.05 240.18 308.28 235.42 C 308.52 230.66 308.53 226.57 307.01 221.28 C 305.49 215.98 302.07 208.36 299.18 203.65 C 296.30 198.94 293.80 196.03 289.68 193.03 C 285.56 190.03 279.51 187.43 274.46 185.65 C 269.42 183.87 264.68 183.03 259.40 182.35 C 254.11 181.67 248.41 181.45 242.76 181.59 C 237.11 181.73 230.87 182.11 225.48 183.19 C 220.09 184.27 215.22 186.28 210.42 188.08 C 205.62 189.87 201.31 191.64 196.67 193.96 C 192.02 196.29 187.03 199.18 182.55 202.04 C 178.07 204.89 173.48 206.86 169.79 211.08 C 166.11 215.30 162.68 222.09 160.46 227.35 C 158.24 232.61 157.49 237.52 156.49 242.65 C 155.49 247.79 154.89 253.00 154.47 258.15 C 154.04 263.30 153.97 268.50 153.95 273.54 C 153.92 278.58 153.68 282.84 154.31 288.39 C 154.94 293.94 156.36 301.66 157.73 306.84 C 159.10 312.02 159.99 315.05 162.51 319.45 C 165.04 323.86 169.50 329.48 172.88 333.26 C 176.27 337.04 179.08 339.34 182.82 342.15 C 186.55 344.96 190.15 347.29 195.30 350.12 C 200.44 352.95 208.11 357.26 213.70 359.15 C 219.30 361.04 223.71 360.90 228.86 361.46 C 234.01 362.02 239.66 361.56 244.62 362.52 C 249.58 363.48 254.07 365.83 258.60 367.22 C 263.13 368.61 267.62 369.34 271.78 370.89 C 275.95 372.45 279.43 374.81 283.56 376.56 C 287.69 378.30 292.76 379.64 296.58 381.34 C 300.40 383.05 303.57 384.60 306.48 386.77 C 309.39 388.94 311.64 392.25 314.04 394.35 C 316.43 396.46 318.83 397.38 320.86 399.41 C 322.89 401.45 325.16 403.60 326.22 406.57 C 327.28 409.53 326.99 413.84 327.22 417.18 C 327.44 420.52 327.83 423.58 327.60 426.62 C 327.37 429.65 326.70 432.52 325.83 435.39 C 324.96 438.26 323.67 441.46 322.38 443.84 C 321.09 446.22 319.79 447.14 318.10 449.67 C 316.41 452.20 314.18 456.56 312.25 459.04 C 310.32 461.51 308.30 462.75 306.51 464.52 C 304.72 466.29 302.88 467.76 301.51 469.65 C 300.14 471.53 299.23 473.68 298.29 475.82 C 297.36 477.95 296.31 480.60 295.90 482.47 C 295.49 484.33 295.76 485.23 295.83 486.99 C 295.89 488.76 295.76 491.63 296.28 493.05 C 296.80 494.47 297.58 494.59 298.95 495.51 C 300.32 496.43 302.48 497.65 304.50 498.58 C 306.51 499.51 308.18 501.10 311.04 501.11 C 313.91 501.13 318.09 499.30 321.67 498.67 C 325.26 498.03 329.08 497.96 332.56 497.29 C 336.04 496.63 339.10 496.09 342.55 494.67 C 346.01 493.25 349.43 491.03 353.28 488.78 C 357.14 486.53 361.57 484.82 365.71 481.16 C 369.85 477.51 374.23 471.53 378.12 466.86 C 382.02 462.19 385.77 457.83 389.08 453.14 C 392.39 448.46 395.49 443.57 397.99 438.73 C 400.48 433.89 402.47 429.64 404.06 424.10 C 405.65 418.56 406.76 412.11 407.55 405.48 C 408.33 398.86 408.06 391.67 408.77 384.33 C 409.48 376.99 411.10 367.88 411.81 361.45 C 412.52 355.02 412.58 351.24 413.03 345.74 C 413.48 340.24 414.17 333.80 414.53 328.45 C 414.88 323.11 414.99 318.44 415.18 313.68 C 415.37 308.92 414.86 304.99 415.65 299.90 C 416.45 294.81 418.57 287.85 419.93 283.12 C 421.28 278.39 422.19 275.13 423.78 271.52 C 425.38 267.91 427.58 264.74 429.49 261.49 C 431.41 258.23 433.37 254.71 435.26 252.00 C 437.15 249.29 438.61 247.58 440.82 245.22 C 443.03 242.87 446.04 239.92 448.52 237.86 C 451.00 235.81 453.97 234.83 455.71 232.90 C 457.46 230.97 457.78 227.86 458.99 226.27 C 460.20 224.67 461.61 224.18 462.98 223.33 C 464.34 222.48 465.66 222.70 467.18 221.16 C 468.70 219.62 470.56 216.13 472.08 214.09 C 473.60 212.06 475.00 210.59 476.30 208.95 C 477.59 207.31 478.62 206.48 479.86 204.27 C 481.10 202.06 482.91 198.30 483.76 195.71 C 484.60 193.12 485.02 191.68 484.92 188.72 C 484.83 185.77 483.77 181.53 483.17 177.99 C 482.58 174.45 481.91 171.06 481.34 167.48 C 480.76 163.89 480.49 159.96 479.73 156.48 C 478.97 153.00 477.08 149.66 476.78 146.61 C 476.47 143.56 477.94 140.69 477.92 138.16 C 477.90 135.64 476.78 133.13 476.67 131.46 C 476.56 129.78 476.77 128.65 477.28 128.13 C 477.79 127.62 478.83 128.29 479.74 128.37 C 480.66 128.46 481.75 128.17 482.79 128.63 C 483.82 129.08 484.60 129.96 485.97 131.09 C 487.33 132.21 489.45 133.17 490.98 135.37 C 492.50 137.58 493.48 141.16 495.14 144.32 C 496.81 147.48 499.58 150.86 500.97 154.32 C 502.35 157.77 503.02 161.17 503.46 165.05 C 503.90 168.94 503.48 173.21 503.62 177.63 C 503.75 182.05 504.39 185.79 504.25 191.56 C 504.11 197.33 503.68 205.90 502.78 212.25 C 501.88 218.59 500.53 224.36 498.84 229.64 C 497.16 234.93 495.19 238.96 492.65 243.95 C 490.12 248.94 487.13 254.40 483.61 259.59 C 480.09 264.77 476.58 269.66 471.54 275.05 C 466.50 280.45 459.51 287.32 453.36 291.96 C 447.21 296.59 441.00 300.00 434.66 302.85 C 428.32 305.70 421.81 307.04 415.30 309.06 C 408.79 311.07 401.75 312.83 395.60 314.94 C 389.44 317.05 385.31 319.82 378.38 321.71 C 371.45 323.59 361.19 325.24 354.01 326.26 C 346.82 327.28 341.60 327.04 335.27 327.84 C 328.93 328.63 322.11 329.80 316.00 331.03 C 309.89 332.27 304.09 334.01 298.63 335.22 C 293.17 336.43 288.66 336.82 283.26 338.30 C 277.85 339.78 270.75 341.64 266.22 344.11 C 261.68 346.59 259.71 350.13 256.02 353.16 C 252.33 356.18 247.01 359.67 244.07 362.26 C 241.14 364.84 240.82 366.28 238.39 368.66 C 235.95 371.04 232.60 374.04 229.47 376.54 C 226.34 379.04 222.88 381.06 219.60 383.68 C 216.32 386.30 212.91 389.89 209.80 392.27 C 206.69 394.65 203.73 396.22 200.95 397.96 C 198.16 399.71 196.13 402.06 193.09 402.75 C 190.05 403.44 186.45 402.03 182.71 402.11 C 178.97 402.19 174.93 404.15 170.66 403.22 C 166.39 402.29 161.31 399.02 157.09 396.55 C 152.86 394.07 149.01 391.19 145.31 388.38 C 141.60 385.58 137.95 383.19 134.84 379.73 C 131.74 376.26 128.92 372.46 126.67 367.57 C 124.43 362.69 122.62 356.82 121.38 350.44 C 120.15 344.05 119.10 335.66 119.27 329.27 C 119.43 322.88 120.64 317.87 122.37 312.07 C 124.10 306.26 127.33 300.46 129.66 294.44 C 131.99 288.42 132.66 281.38 136.35 275.94 C 140.05 270.49 145.92 266.33 151.82 261.78 C 157.72 257.22 165.67 252.20 171.78 248.60 C 177.88 245.01 182.75 242.59 188.45 240.22 C 194.14 237.84 200.01 235.05 205.95 234.34 C 211.89 233.64 218.18 234.92 224.08 235.98 C 229.97 237.04 235.51 237.91 241.33 240.69 C 247.15 243.48 254.45 248.74 259.01 252.69 C 263.57 256.64 265.84 260.53 268.67 264.37 C 271.50 268.22 273.80 271.98 276.00 275.76 C 278.20 279.53 280.19 283.05 281.88 287.00 C 283.56 290.95 284.74 294.71 286.13 299.47 C 287.51 304.22 289.95 310.61 290.20 315.51 C 290.46 320.41 288.06 324.50 287.64 328.89 C 287.23 333.27 287.34 337.96 287.72 341.83 C 288.09 345.71 289.31 348.59 289.91 352.13 C 290.51 355.67 290.63 359.40 291.31 363.05 C 291.99 366.70 292.98 370.15 293.97 374.03 C 294.97 377.91 296.29 382.49 297.28 386.32 C 298.28 390.16 299.03 393.50 299.95 397.03 C 300.86 400.55 302.34 404.09 302.78 407.46 C 303.21 410.83 302.85 414.43 302.57 417.25 C 302.28 420.08 301.38 421.63 301.04 424.39 C 300.71 427.15 301.01 431.41 300.55 433.82 C 300.10 436.23 298.69 436.49 298.30 438.86 C 297.92 441.23 298.66 445.41 298.25 448.04 C 297.83 450.66 296.98 452.45 295.82 454.60 C 294.66 456.75 293.67 458.79 291.27 460.95 C 288.86 463.10 284.14 465.64 281.41 467.53 C 278.68 469.43 276.85 470.68 274.87 472.32 C 272.90 473.96 271.50 475.98 269.55 477.37 C 267.60 478.77 265.30 479.24 263.17 480.72 C 261.04 482.20 258.80 484.51 256.77 486.27 C 254.74 488.03 252.22 489.78 251.00 491.29 C 249.78 492.80 249.32 494.02 249.44 495.33 C 249.56 496.65 250.94 497.65 251.72 499.17 C 252.49 500.69 252.98 503.22 254.07 504.47 C 255.16 505.72 255.77 505.72 258.25 506.67 C 260.73 507.62 265.43 509.59 268.93 510.17 C 272.44 510.75 275.64 510.34 279.28 510.15 C 282.92 509.96 287.01 509.80 290.77 509.05 C 294.53 508.30 297.79 506.96 301.84 505.64 C 305.88 504.32 310.34 502.83 315.02 501.11 C 319.69 499.39 325.68 497.72 329.91 495.31 C 334.13 492.90 336.83 490.07 340.38 486.62 C 343.93 483.18 347.88 478.65 351.21 474.64 C 354.55 470.63 357.17 466.85 360.39 462.56 C 363.61 458.28 367.05 453.84 370.53 448.92 C 374.01 444.00 377.99 439.43 381.24 433.03 C 384.49 426.63 387.83 417.30 390.02 410.52 C 392.22 403.75 393.30 398.25 394.44 392.37 C 395.57 386.48 396.13 381.50 396.83 375.22 C 397.53 368.93 398.33 361.19 398.64 354.66 C 398.95 348.12 399.14 343.24 398.67 336.03 C 398.21 328.82 396.93 318.52 395.87 311.39 C 394.81 304.25 393.74 299.20 392.31 293.22 C 390.89 287.25 389.36 281.00 387.30 275.51 C 385.25 270.02 382.75 265.28 379.98 260.28 C 377.21 255.29 374.51 250.72 370.68 245.54 C 366.85 240.36 361.17 233.95 357.02 229.20 C 352.86 224.46 349.55 220.71 345.75 217.08 C 341.94 213.44 338.34 210.51 334.21 207.39 C 330.08 204.27 325.61 201.09 320.98 198.36 C 316.36 195.62 312.02 193.15 306.47 191.00 C 300.91 188.85 293.43 187.33 287.64 185.45 C 281.85 183.57 277.06 181.42 271.72 179.72 C 266.38 178.01 260.60 176.64 255.60 175.21 C 250.60 173.78 246.03 172.55 241.71 171.14 C 237.39 169.73 234.53 168.44 229.67 166.74 C 224.82 165.05 217.32 162.43 212.56 160.97 C 207.81 159.51 204.90 159.36 201.13 157.99 C 197.36 156.62 193.00 154.76 189.92 152.77 C 186.84 150.79 185.20 148.27 182.64 146.08 C 180.08 143.89 177.30 142.31 174.57 139.63 C 171.84 136.95 168.80 132.73 166.23 129.99 C 163.67 127.24 161.34 125.09 159.18 123.17 C 157.03 121.25 155.56 119.92 153.30 118.48 C 151.04 117.05 148.01 115.66 145.62 114.57 C 143.24 113.49 141.18 112.95 138.96 111.97 C 136.74 110.98 134.96 108.84 132.30 108.66 C 129.63 108.49 126.01 109.95 122.99 110.92 C 119.97 111.90 117.26 113.30 114.16 114.50 C 111.06 115.69 107.47 116.12 104.36 118.10 C 101.25 120.09 98.49 123.69 95.50 126.41 C 92.50 129.14 89.17 130.68 86.41 134.45 C 83.64 138.22 80.98 144.87 78.93 149.06 C 76.87 153.25 75.82 156.11 74.06 159.60 C 72.31 163.09 69.96 166.41 68.37 169.99 C 66.79 173.58 66.45 177.45 64.54 181.10 C 62.64 184.75 59.32 188.14 56.96 191.89 C 54.60 195.65 52.52 200.37 50.38 203.65 C 48.24 206.93 46.10 209.50 44.13 211.56 C 42.16 213.62 40.50 214.95 38.57 216.00 C 36.63 217.05 34.53 217.65 32.52 217.87 C 30.50 218.09 28.30 218.02 26.48 217.31 C 24.67 216.61 23.18 215.17 21.65 213.64 C 20.12 212.11 17.86 210.26 17.29 208.11 C 16.72 205.96 18.31 203.33 18.22 200.74 C 18.14 198.15 16.56 195.46 16.76 192.55 C 16.96 189.64 18.06 187.22 19.41 183.28 C 20.75 179.33 22.97 173.34 24.84 168.89 C 26.70 164.44 27.98 160.81 30.61 156.57 C 33.24 152.32 36.38 146.92 40.61 143.41 C 44.85 139.89 50.64 138.07 56.03 135.45 C 61.42 132.83 66.94 130.03 72.94 127.70 C 78.94 125.36 84.80 122.70 92.01 121.42 C 99.23 120.14 108.65 119.52 116.21 120.02 C 123.76 120.51 130.40 122.12 137.34 124.38 C 144.28 126.64 151.68 129.78 157.84 133.57 C 163.99 137.37 168.61 143.08 174.27 147.14 C 179.94 151.21 185.75 153.15 191.85 157.95 C 197.95 162.75 205.02 170.34 210.88 175.93 C 216.74 181.52 222.26 186.88 227.01 191.49 C 231.77 196.10 234.90 200.15 239.41 203.58 C 243.93 207.01 249.16 209.25 254.10 212.07 C 259.05 214.90 263.54 218.09 269.07 220.53 C 274.59 222.98 281.90 225.34 287.25 226.73 C 292.60 228.12 296.39 228.42 301.16 228.87 C 305.94 229.32 311.13 229.52 315.92 229.43 C 320.71 229.34 325.81 229.53 329.89 228.32 C 333.97 227.11 336.93 224.77 340.42 222.20 C 343.91 219.62 348.25 215.66 350.82 212.89 C 353.39 210.13 354.32 208.48 355.83 205.58 C 357.34 202.68 358.58 198.94 359.87 195.49 C 361.16 192.05 362.85 188.52 363.56 184.93 C 364.27 181.34 363.86 177.68 364.13 173.95 C 364.40 170.23 365.47 166.25 365.18 162.60 C 364.90 158.95 363.79 155.07 362.40 152.06 C 361.01 149.05 359.67 147.11 356.82 144.51 C 353.97 141.92 349.26 139.40 345.30 136.50 C 341.34 133.61 337.27 129.87 333.07 127.14 C 328.87 124.42 323.71 122.49 320.08 120.18 C 316.46 117.86 314.75 115.47 311.31 113.26 C 307.88 111.05 303.57 109.16 299.48 106.92 C 295.39 104.69 290.35 101.74 286.78 99.84 C 283.21 97.95 281.08 97.09 278.04 95.55 C 275.01 94.02 271.56 93.16 268.55 90.62 C 265.54 88.09 261.84 83.09 259.98 80.36 C 258.11 77.62 258.25 76.73 257.38 74.21 C 256.50 71.70 255.75 68.12 254.75 65.25 C 253.74 62.38 252.52 59.50 251.36 56.98 C 250.21 54.47 248.86 52.38 247.83 50.18 C 246.80 47.98 246.16 45.73 245.18 43.78 C 244.21 41.84 243.02 40.32 241.99 38.52 C 240.95 36.71 239.72 34.92 238.97 32.96 C 238.22 30.99 237.96 28.74 237.48 26.71 C 237.00 24.67 237.00 22.70 236.10 20.75 C 235.19 18.79 233.07 16.17 232.06 14.95 C 231.05 13.73 230.90 14.44 230.04 13.43 C 229.18 12.41 227.84 10.52 226.91 8.85 C 225.99 7.18 225.53 4.69 224.51 3.41 C 223.48 2.13 222.21 -2.57 220.76 1.15 C 219.32 4.87 217.11 17.49 215.83 25.73 C 214.55 33.98 213.67 42.33 213.09 50.63 C 212.51 58.92 212.96 67.90 212.37 75.53 C 211.79 83.16 210.78 89.31 209.58 96.41 C 208.37 103.51 206.64 110.26 205.14 118.15 C 203.65 126.04 202.18 136.18 200.60 143.76 C 199.02 151.33 197.47 157.71 195.66 163.60 C 193.86 169.48 192.02 174.32 189.78 179.07 C 187.54 183.83 185.22 188.08 182.22 192.15 C 179.22 196.22 175.62 200.16 171.77 203.50 C 167.92 206.83 163.32 210.11 159.11 212.15 C 154.91 214.19 150.25 214.66 146.54 215.74 C 142.83 216.83 140.22 217.95 136.85 218.67 C 133.49 219.38 129.95 219.48 126.33 220.02 C 122.71 220.55 118.26 221.05 115.14 221.87 C 112.01 222.70 110.64 223.60 107.58 224.96 C 104.51 226.31 99.84 227.88 96.76 230.01 C 93.67 232.13 91.54 235.17 89.07 237.71 C 86.61 240.24 84.09 242.14 81.98 245.21 C 79.88 248.28 77.93 253.06 76.44 256.13 C 74.96 259.20 73.89 259.88 73.06 263.66 C 72.23 267.43 71.49 274.26 71.47 278.77 C 71.46 283.29 72.37 286.85 72.99 290.76 C 73.60 294.66 73.88 297.92 75.18 302.19 C 76.48 306.47 79.25 312.11 80.78 316.41 C 82.31 320.70 82.27 323.77 84.37 327.98 C 86.46 332.20 90.53 337.35 93.35 341.69 C 96.16 346.03 98.76 349.91 101.26 354.01 C 103.77 358.12 106.11 362.56 108.40 366.32 C 110.68 370.07 112.47 373.26 114.95 376.54 C 117.43 379.83 120.56 382.32 123.28 386.02 C 126.00 389.72 129.04 395.17 131.27 398.74 C 133.50 402.30 134.62 404.90 136.66 407.42 C 138.71 409.94 142.38 411.31 143.55 413.87 C 144.72 416.44 143.60 419.93 143.70 422.82 C 143.81 425.71 144.53 428.46 144.16 431.19 C 143.78 433.93 142.69 436.83 141.45 439.23 C 140.20 441.63 138.29 444.22 136.68 445.59 C 135.07 446.97 133.27 446.74 131.78 447.50 C 130.29 448.27 129.42 449.91 127.74 450.18 C 126.05 450.46 124.47 450.35 121.66 449.15 C 118.85 447.95 114.11 444.87 110.87 442.96 C 107.63 441.06 105.18 440.36 102.20 437.70 C 99.23 435.05 95.54 431.35 93.03 427.05 C 90.51 422.74 88.93 417.46 87.10 411.87 C 85.26 406.28 82.88 399.54 82.01 393.51 C 81.13 387.47 81.21 382.55 81.84 375.65 C 82.47 368.76 84.67 359.08 85.80 352.13 C 86.94 345.18 87.57 340.06 88.64 333.96 C 89.70 327.86 90.91 321.51 92.19 315.51 C 93.48 309.51 95.06 303.35 96.35 297.97 C 97.64 292.59 99.86 288.93 99.95 283.23 C 100.05 277.54 97.90 269.04 96.92 263.81 C 95.94 258.59 95.03 255.91 94.06 251.91 C 93.09 247.91 91.99 243.39 91.09 239.82 C 90.20 236.25 89.50 233.54 88.67 230.50 C 87.83 227.46 87.35 224.68 86.08 221.56 C 84.81 218.45 82.86 214.40 81.02 211.79 C 79.18 209.17 77.00 207.22 75.03 205.86 C 73.07 204.50 71.22 204.72 69.23 203.61 C 67.23 202.51 64.87 200.95 63.06 199.23 C 61.26 197.51 59.82 195.17 58.40 193.28 C 56.98 191.39 55.58 189.77 54.54 187.86 C 53.50 185.95 52.70 184.25 52.18 181.80 C 51.67 179.35 51.44 176.33 51.46 173.16 C 51.48 169.98 51.74 166.27 52.31 162.74 C 52.88 159.20 53.63 155.62 54.87 151.95 C 56.11 148.29 57.86 144.30 59.73 140.76 C 61.59 137.22 64.25 133.97 66.07 130.73 C 67.89 127.49 69.17 124.33 70.67 121.30 C 72.17 118.27 73.66 115.46 75.07 112.55 C 76.47 109.65 78.13 106.69 79.10 103.88 C 80.06 101.06 80.25 98.10 80.87 95.67 C 81.48 93.25 82.73 91.41 82.79 89.34 C 82.85 87.26 81.88 84.70 81.22 83.24 C 80.56 81.77 80.21 81.24 78.84 80.56 C 77.48 79.87 74.71 79.04 73.02 79.13 C 71.33 79.21 70.80 79.34 68.72 81.06 C 66.63 82.79 62.90 86.98 60.50 89.46 C 58.11 91.95 55.93 93.80 54.35 95.98 C 52.78 98.16 52.39 100.22 51.05 102.53 C 49.72 104.84 48.50 107.34 46.34 109.86 C 44.18 112.38 40.43 115.14 38.10 117.63 C 35.76 120.12 34.22 122.54 32.33 124.79 C 30.43 127.04 28.36 128.57 26.72 131.13 C 25.08 133.68 24.03 137.37 22.46 140.12 C 20.89 142.87 19.17 145.68 17.31 147.61 C 15.45 149.53 13.43 150.04 11.31 151.68 C 9.18 153.33 5.28 156.39 4.57 157.47 C 3.85 158.55 2.06 157.52 7.01 158.16 C 11.97 158.80 25.35 160.09 34.29 161.31 C 43.22 162.53 52.46 164.26 60.62 165.48 C 68.78 166.70 74.76 167.26 83.26 168.61 C 91.75 169.95 103.30 172.01 111.60 173.54 C 119.90 175.07 126.13 175.65 133.07 177.79 C 140.01 179.93 146.67 183.40 153.24 186.37 C 159.81 189.34 166.36 192.64 172.50 195.59 C 178.64 198.53 183.96 199.79 190.09 204.04 C 196.21 208.30 203.89 215.75 209.24 221.12 C 214.58 226.48 218.44 231.53 222.17 236.24 C 225.90 240.95 229.06 244.54 231.62 249.35 C 234.18 254.16 235.65 260.44 237.54 265.11 C 239.43 269.78 241.15 273.08 242.96 277.36 C 244.76 281.65 246.60 286.12 248.38 290.85 C 250.16 295.58 252.51 300.94 253.63 305.74 C 254.75 310.55 254.35 315.28 255.08 319.68 C 255.81 324.08 257.19 328.06 258.01 332.13 C 258.84 336.20 258.70 340.65 260.05 344.12 C 261.40 347.58 264.35 348.80 266.10 352.91 C 267.84 357.03 269.04 364.46 270.52 368.82 C 272.01 373.17 273.44 376.07 275.00 379.04 C 276.57 382.01 278.12 384.14 279.88 386.63 C 281.65 389.11 283.28 391.67 285.59 393.96 C 287.90 396.26 291.44 397.63 293.73 400.39 C 296.02 403.14 297.67 407.44 299.32 410.49 C 300.96 413.54 302.25 416.00 303.59 418.67 C 304.93 421.34 306.39 423.91 307.35 426.50 C 308.31 429.10 308.48 431.38 309.36 434.24 C 310.24 437.10 312.19 440.41 312.62 443.67 C 313.05 446.93 312.84 451.34 311.93 453.81 C 311.02 456.28 308.77 456.45 307.16 458.48 C 305.55 460.51 304.32 463.86 302.29 465.99 C 300.27 468.11 297.60 469.44 294.99 471.22 C 292.37 473.01 290.25 475.43 286.60 476.72 C 282.95 478.01 277.29 478.52 273.09 478.97 C 268.89 479.42 265.79 479.77 261.40 479.44 C 257.01 479.11 251.50 478.22 246.76 477.00 C 242.01 475.78 237.90 473.64 232.94 472.14 C 227.98 470.64 222.38 470.80 217.01 468.02 C 211.63 465.25 205.53 459.38 200.69 455.48 C 195.85 451.58 192.09 448.65 187.96 444.61 C 183.83 440.57 179.68 435.90 175.92 431.23 C 172.15 426.57 168.42 422.20 165.37 416.62 C 162.33 411.05 159.99 404.00 157.65 397.78 C 155.31 391.56 152.82 386.75 151.34 379.29 C 149.86 371.83 149.00 360.74 148.78 353.02 C 148.56 345.31 149.54 339.56 150.02 333.01 C 150.50 326.45 150.78 319.97 151.67 313.67 C 152.57 307.36 153.80 301.19 155.40 295.18 C 157.01 289.17 158.17 283.67 161.31 277.61 C 164.45 271.55 169.69 264.37 174.24 258.82 C 178.79 253.27 183.85 248.54 188.61 244.30 C 193.37 240.07 197.88 236.47 202.81 233.42 C 207.73 230.38 213.09 227.83 218.16 226.03 C 223.23 224.22 227.00 223.27 233.23 222.60 C 239.45 221.93 249.27 221.19 255.50 222.01 C 261.73 222.82 266.17 225.32 270.62 227.49 C 275.07 229.67 278.51 232.11 282.18 235.06 C 285.85 238.01 289.60 241.20 292.65 245.17 C 295.70 249.14 298.65 253.69 300.48 258.89 C 302.32 264.09 302.91 271.27 303.66 276.37 C 304.40 281.47 305.19 284.89 304.94 289.48 C 304.69 294.06 303.94 299.54 302.16 303.87 C 300.39 308.20 297.25 312.18 294.28 315.47 C 291.32 318.76 288.38 320.39 284.37 323.62 C 280.36 326.84 274.64 332.06 270.23 334.81 C 265.83 337.57 262.39 338.52 257.95 340.14 C 253.52 341.77 248.42 343.77 243.64 344.56 C 238.87 345.35 234.13 344.65 229.31 344.87 C 224.50 345.10 219.92 346.05 214.75 345.93 C 209.59 345.82 202.77 344.40 198.32 344.17 C 193.86 343.93 191.41 344.11 188.02 344.51 C 184.64 344.91 181.38 345.74 178.02 346.59 C 174.65 347.44 171.10 348.23 167.84 349.60 C 164.58 350.96 161.54 353.24 158.45 354.78 C 155.36 356.32 152.11 356.90 149.29 358.82 C 146.47 360.75 143.52 364.28 141.54 366.32 C 139.55 368.36 138.65 369.01 137.37 371.05 C 136.10 373.09 134.80 376.04 133.88 378.58 C 132.95 381.12 132.00 383.86 131.84 386.30 C 131.67 388.73 132.05 390.33 132.89 393.20 C 133.74 396.06 135.09 400.21 136.89 403.46 C 138.70 406.72 140.77 410.03 143.71 412.72 C 146.65 415.40 150.74 417.39 154.55 419.57 C 158.36 421.74 162.48 423.74 166.56 425.75 C 170.63 427.76 173.98 429.69 179.00 431.63 C 184.02 433.58 191.14 436.19 196.70 437.43 C 202.26 438.66 207.34 438.73 212.35 439.02 C 217.36 439.32 221.87 439.47 226.77 439.19 C 231.67 438.92 236.63 438.49 241.74 437.38 C 246.86 436.27 251.58 435.53 257.47 432.52 C 263.36 429.51 271.69 423.50 277.10 419.32 C 282.50 415.13 285.48 411.33 289.89 407.41 C 294.30 403.50 299.60 400.62 303.54 395.83 C 307.49 391.05 311.01 384.62 313.55 378.70 C 316.09 372.78 317.82 367.35 318.77 360.32 C 319.71 353.29 319.57 343.43 319.23 336.52 C 318.88 329.60 318.06 324.78 316.71 318.83 C 315.35 312.88 314.03 306.36 311.11 300.82 C 308.19 295.28 303.20 290.50 299.21 285.57 C 295.22 280.65 291.98 275.29 287.19 271.26 C 282.39 267.23 275.54 264.47 270.46 261.41 C 265.38 258.35 261.78 255.16 256.71 252.88 C 251.63 250.61 245.11 249.55 240.00 247.76 C 234.90 245.97 230.72 244.11 226.10 242.14 C 221.48 240.17 216.86 237.79 212.26 235.94 C 207.67 234.09 202.67 233.65 198.50 231.05 C 194.34 228.46 190.50 223.56 187.28 220.37 C 184.05 217.19 181.92 214.79 179.16 211.95 C 176.40 209.11 172.89 206.41 170.73 203.32 C 168.58 200.22 167.22 197.21 166.24 193.40 C 165.25 189.60 165.29 184.95 164.82 180.49 C 164.35 176.02 162.98 170.42 163.42 166.63 C 163.86 162.84 165.38 160.99 167.46 157.77 C 169.54 154.54 172.68 150.88 175.90 147.28 C 179.12 143.68 182.68 139.34 186.78 136.14 C 190.89 132.95 195.56 130.13 200.54 128.11 C 205.53 126.09 211.00 124.25 216.71 124.02 C 222.43 123.79 229.43 125.88 234.83 126.73 C 240.22 127.59 244.20 127.78 249.08 129.15 C 253.95 130.52 259.03 132.35 264.08 134.94 C 269.13 137.53 274.47 140.41 279.37 144.68 C 284.28 148.95 289.62 155.20 293.54 160.56 C 297.45 165.93 300.90 171.25 302.88 176.84 C 304.85 182.43 305.23 188.43 305.37 194.10 C 305.51 199.77 305.11 205.00 303.71 210.88 C 302.32 216.76 300.07 223.12 296.98 229.40 C 293.89 235.67 289.41 243.39 285.20 248.53 C 280.98 253.67 276.27 257.21 271.69 260.24 C 267.11 263.26 262.47 264.83 257.70 266.69 C 252.93 268.56 247.89 270.38 243.08 271.42 C 238.27 272.47 234.10 272.86 228.83 272.97 C 223.56 273.07 216.42 272.58 211.44 272.06 C 206.46 271.54 202.91 270.82 198.94 269.83 C 194.96 268.83 191.55 267.45 187.59 266.10 C 183.63 264.74 179.19 263.24 175.19 261.71 C 171.19 260.18 167.45 258.17 163.61 256.92 C 159.77 255.66 156.06 255.31 152.16 254.17 C 148.25 253.03 143.73 251.08 140.16 250.06 C 136.59 249.04 133.98 248.58 130.74 248.07 C 127.50 247.56 124.15 246.58 120.71 246.97 C 117.27 247.37 113.02 249.48 110.09 250.45 C 107.17 251.42 105.49 250.79 103.18 252.79 C 100.86 254.78 98.22 259.40 96.21 262.40 C 94.20 265.41 92.23 267.87 91.09 270.81 C 89.96 273.76 89.92 276.69 89.39 280.08 C 88.86 283.47 88.14 286.92 87.92 291.17 C 87.69 295.42 86.41 300.69 88.03 305.60 C 89.64 310.51 94.61 315.96 97.62 320.64 C 100.62 325.32 102.91 329.58 106.07 333.68 C 109.24 337.78 112.56 342.02 116.62 345.24 C 120.68 348.46 125.21 350.45 130.42 352.98 C 135.63 355.50 141.45 358.25 147.86 360.39 C 154.28 362.54 162.11 364.92 168.91 365.87 C 175.70 366.83 182.43 366.30 188.61 366.13 C 194.80 365.96 200.08 365.83 205.99 364.86 C 211.91 363.89 218.22 362.57 224.13 360.33 C 230.03 358.08 235.36 354.99 241.44 351.38 C 247.52 347.76 255.51 342.93 260.63 338.61 C 265.75 334.30 268.47 329.88 272.17 325.48 C 275.87 321.09 279.46 316.34 282.81 312.25 C 286.16 308.16 288.39 304.43 292.27 300.95 C 296.16 297.47 301.62 294.45 306.12 291.36 C 310.63 288.28 314.68 285.31 319.31 282.45 C 323.95 279.59 329.99 276.49 333.94 274.22 C 337.89 271.94 339.34 270.02 343.02 268.80 C 346.71 267.57 352.08 267.18 356.06 266.88 C 360.04 266.58 363.48 266.46 366.90 267.00 C 370.31 267.55 373.21 268.53 376.55 270.15 C 379.89 271.76 383.68 274.45 386.93 276.72 C 390.18 278.98 393.45 281.58 396.04 283.71 C 398.64 285.84 400.20 287.58 402.50 289.48 C 404.80 291.38 407.60 293.17 409.84 295.12 C 412.09 297.07 413.24 299.17 415.97 301.16 C 418.69 303.16 423.59 305.20 426.22 307.08 C 428.84 308.96 429.59 310.96 431.74 312.44 C 433.89 313.92 436.51 314.93 439.11 315.95 C 441.70 316.97 444.85 318.29 447.33 318.55 C 449.81 318.81 452.00 318.49 453.99 317.50 C 455.97 316.52 457.19 314.14 459.24 312.66 C 461.29 311.18 464.57 309.95 466.29 308.61 C 468.00 307.27 468.01 306.48 469.52 304.62 C 471.04 302.75 473.66 299.62 475.38 297.42 C 477.11 295.22 478.63 293.92 479.86 291.41 C 481.09 288.90 482.21 285.82 482.75 282.37 C 483.28 278.92 483.10 274.88 483.07 270.70 C 483.04 266.53 483.51 261.77 482.55 257.33 C 481.60 252.89 479.39 248.81 477.33 244.06 C 475.27 239.31 472.74 234.30 470.19 228.82 C 467.65 223.35 465.18 216.26 462.05 211.22 C 458.92 206.18 455.36 202.67 451.42 198.58 C 447.47 194.49 442.47 190.72 438.39 186.66 C 434.30 182.60 431.36 178.12 426.93 174.21 C 422.50 170.30 416.53 166.68 411.83 163.19 C 407.13 159.70 403.78 156.88 398.73 153.26 C 393.69 149.64 386.26 145.23 381.55 141.46 C 376.84 137.70 374.10 134.00 370.47 130.65 C 366.84 127.31 362.92 124.61 359.76 121.40 C 356.60 118.19 354.32 114.27 351.51 111.40 C 348.69 108.53 345.01 107.03 342.85 104.18 C 340.69 101.32 339.21 96.98 338.54 94.27 C 337.87 91.55 338.51 90.33 338.83 87.88 C 339.14 85.43 340.10 82.31 340.42 79.57 C 340.74 76.83 340.35 73.58 340.75 71.45 C 341.14 69.33 342.10 69.27 342.79 66.82 C 343.47 64.37 344.52 59.04 344.87 56.76 C 345.23 54.49 344.60 54.49 344.92 53.16 C 345.23 51.84 346.56 50.44 346.77 48.83 C 346.98 47.23 346.30 45.35 346.17 43.54 C 346.03 41.72 346.11 39.77 345.97 37.94 C 345.83 36.11 346.09 34.21 345.31 32.56 C 344.53 30.92 342.36 29.52 341.28 28.06 C 340.21 26.61 339.69 25.33 338.87 23.83 C 338.05 22.32 337.54 20.54 336.36 19.02 C 335.19 17.50 332.93 16.31 331.82 14.71 C 330.70 13.11 330.56 10.79 329.66 9.43 C 328.76 8.06 327.04 7.68 326.41 6.54 C 325.78 5.40 326.39 3.66 325.89 2.58 C 325.39 1.50 323.88 -4.08 323.43 0.06 C 322.98 4.20 324.08 17.36 323.18 27.41 C 322.29 37.46 319.05 50.40 318.06 60.35 C 317.08 70.31 317.66 78.69 317.29 87.15 C 316.91 95.61 316.37 103.62 315.81 111.11 C 315.25 118.61 313.92 124.98 313.94 132.11 C 313.96 139.24 315.81 147.28 315.93 153.91 C 316.05 160.53 315.13 164.59 314.67 171.87 C 314.21 179.16 314.03 190.63 313.18 197.61 C 312.33 204.60 310.72 208.38 309.56 213.79 C 308.39 219.20 307.30 224.59 306.17 230.08 C 305.04 235.56 304.35 241.53 302.77 246.69 C 301.19 251.85 299.69 255.83 296.69 261.03 C 293.69 266.23 288.71 273.08 284.78 277.89 C 280.84 282.70 276.59 286.39 273.08 289.88 C 269.58 293.37 267.30 295.94 263.74 298.83 C 260.18 301.72 255.86 304.77 251.73 307.21 C 247.60 309.66 243.76 311.40 238.96 313.49 C 234.16 315.57 227.70 318.61 222.93 319.75 C 218.16 320.89 214.41 319.81 210.33 320.32 C 206.25 320.84 202.12 322.05 198.42 322.81 C 194.73 323.57 191.73 324.33 188.16 324.89 C 184.59 325.44 180.64 324.95 176.99 326.15 C 173.35 327.35 169.07 330.20 166.28 332.08 C 163.50 333.96 161.80 334.88 160.27 337.43 C 158.73 339.99 158.33 344.01 157.06 347.41 C 155.78 350.80 153.25 354.36 152.62 357.80 C 151.99 361.23 152.85 364.43 153.28 368.01 C 153.71 371.59 154.58 375.91 155.20 379.29 C 155.82 382.66 156.05 385.41 157.02 388.24 C 157.99 391.07 160.27 393.54 161.02 396.28 C 161.77 399.01 161.37 402.23 161.52 404.63 C 161.67 407.04 162.11 408.01 161.91 410.71 C 161.71 413.40 160.57 418.14 160.33 420.80 C 160.08 423.46 160.31 424.31 160.43 426.68 C 160.56 429.04 161.33 432.53 161.09 435.00 C 160.86 437.46 159.88 439.39 159.02 441.46 C 158.17 443.53 156.86 445.74 155.99 447.41 C 155.13 449.09 154.81 449.69 153.83 451.51 C 152.84 453.34 151.89 456.62 150.10 458.37 C 148.31 460.12 145.41 461.76 143.08 462.04 C 140.76 462.31 138.53 460.38 136.16 460.02 C 133.79 459.66 131.37 460.52 128.86 459.89 C 126.35 459.26 124.33 458.03 121.07 456.24 C 117.82 454.46 113.12 452.07 109.31 449.19 C 105.50 446.31 101.45 442.22 98.23 438.98 C 95.01 435.74 92.42 433.51 89.99 429.74 C 87.56 425.97 85.71 421.17 83.67 416.35 C 81.63 411.54 79.51 406.77 77.74 400.85 C 75.96 394.93 74.30 386.98 73.02 380.86 C 71.74 374.73 70.82 369.55 70.07 364.11 C 69.31 358.67 68.46 353.65 68.51 348.21 C 68.56 342.77 69.49 337.63 70.39 331.47 C 71.29 325.31 71.28 318.50 73.89 311.26 C 76.51 304.01 82.25 295.03 86.08 287.99 C 89.91 280.94 92.62 274.86 96.86 268.98 C 101.09 263.10 106.68 257.43 111.47 252.70 C 116.26 247.97 120.41 244.49 125.60 240.59 C 130.79 236.69 135.89 232.68 142.61 229.31 C 149.33 225.95 158.81 222.75 165.92 220.39 C 173.03 218.04 179.01 216.49 185.27 215.18 C 191.54 213.87 197.59 212.97 203.53 212.55 C 209.47 212.14 215.28 212.05 220.90 212.69 C 226.53 213.32 231.14 214.59 237.28 216.38 C 243.41 218.17 251.75 221.53 257.69 223.42 C 263.63 225.32 268.18 226.15 272.91 227.73 C 277.65 229.31 281.40 231.50 286.11 232.90 C 290.82 234.31 296.18 235.36 301.18 236.15 C 306.18 236.94 311.70 237.81 316.13 237.64 C 320.55 237.47 323.02 236.03 327.72 235.14 C 332.41 234.24 339.80 233.59 344.31 232.28 C 348.82 230.97 351.70 229.50 354.77 227.28 C 357.84 225.07 360.84 221.94 362.72 219.00 C 364.60 216.05 365.33 213.05 366.06 209.62 C 366.79 206.19 366.79 202.40 367.09 198.41 C 367.39 194.43 367.27 189.83 367.85 185.71 C 368.42 181.59 369.79 177.39 370.53 173.68 C 371.27 169.97 371.91 166.62 372.28 163.43 C 372.65 160.25 372.29 157.33 372.75 154.58 C 373.20 151.83 374.14 149.92 375.02 146.93 C 375.89 143.94 377.11 139.77 378.02 136.64 C 378.92 133.51 379.28 130.85 380.43 128.14 C 381.58 125.44 383.43 122.70 384.92 120.43 C 386.40 118.16 387.12 116.24 389.33 114.52 C 391.54 112.81 395.17 110.82 398.17 110.15 C 401.17 109.49 404.35 110.21 407.34 110.55 C 410.32 110.89 413.17 111.15 416.08 112.20 C 418.99 113.24 421.79 114.65 424.81 116.84 C 427.83 119.03 431.12 122.67 434.19 125.34 C 437.26 128.01 440.58 129.35 443.22 132.87 C 445.86 136.38 448.16 142.23 450.04 146.44 C 451.92 150.66 453.73 153.62 454.49 158.14 C 455.25 162.67 454.78 168.13 454.61 173.59 C 454.43 179.05 454.35 185.32 453.43 190.89 C 452.51 196.46 450.65 201.38 449.10 207.02 C 447.56 212.66 446.63 218.37 444.18 224.71 C 441.72 231.05 437.70 238.92 434.37 245.04 C 431.04 251.17 427.16 255.96 424.18 261.48 C 421.20 267.00 419.51 272.95 416.50 278.17 C 413.49 283.40 409.62 288.41 406.13 292.82 C 402.65 297.23 399.74 300.29 395.61 304.63 C 391.47 308.96 385.67 314.78 381.32 318.84 C 376.97 322.91 373.51 325.44 369.49 329.01 C 365.47 332.59 360.95 336.41 357.20 340.29 C 353.45 344.16 350.24 348.32 347.00 352.28 C 343.76 356.23 341.32 360.15 337.78 364.01 C 334.24 367.87 329.44 372.31 325.77 375.43 C 322.10 378.55 318.69 380.11 315.77 382.74 C 312.85 385.36 310.79 388.38 308.25 391.18 C 305.71 393.98 303.46 397.14 300.54 399.53 C 297.61 401.93 294.07 403.07 290.70 405.55 C 287.34 408.03 283.80 412.00 280.33 414.43 C 276.86 416.86 273.06 418.59 269.86 420.13 C 266.66 421.67 264.54 423.00 261.14 423.67 C 257.75 424.33 253.92 424.46 249.48 424.11 C 245.04 423.75 240.16 423.01 234.52 421.53 C 228.89 420.06 221.09 417.42 215.68 415.27 C 210.27 413.12 206.32 410.97 202.07 408.61 C 197.82 406.26 193.89 404.27 190.18 401.13 C 186.48 397.99 183.27 393.77 179.85 389.77 C 176.43 385.78 173.06 382.15 169.67 377.17 C 166.29 372.18 162.90 364.81 159.54 359.87 C 156.17 354.93 152.91 351.07 149.47 347.51 C 146.03 343.96 141.96 341.59 138.89 338.55 C 135.83 335.52 134.01 332.51 131.08 329.30 C 128.15 326.10 124.17 322.82 121.30 319.31 C 118.43 315.80 116.31 311.87 113.86 308.26 C 111.40 304.65 109.35 300.04 106.58 297.65 C 103.81 295.25 100.18 294.52 97.23 293.89 C 94.29 293.27 91.68 293.85 88.92 293.90 C 86.15 293.94 82.85 293.70 80.63 294.16 C 78.41 294.62 77.83 296.22 75.58 296.67 C 73.33 297.12 69.69 296.68 67.12 296.86 C 64.55 297.04 62.25 298.06 60.17 297.75 C 58.08 297.45 56.44 295.99 54.61 295.02 C 52.77 294.05 51.13 293.32 49.14 291.94 C 47.15 290.56 44.78 288.79 42.68 286.75 C 40.57 284.71 38.07 282.30 36.51 279.69 C 34.94 277.08 33.99 274.37 33.29 271.08 C 32.59 267.78 32.37 263.80 32.29 259.93 C 32.20 256.07 32.15 252.07 32.79 247.90 C 33.43 243.73 35.04 239.76 36.11 234.93 C 37.18 230.09 38.17 223.48 39.19 218.89 C 40.21 214.29 41.15 211.49 42.23 207.35 C 43.31 203.21 44.74 198.16 45.67 194.05 C 46.60 189.95 47.18 186.12 47.80 182.71 C 48.43 179.30 48.90 176.67 49.45 173.60 C 50.00 170.54 51.13 167.02 51.10 164.33 C 51.07 161.65 49.90 159.23 49.27 157.48 C 48.64 155.74 48.66 154.55 47.31 153.87 C 45.96 153.19 43.34 153.37 41.18 153.42 C 39.02 153.47 36.71 152.98 34.38 154.16 C 32.05 155.35 29.04 158.27 27.19 160.53 C 25.35 162.78 24.21 164.26 23.31 167.68 C 22.40 171.10 22.07 176.39 21.78 181.04 C 21.49 185.70 21.46 190.48 21.56 195.61 C 21.66 200.73 21.15 206.56 22.39 211.79 C 23.63 217.02 25.94 221.20 29.00 226.99 C 32.05 232.78 36.59 240.38 40.71 246.51 C 44.82 252.65 48.51 258.50 53.69 263.80 C 58.87 269.10 65.94 273.82 71.78 278.29 C 77.63 282.75 82.63 287.14 88.78 290.60 C 94.93 294.06 101.03 296.50 108.67 299.07 C 116.31 301.64 127.06 304.01 134.60 306.04 C 142.14 308.07 147.65 310.37 153.93 311.25 C 160.21 312.14 166.00 311.69 172.27 311.36 C 178.54 311.02 185.25 309.85 191.54 309.25 C 197.83 308.66 203.20 308.31 210.00 307.79 C 216.80 307.26 225.87 306.63 232.34 306.09 C 238.81 305.56 243.25 305.56 248.81 304.56 C 254.38 303.55 260.64 301.59 265.73 300.06 C 270.81 298.54 274.48 297.02 279.32 295.41 C 284.16 293.81 289.49 291.99 294.77 290.44 C 300.05 288.90 306.18 287.01 310.99 286.15 C 315.80 285.30 319.29 285.37 323.62 285.30 C 327.95 285.23 332.85 285.86 336.99 285.72 C 341.12 285.59 344.92 284.93 348.43 284.47 C 351.93 284.02 353.96 282.58 358.03 282.99 C 362.09 283.39 368.91 285.84 372.82 286.88 C 376.74 287.92 379.04 287.75 381.52 289.22 C 384.00 290.70 385.62 293.54 387.71 295.71 C 389.79 297.89 391.90 299.54 394.05 302.26 C 396.19 304.99 398.63 308.80 400.58 312.08 C 402.53 315.36 404.54 318.55 405.75 321.95 C 406.97 325.35 407.13 329.07 407.85 332.47 C 408.58 335.87 409.77 339.19 410.10 342.34 C 410.44 345.50 410.29 348.03 409.87 351.40 C 409.45 354.77 408.69 358.93 407.59 362.55 C 406.49 366.18 405.24 369.30 403.28 373.17 C 401.32 377.04 398.93 382.23 395.82 385.76 C 392.71 389.30 388.22 391.60 384.63 394.37 C 381.05 397.15 378.18 400.06 374.32 402.43 C 370.46 404.80 366.45 406.96 361.48 408.59 C 356.51 410.21 351.14 411.18 344.49 412.19 C 337.85 413.21 328.12 414.95 321.61 414.69 C 315.10 414.42 310.93 412.34 305.45 410.61 C 299.97 408.87 294.33 406.48 288.71 404.26 C 283.09 402.04 277.51 399.89 271.75 397.29 C 265.99 394.68 259.88 392.27 254.17 388.63 C 248.46 385.00 242.62 379.26 237.49 375.48 C 232.35 371.70 227.83 368.76 223.38 365.94 C 218.93 363.12 215.33 361.25 210.79 358.56 C 206.24 355.88 200.76 352.89 196.11 349.81 C 191.47 346.74 188.02 343.41 182.92 340.10 C 177.81 336.80 170.14 332.63 165.49 329.99 C 160.85 327.34 158.52 325.92 155.05 324.21 C 151.58 322.51 148.11 320.87 144.69 319.76 C 141.27 318.65 137.84 318.27 134.53 317.56 C 131.23 316.85 128.25 315.90 124.88 315.51 C 121.51 315.13 117.62 315.14 114.32 315.26 C 111.02 315.38 108.43 315.49 105.10 316.22 C 101.76 316.95 97.24 318.37 94.31 319.66 C 91.38 320.94 89.12 321.99 87.52 323.95 C 85.93 325.90 85.42 328.57 84.74 331.41 C 84.06 334.25 83.13 337.67 83.44 340.98 C 83.76 344.29 85.18 347.50 86.63 351.27 C 88.08 355.03 90.24 359.83 92.17 363.58 C 94.09 367.33 95.86 370.24 98.18 373.79 C 100.49 377.33 103.48 381.42 106.07 384.86 C 108.65 388.30 110.38 390.89 113.69 394.42 C 116.99 397.96 121.62 403.00 125.89 406.05 C 130.17 409.09 134.60 410.80 139.35 412.67 C 144.10 414.54 149.23 415.86 154.39 417.27 C 159.55 418.67 164.95 420.60 170.31 421.10 C 175.67 421.60 179.84 421.19 186.55 420.25 C 193.25 419.31 203.43 417.75 210.55 415.45 C 217.66 413.15 223.42 410.62 229.25 406.46 C 235.08 402.31 240.93 396.07 245.54 390.50 C 250.15 384.93 253.62 379.20 256.91 373.02 C 260.19 366.85 263.49 360.78 265.26 353.45 C 267.03 346.12 267.69 336.12 267.51 329.06 C 267.33 322.00 265.78 316.92 264.18 311.08 C 262.57 305.25 260.47 299.57 257.89 294.05 C 255.31 288.52 251.76 282.56 248.71 277.96 C 245.67 273.35 244.01 270.09 239.61 266.40 C 235.21 262.71 227.45 258.52 222.30 255.84 C 217.15 253.16 213.24 251.40 208.70 250.30 C 204.16 249.21 198.99 248.75 195.04 249.28 C 191.09 249.82 188.34 251.62 185.01 253.52 C 181.68 255.43 178.29 256.94 175.06 260.69 C 171.83 264.44 167.85 271.45 165.64 276.03 C 163.44 280.61 162.76 284.09 161.83 288.15 C 160.91 292.21 160.51 296.42 160.09 300.41 C 159.66 304.41 159.49 308.43 159.30 312.14 C 159.10 315.84 159.25 318.98 158.91 322.67 C 158.57 326.35 157.68 330.01 157.26 334.24 C 156.83 338.46 157.03 344.21 156.34 348.04 C 155.66 351.87 153.98 354.12 153.16 357.21 C 152.33 360.29 151.81 363.51 151.38 366.57 C 150.95 369.62 150.77 372.79 150.58 375.56 C 150.39 378.33 151.26 380.52 150.26 383.19 C 149.25 385.86 146.74 389.30 144.53 391.57 C 142.32 393.83 139.07 395.45 137.01 396.79 C 134.94 398.13 134.25 399.11 132.13 399.61 C 130.02 400.11 126.99 399.77 124.31 399.77 C 121.63 399.78 118.91 400.30 116.05 399.64 C 113.19 398.97 110.13 397.33 107.16 395.78 C 104.19 394.23 100.98 392.66 98.24 390.34 C 95.50 388.01 93.22 384.60 90.73 381.82 C 88.25 379.04 85.84 376.56 83.33 373.65 C 80.82 370.75 77.99 368.97 75.67 364.40 C 73.35 359.82 70.83 351.68 69.42 346.19 C 68.00 340.70 67.52 336.56 67.17 331.45 C 66.83 326.35 66.61 321.21 67.35 315.55 C 68.10 309.89 69.81 303.45 71.64 297.52 C 73.47 291.60 75.77 286.17 78.32 280.02 C 80.87 273.87 83.57 266.56 86.95 260.61 C 90.32 254.67 94.34 249.58 98.59 244.34 C 102.83 239.10 107.86 233.73 112.43 229.18 C 117.00 224.62 121.18 220.65 126.01 217.00 C 130.83 213.34 135.17 210.20 141.37 207.24 C 147.56 204.28 156.57 201.25 163.17 199.25 C 169.76 197.24 174.81 195.71 180.95 195.21 C 187.09 194.70 194.02 195.23 200.03 196.22 C 206.04 197.22 211.23 199.28 217.02 201.17 C 222.82 203.06 229.34 205.12 234.80 207.56 C 240.26 210.00 244.81 211.77 249.80 215.81 C 254.78 219.85 260.71 226.68 264.69 231.80 C 268.68 236.92 271.16 241.84 273.72 246.52 C 276.27 251.19 278.66 255.21 280.01 259.85 C 281.36 264.49 281.68 269.83 281.83 274.35 C 281.98 278.88 281.50 281.53 280.90 287.00 C 280.30 292.47 279.16 301.70 278.23 307.18 C 277.30 312.66 277.34 316.15 275.32 319.89 C 273.30 323.63 269.18 326.60 266.12 329.62 C 263.06 332.64 260.34 335.65 256.97 338.01 C 253.61 340.38 250.33 341.51 245.95 343.83 C 241.56 346.15 234.78 350.01 230.67 351.96 C 226.55 353.91 224.76 354.84 221.23 355.53 C 217.70 356.21 213.50 356.20 209.50 356.05 C 205.50 355.90 201.81 355.57 197.23 354.61 C 192.65 353.66 186.82 351.33 182.04 350.31 C 177.26 349.28 172.88 348.93 168.56 348.48 C 164.23 348.02 160.10 347.71 156.10 347.55 C 152.11 347.39 148.10 347.06 144.60 347.53 C 141.10 347.99 138.10 349.72 135.12 350.32 C 132.14 350.92 129.76 350.81 126.74 351.14 C 123.73 351.47 120.20 351.39 117.04 352.28 C 113.88 353.18 110.64 355.32 107.79 356.50 C 104.93 357.67 102.26 358.58 99.90 359.34 C 97.53 360.10 95.68 360.06 93.61 361.05 C 91.54 362.04 89.66 363.51 87.45 365.28 C 85.25 367.04 82.37 369.96 80.36 371.65 C 78.34 373.33 77.10 374.16 75.37 375.39 C 73.64 376.63 71.87 378.08 69.96 379.06 C 68.05 380.04 65.79 381.58 63.91 381.27 C 62.03 380.95 60.74 378.41 58.66 377.19 C 56.58 375.98 53.84 375.95 51.44 373.97 C 49.04 371.98 46.03 367.47 44.24 365.26 C 42.45 363.05 42.14 362.11 40.68 360.72 C 39.21 359.33 37.24 358.17 35.43 356.91 C 33.62 355.65 31.86 354.91 29.80 353.16 C 27.74 351.40 25.11 349.02 23.08 346.36 C 21.05 343.71 19.01 339.50 17.60 337.22 C 16.19 334.94 15.90 333.97 14.61 332.68 C 13.33 331.39 11.19 330.63 9.90 329.47 C 8.62 328.32 7.81 326.95 6.90 325.73 C 5.99 324.51 5.50 322.51 4.46 322.14 C 3.42 321.78 -2.11 323.14 0.66 323.54 C 3.42 323.95 13.48 324.55 21.02 324.59 C 28.57 324.63 37.31 324.15 45.93 323.77 C 54.54 323.40 64.33 322.85 72.71 322.31 C 81.10 321.77 87.39 320.51 96.24 320.52 C 105.08 320.52 117.70 321.83 125.80 322.34 C 133.89 322.85 138.53 322.61 144.81 323.57 C 151.09 324.54 158.03 326.29 163.45 328.14 C 168.87 329.98 172.87 332.26 177.35 334.63 C 181.83 337.01 185.70 339.18 190.32 342.38 C 194.95 345.58 201.33 350.46 205.12 353.85 C 208.90 357.24 210.88 359.34 213.03 362.74 C 215.17 366.14 217.09 370.90 218.00 374.27 C 218.90 377.63 218.87 380.01 218.46 382.94 C 218.05 385.87 217.05 388.80 215.53 391.84 C 214.01 394.88 210.96 398.29 209.34 401.18 C 207.73 404.06 207.15 406.45 205.83 409.17 C 204.51 411.89 202.45 414.72 201.42 417.52 C 200.38 420.32 200.29 423.46 199.60 425.98 C 198.91 428.49 198.08 430.13 197.28 432.62 C 196.48 435.11 195.18 438.31 194.80 440.92 C 194.41 443.53 194.82 446.09 194.95 448.28 C 195.09 450.48 194.75 452.09 195.59 454.09 C 196.43 456.09 198.19 458.63 200.00 460.27 C 201.82 461.90 203.97 462.66 206.46 463.89 C 208.95 465.13 210.91 466.61 214.93 467.69 C 218.95 468.77 225.85 469.91 230.58 470.38 C 235.31 470.84 238.77 471.00 243.31 470.48 C 247.85 469.97 252.96 468.44 257.79 467.27 C 262.62 466.10 267.31 465.02 272.30 463.46 C 277.29 461.91 282.51 459.96 287.72 457.92 C 292.93 455.88 298.55 453.53 303.58 451.25 C 308.62 448.96 313.60 447.02 317.93 444.20 C 322.26 441.38 325.57 437.62 329.55 434.32 C 333.54 431.01 338.06 428.40 341.83 424.38 C 345.59 420.36 348.73 416.12 352.14 410.19 C 355.55 404.27 359.66 395.24 362.31 388.83 C 364.95 382.42 366.61 377.49 368.01 371.72 C 369.40 365.95 370.07 360.17 370.69 354.23 C 371.31 348.28 372.28 342.14 371.74 336.06 C 371.19 329.97 370.06 324.47 367.40 317.71 C 364.75 310.96 360.08 301.97 355.80 295.54 C 351.51 289.10 346.44 283.62 341.68 279.09 C 336.93 274.55 332.03 271.72 327.27 268.34 C 322.51 264.96 321.36 262.71 313.13 258.81 C 304.90 254.91 283.75 247.25 277.88 244.94" fill="none" stroke="#fff" stroke-width="4.48" stroke-opacity="1" stroke-linecap="round" stroke-linejoin="round"/>
  </g>
</svg>