<?xml version="1.0" encoding="UTF-8"?>
<svg xmlns="http://www.w3.org/2000/svg" width="512" height="512" viewBox="0 0 512 512">
  <rect width="100%" height="100%" fill="#000"/>
  <g>
    <path d="M 256.00 256.00 C 259.03 253.88 269.53 248.44 274.21 243.26 C 278.89 238.07 282.44 231.08 284.08 224.89 C 285.71 218.70 285.66 212.15 284.02 206.10 C 282.39 200.04 278.81 193.15 274.28 188.56 C 269.76 183.96 263.28 180.84 256.90 178.53 C 250.52 176.22 243.01 174.18 236.01 174.68 C 229.00 175.19 221.43 177.80 214.88 181.55 C 208.34 185.30 201.65 191.23 196.76 197.19 C 191.86 203.16 188.89 210.45 185.53 217.35 C 182.17 224.25 179.17 231.67 176.60 238.59 C 174.03 245.51 172.45 252.42 170.13 258.89 C 167.81 265.37 165.56 271.66 162.69 277.45 C 159.83 283.24 156.38 289.71 152.94 293.63 C 149.49 297.55 145.96 299.19 142.02 300.95 C 138.07 302.72 133.69 304.72 129.26 304.24 C 124.82 303.75 119.20 301.29 115.41 298.06 C 111.62 294.83 108.88 290.06 106.53 284.84 C 104.18 279.62 101.96 272.89 101.31 266.73 C 100.65 260.57 101.11 254.79 102.60 247.88 C 104.09 240.97 106.83 232.42 110.25 225.28 C 113.67 218.13 118.17 211.22 123.12 204.99 C 128.08 198.77 133.18 192.58 139.97 187.91 C 146.75 183.25 155.49 179.94 163.81 177.02 C 172.13 174.09 180.96 171.57 189.88 170.36 C 198.80 169.16 208.37 169.18 217.33 169.79 C 226.28 170.40 235.20 172.50 243.62 174.02 C 252.05 175.53 260.15 177.92 267.88 178.87 C 275.62 179.81 283.10 179.62 290.03 179.68 C 296.97 179.75 303.77 180.37 309.50 179.26 C 315.22 178.14 320.25 175.59 324.36 173.00 C 328.47 170.40 331.58 167.79 334.15 163.70 C 336.73 159.61 339.81 153.30 339.82 148.44 C 339.83 143.58 337.53 138.85 334.22 134.56 C 330.91 130.27 325.59 125.97 319.96 122.70 C 314.32 119.43 307.74 115.88 300.42 114.94 C 293.11 114.00 283.88 114.69 276.08 117.06 C 268.28 119.42 260.45 123.52 253.63 129.13 C 246.81 134.73 240.05 142.45 235.15 150.68 C 230.25 158.91 225.99 169.06 224.22 178.50 C 222.45 187.93 222.65 198.41 224.53 207.30 C 226.41 216.18 230.48 224.93 235.49 231.81 C 240.51 238.68 247.72 244.56 254.62 248.54 C 261.52 252.53 269.78 255.48 276.91 255.70 C 284.03 255.91 291.59 253.05 297.38 249.83 C 303.16 246.61 308.46 241.88 311.60 236.39 C 314.75 230.90 316.59 223.55 316.23 216.87 C 315.88 210.20 313.15 202.30 309.46 196.33 C 305.77 190.36 300.49 184.31 294.09 181.04 C 287.68 177.76 278.92 176.59 271.05 176.67 C 263.17 176.74 254.37 177.92 246.84 181.50 C 239.31 185.07 231.37 191.65 225.87 198.12 C 220.37 204.59 216.23 212.50 213.85 220.29 C 211.47 228.08 210.50 236.89 211.57 244.88 C 212.63 252.87 215.82 261.59 220.25 268.23 C 224.67 274.88 231.61 280.85 238.12 284.76 C 244.63 288.68 251.89 291.15 259.29 291.73 C 266.69 292.31 275.24 290.22 282.52 288.26 C 289.80 286.29 296.56 283.33 302.98 279.93 C 309.40 276.53 315.54 271.66 321.03 267.86 C 326.53 264.05 330.90 260.56 335.94 257.07 C 340.98 253.59 346.37 249.71 351.29 246.95 C 356.22 244.18 360.90 242.48 365.47 240.49 C 370.04 238.50 374.00 236.21 378.73 235.01 C 383.46 233.81 389.53 233.83 393.86 233.27 C 398.19 232.72 401.15 232.19 404.71 231.68 C 408.28 231.18 411.97 231.21 415.23 230.22 C 418.50 229.22 421.73 228.00 424.29 225.72 C 426.86 223.44 429.31 220.32 430.64 216.52 C 431.97 212.72 432.90 207.72 432.27 202.93 C 431.63 198.14 429.82 193.17 426.81 187.78 C 423.80 182.38 419.53 175.94 414.20 170.56 C 408.87 165.18 402.21 159.63 394.82 155.50 C 387.44 151.37 378.63 147.86 369.89 145.79 C 361.15 143.71 351.95 142.46 342.40 143.05 C 332.85 143.65 321.94 145.86 312.59 149.34 C 303.24 152.81 294.26 158.16 286.31 163.93 C 278.35 169.69 270.66 176.46 264.86 183.90 C 259.06 191.35 254.27 200.06 251.51 208.61 C 248.75 217.17 247.89 226.69 248.29 235.24 C 248.70 243.79 250.87 252.74 253.93 259.90 C 256.99 267.06 261.42 273.64 266.65 278.21 C 271.89 282.78 278.82 285.62 285.34 287.31 C 291.86 289.01 299.45 289.88 305.77 288.40 C 312.09 286.93 318.16 282.70 323.25 278.45 C 328.33 274.21 333.34 268.92 336.27 262.94 C 339.20 256.95 340.74 249.41 340.85 242.55 C 340.95 235.69 340.04 228.48 336.90 221.77 C 333.76 215.07 327.54 207.97 321.99 202.32 C 316.44 196.68 310.06 192.26 303.60 187.92 C 297.14 183.58 289.56 180.21 283.23 176.27 C 276.90 172.32 270.97 168.20 265.64 164.24 C 260.31 160.28 255.23 156.43 251.26 152.52 C 247.30 148.60 243.99 145.00 241.86 140.73 C 239.73 136.47 238.36 131.62 238.50 126.93 C 238.63 122.24 240.08 116.35 242.66 112.57 C 245.24 108.79 249.48 106.24 253.98 104.23 C 258.47 102.22 264.15 101.38 269.65 100.51 C 275.14 99.64 281.27 99.27 286.96 98.99 C 292.66 98.71 298.60 98.85 303.81 98.84 C 309.01 98.83 313.54 99.07 318.19 98.92 C 322.84 98.76 327.74 98.57 331.72 97.90 C 335.69 97.23 339.26 96.34 342.04 94.91 C 344.83 93.47 346.95 91.57 348.43 89.30 C 349.91 87.03 351.01 84.04 350.91 81.29 C 350.80 78.55 349.73 75.48 347.81 72.83 C 345.88 70.18 343.39 67.68 339.34 65.38 C 335.30 63.07 329.49 60.04 323.52 59.03 C 317.55 58.02 310.97 58.44 303.52 59.31 C 296.07 60.19 287.05 61.59 278.83 64.26 C 270.60 66.93 261.59 70.18 254.18 75.31 C 246.76 80.44 240.54 87.36 234.34 95.03 C 228.13 102.70 221.57 112.07 216.94 121.33 C 212.32 130.60 209.48 140.81 206.57 150.62 C 203.66 160.43 201.65 170.86 199.49 180.21 C 197.33 189.56 195.69 198.23 193.63 206.73 C 191.57 215.22 189.51 223.88 187.14 231.18 C 184.77 238.47 182.80 244.83 179.42 250.51 C 176.03 256.19 171.39 261.50 166.83 265.26 C 162.27 269.03 156.95 271.78 152.08 273.10 C 147.20 274.42 141.96 274.74 137.60 273.17 C 133.23 271.60 128.72 268.00 125.90 263.66 C 123.08 259.32 120.72 253.08 120.69 247.12 C 120.66 241.15 122.74 234.43 125.72 227.89 C 128.70 221.34 132.58 213.57 138.56 207.83 C 144.55 202.09 153.31 197.01 161.62 193.45 C 169.93 189.89 178.72 186.54 188.44 186.47 C 198.16 186.40 210.93 189.16 219.95 193.02 C 228.98 196.88 236.63 202.95 242.59 209.61 C 248.55 216.27 252.80 225.23 255.72 232.97 C 258.63 240.71 260.33 248.43 260.07 256.03 C 259.80 263.63 257.33 272.05 254.13 278.59 C 250.92 285.13 246.03 290.90 240.86 295.28 C 235.68 299.65 229.38 303.00 223.08 304.84 C 216.78 306.69 209.46 306.66 203.05 306.33 C 196.63 306.01 190.42 305.19 184.60 302.91 C 178.79 300.64 172.69 297.35 168.13 292.68 C 163.58 288.00 160.27 281.12 157.28 274.88 C 154.29 268.64 151.36 261.92 150.19 255.24 C 149.01 248.56 149.15 241.72 150.24 234.83 C 151.34 227.94 153.42 220.45 156.75 213.93 C 160.07 207.40 164.84 201.14 170.19 195.65 C 175.54 190.17 182.23 185.10 188.82 181.00 C 195.40 176.89 202.20 173.31 209.70 171.03 C 217.20 168.75 225.76 167.80 233.80 167.33 C 241.83 166.85 250.18 167.72 257.92 168.18 C 265.66 168.63 273.15 169.62 280.22 170.05 C 287.29 170.47 293.92 170.16 300.33 170.70 C 306.74 171.24 312.82 172.85 318.67 173.26 C 324.53 173.68 330.21 173.53 335.46 173.21 C 340.71 172.88 345.62 172.50 350.16 171.33 C 354.70 170.15 358.99 168.34 362.71 166.15 C 366.44 163.96 369.55 160.72 372.51 158.18 C 375.47 155.65 377.81 153.01 380.48 150.95 C 383.16 148.88 385.64 146.79 388.55 145.80 C 391.45 144.80 394.46 144.56 397.91 144.99 C 401.36 145.42 405.49 146.15 409.25 148.37 C 413.00 150.59 416.99 153.44 420.43 158.29 C 423.86 163.14 428.07 170.56 429.87 177.48 C 431.68 184.40 432.06 191.83 431.26 199.82 C 430.45 207.80 428.21 217.00 425.04 225.39 C 421.86 233.79 416.84 242.19 412.23 250.18 C 407.61 258.17 402.40 265.86 397.36 273.34 C 392.33 280.81 386.90 288.12 382.03 295.05 C 377.16 301.98 372.27 308.56 368.16 314.92 C 364.06 321.28 360.62 327.22 357.42 333.20 C 354.22 339.18 351.24 345.51 348.96 350.81 C 346.68 356.11 344.71 360.57 343.72 365.01 C 342.73 369.45 342.34 373.78 343.01 377.45 C 343.68 381.12 345.29 384.77 347.73 387.04 C 350.17 389.31 353.87 391.04 357.66 391.08 C 361.45 391.13 366.13 389.92 370.49 387.31 C 374.84 384.70 380.00 381.04 383.79 375.41 C 387.58 369.77 391.34 361.57 393.24 353.49 C 395.14 345.41 396.44 336.06 395.19 326.92 C 393.95 317.78 390.45 307.48 385.77 298.65 C 381.08 289.81 374.11 281.08 367.06 273.93 C 360.01 266.77 351.78 260.91 343.48 255.71 C 335.18 250.51 325.73 246.71 317.24 242.75 C 308.75 238.78 300.09 235.72 292.55 231.92 C 285.00 228.13 278.74 223.98 271.97 219.98 C 265.19 215.98 257.80 212.18 251.92 207.92 C 246.04 203.66 240.82 199.08 236.70 194.39 C 232.57 189.71 229.41 184.90 227.17 179.83 C 224.93 174.76 223.81 169.24 223.27 163.98 C 222.73 158.72 222.37 153.12 223.92 148.26 C 225.48 143.41 228.59 138.54 232.60 134.84 C 236.62 131.15 242.28 127.95 248.00 126.08 C 253.71 124.22 260.03 122.94 266.88 123.66 C 273.73 124.39 281.73 125.91 289.11 130.44 C 296.49 134.96 305.41 143.39 311.16 150.83 C 316.90 158.27 321.03 166.28 323.56 175.07 C 326.08 183.85 327.10 194.17 326.31 203.56 C 325.52 212.94 323.10 223.21 318.82 231.38 C 314.54 239.54 307.72 247.51 300.61 252.56 C 293.51 257.61 284.16 260.58 276.19 261.68 C 268.22 262.78 259.64 261.87 252.78 259.14 C 245.92 256.41 239.37 251.07 235.04 245.32 C 230.71 239.57 227.46 231.49 226.80 224.63 C 226.13 217.78 227.96 209.84 231.06 204.19 C 234.16 198.53 239.87 194.33 245.40 190.69 C 250.94 187.05 257.84 184.56 264.27 182.35 C 270.70 180.14 277.65 178.66 283.99 177.43 C 290.34 176.19 296.64 176.02 302.34 174.92 C 308.04 173.82 313.41 172.64 318.19 170.81 C 322.96 168.98 327.43 166.77 330.99 163.94 C 334.54 161.12 337.45 157.74 339.52 153.85 C 341.59 149.95 343.46 144.93 343.43 140.57 C 343.40 136.21 342.25 131.73 339.34 127.68 C 336.43 123.64 331.33 119.51 325.98 116.31 C 320.64 113.11 314.04 110.22 307.25 108.48 C 300.46 106.74 292.80 105.86 285.27 105.89 C 277.74 105.91 269.72 106.86 262.07 108.64 C 254.42 110.42 246.72 113.24 239.36 116.56 C 232.01 119.88 224.79 123.53 217.93 128.55 C 211.07 133.58 204.15 139.91 198.21 146.69 C 192.28 153.47 186.86 161.85 182.31 169.23 C 177.76 176.61 174.39 183.93 170.93 190.94 C 167.47 197.96 164.72 204.99 161.54 211.32 C 158.35 217.66 155.42 223.88 151.82 228.93 C 148.22 233.98 143.98 238.22 139.94 241.63 C 135.90 245.04 131.82 248.20 127.58 249.41 C 123.34 250.63 118.25 250.16 114.49 248.92 C 110.74 247.68 107.55 245.31 105.05 241.96 C 102.54 238.61 100.13 233.77 99.48 228.81 C 98.82 223.85 99.78 218.01 101.11 212.21 C 102.45 206.42 103.95 199.87 107.49 194.03 C 111.03 188.19 116.56 182.42 122.35 177.19 C 128.14 171.97 134.77 166.59 142.24 162.68 C 149.72 158.77 158.34 155.84 167.23 153.73 C 176.11 151.61 186.20 149.89 195.55 149.98 C 204.89 150.07 214.48 151.67 223.28 154.28 C 232.09 156.88 240.85 160.47 248.40 165.59 C 255.94 170.71 263.26 177.63 268.55 184.99 C 273.84 192.36 278.24 201.19 280.14 209.80 C 282.04 218.40 281.68 228.41 279.96 236.61 C 278.24 244.81 274.58 252.55 269.83 258.99 C 265.08 265.43 258.31 271.70 251.45 275.27 C 244.59 278.84 235.80 280.84 228.67 280.42 C 221.53 279.99 214.07 276.83 208.66 272.74 C 203.26 268.65 198.71 262.25 196.23 255.86 C 193.75 249.48 192.79 241.30 193.78 234.44 C 194.78 227.57 197.70 220.50 202.19 214.67 C 206.67 208.84 214.01 203.35 220.69 199.45 C 227.36 195.56 234.80 192.58 242.24 191.29 C 249.67 190.01 258.21 190.09 265.29 191.74 C 272.36 193.39 278.82 196.80 284.68 201.19 C 290.54 205.57 296.01 211.83 300.46 218.06 C 304.91 224.28 309.23 231.27 311.39 238.54 C 313.54 245.81 313.91 254.01 313.39 261.67 C 312.88 269.33 311.12 277.49 308.28 284.51 C 305.45 291.53 301.00 298.31 296.37 303.78 C 291.75 309.25 287.18 313.73 280.54 317.34 C 273.91 320.96 264.27 323.77 256.58 325.45 C 248.89 327.13 241.65 327.72 234.41 327.42 C 227.16 327.12 219.97 325.89 213.12 323.66 C 206.27 321.43 199.45 317.51 193.30 314.06 C 187.15 310.61 181.54 306.64 176.21 302.94 C 170.89 299.25 166.08 295.21 161.37 291.87 C 156.66 288.53 152.53 285.30 147.94 282.92 C 143.34 280.54 138.18 278.96 133.80 277.58 C 129.42 276.19 125.37 274.67 121.66 274.62 C 117.96 274.57 114.75 275.70 111.59 277.28 C 108.43 278.87 105.37 281.37 102.70 284.14 C 100.03 286.91 97.41 290.20 95.59 293.90 C 93.76 297.60 92.88 302.22 91.74 306.34 C 90.61 310.45 89.57 314.52 88.75 318.61 C 87.94 322.70 87.62 326.92 86.87 330.89 C 86.12 334.86 85.27 339.17 84.24 342.44 C 83.20 345.71 81.98 348.31 80.68 350.50 C 79.38 352.70 78.12 354.27 76.43 355.58 C 74.75 356.89 72.37 357.77 70.55 358.36 C 68.73 358.95 67.49 359.71 65.53 359.14 C 63.57 358.57 61.19 357.30 58.80 354.93 C 56.41 352.56 53.26 349.15 51.19 344.92 C 49.12 340.69 47.50 335.30 46.39 329.55 C 45.28 323.81 44.47 317.23 44.54 310.46 C 44.62 303.70 45.17 296.43 46.86 288.98 C 48.56 281.54 50.87 273.45 54.74 265.79 C 58.61 258.14 64.55 250.44 70.09 243.08 C 75.62 235.72 81.66 228.40 87.94 221.63 C 94.23 214.86 101.15 208.62 107.80 202.44 C 114.45 196.25 121.63 190.28 127.84 184.52 C 134.04 178.76 139.95 173.21 145.03 167.89 C 150.12 162.57 154.38 158.02 158.35 152.60 C 162.32 147.17 166.24 140.56 168.86 135.32 C 171.49 130.09 173.38 125.35 174.11 121.17 C 174.84 117.00 174.31 113.41 173.22 110.28 C 172.13 107.14 170.18 104.08 167.56 102.36 C 164.93 100.64 161.37 100.11 157.47 99.98 C 153.56 99.84 148.55 100.15 144.15 101.55 C 139.74 102.96 135.41 105.65 131.02 108.40 C 126.63 111.16 121.74 114.26 117.81 118.08 C 113.88 121.91 110.80 126.28 107.43 131.36 C 104.05 136.44 100.11 141.90 97.55 148.57 C 94.98 155.25 92.73 163.30 92.03 171.43 C 91.34 179.55 92.16 188.44 93.38 197.31 C 94.59 206.18 96.08 215.92 99.34 224.62 C 102.59 233.32 107.22 241.93 112.89 249.50 C 118.56 257.07 125.90 263.65 133.36 270.04 C 140.83 276.43 148.86 283.28 157.67 287.84 C 166.47 292.40 176.98 295.11 186.19 297.39 C 195.40 299.67 204.19 301.79 212.95 301.52 C 221.71 301.26 230.44 298.19 238.74 295.79 C 247.04 293.40 255.08 290.27 262.74 287.16 C 270.40 284.04 277.81 280.27 284.71 277.09 C 291.62 273.90 297.77 270.38 304.17 268.03 C 310.57 265.67 317.03 263.83 323.10 262.96 C 329.17 262.09 335.28 261.84 340.59 262.79 C 345.89 263.74 350.63 265.54 354.93 268.68 C 359.22 271.82 363.80 276.81 366.36 281.63 C 368.93 286.44 370.09 291.92 370.33 297.55 C 370.57 303.19 370.00 309.38 367.81 315.45 C 365.63 321.52 362.31 328.54 357.21 333.95 C 352.11 339.36 344.50 344.68 337.22 347.90 C 329.93 351.12 322.84 353.28 313.50 353.27 C 304.16 353.26 290.42 350.84 281.20 347.82 C 271.97 344.79 264.55 341.02 258.14 335.13 C 251.73 329.23 246.21 320.54 242.73 312.46 C 239.25 304.39 237.90 295.19 237.26 286.68 C 236.62 278.17 237.09 269.30 238.88 261.39 C 240.67 253.48 244.89 246.15 248.01 239.20 C 251.13 232.25 254.20 225.79 257.60 219.69 C 260.99 213.60 264.88 208.00 268.38 202.62 C 271.88 197.23 275.09 192.16 278.58 187.36 C 282.06 182.56 286.19 178.30 289.30 173.83 C 292.40 169.35 295.13 164.95 297.22 160.50 C 299.31 156.04 300.63 151.51 301.81 147.11 C 302.99 142.71 304.15 138.45 304.29 134.11 C 304.44 129.77 303.88 125.17 302.71 121.08 C 301.53 116.99 299.89 112.97 297.25 109.55 C 294.61 106.13 291.29 102.84 286.86 100.58 C 282.43 98.32 276.52 96.75 270.66 96.02 C 264.80 95.29 258.56 95.19 251.70 96.20 C 244.83 97.20 236.55 99.15 229.47 102.05 C 222.38 104.94 215.80 109.52 209.17 113.58 C 202.54 117.65 195.77 122.06 189.66 126.43 C 183.56 130.81 177.95 135.32 172.55 139.84 C 167.15 144.36 162.21 149.46 157.25 153.58 C 152.30 157.69 147.26 161.11 142.80 164.50 C 138.35 167.89 134.89 171.05 130.53 173.91 C 126.16 176.78 120.79 179.93 116.62 181.72 C 112.44 183.51 109.01 184.42 105.46 184.65 C 101.91 184.88 98.20 184.05 95.32 183.09 C 92.43 182.14 89.87 181.11 88.14 178.92 C 86.42 176.74 85.46 173.35 84.97 169.99 C 84.49 166.64 84.31 162.77 85.25 158.79 C 86.18 154.82 88.14 150.80 90.61 146.12 C 93.07 141.44 96.59 135.56 100.05 130.72 C 103.50 125.87 106.80 121.27 111.31 117.06 C 115.82 112.85 121.54 109.11 127.12 105.47 C 132.70 101.83 138.75 98.02 144.80 95.23 C 150.84 92.43 157.48 90.85 163.39 88.69 C 169.29 86.53 174.86 84.44 180.23 82.25 C 185.61 80.06 191.10 77.96 195.64 75.56 C 200.18 73.16 204.96 70.42 207.46 67.86 C 209.97 65.30 210.67 62.45 210.69 60.21 C 210.71 57.97 209.22 56.19 207.58 54.43 C 205.94 52.68 204.09 50.25 200.83 49.68 C 197.56 49.10 192.59 49.93 187.99 50.98 C 183.39 52.04 177.93 54.08 173.22 56.02 C 168.51 57.95 163.90 60.47 159.74 62.59 C 155.59 64.72 152.06 67.10 148.30 68.78 C 144.53 70.47 140.30 72.12 137.14 72.70 C 133.99 73.29 131.14 72.90 129.36 72.28 C 127.58 71.66 126.13 70.33 126.46 68.99 C 126.79 67.65 128.80 66.20 131.34 64.23 C 133.88 62.25 137.23 59.18 141.72 57.16 C 146.21 55.13 151.97 53.29 158.29 52.08 C 164.61 50.87 171.89 49.73 179.62 49.90 C 187.35 50.06 196.14 51.04 204.66 53.06 C 213.18 55.07 222.32 58.14 230.74 61.97 C 239.17 65.81 247.47 70.15 255.22 76.06 C 262.98 81.97 270.59 90.16 277.28 97.45 C 283.97 104.74 290.46 111.37 295.37 119.81 C 300.27 128.24 304.19 138.48 306.71 148.05 C 309.24 157.62 310.92 167.44 310.51 177.24 C 310.11 187.03 307.84 197.81 304.26 206.80 C 300.69 215.79 295.57 224.40 289.06 231.18 C 282.56 237.95 272.99 244.09 265.24 247.45 C 257.48 250.80 249.77 251.81 242.53 251.31 C 235.29 250.81 227.63 248.28 221.81 244.45 C 215.99 240.62 210.28 234.51 207.62 228.33 C 204.97 222.15 204.35 213.95 205.88 207.38 C 207.41 200.80 211.67 193.25 216.81 188.89 C 221.94 184.53 229.36 182.07 236.68 181.22 C 243.99 180.37 253.31 181.07 260.70 183.76 C 268.09 186.46 275.48 191.25 281.02 197.36 C 286.56 203.48 292.04 212.22 293.95 220.45 C 295.87 228.68 295.08 238.92 292.51 246.73 C 289.95 254.54 284.53 262.41 278.58 267.31 C 272.63 272.22 264.33 274.98 256.82 276.16 C 249.30 277.33 240.33 276.89 233.47 274.37 C 226.62 271.84 220.11 266.66 215.69 261.00 C 211.28 255.33 208.41 247.44 206.98 240.40 C 205.55 233.36 205.23 225.63 207.13 218.74 C 209.03 211.86 213.49 204.52 218.38 199.10 C 223.27 193.68 229.88 189.25 236.49 186.23 C 243.11 183.21 250.82 181.01 258.07 180.99 C 265.32 180.97 272.72 183.67 279.99 186.08 C 287.27 188.50 295.20 191.92 301.71 195.48 C 308.22 199.04 313.51 203.24 319.06 207.43 C 324.61 211.62 330.17 216.38 335.03 220.64 C 339.89 224.89 343.99 228.70 348.24 232.96 C 352.49 237.22 356.57 241.81 360.54 246.20 C 364.50 250.60 368.21 255.67 372.01 259.33 C 375.82 263.00 379.80 265.37 383.38 268.19 C 386.95 271.02 390.16 273.76 393.46 276.28 C 396.77 278.80 400.33 280.78 403.20 283.29 C 406.07 285.81 408.71 287.73 410.68 291.38 C 412.66 295.03 414.76 299.82 415.07 305.19 C 415.38 310.57 414.82 317.63 412.56 323.65 C 410.30 329.67 406.54 335.93 401.51 341.31 C 396.48 346.69 390.09 352.15 382.36 355.93 C 374.62 359.72 364.65 363.03 355.11 364.03 C 345.56 365.02 334.83 363.95 325.11 361.90 C 315.38 359.85 305.48 356.23 296.76 351.72 C 288.03 347.21 279.82 341.44 272.77 334.83 C 265.72 328.22 258.84 320.25 254.48 312.08 C 250.13 303.90 247.48 294.37 246.64 285.78 C 245.80 277.19 247.08 268.07 249.46 260.53 C 251.85 252.99 256.29 246.14 260.95 240.55 C 265.61 234.96 271.38 230.53 277.40 226.98 C 283.42 223.43 290.57 221.04 297.04 219.25 C 303.51 217.46 309.91 217.24 316.21 216.25 C 322.51 215.26 329.20 214.23 334.85 213.33 C 340.49 212.43 345.32 212.23 350.05 210.84 C 354.78 209.46 359.34 207.36 363.24 205.02 C 367.13 202.67 370.28 200.11 373.41 196.78 C 376.54 193.44 380.30 189.20 382.00 185.03 C 383.69 180.87 383.89 176.60 383.56 171.79 C 383.23 166.98 382.00 161.28 380.01 156.19 C 378.03 151.10 375.41 145.90 371.65 141.23 C 367.89 136.56 363.15 131.81 357.44 128.16 C 351.73 124.51 345.02 121.09 337.39 119.33 C 329.76 117.57 320.25 116.92 311.67 117.60 C 303.08 118.28 294.20 120.30 285.88 123.42 C 277.56 126.55 269.38 130.90 261.73 136.36 C 254.08 141.82 245.95 148.69 239.98 156.19 C 234.02 163.69 228.94 172.69 225.94 181.36 C 222.93 190.03 221.76 199.36 221.95 208.22 C 222.15 217.08 223.63 226.67 227.09 234.49 C 230.56 242.31 236.06 249.93 242.74 255.13 C 249.41 260.34 259.55 264.72 267.14 265.71 C 274.74 266.71 282.36 264.26 288.31 261.11 C 294.26 257.96 299.47 252.38 302.85 246.83 C 306.24 241.29 308.31 234.31 308.62 227.84 C 308.93 221.36 307.41 214.02 304.71 207.98 C 302.01 201.95 297.49 196.04 292.42 191.62 C 287.36 187.20 280.94 183.65 274.31 181.48 C 267.67 179.31 259.88 178.38 252.60 178.60 C 245.32 178.82 237.56 179.92 230.64 182.81 C 223.71 185.70 216.75 190.59 211.04 195.93 C 205.33 201.28 200.22 208.03 196.38 214.88 C 192.55 221.74 190.01 229.37 188.01 237.05 C 186.02 244.72 185.11 253.36 184.42 260.92 C 183.73 268.47 183.75 275.33 183.86 282.39 C 183.97 289.45 184.87 296.63 185.06 303.28 C 185.26 309.93 185.38 316.25 185.01 322.26 C 184.65 328.27 183.90 334.25 182.85 339.33 C 181.81 344.41 180.73 348.57 178.74 352.74 C 176.74 356.92 173.80 361.52 170.87 364.37 C 167.95 367.23 164.74 368.49 161.21 369.86 C 157.68 371.23 153.39 371.86 149.68 372.59 C 145.98 373.33 142.22 373.13 138.98 374.27 C 135.75 375.41 132.76 377.53 130.26 379.45 C 127.76 381.37 125.05 382.89 123.99 385.80 C 122.94 388.70 123.18 393.23 123.94 396.89 C 124.69 400.55 125.81 404.17 128.51 407.76 C 131.22 411.36 135.19 415.32 140.15 418.46 C 145.11 421.59 151.26 424.86 158.28 426.60 C 165.30 428.34 174.13 428.84 182.26 428.91 C 190.39 428.98 198.46 429.02 207.06 427.02 C 215.66 425.02 224.71 421.83 233.84 416.89 C 242.97 411.96 254.23 404.64 261.83 397.42 C 269.43 390.20 274.46 382.10 279.45 373.54 C 284.43 364.98 289.24 355.59 291.74 346.06 C 294.24 336.53 295.29 325.96 294.45 316.35 C 293.61 306.75 289.95 296.88 286.68 288.43 C 283.41 279.99 279.05 272.74 274.81 265.67 C 270.58 258.61 265.60 252.38 261.28 246.03 C 256.97 239.67 252.73 233.50 248.93 227.54 C 245.13 221.58 241.61 215.92 238.49 210.27 C 235.37 204.63 232.39 199.27 230.22 193.68 C 228.05 188.09 226.76 182.30 225.45 176.72 C 224.14 171.14 222.11 165.49 222.36 160.18 C 222.62 154.87 224.99 149.47 226.97 144.85 C 228.95 140.22 231.14 136.35 234.25 132.43 C 237.35 128.51 241.08 124.36 245.60 121.33 C 250.11 118.29 255.63 115.91 261.31 114.22 C 267.00 112.53 273.31 111.15 279.73 111.19 C 286.15 111.23 293.40 112.47 299.85 114.48 C 306.31 116.49 312.62 119.33 318.45 123.26 C 324.29 127.18 329.62 132.38 334.88 138.05 C 340.13 143.73 345.76 150.51 349.99 157.29 C 354.21 164.07 358.06 171.05 360.22 178.74 C 362.37 186.44 363.23 194.91 362.91 203.49 C 362.59 212.06 360.90 221.81 358.29 230.21 C 355.68 238.62 352.20 246.48 347.25 253.92 C 342.30 261.36 335.44 269.17 328.59 274.86 C 321.74 280.54 314.14 285.51 306.15 288.04 C 298.17 290.56 288.94 290.93 280.66 290.01 C 272.39 289.08 263.74 286.11 256.48 282.50 C 249.23 278.90 242.22 274.21 237.14 268.38 C 232.07 262.54 227.94 254.58 226.01 247.51 C 224.09 240.44 223.76 233.10 225.61 225.95 C 227.47 218.80 232.52 210.14 237.15 204.60 C 241.77 199.05 247.27 195.46 253.36 192.69 C 259.44 189.92 266.74 187.90 273.64 188.00 C 280.54 188.09 288.08 190.81 294.73 193.28 C 301.38 195.75 307.79 198.67 313.55 202.83 C 319.31 206.98 324.26 213.08 329.28 218.20 C 334.29 223.31 339.15 228.73 343.63 233.53 C 348.11 238.33 352.05 242.83 356.16 247.01 C 360.27 251.20 364.25 255.37 368.31 258.65 C 372.37 261.94 376.27 265.07 380.51 266.73 C 384.74 268.38 389.58 268.81 393.74 268.59 C 397.89 268.37 401.85 267.61 405.45 265.39 C 409.05 263.18 412.87 259.34 415.33 255.31 C 417.79 251.27 419.62 246.44 420.20 241.19 C 420.77 235.93 420.10 229.82 418.79 223.77 C 417.49 217.73 415.82 211.08 412.36 204.94 C 408.89 198.80 404.04 192.48 398.02 186.92 C 392.00 181.36 384.15 175.71 376.24 171.59 C 368.32 167.46 359.43 164.13 350.51 162.16 C 341.58 160.18 332.10 159.35 322.68 159.72 C 313.25 160.10 303.01 162.20 293.96 164.42 C 284.91 166.64 276.69 169.85 268.39 173.06 C 260.09 176.26 251.81 180.49 244.18 183.66 C 236.54 186.82 229.67 190.06 222.59 192.03 C 215.52 194.00 208.12 195.10 201.74 195.48 C 195.36 195.85 189.59 195.66 184.30 194.26 C 179.01 192.87 173.36 190.28 169.98 187.10 C 166.60 183.93 164.60 179.77 164.01 175.21 C 163.42 170.65 164.29 164.72 166.44 159.73 C 168.58 154.74 172.48 149.48 176.87 145.29 C 181.26 141.10 185.44 136.78 192.76 134.59 C 200.09 132.39 211.83 130.95 220.82 132.11 C 229.81 133.27 238.87 136.91 246.70 141.55 C 254.54 146.19 262.23 152.38 267.83 159.95 C 273.44 167.52 277.66 177.88 280.34 186.96 C 283.01 196.03 284.29 205.74 283.87 214.42 C 283.45 223.09 281.02 231.42 277.81 239.00 C 274.60 246.57 269.29 253.51 264.61 259.86 C 259.93 266.22 255.07 272.04 249.75 277.15 C 244.43 282.26 238.14 286.36 232.69 290.50 C 227.23 294.65 221.90 298.40 217.03 302.03 C 212.17 305.65 207.83 308.36 203.51 312.26 C 199.19 316.16 194.53 320.97 191.14 325.42 C 187.74 329.86 185.07 334.43 183.16 338.94 C 181.26 343.45 180.65 347.89 179.73 352.47 C 178.82 357.05 178.25 361.93 177.67 366.41 C 177.08 370.89 177.12 375.40 176.23 379.33 C 175.34 383.27 173.65 386.50 172.34 390.02 C 171.03 393.54 169.96 397.51 168.37 400.44 C 166.79 403.37 165.53 406.06 162.81 407.59 C 160.10 409.13 155.89 409.67 152.08 409.63 C 148.27 409.59 144.12 408.81 139.96 407.37 C 135.79 405.92 131.15 403.43 127.09 400.97 C 123.02 398.52 119.42 395.20 115.56 392.63 C 111.71 390.07 107.35 387.38 103.96 385.58 C 100.57 383.78 98.05 382.63 95.23 381.86 C 92.41 381.09 89.36 380.80 87.04 380.97 C 84.73 381.14 82.69 381.71 81.33 382.88 C 79.97 384.04 78.77 385.66 78.90 387.96 C 79.04 390.26 80.07 393.39 82.14 396.67 C 84.21 399.94 88.01 404.12 91.32 407.61 C 94.63 411.09 98.26 414.12 101.99 417.59 C 105.72 421.05 110.20 424.97 113.70 428.38 C 117.20 431.79 120.73 435.52 122.99 438.06 C 125.25 440.59 126.58 441.82 127.26 443.59 C 127.94 445.36 128.00 447.53 127.09 448.70 C 126.17 449.87 123.92 450.88 121.76 450.60 C 119.61 450.32 117.24 449.00 114.14 447.03 C 111.05 445.06 106.67 441.96 103.18 438.76 C 99.70 435.55 96.44 431.28 93.22 427.82 C 90.01 424.35 86.81 420.98 83.89 417.96 C 80.98 414.95 77.92 411.75 75.74 409.71 C 73.55 407.68 72.14 406.18 70.76 405.76 C 69.38 405.35 67.91 405.98 67.45 407.23 C 66.99 408.47 66.83 410.75 68.01 413.25 C 69.19 415.76 71.13 419.16 74.51 422.24 C 77.88 425.33 82.53 428.69 88.27 431.74 C 94.01 434.79 101.27 438.41 108.97 440.55 C 116.66 442.68 125.48 444.17 134.46 444.54 C 143.44 444.91 153.31 444.08 162.84 442.75 C 172.36 441.42 182.03 439.71 191.59 436.54 C 201.15 433.37 211.05 429.13 220.18 423.75 C 229.32 418.36 238.67 411.79 246.39 404.22 C 254.10 396.65 260.75 387.16 266.49 378.33 C 272.22 369.49 276.91 360.43 280.82 351.21 C 284.73 341.99 287.16 331.97 289.96 323.01 C 292.77 314.05 295.33 305.71 297.67 297.47 C 300.01 289.23 302.22 281.23 304.02 273.55 C 305.82 265.86 306.47 258.35 308.45 251.35 C 310.43 244.35 313.40 237.41 315.90 231.54 C 318.40 225.68 320.63 220.74 323.43 216.16 C 326.23 211.58 328.99 207.67 332.68 204.05 C 336.36 200.43 341.07 196.52 345.56 194.42 C 350.05 192.31 354.60 191.60 359.61 191.41 C 364.61 191.21 370.75 191.15 375.61 193.25 C 380.47 195.35 385.33 199.67 388.76 204.02 C 392.19 208.37 394.54 213.16 396.20 219.36 C 397.85 225.57 399.33 233.84 398.72 241.26 C 398.10 248.69 396.07 256.46 392.50 263.90 C 388.93 271.33 383.30 279.24 377.30 285.86 C 371.31 292.48 363.80 298.29 356.52 303.60 C 349.24 308.91 341.01 313.56 333.62 317.72 C 326.23 321.89 319.39 325.20 312.18 328.58 C 304.96 331.96 297.23 334.87 290.31 338.00 C 283.39 341.13 276.61 344.17 270.66 347.38 C 264.71 350.59 259.52 353.85 254.62 357.27 C 249.73 360.68 245.34 364.65 241.32 367.87 C 237.29 371.09 233.46 373.38 230.45 376.58 C 227.45 379.79 224.83 383.35 223.27 387.10 C 221.72 390.84 220.66 395.32 221.11 399.04 C 221.57 402.76 223.74 406.09 226.01 409.42 C 228.29 412.74 230.75 416.75 234.77 418.99 C 238.79 421.24 244.16 422.80 250.13 422.89 C 256.10 422.98 263.52 421.79 270.58 419.52 C 277.64 417.25 285.62 414.05 292.51 409.29 C 299.41 404.53 306.15 397.78 311.95 390.94 C 317.74 384.09 322.71 376.01 327.27 368.22 C 331.84 360.44 335.74 352.03 339.31 344.22 C 342.89 336.42 345.68 328.47 348.75 321.40 C 351.83 314.32 354.48 307.88 357.76 301.76 C 361.05 295.65 364.63 289.32 368.46 284.71 C 372.29 280.09 376.57 276.95 380.73 274.05 C 384.90 271.15 389.31 268.16 393.47 267.33 C 397.64 266.50 402.19 267.61 405.72 269.08 C 409.25 270.55 412.40 272.93 414.65 276.13 C 416.90 279.33 418.88 283.15 419.23 288.27 C 419.57 293.39 418.45 300.63 416.72 306.86 C 414.99 313.10 412.47 319.75 408.87 325.69 C 405.28 331.63 400.80 337.24 395.15 342.52 C 389.49 347.79 382.34 353.40 374.94 357.34 C 367.54 361.28 359.22 363.81 350.75 366.15 C 342.29 368.50 332.90 370.30 324.14 371.42 C 315.38 372.53 306.78 373.57 298.19 372.84 C 289.60 372.12 280.97 369.97 272.61 367.08 C 264.26 364.19 255.43 360.69 248.08 355.49 C 240.72 350.30 233.94 343.17 228.48 335.91 C 223.01 328.65 218.34 320.17 215.29 311.94 C 212.24 303.71 210.72 295.02 210.17 286.55 C 209.62 278.07 210.43 269.11 212.00 261.07 C 213.56 253.03 215.93 245.17 219.56 238.30 C 223.19 231.44 228.95 225.36 233.79 219.90 C 238.63 214.43 243.76 210.06 248.62 205.50 C 253.47 200.93 258.00 196.51 262.90 192.52 C 267.80 188.53 273.20 185.12 278.02 181.56 C 282.84 178.01 287.75 174.96 291.80 171.20 C 295.86 167.44 299.03 162.99 302.35 158.98 C 305.67 154.96 309.06 151.11 311.73 147.11 C 314.40 143.11 317.05 139.04 318.36 134.98 C 319.67 130.91 320.22 126.74 319.57 122.71 C 318.93 118.67 317.28 114.41 314.49 110.78 C 311.69 107.15 307.25 103.71 302.82 100.94 C 298.38 98.17 293.70 95.75 287.87 94.16 C 282.05 92.56 274.81 91.01 267.86 91.35 C 260.92 91.69 253.47 93.15 246.19 96.18 C 238.91 99.20 231.02 104.01 224.21 109.51 C 217.39 115.01 210.85 121.99 205.31 129.15 C 199.77 136.31 194.82 144.06 190.99 152.50 C 187.15 160.94 184.89 170.53 182.30 179.78 C 179.72 189.02 177.92 199.66 175.47 207.96 C 173.02 216.25 170.34 222.83 167.59 229.53 C 164.84 236.23 162.10 242.91 158.98 248.15 C 155.85 253.39 152.55 257.48 148.85 260.97 C 145.14 264.46 140.78 267.15 136.74 269.08 C 132.71 271.00 128.69 272.46 124.64 272.54 C 120.60 272.62 116.13 271.47 112.46 269.55 C 108.80 267.64 104.86 265.09 102.65 261.03 C 100.43 256.97 99.28 251.07 99.19 245.20 C 99.09 239.32 99.36 232.60 102.07 225.77 C 104.77 218.94 109.80 210.42 115.40 204.21 C 121.00 198.00 127.96 192.56 135.67 188.50 C 143.38 184.45 152.44 181.43 161.65 179.87 C 170.87 178.32 181.57 177.36 190.97 179.16 C 200.37 180.96 210.04 185.40 218.03 190.66 C 226.03 195.91 233.62 203.15 238.94 210.69 C 244.25 218.23 248.49 227.49 249.93 235.88 C 251.36 244.28 249.82 253.58 247.54 261.06 C 245.25 268.53 241.17 275.69 236.22 280.71 C 231.27 285.72 224.20 289.46 217.83 291.14 C 211.45 292.82 203.93 292.46 197.96 290.81 C 192.00 289.16 186.35 286.03 182.01 281.24 C 177.67 276.45 174.18 268.52 171.94 262.06 C 169.70 255.60 169.37 248.87 168.57 242.47 C 167.77 236.07 167.35 230.10 167.12 223.65 C 166.89 217.20 167.15 210.11 167.20 203.79 C 167.24 197.46 167.09 191.47 167.39 185.69 C 167.69 179.92 168.93 174.14 169.00 169.12 C 169.08 164.09 168.84 159.64 167.83 155.54 C 166.82 151.45 164.36 148.16 162.92 144.57 C 161.48 140.98 160.83 137.45 159.18 134.01 C 157.53 130.56 154.46 127.36 153.02 123.91 C 151.59 120.46 150.76 116.95 150.54 113.30 C 150.33 109.65 150.46 105.59 151.72 102.00 C 152.98 98.42 155.48 95.07 158.12 91.80 C 160.76 88.53 163.96 85.26 167.57 82.38 C 171.17 79.51 175.20 76.75 179.74 74.54 C 184.28 72.34 189.12 70.51 194.81 69.13 C 200.50 67.76 207.22 66.54 213.87 66.29 C 220.52 66.03 227.59 66.15 234.71 67.60 C 241.83 69.05 249.17 72.02 256.59 74.97 C 264.02 77.92 271.98 80.77 279.25 85.31 C 286.52 89.84 293.73 95.77 300.23 102.19 C 306.73 108.62 312.97 116.32 318.26 123.86 C 323.55 131.40 328.18 139.15 331.97 147.43 C 335.76 155.71 339.27 164.48 340.99 173.54 C 342.71 182.60 343.07 192.52 342.29 201.77 C 341.52 211.01 339.62 220.54 336.33 229.00 C 333.03 237.47 328.48 245.88 322.51 252.57 C 316.54 259.26 308.29 265.18 300.52 269.15 C 292.75 273.11 284.00 275.77 275.90 276.35 C 267.79 276.93 258.94 275.53 251.89 272.63 C 244.84 269.73 238.24 264.32 233.60 258.94 C 228.97 253.57 225.90 246.98 224.10 240.37 C 222.29 233.77 222.23 226.02 222.78 219.30 C 223.32 212.58 226.23 206.47 227.35 200.05 C 228.48 193.63 228.78 186.69 229.52 180.78 C 230.27 174.87 231.69 170.02 231.83 164.56 C 231.97 159.10 231.65 152.97 230.36 148.02 C 229.07 143.06 226.83 138.36 224.08 134.83 C 221.33 131.29 218.12 128.95 213.89 126.82 C 209.66 124.69 203.86 122.80 198.70 122.04 C 193.55 121.28 188.41 121.68 182.94 122.28 C 177.47 122.87 170.92 124.99 165.86 125.61 C 160.81 126.24 156.29 126.83 152.62 126.03 C 148.94 125.22 145.86 122.91 143.81 120.80 C 141.76 118.70 140.37 116.49 140.34 113.39 C 140.30 110.28 141.21 105.73 143.60 102.19 C 146.00 98.64 149.96 95.13 154.71 92.14 C 159.45 89.14 165.60 85.70 172.05 84.19 C 178.50 82.69 185.60 82.63 193.43 83.10 C 201.26 83.56 210.45 84.62 219.02 87.00 C 227.59 89.38 236.77 92.84 244.85 97.37 C 252.92 101.89 260.44 107.64 267.49 114.14 C 274.53 120.64 281.50 128.33 287.10 136.35 C 292.70 144.37 297.48 153.49 301.08 162.28 C 304.68 171.07 307.18 179.92 308.68 189.08 C 310.19 198.24 310.89 208.27 310.09 217.25 C 309.29 226.22 307.71 235.31 303.87 242.93 C 300.03 250.55 293.44 257.77 287.03 262.95 C 280.63 268.14 272.84 272.02 265.44 274.04 C 258.04 276.06 249.72 276.73 242.61 275.07 C 235.49 273.41 227.71 269.25 222.73 264.09 C 217.75 258.92 213.92 251.06 212.72 244.08 C 211.51 237.11 212.75 228.74 215.52 222.25 C 218.29 215.77 223.83 209.73 229.33 205.16 C 234.82 200.58 241.80 197.98 248.48 194.80 C 255.15 191.62 262.51 188.15 269.38 186.10 C 276.25 184.04 283.23 183.50 289.69 182.48 C 296.15 181.45 302.24 180.69 308.14 179.95 C 314.04 179.20 319.74 179.08 325.08 177.99 C 330.41 176.90 335.95 175.33 340.15 173.43 C 344.35 171.52 347.40 169.32 350.28 166.57 C 353.16 163.82 355.74 160.89 357.44 156.94 C 359.14 152.98 360.62 147.27 360.49 142.85 C 360.37 138.43 358.64 134.48 356.68 130.41 C 354.73 126.35 352.01 122.23 348.75 118.44 C 345.49 114.66 341.74 110.99 337.13 107.72 C 332.52 104.45 327.01 101.29 321.11 98.80 C 315.21 96.31 308.70 93.92 301.74 92.78 C 294.79 91.65 286.84 91.39 279.39 91.98 C 271.95 92.58 264.62 93.58 257.09 96.34 C 249.56 99.11 241.54 103.65 234.22 108.58 C 226.90 113.50 219.45 119.44 213.18 125.91 C 206.92 132.38 201.18 139.42 196.61 147.41 C 192.04 155.40 188.30 165.03 185.77 173.84 C 183.23 182.65 181.48 191.40 181.40 200.26 C 181.33 209.11 182.69 218.42 185.29 226.96 C 187.89 235.50 192.08 244.18 197.03 251.48 C 201.97 258.79 208.53 265.74 214.98 270.81 C 221.43 275.88 228.14 279.65 235.72 281.89 C 243.31 284.14 252.84 285.36 260.48 284.27 C 268.12 283.17 275.43 279.56 281.55 275.30 C 287.67 271.04 293.57 265.06 297.22 258.70 C 300.87 252.35 303.07 244.09 303.45 237.15 C 303.82 230.22 302.27 223.46 299.49 217.09 C 296.71 210.71 292.07 203.78 286.76 198.93 C 281.45 194.08 274.30 190.60 267.63 187.98 C 260.95 185.37 253.67 184.30 246.71 183.24 C 239.74 182.18 232.31 182.05 225.84 181.63 C 219.36 181.22 214.00 181.18 207.86 180.75 C 201.71 180.33 194.79 179.74 188.95 179.08 C 183.10 178.42 177.56 178.19 172.77 176.81 C 167.97 175.44 163.63 173.41 160.20 170.84 C 156.76 168.26 153.99 164.82 152.15 161.35 C 150.31 157.88 148.84 154.81 149.14 150.01 C 149.43 145.21 151.15 137.54 153.92 132.54 C 156.69 127.53 160.47 123.40 165.78 119.96 C 171.08 116.51 178.11 113.04 185.75 111.86 C 193.40 110.67 202.72 111.11 211.62 112.85 C 220.52 114.58 230.57 117.82 239.16 122.26 C 247.75 126.71 256.34 132.73 263.15 139.51 C 269.97 146.29 276.19 154.25 280.07 162.95 C 283.95 171.64 286.12 182.26 286.43 191.69 C 286.74 201.11 284.82 211.05 281.92 219.51 C 279.02 227.98 274.32 236.26 269.04 242.46 C 263.76 248.67 256.96 253.99 250.23 256.76 C 243.50 259.52 235.46 260.29 228.67 259.06 C 221.88 257.82 214.32 253.77 209.48 249.35 C 204.64 244.93 201.02 238.65 199.63 232.55 C 198.24 226.45 199.01 219.02 201.14 212.76 C 203.27 206.50 207.75 200.33 212.39 195.00 C 217.03 189.66 223.46 184.86 228.98 180.73 C 234.49 176.60 240.28 173.97 245.48 170.21 C 250.67 166.45 255.59 161.98 260.15 158.15 C 264.70 154.33 269.30 151.08 272.79 147.27 C 276.29 143.47 279.06 139.39 281.11 135.33 C 283.17 131.27 284.92 127.04 285.11 122.92 C 285.31 118.80 283.80 114.45 282.27 110.62 C 280.73 106.80 278.62 103.08 275.91 99.97 C 273.20 96.87 269.12 94.77 265.99 92.01 C 262.86 89.24 259.53 86.31 257.12 83.38 C 254.71 80.45 253.26 77.26 251.53 74.40 C 249.80 71.55 247.53 68.90 246.76 66.27 C 246.00 63.64 245.90 60.99 246.92 58.62 C 247.94 56.25 249.97 53.89 252.89 52.06 C 255.80 50.23 260.04 48.37 264.39 47.62 C 268.75 46.87 273.52 47.16 279.00 47.56 C 284.49 47.95 291.85 48.72 297.32 49.98 C 302.79 51.23 306.75 53.53 311.84 55.08 C 316.93 56.63 322.89 57.71 327.88 59.27 C 332.86 60.82 337.56 63.19 341.74 64.43 C 345.93 65.67 349.35 66.32 352.97 66.70 C 356.59 67.08 360.42 66.82 363.46 66.69 C 366.50 66.56 369.03 66.33 371.23 65.94 C 373.42 65.56 375.14 65.00 376.62 64.37 C 378.10 63.73 378.68 62.82 380.10 62.13 C 381.52 61.44 383.42 60.60 385.14 60.23 C 386.86 59.87 388.40 59.52 390.45 59.95 C 392.50 60.38 394.66 61.27 397.43 62.81 C 400.21 64.35 403.66 66.52 407.10 69.19 C 410.54 71.86 414.54 74.69 418.07 78.84 C 421.59 83.00 425.07 88.58 428.25 94.14 C 431.43 99.70 434.53 106.06 437.16 112.21 C 439.79 118.36 441.61 125.24 444.02 131.05 C 446.42 136.85 449.01 142.77 451.58 147.04 C 454.14 151.31 456.99 154.55 459.41 156.65 C 461.83 158.74 464.56 159.83 466.08 159.60 C 467.59 159.37 468.36 157.38 468.48 155.27 C 468.61 153.16 468.60 150.41 466.82 146.94 C 465.03 143.46 462.71 138.58 457.77 134.43 C 452.84 130.27 445.03 125.50 437.21 121.99 C 429.39 118.48 420.37 115.04 410.87 113.38 C 401.38 111.71 390.87 111.10 380.24 112.00 C 369.61 112.91 357.57 115.33 347.12 118.81 C 336.66 122.29 326.43 126.76 317.52 132.86 C 308.61 138.96 300.06 146.92 293.65 155.41 C 287.24 163.89 282.36 174.40 279.04 183.77 C 275.73 193.15 274.47 201.86 273.76 211.65 C 273.05 221.44 273.83 233.60 274.78 242.53 C 275.73 251.47 277.93 258.01 279.48 265.26 C 281.02 272.52 282.84 279.20 284.06 286.07 C 285.27 292.94 286.67 300.10 286.78 306.47 C 286.89 312.85 285.73 318.48 284.72 324.34 C 283.71 330.20 283.14 336.38 280.70 341.63 C 278.26 346.88 274.83 352.08 270.08 355.84 C 265.33 359.60 258.60 362.29 252.18 364.21 C 245.75 366.13 238.20 366.83 231.53 367.35 C 224.86 367.87 218.33 367.18 212.16 367.33 C 206.00 367.48 200.04 367.77 194.56 368.25 C 189.08 368.73 183.62 369.24 179.28 370.20 C 174.95 371.17 171.43 372.17 168.54 374.05 C 165.65 375.94 163.17 378.71 161.92 381.52 C 160.68 384.33 160.54 387.41 161.07 390.91 C 161.60 394.41 163.13 398.73 165.11 402.50 C 167.08 406.28 169.22 410.05 172.92 413.55 C 176.62 417.05 182.05 420.81 187.29 423.50 C 192.53 426.20 198.23 428.35 204.38 429.71 C 210.53 431.07 217.05 431.61 224.19 431.64 C 231.34 431.68 239.59 431.38 247.26 429.90 C 254.93 428.43 262.88 425.89 270.23 422.79 C 277.57 419.68 284.63 415.57 291.34 411.27 C 298.05 406.97 304.31 402.19 310.46 396.96 C 316.62 391.74 322.58 385.61 328.26 379.92 C 333.94 374.24 339.31 368.18 344.55 362.84 C 349.80 357.51 354.87 352.50 359.72 347.92 C 364.57 343.33 369.04 339.06 373.63 335.34 C 378.23 331.62 382.93 328.51 387.28 325.62 C 391.63 322.74 395.69 319.82 399.73 318.02 C 403.77 316.22 408.09 315.16 411.53 314.81 C 414.98 314.45 417.17 315.21 420.39 315.89 C 423.61 316.57 427.74 318.11 430.84 318.89 C 433.94 319.68 436.35 320.77 438.98 320.60 C 441.61 320.43 444.06 319.63 446.63 317.90 C 449.21 316.17 452.11 313.89 454.43 310.23 C 456.75 306.57 459.06 301.20 460.54 295.92 C 462.02 290.65 463.62 284.86 463.31 278.57 C 463.01 272.28 461.58 265.17 458.73 258.18 C 455.88 251.20 451.43 243.84 446.21 236.65 C 440.99 229.47 435.14 221.01 427.40 215.07 C 419.66 209.13 409.58 204.39 399.76 201.01 C 389.95 197.63 378.96 195.28 368.49 194.78 C 358.03 194.28 346.91 195.18 336.96 198.02 C 327.01 200.86 316.98 206.11 308.80 211.81 C 300.63 217.51 292.98 224.76 287.89 232.22 C 282.80 239.69 279.53 248.68 278.26 256.58 C 276.99 264.47 278.30 272.85 280.25 279.58 C 282.20 286.31 286.10 292.12 289.95 296.95 C 293.80 301.79 298.27 306.17 303.33 308.59 C 308.39 311.01 314.72 311.97 320.32 311.48 C 325.92 310.98 331.68 308.47 336.95 305.62 C 342.21 302.77 347.69 299.27 351.91 294.39 C 356.14 289.51 359.79 282.66 362.29 276.31 C 364.78 269.97 366.33 263.28 366.87 256.31 C 367.42 249.35 366.80 241.57 365.56 234.52 C 364.31 227.48 362.54 220.57 359.40 214.02 C 356.27 207.46 351.77 200.86 346.75 195.20 C 341.73 189.54 335.88 184.27 329.28 180.05 C 322.69 175.83 315.12 172.22 307.17 169.88 C 299.23 167.54 290.09 166.11 281.62 166.02 C 273.15 165.93 264.42 167.47 256.34 169.35 C 248.27 171.23 240.81 173.21 233.19 177.32 C 225.57 181.44 217.06 188.73 210.62 194.04 C 204.19 199.35 199.85 204.32 194.59 209.19 C 189.33 214.05 184.17 218.78 179.06 223.22 C 173.95 227.67 168.69 232.17 163.92 235.86 C 159.16 239.55 155.03 242.49 150.47 245.37 C 145.92 248.25 141.12 251.33 136.58 253.15 C 132.04 254.97 127.62 256.01 123.24 256.28 C 118.87 256.55 114.18 255.84 110.34 254.77 C 106.50 253.69 103.24 252.18 100.19 249.82 C 97.14 247.45 94.34 244.26 92.03 240.58 C 89.73 236.91 87.42 232.50 86.35 227.77 C 85.28 223.04 85.05 217.62 85.59 212.20 C 86.14 206.79 87.83 200.95 89.61 195.28 C 91.39 189.61 93.16 183.74 96.26 178.19 C 99.36 172.64 103.61 167.17 108.21 161.99 C 112.82 156.80 118.20 151.70 123.88 147.06 C 129.56 142.42 135.87 137.94 142.28 134.14 C 148.68 130.35 155.65 127.49 162.33 124.30 C 169.00 121.11 176.55 117.98 182.35 115.01 C 188.15 112.04 192.70 109.68 197.14 106.47 C 201.58 103.25 205.79 99.12 209.01 95.73 C 212.23 92.34 215.19 89.05 216.47 86.11 C 217.75 83.17 217.65 80.58 216.68 78.08 C 215.71 75.59 213.51 72.58 210.66 71.14 C 207.81 69.71 203.81 69.33 199.57 69.48 C 195.32 69.63 190.35 70.26 185.20 72.02 C 180.05 73.78 173.90 76.37 168.68 80.04 C 163.46 83.71 158.65 88.64 153.89 94.06 C 149.13 99.48 144.05 105.41 140.11 112.55 C 136.18 119.68 132.29 128.02 130.27 136.89 C 128.25 145.76 127.63 156.09 127.98 165.78 C 128.33 175.47 129.94 184.73 132.36 195.03 C 134.78 205.33 139.03 218.02 142.50 227.59 C 145.98 237.15 149.40 244.56 153.24 252.40 C 157.08 260.24 161.75 267.45 165.54 274.62 C 169.33 281.79 173.12 288.67 175.98 295.42 C 178.84 302.16 181.07 308.91 182.70 315.10 C 184.34 321.28 185.30 327.00 185.81 332.54 C 186.33 338.07 186.42 343.42 185.81 348.31 C 185.20 353.20 183.90 357.69 182.15 361.87 C 180.39 366.05 177.69 370.23 175.27 373.40 C 172.85 376.56 169.79 378.22 167.62 380.85 C 165.45 383.48 163.32 386.00 162.26 389.16 C 161.20 392.32 160.47 396.20 161.26 399.82 C 162.06 403.43 164.09 407.32 167.02 410.86 C 169.96 414.39 174.54 418.02 178.88 421.04 C 183.22 424.06 187.61 426.91 193.07 428.97 C 198.52 431.02 204.87 432.90 211.62 433.36 C 218.37 433.82 225.99 433.03 233.58 431.73 C 241.16 430.43 249.66 427.84 257.13 425.56 C 264.61 423.29 271.58 420.85 278.41 418.07 C 285.24 415.30 291.55 412.35 298.12 408.94 C 304.68 405.53 311.62 400.87 317.80 397.64 C 323.99 394.41 329.45 392.37 335.21 389.54 C 340.97 386.72 347.18 383.13 352.35 380.71 C 357.51 378.29 361.53 376.28 366.18 375.01 C 370.84 373.74 376.09 373.64 380.28 373.07 C 384.48 372.50 387.62 372.42 391.36 371.61 C 395.10 370.80 398.92 369.71 402.71 368.18 C 406.51 366.66 410.50 364.71 414.12 362.44 C 417.75 360.16 421.34 357.63 424.48 354.53 C 427.62 351.44 430.36 348.26 432.97 343.87 C 435.58 339.48 438.20 334.29 440.12 328.20 C 442.05 322.12 443.91 314.42 444.51 307.37 C 445.11 300.32 445.23 293.51 443.71 285.91 C 442.20 278.32 439.30 269.87 435.40 261.80 C 431.50 253.74 426.30 245.10 420.30 237.50 C 414.31 229.90 407.32 221.96 399.42 216.21 C 391.52 210.45 382.25 206.31 372.89 202.97 C 363.54 199.64 353.18 196.48 343.30 196.18 C 333.42 195.88 322.74 197.87 313.61 201.17 C 304.49 204.48 295.54 209.96 288.57 215.99 C 281.60 222.03 276.00 230.26 271.79 237.40 C 267.57 244.53 265.63 251.55 263.27 258.80 C 260.91 266.06 259.20 274.04 257.62 280.92 C 256.04 287.80 255.39 293.89 253.79 300.09 C 252.19 306.29 250.47 312.52 248.02 318.13 C 245.56 323.73 242.68 329.27 239.06 333.72 C 235.43 338.16 231.22 341.99 226.27 344.78 C 221.32 347.57 215.22 349.26 209.36 350.46 C 203.50 351.65 197.03 351.93 191.12 351.94 C 185.20 351.95 179.43 351.02 173.85 350.53 C 168.26 350.04 162.66 349.66 157.61 349.01 C 152.56 348.36 148.28 347.47 143.56 346.64 C 138.83 345.80 133.72 344.36 129.25 344.01 C 124.77 343.66 120.35 343.85 116.71 344.55 C 113.06 345.25 110.31 346.81 107.37 348.20 C 104.43 349.59 101.13 350.75 99.08 352.90 C 97.02 355.04 95.79 357.85 95.03 361.06 C 94.28 364.27 93.45 368.34 94.55 372.14 C 95.66 375.94 98.45 379.76 101.67 383.86 C 104.89 387.96 108.36 393.02 113.88 396.73 C 119.41 400.45 127.18 403.84 134.83 406.13 C 142.49 408.42 150.77 410.31 159.80 410.50 C 168.83 410.68 178.83 410.24 189.01 407.24 C 199.19 404.24 211.57 398.16 220.88 392.50 C 230.20 386.85 237.68 380.00 244.91 373.33 C 252.14 366.67 258.05 359.75 264.26 352.50 C 270.48 345.25 276.44 336.98 282.21 329.81 C 287.98 322.65 293.49 315.82 298.89 309.51 C 304.28 303.21 309.45 297.24 314.57 292.01 C 319.68 286.78 324.65 282.07 329.55 278.14 C 334.45 274.20 338.91 270.99 343.96 268.38 C 349.01 265.77 354.99 264.11 359.86 262.49 C 364.74 260.88 368.85 260.52 373.22 258.70 C 377.58 256.88 382.20 253.81 386.06 251.57 C 389.92 249.32 393.03 247.86 396.39 245.23 C 399.74 242.61 403.57 239.41 406.16 235.82 C 408.76 232.23 410.80 228.24 411.94 223.67 C 413.08 219.10 413.58 214.02 413.03 208.38 C 412.47 202.74 411.39 195.84 408.61 189.82 C 405.83 183.81 401.48 177.80 396.37 172.29 C 391.25 166.79 384.45 161.59 377.91 156.77 C 371.38 151.95 363.77 147.45 357.14 143.40 C 350.51 139.34 344.36 135.85 338.13 132.42 C 331.90 128.99 325.20 126.04 319.76 122.81 C 314.32 119.57 309.54 116.50 305.48 113.03 C 301.42 109.55 297.82 105.72 295.39 101.97 C 292.96 98.21 291.35 93.83 290.90 90.50 C 290.44 87.16 291.62 84.81 292.65 81.98 C 293.68 79.15 295.38 76.08 297.08 73.50 C 298.77 70.93 301.08 68.66 302.84 66.54 C 304.60 64.42 306.74 62.62 307.63 60.77 C 308.51 58.92 308.32 57.37 308.14 55.44 C 307.95 53.50 308.22 51.08 306.50 49.16 C 304.78 47.24 301.55 45.16 297.83 43.93 C 294.10 42.71 290.02 41.91 284.14 41.82 C 278.26 41.72 269.96 41.61 262.52 43.39 C 255.09 45.16 246.78 47.57 239.54 52.47 C 232.30 57.37 225.17 64.84 219.07 72.80 C 212.98 80.76 206.99 90.23 202.95 100.22 C 198.92 110.21 195.65 121.92 194.85 132.73 C 194.05 143.55 195.50 154.98 198.16 165.12 C 200.81 175.27 205.20 185.60 210.78 193.60 C 216.36 201.60 224.13 208.61 231.63 213.12 C 239.14 217.63 247.90 219.44 255.80 220.64 C 263.70 221.84 272.02 221.27 279.04 220.32 C 286.05 219.37 292.24 217.54 297.90 214.94 C 303.57 212.34 308.04 208.05 313.02 204.73 C 318.01 201.40 323.29 198.04 327.82 195.01 C 332.36 191.97 336.10 189.19 340.23 186.52 C 344.35 183.85 348.34 180.95 352.56 179.00 C 356.78 177.04 361.23 175.52 365.56 174.80 C 369.89 174.07 374.30 174.22 378.54 174.66 C 382.78 175.10 387.14 176.38 390.98 177.43 C 394.82 178.48 398.05 180.22 401.58 180.95 C 405.10 181.69 408.89 181.51 412.12 181.81 C 415.36 182.11 418.12 182.74 420.96 182.76 C 423.81 182.78 426.59 182.75 429.21 181.94 C 431.83 181.12 434.92 179.86 436.67 177.88 C 438.43 175.91 439.46 173.11 439.73 170.07 C 440.01 167.04 439.19 163.63 438.33 159.68 C 437.48 155.72 436.16 150.72 434.60 146.36 C 433.04 142.00 431.15 137.66 428.98 133.51 C 426.81 129.35 423.86 125.35 421.58 121.45 C 419.29 117.55 417.27 113.60 415.28 110.11 C 413.28 106.63 411.02 103.33 409.62 100.52 C 408.22 97.71 407.28 95.39 406.88 93.25 C 406.48 91.12 406.72 89.16 407.23 87.73 C 407.74 86.31 408.87 85.58 409.94 84.71 C 411.00 83.85 412.45 82.88 413.65 82.54 C 414.85 82.20 415.71 82.71 417.14 82.68 C 418.56 82.65 420.60 82.49 422.22 82.36 C 423.84 82.24 425.69 82.31 426.85 81.94 C 428.01 81.56 428.97 81.17 429.16 80.13 C 429.36 79.10 428.96 77.44 428.02 75.71 C 427.08 73.98 425.60 71.85 423.53 69.75 C 421.45 67.64 418.44 65.26 415.57 63.07 C 412.71 60.88 409.31 58.73 406.33 56.62 C 403.35 54.51 400.91 52.38 397.70 50.39 C 394.49 48.39 390.40 46.55 387.07 44.66 C 383.75 42.77 380.26 40.87 377.75 39.06 C 375.23 37.26 373.41 35.26 371.99 33.84 C 370.56 32.43 369.73 31.51 369.17 30.59 C 368.61 29.66 368.29 28.99 368.62 28.29 C 368.96 27.60 369.75 26.29 371.16 26.41 C 372.57 26.54 374.67 27.65 377.08 29.05 C 379.50 30.44 382.52 32.29 385.64 34.77 C 388.77 37.24 392.22 40.02 395.83 43.89 C 399.44 47.76 403.98 51.82 407.31 57.99 C 410.65 64.15 413.60 72.30 415.87 80.88 C 418.13 89.46 420.41 99.50 420.91 109.47 C 421.42 119.44 420.76 130.22 418.90 140.71 C 417.04 151.20 413.83 162.10 409.76 172.41 C 405.69 182.73 399.82 193.08 394.47 202.59 C 389.11 212.10 382.97 221.01 377.66 229.48 C 372.34 237.95 366.95 245.73 362.59 253.41 C 358.22 261.09 354.59 268.30 351.46 275.56 C 348.33 282.82 345.09 290.52 343.79 296.94 C 342.50 303.36 342.85 308.41 343.69 314.09 C 344.53 319.77 346.30 326.75 348.85 331.02 C 351.40 335.30 355.25 337.83 359.01 339.74 C 362.76 341.65 367.12 342.84 371.41 342.48 C 375.70 342.12 380.53 340.11 384.76 337.59 C 389.00 335.07 393.16 331.66 396.80 327.37 C 400.44 323.07 404.38 317.77 406.59 311.83 C 408.81 305.88 409.63 298.74 410.09 291.69 C 410.55 284.63 410.40 276.90 409.36 269.49 C 408.32 262.08 406.59 254.80 403.83 247.22 C 401.08 239.63 397.18 231.21 392.82 223.98 C 388.45 216.75 382.80 210.19 377.65 203.84 C 372.50 197.49 366.56 191.66 361.90 185.86 C 357.24 180.05 353.42 174.29 349.69 169.03 C 345.95 163.77 342.17 159.31 339.50 154.28 C 336.84 149.25 334.71 143.69 333.70 138.83 C 332.69 133.98 332.55 129.02 333.45 125.16 C 334.34 121.30 336.66 118.32 339.08 115.69 C 341.50 113.06 344.89 110.77 347.96 109.37 C 351.03 107.98 354.26 107.75 357.51 107.30 C 360.75 106.85 363.94 106.89 367.42 106.66 C 370.90 106.43 375.04 106.03 378.40 105.91 C 381.77 105.78 384.71 106.26 387.62 105.91 C 390.54 105.55 393.80 104.83 395.91 103.77 C 398.01 102.71 399.10 101.30 400.23 99.55 C 401.36 97.81 402.68 95.70 402.68 93.31 C 402.68 90.92 401.88 87.92 400.23 85.20 C 398.59 82.47 396.00 79.59 392.82 76.97 C 389.63 74.35 385.64 72.03 381.13 69.48 C 376.62 66.92 371.42 63.67 365.74 61.63 C 360.06 59.60 353.61 58.11 347.07 57.27 C 340.53 56.43 334.46 56.20 326.53 56.61 C 318.59 57.03 308.30 57.95 299.43 59.74 C 290.56 61.53 281.71 64.11 273.31 67.38 C 264.91 70.65 256.84 75.13 249.04 79.35 C 241.24 83.57 233.66 88.03 226.52 92.72 C 219.39 97.41 212.72 103.10 206.25 107.51 C 199.77 111.91 193.69 115.81 187.68 119.17 C 181.68 122.53 175.77 125.39 170.22 127.67 C 164.66 129.95 159.30 131.48 154.37 132.85 C 149.43 134.23 144.68 135.55 140.59 135.89 C 136.50 136.24 132.79 135.97 129.83 134.91 C 126.88 133.86 125.07 131.20 122.85 129.56 C 120.64 127.91 118.66 126.34 116.56 125.04 C 114.45 123.73 112.59 122.88 110.22 121.73 C 107.86 120.59 105.18 118.37 102.37 118.16 C 99.56 117.95 96.52 119.11 93.36 120.48 C 90.20 121.86 86.52 123.84 83.41 126.41 C 80.31 128.98 77.61 131.87 74.73 135.90 C 71.85 139.92 68.37 144.91 66.16 150.58 C 63.95 156.24 62.82 163.52 61.49 169.90 C 60.15 176.28 59.06 182.63 58.16 188.86 C 57.27 195.08 56.69 201.46 56.12 207.27 C 55.55 213.08 55.33 218.57 54.75 223.70 C 54.17 228.83 53.67 233.82 52.63 238.04 C 51.59 242.27 49.75 245.54 48.51 249.07 C 47.28 252.60 46.53 256.57 45.20 259.22 C 43.87 261.86 42.39 263.99 40.54 264.96 C 38.69 265.93 35.95 265.73 34.10 265.05 C 32.24 264.37 30.77 263.16 29.42 260.88 C 28.07 258.60 26.46 255.26 26.01 251.37 C 25.56 247.49 25.24 242.95 26.72 237.57 C 28.20 232.19 31.05 225.33 34.89 219.10 C 38.73 212.88 42.99 206.74 49.73 200.23 C 56.48 193.72 66.28 185.28 75.34 180.02 C 84.41 174.77 94.16 171.28 104.13 168.70 C 114.09 166.13 124.71 164.71 135.15 164.56 C 145.59 164.41 156.76 165.56 166.76 167.82 C 176.75 170.08 186.41 173.46 195.11 178.10 C 203.80 182.74 212.05 189.06 218.94 195.68 C 225.83 202.30 232.26 210.03 236.45 217.81 C 240.64 225.59 242.95 234.23 244.07 242.37 C 245.19 250.50 244.85 259.28 243.17 266.63 C 241.48 273.97 237.99 281.35 233.95 286.44 C 229.91 291.52 224.53 295.17 218.94 297.15 C 213.35 299.13 206.33 299.39 200.38 298.32 C 194.43 297.25 188.20 294.85 183.21 290.74 C 178.23 286.62 173.25 279.93 170.47 273.62 C 167.70 267.31 166.00 260.12 166.56 252.88 C 167.12 245.64 169.24 236.78 173.82 230.17 C 178.40 223.57 186.59 217.35 194.05 213.24 C 201.50 209.13 210.15 206.50 218.55 205.51 C 226.95 204.52 236.17 205.68 244.45 207.30 C 252.72 208.92 260.91 211.66 268.21 215.24 C 275.50 218.81 282.11 224.18 288.21 228.76 C 294.31 233.34 299.72 237.80 304.80 242.71 C 309.88 247.62 314.35 253.17 318.70 258.24 C 323.05 263.31 327.34 268.24 330.92 273.12 C 334.50 278.00 336.86 283.03 340.18 287.51 C 343.50 291.99 347.29 296.23 350.84 299.98 C 354.38 303.73 357.55 307.27 361.46 310.01 C 365.37 312.75 370.23 315.21 374.28 316.41 C 378.33 317.61 381.96 317.78 385.75 317.21 C 389.54 316.65 393.08 319.11 397.05 313.02 C 401.02 306.93 407.48 286.07 409.56 280.68" fill="none" stroke="#fff" stroke-width="4.48" stroke-opacity="1" stroke-linecap="round" stroke-linejoin="round"/>
  </g>
</svg>