<?xml version="1.0" encoding="UTF-8"?>
<svg xmlns="http://www.w3.org/2000/svg" width="512" height="512" viewBox="0 0 512 512">
  <rect width="100%" height="100%" fill="#000"/>
  <g>
    <path d="M 256.00 256.00 C 257.23 252.99 261.87 244.46 263.40 237.93 C 264.94 231.40 265.98 223.64 265.22 216.84 C 264.46 210.04 262.21 202.89 258.85 197.12 C 255.50 191.36 249.64 186.02 245.11 182.27 C 240.59 178.53 236.96 176.73 231.69 174.66 C 226.43 172.59 219.74 170.44 213.52 169.86 C 207.29 169.28 200.52 169.57 194.34 171.17 C 188.17 172.78 181.67 175.13 176.44 179.49 C 171.21 183.85 166.21 191.21 162.95 197.32 C 159.70 203.43 158.05 208.98 156.92 216.15 C 155.79 223.32 155.13 232.37 156.20 240.35 C 157.27 248.34 159.56 256.70 163.35 264.05 C 167.15 271.39 173.58 278.70 178.98 284.42 C 184.37 290.14 189.06 294.39 195.73 298.35 C 202.40 302.31 211.07 306.13 218.98 308.17 C 226.90 310.21 235.19 310.51 243.21 310.56 C 251.23 310.61 259.54 310.33 267.11 308.47 C 274.67 306.60 282.82 303.39 288.57 299.37 C 294.32 295.35 297.78 290.24 301.61 284.33 C 305.45 278.42 308.75 270.84 311.59 263.89 C 314.42 256.94 316.62 249.51 318.60 242.63 C 320.58 235.74 321.76 228.45 323.47 222.58 C 325.18 216.70 326.53 212.54 328.86 207.40 C 331.18 202.25 334.37 196.39 337.44 191.72 C 340.51 187.04 343.63 182.71 347.27 179.35 C 350.91 175.99 355.12 173.77 359.27 171.57 C 363.43 169.37 368.42 167.55 372.20 166.14 C 375.98 164.73 378.40 164.37 381.95 163.11 C 385.49 161.86 389.81 160.10 393.48 158.60 C 397.15 157.09 400.73 155.57 403.97 154.10 C 407.21 152.62 410.28 151.20 412.91 149.74 C 415.53 148.29 417.60 147.24 419.71 145.37 C 421.83 143.49 424.01 141.03 425.61 138.48 C 427.21 135.92 428.83 133.27 429.29 130.02 C 429.75 126.78 428.92 122.59 428.35 119.01 C 427.79 115.43 426.92 111.90 425.92 108.55 C 424.92 105.21 424.21 102.48 422.36 98.96 C 420.51 95.44 417.70 91.15 414.82 87.42 C 411.94 83.69 407.66 79.94 405.06 76.58 C 402.45 73.22 401.04 70.00 399.19 67.27 C 397.34 64.54 395.31 62.67 393.98 60.17 C 392.66 57.68 391.65 54.59 391.24 52.31 C 390.84 50.03 391.54 48.54 391.56 46.48 C 391.57 44.42 390.65 41.58 391.31 39.96 C 391.98 38.33 393.97 37.28 395.53 36.73 C 397.09 36.18 398.63 36.49 400.69 36.65 C 402.75 36.82 405.32 37.15 407.89 37.73 C 410.46 38.31 413.27 38.88 416.10 40.14 C 418.93 41.41 422.17 43.70 424.87 45.32 C 427.56 46.93 429.58 47.93 432.28 49.84 C 434.99 51.75 438.03 53.99 441.10 56.80 C 444.17 59.61 447.57 63.07 450.70 66.71 C 453.83 70.34 456.96 74.96 459.88 78.60 C 462.80 82.24 465.78 85.63 468.22 88.55 C 470.66 91.47 472.44 94.14 474.53 96.11 C 476.61 98.08 478.88 99.55 480.73 100.35 C 482.59 101.15 484.71 101.44 485.66 100.89 C 486.62 100.34 486.71 98.59 486.47 97.04 C 486.22 95.50 485.74 94.14 484.18 91.62 C 482.61 89.09 480.45 85.25 477.07 81.90 C 473.70 78.56 469.79 74.68 463.94 71.53 C 458.10 68.38 450.17 65.14 442.01 62.99 C 433.85 60.84 423.44 59.60 415.01 58.61 C 406.58 57.61 400.34 56.62 391.43 57.02 C 382.51 57.41 371.57 58.12 361.52 60.97 C 351.47 63.82 340.56 68.34 331.13 74.12 C 321.69 79.89 311.97 88.01 304.93 95.60 C 297.89 103.20 293.19 110.52 288.88 119.70 C 284.57 128.88 280.84 140.49 279.08 150.70 C 277.31 160.91 276.80 171.73 278.29 180.96 C 279.77 190.18 283.67 198.90 288.00 206.06 C 292.33 213.22 298.95 219.73 304.25 223.93 C 309.54 228.12 314.20 230.27 319.77 231.24 C 325.34 232.21 332.63 231.98 337.65 229.73 C 342.68 227.48 347.43 222.69 349.93 217.74 C 352.43 212.79 352.72 205.54 352.66 200.03 C 352.60 194.52 351.75 190.24 349.59 184.69 C 347.43 179.14 344.45 171.95 339.72 166.73 C 334.98 161.51 328.11 156.59 321.17 153.37 C 314.23 150.15 306.13 148.03 298.10 147.40 C 290.07 146.77 280.47 147.92 272.97 149.59 C 265.47 151.25 259.58 152.85 253.10 157.40 C 246.62 161.95 239.12 169.41 234.10 176.91 C 229.07 184.41 224.64 193.75 222.96 202.39 C 221.28 211.02 222.67 220.95 224.01 228.73 C 225.35 236.52 227.36 242.62 231.01 249.09 C 234.66 255.57 240.47 262.02 245.90 267.59 C 251.32 273.15 258.25 277.34 263.56 282.47 C 268.86 287.61 273.10 293.30 277.71 298.41 C 282.32 303.52 287.29 308.79 291.24 313.13 C 295.18 317.46 297.87 320.37 301.37 324.43 C 304.87 328.48 309.29 332.80 312.24 337.46 C 315.18 342.12 317.62 347.22 319.05 352.39 C 320.48 357.56 320.60 363.82 320.80 368.50 C 320.99 373.18 321.25 376.09 320.22 380.47 C 319.20 384.85 317.34 390.34 314.66 394.80 C 311.98 399.26 308.29 403.66 304.17 407.23 C 300.05 410.80 295.33 413.75 289.93 416.20 C 284.53 418.65 277.47 420.69 271.76 421.92 C 266.05 423.15 261.80 423.61 255.68 423.59 C 249.55 423.56 241.83 422.98 235.00 421.77 C 228.18 420.55 221.38 418.83 214.72 416.32 C 208.06 413.81 200.85 410.38 195.05 406.71 C 189.25 403.03 185.17 399.38 179.90 394.27 C 174.62 389.16 167.85 383.00 163.39 376.03 C 158.93 369.05 155.25 360.84 153.15 352.41 C 151.05 343.99 149.73 334.57 150.80 325.48 C 151.87 316.38 156.12 305.86 159.56 297.83 C 163.01 289.80 166.16 284.08 171.47 277.31 C 176.79 270.53 184.40 263.04 191.44 257.16 C 198.48 251.28 206.38 246.58 213.73 242.03 C 221.08 237.48 229.00 233.44 235.56 229.87 C 242.11 226.29 247.28 224.30 253.06 220.60 C 258.84 216.90 265.20 212.22 270.23 207.67 C 275.25 203.11 279.33 198.21 283.21 193.26 C 287.10 188.31 290.64 183.09 293.54 177.95 C 296.45 172.82 298.47 167.02 300.63 162.44 C 302.78 157.85 304.11 154.39 306.48 150.44 C 308.85 146.50 311.46 142.10 314.86 138.77 C 318.26 135.44 322.43 132.43 326.88 130.49 C 331.33 128.54 336.89 127.46 341.56 127.09 C 346.23 126.73 350.12 127.56 354.88 128.32 C 359.65 129.07 365.29 130.71 370.15 131.63 C 375.00 132.55 379.53 133.01 384.02 133.85 C 388.51 134.70 392.96 135.73 397.09 136.71 C 401.22 137.69 405.48 139.17 408.79 139.73 C 412.11 140.28 414.17 140.56 416.96 140.04 C 419.75 139.52 423.15 138.12 425.53 136.61 C 427.91 135.11 429.76 133.23 431.24 131.00 C 432.72 128.76 433.90 125.87 434.42 123.22 C 434.94 120.57 435.44 118.52 434.34 115.11 C 433.24 111.70 430.59 106.71 427.83 102.75 C 425.08 98.78 422.31 94.98 417.79 91.32 C 413.27 87.66 407.32 83.71 400.70 80.77 C 394.07 77.84 385.24 75.41 378.03 73.71 C 370.83 72.01 365.42 70.84 357.47 70.56 C 349.53 70.29 339.54 70.29 330.37 72.06 C 321.19 73.83 311.38 76.76 302.44 81.17 C 293.49 85.57 283.96 92.35 276.69 98.51 C 269.41 104.67 264.49 110.48 258.77 118.13 C 253.04 125.78 246.61 135.27 242.34 144.40 C 238.07 153.54 235.29 163.41 233.17 172.97 C 231.06 182.52 229.48 192.53 229.65 201.72 C 229.83 210.90 232.01 220.37 234.20 228.05 C 236.40 235.74 238.86 241.37 242.83 247.80 C 246.80 254.23 252.72 261.10 258.04 266.64 C 263.35 272.17 269.16 276.60 274.74 281.02 C 280.32 285.44 286.49 289.65 291.50 293.15 C 296.51 296.66 300.29 298.68 304.79 302.04 C 309.29 305.39 314.23 309.24 318.50 313.28 C 322.76 317.33 327.04 321.89 330.37 326.29 C 333.70 330.68 336.07 335.09 338.48 339.66 C 340.90 344.23 343.15 349.36 344.84 353.69 C 346.53 358.01 347.00 361.75 348.62 365.62 C 350.23 369.48 352.14 373.51 354.54 376.86 C 356.94 380.21 359.80 383.58 363.01 385.72 C 366.22 387.87 370.19 389.09 373.81 389.73 C 377.44 390.37 380.83 389.66 384.74 389.59 C 388.66 389.51 393.40 389.30 397.30 389.26 C 401.19 389.23 404.82 388.88 408.12 389.38 C 411.42 389.89 414.71 390.77 417.09 392.29 C 419.47 393.82 421.14 396.49 422.42 398.53 C 423.69 400.57 424.01 402.19 424.73 404.54 C 425.44 406.88 426.68 409.67 426.72 412.60 C 426.76 415.53 426.23 418.91 424.98 422.09 C 423.73 425.27 421.73 428.59 419.23 431.69 C 416.74 434.80 414.02 437.65 410.02 440.73 C 406.01 443.81 400.94 447.32 395.21 450.19 C 389.49 453.06 382.86 456.19 375.66 457.94 C 368.46 459.69 360.28 460.54 352.02 460.70 C 343.76 460.87 334.04 460.24 326.10 458.91 C 318.17 457.58 312.37 455.85 304.42 452.74 C 296.46 449.64 286.70 445.76 278.37 440.27 C 270.05 434.77 260.96 427.93 254.45 419.77 C 247.94 411.61 242.37 400.46 239.32 391.30 C 236.26 382.15 235.67 374.35 236.13 364.86 C 236.59 355.37 238.81 343.57 242.10 334.37 C 245.39 325.17 250.58 316.60 255.88 309.66 C 261.18 302.72 267.79 297.95 273.91 292.74 C 280.04 287.53 286.96 282.45 292.64 278.39 C 298.32 274.34 302.35 271.72 307.98 268.40 C 313.60 265.07 320.54 261.53 326.40 258.45 C 332.26 255.38 337.56 251.88 343.15 249.93 C 348.74 247.99 354.98 247.36 359.93 246.77 C 364.88 246.17 368.18 245.81 372.85 246.35 C 377.52 246.89 383.33 248.06 387.97 250.02 C 392.60 251.98 397.16 254.50 400.66 258.09 C 404.17 261.68 406.70 266.85 409.02 271.56 C 411.33 276.27 412.89 281.89 414.55 286.33 C 416.21 290.78 417.02 294.53 418.99 298.24 C 420.96 301.96 423.61 305.77 426.39 308.61 C 429.16 311.45 432.63 313.57 435.64 315.28 C 438.64 316.99 441.67 318.08 444.41 318.90 C 447.15 319.72 449.32 320.31 452.06 320.19 C 454.80 320.06 458.02 318.70 460.85 318.13 C 463.69 317.57 466.32 317.54 469.06 316.78 C 471.81 316.03 474.75 314.80 477.33 313.61 C 479.91 312.42 482.44 310.62 484.54 309.63 C 486.65 308.65 488.12 308.07 489.95 307.71 C 491.79 307.34 493.75 307.06 495.53 307.44 C 497.32 307.82 499.47 308.48 500.66 309.99 C 501.85 311.51 502.65 313.43 502.67 316.54 C 502.69 319.65 501.89 324.50 500.78 328.66 C 499.67 332.81 498.49 336.71 496.02 341.47 C 493.55 346.23 490.29 352.01 485.97 357.22 C 481.64 362.44 476.47 367.93 470.05 372.76 C 463.63 377.60 454.67 382.47 447.45 386.22 C 440.23 389.96 434.68 392.48 426.73 395.24 C 418.79 398.00 408.85 400.78 399.76 402.78 C 390.68 404.78 380.68 405.42 372.22 407.24 C 363.76 409.06 356.14 411.49 349.00 413.70 C 341.86 415.91 334.87 418.16 329.39 420.51 C 323.91 422.86 320.43 425.06 316.12 427.81 C 311.80 430.56 306.98 433.87 303.49 437.00 C 300.01 440.14 296.59 443.48 295.22 446.63 C 293.86 449.78 294.31 453.47 295.29 455.88 C 296.26 458.30 297.94 459.88 301.07 461.12 C 304.19 462.35 309.39 463.31 314.03 463.30 C 318.66 463.30 323.74 462.14 328.88 461.08 C 334.02 460.03 339.77 458.38 344.85 456.97 C 349.93 455.56 355.01 454.06 359.34 452.61 C 363.68 451.15 366.82 449.55 370.88 448.22 C 374.94 446.89 379.99 445.33 383.72 444.63 C 387.44 443.93 390.34 443.99 393.24 444.02 C 396.14 444.06 398.86 444.48 401.10 444.85 C 403.33 445.23 404.54 445.80 406.65 446.29 C 408.75 446.79 411.38 447.51 413.74 447.83 C 416.11 448.15 418.42 448.32 420.82 448.23 C 423.22 448.13 425.49 447.99 428.14 447.27 C 430.80 446.55 434.20 445.03 436.75 443.89 C 439.29 442.75 440.81 442.09 443.40 440.43 C 445.99 438.78 449.33 436.94 452.28 433.96 C 455.23 430.98 458.34 427.53 461.12 422.55 C 463.89 417.57 467.27 410.64 468.92 404.06 C 470.57 397.48 471.17 391.18 471.00 383.07 C 470.83 374.96 469.78 364.82 467.90 355.42 C 466.03 346.01 463.26 336.15 459.78 326.65 C 456.29 317.15 452.28 307.28 447.00 298.44 C 441.71 289.61 434.73 280.65 428.09 273.63 C 421.44 266.61 415.16 261.84 407.12 256.33 C 399.09 250.81 389.48 244.51 379.88 240.54 C 370.28 236.58 359.41 233.93 349.52 232.53 C 339.64 231.12 329.12 231.26 320.58 232.10 C 312.04 232.94 306.08 234.90 298.30 237.57 C 290.52 240.23 281.10 243.79 273.89 248.08 C 266.68 252.37 260.63 257.84 255.03 263.28 C 249.43 268.72 244.08 274.53 240.31 280.71 C 236.54 286.88 233.86 294.32 232.40 300.35 C 230.93 306.38 230.89 310.98 231.52 316.87 C 232.14 322.75 233.37 330.05 236.15 335.66 C 238.92 341.27 243.45 346.54 248.18 350.54 C 252.90 354.53 259.33 357.40 264.49 359.64 C 269.66 361.88 273.31 363.25 279.16 363.99 C 285.02 364.74 292.99 365.24 299.61 364.10 C 306.22 362.96 312.67 360.68 318.86 357.15 C 325.05 353.61 331.38 348.04 336.75 342.87 C 342.13 337.70 347.23 331.54 351.11 326.15 C 354.98 320.77 356.99 316.45 360.00 310.58 C 363.00 304.71 366.78 297.76 369.13 290.95 C 371.48 284.15 373.37 277.03 374.09 269.76 C 374.81 262.48 374.09 254.07 373.45 247.30 C 372.82 240.53 371.66 235.69 370.29 229.17 C 368.92 222.64 366.86 214.88 365.25 208.16 C 363.64 201.45 362.19 195.01 360.64 188.86 C 359.09 182.72 356.59 176.80 355.95 171.29 C 355.30 165.79 355.89 160.10 356.76 155.84 C 357.64 151.58 358.73 148.61 361.18 145.73 C 363.63 142.84 368.10 140.57 371.45 138.53 C 374.80 136.48 378.30 135.39 381.28 133.46 C 384.26 131.53 386.92 129.03 389.36 126.95 C 391.80 124.86 393.69 122.97 395.91 120.97 C 398.13 118.98 400.69 117.11 402.70 114.98 C 404.71 112.85 406.75 110.64 407.98 108.18 C 409.22 105.73 409.46 103.03 410.11 100.25 C 410.76 97.46 411.82 94.28 411.89 91.46 C 411.96 88.63 410.88 85.96 410.54 83.28 C 410.19 80.61 410.00 78.00 409.81 75.42 C 409.63 72.84 408.96 69.87 409.42 67.81 C 409.89 65.75 411.35 64.20 412.61 63.05 C 413.87 61.89 415.39 61.47 416.99 60.87 C 418.59 60.26 420.50 59.90 422.23 59.42 C 423.96 58.94 425.99 58.75 427.37 57.97 C 428.74 57.20 429.64 55.92 430.49 54.77 C 431.33 53.62 431.95 52.26 432.43 51.08 C 432.91 49.89 433.35 49.11 433.38 47.66 C 433.42 46.22 433.33 44.31 432.64 42.42 C 431.96 40.52 430.46 38.23 429.29 36.28 C 428.13 34.33 426.92 32.40 425.64 30.73 C 424.36 29.06 423.11 28.06 421.62 26.26 C 420.12 24.47 418.22 21.86 416.67 19.97 C 415.13 18.08 413.36 16.43 412.35 14.91 C 411.33 13.39 411.06 12.01 410.57 10.87 C 410.07 9.72 409.36 8.70 409.36 8.04 C 409.37 7.38 409.32 6.68 410.59 6.91 C 411.86 7.14 414.35 7.71 417.00 9.43 C 419.64 11.14 423.10 13.74 426.45 17.22 C 429.79 20.71 433.92 25.57 437.07 30.34 C 440.21 35.10 442.76 39.16 445.32 45.82 C 447.87 52.49 450.84 61.40 452.37 70.35 C 453.91 79.30 455.01 89.37 454.51 99.53 C 454.00 109.69 452.27 120.71 449.34 131.30 C 446.41 141.89 442.02 153.85 436.93 163.05 C 431.84 172.25 426.15 178.71 418.82 186.51 C 411.50 194.31 401.83 202.79 392.97 209.85 C 384.12 216.91 374.72 223.21 365.71 228.84 C 356.69 234.48 347.03 239.49 338.89 243.65 C 330.74 247.80 324.58 250.02 316.84 253.78 C 309.11 257.54 300.12 261.92 292.47 266.21 C 284.83 270.50 277.80 275.30 270.97 279.53 C 264.15 283.76 257.76 287.77 251.52 291.61 C 245.28 295.45 238.84 299.38 233.53 302.57 C 228.22 305.76 224.66 307.93 219.67 310.74 C 214.68 313.55 209.30 317.08 203.59 319.42 C 197.89 321.76 191.12 323.42 185.44 324.79 C 179.77 326.15 174.46 327.06 169.54 327.60 C 164.62 328.15 160.73 328.24 155.95 328.04 C 151.16 327.84 145.82 326.86 140.84 326.39 C 135.86 325.93 130.70 325.41 126.05 325.25 C 121.41 325.10 117.14 325.04 112.97 325.48 C 108.80 325.91 104.20 326.52 101.05 327.85 C 97.89 329.18 96.46 331.24 94.06 333.44 C 91.65 335.64 88.80 338.30 86.60 341.05 C 84.40 343.80 82.77 347.13 80.86 349.92 C 78.95 352.70 77.03 355.77 75.16 357.77 C 73.30 359.77 71.93 361.07 69.68 361.92 C 67.44 362.78 64.44 363.62 61.67 362.90 C 58.90 362.18 56.02 360.17 53.07 357.58 C 50.11 355.00 46.39 351.78 43.92 347.37 C 41.46 342.97 39.52 336.59 38.27 331.18 C 37.02 325.76 36.27 321.50 36.43 314.88 C 36.59 308.27 36.68 299.63 39.24 291.50 C 41.81 283.37 46.20 274.17 51.84 266.11 C 57.48 258.04 66.03 249.38 73.09 243.09 C 80.15 236.80 86.06 233.17 94.22 228.38 C 102.37 223.58 112.73 218.33 122.02 214.31 C 131.31 210.29 140.59 207.07 149.96 204.23 C 159.32 201.39 169.15 199.48 178.22 197.27 C 187.28 195.06 196.58 192.73 204.35 190.99 C 212.13 189.24 217.57 188.15 224.86 186.78 C 232.15 185.42 240.40 183.52 248.08 182.78 C 255.77 182.04 263.41 181.98 270.97 182.36 C 278.52 182.74 286.94 183.46 293.43 185.06 C 299.92 186.66 304.23 188.65 309.90 191.98 C 315.58 195.30 322.73 199.50 327.50 205.00 C 332.28 210.49 336.11 217.84 338.53 224.95 C 340.95 232.06 341.55 240.08 342.01 247.67 C 342.46 255.26 341.82 263.70 341.25 270.49 C 340.69 277.28 340.04 281.98 338.62 288.39 C 337.20 294.80 335.05 302.29 332.74 308.95 C 330.43 315.60 327.77 322.19 324.78 328.34 C 321.79 334.49 317.59 340.73 314.80 345.85 C 312.00 350.96 309.95 354.18 307.99 359.04 C 306.03 363.91 303.86 370.08 303.05 375.05 C 302.23 380.01 302.11 384.62 303.10 388.81 C 304.09 393.01 306.29 397.02 308.99 400.24 C 311.69 403.46 315.62 406.59 319.29 408.13 C 322.96 409.67 326.33 410.07 331.00 409.50 C 335.67 408.92 341.82 407.44 347.29 404.70 C 352.75 401.96 358.86 397.96 363.78 393.06 C 368.70 388.16 373.24 381.27 376.81 375.29 C 380.37 369.31 382.59 364.04 385.19 357.16 C 387.78 350.28 390.81 342.16 392.38 334.00 C 393.95 325.85 394.99 316.81 394.59 308.23 C 394.19 299.65 392.53 290.88 389.98 282.53 C 387.43 274.17 383.55 265.20 379.29 258.07 C 375.02 250.94 370.71 245.54 364.40 239.76 C 358.08 233.98 349.69 227.03 341.40 223.38 C 333.10 219.73 323.65 217.86 314.61 217.85 C 305.57 217.85 294.70 220.32 287.16 223.35 C 279.62 226.39 274.79 230.63 269.37 236.06 C 263.95 241.49 257.91 248.92 254.64 255.93 C 251.36 262.95 249.48 271.05 249.70 278.15 C 249.92 285.26 252.73 292.65 255.96 298.56 C 259.19 304.48 264.50 309.86 269.08 313.66 C 273.66 317.46 277.79 319.79 283.43 321.35 C 289.08 322.90 296.45 323.37 302.96 323.01 C 309.47 322.64 316.13 320.85 322.48 319.14 C 328.83 317.44 335.57 314.83 341.06 312.75 C 346.55 310.67 350.38 308.54 355.42 306.67 C 360.45 304.80 366.26 302.72 371.29 301.53 C 376.32 300.33 381.01 299.68 385.62 299.49 C 390.23 299.30 394.70 299.62 398.95 300.38 C 403.20 301.14 407.57 303.05 411.11 304.05 C 414.65 305.04 416.97 305.47 420.18 306.34 C 423.40 307.22 427.08 308.42 430.38 309.29 C 433.68 310.16 436.68 311.44 439.98 311.57 C 443.28 311.69 447.27 311.20 450.19 310.04 C 453.10 308.88 455.03 307.07 457.47 304.60 C 459.90 302.13 462.51 298.90 464.79 295.23 C 467.08 291.55 469.25 286.63 471.17 282.53 C 473.09 278.43 474.57 274.11 476.30 270.63 C 478.02 267.14 479.94 264.42 481.54 261.65 C 483.13 258.88 484.28 256.54 485.89 254.00 C 487.50 251.47 489.33 248.17 491.20 246.44 C 493.08 244.71 495.18 243.99 497.14 243.61 C 499.10 243.24 501.26 243.54 502.94 244.19 C 504.62 244.83 505.73 245.60 507.24 247.47 C 508.74 249.34 516.80 253.17 511.97 255.42 C 507.15 257.66 490.38 259.94 478.29 260.93 C 466.21 261.92 452.05 261.65 439.45 261.36 C 426.85 261.06 413.51 259.28 402.69 259.16 C 391.87 259.04 384.50 259.67 374.53 260.63 C 364.55 261.60 352.85 263.00 342.86 264.95 C 332.87 266.89 323.53 269.72 314.58 272.29 C 305.63 274.86 296.58 276.78 289.15 280.39 C 281.71 284.00 275.25 289.51 269.98 293.94 C 264.71 298.38 261.23 302.00 257.52 307.01 C 253.82 312.02 250.24 318.32 247.74 324.00 C 245.23 329.68 242.90 335.42 242.50 341.06 C 242.10 346.71 243.41 353.17 245.33 357.89 C 247.26 362.61 249.91 366.06 254.04 369.39 C 258.16 372.72 264.24 376.06 270.10 377.87 C 275.97 379.67 282.58 381.12 289.22 380.21 C 295.86 379.30 303.61 376.32 309.93 372.40 C 316.25 368.49 322.37 362.38 327.14 356.74 C 331.91 351.11 335.33 345.69 338.54 338.59 C 341.75 331.50 345.14 322.58 346.40 314.18 C 347.65 305.77 347.52 296.69 346.07 288.17 C 344.63 279.64 340.67 270.41 337.73 263.01 C 334.79 255.60 332.02 250.45 328.44 243.75 C 324.87 237.05 320.32 229.71 316.27 222.82 C 312.21 215.93 307.59 208.83 304.10 202.39 C 300.62 195.95 298.11 190.07 295.35 184.19 C 292.59 178.31 289.58 172.25 287.53 167.10 C 285.48 161.96 284.63 158.16 283.05 153.32 C 281.46 148.48 280.06 142.93 278.01 138.05 C 275.96 133.16 273.77 128.36 270.74 124.03 C 267.70 119.69 263.47 115.25 259.82 112.05 C 256.17 108.85 253.35 106.94 248.84 104.81 C 244.34 102.68 238.09 100.77 232.79 99.27 C 227.49 97.76 222.41 96.58 217.04 95.79 C 211.66 94.99 205.48 95.54 200.56 94.53 C 195.63 93.51 191.21 91.20 187.50 89.71 C 183.79 88.22 180.79 87.49 178.29 85.58 C 175.79 83.67 173.40 80.86 172.50 78.25 C 171.60 75.63 171.62 72.83 172.88 69.88 C 174.14 66.93 177.40 63.26 180.07 60.54 C 182.73 57.82 186.15 56.07 188.88 53.55 C 191.61 51.04 194.53 48.07 196.45 45.45 C 198.37 42.83 199.65 40.29 200.42 37.84 C 201.19 35.39 201.05 33.05 201.06 30.75 C 201.06 28.46 201.26 25.80 200.43 24.08 C 199.60 22.35 197.66 21.65 196.06 20.39 C 194.46 19.13 192.54 17.82 190.82 16.50 C 189.11 15.17 186.91 13.90 185.76 12.44 C 184.61 10.98 184.39 9.13 183.93 7.74 C 183.46 6.34 183.05 5.33 182.99 4.07 C 182.93 2.81 183.17 -6.09 183.56 0.18 C 183.96 6.45 185.14 28.50 185.37 41.70 C 185.61 54.91 185.23 67.29 184.99 79.41 C 184.75 91.53 183.70 104.04 183.93 114.42 C 184.16 124.80 184.98 132.05 186.37 141.68 C 187.76 151.32 189.62 162.56 192.27 172.25 C 194.93 181.94 198.24 191.20 202.30 199.82 C 206.36 208.45 212.32 216.86 216.64 224.01 C 220.96 231.15 224.02 236.08 228.19 242.69 C 232.37 249.31 237.76 256.71 241.69 263.68 C 245.61 270.66 249.39 277.63 251.75 284.55 C 254.11 291.46 255.43 298.44 255.84 305.17 C 256.25 311.91 254.98 319.22 254.20 324.96 C 253.43 330.69 252.74 334.42 251.18 339.57 C 249.61 344.71 246.46 350.50 244.80 355.82 C 243.15 361.15 242.32 366.48 241.22 371.53 C 240.13 376.58 239.12 381.81 238.23 386.12 C 237.34 390.42 236.64 393.44 235.86 397.36 C 235.08 401.27 234.40 405.54 233.55 409.59 C 232.69 413.64 231.12 417.89 230.73 421.66 C 230.35 425.44 230.60 428.78 231.22 432.23 C 231.84 435.68 232.70 439.57 234.47 442.37 C 236.23 445.17 238.62 446.79 241.81 449.05 C 244.99 451.31 249.03 454.29 253.56 455.93 C 258.08 457.58 263.15 459.19 268.96 458.90 C 274.77 458.62 282.42 456.24 288.42 454.23 C 294.42 452.21 299.05 450.93 304.94 446.80 C 310.84 442.67 318.27 436.60 323.79 429.45 C 329.31 422.30 334.43 413.03 338.05 403.88 C 341.66 394.74 344.55 384.63 345.50 374.56 C 346.44 364.50 345.09 352.61 343.71 343.49 C 342.34 334.37 340.72 328.05 337.24 319.83 C 333.77 311.61 329.07 301.29 322.85 294.15 C 316.63 287.01 308.02 280.73 299.95 276.97 C 291.88 273.22 282.01 271.79 274.42 271.61 C 266.84 271.43 260.68 273.01 254.45 275.89 C 248.22 278.78 241.75 283.84 237.03 288.92 C 232.30 294.00 228.24 300.33 226.10 306.39 C 223.97 312.46 223.05 319.38 224.22 325.30 C 225.39 331.23 229.32 337.63 233.11 341.93 C 236.89 346.23 241.17 348.74 246.95 351.09 C 252.73 353.45 260.71 355.96 267.80 356.07 C 274.88 356.17 282.73 354.94 289.44 351.72 C 296.16 348.49 303.23 342.34 308.08 336.72 C 312.93 331.11 315.76 325.34 318.56 318.05 C 321.36 310.76 324.26 301.48 324.88 293.00 C 325.50 284.52 324.44 275.31 322.28 267.16 C 320.13 259.02 316.51 250.96 311.95 244.13 C 307.40 237.31 300.72 230.89 294.95 226.23 C 289.18 221.58 284.14 218.78 277.32 216.18 C 270.50 213.58 261.68 211.08 254.03 210.62 C 246.38 210.16 238.68 212.22 231.43 213.41 C 224.19 214.60 216.78 216.64 210.54 217.77 C 204.30 218.90 199.91 219.55 193.99 220.17 C 188.07 220.80 180.95 221.49 175.00 221.51 C 169.05 221.54 163.57 220.74 158.29 220.33 C 153.00 219.91 148.24 219.74 143.30 219.04 C 138.36 218.34 132.96 216.62 128.64 216.13 C 124.33 215.63 121.59 215.70 117.42 216.08 C 113.24 216.45 107.79 216.43 103.59 218.37 C 99.38 220.31 95.17 223.64 92.18 227.71 C 89.18 231.79 86.98 237.49 85.61 242.81 C 84.23 248.13 84.04 253.46 83.91 259.62 C 83.79 265.79 84.07 273.20 84.85 279.79 C 85.63 286.39 87.38 292.83 88.59 299.18 C 89.80 305.53 91.53 312.24 92.14 317.90 C 92.74 323.55 92.59 328.89 92.23 333.11 C 91.86 337.34 91.02 339.82 89.94 343.23 C 88.85 346.65 87.19 350.42 85.71 353.60 C 84.22 356.78 82.30 359.31 81.00 362.30 C 79.71 365.28 78.23 368.40 77.95 371.50 C 77.67 374.61 78.66 377.41 79.33 380.93 C 80.00 384.45 80.69 388.71 81.99 392.62 C 83.29 396.54 84.73 400.38 87.13 404.41 C 89.54 408.44 92.34 412.95 96.41 416.81 C 100.48 420.67 106.38 424.49 111.56 427.56 C 116.74 430.64 120.74 433.18 127.47 435.25 C 134.20 437.31 143.36 439.35 151.92 439.94 C 160.48 440.53 169.60 440.36 178.83 438.79 C 188.07 437.21 198.91 433.87 207.36 430.49 C 215.80 427.12 221.89 423.41 229.51 418.54 C 237.13 413.67 245.52 407.08 253.07 401.27 C 260.62 395.46 267.83 389.44 274.81 383.69 C 281.79 377.95 288.42 372.17 294.96 366.80 C 301.50 361.44 308.40 355.94 314.06 351.51 C 319.72 347.09 323.55 344.07 328.90 340.23 C 334.25 336.39 340.53 331.73 346.16 328.48 C 351.79 325.22 357.38 322.71 362.66 320.70 C 367.95 318.69 373.56 316.90 377.88 316.43 C 382.20 315.96 385.30 316.09 388.56 317.89 C 391.82 319.70 395.59 323.38 397.44 327.25 C 399.30 331.13 399.43 336.37 399.67 341.15 C 399.91 345.93 399.62 350.90 398.87 355.92 C 398.12 360.93 396.46 366.71 395.17 371.25 C 393.88 375.80 392.73 378.98 391.15 383.18 C 389.58 387.39 387.40 392.20 385.70 396.47 C 384.00 400.73 382.78 404.78 380.98 408.79 C 379.17 412.81 376.88 416.99 374.88 420.56 C 372.88 424.12 371.02 426.82 368.97 430.16 C 366.92 433.50 364.11 437.26 362.59 440.59 C 361.07 443.92 359.83 447.42 359.87 450.14 C 359.90 452.85 361.21 455.19 362.78 456.88 C 364.34 458.58 367.05 459.54 369.24 460.31 C 371.43 461.09 372.94 461.85 375.90 461.53 C 378.87 461.20 383.14 459.69 387.03 458.36 C 390.91 457.02 395.29 455.43 399.20 453.53 C 403.11 451.62 407.16 448.55 410.48 446.93 C 413.80 445.31 416.43 444.41 419.11 443.83 C 421.80 443.24 424.78 442.84 426.60 443.43 C 428.43 444.01 429.88 445.47 430.05 447.36 C 430.22 449.25 429.15 452.24 427.62 454.76 C 426.09 457.27 423.05 460.02 420.87 462.43 C 418.69 464.83 416.98 466.73 414.53 469.17 C 412.08 471.60 408.72 474.63 406.17 477.05 C 403.62 479.46 401.24 481.57 399.21 483.66 C 397.18 485.75 394.98 487.95 393.99 489.57 C 393.01 491.20 392.92 492.42 393.29 493.40 C 393.66 494.38 394.74 495.05 396.19 495.44 C 397.64 495.84 400.06 495.80 401.97 495.76 C 403.89 495.72 406.06 495.26 407.67 495.19 C 409.29 495.13 410.70 495.12 411.67 495.37 C 412.64 495.62 413.13 495.95 413.51 496.71 C 413.88 497.47 414.65 498.65 413.94 499.92 C 413.23 501.19 411.02 502.86 409.27 504.32 C 407.52 505.78 405.30 507.45 403.46 508.70 C 401.61 509.95 400.06 518.10 398.21 511.83 C 396.36 505.56 395.08 484.21 392.36 471.08 C 389.64 457.95 385.27 445.18 381.88 433.06 C 378.50 420.95 374.87 409.67 372.06 398.39 C 369.25 387.11 366.65 375.07 365.02 365.38 C 363.40 355.69 362.51 348.89 362.31 340.26 C 362.12 331.62 362.37 321.72 363.86 313.55 C 365.35 305.38 368.45 297.76 371.24 291.23 C 374.03 284.69 377.39 278.66 380.60 274.36 C 383.81 270.06 386.68 267.99 390.50 265.40 C 394.33 262.80 399.30 260.62 403.54 258.79 C 407.79 256.96 411.87 255.18 415.95 254.41 C 420.03 253.64 424.24 253.88 428.00 254.17 C 431.77 254.47 435.37 255.72 438.54 256.18 C 441.71 256.63 444.05 256.73 447.02 256.90 C 449.99 257.08 453.45 257.23 456.35 257.22 C 459.24 257.21 461.66 256.59 464.39 256.85 C 467.12 257.11 470.25 258.04 472.72 258.77 C 475.19 259.51 477.01 260.04 479.21 261.28 C 481.40 262.51 483.84 264.36 485.89 266.19 C 487.93 268.01 489.68 270.12 491.46 272.24 C 493.23 274.35 495.20 276.22 496.52 278.88 C 497.84 281.55 498.59 285.35 499.36 288.21 C 500.13 291.07 500.85 292.58 501.12 296.05 C 501.39 299.51 501.85 304.43 500.98 309.00 C 500.10 313.57 498.46 318.06 495.90 323.48 C 493.34 328.91 490.31 335.67 485.64 341.53 C 480.97 347.39 474.14 353.89 467.89 358.64 C 461.65 363.40 455.52 366.19 448.19 370.06 C 440.87 373.92 432.06 377.99 423.94 381.84 C 415.81 385.68 407.20 389.51 399.42 393.12 C 391.65 396.72 383.77 400.33 377.26 403.47 C 370.75 406.61 366.13 408.80 360.37 411.95 C 354.61 415.11 348.19 419.11 342.71 422.40 C 337.22 425.69 332.47 428.74 327.45 431.69 C 322.43 434.64 317.53 437.43 312.60 440.11 C 307.67 442.79 302.28 445.52 297.87 447.74 C 293.47 449.96 290.45 451.62 286.18 453.44 C 281.91 455.26 277.12 457.24 272.26 458.66 C 267.40 460.09 262.08 461.08 257.03 462.01 C 251.98 462.94 246.46 463.54 241.95 464.25 C 237.44 464.97 233.99 465.44 229.98 466.30 C 225.98 467.16 221.30 468.06 217.91 469.41 C 214.52 470.76 211.76 472.53 209.66 474.37 C 207.56 476.22 205.62 478.32 205.31 480.49 C 204.99 482.67 206.71 485.32 207.75 487.44 C 208.80 489.55 209.49 491.32 211.58 493.20 C 213.66 495.07 216.56 497.25 220.26 498.67 C 223.96 500.08 229.10 501.05 233.77 501.70 C 238.43 502.35 243.73 502.57 248.25 502.58 C 252.77 502.58 256.46 501.80 260.88 501.75 C 265.29 501.69 270.76 501.84 274.73 502.25 C 278.69 502.66 281.69 503.22 284.67 504.20 C 287.65 505.19 290.71 506.94 292.59 508.19 C 294.48 509.44 295.11 516.74 295.97 511.72 C 296.82 506.71 296.78 490.03 297.72 478.09 C 298.65 466.16 300.30 452.16 301.57 440.12 C 302.83 428.08 304.03 416.99 305.31 405.87 C 306.58 394.74 308.23 383.03 309.21 373.36 C 310.18 363.69 310.90 356.98 311.14 347.83 C 311.38 338.68 311.55 327.85 310.67 318.46 C 309.79 309.07 308.22 300.17 305.86 291.50 C 303.50 282.82 300.46 274.10 296.52 266.41 C 292.58 258.73 287.00 251.11 282.20 245.38 C 277.41 239.66 273.64 235.90 267.75 232.05 C 261.87 228.21 253.92 224.68 246.91 222.31 C 239.91 219.94 232.72 218.12 225.73 217.83 C 218.73 217.54 211.05 219.05 204.96 220.55 C 198.86 222.05 194.26 223.45 189.18 226.83 C 184.10 230.21 178.40 235.39 174.49 240.84 C 170.58 246.30 167.41 252.82 165.73 259.55 C 164.04 266.28 163.91 274.13 164.36 281.24 C 164.80 288.35 166.69 295.94 168.39 302.23 C 170.10 308.52 171.77 313.12 174.61 318.98 C 177.44 324.84 181.86 331.67 185.39 337.38 C 188.93 343.10 192.78 347.89 195.82 353.26 C 198.87 358.63 201.43 364.73 203.67 369.58 C 205.91 374.44 207.90 377.82 209.25 382.38 C 210.60 386.94 211.66 392.49 211.78 396.94 C 211.91 401.39 210.95 405.26 210.01 409.10 C 209.08 412.94 208.35 416.90 206.19 419.99 C 204.03 423.07 200.26 425.75 197.03 427.59 C 193.80 429.44 190.75 430.03 186.79 431.04 C 182.83 432.06 178.09 434.17 173.26 433.67 C 168.43 433.17 163.10 431.19 157.81 428.06 C 152.53 424.93 146.24 419.60 141.55 414.89 C 136.87 410.17 133.26 406.27 129.72 399.78 C 126.17 393.29 122.58 384.48 120.27 375.94 C 117.96 367.39 116.06 357.79 115.87 348.51 C 115.67 339.22 117.50 329.50 119.12 320.24 C 120.74 310.98 122.95 301.11 125.59 292.97 C 128.24 284.82 130.94 278.84 134.97 271.36 C 139.00 263.88 144.43 255.26 149.77 248.07 C 155.10 240.87 160.64 234.04 166.96 228.18 C 173.29 222.31 181.05 216.75 187.72 212.90 C 194.39 209.05 199.66 207.14 206.99 205.06 C 214.31 202.98 223.58 201.36 231.67 200.42 C 239.76 199.47 247.68 198.94 255.54 199.39 C 263.41 199.83 271.62 201.20 278.88 203.10 C 286.14 205.01 293.14 207.97 299.08 210.80 C 305.02 213.64 309.39 216.23 314.53 220.12 C 319.67 224.02 325.36 229.07 329.92 234.18 C 334.49 239.28 338.22 245.30 341.92 250.73 C 345.62 256.17 348.90 262.15 352.14 266.78 C 355.38 271.42 357.84 274.79 361.34 278.55 C 364.85 282.31 368.92 286.60 373.19 289.33 C 377.45 292.06 382.47 293.92 386.94 294.93 C 391.41 295.94 395.93 294.55 400.01 295.39 C 404.09 296.23 408.22 298.17 411.39 299.98 C 414.57 301.78 416.65 303.34 419.04 306.22 C 421.42 309.10 424.31 312.97 425.68 317.25 C 427.05 321.54 427.39 326.92 427.25 331.92 C 427.10 336.93 425.90 342.54 424.81 347.28 C 423.73 352.02 422.56 355.76 420.71 360.36 C 418.86 364.95 415.98 370.03 413.72 374.86 C 411.47 379.70 409.40 384.71 407.18 389.38 C 404.96 394.05 402.20 398.67 400.40 402.87 C 398.59 407.08 397.07 411.27 396.35 414.60 C 395.63 417.93 395.62 420.29 396.08 422.85 C 396.53 425.42 397.69 427.91 399.08 430.00 C 400.48 432.09 402.34 434.07 404.43 435.39 C 406.51 436.71 409.22 437.72 411.59 437.91 C 413.96 438.10 415.75 437.99 418.64 436.52 C 421.53 435.05 425.55 432.47 428.92 429.11 C 432.30 425.75 435.54 420.83 438.90 416.37 C 442.26 411.91 445.92 407.09 449.08 402.33 C 452.24 397.56 455.31 392.14 457.86 387.78 C 460.40 383.42 461.98 379.76 464.36 376.17 C 466.74 372.58 469.59 369.20 472.15 366.24 C 474.71 363.28 477.35 360.36 479.71 358.39 C 482.07 356.42 484.46 355.01 486.31 354.43 C 488.15 353.84 489.48 354.23 490.80 354.89 C 492.13 355.55 493.77 356.46 494.25 358.38 C 494.73 360.29 494.58 363.16 493.67 366.38 C 492.76 369.59 491.72 373.48 488.78 377.66 C 485.85 381.84 481.29 387.37 476.06 391.46 C 470.84 395.56 465.35 399.07 457.43 402.22 C 449.51 405.37 438.15 408.22 428.53 410.36 C 418.91 412.49 409.39 413.96 399.70 415.03 C 390.01 416.10 379.17 416.53 370.39 416.77 C 361.60 417.01 355.50 416.84 346.99 416.48 C 338.49 416.13 328.36 415.42 319.35 414.64 C 310.34 413.86 301.38 413.11 292.91 411.81 C 284.45 410.51 276.43 408.25 268.57 406.85 C 260.71 405.44 252.16 403.93 245.75 403.39 C 239.33 402.85 234.86 402.45 230.07 403.61 C 225.29 404.77 220.11 407.61 217.05 410.35 C 214.00 413.10 212.03 416.55 211.75 420.06 C 211.47 423.57 213.55 428.19 215.38 431.40 C 217.20 434.60 218.87 437.13 222.70 439.29 C 226.54 441.46 232.48 443.52 238.40 444.38 C 244.32 445.23 251.18 445.77 258.23 444.42 C 265.28 443.07 273.50 440.49 280.71 436.26 C 287.93 432.03 295.66 425.11 301.54 419.06 C 307.42 413.02 311.60 407.64 316.00 399.99 C 320.39 392.35 324.97 382.44 327.92 373.20 C 330.88 363.96 332.66 354.04 333.72 344.55 C 334.78 335.06 334.78 324.74 334.29 316.25 C 333.80 307.75 332.77 301.66 330.78 293.59 C 328.79 285.52 325.96 275.71 322.33 267.80 C 318.70 259.88 314.71 252.10 309.02 246.09 C 303.34 240.09 295.39 235.65 288.21 231.76 C 281.03 227.87 272.83 224.59 265.93 222.76 C 259.03 220.93 253.62 220.49 246.82 220.79 C 240.03 221.09 231.87 222.07 225.15 224.57 C 218.43 227.08 211.77 231.08 206.49 235.83 C 201.22 240.58 196.21 247.26 193.47 253.06 C 190.74 258.86 190.03 263.95 190.08 270.65 C 190.14 277.36 190.92 286.54 193.80 293.30 C 196.69 300.05 201.79 306.23 207.39 311.21 C 213.00 316.18 220.43 320.06 227.45 323.15 C 234.46 326.23 242.55 328.82 249.48 329.71 C 256.41 330.60 262.10 330.28 269.03 328.48 C 275.97 326.69 284.27 322.56 291.08 318.95 C 297.88 315.34 303.92 311.18 309.89 306.84 C 315.86 302.49 321.83 296.91 326.89 292.87 C 331.96 288.83 335.63 286.24 340.29 282.62 C 344.94 279.01 350.15 274.65 354.82 271.17 C 359.50 267.69 363.71 264.57 368.36 261.74 C 373.01 258.91 378.20 256.56 382.72 254.19 C 387.23 251.82 391.68 249.64 395.45 247.50 C 399.22 245.35 402.30 244.43 405.32 241.33 C 408.35 238.22 411.54 233.58 413.59 228.89 C 415.63 224.20 417.31 218.82 417.57 213.18 C 417.83 207.55 416.77 200.69 415.13 195.08 C 413.48 189.46 411.52 184.99 407.70 179.48 C 403.89 173.97 398.32 167.14 392.23 162.03 C 386.13 156.92 378.30 152.77 371.15 148.83 C 363.99 144.90 356.91 141.33 349.30 138.42 C 341.68 135.52 332.65 133.12 325.45 131.41 C 318.24 129.70 313.29 128.81 306.07 128.16 C 298.86 127.51 290.07 127.23 282.14 127.52 C 274.21 127.81 266.29 128.34 258.48 129.90 C 250.67 131.45 242.04 133.73 235.26 136.86 C 228.48 139.98 223.62 143.73 217.80 148.64 C 211.98 153.55 205.22 159.50 200.34 166.32 C 195.45 173.14 191.30 181.40 188.48 189.55 C 185.67 197.71 184.04 206.85 183.47 215.24 C 182.89 223.63 183.82 232.50 185.03 239.90 C 186.23 247.29 187.35 252.80 190.70 259.62 C 194.04 266.44 199.66 274.60 205.08 280.81 C 210.50 287.03 216.64 292.55 223.22 296.91 C 229.80 301.27 237.76 304.88 244.55 306.99 C 251.34 309.10 257.04 309.11 263.98 309.58 C 270.91 310.05 279.00 310.03 286.16 309.80 C 293.32 309.57 300.23 308.92 306.94 308.21 C 313.65 307.50 320.11 306.74 326.40 305.53 C 332.68 304.32 339.23 302.28 344.62 300.96 C 350.02 299.64 353.78 298.57 358.76 297.60 C 363.74 296.64 369.40 295.78 374.49 295.16 C 379.58 294.54 384.51 294.81 389.30 293.91 C 394.10 293.01 399.15 291.26 403.25 289.76 C 407.34 288.25 410.42 287.42 413.88 284.88 C 417.34 282.34 421.18 278.64 424.02 274.52 C 426.87 270.40 429.34 265.38 430.96 260.18 C 432.59 254.98 433.56 249.20 433.78 243.30 C 433.99 237.41 433.34 230.67 432.24 224.81 C 431.15 218.96 429.70 214.26 427.22 208.15 C 424.73 202.05 421.36 194.42 417.33 188.18 C 413.30 181.94 408.81 176.06 403.05 170.74 C 397.29 165.42 389.36 160.31 382.77 156.26 C 376.17 152.21 370.69 149.44 363.45 146.43 C 356.22 143.43 347.96 139.54 339.35 138.23 C 330.74 136.91 320.83 137.25 311.79 138.54 C 302.75 139.83 293.71 142.55 285.11 145.98 C 276.51 149.41 267.16 154.06 260.21 159.13 C 253.25 164.21 248.70 169.73 243.37 176.44 C 238.05 183.16 232.66 191.82 228.25 199.42 C 223.84 207.02 220.45 214.59 216.93 222.04 C 213.41 229.49 210.61 237.23 207.15 244.10 C 203.70 250.97 199.68 257.88 196.23 263.26 C 192.77 268.63 190.14 271.83 186.41 276.37 C 182.67 280.92 178.34 286.57 173.81 290.53 C 169.29 294.49 164.23 298.05 159.24 300.12 C 154.24 302.20 148.61 303.17 143.84 302.98 C 139.07 302.79 134.86 301.47 130.61 298.98 C 126.37 296.49 121.64 292.78 118.38 288.03 C 115.12 283.28 112.28 276.96 111.08 270.49 C 109.87 264.01 109.81 256.48 111.14 249.18 C 112.46 241.89 115.44 233.11 119.02 226.70 C 122.60 220.28 127.06 216.27 132.61 210.68 C 138.16 205.10 145.75 198.60 152.32 193.20 C 158.89 187.80 165.61 182.94 172.05 178.27 C 178.50 173.60 185.68 169.23 190.99 165.16 C 196.30 161.09 199.28 157.86 203.93 153.83 C 208.57 149.80 214.05 145.04 218.87 140.97 C 223.69 136.90 228.24 133.07 232.86 129.41 C 237.47 125.74 242.02 122.34 246.56 118.97 C 251.10 115.61 255.75 111.72 260.09 109.22 C 264.43 106.73 268.21 106.03 272.60 104.01 C 276.99 101.99 282.04 99.19 286.44 97.09 C 290.84 94.99 294.67 92.92 299.01 91.41 C 303.35 89.89 308.29 88.88 312.50 87.98 C 316.70 87.09 319.87 86.55 324.22 86.02 C 328.58 85.48 333.59 84.38 338.60 84.78 C 343.60 85.18 348.91 86.04 354.25 88.41 C 359.59 90.79 365.66 93.92 370.64 99.02 C 375.62 104.13 380.33 112.81 384.15 119.05 C 387.96 125.28 390.31 130.13 393.54 136.44 C 396.78 142.76 400.50 150.40 403.57 156.95 C 406.64 163.50 409.13 169.61 411.97 175.73 C 414.80 181.85 417.97 188.65 420.58 193.69 C 423.18 198.73 424.81 201.70 427.59 205.99 C 430.37 210.28 434.24 215.49 437.26 219.43 C 440.28 223.37 442.81 226.69 445.70 229.64 C 448.60 232.60 451.72 234.68 454.63 237.15 C 457.54 239.62 460.74 242.14 463.17 244.45 C 465.60 246.77 467.13 248.41 469.22 251.03 C 471.31 253.66 473.94 256.82 475.72 260.20 C 477.50 263.59 479.04 267.09 479.88 271.36 C 480.71 275.62 481.14 280.95 480.72 285.81 C 480.30 290.68 478.99 295.07 477.36 300.55 C 475.73 306.03 474.03 312.70 470.96 318.69 C 467.88 324.67 463.97 330.64 458.92 336.43 C 453.87 342.22 447.79 348.34 440.66 353.42 C 433.54 358.50 423.89 363.45 416.17 366.92 C 408.45 370.38 402.60 371.90 394.35 374.20 C 386.09 376.50 376.14 379.90 366.66 380.73 C 357.18 381.57 347.07 380.75 337.47 379.21 C 327.87 377.68 317.44 374.70 309.05 371.51 C 300.67 368.32 294.63 364.77 287.18 360.08 C 279.72 355.40 271.03 349.86 264.34 343.40 C 257.66 336.94 251.77 329.04 247.08 321.33 C 242.39 313.63 238.53 305.42 236.20 297.17 C 233.88 288.92 233.16 279.40 233.15 271.85 C 233.15 264.29 234.13 258.62 236.17 251.85 C 238.22 245.07 241.54 237.46 245.42 231.20 C 249.30 224.94 254.17 219.08 259.46 214.28 C 264.76 209.49 271.56 205.37 277.22 202.46 C 282.87 199.55 287.54 198.42 293.39 196.83 C 299.24 195.24 306.28 194.18 312.29 192.92 C 318.31 191.66 323.94 190.28 329.45 189.27 C 334.97 188.26 340.09 187.67 345.39 186.87 C 350.69 186.08 356.77 185.64 361.25 184.52 C 365.74 183.40 368.72 182.25 372.30 180.15 C 375.89 178.05 379.99 175.36 382.75 171.90 C 385.51 168.44 387.69 163.73 388.88 159.41 C 390.06 155.10 390.20 150.21 389.86 146.02 C 389.52 141.84 388.91 138.65 386.83 134.32 C 384.74 130.00 381.37 124.52 377.34 120.08 C 373.32 115.64 368.59 111.11 362.65 107.70 C 356.70 104.29 349.56 100.71 341.67 99.63 C 333.79 98.55 323.48 99.66 315.33 101.25 C 307.18 102.83 300.59 104.68 292.76 109.14 C 284.92 113.59 274.97 120.50 268.33 127.99 C 261.69 135.48 256.33 144.85 252.93 154.10 C 249.53 163.34 248.67 174.66 247.94 183.46 C 247.20 192.26 247.21 198.73 248.51 206.92 C 249.81 215.10 252.19 224.94 255.73 232.58 C 259.26 240.22 264.66 246.87 269.72 252.75 C 274.78 258.62 280.25 263.90 286.08 267.85 C 291.91 271.80 298.98 274.76 304.72 276.44 C 310.46 278.12 314.76 278.27 320.50 277.91 C 326.24 277.55 333.28 275.70 339.16 274.28 C 345.03 272.86 350.49 271.05 355.73 269.41 C 360.97 267.76 366.06 265.99 370.60 264.40 C 375.14 262.81 378.60 260.94 382.98 259.87 C 387.37 258.80 392.44 257.95 396.91 257.97 C 401.39 257.99 405.90 258.55 409.83 259.98 C 413.77 261.40 417.12 264.02 420.53 266.51 C 423.94 269.01 427.38 272.80 430.32 274.94 C 433.25 277.09 435.26 278.27 438.13 279.39 C 441.00 280.50 444.57 282.19 447.54 281.64 C 450.51 281.08 453.63 278.98 455.97 276.06 C 458.30 273.15 460.05 268.26 461.54 264.15 C 463.04 260.04 463.70 255.73 464.93 251.40 C 466.17 247.07 467.32 241.76 468.94 238.18 C 470.56 234.59 472.60 231.94 474.65 229.88 C 476.70 227.83 479.22 227.30 481.23 225.83 C 483.23 224.37 484.90 221.96 486.70 221.11 C 488.49 220.26 490.25 219.81 492.01 220.74 C 493.77 221.67 495.80 223.81 497.26 226.69 C 498.72 229.58 500.05 233.81 500.78 238.06 C 501.50 242.31 501.94 247.30 501.60 252.20 C 501.26 257.10 500.99 261.35 498.72 267.47 C 496.45 273.59 493.15 282.04 487.99 288.90 C 482.82 295.76 475.54 302.63 467.74 308.63 C 459.93 314.64 450.87 320.78 441.18 324.91 C 431.49 329.04 419.49 332.11 409.58 333.39 C 399.67 334.67 391.74 334.29 381.74 332.58 C 371.75 330.86 359.31 327.36 349.60 323.09 C 339.89 318.82 330.71 313.52 323.49 306.94 C 316.27 300.37 310.56 290.95 306.27 283.66 C 301.97 276.37 299.53 270.56 297.72 263.21 C 295.90 255.86 294.60 246.71 295.40 239.54 C 296.20 232.38 298.86 225.40 302.51 220.21 C 306.16 215.03 311.91 211.09 317.29 208.45 C 322.66 205.81 329.44 204.25 334.75 204.38 C 340.06 204.51 344.35 206.43 349.13 209.23 C 353.91 212.03 359.63 215.97 363.45 221.17 C 367.27 226.38 370.58 233.50 372.04 240.44 C 373.50 247.39 373.34 255.95 372.22 262.85 C 371.09 269.76 368.48 275.19 365.30 281.87 C 362.13 288.56 358.19 296.69 353.17 302.99 C 348.15 309.29 342.05 315.22 335.19 319.66 C 328.32 324.11 320.19 327.73 311.99 329.67 C 303.79 331.60 293.88 331.48 286.00 331.29 C 278.11 331.09 272.09 330.70 264.66 328.47 C 257.23 326.25 248.11 322.70 241.40 317.96 C 234.69 313.21 229.17 306.66 224.39 299.99 C 219.61 293.32 215.19 284.90 212.70 277.95 C 210.21 271.01 208.86 265.40 209.45 258.31 C 210.04 251.21 212.89 242.43 216.23 235.37 C 219.57 228.32 224.34 221.52 229.50 215.97 C 234.65 210.42 240.75 205.52 247.14 202.09 C 253.54 198.66 261.47 196.35 267.86 195.40 C 274.24 194.45 279.12 194.87 285.45 196.40 C 291.79 197.92 299.76 200.63 305.85 204.53 C 311.94 208.44 317.67 213.95 322.00 219.83 C 326.33 225.72 330.16 233.20 331.84 239.83 C 333.52 246.46 333.41 252.65 332.08 259.64 C 330.75 266.62 327.98 275.20 323.84 281.74 C 319.70 288.27 313.99 294.65 307.24 298.87 C 300.49 303.09 291.44 305.79 283.32 307.05 C 275.21 308.31 265.75 308.09 258.53 306.41 C 251.31 304.73 245.56 301.78 240.01 296.95 C 234.46 292.12 228.15 284.72 225.24 277.42 C 222.33 270.12 221.48 260.73 222.55 253.14 C 223.62 245.56 227.70 237.46 231.66 231.89 C 235.63 226.33 240.51 223.49 246.34 219.76 C 252.16 216.03 259.58 211.68 266.62 209.50 C 273.65 207.33 281.44 207.06 288.53 206.73 C 295.62 206.40 302.54 206.83 309.15 207.53 C 315.76 208.23 322.49 209.78 328.19 210.93 C 333.90 212.09 338.02 213.18 343.38 214.47 C 348.73 215.75 355.03 216.55 360.35 218.65 C 365.67 220.76 370.66 224.03 375.30 227.08 C 379.93 230.14 384.29 233.91 388.16 237.00 C 392.04 240.08 395.28 242.09 398.56 245.59 C 401.84 249.09 405.28 253.35 407.84 258.01 C 410.40 262.67 412.49 268.14 413.92 273.54 C 415.35 278.94 416.55 284.55 416.42 290.43 C 416.30 296.31 414.73 303.21 413.20 308.81 C 411.67 314.42 409.81 318.59 407.24 324.06 C 404.68 329.52 401.18 335.91 397.83 341.61 C 394.47 347.31 390.33 352.79 387.12 358.26 C 383.90 363.73 380.77 369.71 378.53 374.43 C 376.29 379.14 375.01 382.43 373.67 386.55 C 372.32 390.67 371.10 395.09 370.46 399.15 C 369.82 403.21 369.47 407.37 369.82 410.92 C 370.16 414.47 370.92 418.15 372.52 420.46 C 374.13 422.76 376.70 424.05 379.46 424.74 C 382.21 425.44 385.33 425.63 389.08 424.64 C 392.82 423.66 397.64 421.81 401.92 418.82 C 406.21 415.83 410.81 411.53 414.78 406.71 C 418.75 401.90 422.76 395.59 425.72 389.91 C 428.68 384.23 430.77 379.49 432.54 372.65 C 434.31 365.80 435.94 357.22 436.33 348.86 C 436.72 340.50 436.21 331.41 434.87 322.49 C 433.53 313.57 431.50 304.27 428.29 295.36 C 425.09 286.45 419.83 276.73 415.63 269.03 C 411.42 261.34 407.75 256.18 403.06 249.18 C 398.37 242.18 393.06 234.02 387.49 227.05 C 381.92 220.09 375.46 213.61 369.64 207.39 C 363.83 201.17 357.76 194.96 352.61 189.72 C 347.46 184.48 343.20 180.87 338.74 175.93 C 334.29 170.99 329.91 165.14 325.87 160.08 C 321.84 155.01 317.06 150.36 314.54 145.52 C 312.02 140.68 310.95 135.73 310.75 131.04 C 310.56 126.35 312.03 121.14 313.37 117.38 C 314.72 113.62 315.94 110.89 318.81 108.46 C 321.68 106.03 326.49 104.17 330.60 102.80 C 334.71 101.42 339.08 100.74 343.48 100.19 C 347.88 99.65 352.99 99.72 356.98 99.51 C 360.98 99.29 363.80 99.17 367.47 98.92 C 371.14 98.68 375.20 98.53 379.01 98.04 C 382.82 97.54 387.22 97.13 390.32 95.95 C 393.43 94.78 395.70 92.89 397.62 90.98 C 399.55 89.07 401.17 86.63 401.86 84.49 C 402.56 82.36 402.26 80.75 401.81 78.15 C 401.36 75.55 400.57 71.98 399.16 68.89 C 397.75 65.80 396.06 62.77 393.35 59.61 C 390.65 56.45 387.00 52.89 382.91 49.92 C 378.82 46.96 373.66 43.97 368.81 41.82 C 363.97 39.68 359.06 38.68 353.82 37.06 C 348.59 35.43 342.24 33.92 337.40 32.06 C 332.56 30.21 327.98 27.93 324.78 25.95 C 321.58 23.97 319.41 21.85 318.20 20.19 C 316.99 18.54 317.29 17.53 317.51 16.03 C 317.74 14.52 318.77 12.79 319.54 11.18 C 320.30 9.56 321.43 7.85 322.10 6.32 C 322.78 4.79 323.06 0.74 323.58 1.99 C 324.11 3.24 324.73 6.41 325.24 13.84 C 325.74 21.26 326.13 35.00 326.62 46.53 C 327.11 58.06 328.20 71.01 328.18 83.03 C 328.15 95.04 327.13 107.17 326.49 118.63 C 325.85 130.08 324.96 141.97 324.35 151.74 C 323.74 161.51 323.11 168.35 322.83 177.26 C 322.55 186.16 322.51 196.23 322.67 205.15 C 322.83 214.07 323.03 222.72 323.79 230.79 C 324.55 238.87 325.91 246.42 327.24 253.60 C 328.56 260.79 330.04 267.97 331.75 273.91 C 333.46 279.86 335.39 283.95 337.49 289.26 C 339.59 294.57 342.30 300.25 344.36 305.78 C 346.43 311.30 348.26 317.06 349.90 322.42 C 351.55 327.78 353.72 333.12 354.22 337.93 C 354.72 342.74 353.68 346.35 352.89 351.29 C 352.09 356.23 351.07 362.45 349.44 367.56 C 347.82 372.67 346.54 377.55 343.15 381.93 C 339.77 386.31 334.84 390.65 329.14 393.85 C 323.45 397.05 315.32 399.30 308.99 401.14 C 302.65 402.98 298.06 404.62 291.13 404.89 C 284.21 405.16 275.18 404.87 267.41 402.76 C 259.64 400.65 251.60 397.00 244.51 392.22 C 237.43 387.43 230.61 380.00 224.90 374.06 C 219.19 368.13 215.18 362.93 210.24 356.58 C 205.31 350.23 200.22 342.40 195.29 335.95 C 190.37 329.49 185.72 323.22 180.70 317.85 C 175.68 312.48 170.32 308.07 165.18 303.74 C 160.04 299.41 154.30 295.16 149.85 291.88 C 145.39 288.59 142.66 286.72 138.44 284.03 C 134.22 281.34 128.90 278.53 124.51 275.76 C 120.12 272.99 116.02 270.33 112.11 267.42 C 108.20 264.51 104.06 261.56 101.05 258.29 C 98.04 255.03 96.30 251.73 94.04 247.83 C 91.79 243.93 89.24 239.63 87.51 234.90 C 85.79 230.18 84.76 224.51 83.70 219.47 C 82.63 214.42 81.33 209.95 81.14 204.62 C 80.95 199.28 81.64 192.64 82.54 187.45 C 83.45 182.26 84.28 178.71 86.57 173.49 C 88.87 168.26 92.06 161.57 96.30 156.09 C 100.53 150.61 106.74 145.55 111.99 140.61 C 117.24 135.67 123.07 130.67 127.79 126.45 C 132.52 122.23 135.32 118.99 140.34 115.31 C 145.36 111.63 152.32 108.02 157.92 104.36 C 163.51 100.69 168.97 96.78 173.90 93.33 C 178.83 89.87 183.90 86.95 187.51 83.61 C 191.13 80.26 193.94 76.34 195.58 73.27 C 197.21 70.19 197.20 68.05 197.31 65.16 C 197.42 62.27 196.11 58.90 196.23 55.93 C 196.35 52.95 196.53 50.13 198.02 47.30 C 199.51 44.48 202.49 41.30 205.17 38.97 C 207.86 36.63 210.38 35.15 214.13 33.31 C 217.88 31.48 222.68 29.07 227.67 27.95 C 232.66 26.83 238.20 26.32 244.09 26.59 C 249.97 26.85 256.61 28.14 262.99 29.54 C 269.37 30.94 276.50 33.22 282.38 34.97 C 288.25 36.72 292.55 38.18 298.26 40.05 C 303.97 41.93 310.73 44.17 316.63 46.24 C 322.54 48.31 328.17 50.30 333.72 52.49 C 339.26 54.67 345.18 57.42 349.91 59.35 C 354.65 61.28 357.88 62.48 362.15 64.08 C 366.41 65.68 371.37 67.86 375.50 68.94 C 379.63 70.02 383.95 70.81 386.94 70.56 C 389.93 70.31 392.09 68.93 393.46 67.44 C 394.82 65.95 395.10 63.63 395.12 61.62 C 395.13 59.60 395.10 57.85 393.54 55.36 C 391.98 52.88 389.16 49.35 385.75 46.69 C 382.34 44.02 378.10 41.71 373.08 39.35 C 368.07 36.99 361.23 34.19 355.65 32.54 C 350.08 30.90 346.14 29.95 339.63 29.47 C 333.12 28.98 324.59 28.55 316.57 29.64 C 308.54 30.73 299.74 32.99 291.48 36.01 C 283.21 39.02 274.99 42.68 266.98 47.72 C 258.97 52.77 249.98 59.62 243.42 66.29 C 236.87 72.96 232.03 78.89 227.62 87.73 C 223.21 96.58 219.58 108.78 216.96 119.36 C 214.34 129.94 212.23 140.79 211.90 151.22 C 211.56 161.65 212.99 173.12 214.97 181.94 C 216.95 190.76 219.45 197.06 223.79 204.13 C 228.13 211.20 234.86 218.46 240.98 224.35 C 247.11 230.24 253.65 235.79 260.56 239.47 C 267.47 243.16 275.37 245.72 282.43 246.46 C 289.49 247.19 297.17 245.71 302.92 243.89 C 308.67 242.06 312.56 239.34 316.92 235.53 C 321.28 231.72 326.06 226.35 329.08 221.03 C 332.09 215.70 334.57 209.64 335.01 203.58 C 335.45 197.53 333.73 190.27 331.71 184.69 C 329.70 179.10 326.96 174.92 322.92 170.07 C 318.89 165.23 313.57 159.30 307.50 155.63 C 301.42 151.96 294.03 149.13 286.47 148.05 C 278.92 146.98 270.04 147.38 262.18 149.19 C 254.32 150.99 245.91 154.98 239.33 158.86 C 232.75 162.74 227.88 166.58 222.69 172.48 C 217.51 178.37 211.82 186.50 208.21 194.21 C 204.59 201.92 202.43 210.57 201.03 218.72 C 199.62 226.87 199.30 235.75 199.79 243.11 C 200.28 250.46 202.08 255.82 203.97 262.83 C 205.85 269.84 208.79 278.12 211.11 285.17 C 213.43 292.22 216.31 298.53 217.89 305.12 C 219.46 311.72 220.15 318.47 220.58 324.74 C 221.00 331.00 220.87 337.36 220.44 342.69 C 220.02 348.03 219.58 352.06 218.03 356.73 C 216.47 361.40 214.05 366.75 211.12 370.70 C 208.18 374.66 204.69 378.05 200.44 380.46 C 196.18 382.87 190.34 384.48 185.56 385.17 C 180.79 385.86 176.72 385.35 171.81 384.59 C 166.89 383.83 161.37 383.20 156.07 380.62 C 150.78 378.04 144.91 373.86 140.05 369.11 C 135.20 364.37 130.62 358.17 126.95 352.14 C 123.27 346.11 120.73 338.87 118.02 332.94 C 115.31 327.00 113.13 322.47 110.67 316.54 C 108.22 310.61 105.68 303.41 103.32 297.36 C 100.95 291.30 98.79 285.49 96.50 280.20 C 94.21 274.91 91.94 269.62 89.56 265.63 C 87.18 261.64 85.12 259.04 82.25 256.29 C 79.38 253.53 75.50 251.14 72.32 249.11 C 69.15 247.09 66.22 245.10 63.19 244.16 C 60.16 243.23 57.04 242.90 54.14 243.50 C 51.24 244.11 48.10 245.85 45.79 247.80 C 43.47 249.76 42.01 252.32 40.24 255.23 C 38.46 258.15 36.55 261.75 35.12 265.28 C 33.69 268.82 32.65 272.45 31.67 276.45 C 30.69 280.44 30.12 285.76 29.23 289.26 C 28.34 292.76 27.70 295.02 26.32 297.44 C 24.95 299.86 22.76 302.74 20.96 303.78 C 19.17 304.82 17.36 304.82 15.58 303.68 C 13.80 302.54 11.81 300.12 10.27 296.94 C 8.73 293.76 6.97 289.06 6.33 284.60 C 5.69 280.14 5.16 276.12 6.42 270.19 C 7.68 264.26 10.60 256.22 13.87 249.02 C 17.15 241.82 20.94 234.06 26.05 226.97 C 31.16 219.88 38.02 212.30 44.54 206.47 C 51.06 200.65 56.95 196.47 65.15 192.00 C 73.36 187.54 83.73 182.86 93.79 179.70 C 103.84 176.53 114.84 174.18 125.49 173.00 C 136.15 171.83 147.34 171.75 157.73 172.63 C 168.11 173.51 179.20 175.52 187.82 178.27 C 196.43 181.02 201.81 184.83 209.41 189.13 C 217.00 193.43 226.30 198.44 233.40 204.08 C 240.50 209.73 246.88 216.20 252.02 223.00 C 257.16 229.80 261.28 238.08 264.24 244.89 C 267.19 251.71 269.14 257.01 269.73 263.90 C 270.32 270.80 269.97 279.36 267.78 286.26 C 265.59 293.16 261.14 300.07 256.59 305.31 C 252.03 310.56 246.05 314.07 240.45 317.73 C 234.85 321.39 228.16 324.67 222.99 327.28 C 217.81 329.89 214.35 331.13 209.40 333.40 C 204.44 335.66 198.29 338.17 193.26 340.87 C 188.23 343.57 183.38 346.58 179.24 349.59 C 175.09 352.61 171.33 356.02 168.39 358.97 C 165.45 361.93 164.05 364.37 161.60 367.31 C 159.14 370.24 155.76 373.14 153.65 376.60 C 151.54 380.05 149.75 384.10 148.94 388.02 C 148.13 391.94 148.31 396.06 148.81 400.11 C 149.31 404.17 150.31 408.64 151.94 412.35 C 153.57 416.07 155.54 418.99 158.59 422.38 C 161.64 425.78 166.22 429.37 170.23 432.73 C 174.24 436.09 178.18 439.67 182.67 442.54 C 187.15 445.41 192.17 448.08 197.15 449.94 C 202.13 451.80 206.46 453.15 212.56 453.70 C 218.65 454.25 226.35 454.26 233.71 453.26 C 241.07 452.27 249.21 449.82 256.71 447.74 C 264.20 445.67 271.51 443.40 278.67 440.81 C 285.83 438.22 293.32 435.16 299.68 432.18 C 306.05 429.20 310.86 426.28 316.88 422.94 C 322.90 419.61 329.82 415.49 335.80 412.18 C 341.78 408.88 347.29 405.28 352.74 403.12 C 358.20 400.97 364.25 399.85 368.55 399.25 C 372.84 398.66 375.47 398.58 378.50 399.57 C 381.52 400.56 384.33 403.17 386.69 405.18 C 389.05 407.19 391.15 409.19 392.67 411.62 C 394.20 414.05 394.66 417.31 395.82 419.76 C 396.98 422.22 398.69 424.31 399.65 426.35 C 400.60 428.39 400.73 429.98 401.55 432.02 C 402.36 434.06 403.34 436.72 404.55 438.60 C 405.76 440.47 407.05 442.14 408.80 443.27 C 410.55 444.41 412.87 445.04 415.04 445.39 C 417.20 445.74 419.02 446.32 421.81 445.37 C 424.59 444.42 428.27 442.73 431.74 439.71 C 435.22 436.70 439.42 432.47 442.67 427.26 C 445.93 422.04 448.57 414.87 451.27 408.44 C 453.98 402.00 456.94 394.70 458.89 388.65 C 460.84 382.60 461.44 378.11 462.96 372.12 C 464.48 366.12 466.35 358.95 468.01 352.69 C 469.68 346.44 470.25 340.85 472.96 334.61 C 475.67 328.37 482.38 318.49 484.27 315.27" fill="none" stroke="#fff" stroke-width="4.48" stroke-opacity="1" stroke-linecap="round" stroke-linejoin="round"/>
  </g>
</svg>